<?xml version="1.0" encoding="utf-8"?>
<!-- Generator: Adobe Illustrator 16.0.0, SVG Export Plug-In . SVG Version: 6.00 Build 0)  -->
<!DOCTYPE svg PUBLIC "-//W3C//DTD SVG 1.1//EN" "http://www.w3.org/Graphics/SVG/1.1/DTD/svg11.dtd">
<svg version="1.1" id="Layer_1" xmlns="http://www.w3.org/2000/svg" xmlns:xlink="http://www.w3.org/1999/xlink" x="0px" y="0px"
	 width="112.75px" height="112.75px" viewBox="0 0 112.75 112.75" enable-background="new 0 0 112.75 112.75" xml:space="preserve">
<g>
	<path fill="#FFFFFF" d="M75.682,41.353c0,2.762,2.238,5,5,5s5-2.238,5-5c0-1.453-0.619-2.761-1.607-3.674L75.682,41.353z"/>
	<path fill="#FFFFFF" d="M37.619,41.353c0,2.762-2.238,5-5,5c-2.761,0-5-2.238-5-5c0-1.453,0.62-2.761,1.608-3.674L37.619,41.353z"
		/>
	<path fill="none" stroke="#FFFFFF" stroke-width="5" stroke-linecap="round" stroke-miterlimit="10" d="M37.342,84.582
		c1.926-6.12,9.714-10.7,19.033-10.7c9.318,0,17.107,4.58,19.033,10.7"/>
</g>
</svg>
