<?xml version="1.0" encoding="utf-8"?>
<!-- Generator: Adobe Illustrator 16.0.0, SVG Export Plug-In . SVG Version: 6.00 Build 0)  -->
<!DOCTYPE svg PUBLIC "-//W3C//DTD SVG 1.1//EN" "http://www.w3.org/Graphics/SVG/1.1/DTD/svg11.dtd">
<svg version="1.1" id="Layer_1" xmlns="http://www.w3.org/2000/svg" xmlns:xlink="http://www.w3.org/1999/xlink" x="0px" y="0px"
	 width="1000px" height="1000px" viewBox="0 0 1000 1000" enable-background="new 0 0 1000 1000" xml:space="preserve">
<g>
	<g>
		<polygon fill="#496275" points="506.492,735.393 282.478,605.637 282.478,673.283 506.492,803.031 734.947,673.283 
			734.947,605.637 		"/>
	</g>
	<polygon fill="#00B1A0" points="734.947,605.637 506.492,735.393 282.478,605.637 510.934,475.877 	"/>
	<g>
		<polygon fill="#496275" points="506.492,575.275 282.478,445.518 282.478,513.174 506.492,642.922 734.947,513.174 
			734.947,445.518 		"/>
	</g>
	<polygon fill="#00B1A0" points="734.947,445.518 506.492,575.275 282.478,445.518 510.934,315.769 	"/>
	<g>
		<polygon fill="#496275" points="506.492,415.158 282.478,285.409 282.478,353.056 506.492,482.815 734.947,353.056 
			734.947,285.409 		"/>
	</g>
	<polygon fill="#00B1A0" points="734.947,285.409 506.492,415.158 282.478,285.409 510.934,155.661 	"/>
</g>
</svg>
