<?xml version="1.0" encoding="utf-8"?>
<!-- Generator: Adobe Illustrator 16.0.0, SVG Export Plug-In . SVG Version: 6.00 Build 0)  -->
<!DOCTYPE svg PUBLIC "-//W3C//DTD SVG 1.1//EN" "http://www.w3.org/Graphics/SVG/1.1/DTD/svg11.dtd">
<svg version="1.1" id="Layer_1" xmlns="http://www.w3.org/2000/svg" xmlns:xlink="http://www.w3.org/1999/xlink" x="0px" y="0px"
	 width="1000px" height="1000px" viewBox="0 0 1000 1000" enable-background="new 0 0 1000 1000" xml:space="preserve">
<g>
	<g>
		<g>
			<path fill="#496275" d="M283.103,445.631c0-78.985-0.055-157.971,0.025-236.957c0.035-30.047,17.307-53.645,44.901-61.096
				c5.959-1.604,12.37-2.204,18.575-2.204c77.979-0.15,155.948-0.16,233.931-0.08c37.405,0.04,63.571,25.961,63.587,63.26
				c0.095,158.462,0.095,316.923,0,475.385c-0.021,36.819-26.258,62.97-63.091,63.03c-78.229,0.13-156.448,0.121-234.683,0
				c-37.179-0.061-63.181-26.282-63.22-63.661C283.038,604.082,283.103,524.856,283.103,445.631z M463.83,724.555
				c20.683-0.11,37.545-17.268,37.435-38.081c-0.105-20.613-17.458-37.54-38.206-37.238c-20.402,0.279-37.154,17.287-37.069,37.639
				C426.07,707.647,443.162,724.675,463.83,724.555z M463.92,205.309c-11.743,0-23.497,0.061-35.236-0.03
				c-5.554-0.03-10.341,0.892-10.161,7.842c0.16,6.39,4.658,7.412,9.926,7.402c23.498-0.05,46.99-0.05,70.487,0.009
				c5.349,0.011,9.666-1.181,9.775-7.551c0.105-6.41-4.156-7.732-9.545-7.703C487.417,205.369,475.669,205.309,463.92,205.309z
				 M283.103,445.631c0-78.985-0.055-157.971,0.025-236.957c0.035-30.047,17.307-53.645,44.901-61.096
				c5.959-1.604,12.37-2.204,18.575-2.204c77.979-0.15,155.948-0.16,233.931-0.08c37.405,0.04,63.571,25.961,63.587,63.26
				c0.095,158.462,0.095,316.923,0,475.385c-0.021,36.819-26.258,62.97-63.091,63.03c-78.229,0.13-156.448,0.121-234.683,0
				c-37.179-0.061-63.181-26.282-63.22-63.661C283.038,604.082,283.103,524.856,283.103,445.631z"/>
			<path fill="#F4F4F4" d="M463.83,724.555c-20.668,0.12-37.76-16.907-37.84-37.681c-0.085-20.352,16.667-37.359,37.069-37.639
				c20.748-0.302,38.101,16.625,38.206,37.238C501.375,707.287,484.513,724.444,463.83,724.555z"/>
			<path fill="#F4F4F4" d="M463.92,205.309c11.749,0,23.497,0.05,35.246-0.02c5.389-0.04,9.65,1.283,9.545,7.693
				c-0.109,6.37-4.427,7.562-9.775,7.551c-23.497-0.06-46.989-0.06-70.487,0c-5.268,0.011-9.766-1.021-9.926-7.412
				c-0.175-6.95,4.607-7.872,10.161-7.842C440.423,205.369,452.177,205.309,463.92,205.309z"/>
		</g>
		<path fill="#FFFFFF" d="M599.095,446.191c0-53.404,0-106.81,0-160.215c0-15.283-5.077-20.472-20.092-20.472
			c-76.982-0.02-153.95-0.02-230.922,0c-14.623,0-19.907,5.289-19.912,19.892c0,107.071,0,214.141,0.005,321.191
			c0,15.044,5.203,20.192,20.458,20.192c76.727,0.01,153.444,0.01,230.172,0c15.124,0,20.277-5.169,20.281-20.362
			C599.105,553.002,599.095,499.596,599.095,446.191z"/>
	</g>
	<g>
		<path fill-rule="evenodd" clip-rule="evenodd" fill="#00B1A0" d="M541.448,753.431c-1.025-56.53,44.651-103.074,100.675-104.177
			c56.625-1.11,104.091,44.341,104.817,101.361c0.721,56.37-44.146,103.205-101.146,104.127
			C589.064,855.663,542.114,810.381,541.448,753.431z"/>
		<path fill-rule="evenodd" clip-rule="evenodd" fill="#FFFFFF" d="M627.044,769.175c0,1.083,0,1.854,0,2.635
			c0,10.277-0.014,20.543,0,30.828c0.006,5.771,3.531,9.315,9.351,9.345c4.997,0.031,9.991,0.011,14.988,0.011
			c6.551-0.02,9.926-3.365,9.926-9.856c0.011-10.215,0.005-20.412,0.005-30.607c0-0.762,0-1.502,0-2.354c1.122,0,1.898,0,2.68,0
			c10.136,0,20.268,0.011,30.394-0.011c6.28,0,9.725-3.404,9.74-9.613c0.021-5.068,0.021-10.137,0-15.205
			c-0.024-5.949-3.505-9.455-9.425-9.465c-10.342-0.01-20.693-0.01-31.04-0.01c-0.75,0-1.497,0-2.349,0c0-1.102,0-1.883,0-2.665
			c0-10.416,0.025-20.833-0.014-31.249c-0.021-5.229-3.706-8.854-8.925-8.895c-4.993-0.02-10.011,0.26-14.979-0.069
			c-6.846-0.472-10.633,4.637-10.447,10.326c0.315,10.056,0.085,20.112,0.085,30.188c0,0.74,0,1.491,0,2.363
			c-1.087,0-1.862,0-2.639,0c-10.347,0-20.693-0.011-31.04,0.01c-5.498,0.01-9.104,3.615-9.13,9.114
			c-0.029,5.209-0.014,10.427,0,15.636c0.021,6.068,3.471,9.524,9.591,9.533c9.706,0.021,19.411,0.011,29.111,0.011
			C624.205,769.175,625.478,769.175,627.044,769.175z"/>
	</g>
</g>
</svg>
