<?xml version="1.0" encoding="utf-8"?>
<!-- Generator: Adobe Illustrator 16.0.0, SVG Export Plug-In . SVG Version: 6.00 Build 0)  -->
<!DOCTYPE svg PUBLIC "-//W3C//DTD SVG 1.1//EN" "http://www.w3.org/Graphics/SVG/1.1/DTD/svg11.dtd">
<svg version="1.1" id="Layer_1" xmlns="http://www.w3.org/2000/svg" xmlns:xlink="http://www.w3.org/1999/xlink" x="0px" y="0px"
	 width="1000px" height="1000px" viewBox="0 0 1000 1000" enable-background="new 0 0 1000 1000" xml:space="preserve">
<g>
	<g>
		<path fill="#496275" d="M731.787,491.823l98.549,202.443c4.012,8.236-0.202,14.979-9.361,14.979H202.686
			c-9.154,0-13.368-6.743-9.356-14.979l98.55-202.443c1.569-3.222,5.782-5.85,9.362-5.85h84.501c2.603,0,6.121,1.622,7.83,3.595
			c5.73,6.619,11.57,13.092,17.394,19.503c5.528,6.078,11.087,12.24,16.604,18.547H327.286c-3.579,0-7.793,2.639-9.362,5.862
			l-65.285,134.111h518.387L705.742,533.48c-1.564-3.224-5.778-5.862-9.363-5.862H595.865c5.517-6.307,11.076-12.469,16.608-18.547
			c5.842-6.432,11.712-12.894,17.462-19.513c1.699-1.963,5.211-3.585,7.81-3.585h84.683
			C726.01,485.973,730.223,488.602,731.787,491.823z"/>
	</g>
	<g>
		<path fill-rule="evenodd" clip-rule="evenodd" fill="#00B1A0" d="M397.849,362.116c2.125-42.706,25.899-76.912,69.146-97.528
			c18.636-8.895,38.856-10.338,59.29-8.083c20.584,2.275,39.038,9.913,55.148,22.881c23.663,19.055,39.11,43.038,43.157,73.659
			c2.938,22.278,1.05,43.775-9.57,64.069c-4.281,8.199-7.954,16.708-11.896,25.072c-21.613,45.938-43.256,91.856-64.811,137.822
			c-4.334,9.239-11.101,15.338-21.251,17.094c-13.647,2.349-24.995-3.562-30.949-16.054c-9.502-19.907-18.89-39.868-28.299-59.818
			c-16.75-35.506-33.271-71.125-50.322-106.484C400.275,399.772,397.584,384.165,397.849,362.116z M511.778,312.573
			c-31.666,0.021-57.087,25.457-57.014,57.066c0.073,31.733,25.499,57.149,57.087,57.076c31.706-0.062,57.055-25.467,57.024-57.148
			C568.848,337.895,543.47,312.552,511.778,312.573z"/>
	</g>
</g>
</svg>
