<?xml version="1.0" encoding="utf-8"?>
<!-- Generator: Adobe Illustrator 16.0.0, SVG Export Plug-In . SVG Version: 6.00 Build 0)  -->
<!DOCTYPE svg PUBLIC "-//W3C//DTD SVG 1.1//EN" "http://www.w3.org/Graphics/SVG/1.1/DTD/svg11.dtd">
<svg version="1.1" id="Layer_1" xmlns="http://www.w3.org/2000/svg" xmlns:xlink="http://www.w3.org/1999/xlink" x="0px" y="0px"
	 width="1000px" height="1000px" viewBox="0 0 1000 1000" enable-background="new 0 0 1000 1000" xml:space="preserve">
<g>
	<g>
		<g>
			<g>
				<path fill="#00B1A0" d="M681.664,399.237c71.98,0.207,129.925,58.322,129.742,130.097
					c-0.192,72.03-58.558,130.161-130.31,129.777c-72.043-0.383-129.937-58.562-129.591-130.209
					C551.854,456.815,609.856,399.029,681.664,399.237z"/>
			</g>
			<path fill="#496275" d="M681.049,679.277c-8.312-0.049-16.45-0.785-24.383-2.109v16.018H355.003V290.823h301.663v90.287
				c8.141-1.343,16.503-2.069,25.037-2.037c8.366,0.023,16.562,0.75,24.541,2.077V241.241H305.421v501.518h400.823v-65.511
				C698.047,678.606,689.633,679.325,681.049,679.277z"/>
			<path fill="#496275" d="M483.339,457.111h-63.355v-63.355h63.355V457.111z M428.249,448.85h46.825v-46.833h-46.825V448.85z"/>
			<path fill="#496275" d="M483.339,558.112h-63.355v-63.356h63.355V558.112z M428.249,549.842h46.825v-46.824h-46.825V549.842z"/>
			<path fill="#496275" d="M483.339,659.111h-63.355v-63.354h63.355V659.111z M428.249,650.843h46.825v-46.825h-46.825V650.843z"/>
		</g>
	</g>
	<path fill="#FFFFFF" d="M666.393,547.886c-12.892-12.911-25.174-25.247-37.505-37.533c-5.749-5.722-11.489-5.737-17.278-0.121
		c-4.453,4.339-8.883,8.717-13.278,13.118c-5.727,5.729-5.738,12.072-0.051,17.776c11.605,11.617,23.217,23.218,34.829,34.833
		c8.294,8.286,16.554,16.61,24.891,24.862c4.969,4.921,10.969,4.938,16.134,0.225c0.457-0.433,0.892-0.879,1.348-1.333
		c29.596-29.601,59.196-59.193,88.789-88.803c0.634-0.638,1.27-1.285,1.829-1.98c3.774-4.634,3.698-10.754-0.425-15.004
		c-5.02-5.168-10.139-10.266-15.382-15.22c-4.614-4.362-10.282-4.29-15.081-0.111c-0.611,0.535-1.19,1.11-1.769,1.685
		c-21.64,21.603-43.291,43.207-64.917,64.826C667.771,545.864,667.208,546.822,666.393,547.886z"/>
</g>
</svg>
