<?xml version="1.0" encoding="utf-8"?>
<!-- Generator: Adobe Illustrator 16.0.0, SVG Export Plug-In . SVG Version: 6.00 Build 0)  -->
<!DOCTYPE svg PUBLIC "-//W3C//DTD SVG 1.1//EN" "http://www.w3.org/Graphics/SVG/1.1/DTD/svg11.dtd">
<svg version="1.1" id="Layer_1" xmlns="http://www.w3.org/2000/svg" xmlns:xlink="http://www.w3.org/1999/xlink" x="0px" y="0px"
	 width="1000px" height="1000px" viewBox="0 0 1000 1000" enable-background="new 0 0 1000 1000" xml:space="preserve">
<g>
	<g>
		<path fill-rule="evenodd" clip-rule="evenodd" fill="#00B1A0" d="M154.385,756.02c0.409-2.413,0.884-5.316,1.385-8.23
			c1.86-10.817,3.733-21.622,5.606-32.439c0.158-0.845-0.04-1.425-0.686-2.032c-9.354-9.049-18.687-18.126-28.014-27.229
			c-0.851-0.844-1.635-1.794-2.243-2.835c-1.167-2.019-0.468-4.182,1.754-4.842c2.349-0.699,4.815-1.029,7.256-1.398
			c11.589-1.702,23.172-3.363,34.78-5.039c0.792-0.105,1.241-0.449,1.61-1.214c5.804-11.794,11.635-23.561,17.466-35.328
			c0.527-1.028,1.147-2.058,1.926-2.901c1.398-1.518,3.457-1.505,4.802,0.039c0.792,0.884,1.438,1.966,1.979,3.047
			c5.752,11.609,11.517,23.218,17.202,34.854c0.528,1.055,1.188,1.425,2.243,1.583c12.426,1.768,24.814,3.562,37.214,5.383
			c1.464,0.224,2.942,0.448,4.314,0.936c2.295,0.817,3.007,2.982,1.715,5.053c-0.581,0.949-1.345,1.808-2.15,2.599
			c-9.313,9.089-18.64,18.192-27.98,27.241c-0.687,0.66-0.871,1.267-0.713,2.164c2.243,12.862,4.486,25.724,6.623,38.6
			c0.237,1.398,0.185,2.955-0.145,4.354c-0.436,1.82-1.887,2.532-3.733,2.124c-0.818-0.185-1.662-0.489-2.415-0.885
			c-11.78-6.173-23.574-12.36-35.328-18.587c-0.924-0.488-1.596-0.462-2.494,0.013c-11.635,6.147-23.257,12.243-34.893,18.351
			c-0.646,0.343-1.306,0.698-2.018,0.897C156.39,761.23,154.425,759.753,154.385,756.02z"/>
	</g>
	<g>
		<path fill-rule="evenodd" clip-rule="evenodd" fill="#00B1A0" d="M304.879,756.02c0.409-2.413,0.896-5.316,1.386-8.23
			c1.86-10.817,3.733-21.622,5.606-32.439c0.158-0.845-0.053-1.425-0.674-2.032c-9.366-9.049-18.706-18.126-28.019-27.229
			c-0.858-0.844-1.649-1.794-2.256-2.835c-1.16-2.019-0.448-4.182,1.768-4.842c2.349-0.699,4.815-1.029,7.256-1.398
			c11.583-1.702,23.165-3.363,34.761-5.039c0.804-0.105,1.252-0.449,1.636-1.214c5.791-11.794,11.608-23.561,17.452-35.328
			c0.516-1.028,1.148-2.058,1.926-2.901c1.398-1.518,3.456-1.505,4.802,0.039c0.792,0.884,1.451,1.966,1.979,3.047
			c5.751,11.609,11.517,23.218,17.203,34.854c0.527,1.055,1.187,1.425,2.243,1.583c12.414,1.768,24.801,3.562,37.228,5.383
			c1.438,0.224,2.915,0.448,4.3,0.936c2.295,0.817,3.008,2.982,1.715,5.053c-0.58,0.949-1.346,1.808-2.15,2.599
			c-9.3,9.089-18.64,18.192-27.994,27.241c-0.672,0.66-0.857,1.267-0.699,2.164c2.242,12.862,4.485,25.724,6.636,38.6
			c0.224,1.398,0.171,2.955-0.158,4.354c-0.436,1.82-1.887,2.532-3.734,2.124c-0.817-0.185-1.648-0.489-2.4-0.885
			c-11.793-6.173-23.587-12.36-35.355-18.587c-0.923-0.488-1.582-0.462-2.493,0.013c-11.608,6.147-23.231,12.243-34.866,18.351
			c-0.661,0.343-1.32,0.698-2.019,0.897C306.884,761.23,304.905,759.753,304.879,756.02z"/>
	</g>
	<g>
		<path fill-rule="evenodd" clip-rule="evenodd" fill="#00B1A0" d="M455.372,756.02c0.41-2.413,0.884-5.316,1.398-8.23
			c1.847-10.817,3.72-21.622,5.593-32.439c0.158-0.845-0.04-1.425-0.672-2.032c-9.353-9.049-18.706-18.126-28.02-27.229
			c-0.857-0.844-1.649-1.794-2.256-2.835c-1.161-2.019-0.448-4.182,1.755-4.842c2.361-0.699,4.815-1.029,7.269-1.398
			c11.583-1.702,23.165-3.363,34.747-5.039c0.819-0.105,1.267-0.449,1.636-1.214c5.805-11.794,11.609-23.561,17.466-35.328
			c0.514-1.028,1.135-2.058,1.926-2.901c1.399-1.518,3.443-1.505,4.802,0.039c0.791,0.884,1.438,1.966,1.979,3.047
			c5.752,11.609,11.503,23.218,17.202,34.854c0.528,1.055,1.188,1.425,2.243,1.583c12.414,1.768,24.826,3.562,37.214,5.383
			c1.451,0.224,2.942,0.448,4.314,0.936c2.295,0.817,3.007,2.982,1.715,5.053c-0.581,0.949-1.346,1.808-2.164,2.599
			c-9.301,9.089-18.627,18.192-27.967,27.241c-0.686,0.66-0.871,1.267-0.725,2.164c2.242,12.862,4.498,25.724,6.635,38.6
			c0.237,1.398,0.185,2.955-0.146,4.354c-0.435,1.82-1.886,2.532-3.72,2.124c-0.831-0.185-1.676-0.489-2.414-0.885
			c-11.794-6.173-23.587-12.36-35.354-18.587c-0.923-0.488-1.596-0.462-2.506,0.013c-11.61,6.147-23.231,12.243-34.867,18.351
			c-0.646,0.343-1.318,0.698-2.005,0.897C457.378,761.23,455.425,759.753,455.372,756.02z"/>
	</g>
	<g>
		<path fill-rule="evenodd" clip-rule="evenodd" fill="#00B1A0" d="M605.866,756.02c0.396-2.413,0.883-5.316,1.385-8.23
			c1.86-10.817,3.733-21.622,5.606-32.439c0.146-0.845-0.053-1.425-0.672-2.032c-9.354-9.049-18.721-18.126-28.033-27.229
			c-0.845-0.844-1.637-1.794-2.243-2.835c-1.161-2.019-0.476-4.182,1.769-4.842c2.348-0.699,4.827-1.029,7.255-1.398
			c11.569-1.702,23.165-3.363,34.761-5.039c0.805-0.105,1.254-0.449,1.623-1.214c5.791-11.794,11.608-23.561,17.466-35.328
			c0.515-1.028,1.147-2.058,1.926-2.901c1.385-1.518,3.457-1.505,4.802,0.039c0.792,0.884,1.438,1.966,1.979,3.047
			c5.766,11.609,11.518,23.218,17.216,34.854c0.515,1.055,1.175,1.425,2.229,1.583c12.4,1.768,24.827,3.562,37.215,5.383
			c1.438,0.224,2.929,0.448,4.313,0.936c2.296,0.817,3.008,2.982,1.715,5.053c-0.58,0.949-1.345,1.808-2.163,2.599
			c-9.301,9.089-18.627,18.192-27.98,27.241c-0.673,0.66-0.857,1.267-0.699,2.164c2.229,12.862,4.473,25.724,6.636,38.6
			c0.237,1.398,0.172,2.955-0.171,4.354c-0.423,1.82-1.874,2.532-3.707,2.124c-0.832-0.185-1.676-0.489-2.415-0.885
			c-11.807-6.173-23.587-12.36-35.354-18.587c-0.924-0.488-1.597-0.462-2.508,0.013c-11.608,6.147-23.244,12.243-34.865,18.351
			c-0.646,0.343-1.319,0.698-2.019,0.897C607.871,761.23,605.905,759.753,605.866,756.02z"/>
	</g>
	<g>
		<path fill-rule="evenodd" clip-rule="evenodd" fill="#00B1A0" d="M756.359,756.02c0.422-2.413,0.87-5.316,1.385-8.23
			c1.86-10.817,3.72-21.622,5.607-32.439c0.158-0.845-0.054-1.425-0.687-2.032c-9.353-9.049-18.692-18.126-28.006-27.229
			c-0.858-0.844-1.649-1.794-2.257-2.835c-1.16-2.019-0.475-4.182,1.755-4.842c2.349-0.699,4.815-1.029,7.255-1.398
			c11.597-1.702,23.179-3.363,34.775-5.039c0.804-0.105,1.252-0.449,1.622-1.214c5.805-11.794,11.622-23.561,17.466-35.328
			c0.528-1.028,1.135-2.058,1.926-2.901c1.398-1.518,3.443-1.505,4.803,0.039c0.791,0.884,1.425,1.966,1.965,3.047
			c5.765,11.609,11.517,23.218,17.216,34.854c0.515,1.055,1.187,1.425,2.243,1.583c12.4,1.768,24.813,3.562,37.201,5.383
			c1.45,0.224,2.941,0.448,4.313,0.936c2.308,0.817,3.021,2.982,1.728,5.053c-0.593,0.949-1.346,1.808-2.163,2.599
			c-9.313,9.089-18.627,18.192-27.98,27.241c-0.672,0.66-0.856,1.267-0.712,2.164c2.256,12.862,4.485,25.724,6.648,38.6
			c0.225,1.398,0.172,2.955-0.172,4.354c-0.422,1.82-1.873,2.532-3.72,2.124c-0.831-0.185-1.662-0.489-2.4-0.885
			c-11.794-6.173-23.587-12.36-35.355-18.587c-0.923-0.488-1.596-0.462-2.506,0.013c-11.609,6.147-23.244,12.243-34.865,18.351
			c-0.647,0.343-1.32,0.698-2.02,0.897C758.365,761.23,756.386,759.753,756.359,756.02z"/>
	</g>
	<g>
		<g>
			<path fill-rule="evenodd" clip-rule="evenodd" fill="#00B1A0" d="M500.225,295.371c61.396,0.079,110.839,49.708,110.522,110.971
				c-0.316,61.105-49.944,110.521-110.786,110.311c-61.21-0.211-110.416-49.43-110.535-110.561
				C389.321,344.735,438.777,295.305,500.225,295.371z"/>
			<path fill-rule="evenodd" clip-rule="evenodd" fill="#496275" d="M606.104,479.557c18.97-28.099,26.266-58.48,21.846-91.869
				c6.979,1.609,13.271,3.416,19.682,4.485c21.872,3.667,42.848,0.158,63.005-8.693c8.127-3.575,16.239-7.322,24.01-11.635
				c7.665-4.273,14.221-2.414,20.408,2.427c7.321,5.765,10.804,14.037,13.495,22.611c6.543,20.909,7.572,42.57,8.1,64.231
				c0.158,6.886,0.105,13.931-1.108,20.646c-2.084,11.516-9.023,19.88-19.075,25.855c-10.343,6.135-21.635,8.654-33.429,8.932
				c-12.611,0.29-25.223,0.185-37.808,0c-1.715-0.014-3.904-1.002-5.04-2.282c-16.094-18.191-36-29.366-60.022-33.071
				C615.761,480.506,611.327,480.137,606.104,479.557z"/>
			<path fill-rule="evenodd" clip-rule="evenodd" fill="#496275" d="M372.21,387.319c-4.327,33.626,2.784,64.046,21.793,92.093
				c-5.567,0.751-10.633,1.305-15.671,2.124c-22.506,3.667-41.37,14.142-56.581,31.054c-2.704,2.969-5.396,4.3-9.432,4.168
				c-14.735-0.527-29.497-0.369-44.193-1.134c-10.659-0.555-20.263-4.776-28.891-11.029c-9.88-7.163-15.183-17.188-15.513-29.075
				c-0.74-26.62,0.079-53.242,8.152-78.914c2.111-6.74,5.726-13.323,9.974-18.982c6.569-8.747,15.17-10.171,24.734-5.066
				c14.273,7.639,28.904,14.366,44.654,18.165c18.443,4.446,36.872,3.773,55.077-1.702
				C368.016,388.506,369.757,388.031,372.21,387.319z"/>
			<path fill-rule="evenodd" clip-rule="evenodd" fill="#496275" d="M334.284,221.575c40.842,0.092,73.756,33.231,73.532,74.086
				c-0.224,40.658-33.111,73.413-73.756,73.413c-40.843,0-73.822-33.032-73.77-73.888
				C260.343,254.331,293.349,221.496,334.284,221.575z"/>
			<path fill-rule="evenodd" clip-rule="evenodd" fill="#496275" d="M592.371,295.45c-0.146-40.618,32.623-73.677,73.228-73.875
				c41.186-0.185,74.297,32.703,74.297,73.796c-0.026,40.631-32.689,73.4-73.505,73.703
				C625.759,369.364,592.489,336.306,592.371,295.45z"/>
		</g>
		<path fill-rule="evenodd" clip-rule="evenodd" fill="#00B1A0" d="M678.805,544.383c-12.837-23.258-31.174-39.181-57.848-44.484
			c-11.767-2.348-22.703-2.137-32.558,6.134c-4.537,3.825-9.867,6.74-14.933,9.934c-42.188,26.463-86.104,29.841-131.208,8.68
			c-12.4-5.831-23.508-14.457-35.354-21.528c-3.469-2.071-7.506-4.499-11.305-4.539c-17.136-0.185-33.098,4.327-47.24,14.313
			c-16.015,11.292-26.332,27.136-33.402,44.866c-5.118,12.888-9.023,25.961-11.859,39.206h393.898
			C693.619,578.655,687.973,560.951,678.805,544.383z"/>
	</g>
</g>
</svg>
