<?xml version="1.0" encoding="utf-8"?>
<!-- Generator: Adobe Illustrator 16.0.0, SVG Export Plug-In . SVG Version: 6.00 Build 0)  -->
<!DOCTYPE svg PUBLIC "-//W3C//DTD SVG 1.1//EN" "http://www.w3.org/Graphics/SVG/1.1/DTD/svg11.dtd">
<svg version="1.1" id="Layer_1" xmlns="http://www.w3.org/2000/svg" xmlns:xlink="http://www.w3.org/1999/xlink" x="0px" y="0px"
	 width="1000px" height="1000px" viewBox="0 0 1000 1000" enable-background="new 0 0 1000 1000" xml:space="preserve">
<g>
	<path fill-rule="evenodd" clip-rule="evenodd" fill="#496275" d="M265.258,499.413c0-40.037-0.077-80.08,0.022-120.116
		c0.092-36.757,21.751-68.33,56.096-80.259c9.219-3.203,19.503-4.611,29.313-4.657c80.232-0.359,160.464-0.19,240.705-0.21
		c11.672,0,22.876,2.249,33.672,6.658c7.474,3.05,9.184,10.078,3.661,16.083c-4.32,4.695-8.963,9.096-13.445,13.65
		c-2.899,2.954-6.301,3.375-10.287,2.763c-5.817-0.889-11.715-1.763-17.586-1.771c-78.983-0.114-157.972-0.106-236.963-0.061
		c-24.668,0.019-43.567,16.154-47.407,40.341c-0.439,2.752-0.412,5.588-0.412,8.383c-0.023,79.614-0.027,159.226-0.012,238.833
		c0,29.096,19.908,49.048,48.996,49.052c79.613,0.026,159.22,0.03,238.834,0c28.735-0.004,48.7-20.064,48.745-48.847
		c0.017-10.748,0.1-21.499-0.041-32.249c-0.054-4.167,1.188-7.538,4.192-10.45c5.37-5.199,10.623-10.525,15.874-15.846
		c3.339-3.375,7.067-5.085,11.774-3.127c4.607,1.913,5.622,5.673,5.595,10.262c-0.103,17.758,0.111,35.519-0.075,53.277
		c-0.431,39.784-26.298,72.686-64.551,81.783c-6.898,1.641-14.17,2.39-21.274,2.404c-79.922,0.163-159.842,0.16-239.769,0.075
		c-41.971-0.037-76.968-28.591-84.179-68.661c-1.069-5.939-1.397-12.082-1.417-18.129
		C265.197,578.869,265.258,539.143,265.258,499.413z"/>
	<path fill-rule="evenodd" clip-rule="evenodd" fill="#00B1A0" d="M647.992,351.076c27.932,27.962,55.642,55.694,83.782,83.862
		c-0.477,0.512-1.458,1.626-2.504,2.677c-63.322,63.341-126.646,126.688-190.087,189.919c-1.717,1.714-4.768,2.942-7.207,2.965
		c-26.32,0.211-52.64,0.131-79.751,0.131c0-1.791,0-3.418,0-5.044c0-24.927-0.084-49.849,0.13-74.765
		c0.027-2.44,1.29-5.478,3.008-7.208c63.123-63.329,126.368-126.536,189.598-189.754
		C646.038,352.79,647.198,351.797,647.992,351.076z M508.275,602.663c5.348,0,10.142,0.046,14.936-0.047
		c0.837-0.015,1.872-0.427,2.46-1.015c10.914-10.849,21.77-21.751,31.989-31.993c-14.911-14.906-29.585-29.575-44.419-44.41
		c-10.211,10.192-20.899,20.839-31.535,31.537c-0.702,0.711-1.394,1.811-1.416,2.746c-0.145,4.921-0.07,9.849-0.07,15.327
		c9.674,0,18.759,0,28.055,0C508.275,584.226,508.275,593.082,508.275,602.663z M656.318,396.933
		c-1.882-2.313-3.132-4.855-5.166-6.008c-1.469-0.825-4.152-0.214-5.993,0.515c-1.626,0.649-2.908,2.28-4.222,3.589
		c-32.462,32.481-64.901,64.97-97.338,97.475c-1.205,1.206-2.966,2.393-3.275,3.843c-0.495,2.31-0.827,5.332,0.265,7.173
		c2.646,4.478,6.723,4.094,11.55-0.718c15.549-15.486,31.043-31.03,46.553-46.56c17.599-17.625,35.204-35.241,52.744-52.916
		C653.115,401.636,654.363,399.521,656.318,396.933z"/>
	<path fill-rule="evenodd" clip-rule="evenodd" fill="#00B1A0" d="M751.976,414.947c-28.245-28.245-55.969-55.974-84.267-84.271
		c10.135-9.665,20.121-20.178,31.176-29.408c8.566-7.154,22.434-6.111,31.408,0.675c1.859,1.405,3.649,2.935,5.298,4.577
		c13.687,13.632,27.386,27.259,40.987,40.979c13.208,13.323,13.144,29.532-0.1,42.903
		C768.274,398.686,760.012,406.903,751.976,414.947z"/>
	<path fill-rule="evenodd" clip-rule="evenodd" fill="#FFFFFF" d="M508.275,602.663c0-9.581,0-18.438,0-27.854
		c-9.295,0-18.38,0-28.055,0c0-5.479-0.075-10.406,0.07-15.327c0.022-0.936,0.714-2.035,1.416-2.746
		c10.636-10.698,21.324-21.345,31.535-31.537c14.834,14.835,29.508,29.504,44.419,44.41c-10.22,10.242-21.075,21.145-31.989,31.993
		c-0.588,0.588-1.623,1-2.46,1.015C518.417,602.709,513.623,602.663,508.275,602.663z"/>
	<path fill-rule="evenodd" clip-rule="evenodd" fill="#FFFFFF" d="M656.318,396.933c-1.955,2.589-3.203,4.703-4.883,6.394
		c-17.54,17.674-35.146,35.291-52.744,52.916c-15.51,15.529-31.004,31.073-46.553,46.56c-4.827,4.812-8.904,5.195-11.55,0.718
		c-1.092-1.841-0.76-4.863-0.265-7.173c0.31-1.45,2.07-2.637,3.275-3.843c32.437-32.505,64.876-64.994,97.338-97.475
		c1.313-1.309,2.596-2.939,4.222-3.589c1.841-0.729,4.524-1.339,5.993-0.515C653.187,392.078,654.437,394.62,656.318,396.933z"/>
</g>
</svg>
