<?xml version="1.0" encoding="utf-8"?>
<!-- Generator: Adobe Illustrator 16.0.0, SVG Export Plug-In . SVG Version: 6.00 Build 0)  -->
<!DOCTYPE svg PUBLIC "-//W3C//DTD SVG 1.1//EN" "http://www.w3.org/Graphics/SVG/1.1/DTD/svg11.dtd">
<svg version="1.1" id="Layer_1" xmlns="http://www.w3.org/2000/svg" xmlns:xlink="http://www.w3.org/1999/xlink" x="0px" y="0px"
	 width="1000px" height="1000px" viewBox="0 0 1000 1000" enable-background="new 0 0 1000 1000" xml:space="preserve">
<g>
	<path fill-rule="evenodd" clip-rule="evenodd" fill="#00B1A0" d="M336.675,559.977c-12.175-9.662-24.35-18.105-35.071-28.109
		c-20.795-19.395-35.396-42.706-40.176-71.287c-5.258-31.491,2.126-60.124,20.302-86.046c20.641-29.426,49.073-48.805,81.875-62.32
		c38.915-16.045,79.468-21.537,121.321-18.664c40.972,2.819,79.419,13.873,114.386,35.664c27.479,17.13,49.75,39.363,62.047,69.898
		c14.061,34.941,11.191,69.077-7.844,101.511c-16.789,28.605-41.58,48.619-70.811,63.475
		c-40.553,20.621-83.905,28.168-128.99,26.748c-12.066-0.381-24.061-2.549-36.117-3.619c-2.371-0.207-5.314,0.203-7.216,1.488
		c-26.839,18.104-56.01,30.604-87.725,37.127c-4.701,0.971-9.462,1.697-14.207,2.445c-3.923,0.611-7.181-0.857-9.307-4.039
		c-2.25-3.369-3.267-7.232-0.682-10.898c2.221-3.152,4.726-6.158,7.37-8.973c12.284-13.072,23.708-26.727,30.525-43.615
		C336.581,560.207,336.805,559.648,336.675,559.977z"/>
	<path fill-rule="evenodd" clip-rule="evenodd" fill="#496275" d="M701.385,398.267c14.307,7.896,27.422,17.179,39.02,28.507
		c17.752,17.33,31.457,37.237,37.74,61.562c7.572,29.329,3.566,57.292-11.051,83.702c-13.807,24.969-33.959,43.74-58.102,58.504
		c-1.445,0.881-2.861,1.799-4.416,2.779c4.764,13.914,13.373,25.25,22.557,36.174c4.592,5.467,9.707,10.488,14.307,15.961
		c3.906,4.633,4.158,8.322,1.275,12.777c-2.789,4.305-6.713,5.055-11.752,4.311c-36.594-5.414-69.854-19.096-100.443-39.672
		c-1.564-1.057-4.059-1.477-5.961-1.172c-46.186,7.398-91.629,4.756-136.086-10.242c-16.646-5.619-32.312-13.416-48.038-23.639
		c3.223,0,5.423-0.104,7.609,0.016c58.484,3.227,113.812-7.951,164.654-37.6c36.102-21.061,64.855-49.482,81.988-88.322
		c13.969-31.676,16.186-64.412,7.725-97.919c-0.373-1.5-0.834-2.983-1.211-4.487C701.137,399.236,701.279,398.923,701.385,398.267z"
		/>
</g>
</svg>
