<?xml version="1.0" encoding="utf-8"?>
<!-- Generator: Adobe Illustrator 16.0.0, SVG Export Plug-In . SVG Version: 6.00 Build 0)  -->
<!DOCTYPE svg PUBLIC "-//W3C//DTD SVG 1.1//EN" "http://www.w3.org/Graphics/SVG/1.1/DTD/svg11.dtd">
<svg version="1.1" id="Layer_1" xmlns="http://www.w3.org/2000/svg" xmlns:xlink="http://www.w3.org/1999/xlink" x="0px" y="0px"
	 width="1000px" height="1000px" viewBox="0 0 1000 1000" enable-background="new 0 0 1000 1000" xml:space="preserve">
<circle fill="#559A5D" cx="500" cy="500" r="500"/>
<path opacity="0.15" enable-background="new    " d="M507.985,715.036c-80.688,0-161.376,0-242.063-0.002
	c-12.262,0-15.545-3.295-15.545-15.611c-0.002-100.01,0.03-200.021-0.103-300.029c-0.007-4.703,1.406-7.806,4.829-11.029
	c43.055-40.566,91.004-75.104,137.265-111.716c24.117-19.089,48.114-38.342,72.614-56.926c8.322-6.311,17.857-11.121,27.146-16.035
	c10.478-5.544,21.148-4.896,31.989-0.124c16.604,7.31,30.349,18.646,44.402,29.733c40.997,32.342,82.518,64.025,123.271,96.666
	c24.129,19.329,47.25,39.921,70.645,60.153c1.816,1.573,3.134,4.787,3.139,7.242c0.154,101.086,0.137,202.169,0.127,303.25
	c-0.002,10.76-3.725,14.427-14.579,14.429C670.076,715.038,589.03,715.036,507.985,715.036z"/>
<g>
	<path fill="#D5D5D4" d="M507.71,757.867c-81.22,0-162.441,0.002-243.664-0.002c-33.705-0.002-56.554-22.847-56.556-56.565
		c-0.007-101.438,0.083-202.873-0.092-304.312c-0.027-15.718,5.504-28.195,17.175-38.726
		c45.594-41.142,94.121-78.667,142.484-116.404c22.419-17.493,44.438-35.509,67.16-52.59c11.525-8.666,23.642-16.921,36.491-23.372
		c28.295-14.205,56.891-12.244,83.239,4.654c19.797,12.696,38.255,27.551,56.854,42.028c45.305,35.255,90.526,70.62,135.393,106.429
		c16.333,13.035,31.583,27.435,47.287,41.252c10.451,9.189,15.135,20.888,15.131,34.704c-0.032,102.868,0.031,205.737-0.047,308.604
		c-0.022,30.797-23.631,54.254-54.509,54.278C671.943,757.91,589.825,757.867,507.71,757.867z M507.985,715.036
		c81.045,0,162.091,0.002,243.137-0.002c10.854-0.002,14.577-3.669,14.579-14.429c0.01-101.081,0.026-202.164-0.127-303.25
		c-0.006-2.456-1.321-5.669-3.14-7.243c-23.394-20.231-46.515-40.824-70.644-60.153c-40.754-32.641-82.273-64.324-123.271-96.666
		c-14.055-11.087-27.8-22.423-44.402-29.733c-10.841-4.773-21.514-5.42-31.989,0.124c-9.288,4.914-18.823,9.724-27.146,16.035
		c-24.5,18.584-48.498,37.837-72.614,56.926c-46.261,36.613-94.209,71.15-137.265,111.716c-3.423,3.225-4.836,6.328-4.829,11.03
		c0.133,100.01,0.101,200.021,0.103,300.029c0,12.316,3.284,15.611,15.545,15.611C346.609,715.036,427.297,715.036,507.985,715.036z
		"/>
	<path opacity="0.15" enable-background="new    " d="M507.916,628.946c19.091-0.205,36.524-5.869,51.819-16.794
		c20.641-14.742,40.795-30.177,60.931-45.613c30.081-23.063,59.986-46.361,89.92-69.621c8.188-6.363,8.667-11.121,2.322-19.465
		c-3.142-4.128-6.292-8.247-9.459-12.354c-5.824-7.554-11.069-8.257-18.639-2.373c-41.937,32.591-83.675,65.439-125.901,97.647
		c-10.995,8.386-23.247,15.253-35.388,21.976c-9.971,5.521-20.854,5.401-30.932,0.044c-10.529-5.603-21.284-11.18-30.715-18.372
		c-42.795-32.646-85.15-65.861-127.677-98.854c-8.896-6.899-13.773-6.088-20.39,3.247c-2.791,3.938-5.607,7.857-8.393,11.801
		c-5.841,8.275-5.133,12.703,3.007,18.995c26.312,20.339,52.552,40.774,78.96,60.989c22.564,17.271,45.085,34.614,68.072,51.311
		C470.966,622.779,488.655,628.747,507.916,628.946z"/>
	<path fill="#F3F3F3" d="M507.916,628.946c-19.261-0.199-36.95-6.167-52.46-17.438c-22.987-16.696-45.508-34.04-68.072-51.311
		c-26.408-20.215-52.647-40.65-78.96-60.989c-8.14-6.292-8.848-10.72-3.007-18.995c2.785-3.942,5.603-7.863,8.394-11.801
		c6.615-9.335,11.493-10.147,20.389-3.247c42.527,32.991,84.881,66.208,127.677,98.853c9.431,7.193,20.187,12.771,30.715,18.372
		c10.079,5.358,20.961,5.479,30.932-0.043c12.141-6.723,24.393-13.59,35.388-21.976c42.228-32.208,83.966-65.058,125.9-97.647
		c7.569-5.884,12.814-5.181,18.64,2.373c3.167,4.107,6.317,8.228,9.459,12.354c6.345,8.344,5.866,13.102-2.322,19.465
		c-29.934,23.26-59.839,46.558-89.92,69.621c-20.136,15.438-40.29,30.871-60.931,45.613
		C544.44,623.077,527.007,628.741,507.916,628.946z"/>
</g>
</svg>
