<?xml version="1.0" encoding="utf-8"?>
<!-- Generator: Adobe Illustrator 16.0.0, SVG Export Plug-In . SVG Version: 6.00 Build 0)  -->
<!DOCTYPE svg PUBLIC "-//W3C//DTD SVG 1.1//EN" "http://www.w3.org/Graphics/SVG/1.1/DTD/svg11.dtd">
<svg version="1.1" id="Layer_1" xmlns="http://www.w3.org/2000/svg" xmlns:xlink="http://www.w3.org/1999/xlink" x="0px" y="0px"
	 width="1000px" height="1000px" viewBox="0 0 1000 1000" enable-background="new 0 0 1000 1000" xml:space="preserve">
<circle fill="#6096EA" cx="500" cy="500" r="500"/>
<g>
	<path fill="#D5D5D4" d="M305.389,502.902c0-88.642-0.06-177.28,0.031-265.922c0.035-33.731,19.428-60.219,50.39-68.572
		c6.694-1.806,13.883-2.475,20.845-2.489c87.514-0.163,175.027-0.173,262.544-0.079c41.984,0.045,71.347,29.13,71.37,70.998
		c0.104,177.846,0.107,355.689-0.003,533.533c-0.026,41.317-29.469,70.668-70.806,70.737c-87.795,0.142-175.591,0.135-263.387,0.003
		c-41.727-0.065-70.91-29.499-70.956-71.442C305.318,680.746,305.388,591.826,305.389,502.902z M660.033,503.549
		c0-59.938,0-119.875-0.004-179.812c-0.003-17.152-5.699-22.987-22.546-22.989c-86.393-0.013-172.778-0.013-259.166,0.001
		c-16.414,0.002-22.346,5.947-22.347,22.341c-0.007,120.156-0.007,240.312,0.001,360.465c0.001,16.881,5.848,22.656,22.962,22.659
		c86.106,0.014,172.213,0.014,258.319,0c16.979-0.003,22.758-5.792,22.764-22.854C660.043,623.423,660.026,563.484,660.033,503.549z
		 M508.219,815.957c23.213-0.129,42.144-19.387,42.021-42.745c-0.119-23.144-19.6-42.128-42.885-41.802
		c-22.896,0.32-41.692,19.41-41.603,42.244C465.845,796.973,485.032,816.086,508.219,815.957z M508.324,233.192
		c-13.185,0-26.369,0.066-39.551-0.028c-6.227-0.044-11.6,0.998-11.4,8.805c0.182,7.177,5.223,8.316,11.142,8.303
		c26.369-0.062,52.735-0.069,79.104,0.003c6.006,0.016,10.852-1.321,10.971-8.468c0.118-7.195-4.661-8.683-10.713-8.642
		C534.693,233.257,521.511,233.194,508.324,233.192z"/>
	<path fill="#F4F4F4" d="M508.219,815.957c-23.187,0.129-42.374-18.984-42.466-42.303c-0.091-22.834,18.706-41.924,41.603-42.244
		c23.285-0.326,42.766,18.658,42.885,41.802C550.36,796.57,531.432,815.828,508.219,815.957z"/>
	<path fill="#F4F4F4" d="M508.324,233.194c13.187,0,26.369,0.062,39.553-0.028c6.052-0.041,10.831,1.446,10.713,8.642
		c-0.119,7.147-4.965,8.484-10.971,8.468c-26.369-0.073-52.735-0.066-79.104-0.003c-5.919,0.013-10.96-1.126-11.142-8.303
		c-0.198-7.807,5.175-8.849,11.4-8.805C481.955,233.259,495.141,233.192,508.324,233.194z"/>
</g>
<path opacity="0.15" enable-background="new    " d="M660.033,503.549c0-59.938,0-119.875-0.004-179.812
	c-0.003-17.152-5.699-22.987-22.546-22.989c-86.393-0.013-172.778-0.013-259.166,0.001c-16.414,0.002-22.346,5.947-22.347,22.341
	c-0.007,120.156-0.007,240.312,0.001,360.465c0.001,16.881,5.848,22.656,22.962,22.659c86.106,0.014,172.213,0.014,258.319,0
	c16.979-0.003,22.758-5.792,22.764-22.854C660.043,623.423,660.026,563.484,660.033,503.549z"/>
</svg>
