<?xml version="1.0" encoding="utf-8"?>
<!-- Generator: Adobe Illustrator 16.0.0, SVG Export Plug-In . SVG Version: 6.00 Build 0)  -->
<!DOCTYPE svg PUBLIC "-//W3C//DTD SVG 1.1//EN" "http://www.w3.org/Graphics/SVG/1.1/DTD/svg11.dtd">
<svg version="1.1" id="Layer_1" xmlns="http://www.w3.org/2000/svg" xmlns:xlink="http://www.w3.org/1999/xlink" x="0px" y="0px"
	 width="1000px" height="1000px" viewBox="0 0 1000 1000" enable-background="new 0 0 1000 1000" xml:space="preserve">
<path fill="#4192B6" d="M442.115,572.003c-49.605-49.664-96.868-97.146-144.325-144.399c-22.116-22.045-44.22-22.072-66.489-0.453
	c-17.15,16.682-34.175,33.537-51.095,50.464c-22.042,22.051-22.088,46.453-0.199,68.389c44.649,44.706,89.344,89.37,134.02,134.05
	c31.922,31.895,63.698,63.925,95.789,95.679c19.117,18.924,42.213,19.02,62.078,0.849c1.764-1.647,3.437-3.385,5.174-5.119
	c113.908-113.886,227.802-227.787,341.697-341.7c2.438-2.454,4.878-4.963,7.034-7.653c14.521-17.796,14.215-41.374-1.63-57.706
	c-19.335-19.917-39.027-39.523-59.197-58.597c-17.76-16.779-39.572-16.507-58.043-0.42c-2.35,2.065-4.57,4.292-6.792,6.486
	c-83.271,83.124-166.595,166.27-249.814,249.459C447.413,564.252,445.246,567.926,442.115,572.003z"/>
</svg>
