<?xml version="1.0" encoding="utf-8"?>
<!-- Generator: Adobe Illustrator 16.0.0, SVG Export Plug-In . SVG Version: 6.00 Build 0)  -->
<!DOCTYPE svg PUBLIC "-//W3C//DTD SVG 1.1//EN" "http://www.w3.org/Graphics/SVG/1.1/DTD/svg11.dtd">
<svg version="1.1" id="Layer_1" xmlns="http://www.w3.org/2000/svg" xmlns:xlink="http://www.w3.org/1999/xlink" x="0px" y="0px"
	 width="1000px" height="1000px" viewBox="0 0 1000 1000" enable-background="new 0 0 1000 1000" xml:space="preserve">
<g>
	<g>
		<g>
			<path fill="#E28A39" d="M499.979,0c276.131,0,499.978,223.849,499.978,499.977c0,276.129-223.851,499.979-499.978,499.979
				C223.848,999.956,0,776.107,0,499.977C0,223.849,223.848,0,499.979,0z"/>
		</g>
	</g>
</g>
<g>
	<g>
		<path fill="#F4F4F4" d="M435.307,783.212c-7.663-2.248-17.793-4.653-27.481-8.248c-6.66-2.469-8.184-8.65-5.677-17.332
			c12.537-43.357,25.125-86.701,37.652-130.057c36.174-125.194,72.333-250.389,108.49-375.584
			c4.005-13.859,8.409-16.361,22.289-12.619c5.321,1.435,10.64,2.872,15.939,4.375c11.402,3.229,14.53,8.672,11.326,19.762
			c-25.98,89.916-51.982,179.821-77.971,269.734c-22.754,78.724-45.5,157.448-68.245,236.174
			C448.642,779.748,444.813,783.598,435.307,783.212z"/>
		<path fill="#F4F4F4" d="M228.074,511.223c2.125,1.679,3.967,2.866,5.487,4.384c45.366,45.274,90.702,90.582,136.034,135.893
			c10.032,10.026,9.981,14.901-0.22,24.996c-4.054,4.011-8.122,8.004-12.195,11.991c-7.982,7.81-13.231,7.876-21.091,0.063
			c-19.242-19.126-38.454-38.285-57.648-57.461c-36.166-36.127-72.313-72.273-108.459-108.42c-9.782-9.78-9.757-14.692,0.143-24.58
			c54.946-54.881,109.899-109.758,164.854-164.632c9.327-9.312,13.819-9.324,23.123-0.131c4.336,4.286,8.738,8.506,13.018,12.841
			c7.904,8.004,7.972,13.69,0.051,21.639c-23.455,23.536-46.978,47.003-70.477,70.495c-22.802,22.796-45.607,45.588-68.405,68.39
			C231.186,507.788,230.165,508.964,228.074,511.223z"/>
		<path fill="#F4F4F4" d="M771.643,510.774c-2.041-2.135-3.479-3.7-4.986-5.205c-45.457-45.459-90.93-90.912-136.396-136.368
			c-9.753-9.757-9.706-14.762,0.206-24.579c3.91-3.875,7.856-7.712,11.78-11.573c8.992-8.854,13.604-8.812,22.703,0.264
			c13.5,13.472,26.985,26.956,40.479,40.434c41.596,41.542,83.192,83.079,124.779,124.629c1.529,1.527,3.053,3.081,4.35,4.797
			c3.688,4.891,3.697,9.754,0.002,14.564c-1.43,1.862-3.107,3.545-4.773,5.207c-54.939,54.89-109.886,109.772-164.844,164.643
			c-9.021,9.012-13.808,9.038-22.77,0.194c-4.616-4.559-9.32-9.028-13.847-13.678c-7.123-7.308-7.227-13.091-0.056-20.361
			c12.004-12.186,24.209-24.175,36.305-36.268c34.067-34.051,68.124-68.116,102.194-102.168
			C768.157,513.923,769.643,512.634,771.643,510.774z"/>
	</g>
</g>
</svg>
