<?xml version="1.0" encoding="utf-8"?>
<!-- Generator: Adobe Illustrator 16.0.0, SVG Export Plug-In . SVG Version: 6.00 Build 0)  -->
<!DOCTYPE svg PUBLIC "-//W3C//DTD SVG 1.1//EN" "http://www.w3.org/Graphics/SVG/1.1/DTD/svg11.dtd">
<svg version="1.1" id="Layer_1" xmlns="http://www.w3.org/2000/svg" xmlns:xlink="http://www.w3.org/1999/xlink" x="0px" y="0px"
	 width="1000px" height="1000px" viewBox="0 0 1000 1000" enable-background="new 0 0 1000 1000" xml:space="preserve">
<g>
	<g>
		<path fill="#C7614E" d="M499.963,0c276.123,0,499.96,223.844,499.96,499.963c0,276.121-223.837,499.965-499.96,499.965
			C223.839,999.928,0,776.084,0,499.963C0,223.844,223.839,0,499.963,0z"/>
	</g>
</g>
<g>
	<path fill="#F4F4F4" d="M455.096,545.566c-45.578,45.58-89.945,89.948-133.786,133.789c-20.483-20.484-40.844-40.844-61.602-61.601
		c0.443-0.472,1.662-1.844,2.956-3.14c60.682-60.682,121.367-121.359,182.059-182.03c7.647-7.643,11.879-7.671,19.488-0.078
		c22.76,22.719,45.503,45.457,68.235,68.206c1.33,1.333,2.503,2.827,3.207,3.628c50.037-50.049,99.695-99.714,149.842-149.872
		c-0.175-0.19-1.353-1.56-2.624-2.835c-11.305-11.316-22.671-22.567-33.914-33.941c-5.344-5.405-6.296-10.701-1.919-14.904
		c2.311-2.221,6.255-3.636,9.538-3.779c10.642-0.466,21.315-0.178,31.978-0.178c34.228,0,68.447-0.005,102.671,0.004
		c11.035,0.002,14.147,3.095,14.15,14.065c0.009,44.197,0.004,88.395,0.004,132.594c0,0.516-0.014,1.033,0,1.548
		c0.166,5.156-1.002,9.586-6.328,11.809c-5.404,2.257-9.254-0.498-12.799-4.021c-9.883-9.817-19.765-19.635-29.551-29.548
		c-2.521-2.553-4.684-5.451-7.008-8.189c-0.824-0.216-1.648-0.432-2.474-0.646c-1.045,1.794-1.761,3.917-3.183,5.338
		C678.663,487.257,613.227,552.664,547.8,618.081c-8.831,8.829-12.607,8.842-21.377,0.077
		c-22.503-22.491-45.015-44.974-67.483-67.496C457.623,549.341,456.662,547.667,455.096,545.566z"/>
	<path fill="#D5D5D4" d="M227.232,711.763c206.946,0,412.917,0,619.157,0c0,13.75,0,27.081,0,40.737c-219.856,0-439.585,0-659.749,0
		c0-164.678,0-329.482,0-494.619c13.309,0,26.644,0,40.592,0C227.232,408.862,227.232,559.92,227.232,711.763z"/>
</g>
</svg>
