<?xml version="1.0" encoding="utf-8"?>
<!-- Generator: Adobe Illustrator 16.0.0, SVG Export Plug-In . SVG Version: 6.00 Build 0)  -->
<!DOCTYPE svg PUBLIC "-//W3C//DTD SVG 1.1//EN" "http://www.w3.org/Graphics/SVG/1.1/DTD/svg11.dtd">
<svg version="1.1" id="Layer_1" xmlns="http://www.w3.org/2000/svg" xmlns:xlink="http://www.w3.org/1999/xlink" x="0px" y="0px"
	 width="1000px" height="1000px" viewBox="0 0 1000 1000" enable-background="new 0 0 1000 1000" xml:space="preserve">
<g>
	<path fill="#4192B6" d="M292.104,803.087c-10.905,0-19.725-8.82-19.725-19.721v-574.35c0-10.891,8.819-19.715,19.725-19.715
		c10.896,0,19.71,8.824,19.71,19.715v574.35C311.814,794.267,303,803.087,292.104,803.087z"/>
	<path fill="#4192B6" d="M499.161,803.087c-10.901,0-19.72-8.82-19.72-19.721v-574.35c0-10.891,8.817-19.715,19.72-19.715
		c10.901,0,19.721,8.824,19.721,19.715v574.35C518.882,794.267,510.062,803.087,499.161,803.087z"/>
	<path fill="#4192B6" d="M707.881,803.087c-10.91,0-19.725-8.82-19.725-19.721v-574.35c0-10.891,8.812-19.715,19.725-19.715
		c10.896,0,19.711,8.824,19.711,19.715v574.35C727.592,794.267,718.777,803.087,707.881,803.087z"/>
	<g>
		<path fill="#4192B6" d="M784.679,644.133c0,42.407-34.394,76.779-76.798,76.779c-42.426,0-76.803-34.372-76.803-76.779
			c0-42.422,34.377-76.798,76.803-76.798C750.285,567.335,784.679,601.711,784.679,644.133z"/>
		<path fill="#4192B6" d="M707.881,740.637c-53.234,0-96.521-43.297-96.521-96.504c0-53.229,43.286-96.521,96.521-96.521
			c53.222,0,96.508,43.292,96.508,96.521C804.389,697.34,761.104,740.637,707.881,740.637z M707.881,587.05
			c-31.476,0-57.092,25.611-57.092,57.083c0,31.465,25.616,57.055,57.092,57.055c31.458,0,57.078-25.59,57.078-57.055
			C764.959,612.661,739.339,587.05,707.881,587.05z"/>
	</g>
	<g>
		<path fill="#4192B6" d="M575.955,342.621c0,42.404-34.391,76.78-76.794,76.78c-42.427,0-76.798-34.376-76.798-76.78
			c0-42.422,34.371-76.798,76.798-76.798C541.564,265.823,575.955,300.199,575.955,342.621z"/>
		<path fill="#4192B6" d="M499.161,439.125c-53.229,0-96.52-43.3-96.52-96.504c0-53.218,43.291-96.522,96.52-96.522
			c53.227,0,96.518,43.304,96.518,96.522C595.679,395.825,552.388,439.125,499.161,439.125z M499.161,285.539
			c-31.466,0-57.083,25.607-57.083,57.083c0,31.467,25.616,57.062,57.083,57.062s57.082-25.598,57.082-57.062
			C556.242,311.146,530.627,285.539,499.161,285.539z"/>
	</g>
	<g>
		<path fill="#4192B6" d="M368.902,567.344c0,42.413-34.398,76.789-76.798,76.789c-42.427,0-76.807-34.376-76.807-76.789
			c0-42.418,34.38-76.793,76.807-76.793C334.503,490.55,368.902,524.926,368.902,567.344z"/>
		<path fill="#4192B6" d="M292.104,663.854c-53.231,0-96.527-43.293-96.527-96.51c0-53.208,43.296-96.509,96.527-96.509
			c53.222,0,96.513,43.301,96.513,96.509C388.617,620.561,345.326,663.854,292.104,663.854z M292.104,510.275
			c-31.476,0-57.083,25.608-57.083,57.066c0,31.478,25.607,57.069,57.083,57.069c31.461,0,57.078-25.594,57.078-57.069
			C349.182,535.886,323.565,510.275,292.104,510.275z"/>
	</g>
</g>
</svg>
