<?xml version="1.0" encoding="utf-8"?>
<!-- Generator: Adobe Illustrator 16.0.0, SVG Export Plug-In . SVG Version: 6.00 Build 0)  -->
<!DOCTYPE svg PUBLIC "-//W3C//DTD SVG 1.1//EN" "http://www.w3.org/Graphics/SVG/1.1/DTD/svg11.dtd">
<svg version="1.1" id="Layer_1" xmlns="http://www.w3.org/2000/svg" xmlns:xlink="http://www.w3.org/1999/xlink" x="0px" y="0px"
	 width="144px" height="144px" viewBox="0 0 144 144" enable-background="new 0 0 144 144" xml:space="preserve">
<path fill-rule="evenodd" clip-rule="evenodd" fill="#FFFFFF" d="M108.729,55.287c-0.167,3.773-1.18,7.328-2.674,10.763
	c-1.74,4-4.041,7.673-6.577,11.207c-2.744,3.822-5.762,7.426-8.826,10.991c-0.554,0.644-1.106,1.289-1.664,1.93
	c-0.438,0.503-0.992,0.73-1.66,0.681c-0.47-0.035-0.649-0.251-0.53-0.709c0.061-0.233,0.18-0.454,0.284-0.675
	c0.817-1.729,1.472-3.511,1.802-5.403c0.6-3.437-0.104-6.557-2.248-9.333c-1.211-1.567-2.685-2.857-4.269-4.03
	c-2.248-1.666-4.658-3.08-7.054-4.513c-4.785-2.863-9.187-6.219-13.111-10.186c-2.24-2.265-4.209-4.74-5.695-7.576
	c-1.06-2.023-1.796-4.153-2.092-6.421c-0.359-2.762-0.019-5.454,0.847-8.092c0.944-2.875,2.398-5.49,4.05-8.006
	c1.918-2.922,4.09-5.658,6.203-8.438c1.588-2.089,3.17-4.182,4.531-6.43c0.498-0.823,0.973-1.662,1.404-2.521
	c0.238-0.476,0.559-0.684,1.072-0.635c0.075,0.007,0.151-0.002,0.226,0.002c0.956,0.066,1.45,0.798,1.134,1.706
	c-0.124,0.355-0.303,0.691-0.444,1.041c-0.453,1.124-0.816,2.269-0.876,3.494c-0.041,0.852,0.135,1.645,0.508,2.407
	c0.645,1.318,1.504,2.483,2.495,3.556c1.558,1.686,3.341,3.111,5.191,4.455c3.01,2.187,6.185,4.124,9.317,6.125
	c3.038,1.942,6.056,3.913,8.868,6.178c2.273,1.832,4.36,3.843,6.04,6.25c1.982,2.839,3.218,5.965,3.593,9.413
	C108.672,53.436,108.68,54.364,108.729,55.287z"/>
<path fill-rule="evenodd" clip-rule="evenodd" fill="#FFFFFF" d="M82.705,92.278c-0.006,3.168-0.776,6.088-1.94,8.92
	c-1.467,3.569-3.5,6.804-5.849,9.849c-0.657,0.851-1.352,1.673-2.046,2.495c-0.167,0.197-0.379,0.374-0.605,0.495
	c-0.255,0.137-0.438-0.004-0.448-0.298c-0.003-0.093,0.016-0.188,0.03-0.281c0.276-1.877-0.196-3.593-1.137-5.201
	c-0.76-1.299-1.761-2.401-2.868-3.411c-1.68-1.532-3.537-2.829-5.473-4.008c-2.174-1.325-4.39-2.581-6.565-3.904
	c-2.279-1.387-4.425-2.957-6.285-4.887c-1.455-1.51-2.656-3.188-3.357-5.186c-0.845-2.41-0.726-4.817,0.037-7.222
	c0.703-2.214,1.809-4.229,3.079-6.154c1.298-1.969,2.653-3.9,3.969-5.857c1.106-1.646,2.155-3.324,2.879-5.184
	c0.153-0.392,0.313-0.472,0.692-0.42c0.345,0.046,0.566,0.276,0.581,0.652c0.083,2.093,1.01,3.838,2.258,5.442
	c1.159,1.489,2.606,2.669,4.141,3.747c1.934,1.357,4.011,2.476,6.057,3.648c1.653,0.946,3.315,1.883,4.908,2.924
	c2.332,1.523,4.296,3.443,5.76,5.836C82.041,86.754,82.729,89.461,82.705,92.278z"/>
<path fill-rule="evenodd" clip-rule="evenodd" fill="#FFFFFF" d="M35.79,125.329c0.915-2.572,1.827-5.137,2.736-7.695
	c21.943,0,43.835,0,65.77,0c0.909,2.553,1.817,5.104,2.756,7.743c-0.251,0.02-0.445,0.042-0.64,0.051
	c-5.337,0.25-10.677,0.088-16.016,0.133c-1.149,0.01-0.921-0.086-1.272,0.936c-1.078,3.138-2.142,6.28-3.213,9.421
	c-0.066,0.192-0.149,0.379-0.227,0.576c-9.465,0.034-18.9,0.068-28.382,0.102c-0.085-0.192-0.186-0.39-0.262-0.598
	c-1.179-3.202-2.355-6.406-3.532-9.608c-0.052-0.142-0.111-0.282-0.15-0.427c-0.084-0.306-0.285-0.421-0.591-0.401
	c-0.169,0.011-0.34,0-0.509,0c-4.304,0-8.607,0.01-12.911-0.006c-1.11-0.004-2.22-0.091-3.331-0.142
	C35.965,125.409,35.915,125.376,35.79,125.329z"/>
</svg>
