<?xml version="1.0" encoding="utf-8"?>
<!-- Generator: Adobe Illustrator 16.0.0, SVG Export Plug-In . SVG Version: 6.00 Build 0)  -->
<!DOCTYPE svg PUBLIC "-//W3C//DTD SVG 1.1//EN" "http://www.w3.org/Graphics/SVG/1.1/DTD/svg11.dtd">
<svg version="1.1" id="Layer_1" xmlns="http://www.w3.org/2000/svg" xmlns:xlink="http://www.w3.org/1999/xlink" x="0px" y="0px"
	 width="144px" height="144px" viewBox="0 0 144 144" enable-background="new 0 0 144 144" xml:space="preserve">
<path fill-rule="evenodd" clip-rule="evenodd" fill="#FFFFFF" d="M39.207,88.724c4.736,15.738,9.15,30.41,13.7,45.534
	c-2.593,0-4.694,0-6.896,0C35.625,99.746,25.31,65.456,14.971,31.172c-0.784-2.602-0.922-4.624,2.419-5.533
	c9.266-2.521,18.451-5.34,27.734-7.792c6.218-1.643,11.985-0.39,16.755,4.106c6.507,6.136,13.935,7.271,22.29,4.684
	c8.408-2.605,16.919-4.879,25.311-7.533c3.949-1.25,5.815-0.997,7.155,3.795c4.849,17.333,10.226,34.526,15.75,51.658
	c1.645,5.1,1.09,7.433-4.673,8.74c-8.368,1.897-16.439,5.065-24.726,7.373c-7.953,2.215-15.437,1.662-21.763-4.615
	c-4.124-4.094-9.365-5.599-14.98-4.302C57.358,83.802,48.575,86.284,39.207,88.724z"/>
</svg>
