<?xml version="1.0" encoding="utf-8"?>
<!-- Generator: Adobe Illustrator 16.0.0, SVG Export Plug-In . SVG Version: 6.00 Build 0)  -->
<!DOCTYPE svg PUBLIC "-//W3C//DTD SVG 1.1//EN" "http://www.w3.org/Graphics/SVG/1.1/DTD/svg11.dtd">
<svg version="1.1" id="Layer_1" xmlns="http://www.w3.org/2000/svg" xmlns:xlink="http://www.w3.org/1999/xlink" x="0px" y="0px"
	 width="144px" height="144px" viewBox="0 0 144 144" enable-background="new 0 0 144 144" xml:space="preserve">
<path fill-rule="evenodd" clip-rule="evenodd" fill="#FFFFFF" d="M101.71,68.268c-1.009,0.003-2.029-0.091-3.024,0.02
	c-4.673,0.522-7.876-0.239-10.129-5.51c-2.681-6.277-8.833-8.774-15.673-8.433c-7.013,0.349-12.4,3.708-14.988,10.294
	c-1.238,3.152-2.952,3.798-5.905,3.68c-4.531-0.181-9.075-0.026-13.612-0.055c-4.015-0.025-4.466-0.506-3.562-4.416
	c2.831-12.233,8.61-23.071,15.904-33.176C56.719,22.36,63.57,14.819,71.11,7.885c1.583-1.455,2.882-2.092,4.824-0.366
	c14.286,12.705,26.533,26.917,33.737,44.93c1.599,3.998,2.614,8.143,3.304,12.387c0.393,2.416-0.346,3.57-2.947,3.456
	C107.26,68.17,104.481,68.265,101.71,68.268z"/>
<path fill-rule="evenodd" clip-rule="evenodd" fill="#FFFFFF" d="M45.805,75.84c1.009,0,2.036,0.119,3.025-0.021
	c4.85-0.682,7.934,0.601,10.234,5.645c2.953,6.477,9.174,8.583,16.181,8.15c6.672-0.411,11.603-3.652,14.19-9.694
	c1.393-3.248,3.188-4.333,6.547-4.139c4.276,0.248,8.577,0.02,12.866,0.079c4.057,0.058,4.728,0.846,3.785,4.814
	c-2.782,11.719-8.28,22.168-15.204,31.919c-6.011,8.467-12.912,16.148-20.515,23.215c-1.741,1.618-3.362,2.577-5.541,0.611
	c-13.997-12.633-26.212-26.593-33.363-44.368c-1.608-4-2.669-8.142-3.362-12.391c-0.419-2.576,0.541-3.848,3.208-3.806
	c2.649,0.043,5.299,0.011,7.949,0.011C45.805,75.857,45.805,75.848,45.805,75.84z"/>
</svg>
