<?xml version="1.0" encoding="utf-8"?>
<!-- Generator: Adobe Illustrator 16.0.0, SVG Export Plug-In . SVG Version: 6.00 Build 0)  -->
<!DOCTYPE svg PUBLIC "-//W3C//DTD SVG 1.1//EN" "http://www.w3.org/Graphics/SVG/1.1/DTD/svg11.dtd">
<svg version="1.1" id="Layer_1" xmlns="http://www.w3.org/2000/svg" xmlns:xlink="http://www.w3.org/1999/xlink" x="0px" y="0px"
	 width="144px" height="144px" viewBox="0 0 144 144" enable-background="new 0 0 144 144" xml:space="preserve">
<g>
	<path fill="#FFFFFF" d="M141.227,61.314c-2.86,0-5.702-0.038-8.539,0.018c-1.168,0.021-1.669-0.615-2.132-1.53
		c-6.04-11.962-19.432-15.441-30.024-10.553c-11.511,5.312-17.38,19.176-13.414,31.658c3.476,10.946,13.925,18.553,24.365,17.743
		c11.337-0.882,20.114-9.319,21.772-21.3c0.395-2.842,1.454-3.53,4.157-3.441c6.118,0.199,6.121,0.061,5.064,6.249
		c-2.844,16.641-16.418,28.316-32.682,28.105c-16.517-0.214-30.854-13.177-33.148-29.972c-2.573-18.812,8.736-35.958,26.411-40.048
		c16.277-3.766,33.227,5.956,38.156,21.897C141.305,60.421,141.227,60.753,141.227,61.314z"/>
	<path fill="#FFFFFF" d="M117.466,82.394c-2.854,0-5.713-0.082-8.564,0.029c-1.679,0.064-2.125-0.567-2.191-2.187
		c-0.263-6.264-0.321-6.262,6.009-6.262c4.969,0,9.938,0.085,14.906-0.04c2.074-0.051,2.693,0.646,2.145,2.583
		c-0.202,0.709-0.342,1.442-0.43,2.175c-0.331,2.729-1.566,4.104-4.586,3.757C122.354,82.175,119.896,82.396,117.466,82.394z"/>
	<path fill="#FFFFFF" d="M106.094,64.361c0.315-2.266,1.465-3.761,3.887-3.687c2.388,0.071,3.712,1.539,3.641,3.872
		c-0.064,2.197-1.515,3.56-3.659,3.582C107.649,68.152,106.345,66.71,106.094,64.361z"/>
	<path fill="#FFFFFF" d="M124.289,60.603c2.271,0.279,3.736,1.478,3.687,3.858c-0.048,2.392-1.616,3.71-3.887,3.656
		c-2.142-0.052-3.55-1.44-3.565-3.656C120.506,62.1,121.916,60.853,124.289,60.603z"/>
</g>
<g>
	<path fill="#FFFFFF" d="M0.993,72.892C0.916,52.974,16.59,37.096,35.752,37.668c13.282,0.395,24.765,8.671,29.198,20.877
		c0.769,2.118,0.487,2.951-1.845,2.631c-0.209-0.028-0.427-0.028-0.636,0c-4.272,0.581-7.061-0.547-9.59-4.744
		c-4.561-7.568-12.256-10.258-20.872-9.278c-9.333,1.061-15.672,6.533-19.339,15.031C6.228,77.117,14.491,94.547,29.587,98.1
		c9.416,2.218,19.236-1.78,24.304-10.341c1.5-2.535,3.015-3.447,5.902-3.351c6.625,0.223,6.632,0.068,3.607,6.037
		c-5.962,11.772-18.1,18.544-31.362,17.497C18.621,106.882,6.932,97.397,2.729,84.154C1.565,80.491,0.99,76.733,0.993,72.892z"/>
	<path fill="#FFFFFF" d="M31.401,74.107c0-1.584-0.001-3.167,0-4.751c0.002-3.646,1.93-4.973,5.418-3.869
		c1.056,0.336,0.87,1.05,0.873,1.729c0.021,4.751-0.043,9.501,0.034,14.253c0.046,2.892-2.06,1.71-3.355,1.815
		c-1.327,0.108-3.125,0.661-2.995-1.895C31.5,78.971,31.402,76.536,31.401,74.107z"/>
	<path fill="#FFFFFF" d="M50.598,67.929c-0.285,2.199-1.455,3.591-3.688,3.533c-2.201-0.056-3.562-1.443-3.513-3.639
		c0.049-2.179,1.417-3.527,3.646-3.506C49.304,64.341,50.383,65.779,50.598,67.929z"/>
	<path fill="#FFFFFF" d="M27.466,67.869c-0.173,2.256-1.412,3.604-3.596,3.591c-2.16-0.014-3.534-1.293-3.532-3.579
		c0.001-2.285,1.368-3.55,3.54-3.561C26.077,64.309,27.294,65.656,27.466,67.869z"/>
</g>
</svg>
