<?xml version="1.0" encoding="utf-8"?>
<!-- Generator: Adobe Illustrator 16.0.0, SVG Export Plug-In . SVG Version: 6.00 Build 0)  -->
<!DOCTYPE svg PUBLIC "-//W3C//DTD SVG 1.1//EN" "http://www.w3.org/Graphics/SVG/1.1/DTD/svg11.dtd">
<svg version="1.1" id="Layer_1" xmlns="http://www.w3.org/2000/svg" xmlns:xlink="http://www.w3.org/1999/xlink" x="0px" y="0px"
	 width="144px" height="144px" viewBox="0 0 144 144" enable-background="new 0 0 144 144" xml:space="preserve">
<path fill-rule="evenodd" clip-rule="evenodd" fill="#FFFFFF" d="M74.982,96.845c0.129-19.41,6.925-35.301,18.852-49.188
	c3.279-3.818,6.738-7.454,10.715-10.56c1.906-1.488,3.911-2.838,6.254-3.57c3.064-0.957,6.236,0.247,7.729,2.918
	c1.305,2.334,0.733,5.312-1.696,7.364c-2.033,1.717-4.252,3.223-6.44,4.748c-13.312,9.266-21.325,21.907-23.92,37.893
	c-1.628,10.024-0.748,19.882,2.7,29.474c0.428,1.189,0.934,2.371,0.768,3.692c-0.311,2.479-2.133,4.435-4.486,4.801
	c-2.464,0.384-4.806-0.895-5.794-3.356c-2.043-5.089-3.315-10.388-4.062-15.816C75.175,102.152,75.07,99.039,74.982,96.845z"/>
<path fill-rule="evenodd" clip-rule="evenodd" fill="#FFFFFF" d="M69.002,95.801c-0.103,8.632-1.468,16.73-4.414,24.539
	c-1.268,3.363-4.031,4.866-6.982,3.812c-3.045-1.087-4.258-4.03-3.058-7.498c5.972-17.265,4.91-33.965-4.06-50.001
	c-4.244-7.585-10.292-13.498-17.375-18.434c-2.236-1.559-4.648-2.921-6.522-4.938c-3.326-3.58-1.864-8.684,2.805-9.893
	c1.868-0.484,3.657-0.096,5.359,0.743c2.295,1.131,4.382,2.583,6.276,4.291C53.526,49.68,62.898,62.917,66.984,79.496
	C68.33,84.953,68.909,90.497,69.002,95.801z"/>
<path fill-rule="evenodd" clip-rule="evenodd" fill="#FFFFFF" d="M84.423,30.933c-0.011,6.931-5.564,12.539-12.427,12.548
	c-6.929,0.009-12.493-5.667-12.461-12.71c0.031-6.918,5.605-12.443,12.527-12.417C78.953,18.379,84.433,23.956,84.423,30.933z"/>
</svg>
