<?xml version="1.0" encoding="utf-8"?>
<!-- Generator: Adobe Illustrator 16.0.0, SVG Export Plug-In . SVG Version: 6.00 Build 0)  -->
<!DOCTYPE svg PUBLIC "-//W3C//DTD SVG 1.1//EN" "http://www.w3.org/Graphics/SVG/1.1/DTD/svg11.dtd">
<svg version="1.1" id="Layer_1" xmlns="http://www.w3.org/2000/svg" xmlns:xlink="http://www.w3.org/1999/xlink" x="0px" y="0px"
	 width="144px" height="144px" viewBox="0 0 144 144" enable-background="new 0 0 144 144" xml:space="preserve">
<path fill="#FFFFFF" d="M2.249,44.911c1.175,4.726,5.344,4.352,8.904,4.707c5.136,0.515,6.229,1.883,3.102,5.608
	C6.81,64.095,5.139,74.25,6.287,84.449c-0.578,9.672,1.001,18.431,1.206,27.269c0.127,5.546,2.321,10.265,8.262,11.73
	c4.775,1.177,9.639,0.922,14.134-1.408c2.28-1.18,4.216-2.838,4.321-5.689c0.101-2.716,1.773-3.28,4.025-3.278
	c22.353,0.02,44.705,0.028,67.059,0.03c2.026,0,3.241,0.619,3.992,2.846c2.204,6.536,7.767,9.072,16.694,8.034
	c6.098-0.713,9.955-4.771,10.41-11.511c0.84-12.465,1.479-24.935,1.213-37.448c-0.125-5.883-1.595-11.091-5.156-15.834
	c-1.639-2.186-4.675-4.138-3.926-7.205c0.997-4.09,5.315-1.212,7.667-2.832c0.128-0.087,0.32-0.083,0.483-0.111
	c3.976-0.692,6.087-3.115,5.141-7.021c-1.065-4.399-4.515-3.628-7.683-2.528c-10.565,3.669-10.56,3.69-15.543-6.257
	c-0.373-0.747-0.807-1.47-1.104-2.245c-2.611-6.772-6.54-10.335-14.779-10.589c-21.997-0.681-43.952-1.053-65.926,0.322
	c-3.554,0.223-5.997,1.763-7.606,4.797c-2.343,4.417-4.576,8.896-6.974,13.282c-1.835,3.355-4.289,4.991-8.171,2.703
	c-1.702-1.003-3.655-1.653-5.566-2.217C3.641,37.869,1.066,40.158,2.249,44.911z M127.157,73.901
	c0.801,3.982-3.589,5.481-6.548,7.182c-6.027,3.459-12.091,3.296-17.89-0.504c-3.752-2.46-3.554-5.082,0.506-6.903
	c4.755-2.135,9.842-2.927,15.237-3.117C121.526,71.066,126.269,69.483,127.157,73.901z M25.264,45.27
	c0.908-6.022,3.135-11.542,6.626-16.547c2.044-2.933,5.285-3.553,8.388-3.778c20.982-1.529,41.993-1.702,62.963,0.037
	c8.326,0.69,17.091,14.792,15.187,23.271c-0.676,3.003-2.848,2.778-5.032,2.778c-13.844,0.001-27.684,0.001-41.525,0.001
	c-13.841,0-27.684-0.12-41.522,0.069C25.901,51.161,24.682,49.106,25.264,45.27z M18.566,71.447c2.19-1.028,4.561-0.782,7.477-0.859
	c4.612,0.146,9.705,0.967,14.475,3.083c3.986,1.769,4.226,3.993,0.977,6.61c-6.589,5.308-19.531,3.344-24.299-3.632
	C15.583,74.292,16.077,72.615,18.566,71.447z"/>
</svg>
