<?xml version="1.0" encoding="utf-8"?>
<!-- Generator: Adobe Illustrator 16.0.0, SVG Export Plug-In . SVG Version: 6.00 Build 0)  -->
<!DOCTYPE svg PUBLIC "-//W3C//DTD SVG 1.1//EN" "http://www.w3.org/Graphics/SVG/1.1/DTD/svg11.dtd">
<svg version="1.1" id="Layer_1" xmlns="http://www.w3.org/2000/svg" xmlns:xlink="http://www.w3.org/1999/xlink" x="0px" y="0px"
	 width="144px" height="144px" viewBox="0 0 144 144" enable-background="new 0 0 144 144" xml:space="preserve">
<g>
	<path fill-rule="evenodd" clip-rule="evenodd" fill="#FFFFFF" d="M117.441,58.021c0,7.948-0.145,15.899,0.037,23.845
		c0.202,8.815-3.46,16.055-9.042,22.368c-9.613,10.871-21.798,18.174-34.878,24.093c-0.739,0.335-1.887,0.379-2.613,0.047
		c-13.822-6.305-26.67-14.02-36.44-25.996c-5.344-6.551-7.834-14.087-7.781-22.574c0.101-16.104,0.055-32.208,0.001-48.312
		c-0.007-1.991,0.357-3.167,2.588-3.755c13.44-3.543,26.825-7.298,40.267-10.838c1.691-0.445,3.704-0.424,5.4,0.021
		c13.344,3.505,26.638,7.198,39.971,10.744c1.937,0.514,2.565,1.399,2.54,3.415C117.377,40.057,117.442,49.039,117.441,58.021z
		 M96.994,60.081c-4.411-0.634-8.625-1.414-12.878-1.79c-2.881-0.255-4.655-1.335-5.826-4.078c-1.724-4.035-3.861-7.893-6.06-12.302
		c-2.075,4.149-4.111,7.733-5.682,11.51c-1.343,3.229-3.321,4.775-6.892,4.981c-4.062,0.233-8.089,1.089-12.331,1.704
		c3.388,3.454,6.421,6.802,9.742,9.834c1.925,1.758,2.45,3.497,1.942,5.999c-0.888,4.375-1.47,8.811-2.272,13.801
		c4.734-2.42,8.923-4.392,12.928-6.683c1.981-1.133,3.498-0.977,5.389,0.086c3.929,2.209,7.984,4.194,12.688,6.636
		c-0.823-4.978-1.443-9.22-2.251-13.426c-0.495-2.59-0.223-4.561,1.989-6.499C90.784,66.958,93.651,63.565,96.994,60.081z"/>
</g>
</svg>
