<?xml version="1.0" encoding="utf-8"?>
<!-- Generator: Adobe Illustrator 16.0.0, SVG Export Plug-In . SVG Version: 6.00 Build 0)  -->
<!DOCTYPE svg PUBLIC "-//W3C//DTD SVG 1.1//EN" "http://www.w3.org/Graphics/SVG/1.1/DTD/svg11.dtd">
<svg version="1.1" id="Layer_1" xmlns="http://www.w3.org/2000/svg" xmlns:xlink="http://www.w3.org/1999/xlink" x="0px" y="0px"
	 width="144px" height="144px" viewBox="0 0 144 144" enable-background="new 0 0 144 144" xml:space="preserve">
<path fill-rule="evenodd" clip-rule="evenodd" fill="#FFFFFF" d="M136.051,34.466c0.268,0.427,0.76,0.289,1.136,0.408
	c0.757,0.24,1.294,0.614,1.423,1.429c0.129,0.797-0.348,1.301-0.942,1.655c-2.361,1.402-4.697,2.854-7.126,4.131
	c-9.789,5.152-19.04,11.124-27.729,17.971c-0.295,0.232-0.547,0.516-0.822,0.775c-2.753,2.04-5.33,4.291-7.894,6.562
	c-2.924,2.233-5.641,4.702-8.273,7.271c-6.563,6.403-13.199,12.736-19.076,19.806c-3.434,4.129-6.662,8.41-9.59,12.916
	c-0.967,1.492-2.003,2.936-3.362,4.107c-2.515,2.171-5.505,2.034-7.798-0.361c-0.944-0.982-1.642-2.141-2.339-3.301
	c-6.837-11.362-16.521-19.149-29.172-23.202c-2.453-0.786-4.899-1.582-7.111-2.957c-0.787-0.489-1.355-1.115-1.68-1.987
	c-0.78-2.094-0.178-3.475,1.989-4.103c3.448-1.003,6.961-0.734,10.419-0.117c8.855,1.576,16.193,6.086,22.735,12.061
	c2.531,2.312,4.866,4.819,7.208,7.313c0.721,0.769,1.094,0.631,1.705-0.05c3.553-3.969,7.076-7.965,10.722-11.842
	c7.674-8.16,15.463-16.205,24.072-23.405c2.869-2.287,5.918-4.324,8.905-6.454c3.547-2.12,7.075-4.271,10.643-6.355
	c8.071-4.717,16.493-8.676,25.389-11.598c0.747-0.245,1.571-0.223,2.255-0.673C133.174,34.466,134.611,34.466,136.051,34.466z"/>
</svg>
