<?xml version="1.0" encoding="utf-8"?>
<!-- Generator: Adobe Illustrator 16.0.0, SVG Export Plug-In . SVG Version: 6.00 Build 0)  -->
<!DOCTYPE svg PUBLIC "-//W3C//DTD SVG 1.1//EN" "http://www.w3.org/Graphics/SVG/1.1/DTD/svg11.dtd">
<svg version="1.1" id="Layer_1" xmlns="http://www.w3.org/2000/svg" xmlns:xlink="http://www.w3.org/1999/xlink" x="0px" y="0px"
	 width="144px" height="144px" viewBox="0 0 144 144" enable-background="new 0 0 144 144" xml:space="preserve">
<g>
	<path fill="#FFFFFF" d="M108.749,52.331c-7.236-6.257-15.812-7.197-23.249,0.076c0-3.333-0.431-6.38,0.233-9.333
		c0.499-2.223,2.565-3.081,4.642-3.142c4.528-0.134,9.073-0.175,13.598,0.02c3.218,0.141,4.756,2.041,4.773,5.223
		C108.758,47.413,108.749,49.652,108.749,52.331z"/>
</g>
<path fill="#FFFFFF" d="M88.222,24.46c0.319,1.152,1.282,0.75,2.001,0.761c4.248,0.066,8.439,0.638,12.574,1.546
	c6.149,1.352,10.481,5.296,14.137,10.164c3.611,4.808,6.713,9.934,9.687,15.643c0.444-3.408,2.36-4.365,5.203-4.267
	c2.062,0.07,4.132-0.195,6.2-0.242c2.58-0.057,4.143,1.417,4.312,3.974c0.423,6.399-0.285,7.211-6.738,7.761
	c-0.925,0.078-1.875,0.325-2.754,0.331c-2.222,0.011-2.16,0.609-1.143,2.297c4.127,6.843,5.516,14.384,5.288,22.28
	c-0.189,6.491-1.41,12.864-2.272,19.279c-0.297,2.201-0.317,4.415-0.146,6.596c0.335,4.188-1.056,7.261-5.028,8.958
	c-4.145,0-8.291,0-12.435,0c-4.111-1.905-5.266-5.305-4.819-9.518c0.021-0.197-0.021-0.402,0.007-0.598
	c0.257-1.631-0.424-2.187-2.072-2.268c-25.358-1.312-50.713-1.316-76.071,0.003c-1.581,0.078-2.41,0.523-2.128,2.221
	c0.022,0.13-0.009,0.268,0.004,0.4c0.46,4.259-0.62,7.767-4.785,9.759c-4.28,0-8.558,0-12.838,0
	c-0.197-0.596-0.798-0.665-1.243-0.922c-2.203-1.277-3.486-3.18-3.366-5.714c0.316-6.652-0.936-13.141-1.745-19.688
	C6.645,81.846,6.25,70.584,13.477,60.621c-3.889-1.508-8.598,0.168-11.911-3.263c0-2.14,0-4.28,0-6.419
	c1.283-2.29,3.188-3.179,5.81-2.808c1.512,0.215,3.07,0.228,4.601,0.166c2.939-0.121,5.153,0.667,5.501,4.477
	c0.567-0.996,0.893-1.545,1.198-2.106c2.583-4.756,5.458-9.321,8.652-13.7c4.285-5.875,9.729-9.924,17.067-10.827
	c5.126-0.63,10.259-1.324,15.444-1.388c0.635-0.008,1.339,0.246,1.906-0.292C70.57,24.46,79.395,24.46,88.222,24.46z
	 M119.562,56.483c-2.767-6.575-6.004-12.587-10.732-17.703c-1.659-1.794-3.683-3.062-5.929-3.993
	c-4.222-1.751-8.74-1.848-13.179-2.203c-11.665-0.934-23.349-0.863-35.021-0.024c-2.929,0.21-5.861,0.502-8.765,0.942
	c-5.12,0.772-9.219,3.306-12.371,7.438c-3.61,4.731-6.542,9.821-8.813,15.679c3.729-0.575,7.116-1.099,10.504-1.614
	c0.556-0.086,0.798-0.247,0.627-0.913c-0.608-2.365-0.235-4.786-0.27-7.18c-0.049-3.267,1.686-5.176,4.934-5.254
	c4.475-0.108,8.955-0.12,13.431,0.003c3.279,0.091,4.907,1.975,4.924,5.292c0.01,1.805,0.147,3.625-0.047,5.407
	c-0.166,1.527,0.388,1.721,1.724,1.712c8.82-0.056,17.641-0.021,26.463-0.032c7.82-0.009,15.63,0.229,23.399,1.177
	C113.402,55.58,116.356,56.036,119.562,56.483z M45.448,79.243c4.564,11.189,18.564,20.38,31.169,17.71
	c9.793-2.073,21.33-11.375,21.507-17.368C80.58,89.342,63.011,89.456,45.448,79.243z M123.834,81.853
	c-0.004-4.891-3.994-8.854-9.33-8.646c-4.023,0.157-7.934,3.524-8.014,8.639c-0.066,4.438,4.251,8.937,8.566,9.057
	C119.331,91.021,123.841,86.372,123.834,81.853z M37.74,81.822c-0.004-4.722-3.989-8.703-8.671-8.67
	c-4.684,0.034-8.613,4.051-8.572,8.768c0.04,4.585,4.45,9.099,8.775,8.98C33.605,90.781,37.746,86.347,37.74,81.822z"/>
</svg>
