<?xml version="1.0" encoding="utf-8"?>
<!-- Generator: Adobe Illustrator 16.0.0, SVG Export Plug-In . SVG Version: 6.00 Build 0)  -->
<!DOCTYPE svg PUBLIC "-//W3C//DTD SVG 1.1//EN" "http://www.w3.org/Graphics/SVG/1.1/DTD/svg11.dtd">
<svg version="1.1" id="Layer_1" xmlns="http://www.w3.org/2000/svg" xmlns:xlink="http://www.w3.org/1999/xlink" x="0px" y="0px"
	 width="144px" height="144px" viewBox="0 0 144 144" enable-background="new 0 0 144 144" xml:space="preserve">
<g>
	<path fill-rule="evenodd" clip-rule="evenodd" fill="#FFFFFF" d="M63.824,134c-3.84-0.774-7.728-1.362-11.512-2.35
		c-23.807-6.201-41.747-27.395-44.713-51.754C3.823,48.876,24.41,17.87,58.477,11.92c3.041-0.531,6.162-0.599,9.484-0.905
		c0,7.292,0,14.206,0,21.271c-12.693,0.509-23.102,5.565-30.948,15.478c-6.287,7.941-9.118,17.126-8.477,27.207
		c1.318,20.714,18.316,36.825,39.361,37.543c16.715,0.569,36.032-13.201,38.193-27.524c-8.254,0-16.466,0-24.886,0
		c0-7.435,0-14.535,0-21.799c15.985,0,31.912,0,47.819,0c5.018,28.701-12.692,59.907-44.358,68.485
		c-3.586,0.973-7.278,1.559-10.922,2.323C70.437,134,67.131,134,63.824,134z"/>
	<path fill-rule="evenodd" clip-rule="evenodd" fill="#FFFFFF" d="M95.788,10c0.397,0.2,0.775,0.493,1.196,0.585
		c8.547,1.873,12.735,8.812,10.02,17.119c-0.775,2.371-2.185,4.655-3.752,6.621c-3.882,4.866-8.023,9.525-12.487,14.77
		c5.926,0,11.325,0,16.898,0c0,2.163,0,3.931,0,5.833c-8.915,0-17.685,0-27.251,0c0.695-1.584,0.994-2.984,1.796-3.978
		c5.474-6.78,11.065-13.464,16.586-20.207c0.864-1.056,1.711-2.176,2.307-3.393c2.148-4.389,1.004-8.428-2.825-10.377
		c-4.288-2.185-9.178-0.848-11.47,3.164c-0.448,0.785-0.78,1.637-1.125,2.372c-0.188,0.096-0.274,0.184-0.347,0.172
		c-5.607-0.956-6.029-0.733-2.947-6.339c2.043-3.712,5.844-5.003,9.544-6.341C93.217,10,94.502,10,95.788,10z"/>
</g>
</svg>
