<?xml version="1.0" encoding="utf-8"?>
<!-- Generator: Adobe Illustrator 16.0.0, SVG Export Plug-In . SVG Version: 6.00 Build 0)  -->
<!DOCTYPE svg PUBLIC "-//W3C//DTD SVG 1.1//EN" "http://www.w3.org/Graphics/SVG/1.1/DTD/svg11.dtd">
<svg version="1.1" id="Layer_1" xmlns="http://www.w3.org/2000/svg" xmlns:xlink="http://www.w3.org/1999/xlink" x="0px" y="0px"
	 width="144px" height="144px" viewBox="0 0 144 144" enable-background="new 0 0 144 144" xml:space="preserve">
<path fill-rule="evenodd" clip-rule="evenodd" fill="#FFFFFF" d="M59.377,103.805c6.633,4.614,13.993,5.553,21.696,3.932
	c7.239-1.523,12.412-5.8,15.342-12.66c0.28-0.657,0.455-1.359,0.679-2.039c0.723-1.868,1.034-3.82,1.196-5.803
	c0.183-2.231,0.18-2.212-2.035-2.235c-5.887-0.063-11.812,0.423-17.591-1.211c-7.08-2.252-9.258-7.36-8.032-14.264
	c0.72-4.05,3.416-6.44,7.126-7.832c3.151-1.181,6.449-1.576,9.78-1.597c7.476-0.05,14.95-0.018,22.427-0.014
	c1.776,0.001,3.53,0.229,5.277,0.532c5.464,0.947,9.345,3.797,11.119,9.199c0.162,0.757,0.359,1.509,0.479,2.272
	c0.979,6.257,0.471,12.478-0.695,18.64c-2.382,12.586-7.969,23.448-18.081,31.554c-13.732,11.006-29.582,13.466-46.514,10.72
	c-7.872-1.276-14.972-4.558-21.484-9.13c-5.255-4.055-9.774-8.782-13.333-14.414c-5.768-9.124-8.789-19.15-9.713-29.83
	c-1.058-12.23-0.013-24.245,4.731-35.683c7.912-19.072,22.467-29.803,42.639-33c12.567-1.991,24.942-1.04,36.812,3.923
	c6.342,2.651,11.837,6.441,15.675,12.312c0.019,0.198,0.09,0.35,0.316,0.369c0,0-0.096,0.004-0.096,0.005
	c0.376,0.918,0.802,1.821,1.118,2.76c1.685,5,0.225,10.567-3.647,13.917c-4.108,3.554-8.545,3.406-13.11,1.038
	c-2.451-1.272-4.84-2.663-7.253-4.006c-5.417-3.015-11.091-5.13-17.363-5.584c-12.293-0.889-23.04,5.329-27.691,16.74
	c-5.032,12.343-4.853,24.926-0.425,37.426c1.959,5.532,5.256,10.194,10.128,13.624l0.156-0.025l-0.025-0.155
	C58.893,103.624,59.158,103.696,59.377,103.805z"/>
</svg>
