<?xml version="1.0" encoding="utf-8"?>
<!-- Generator: Adobe Illustrator 16.0.0, SVG Export Plug-In . SVG Version: 6.00 Build 0)  -->
<!DOCTYPE svg PUBLIC "-//W3C//DTD SVG 1.1//EN" "http://www.w3.org/Graphics/SVG/1.1/DTD/svg11.dtd">
<svg version="1.1" id="Layer_1" xmlns="http://www.w3.org/2000/svg" xmlns:xlink="http://www.w3.org/1999/xlink" x="0px" y="0px"
	 width="144px" height="144px" viewBox="0 0 144 144" enable-background="new 0 0 144 144" xml:space="preserve">
<g>
	<path fill="#FFFFFF" d="M75.161,121.5c-0.474,0-0.946,0-1.42,0c-1.712-1.196-3.64-2.173-5.1-3.621
		c-15.828-15.715-31.602-31.484-47.35-47.28c-7.248-7.268-9.48-16.112-6.85-25.846c2.653-9.817,9.323-15.971,19.25-18.475
		c1.195-0.301,2.386-0.62,3.578-0.93c1.579,0,3.158,0,4.736,0c0.281,0.132,0.553,0.354,0.844,0.384
		c6.937,0.703,12.45,4.082,17.2,8.992c3.182,3.289,6.459,6.484,9.704,9.712c3.344,3.326,6.454,3.312,9.849-0.058
		c3.919-3.891,7.829-7.792,11.725-11.707c1.488-1.498,3.227-2.215,5.332-1.818c2.199,0.415,3.803,1.694,4.388,3.833
		c0.64,2.342,0.08,4.425-1.759,6.243c-8.472,8.377-16.885,16.815-25.289,25.257c-2.269,2.277-2.388,5-0.429,6.875
		c1.887,1.805,4.516,1.636,6.724-0.507c2.376-2.309,4.672-4.7,7.056-7.002c2.095-2.021,4.877-2.38,7.154-1.03
		c3.386,2.008,3.773,6.205,0.736,9.28c-7.042,7.131-14.153,14.19-21.21,21.304c-2.256,2.272-2.432,5.016-0.55,6.887
		c1.979,1.966,4.556,1.798,6.875-0.508c4.532-4.505,9.041-9.036,13.561-13.556c5.244-5.244,10.477-10.5,15.737-15.727
		c1.994-1.981,4.62-2.448,6.928-1.334c2.26,1.091,3.599,3.379,2.97,6.08c-0.348,1.498-1.329,3.03-2.433,4.143
		c-12.224,12.325-24.5,24.595-36.843,36.801C78.811,119.341,76.877,120.31,75.161,121.5z"/>
	<path fill-rule="evenodd" clip-rule="evenodd" fill="#FFFFFF" d="M103.394,63.588c-2.574-0.268-4.204-1.502-5.248-3.538
		c-1.134-2.209-0.783-4.411,0.889-6.112c7.128-7.25,14.313-14.447,21.569-21.568c2.153-2.111,5.904-1.849,7.931,0.239
		c2.021,2.083,2.264,5.551,0.147,7.713c-7.11,7.268-14.314,14.444-21.586,21.549C106.179,62.768,104.643,63.031,103.394,63.588z"/>
	<path fill-rule="evenodd" clip-rule="evenodd" fill="#FFFFFF" d="M130.623,63.526c-0.003,3.224-2.524,5.807-5.625,5.766
		c-3.012-0.041-5.718-2.813-5.68-5.822c0.04-3.125,2.621-5.533,5.885-5.489C128.441,58.024,130.626,60.258,130.623,63.526z"/>
</g>
</svg>
