<?xml version="1.0" encoding="utf-8"?>
<!-- Generator: Adobe Illustrator 16.0.0, SVG Export Plug-In . SVG Version: 6.00 Build 0)  -->
<!DOCTYPE svg PUBLIC "-//W3C//DTD SVG 1.1//EN" "http://www.w3.org/Graphics/SVG/1.1/DTD/svg11.dtd">
<svg version="1.1" id="Layer_1" xmlns="http://www.w3.org/2000/svg" xmlns:xlink="http://www.w3.org/1999/xlink" x="0px" y="0px"
	 width="144px" height="144px" viewBox="0 0 144 144" enable-background="new 0 0 144 144" xml:space="preserve">
<g>
	<path fill-rule="evenodd" clip-rule="evenodd" fill="#FFFFFF" d="M124.438,73.337c-0.001,21.182-17.031,38.029-38.602,37.851
		c-20.697-0.171-37.47-17.007-37.475-37.97c-0.005-20.991,17.063-37.964,38.119-37.935
		C107.553,35.312,124.439,52.241,124.438,73.337z M86.504,63.708c-5.341-0.016-9.692,4.252-9.703,9.515
		c-0.011,5.204,4.282,9.535,9.529,9.614c5.245,0.077,9.668-4.291,9.674-9.556C96.009,68.016,91.748,63.724,86.504,63.708z"/>
	<path fill-rule="evenodd" clip-rule="evenodd" fill="#FFFFFF" d="M28.973,82.663c-5.299-0.023-9.437-4.176-9.412-9.445
		c0.025-5.328,4.208-9.424,9.594-9.398c5.157,0.025,9.372,4.31,9.311,9.464C38.402,78.6,34.267,82.687,28.973,82.663z"/>
</g>
</svg>
