<?xml version="1.0" encoding="utf-8"?>
<!-- Generator: Adobe Illustrator 16.0.0, SVG Export Plug-In . SVG Version: 6.00 Build 0)  -->
<!DOCTYPE svg PUBLIC "-//W3C//DTD SVG 1.1//EN" "http://www.w3.org/Graphics/SVG/1.1/DTD/svg11.dtd">
<svg version="1.1" id="Layer_1" xmlns="http://www.w3.org/2000/svg" xmlns:xlink="http://www.w3.org/1999/xlink" x="0px" y="0px"
	 width="144px" height="144px" viewBox="0 0 144 144" enable-background="new 0 0 144 144" xml:space="preserve">
<path fill-rule="evenodd" clip-rule="evenodd" fill="#FEFEFE" d="M131.777,79.111c-0.828,1.363-2.139,1.466-3.555,1.447
	c-3.939-0.044-7.879,0.06-11.814-0.048c-6.082-0.17-10.232-3.474-11.718-9.453c-3.239-13.056-6.374-26.134-10.324-39.347
	c-1.387,6.376-2.818,12.739-4.149,19.13c-4.695,22.502-9.354,45.018-14.031,67.526c-0.618,2.98-1.161,6.018-4.35,7.518
	c-2.471,1.047-4.039-0.175-5.291-2.134c-0.996-1.559-1.417-3.339-1.826-5.11c-3.903-16.807-8.174-33.527-12.341-50.271
	c-0.363-1.459-0.86-2.917-0.466-4.469c-1.607,6.606-2.94,13.282-4.753,19.832c-2.394,8.642-7.937,9.935-14.131,3.385
	c-2.137-2.256-4.434-4.096-7.455-4.94c-2.413-0.996-4.949-0.548-7.434-0.655c-1.903-0.082-3.871,0.119-5.355-1.466
	c-0.261-1.659-0.524-3.318-0.786-4.977c10.029-1,20.186-2.484,27.565,8.382c2.412-10.363,4.585-19.709,6.759-29.054
	c0.172-0.737,0.303-1.485,0.501-2.218c0.691-2.547,1.504-5.321,4.694-5.302c3.184,0.014,4.057,2.821,4.686,5.354
	c3.727,14.981,7.385,29.98,11.073,44.97c1.044,4.251,2.103,8.494,3.249,13.119c2.015-1.614,1.624-3.788,1.982-5.487
	c5.709-26.948,11.246-53.927,16.951-80.875c0.644-3.04,0.429-7.438,5.092-7.396c4.247,0.039,4.276,4.104,5.012,7.068
	c3.604,14.544,7.105,29.113,10.652,43.669c1.463,5.994,2.97,7.187,9.085,7.223c3.333,0.02,6.672,0.142,9.997-0.036
	c2.423-0.127,2.763,1.186,2.696,3.051C131.919,78.067,131.853,78.589,131.777,79.111z"/>
</svg>
