<svg id="svg" version="1.1" width="400" height="400" viewBox="0 0 400 400" xmlns="http://www.w3.org/2000/svg" xmlns:xlink="http://www.w3.org/1999/xlink" ><g id="svgg"><path id="path0" d="M100.037 89.233 C 98.628 89.416,97.287 89.753,97.057 89.983 C 96.828 90.212,96.237 90.400,95.744 90.400 C 95.251 90.400,94.736 90.580,94.600 90.800 C 94.464 91.020,94.023 91.200,93.619 91.200 C 92.647 91.200,85.517 94.924,83.440 96.516 C 76.230 102.045,72.590 107.887,69.165 119.428 C 67.003 126.713,70.023 140.272,75.645 148.518 C 78.055 152.052,86.059 159.200,87.608 159.200 C 87.823 159.200,88.000 159.380,88.000 159.600 C 88.000 159.820,88.265 160.000,88.588 160.000 C 88.911 160.000,89.817 160.360,90.600 160.800 C 91.383 161.240,92.368 161.600,92.789 161.600 C 93.209 161.600,93.664 161.780,93.800 162.000 C 93.936 162.220,94.476 162.400,95.000 162.400 C 95.524 162.400,96.064 162.580,96.200 162.800 C 96.336 163.020,97.031 163.200,97.744 163.200 C 98.457 163.200,99.265 163.425,99.540 163.700 C 99.899 164.059,101.863 164.200,106.487 164.200 C 111.289 164.200,112.976 164.072,113.100 163.700 C 113.199 163.402,113.971 163.200,115.010 163.200 C 115.968 163.200,116.864 163.020,117.000 162.800 C 117.136 162.580,117.599 162.400,118.029 162.400 C 118.459 162.400,119.123 162.238,119.505 162.041 C 119.887 161.843,121.775 160.917,123.700 159.983 C 125.625 159.049,127.200 158.130,127.200 157.942 C 127.200 157.754,127.475 157.600,127.811 157.600 C 128.941 157.600,134.675 152.057,136.916 148.800 C 137.596 147.810,138.299 146.940,138.477 146.867 C 138.655 146.793,138.800 146.503,138.800 146.222 C 138.800 145.941,139.520 144.311,140.400 142.600 C 141.280 140.889,142.000 139.165,142.000 138.768 C 142.000 138.372,142.180 137.936,142.400 137.800 C 142.620 137.664,142.800 137.102,142.800 136.550 C 142.800 135.999,142.999 135.176,143.242 134.722 C 143.841 133.602,143.836 118.876,143.236 118.276 C 142.996 118.036,142.800 117.370,142.800 116.795 C 142.800 116.220,142.440 115.005,142.000 114.094 C 141.560 113.184,141.200 112.275,141.200 112.075 C 141.200 109.422,134.083 99.900,130.000 97.091 C 129.010 96.410,128.102 95.710,127.982 95.536 C 127.603 94.983,119.904 91.200,119.159 91.200 C 118.768 91.200,118.336 91.020,118.200 90.800 C 118.064 90.580,117.549 90.400,117.056 90.400 C 116.563 90.400,115.980 90.220,115.759 89.999 C 114.753 88.993,105.408 88.538,100.037 89.233 M0.000 197.603 L 0.000 302.406 27.500 302.303 L 55.000 302.200 55.101 198.045 C 55.196 99.207,55.166 93.862,54.501 93.357 C 53.934 92.927,48.648 92.823,26.900 92.813 L 0.000 92.800 0.000 197.603 M226.800 93.191 C 226.470 93.409,224.816 93.591,223.124 93.594 C 221.432 93.597,219.936 93.780,219.800 94.000 C 219.664 94.220,218.764 94.400,217.800 94.400 C 216.836 94.400,215.936 94.580,215.800 94.800 C 215.664 95.020,214.854 95.200,214.000 95.200 C 213.146 95.200,212.336 95.380,212.200 95.600 C 212.064 95.820,211.344 96.000,210.600 96.000 C 209.856 96.000,209.136 96.180,209.000 96.400 C 208.864 96.620,208.311 96.800,207.771 96.800 C 207.231 96.800,206.432 96.980,205.995 97.200 C 205.558 97.420,204.842 97.780,204.405 98.000 C 203.968 98.220,203.259 98.400,202.829 98.400 C 202.399 98.400,201.936 98.580,201.800 98.800 C 201.664 99.020,201.209 99.200,200.789 99.200 C 200.368 99.200,199.383 99.560,198.600 100.000 C 197.817 100.440,196.911 100.800,196.588 100.800 C 196.265 100.800,196.000 100.980,196.000 101.200 C 196.000 101.420,195.765 101.600,195.477 101.600 C 194.383 101.600,186.601 105.927,185.045 107.400 C 184.580 107.840,183.705 108.455,183.100 108.768 C 182.495 109.080,182.000 109.485,182.000 109.668 C 182.000 109.850,181.655 110.000,181.233 110.000 C 180.812 110.000,180.407 110.142,180.333 110.315 C 180.260 110.488,179.390 111.246,178.400 111.999 C 174.207 115.189,165.600 124.464,165.600 125.791 C 165.600 125.948,165.261 126.554,164.847 127.138 C 161.908 131.282,158.000 139.708,158.000 141.903 C 158.000 142.370,157.820 142.864,157.600 143.000 C 157.380 143.136,157.200 143.831,157.200 144.544 C 157.200 145.257,157.037 146.011,156.837 146.220 C 155.366 147.759,155.588 166.177,157.149 172.200 C 157.377 173.080,157.684 174.298,157.830 174.906 C 157.976 175.514,158.254 176.110,158.448 176.230 C 158.641 176.349,158.816 176.842,158.836 177.324 C 158.856 177.806,159.385 179.100,160.010 180.200 C 160.636 181.300,161.462 182.830,161.845 183.600 C 165.141 190.220,175.257 200.275,183.000 204.627 C 183.880 205.121,186.400 206.454,188.600 207.588 C 190.800 208.722,193.410 210.083,194.400 210.613 C 195.390 211.144,196.420 211.583,196.688 211.589 C 196.956 211.595,197.817 211.960,198.600 212.400 C 199.383 212.840,200.368 213.200,200.789 213.200 C 201.209 213.200,201.664 213.380,201.800 213.600 C 201.936 213.820,202.315 214.000,202.643 214.000 C 202.971 214.000,203.984 214.360,204.894 214.800 C 205.805 215.240,206.866 215.600,207.252 215.600 C 207.637 215.600,208.064 215.780,208.200 216.000 C 208.336 216.220,208.799 216.400,209.229 216.400 C 209.659 216.400,210.323 216.565,210.705 216.766 C 211.913 217.403,214.119 218.311,216.600 219.191 C 217.920 219.659,219.313 220.213,219.695 220.421 C 220.077 220.630,220.754 220.800,221.200 220.800 C 221.646 220.800,222.368 220.980,222.805 221.200 C 223.242 221.420,223.958 221.780,224.395 222.000 C 224.832 222.220,225.464 222.400,225.800 222.400 C 226.393 222.400,226.816 222.566,228.695 223.538 C 229.187 223.792,229.941 224.000,230.371 224.000 C 230.801 224.000,231.264 224.180,231.400 224.400 C 231.536 224.620,232.076 224.800,232.600 224.800 C 233.124 224.800,233.664 224.980,233.800 225.200 C 233.936 225.420,234.397 225.600,234.824 225.600 C 235.251 225.600,235.600 225.780,235.600 226.000 C 235.600 226.220,235.962 226.400,236.405 226.400 C 236.848 226.400,237.523 226.565,237.905 226.767 C 239.210 227.457,242.391 228.800,242.720 228.800 C 242.901 228.800,243.398 229.115,243.825 229.501 C 244.251 229.886,245.455 230.634,246.500 231.163 C 247.545 231.693,248.400 232.277,248.400 232.463 C 248.400 232.648,248.661 232.800,248.980 232.800 C 250.562 232.800,256.400 239.754,256.400 241.638 C 256.400 242.031,256.580 242.464,256.800 242.600 C 257.020 242.736,257.200 244.189,257.200 245.829 C 257.200 247.469,257.020 249.168,256.800 249.605 C 256.580 250.042,256.220 250.758,256.000 251.195 C 255.780 251.632,255.600 252.247,255.600 252.561 C 255.600 252.876,255.465 253.193,255.300 253.267 C 255.135 253.340,254.495 254.076,253.877 254.903 C 252.801 256.344,247.293 260.400,246.413 260.400 C 246.180 260.400,245.632 260.580,245.195 260.800 C 244.758 261.020,244.042 261.380,243.605 261.600 C 243.168 261.820,242.394 262.000,241.885 262.000 C 241.376 262.000,240.789 262.163,240.580 262.361 C 239.291 263.587,217.475 263.596,216.220 262.371 C 216.011 262.167,214.897 262.000,213.744 262.000 C 212.591 262.000,211.536 261.820,211.400 261.600 C 211.264 261.380,210.443 261.200,209.576 261.200 C 208.709 261.200,208.000 261.020,208.000 260.800 C 208.000 260.580,207.381 260.400,206.624 260.400 C 205.867 260.400,205.136 260.220,205.000 260.000 C 204.864 259.780,204.234 259.600,203.600 259.600 C 202.966 259.600,202.336 259.420,202.200 259.200 C 202.064 258.980,201.524 258.800,201.000 258.800 C 200.476 258.800,199.936 258.620,199.800 258.400 C 199.664 258.180,199.201 258.000,198.771 258.000 C 198.341 258.000,197.677 257.841,197.295 257.647 C 196.913 257.452,196.150 257.112,195.600 256.889 C 194.401 256.405,187.333 252.919,186.200 252.254 C 185.760 251.995,184.639 251.292,183.708 250.692 C 182.777 250.091,181.860 249.600,181.670 249.600 C 181.480 249.600,180.998 249.240,180.600 248.800 C 180.202 248.360,179.665 248.000,179.408 248.000 C 179.150 248.000,178.531 247.565,178.032 247.034 C 177.533 246.503,176.332 245.567,175.362 244.955 C 174.393 244.342,173.600 243.696,173.600 243.520 C 173.600 243.344,173.372 243.200,173.093 243.200 C 172.568 243.200,166.400 252.027,166.400 252.777 C 166.400 253.010,166.250 253.200,166.068 253.200 C 165.885 253.200,165.480 253.695,165.168 254.300 C 164.855 254.905,164.285 255.749,163.900 256.175 C 163.515 256.602,163.200 257.172,163.200 257.442 C 163.200 257.712,163.061 257.993,162.891 258.067 C 162.519 258.227,158.861 263.270,157.789 265.100 C 157.370 265.815,156.886 266.400,156.714 266.400 C 156.541 266.400,156.400 266.636,156.400 266.925 C 156.400 267.213,156.040 267.836,155.600 268.308 C 155.160 268.780,154.800 269.266,154.800 269.388 C 154.800 269.509,154.035 270.700,153.100 272.034 C 152.165 273.367,151.204 274.804,150.964 275.226 C 150.725 275.649,150.230 276.325,149.864 276.729 C 149.499 277.133,149.200 277.646,149.200 277.870 C 149.200 278.093,148.840 278.602,148.400 279.000 C 147.960 279.398,147.600 279.883,147.600 280.078 C 147.600 280.273,147.209 280.961,146.731 281.608 C 145.807 282.858,146.432 284.400,147.862 284.400 C 148.158 284.400,148.400 284.550,148.400 284.732 C 148.400 284.915,148.895 285.320,149.500 285.632 C 150.105 285.945,150.949 286.515,151.375 286.900 C 151.802 287.285,152.359 287.600,152.613 287.600 C 152.868 287.600,153.402 287.960,153.800 288.400 C 154.198 288.840,154.689 289.200,154.890 289.200 C 155.091 289.200,156.011 289.695,156.935 290.300 C 159.600 292.047,160.149 292.379,161.000 292.761 C 161.440 292.958,162.430 293.548,163.200 294.071 C 164.575 295.006,167.439 296.448,170.600 297.797 C 171.480 298.172,173.260 299.002,174.556 299.640 C 175.852 300.278,177.337 300.800,177.856 300.800 C 178.375 300.800,178.800 300.980,178.800 301.200 C 178.800 301.420,179.149 301.600,179.576 301.600 C 180.003 301.600,180.464 301.780,180.600 302.000 C 180.736 302.220,181.276 302.400,181.800 302.400 C 182.324 302.400,182.864 302.580,183.000 302.800 C 183.136 303.020,183.651 303.200,184.144 303.200 C 184.637 303.200,185.211 303.349,185.420 303.530 C 185.629 303.712,186.610 304.090,187.600 304.369 C 188.590 304.649,189.713 305.040,190.095 305.239 C 190.477 305.438,191.321 305.600,191.971 305.600 C 192.621 305.600,193.264 305.780,193.400 306.000 C 193.536 306.220,194.321 306.400,195.144 306.400 C 195.967 306.400,196.811 306.562,197.020 306.759 C 197.229 306.956,198.165 307.226,199.100 307.359 C 203.299 307.954,204.018 308.106,204.226 308.442 C 204.348 308.639,205.339 308.800,206.429 308.800 C 207.519 308.800,208.723 308.972,209.105 309.183 C 213.087 311.377,245.956 311.364,250.062 309.167 C 250.439 308.965,251.289 308.800,251.950 308.800 C 252.612 308.800,253.264 308.620,253.400 308.400 C 253.536 308.180,254.346 308.000,255.200 308.000 C 256.054 308.000,256.864 307.820,257.000 307.600 C 257.136 307.380,257.856 307.200,258.600 307.200 C 259.344 307.200,260.064 307.020,260.200 306.800 C 260.336 306.580,260.966 306.400,261.600 306.400 C 262.234 306.400,262.864 306.220,263.000 306.000 C 263.136 305.780,263.676 305.600,264.200 305.600 C 264.724 305.600,265.264 305.420,265.400 305.200 C 265.536 304.980,265.991 304.800,266.411 304.800 C 266.832 304.800,267.817 304.440,268.600 304.000 C 269.383 303.560,270.283 303.200,270.600 303.200 C 270.917 303.200,271.817 302.840,272.600 302.400 C 273.383 301.960,274.289 301.600,274.612 301.600 C 274.935 301.600,275.200 301.420,275.200 301.200 C 275.200 300.980,275.452 300.800,275.759 300.800 C 276.406 300.800,280.333 298.787,281.993 297.605 C 282.615 297.162,283.293 296.800,283.500 296.800 C 283.707 296.800,284.202 296.440,284.600 296.000 C 284.998 295.560,285.471 295.200,285.650 295.200 C 286.977 295.200,296.988 286.458,299.758 282.880 C 303.307 278.298,305.568 274.968,305.584 274.300 C 305.593 273.915,305.750 273.600,305.932 273.600 C 306.250 273.600,306.781 272.652,307.558 270.700 C 308.112 269.308,310.007 265.081,310.426 264.305 C 310.631 263.923,310.800 263.259,310.800 262.829 C 310.800 262.399,310.980 261.936,311.200 261.800 C 311.420 261.664,311.600 260.969,311.600 260.256 C 311.600 259.543,311.763 258.789,311.961 258.580 C 313.372 257.096,313.258 237.441,311.805 231.600 C 310.875 227.862,310.095 225.574,309.181 223.905 C 308.971 223.523,308.795 222.983,308.790 222.705 C 308.781 222.267,307.292 219.175,305.050 214.942 C 304.683 214.250,304.117 213.463,303.792 213.193 C 303.466 212.923,303.200 212.530,303.200 212.319 C 303.200 211.402,297.149 204.699,294.600 202.792 C 293.500 201.969,292.060 200.824,291.400 200.248 C 290.740 199.672,290.041 199.201,289.847 199.200 C 289.653 199.200,289.203 198.869,288.847 198.465 C 287.068 196.442,277.231 190.736,272.200 188.808 C 271.760 188.639,270.500 188.096,269.400 187.600 C 268.300 187.104,266.950 186.520,266.400 186.303 C 265.850 186.085,265.087 185.748,264.705 185.553 C 264.323 185.359,263.736 185.200,263.400 185.200 C 263.064 185.200,262.477 185.041,262.095 184.847 C 261.713 184.652,260.860 184.271,260.200 184.000 C 259.540 183.729,258.687 183.348,258.305 183.153 C 257.923 182.959,257.158 182.800,256.605 182.800 C 256.052 182.800,255.600 182.620,255.600 182.400 C 255.600 182.180,255.155 182.000,254.612 182.000 C 254.069 182.000,253.034 181.672,252.312 181.270 C 251.590 180.869,250.010 180.202,248.800 179.789 C 247.590 179.376,246.429 178.895,246.220 178.719 C 246.011 178.544,245.437 178.400,244.944 178.400 C 244.451 178.400,243.936 178.220,243.800 178.000 C 243.664 177.780,243.124 177.600,242.600 177.600 C 242.076 177.600,241.536 177.420,241.400 177.200 C 241.264 176.980,240.724 176.800,240.200 176.800 C 239.676 176.800,239.136 176.620,239.000 176.400 C 238.864 176.180,238.349 176.000,237.856 176.000 C 237.363 176.000,236.789 175.851,236.580 175.670 C 236.371 175.488,235.390 175.095,234.400 174.797 C 233.410 174.499,231.790 173.910,230.800 173.488 C 229.810 173.066,228.640 172.580,228.200 172.408 C 221.176 169.667,213.200 164.244,213.200 162.211 C 213.200 161.875,213.040 161.600,212.845 161.600 C 212.100 161.600,211.324 155.522,211.907 154.252 C 213.630 150.500,214.436 149.283,216.397 147.471 C 218.381 145.637,220.655 144.253,223.500 143.149 C 223.995 142.957,224.805 142.634,225.300 142.430 C 226.628 141.884,228.327 141.543,230.800 141.324 C 232.010 141.217,233.171 140.965,233.380 140.765 C 233.907 140.259,247.086 140.292,247.400 140.800 C 247.536 141.020,248.706 141.200,250.000 141.200 C 251.294 141.200,252.464 141.380,252.600 141.600 C 252.736 141.820,253.456 142.000,254.200 142.000 C 254.944 142.000,255.664 142.180,255.800 142.400 C 255.936 142.620,256.476 142.800,257.000 142.800 C 257.524 142.800,258.064 142.980,258.200 143.200 C 258.336 143.420,258.876 143.600,259.400 143.600 C 259.924 143.600,260.464 143.780,260.600 144.000 C 260.736 144.220,261.116 144.400,261.445 144.400 C 262.431 144.400,275.061 150.739,276.747 152.081 C 279.232 154.058,282.800 153.454,282.800 151.056 C 282.800 150.891,283.520 149.696,284.400 148.400 C 285.280 147.104,286.000 145.882,286.000 145.684 C 286.000 145.486,286.360 144.998,286.800 144.600 C 287.240 144.202,287.600 143.662,287.600 143.400 C 287.600 143.138,287.960 142.598,288.400 142.200 C 288.840 141.802,289.200 141.315,289.200 141.118 C 289.200 140.921,290.910 138.267,293.000 135.220 C 295.090 132.174,296.800 129.511,296.800 129.302 C 296.800 129.094,297.160 128.598,297.600 128.200 C 298.040 127.802,298.400 127.316,298.400 127.120 C 298.400 126.924,299.300 125.430,300.400 123.800 C 301.500 122.170,302.400 120.676,302.400 120.480 C 302.400 120.284,302.760 119.798,303.200 119.400 C 303.640 119.002,304.000 118.456,304.000 118.187 C 304.000 117.918,304.273 117.471,304.607 117.194 C 306.562 115.572,306.549 112.400,304.587 112.400 C 304.318 112.400,303.881 112.139,303.616 111.819 C 303.351 111.500,302.294 110.811,301.267 110.289 C 300.240 109.767,298.770 108.970,298.000 108.519 C 293.855 106.088,291.483 104.800,291.156 104.800 C 290.954 104.800,290.477 104.643,290.095 104.450 C 287.002 102.892,285.824 102.400,285.186 102.400 C 284.780 102.400,284.336 102.220,284.200 102.000 C 284.064 101.780,283.524 101.600,283.000 101.600 C 282.476 101.600,281.936 101.420,281.800 101.200 C 281.664 100.980,281.124 100.800,280.600 100.800 C 280.076 100.800,279.536 100.620,279.400 100.400 C 279.264 100.180,278.724 100.000,278.200 100.000 C 277.676 100.000,277.136 99.820,277.000 99.600 C 276.864 99.380,276.223 99.200,275.576 99.200 C 274.929 99.200,274.400 99.020,274.400 98.800 C 274.400 98.580,273.871 98.400,273.224 98.400 C 272.577 98.400,271.948 98.240,271.827 98.044 C 271.619 97.708,271.124 97.585,267.496 96.967 C 266.669 96.827,265.894 96.551,265.773 96.356 C 265.652 96.160,264.879 96.000,264.056 96.000 C 263.233 96.000,262.389 95.837,262.180 95.637 C 261.971 95.437,260.810 95.165,259.600 95.032 C 258.390 94.899,256.050 94.604,254.400 94.376 C 246.132 93.236,227.914 92.453,226.800 93.191 M355.600 232.188 C 351.132 233.216,341.994 237.544,339.600 239.767 C 338.830 240.482,337.713 241.432,337.118 241.877 C 334.052 244.172,327.600 254.038,327.600 256.432 C 327.600 256.828,327.440 257.252,327.244 257.373 C 327.049 257.494,326.774 258.269,326.633 259.096 C 326.493 259.923,326.181 261.590,325.940 262.800 C 324.953 267.752,325.478 274.476,327.409 281.600 C 327.854 283.241,330.328 288.083,331.599 289.800 C 332.250 290.680,332.946 291.760,333.146 292.200 C 333.990 294.060,341.496 300.800,342.723 300.800 C 342.932 300.800,343.323 301.066,343.593 301.392 C 344.176 302.093,346.298 303.200,347.061 303.200 C 347.358 303.200,347.600 303.380,347.600 303.600 C 347.600 303.820,348.039 304.000,348.576 304.000 C 349.113 304.000,349.664 304.180,349.800 304.400 C 349.936 304.620,350.476 304.800,351.000 304.800 C 351.524 304.800,352.064 304.980,352.200 305.200 C 352.336 305.420,353.146 305.600,354.000 305.600 C 354.854 305.600,355.664 305.780,355.800 306.000 C 355.949 306.241,358.730 306.400,362.800 306.400 C 366.870 306.400,369.651 306.241,369.800 306.000 C 369.936 305.780,370.622 305.597,371.324 305.594 C 372.601 305.588,375.343 304.790,375.859 304.274 C 376.010 304.123,376.429 304.000,376.790 304.000 C 382.936 304.000,395.578 290.639,398.362 281.200 C 398.654 280.210,399.097 278.860,399.346 278.200 C 399.955 276.590,399.963 261.272,399.355 259.960 C 399.111 259.432,398.693 258.280,398.426 257.400 C 395.113 246.473,386.984 238.480,373.843 233.227 C 369.893 231.649,360.316 231.103,355.600 232.188 " stroke="none" fill="#ffffff" fill-rule="evenodd"></path><path id="path1" d="M100.037 89.233 C 98.628 89.416,97.287 89.753,97.057 89.983 C 96.828 90.212,96.237 90.400,95.744 90.400 C 95.251 90.400,94.736 90.580,94.600 90.800 C 94.464 91.020,94.023 91.200,93.619 91.200 C 92.647 91.200,85.517 94.924,83.440 96.516 C 76.230 102.045,72.590 107.887,69.165 119.428 C 67.003 126.713,70.023 140.272,75.645 148.518 C 78.055 152.052,86.059 159.200,87.608 159.200 C 87.823 159.200,88.000 159.380,88.000 159.600 C 88.000 159.820,88.265 160.000,88.588 160.000 C 88.911 160.000,89.817 160.360,90.600 160.800 C 91.383 161.240,92.368 161.600,92.789 161.600 C 93.209 161.600,93.664 161.780,93.800 162.000 C 93.936 162.220,94.476 162.400,95.000 162.400 C 95.524 162.400,96.064 162.580,96.200 162.800 C 96.336 163.020,97.031 163.200,97.744 163.200 C 98.457 163.200,99.265 163.425,99.540 163.700 C 99.899 164.059,101.863 164.200,106.487 164.200 C 111.289 164.200,112.976 164.072,113.100 163.700 C 113.199 163.402,113.971 163.200,115.010 163.200 C 115.968 163.200,116.864 163.020,117.000 162.800 C 117.136 162.580,117.599 162.400,118.029 162.400 C 118.459 162.400,119.123 162.238,119.505 162.041 C 119.887 161.843,121.775 160.917,123.700 159.983 C 125.625 159.049,127.200 158.130,127.200 157.942 C 127.200 157.754,127.475 157.600,127.811 157.600 C 128.941 157.600,134.675 152.057,136.916 148.800 C 137.596 147.810,138.299 146.940,138.477 146.867 C 138.655 146.793,138.800 146.503,138.800 146.222 C 138.800 145.941,139.520 144.311,140.400 142.600 C 141.280 140.889,142.000 139.165,142.000 138.768 C 142.000 138.372,142.180 137.936,142.400 137.800 C 142.620 137.664,142.800 137.102,142.800 136.550 C 142.800 135.999,142.999 135.176,143.242 134.722 C 143.841 133.602,143.836 118.876,143.236 118.276 C 142.996 118.036,142.800 117.370,142.800 116.795 C 142.800 116.220,142.440 115.005,142.000 114.094 C 141.560 113.184,141.200 112.275,141.200 112.075 C 141.200 109.422,134.083 99.900,130.000 97.091 C 129.010 96.410,128.102 95.710,127.982 95.536 C 127.603 94.983,119.904 91.200,119.159 91.200 C 118.768 91.200,118.336 91.020,118.200 90.800 C 118.064 90.580,117.549 90.400,117.056 90.400 C 116.563 90.400,115.980 90.220,115.759 89.999 C 114.753 88.993,105.408 88.538,100.037 89.233 M0.000 197.603 L 0.000 302.406 27.500 302.303 L 55.000 302.200 55.101 198.045 C 55.196 99.207,55.166 93.862,54.501 93.357 C 53.934 92.927,48.648 92.823,26.900 92.813 L 0.000 92.800 0.000 197.603 M226.800 93.191 C 226.470 93.409,224.816 93.591,223.124 93.594 C 221.432 93.597,219.936 93.780,219.800 94.000 C 219.664 94.220,218.764 94.400,217.800 94.400 C 216.836 94.400,215.936 94.580,215.800 94.800 C 215.664 95.020,214.854 95.200,214.000 95.200 C 213.146 95.200,212.336 95.380,212.200 95.600 C 212.064 95.820,211.344 96.000,210.600 96.000 C 209.856 96.000,209.136 96.180,209.000 96.400 C 208.864 96.620,208.311 96.800,207.771 96.800 C 207.231 96.800,206.432 96.980,205.995 97.200 C 205.558 97.420,204.842 97.780,204.405 98.000 C 203.968 98.220,203.259 98.400,202.829 98.400 C 202.399 98.400,201.936 98.580,201.800 98.800 C 201.664 99.020,201.209 99.200,200.789 99.200 C 200.368 99.200,199.383 99.560,198.600 100.000 C 197.817 100.440,196.911 100.800,196.588 100.800 C 196.265 100.800,196.000 100.980,196.000 101.200 C 196.000 101.420,195.765 101.600,195.477 101.600 C 194.383 101.600,186.601 105.927,185.045 107.400 C 184.580 107.840,183.705 108.455,183.100 108.768 C 182.495 109.080,182.000 109.485,182.000 109.668 C 182.000 109.850,181.655 110.000,181.233 110.000 C 180.812 110.000,180.407 110.142,180.333 110.315 C 180.260 110.488,179.390 111.246,178.400 111.999 C 174.207 115.189,165.600 124.464,165.600 125.791 C 165.600 125.948,165.261 126.554,164.847 127.138 C 161.908 131.282,158.000 139.708,158.000 141.903 C 158.000 142.370,157.820 142.864,157.600 143.000 C 157.380 143.136,157.200 143.831,157.200 144.544 C 157.200 145.257,157.037 146.011,156.837 146.220 C 155.366 147.759,155.588 166.177,157.149 172.200 C 157.377 173.080,157.684 174.298,157.830 174.906 C 157.976 175.514,158.254 176.110,158.448 176.230 C 158.641 176.349,158.816 176.842,158.836 177.324 C 158.856 177.806,159.385 179.100,160.010 180.200 C 160.636 181.300,161.462 182.830,161.845 183.600 C 165.141 190.220,175.257 200.275,183.000 204.627 C 183.880 205.121,186.400 206.454,188.600 207.588 C 190.800 208.722,193.410 210.083,194.400 210.613 C 195.390 211.144,196.420 211.583,196.688 211.589 C 196.956 211.595,197.817 211.960,198.600 212.400 C 199.383 212.840,200.368 213.200,200.789 213.200 C 201.209 213.200,201.664 213.380,201.800 213.600 C 201.936 213.820,202.315 214.000,202.643 214.000 C 202.971 214.000,203.984 214.360,204.894 214.800 C 205.805 215.240,206.866 215.600,207.252 215.600 C 207.637 215.600,208.064 215.780,208.200 216.000 C 208.336 216.220,208.799 216.400,209.229 216.400 C 209.659 216.400,210.323 216.565,210.705 216.766 C 211.913 217.403,214.119 218.311,216.600 219.191 C 217.920 219.659,219.313 220.213,219.695 220.421 C 220.077 220.630,220.754 220.800,221.200 220.800 C 221.646 220.800,222.368 220.980,222.805 221.200 C 223.242 221.420,223.958 221.780,224.395 222.000 C 224.832 222.220,225.464 222.400,225.800 222.400 C 226.393 222.400,226.816 222.566,228.695 223.538 C 229.187 223.792,229.941 224.000,230.371 224.000 C 230.801 224.000,231.264 224.180,231.400 224.400 C 231.536 224.620,232.076 224.800,232.600 224.800 C 233.124 224.800,233.664 224.980,233.800 225.200 C 233.936 225.420,234.397 225.600,234.824 225.600 C 235.251 225.600,235.600 225.780,235.600 226.000 C 235.600 226.220,235.962 226.400,236.405 226.400 C 236.848 226.400,237.523 226.565,237.905 226.767 C 239.210 227.457,242.391 228.800,242.720 228.800 C 242.901 228.800,243.398 229.115,243.825 229.501 C 244.251 229.886,245.455 230.634,246.500 231.163 C 247.545 231.693,248.400 232.277,248.400 232.463 C 248.400 232.648,248.661 232.800,248.980 232.800 C 250.562 232.800,256.400 239.754,256.400 241.638 C 256.400 242.031,256.580 242.464,256.800 242.600 C 257.020 242.736,257.200 244.189,257.200 245.829 C 257.200 247.469,257.020 249.168,256.800 249.605 C 256.580 250.042,256.220 250.758,256.000 251.195 C 255.780 251.632,255.600 252.247,255.600 252.561 C 255.600 252.876,255.465 253.193,255.300 253.267 C 255.135 253.340,254.495 254.076,253.877 254.903 C 252.801 256.344,247.293 260.400,246.413 260.400 C 246.180 260.400,245.632 260.580,245.195 260.800 C 244.758 261.020,244.042 261.380,243.605 261.600 C 243.168 261.820,242.394 262.000,241.885 262.000 C 241.376 262.000,240.789 262.163,240.580 262.361 C 239.291 263.587,217.475 263.596,216.220 262.371 C 216.011 262.167,214.897 262.000,213.744 262.000 C 212.591 262.000,211.536 261.820,211.400 261.600 C 211.264 261.380,210.443 261.200,209.576 261.200 C 208.709 261.200,208.000 261.020,208.000 260.800 C 208.000 260.580,207.381 260.400,206.624 260.400 C 205.867 260.400,205.136 260.220,205.000 260.000 C 204.864 259.780,204.234 259.600,203.600 259.600 C 202.966 259.600,202.336 259.420,202.200 259.200 C 202.064 258.980,201.524 258.800,201.000 258.800 C 200.476 258.800,199.936 258.620,199.800 258.400 C 199.664 258.180,199.201 258.000,198.771 258.000 C 198.341 258.000,197.677 257.841,197.295 257.647 C 196.913 257.452,196.150 257.112,195.600 256.889 C 194.401 256.405,187.333 252.919,186.200 252.254 C 185.760 251.995,184.639 251.292,183.708 250.692 C 182.777 250.091,181.860 249.600,181.670 249.600 C 181.480 249.600,180.998 249.240,180.600 248.800 C 180.202 248.360,179.665 248.000,179.408 248.000 C 179.150 248.000,178.531 247.565,178.032 247.034 C 177.533 246.503,176.332 245.567,175.362 244.955 C 174.393 244.342,173.600 243.696,173.600 243.520 C 173.600 243.344,173.372 243.200,173.093 243.200 C 172.568 243.200,166.400 252.027,166.400 252.777 C 166.400 253.010,166.250 253.200,166.068 253.200 C 165.885 253.200,165.480 253.695,165.168 254.300 C 164.855 254.905,164.285 255.749,163.900 256.175 C 163.515 256.602,163.200 257.172,163.200 257.442 C 163.200 257.712,163.061 257.993,162.891 258.067 C 162.519 258.227,158.861 263.270,157.789 265.100 C 157.370 265.815,156.886 266.400,156.714 266.400 C 156.541 266.400,156.400 266.636,156.400 266.925 C 156.400 267.213,156.040 267.836,155.600 268.308 C 155.160 268.780,154.800 269.266,154.800 269.388 C 154.800 269.509,154.035 270.700,153.100 272.034 C 152.165 273.367,151.204 274.804,150.964 275.226 C 150.725 275.649,150.230 276.325,149.864 276.729 C 149.499 277.133,149.200 277.646,149.200 277.870 C 149.200 278.093,148.840 278.602,148.400 279.000 C 147.960 279.398,147.600 279.883,147.600 280.078 C 147.600 280.273,147.209 280.961,146.731 281.608 C 145.807 282.858,146.432 284.400,147.862 284.400 C 148.158 284.400,148.400 284.550,148.400 284.732 C 148.400 284.915,148.895 285.320,149.500 285.632 C 150.105 285.945,150.949 286.515,151.375 286.900 C 151.802 287.285,152.359 287.600,152.613 287.600 C 152.868 287.600,153.402 287.960,153.800 288.400 C 154.198 288.840,154.689 289.200,154.890 289.200 C 155.091 289.200,156.011 289.695,156.935 290.300 C 159.600 292.047,160.149 292.379,161.000 292.761 C 161.440 292.958,162.430 293.548,163.200 294.071 C 164.575 295.006,167.439 296.448,170.600 297.797 C 171.480 298.172,173.260 299.002,174.556 299.640 C 175.852 300.278,177.337 300.800,177.856 300.800 C 178.375 300.800,178.800 300.980,178.800 301.200 C 178.800 301.420,179.149 301.600,179.576 301.600 C 180.003 301.600,180.464 301.780,180.600 302.000 C 180.736 302.220,181.276 302.400,181.800 302.400 C 182.324 302.400,182.864 302.580,183.000 302.800 C 183.136 303.020,183.651 303.200,184.144 303.200 C 184.637 303.200,185.211 303.349,185.420 303.530 C 185.629 303.712,186.610 304.090,187.600 304.369 C 188.590 304.649,189.713 305.040,190.095 305.239 C 190.477 305.438,191.321 305.600,191.971 305.600 C 192.621 305.600,193.264 305.780,193.400 306.000 C 193.536 306.220,194.321 306.400,195.144 306.400 C 195.967 306.400,196.811 306.562,197.020 306.759 C 197.229 306.956,198.165 307.226,199.100 307.359 C 203.299 307.954,204.018 308.106,204.226 308.442 C 204.348 308.639,205.339 308.800,206.429 308.800 C 207.519 308.800,208.723 308.972,209.105 309.183 C 213.087 311.377,245.956 311.364,250.062 309.167 C 250.439 308.965,251.289 308.800,251.950 308.800 C 252.612 308.800,253.264 308.620,253.400 308.400 C 253.536 308.180,254.346 308.000,255.200 308.000 C 256.054 308.000,256.864 307.820,257.000 307.600 C 257.136 307.380,257.856 307.200,258.600 307.200 C 259.344 307.200,260.064 307.020,260.200 306.800 C 260.336 306.580,260.966 306.400,261.600 306.400 C 262.234 306.400,262.864 306.220,263.000 306.000 C 263.136 305.780,263.676 305.600,264.200 305.600 C 264.724 305.600,265.264 305.420,265.400 305.200 C 265.536 304.980,265.991 304.800,266.411 304.800 C 266.832 304.800,267.817 304.440,268.600 304.000 C 269.383 303.560,270.283 303.200,270.600 303.200 C 270.917 303.200,271.817 302.840,272.600 302.400 C 273.383 301.960,274.289 301.600,274.612 301.600 C 274.935 301.600,275.200 301.420,275.200 301.200 C 275.200 300.980,275.452 300.800,275.759 300.800 C 276.406 300.800,280.333 298.787,281.993 297.605 C 282.615 297.162,283.293 296.800,283.500 296.800 C 283.707 296.800,284.202 296.440,284.600 296.000 C 284.998 295.560,285.471 295.200,285.650 295.200 C 286.977 295.200,296.988 286.458,299.758 282.880 C 303.307 278.298,305.568 274.968,305.584 274.300 C 305.593 273.915,305.750 273.600,305.932 273.600 C 306.250 273.600,306.781 272.652,307.558 270.700 C 308.112 269.308,310.007 265.081,310.426 264.305 C 310.631 263.923,310.800 263.259,310.800 262.829 C 310.800 262.399,310.980 261.936,311.200 261.800 C 311.420 261.664,311.600 260.969,311.600 260.256 C 311.600 259.543,311.763 258.789,311.961 258.580 C 313.372 257.096,313.258 237.441,311.805 231.600 C 310.875 227.862,310.095 225.574,309.181 223.905 C 308.971 223.523,308.795 222.983,308.790 222.705 C 308.781 222.267,307.292 219.175,305.050 214.942 C 304.683 214.250,304.117 213.463,303.792 213.193 C 303.466 212.923,303.200 212.530,303.200 212.319 C 303.200 211.402,297.149 204.699,294.600 202.792 C 293.500 201.969,292.060 200.824,291.400 200.248 C 290.740 199.672,290.041 199.201,289.847 199.200 C 289.653 199.200,289.203 198.869,288.847 198.465 C 287.068 196.442,277.231 190.736,272.200 188.808 C 271.760 188.639,270.500 188.096,269.400 187.600 C 268.300 187.104,266.950 186.520,266.400 186.303 C 265.850 186.085,265.087 185.748,264.705 185.553 C 264.323 185.359,263.736 185.200,263.400 185.200 C 263.064 185.200,262.477 185.041,262.095 184.847 C 261.713 184.652,260.860 184.271,260.200 184.000 C 259.540 183.729,258.687 183.348,258.305 183.153 C 257.923 182.959,257.158 182.800,256.605 182.800 C 256.052 182.800,255.600 182.620,255.600 182.400 C 255.600 182.180,255.155 182.000,254.612 182.000 C 254.069 182.000,253.034 181.672,252.312 181.270 C 251.590 180.869,250.010 180.202,248.800 179.789 C 247.590 179.376,246.429 178.895,246.220 178.719 C 246.011 178.544,245.437 178.400,244.944 178.400 C 244.451 178.400,243.936 178.220,243.800 178.000 C 243.664 177.780,243.124 177.600,242.600 177.600 C 242.076 177.600,241.536 177.420,241.400 177.200 C 241.264 176.980,240.724 176.800,240.200 176.800 C 239.676 176.800,239.136 176.620,239.000 176.400 C 238.864 176.180,238.349 176.000,237.856 176.000 C 237.363 176.000,236.789 175.851,236.580 175.670 C 236.371 175.488,235.390 175.095,234.400 174.797 C 233.410 174.499,231.790 173.910,230.800 173.488 C 229.810 173.066,228.640 172.580,228.200 172.408 C 221.176 169.667,213.200 164.244,213.200 162.211 C 213.200 161.875,213.040 161.600,212.845 161.600 C 212.100 161.600,211.324 155.522,211.907 154.252 C 213.630 150.500,214.436 149.283,216.397 147.471 C 218.381 145.637,220.655 144.253,223.500 143.149 C 223.995 142.957,224.805 142.634,225.300 142.430 C 226.628 141.884,228.327 141.543,230.800 141.324 C 232.010 141.217,233.171 140.965,233.380 140.765 C 233.907 140.259,247.086 140.292,247.400 140.800 C 247.536 141.020,248.706 141.200,250.000 141.200 C 251.294 141.200,252.464 141.380,252.600 141.600 C 252.736 141.820,253.456 142.000,254.200 142.000 C 254.944 142.000,255.664 142.180,255.800 142.400 C 255.936 142.620,256.476 142.800,257.000 142.800 C 257.524 142.800,258.064 142.980,258.200 143.200 C 258.336 143.420,258.876 143.600,259.400 143.600 C 259.924 143.600,260.464 143.780,260.600 144.000 C 260.736 144.220,261.116 144.400,261.445 144.400 C 262.431 144.400,275.061 150.739,276.747 152.081 C 279.232 154.058,282.800 153.454,282.800 151.056 C 282.800 150.891,283.520 149.696,284.400 148.400 C 285.280 147.104,286.000 145.882,286.000 145.684 C 286.000 145.486,286.360 144.998,286.800 144.600 C 287.240 144.202,287.600 143.662,287.600 143.400 C 287.600 143.138,287.960 142.598,288.400 142.200 C 288.840 141.802,289.200 141.315,289.200 141.118 C 289.200 140.921,290.910 138.267,293.000 135.220 C 295.090 132.174,296.800 129.511,296.800 129.302 C 296.800 129.094,297.160 128.598,297.600 128.200 C 298.040 127.802,298.400 127.316,298.400 127.120 C 298.400 126.924,299.300 125.430,300.400 123.800 C 301.500 122.170,302.400 120.676,302.400 120.480 C 302.400 120.284,302.760 119.798,303.200 119.400 C 303.640 119.002,304.000 118.456,304.000 118.187 C 304.000 117.918,304.273 117.471,304.607 117.194 C 306.562 115.572,306.549 112.400,304.587 112.400 C 304.318 112.400,303.881 112.139,303.616 111.819 C 303.351 111.500,302.294 110.811,301.267 110.289 C 300.240 109.767,298.770 108.970,298.000 108.519 C 293.855 106.088,291.483 104.800,291.156 104.800 C 290.954 104.800,290.477 104.643,290.095 104.450 C 287.002 102.892,285.824 102.400,285.186 102.400 C 284.780 102.400,284.336 102.220,284.200 102.000 C 284.064 101.780,283.524 101.600,283.000 101.600 C 282.476 101.600,281.936 101.420,281.800 101.200 C 281.664 100.980,281.124 100.800,280.600 100.800 C 280.076 100.800,279.536 100.620,279.400 100.400 C 279.264 100.180,278.724 100.000,278.200 100.000 C 277.676 100.000,277.136 99.820,277.000 99.600 C 276.864 99.380,276.223 99.200,275.576 99.200 C 274.929 99.200,274.400 99.020,274.400 98.800 C 274.400 98.580,273.871 98.400,273.224 98.400 C 272.577 98.400,271.948 98.240,271.827 98.044 C 271.619 97.708,271.124 97.585,267.496 96.967 C 266.669 96.827,265.894 96.551,265.773 96.356 C 265.652 96.160,264.879 96.000,264.056 96.000 C 263.233 96.000,262.389 95.837,262.180 95.637 C 261.971 95.437,260.810 95.165,259.600 95.032 C 258.390 94.899,256.050 94.604,254.400 94.376 C 246.132 93.236,227.914 92.453,226.800 93.191 M355.600 232.188 C 351.132 233.216,341.994 237.544,339.600 239.767 C 338.830 240.482,337.713 241.432,337.118 241.877 C 334.052 244.172,327.600 254.038,327.600 256.432 C 327.600 256.828,327.440 257.252,327.244 257.373 C 327.049 257.494,326.774 258.269,326.633 259.096 C 326.493 259.923,326.181 261.590,325.940 262.800 C 324.953 267.752,325.478 274.476,327.409 281.600 C 327.854 283.241,330.328 288.083,331.599 289.800 C 332.250 290.680,332.946 291.760,333.146 292.200 C 333.990 294.060,341.496 300.800,342.723 300.800 C 342.932 300.800,343.323 301.066,343.593 301.392 C 344.176 302.093,346.298 303.200,347.061 303.200 C 347.358 303.200,347.600 303.380,347.600 303.600 C 347.600 303.820,348.039 304.000,348.576 304.000 C 349.113 304.000,349.664 304.180,349.800 304.400 C 349.936 304.620,350.476 304.800,351.000 304.800 C 351.524 304.800,352.064 304.980,352.200 305.200 C 352.336 305.420,353.146 305.600,354.000 305.600 C 354.854 305.600,355.664 305.780,355.800 306.000 C 355.949 306.241,358.730 306.400,362.800 306.400 C 366.870 306.400,369.651 306.241,369.800 306.000 C 369.936 305.780,370.622 305.597,371.324 305.594 C 372.601 305.588,375.343 304.790,375.859 304.274 C 376.010 304.123,376.429 304.000,376.790 304.000 C 382.936 304.000,395.578 290.639,398.362 281.200 C 398.654 280.210,399.097 278.860,399.346 278.200 C 399.955 276.590,399.963 261.272,399.355 259.960 C 399.111 259.432,398.693 258.280,398.426 257.400 C 395.113 246.473,386.984 238.480,373.843 233.227 C 369.893 231.649,360.316 231.103,355.600 232.188 " stroke="none" fill="#ffffff" fill-rule="evenodd"></path><path id="path2" d="M100.037 89.233 C 98.628 89.416,97.287 89.753,97.057 89.983 C 96.828 90.212,96.237 90.400,95.744 90.400 C 95.251 90.400,94.736 90.580,94.600 90.800 C 94.464 91.020,94.023 91.200,93.619 91.200 C 92.647 91.200,85.517 94.924,83.440 96.516 C 76.230 102.045,72.590 107.887,69.165 119.428 C 67.003 126.713,70.023 140.272,75.645 148.518 C 78.055 152.052,86.059 159.200,87.608 159.200 C 87.823 159.200,88.000 159.380,88.000 159.600 C 88.000 159.820,88.265 160.000,88.588 160.000 C 88.911 160.000,89.817 160.360,90.600 160.800 C 91.383 161.240,92.368 161.600,92.789 161.600 C 93.209 161.600,93.664 161.780,93.800 162.000 C 93.936 162.220,94.476 162.400,95.000 162.400 C 95.524 162.400,96.064 162.580,96.200 162.800 C 96.336 163.020,97.031 163.200,97.744 163.200 C 98.457 163.200,99.265 163.425,99.540 163.700 C 99.899 164.059,101.863 164.200,106.487 164.200 C 111.289 164.200,112.976 164.072,113.100 163.700 C 113.199 163.402,113.971 163.200,115.010 163.200 C 115.968 163.200,116.864 163.020,117.000 162.800 C 117.136 162.580,117.599 162.400,118.029 162.400 C 118.459 162.400,119.123 162.238,119.505 162.041 C 119.887 161.843,121.775 160.917,123.700 159.983 C 125.625 159.049,127.200 158.130,127.200 157.942 C 127.200 157.754,127.475 157.600,127.811 157.600 C 128.941 157.600,134.675 152.057,136.916 148.800 C 137.596 147.810,138.299 146.940,138.477 146.867 C 138.655 146.793,138.800 146.503,138.800 146.222 C 138.800 145.941,139.520 144.311,140.400 142.600 C 141.280 140.889,142.000 139.165,142.000 138.768 C 142.000 138.372,142.180 137.936,142.400 137.800 C 142.620 137.664,142.800 137.102,142.800 136.550 C 142.800 135.999,142.999 135.176,143.242 134.722 C 143.841 133.602,143.836 118.876,143.236 118.276 C 142.996 118.036,142.800 117.370,142.800 116.795 C 142.800 116.220,142.440 115.005,142.000 114.094 C 141.560 113.184,141.200 112.275,141.200 112.075 C 141.200 109.422,134.083 99.900,130.000 97.091 C 129.010 96.410,128.102 95.710,127.982 95.536 C 127.603 94.983,119.904 91.200,119.159 91.200 C 118.768 91.200,118.336 91.020,118.200 90.800 C 118.064 90.580,117.549 90.400,117.056 90.400 C 116.563 90.400,115.980 90.220,115.759 89.999 C 114.753 88.993,105.408 88.538,100.037 89.233 M0.000 197.603 L 0.000 302.406 27.500 302.303 L 55.000 302.200 55.101 198.045 C 55.196 99.207,55.166 93.862,54.501 93.357 C 53.934 92.927,48.648 92.823,26.900 92.813 L 0.000 92.800 0.000 197.603 M226.800 93.191 C 226.470 93.409,224.816 93.591,223.124 93.594 C 221.432 93.597,219.936 93.780,219.800 94.000 C 219.664 94.220,218.764 94.400,217.800 94.400 C 216.836 94.400,215.936 94.580,215.800 94.800 C 215.664 95.020,214.854 95.200,214.000 95.200 C 213.146 95.200,212.336 95.380,212.200 95.600 C 212.064 95.820,211.344 96.000,210.600 96.000 C 209.856 96.000,209.136 96.180,209.000 96.400 C 208.864 96.620,208.311 96.800,207.771 96.800 C 207.231 96.800,206.432 96.980,205.995 97.200 C 205.558 97.420,204.842 97.780,204.405 98.000 C 203.968 98.220,203.259 98.400,202.829 98.400 C 202.399 98.400,201.936 98.580,201.800 98.800 C 201.664 99.020,201.209 99.200,200.789 99.200 C 200.368 99.200,199.383 99.560,198.600 100.000 C 197.817 100.440,196.911 100.800,196.588 100.800 C 196.265 100.800,196.000 100.980,196.000 101.200 C 196.000 101.420,195.765 101.600,195.477 101.600 C 194.383 101.600,186.601 105.927,185.045 107.400 C 184.580 107.840,183.705 108.455,183.100 108.768 C 182.495 109.080,182.000 109.485,182.000 109.668 C 182.000 109.850,181.655 110.000,181.233 110.000 C 180.812 110.000,180.407 110.142,180.333 110.315 C 180.260 110.488,179.390 111.246,178.400 111.999 C 174.207 115.189,165.600 124.464,165.600 125.791 C 165.600 125.948,165.261 126.554,164.847 127.138 C 161.908 131.282,158.000 139.708,158.000 141.903 C 158.000 142.370,157.820 142.864,157.600 143.000 C 157.380 143.136,157.200 143.831,157.200 144.544 C 157.200 145.257,157.037 146.011,156.837 146.220 C 155.366 147.759,155.588 166.177,157.149 172.200 C 157.377 173.080,157.684 174.298,157.830 174.906 C 157.976 175.514,158.254 176.110,158.448 176.230 C 158.641 176.349,158.816 176.842,158.836 177.324 C 158.856 177.806,159.385 179.100,160.010 180.200 C 160.636 181.300,161.462 182.830,161.845 183.600 C 165.141 190.220,175.257 200.275,183.000 204.627 C 183.880 205.121,186.400 206.454,188.600 207.588 C 190.800 208.722,193.410 210.083,194.400 210.613 C 195.390 211.144,196.420 211.583,196.688 211.589 C 196.956 211.595,197.817 211.960,198.600 212.400 C 199.383 212.840,200.368 213.200,200.789 213.200 C 201.209 213.200,201.664 213.380,201.800 213.600 C 201.936 213.820,202.315 214.000,202.643 214.000 C 202.971 214.000,203.984 214.360,204.894 214.800 C 205.805 215.240,206.866 215.600,207.252 215.600 C 207.637 215.600,208.064 215.780,208.200 216.000 C 208.336 216.220,208.799 216.400,209.229 216.400 C 209.659 216.400,210.323 216.565,210.705 216.766 C 211.913 217.403,214.119 218.311,216.600 219.191 C 217.920 219.659,219.313 220.213,219.695 220.421 C 220.077 220.630,220.754 220.800,221.200 220.800 C 221.646 220.800,222.368 220.980,222.805 221.200 C 223.242 221.420,223.958 221.780,224.395 222.000 C 224.832 222.220,225.464 222.400,225.800 222.400 C 226.393 222.400,226.816 222.566,228.695 223.538 C 229.187 223.792,229.941 224.000,230.371 224.000 C 230.801 224.000,231.264 224.180,231.400 224.400 C 231.536 224.620,232.076 224.800,232.600 224.800 C 233.124 224.800,233.664 224.980,233.800 225.200 C 233.936 225.420,234.397 225.600,234.824 225.600 C 235.251 225.600,235.600 225.780,235.600 226.000 C 235.600 226.220,235.962 226.400,236.405 226.400 C 236.848 226.400,237.523 226.565,237.905 226.767 C 239.210 227.457,242.391 228.800,242.720 228.800 C 242.901 228.800,243.398 229.115,243.825 229.501 C 244.251 229.886,245.455 230.634,246.500 231.163 C 247.545 231.693,248.400 232.277,248.400 232.463 C 248.400 232.648,248.661 232.800,248.980 232.800 C 250.562 232.800,256.400 239.754,256.400 241.638 C 256.400 242.031,256.580 242.464,256.800 242.600 C 257.020 242.736,257.200 244.189,257.200 245.829 C 257.200 247.469,257.020 249.168,256.800 249.605 C 256.580 250.042,256.220 250.758,256.000 251.195 C 255.780 251.632,255.600 252.247,255.600 252.561 C 255.600 252.876,255.465 253.193,255.300 253.267 C 255.135 253.340,254.495 254.076,253.877 254.903 C 252.801 256.344,247.293 260.400,246.413 260.400 C 246.180 260.400,245.632 260.580,245.195 260.800 C 244.758 261.020,244.042 261.380,243.605 261.600 C 243.168 261.820,242.394 262.000,241.885 262.000 C 241.376 262.000,240.789 262.163,240.580 262.361 C 239.291 263.587,217.475 263.596,216.220 262.371 C 216.011 262.167,214.897 262.000,213.744 262.000 C 212.591 262.000,211.536 261.820,211.400 261.600 C 211.264 261.380,210.443 261.200,209.576 261.200 C 208.709 261.200,208.000 261.020,208.000 260.800 C 208.000 260.580,207.381 260.400,206.624 260.400 C 205.867 260.400,205.136 260.220,205.000 260.000 C 204.864 259.780,204.234 259.600,203.600 259.600 C 202.966 259.600,202.336 259.420,202.200 259.200 C 202.064 258.980,201.524 258.800,201.000 258.800 C 200.476 258.800,199.936 258.620,199.800 258.400 C 199.664 258.180,199.201 258.000,198.771 258.000 C 198.341 258.000,197.677 257.841,197.295 257.647 C 196.913 257.452,196.150 257.112,195.600 256.889 C 194.401 256.405,187.333 252.919,186.200 252.254 C 185.760 251.995,184.639 251.292,183.708 250.692 C 182.777 250.091,181.860 249.600,181.670 249.600 C 181.480 249.600,180.998 249.240,180.600 248.800 C 180.202 248.360,179.665 248.000,179.408 248.000 C 179.150 248.000,178.531 247.565,178.032 247.034 C 177.533 246.503,176.332 245.567,175.362 244.955 C 174.393 244.342,173.600 243.696,173.600 243.520 C 173.600 243.344,173.372 243.200,173.093 243.200 C 172.568 243.200,166.400 252.027,166.400 252.777 C 166.400 253.010,166.250 253.200,166.068 253.200 C 165.885 253.200,165.480 253.695,165.168 254.300 C 164.855 254.905,164.285 255.749,163.900 256.175 C 163.515 256.602,163.200 257.172,163.200 257.442 C 163.200 257.712,163.061 257.993,162.891 258.067 C 162.519 258.227,158.861 263.270,157.789 265.100 C 157.370 265.815,156.886 266.400,156.714 266.400 C 156.541 266.400,156.400 266.636,156.400 266.925 C 156.400 267.213,156.040 267.836,155.600 268.308 C 155.160 268.780,154.800 269.266,154.800 269.388 C 154.800 269.509,154.035 270.700,153.100 272.034 C 152.165 273.367,151.204 274.804,150.964 275.226 C 150.725 275.649,150.230 276.325,149.864 276.729 C 149.499 277.133,149.200 277.646,149.200 277.870 C 149.200 278.093,148.840 278.602,148.400 279.000 C 147.960 279.398,147.600 279.883,147.600 280.078 C 147.600 280.273,147.209 280.961,146.731 281.608 C 145.807 282.858,146.432 284.400,147.862 284.400 C 148.158 284.400,148.400 284.550,148.400 284.732 C 148.400 284.915,148.895 285.320,149.500 285.632 C 150.105 285.945,150.949 286.515,151.375 286.900 C 151.802 287.285,152.359 287.600,152.613 287.600 C 152.868 287.600,153.402 287.960,153.800 288.400 C 154.198 288.840,154.689 289.200,154.890 289.200 C 155.091 289.200,156.011 289.695,156.935 290.300 C 159.600 292.047,160.149 292.379,161.000 292.761 C 161.440 292.958,162.430 293.548,163.200 294.071 C 164.575 295.006,167.439 296.448,170.600 297.797 C 171.480 298.172,173.260 299.002,174.556 299.640 C 175.852 300.278,177.337 300.800,177.856 300.800 C 178.375 300.800,178.800 300.980,178.800 301.200 C 178.800 301.420,179.149 301.600,179.576 301.600 C 180.003 301.600,180.464 301.780,180.600 302.000 C 180.736 302.220,181.276 302.400,181.800 302.400 C 182.324 302.400,182.864 302.580,183.000 302.800 C 183.136 303.020,183.651 303.200,184.144 303.200 C 184.637 303.200,185.211 303.349,185.420 303.530 C 185.629 303.712,186.610 304.090,187.600 304.369 C 188.590 304.649,189.713 305.040,190.095 305.239 C 190.477 305.438,191.321 305.600,191.971 305.600 C 192.621 305.600,193.264 305.780,193.400 306.000 C 193.536 306.220,194.321 306.400,195.144 306.400 C 195.967 306.400,196.811 306.562,197.020 306.759 C 197.229 306.956,198.165 307.226,199.100 307.359 C 203.299 307.954,204.018 308.106,204.226 308.442 C 204.348 308.639,205.339 308.800,206.429 308.800 C 207.519 308.800,208.723 308.972,209.105 309.183 C 213.087 311.377,245.956 311.364,250.062 309.167 C 250.439 308.965,251.289 308.800,251.950 308.800 C 252.612 308.800,253.264 308.620,253.400 308.400 C 253.536 308.180,254.346 308.000,255.200 308.000 C 256.054 308.000,256.864 307.820,257.000 307.600 C 257.136 307.380,257.856 307.200,258.600 307.200 C 259.344 307.200,260.064 307.020,260.200 306.800 C 260.336 306.580,260.966 306.400,261.600 306.400 C 262.234 306.400,262.864 306.220,263.000 306.000 C 263.136 305.780,263.676 305.600,264.200 305.600 C 264.724 305.600,265.264 305.420,265.400 305.200 C 265.536 304.980,265.991 304.800,266.411 304.800 C 266.832 304.800,267.817 304.440,268.600 304.000 C 269.383 303.560,270.283 303.200,270.600 303.200 C 270.917 303.200,271.817 302.840,272.600 302.400 C 273.383 301.960,274.289 301.600,274.612 301.600 C 274.935 301.600,275.200 301.420,275.200 301.200 C 275.200 300.980,275.452 300.800,275.759 300.800 C 276.406 300.800,280.333 298.787,281.993 297.605 C 282.615 297.162,283.293 296.800,283.500 296.800 C 283.707 296.800,284.202 296.440,284.600 296.000 C 284.998 295.560,285.471 295.200,285.650 295.200 C 286.977 295.200,296.988 286.458,299.758 282.880 C 303.307 278.298,305.568 274.968,305.584 274.300 C 305.593 273.915,305.750 273.600,305.932 273.600 C 306.250 273.600,306.781 272.652,307.558 270.700 C 308.112 269.308,310.007 265.081,310.426 264.305 C 310.631 263.923,310.800 263.259,310.800 262.829 C 310.800 262.399,310.980 261.936,311.200 261.800 C 311.420 261.664,311.600 260.969,311.600 260.256 C 311.600 259.543,311.763 258.789,311.961 258.580 C 313.372 257.096,313.258 237.441,311.805 231.600 C 310.875 227.862,310.095 225.574,309.181 223.905 C 308.971 223.523,308.795 222.983,308.790 222.705 C 308.781 222.267,307.292 219.175,305.050 214.942 C 304.683 214.250,304.117 213.463,303.792 213.193 C 303.466 212.923,303.200 212.530,303.200 212.319 C 303.200 211.402,297.149 204.699,294.600 202.792 C 293.500 201.969,292.060 200.824,291.400 200.248 C 290.740 199.672,290.041 199.201,289.847 199.200 C 289.653 199.200,289.203 198.869,288.847 198.465 C 287.068 196.442,277.231 190.736,272.200 188.808 C 271.760 188.639,270.500 188.096,269.400 187.600 C 268.300 187.104,266.950 186.520,266.400 186.303 C 265.850 186.085,265.087 185.748,264.705 185.553 C 264.323 185.359,263.736 185.200,263.400 185.200 C 263.064 185.200,262.477 185.041,262.095 184.847 C 261.713 184.652,260.860 184.271,260.200 184.000 C 259.540 183.729,258.687 183.348,258.305 183.153 C 257.923 182.959,257.158 182.800,256.605 182.800 C 256.052 182.800,255.600 182.620,255.600 182.400 C 255.600 182.180,255.155 182.000,254.612 182.000 C 254.069 182.000,253.034 181.672,252.312 181.270 C 251.590 180.869,250.010 180.202,248.800 179.789 C 247.590 179.376,246.429 178.895,246.220 178.719 C 246.011 178.544,245.437 178.400,244.944 178.400 C 244.451 178.400,243.936 178.220,243.800 178.000 C 243.664 177.780,243.124 177.600,242.600 177.600 C 242.076 177.600,241.536 177.420,241.400 177.200 C 241.264 176.980,240.724 176.800,240.200 176.800 C 239.676 176.800,239.136 176.620,239.000 176.400 C 238.864 176.180,238.349 176.000,237.856 176.000 C 237.363 176.000,236.789 175.851,236.580 175.670 C 236.371 175.488,235.390 175.095,234.400 174.797 C 233.410 174.499,231.790 173.910,230.800 173.488 C 229.810 173.066,228.640 172.580,228.200 172.408 C 221.176 169.667,213.200 164.244,213.200 162.211 C 213.200 161.875,213.040 161.600,212.845 161.600 C 212.100 161.600,211.324 155.522,211.907 154.252 C 213.630 150.500,214.436 149.283,216.397 147.471 C 218.381 145.637,220.655 144.253,223.500 143.149 C 223.995 142.957,224.805 142.634,225.300 142.430 C 226.628 141.884,228.327 141.543,230.800 141.324 C 232.010 141.217,233.171 140.965,233.380 140.765 C 233.907 140.259,247.086 140.292,247.400 140.800 C 247.536 141.020,248.706 141.200,250.000 141.200 C 251.294 141.200,252.464 141.380,252.600 141.600 C 252.736 141.820,253.456 142.000,254.200 142.000 C 254.944 142.000,255.664 142.180,255.800 142.400 C 255.936 142.620,256.476 142.800,257.000 142.800 C 257.524 142.800,258.064 142.980,258.200 143.200 C 258.336 143.420,258.876 143.600,259.400 143.600 C 259.924 143.600,260.464 143.780,260.600 144.000 C 260.736 144.220,261.116 144.400,261.445 144.400 C 262.431 144.400,275.061 150.739,276.747 152.081 C 279.232 154.058,282.800 153.454,282.800 151.056 C 282.800 150.891,283.520 149.696,284.400 148.400 C 285.280 147.104,286.000 145.882,286.000 145.684 C 286.000 145.486,286.360 144.998,286.800 144.600 C 287.240 144.202,287.600 143.662,287.600 143.400 C 287.600 143.138,287.960 142.598,288.400 142.200 C 288.840 141.802,289.200 141.315,289.200 141.118 C 289.200 140.921,290.910 138.267,293.000 135.220 C 295.090 132.174,296.800 129.511,296.800 129.302 C 296.800 129.094,297.160 128.598,297.600 128.200 C 298.040 127.802,298.400 127.316,298.400 127.120 C 298.400 126.924,299.300 125.430,300.400 123.800 C 301.500 122.170,302.400 120.676,302.400 120.480 C 302.400 120.284,302.760 119.798,303.200 119.400 C 303.640 119.002,304.000 118.456,304.000 118.187 C 304.000 117.918,304.273 117.471,304.607 117.194 C 306.562 115.572,306.549 112.400,304.587 112.400 C 304.318 112.400,303.881 112.139,303.616 111.819 C 303.351 111.500,302.294 110.811,301.267 110.289 C 300.240 109.767,298.770 108.970,298.000 108.519 C 293.855 106.088,291.483 104.800,291.156 104.800 C 290.954 104.800,290.477 104.643,290.095 104.450 C 287.002 102.892,285.824 102.400,285.186 102.400 C 284.780 102.400,284.336 102.220,284.200 102.000 C 284.064 101.780,283.524 101.600,283.000 101.600 C 282.476 101.600,281.936 101.420,281.800 101.200 C 281.664 100.980,281.124 100.800,280.600 100.800 C 280.076 100.800,279.536 100.620,279.400 100.400 C 279.264 100.180,278.724 100.000,278.200 100.000 C 277.676 100.000,277.136 99.820,277.000 99.600 C 276.864 99.380,276.223 99.200,275.576 99.200 C 274.929 99.200,274.400 99.020,274.400 98.800 C 274.400 98.580,273.871 98.400,273.224 98.400 C 272.577 98.400,271.948 98.240,271.827 98.044 C 271.619 97.708,271.124 97.585,267.496 96.967 C 266.669 96.827,265.894 96.551,265.773 96.356 C 265.652 96.160,264.879 96.000,264.056 96.000 C 263.233 96.000,262.389 95.837,262.180 95.637 C 261.971 95.437,260.810 95.165,259.600 95.032 C 258.390 94.899,256.050 94.604,254.400 94.376 C 246.132 93.236,227.914 92.453,226.800 93.191 M355.600 232.188 C 351.132 233.216,341.994 237.544,339.600 239.767 C 338.830 240.482,337.713 241.432,337.118 241.877 C 334.052 244.172,327.600 254.038,327.600 256.432 C 327.600 256.828,327.440 257.252,327.244 257.373 C 327.049 257.494,326.774 258.269,326.633 259.096 C 326.493 259.923,326.181 261.590,325.940 262.800 C 324.953 267.752,325.478 274.476,327.409 281.600 C 327.854 283.241,330.328 288.083,331.599 289.800 C 332.250 290.680,332.946 291.760,333.146 292.200 C 333.990 294.060,341.496 300.800,342.723 300.800 C 342.932 300.800,343.323 301.066,343.593 301.392 C 344.176 302.093,346.298 303.200,347.061 303.200 C 347.358 303.200,347.600 303.380,347.600 303.600 C 347.600 303.820,348.039 304.000,348.576 304.000 C 349.113 304.000,349.664 304.180,349.800 304.400 C 349.936 304.620,350.476 304.800,351.000 304.800 C 351.524 304.800,352.064 304.980,352.200 305.200 C 352.336 305.420,353.146 305.600,354.000 305.600 C 354.854 305.600,355.664 305.780,355.800 306.000 C 355.949 306.241,358.730 306.400,362.800 306.400 C 366.870 306.400,369.651 306.241,369.800 306.000 C 369.936 305.780,370.622 305.597,371.324 305.594 C 372.601 305.588,375.343 304.790,375.859 304.274 C 376.010 304.123,376.429 304.000,376.790 304.000 C 382.936 304.000,395.578 290.639,398.362 281.200 C 398.654 280.210,399.097 278.860,399.346 278.200 C 399.955 276.590,399.963 261.272,399.355 259.960 C 399.111 259.432,398.693 258.280,398.426 257.400 C 395.113 246.473,386.984 238.480,373.843 233.227 C 369.893 231.649,360.316 231.103,355.600 232.188 " stroke="none" fill="#ffffff" fill-rule="evenodd"></path><path id="path3" d="M100.037 89.233 C 98.628 89.416,97.287 89.753,97.057 89.983 C 96.828 90.212,96.237 90.400,95.744 90.400 C 95.251 90.400,94.736 90.580,94.600 90.800 C 94.464 91.020,94.023 91.200,93.619 91.200 C 92.647 91.200,85.517 94.924,83.440 96.516 C 76.230 102.045,72.590 107.887,69.165 119.428 C 67.003 126.713,70.023 140.272,75.645 148.518 C 78.055 152.052,86.059 159.200,87.608 159.200 C 87.823 159.200,88.000 159.380,88.000 159.600 C 88.000 159.820,88.265 160.000,88.588 160.000 C 88.911 160.000,89.817 160.360,90.600 160.800 C 91.383 161.240,92.368 161.600,92.789 161.600 C 93.209 161.600,93.664 161.780,93.800 162.000 C 93.936 162.220,94.476 162.400,95.000 162.400 C 95.524 162.400,96.064 162.580,96.200 162.800 C 96.336 163.020,97.031 163.200,97.744 163.200 C 98.457 163.200,99.265 163.425,99.540 163.700 C 99.899 164.059,101.863 164.200,106.487 164.200 C 111.289 164.200,112.976 164.072,113.100 163.700 C 113.199 163.402,113.971 163.200,115.010 163.200 C 115.968 163.200,116.864 163.020,117.000 162.800 C 117.136 162.580,117.599 162.400,118.029 162.400 C 118.459 162.400,119.123 162.238,119.505 162.041 C 119.887 161.843,121.775 160.917,123.700 159.983 C 125.625 159.049,127.200 158.130,127.200 157.942 C 127.200 157.754,127.475 157.600,127.811 157.600 C 128.941 157.600,134.675 152.057,136.916 148.800 C 137.596 147.810,138.299 146.940,138.477 146.867 C 138.655 146.793,138.800 146.503,138.800 146.222 C 138.800 145.941,139.520 144.311,140.400 142.600 C 141.280 140.889,142.000 139.165,142.000 138.768 C 142.000 138.372,142.180 137.936,142.400 137.800 C 142.620 137.664,142.800 137.102,142.800 136.550 C 142.800 135.999,142.999 135.176,143.242 134.722 C 143.841 133.602,143.836 118.876,143.236 118.276 C 142.996 118.036,142.800 117.370,142.800 116.795 C 142.800 116.220,142.440 115.005,142.000 114.094 C 141.560 113.184,141.200 112.275,141.200 112.075 C 141.200 109.422,134.083 99.900,130.000 97.091 C 129.010 96.410,128.102 95.710,127.982 95.536 C 127.603 94.983,119.904 91.200,119.159 91.200 C 118.768 91.200,118.336 91.020,118.200 90.800 C 118.064 90.580,117.549 90.400,117.056 90.400 C 116.563 90.400,115.980 90.220,115.759 89.999 C 114.753 88.993,105.408 88.538,100.037 89.233 M0.000 197.603 L 0.000 302.406 27.500 302.303 L 55.000 302.200 55.101 198.045 C 55.196 99.207,55.166 93.862,54.501 93.357 C 53.934 92.927,48.648 92.823,26.900 92.813 L 0.000 92.800 0.000 197.603 M226.800 93.191 C 226.470 93.409,224.816 93.591,223.124 93.594 C 221.432 93.597,219.936 93.780,219.800 94.000 C 219.664 94.220,218.764 94.400,217.800 94.400 C 216.836 94.400,215.936 94.580,215.800 94.800 C 215.664 95.020,214.854 95.200,214.000 95.200 C 213.146 95.200,212.336 95.380,212.200 95.600 C 212.064 95.820,211.344 96.000,210.600 96.000 C 209.856 96.000,209.136 96.180,209.000 96.400 C 208.864 96.620,208.311 96.800,207.771 96.800 C 207.231 96.800,206.432 96.980,205.995 97.200 C 205.558 97.420,204.842 97.780,204.405 98.000 C 203.968 98.220,203.259 98.400,202.829 98.400 C 202.399 98.400,201.936 98.580,201.800 98.800 C 201.664 99.020,201.209 99.200,200.789 99.200 C 200.368 99.200,199.383 99.560,198.600 100.000 C 197.817 100.440,196.911 100.800,196.588 100.800 C 196.265 100.800,196.000 100.980,196.000 101.200 C 196.000 101.420,195.765 101.600,195.477 101.600 C 194.383 101.600,186.601 105.927,185.045 107.400 C 184.580 107.840,183.705 108.455,183.100 108.768 C 182.495 109.080,182.000 109.485,182.000 109.668 C 182.000 109.850,181.655 110.000,181.233 110.000 C 180.812 110.000,180.407 110.142,180.333 110.315 C 180.260 110.488,179.390 111.246,178.400 111.999 C 174.207 115.189,165.600 124.464,165.600 125.791 C 165.600 125.948,165.261 126.554,164.847 127.138 C 161.908 131.282,158.000 139.708,158.000 141.903 C 158.000 142.370,157.820 142.864,157.600 143.000 C 157.380 143.136,157.200 143.831,157.200 144.544 C 157.200 145.257,157.037 146.011,156.837 146.220 C 155.366 147.759,155.588 166.177,157.149 172.200 C 157.377 173.080,157.684 174.298,157.830 174.906 C 157.976 175.514,158.254 176.110,158.448 176.230 C 158.641 176.349,158.816 176.842,158.836 177.324 C 158.856 177.806,159.385 179.100,160.010 180.200 C 160.636 181.300,161.462 182.830,161.845 183.600 C 165.141 190.220,175.257 200.275,183.000 204.627 C 183.880 205.121,186.400 206.454,188.600 207.588 C 190.800 208.722,193.410 210.083,194.400 210.613 C 195.390 211.144,196.420 211.583,196.688 211.589 C 196.956 211.595,197.817 211.960,198.600 212.400 C 199.383 212.840,200.368 213.200,200.789 213.200 C 201.209 213.200,201.664 213.380,201.800 213.600 C 201.936 213.820,202.315 214.000,202.643 214.000 C 202.971 214.000,203.984 214.360,204.894 214.800 C 205.805 215.240,206.866 215.600,207.252 215.600 C 207.637 215.600,208.064 215.780,208.200 216.000 C 208.336 216.220,208.799 216.400,209.229 216.400 C 209.659 216.400,210.323 216.565,210.705 216.766 C 211.913 217.403,214.119 218.311,216.600 219.191 C 217.920 219.659,219.313 220.213,219.695 220.421 C 220.077 220.630,220.754 220.800,221.200 220.800 C 221.646 220.800,222.368 220.980,222.805 221.200 C 223.242 221.420,223.958 221.780,224.395 222.000 C 224.832 222.220,225.464 222.400,225.800 222.400 C 226.393 222.400,226.816 222.566,228.695 223.538 C 229.187 223.792,229.941 224.000,230.371 224.000 C 230.801 224.000,231.264 224.180,231.400 224.400 C 231.536 224.620,232.076 224.800,232.600 224.800 C 233.124 224.800,233.664 224.980,233.800 225.200 C 233.936 225.420,234.397 225.600,234.824 225.600 C 235.251 225.600,235.600 225.780,235.600 226.000 C 235.600 226.220,235.962 226.400,236.405 226.400 C 236.848 226.400,237.523 226.565,237.905 226.767 C 239.210 227.457,242.391 228.800,242.720 228.800 C 242.901 228.800,243.398 229.115,243.825 229.501 C 244.251 229.886,245.455 230.634,246.500 231.163 C 247.545 231.693,248.400 232.277,248.400 232.463 C 248.400 232.648,248.661 232.800,248.980 232.800 C 250.562 232.800,256.400 239.754,256.400 241.638 C 256.400 242.031,256.580 242.464,256.800 242.600 C 257.020 242.736,257.200 244.189,257.200 245.829 C 257.200 247.469,257.020 249.168,256.800 249.605 C 256.580 250.042,256.220 250.758,256.000 251.195 C 255.780 251.632,255.600 252.247,255.600 252.561 C 255.600 252.876,255.465 253.193,255.300 253.267 C 255.135 253.340,254.495 254.076,253.877 254.903 C 252.801 256.344,247.293 260.400,246.413 260.400 C 246.180 260.400,245.632 260.580,245.195 260.800 C 244.758 261.020,244.042 261.380,243.605 261.600 C 243.168 261.820,242.394 262.000,241.885 262.000 C 241.376 262.000,240.789 262.163,240.580 262.361 C 239.291 263.587,217.475 263.596,216.220 262.371 C 216.011 262.167,214.897 262.000,213.744 262.000 C 212.591 262.000,211.536 261.820,211.400 261.600 C 211.264 261.380,210.443 261.200,209.576 261.200 C 208.709 261.200,208.000 261.020,208.000 260.800 C 208.000 260.580,207.381 260.400,206.624 260.400 C 205.867 260.400,205.136 260.220,205.000 260.000 C 204.864 259.780,204.234 259.600,203.600 259.600 C 202.966 259.600,202.336 259.420,202.200 259.200 C 202.064 258.980,201.524 258.800,201.000 258.800 C 200.476 258.800,199.936 258.620,199.800 258.400 C 199.664 258.180,199.201 258.000,198.771 258.000 C 198.341 258.000,197.677 257.841,197.295 257.647 C 196.913 257.452,196.150 257.112,195.600 256.889 C 194.401 256.405,187.333 252.919,186.200 252.254 C 185.760 251.995,184.639 251.292,183.708 250.692 C 182.777 250.091,181.860 249.600,181.670 249.600 C 181.480 249.600,180.998 249.240,180.600 248.800 C 180.202 248.360,179.665 248.000,179.408 248.000 C 179.150 248.000,178.531 247.565,178.032 247.034 C 177.533 246.503,176.332 245.567,175.362 244.955 C 174.393 244.342,173.600 243.696,173.600 243.520 C 173.600 243.344,173.372 243.200,173.093 243.200 C 172.568 243.200,166.400 252.027,166.400 252.777 C 166.400 253.010,166.250 253.200,166.068 253.200 C 165.885 253.200,165.480 253.695,165.168 254.300 C 164.855 254.905,164.285 255.749,163.900 256.175 C 163.515 256.602,163.200 257.172,163.200 257.442 C 163.200 257.712,163.061 257.993,162.891 258.067 C 162.519 258.227,158.861 263.270,157.789 265.100 C 157.370 265.815,156.886 266.400,156.714 266.400 C 156.541 266.400,156.400 266.636,156.400 266.925 C 156.400 267.213,156.040 267.836,155.600 268.308 C 155.160 268.780,154.800 269.266,154.800 269.388 C 154.800 269.509,154.035 270.700,153.100 272.034 C 152.165 273.367,151.204 274.804,150.964 275.226 C 150.725 275.649,150.230 276.325,149.864 276.729 C 149.499 277.133,149.200 277.646,149.200 277.870 C 149.200 278.093,148.840 278.602,148.400 279.000 C 147.960 279.398,147.600 279.883,147.600 280.078 C 147.600 280.273,147.209 280.961,146.731 281.608 C 145.807 282.858,146.432 284.400,147.862 284.400 C 148.158 284.400,148.400 284.550,148.400 284.732 C 148.400 284.915,148.895 285.320,149.500 285.632 C 150.105 285.945,150.949 286.515,151.375 286.900 C 151.802 287.285,152.359 287.600,152.613 287.600 C 152.868 287.600,153.402 287.960,153.800 288.400 C 154.198 288.840,154.689 289.200,154.890 289.200 C 155.091 289.200,156.011 289.695,156.935 290.300 C 159.600 292.047,160.149 292.379,161.000 292.761 C 161.440 292.958,162.430 293.548,163.200 294.071 C 164.575 295.006,167.439 296.448,170.600 297.797 C 171.480 298.172,173.260 299.002,174.556 299.640 C 175.852 300.278,177.337 300.800,177.856 300.800 C 178.375 300.800,178.800 300.980,178.800 301.200 C 178.800 301.420,179.149 301.600,179.576 301.600 C 180.003 301.600,180.464 301.780,180.600 302.000 C 180.736 302.220,181.276 302.400,181.800 302.400 C 182.324 302.400,182.864 302.580,183.000 302.800 C 183.136 303.020,183.651 303.200,184.144 303.200 C 184.637 303.200,185.211 303.349,185.420 303.530 C 185.629 303.712,186.610 304.090,187.600 304.369 C 188.590 304.649,189.713 305.040,190.095 305.239 C 190.477 305.438,191.321 305.600,191.971 305.600 C 192.621 305.600,193.264 305.780,193.400 306.000 C 193.536 306.220,194.321 306.400,195.144 306.400 C 195.967 306.400,196.811 306.562,197.020 306.759 C 197.229 306.956,198.165 307.226,199.100 307.359 C 203.299 307.954,204.018 308.106,204.226 308.442 C 204.348 308.639,205.339 308.800,206.429 308.800 C 207.519 308.800,208.723 308.972,209.105 309.183 C 213.087 311.377,245.956 311.364,250.062 309.167 C 250.439 308.965,251.289 308.800,251.950 308.800 C 252.612 308.800,253.264 308.620,253.400 308.400 C 253.536 308.180,254.346 308.000,255.200 308.000 C 256.054 308.000,256.864 307.820,257.000 307.600 C 257.136 307.380,257.856 307.200,258.600 307.200 C 259.344 307.200,260.064 307.020,260.200 306.800 C 260.336 306.580,260.966 306.400,261.600 306.400 C 262.234 306.400,262.864 306.220,263.000 306.000 C 263.136 305.780,263.676 305.600,264.200 305.600 C 264.724 305.600,265.264 305.420,265.400 305.200 C 265.536 304.980,265.991 304.800,266.411 304.800 C 266.832 304.800,267.817 304.440,268.600 304.000 C 269.383 303.560,270.283 303.200,270.600 303.200 C 270.917 303.200,271.817 302.840,272.600 302.400 C 273.383 301.960,274.289 301.600,274.612 301.600 C 274.935 301.600,275.200 301.420,275.200 301.200 C 275.200 300.980,275.452 300.800,275.759 300.800 C 276.406 300.800,280.333 298.787,281.993 297.605 C 282.615 297.162,283.293 296.800,283.500 296.800 C 283.707 296.800,284.202 296.440,284.600 296.000 C 284.998 295.560,285.471 295.200,285.650 295.200 C 286.977 295.200,296.988 286.458,299.758 282.880 C 303.307 278.298,305.568 274.968,305.584 274.300 C 305.593 273.915,305.750 273.600,305.932 273.600 C 306.250 273.600,306.781 272.652,307.558 270.700 C 308.112 269.308,310.007 265.081,310.426 264.305 C 310.631 263.923,310.800 263.259,310.800 262.829 C 310.800 262.399,310.980 261.936,311.200 261.800 C 311.420 261.664,311.600 260.969,311.600 260.256 C 311.600 259.543,311.763 258.789,311.961 258.580 C 313.372 257.096,313.258 237.441,311.805 231.600 C 310.875 227.862,310.095 225.574,309.181 223.905 C 308.971 223.523,308.795 222.983,308.790 222.705 C 308.781 222.267,307.292 219.175,305.050 214.942 C 304.683 214.250,304.117 213.463,303.792 213.193 C 303.466 212.923,303.200 212.530,303.200 212.319 C 303.200 211.402,297.149 204.699,294.600 202.792 C 293.500 201.969,292.060 200.824,291.400 200.248 C 290.740 199.672,290.041 199.201,289.847 199.200 C 289.653 199.200,289.203 198.869,288.847 198.465 C 287.068 196.442,277.231 190.736,272.200 188.808 C 271.760 188.639,270.500 188.096,269.400 187.600 C 268.300 187.104,266.950 186.520,266.400 186.303 C 265.850 186.085,265.087 185.748,264.705 185.553 C 264.323 185.359,263.736 185.200,263.400 185.200 C 263.064 185.200,262.477 185.041,262.095 184.847 C 261.713 184.652,260.860 184.271,260.200 184.000 C 259.540 183.729,258.687 183.348,258.305 183.153 C 257.923 182.959,257.158 182.800,256.605 182.800 C 256.052 182.800,255.600 182.620,255.600 182.400 C 255.600 182.180,255.155 182.000,254.612 182.000 C 254.069 182.000,253.034 181.672,252.312 181.270 C 251.590 180.869,250.010 180.202,248.800 179.789 C 247.590 179.376,246.429 178.895,246.220 178.719 C 246.011 178.544,245.437 178.400,244.944 178.400 C 244.451 178.400,243.936 178.220,243.800 178.000 C 243.664 177.780,243.124 177.600,242.600 177.600 C 242.076 177.600,241.536 177.420,241.400 177.200 C 241.264 176.980,240.724 176.800,240.200 176.800 C 239.676 176.800,239.136 176.620,239.000 176.400 C 238.864 176.180,238.349 176.000,237.856 176.000 C 237.363 176.000,236.789 175.851,236.580 175.670 C 236.371 175.488,235.390 175.095,234.400 174.797 C 233.410 174.499,231.790 173.910,230.800 173.488 C 229.810 173.066,228.640 172.580,228.200 172.408 C 221.176 169.667,213.200 164.244,213.200 162.211 C 213.200 161.875,213.040 161.600,212.845 161.600 C 212.100 161.600,211.324 155.522,211.907 154.252 C 213.630 150.500,214.436 149.283,216.397 147.471 C 218.381 145.637,220.655 144.253,223.500 143.149 C 223.995 142.957,224.805 142.634,225.300 142.430 C 226.628 141.884,228.327 141.543,230.800 141.324 C 232.010 141.217,233.171 140.965,233.380 140.765 C 233.907 140.259,247.086 140.292,247.400 140.800 C 247.536 141.020,248.706 141.200,250.000 141.200 C 251.294 141.200,252.464 141.380,252.600 141.600 C 252.736 141.820,253.456 142.000,254.200 142.000 C 254.944 142.000,255.664 142.180,255.800 142.400 C 255.936 142.620,256.476 142.800,257.000 142.800 C 257.524 142.800,258.064 142.980,258.200 143.200 C 258.336 143.420,258.876 143.600,259.400 143.600 C 259.924 143.600,260.464 143.780,260.600 144.000 C 260.736 144.220,261.116 144.400,261.445 144.400 C 262.431 144.400,275.061 150.739,276.747 152.081 C 279.232 154.058,282.800 153.454,282.800 151.056 C 282.800 150.891,283.520 149.696,284.400 148.400 C 285.280 147.104,286.000 145.882,286.000 145.684 C 286.000 145.486,286.360 144.998,286.800 144.600 C 287.240 144.202,287.600 143.662,287.600 143.400 C 287.600 143.138,287.960 142.598,288.400 142.200 C 288.840 141.802,289.200 141.315,289.200 141.118 C 289.200 140.921,290.910 138.267,293.000 135.220 C 295.090 132.174,296.800 129.511,296.800 129.302 C 296.800 129.094,297.160 128.598,297.600 128.200 C 298.040 127.802,298.400 127.316,298.400 127.120 C 298.400 126.924,299.300 125.430,300.400 123.800 C 301.500 122.170,302.400 120.676,302.400 120.480 C 302.400 120.284,302.760 119.798,303.200 119.400 C 303.640 119.002,304.000 118.456,304.000 118.187 C 304.000 117.918,304.273 117.471,304.607 117.194 C 306.562 115.572,306.549 112.400,304.587 112.400 C 304.318 112.400,303.881 112.139,303.616 111.819 C 303.351 111.500,302.294 110.811,301.267 110.289 C 300.240 109.767,298.770 108.970,298.000 108.519 C 293.855 106.088,291.483 104.800,291.156 104.800 C 290.954 104.800,290.477 104.643,290.095 104.450 C 287.002 102.892,285.824 102.400,285.186 102.400 C 284.780 102.400,284.336 102.220,284.200 102.000 C 284.064 101.780,283.524 101.600,283.000 101.600 C 282.476 101.600,281.936 101.420,281.800 101.200 C 281.664 100.980,281.124 100.800,280.600 100.800 C 280.076 100.800,279.536 100.620,279.400 100.400 C 279.264 100.180,278.724 100.000,278.200 100.000 C 277.676 100.000,277.136 99.820,277.000 99.600 C 276.864 99.380,276.223 99.200,275.576 99.200 C 274.929 99.200,274.400 99.020,274.400 98.800 C 274.400 98.580,273.871 98.400,273.224 98.400 C 272.577 98.400,271.948 98.240,271.827 98.044 C 271.619 97.708,271.124 97.585,267.496 96.967 C 266.669 96.827,265.894 96.551,265.773 96.356 C 265.652 96.160,264.879 96.000,264.056 96.000 C 263.233 96.000,262.389 95.837,262.180 95.637 C 261.971 95.437,260.810 95.165,259.600 95.032 C 258.390 94.899,256.050 94.604,254.400 94.376 C 246.132 93.236,227.914 92.453,226.800 93.191 M355.600 232.188 C 351.132 233.216,341.994 237.544,339.600 239.767 C 338.830 240.482,337.713 241.432,337.118 241.877 C 334.052 244.172,327.600 254.038,327.600 256.432 C 327.600 256.828,327.440 257.252,327.244 257.373 C 327.049 257.494,326.774 258.269,326.633 259.096 C 326.493 259.923,326.181 261.590,325.940 262.800 C 324.953 267.752,325.478 274.476,327.409 281.600 C 327.854 283.241,330.328 288.083,331.599 289.800 C 332.250 290.680,332.946 291.760,333.146 292.200 C 333.990 294.060,341.496 300.800,342.723 300.800 C 342.932 300.800,343.323 301.066,343.593 301.392 C 344.176 302.093,346.298 303.200,347.061 303.200 C 347.358 303.200,347.600 303.380,347.600 303.600 C 347.600 303.820,348.039 304.000,348.576 304.000 C 349.113 304.000,349.664 304.180,349.800 304.400 C 349.936 304.620,350.476 304.800,351.000 304.800 C 351.524 304.800,352.064 304.980,352.200 305.200 C 352.336 305.420,353.146 305.600,354.000 305.600 C 354.854 305.600,355.664 305.780,355.800 306.000 C 355.949 306.241,358.730 306.400,362.800 306.400 C 366.870 306.400,369.651 306.241,369.800 306.000 C 369.936 305.780,370.622 305.597,371.324 305.594 C 372.601 305.588,375.343 304.790,375.859 304.274 C 376.010 304.123,376.429 304.000,376.790 304.000 C 382.936 304.000,395.578 290.639,398.362 281.200 C 398.654 280.210,399.097 278.860,399.346 278.200 C 399.955 276.590,399.963 261.272,399.355 259.960 C 399.111 259.432,398.693 258.280,398.426 257.400 C 395.113 246.473,386.984 238.480,373.843 233.227 C 369.893 231.649,360.316 231.103,355.600 232.188 " stroke="none" fill="#ffffff" fill-rule="evenodd"></path><path id="path4" d="M100.037 89.233 C 98.628 89.416,97.287 89.753,97.057 89.983 C 96.828 90.212,96.237 90.400,95.744 90.400 C 95.251 90.400,94.736 90.580,94.600 90.800 C 94.464 91.020,94.023 91.200,93.619 91.200 C 92.647 91.200,85.517 94.924,83.440 96.516 C 76.230 102.045,72.590 107.887,69.165 119.428 C 67.003 126.713,70.023 140.272,75.645 148.518 C 78.055 152.052,86.059 159.200,87.608 159.200 C 87.823 159.200,88.000 159.380,88.000 159.600 C 88.000 159.820,88.265 160.000,88.588 160.000 C 88.911 160.000,89.817 160.360,90.600 160.800 C 91.383 161.240,92.368 161.600,92.789 161.600 C 93.209 161.600,93.664 161.780,93.800 162.000 C 93.936 162.220,94.476 162.400,95.000 162.400 C 95.524 162.400,96.064 162.580,96.200 162.800 C 96.336 163.020,97.031 163.200,97.744 163.200 C 98.457 163.200,99.265 163.425,99.540 163.700 C 99.899 164.059,101.863 164.200,106.487 164.200 C 111.289 164.200,112.976 164.072,113.100 163.700 C 113.199 163.402,113.971 163.200,115.010 163.200 C 115.968 163.200,116.864 163.020,117.000 162.800 C 117.136 162.580,117.599 162.400,118.029 162.400 C 118.459 162.400,119.123 162.238,119.505 162.041 C 119.887 161.843,121.775 160.917,123.700 159.983 C 125.625 159.049,127.200 158.130,127.200 157.942 C 127.200 157.754,127.475 157.600,127.811 157.600 C 128.941 157.600,134.675 152.057,136.916 148.800 C 137.596 147.810,138.299 146.940,138.477 146.867 C 138.655 146.793,138.800 146.503,138.800 146.222 C 138.800 145.941,139.520 144.311,140.400 142.600 C 141.280 140.889,142.000 139.165,142.000 138.768 C 142.000 138.372,142.180 137.936,142.400 137.800 C 142.620 137.664,142.800 137.102,142.800 136.550 C 142.800 135.999,142.999 135.176,143.242 134.722 C 143.841 133.602,143.836 118.876,143.236 118.276 C 142.996 118.036,142.800 117.370,142.800 116.795 C 142.800 116.220,142.440 115.005,142.000 114.094 C 141.560 113.184,141.200 112.275,141.200 112.075 C 141.200 109.422,134.083 99.900,130.000 97.091 C 129.010 96.410,128.102 95.710,127.982 95.536 C 127.603 94.983,119.904 91.200,119.159 91.200 C 118.768 91.200,118.336 91.020,118.200 90.800 C 118.064 90.580,117.549 90.400,117.056 90.400 C 116.563 90.400,115.980 90.220,115.759 89.999 C 114.753 88.993,105.408 88.538,100.037 89.233 M0.000 197.603 L 0.000 302.406 27.500 302.303 L 55.000 302.200 55.101 198.045 C 55.196 99.207,55.166 93.862,54.501 93.357 C 53.934 92.927,48.648 92.823,26.900 92.813 L 0.000 92.800 0.000 197.603 M226.800 93.191 C 226.470 93.409,224.816 93.591,223.124 93.594 C 221.432 93.597,219.936 93.780,219.800 94.000 C 219.664 94.220,218.764 94.400,217.800 94.400 C 216.836 94.400,215.936 94.580,215.800 94.800 C 215.664 95.020,214.854 95.200,214.000 95.200 C 213.146 95.200,212.336 95.380,212.200 95.600 C 212.064 95.820,211.344 96.000,210.600 96.000 C 209.856 96.000,209.136 96.180,209.000 96.400 C 208.864 96.620,208.311 96.800,207.771 96.800 C 207.231 96.800,206.432 96.980,205.995 97.200 C 205.558 97.420,204.842 97.780,204.405 98.000 C 203.968 98.220,203.259 98.400,202.829 98.400 C 202.399 98.400,201.936 98.580,201.800 98.800 C 201.664 99.020,201.209 99.200,200.789 99.200 C 200.368 99.200,199.383 99.560,198.600 100.000 C 197.817 100.440,196.911 100.800,196.588 100.800 C 196.265 100.800,196.000 100.980,196.000 101.200 C 196.000 101.420,195.765 101.600,195.477 101.600 C 194.383 101.600,186.601 105.927,185.045 107.400 C 184.580 107.840,183.705 108.455,183.100 108.768 C 182.495 109.080,182.000 109.485,182.000 109.668 C 182.000 109.850,181.655 110.000,181.233 110.000 C 180.812 110.000,180.407 110.142,180.333 110.315 C 180.260 110.488,179.390 111.246,178.400 111.999 C 174.207 115.189,165.600 124.464,165.600 125.791 C 165.600 125.948,165.261 126.554,164.847 127.138 C 161.908 131.282,158.000 139.708,158.000 141.903 C 158.000 142.370,157.820 142.864,157.600 143.000 C 157.380 143.136,157.200 143.831,157.200 144.544 C 157.200 145.257,157.037 146.011,156.837 146.220 C 155.366 147.759,155.588 166.177,157.149 172.200 C 157.377 173.080,157.684 174.298,157.830 174.906 C 157.976 175.514,158.254 176.110,158.448 176.230 C 158.641 176.349,158.816 176.842,158.836 177.324 C 158.856 177.806,159.385 179.100,160.010 180.200 C 160.636 181.300,161.462 182.830,161.845 183.600 C 165.141 190.220,175.257 200.275,183.000 204.627 C 183.880 205.121,186.400 206.454,188.600 207.588 C 190.800 208.722,193.410 210.083,194.400 210.613 C 195.390 211.144,196.420 211.583,196.688 211.589 C 196.956 211.595,197.817 211.960,198.600 212.400 C 199.383 212.840,200.368 213.200,200.789 213.200 C 201.209 213.200,201.664 213.380,201.800 213.600 C 201.936 213.820,202.315 214.000,202.643 214.000 C 202.971 214.000,203.984 214.360,204.894 214.800 C 205.805 215.240,206.866 215.600,207.252 215.600 C 207.637 215.600,208.064 215.780,208.200 216.000 C 208.336 216.220,208.799 216.400,209.229 216.400 C 209.659 216.400,210.323 216.565,210.705 216.766 C 211.913 217.403,214.119 218.311,216.600 219.191 C 217.920 219.659,219.313 220.213,219.695 220.421 C 220.077 220.630,220.754 220.800,221.200 220.800 C 221.646 220.800,222.368 220.980,222.805 221.200 C 223.242 221.420,223.958 221.780,224.395 222.000 C 224.832 222.220,225.464 222.400,225.800 222.400 C 226.393 222.400,226.816 222.566,228.695 223.538 C 229.187 223.792,229.941 224.000,230.371 224.000 C 230.801 224.000,231.264 224.180,231.400 224.400 C 231.536 224.620,232.076 224.800,232.600 224.800 C 233.124 224.800,233.664 224.980,233.800 225.200 C 233.936 225.420,234.397 225.600,234.824 225.600 C 235.251 225.600,235.600 225.780,235.600 226.000 C 235.600 226.220,235.962 226.400,236.405 226.400 C 236.848 226.400,237.523 226.565,237.905 226.767 C 239.210 227.457,242.391 228.800,242.720 228.800 C 242.901 228.800,243.398 229.115,243.825 229.501 C 244.251 229.886,245.455 230.634,246.500 231.163 C 247.545 231.693,248.400 232.277,248.400 232.463 C 248.400 232.648,248.661 232.800,248.980 232.800 C 250.562 232.800,256.400 239.754,256.400 241.638 C 256.400 242.031,256.580 242.464,256.800 242.600 C 257.020 242.736,257.200 244.189,257.200 245.829 C 257.200 247.469,257.020 249.168,256.800 249.605 C 256.580 250.042,256.220 250.758,256.000 251.195 C 255.780 251.632,255.600 252.247,255.600 252.561 C 255.600 252.876,255.465 253.193,255.300 253.267 C 255.135 253.340,254.495 254.076,253.877 254.903 C 252.801 256.344,247.293 260.400,246.413 260.400 C 246.180 260.400,245.632 260.580,245.195 260.800 C 244.758 261.020,244.042 261.380,243.605 261.600 C 243.168 261.820,242.394 262.000,241.885 262.000 C 241.376 262.000,240.789 262.163,240.580 262.361 C 239.291 263.587,217.475 263.596,216.220 262.371 C 216.011 262.167,214.897 262.000,213.744 262.000 C 212.591 262.000,211.536 261.820,211.400 261.600 C 211.264 261.380,210.443 261.200,209.576 261.200 C 208.709 261.200,208.000 261.020,208.000 260.800 C 208.000 260.580,207.381 260.400,206.624 260.400 C 205.867 260.400,205.136 260.220,205.000 260.000 C 204.864 259.780,204.234 259.600,203.600 259.600 C 202.966 259.600,202.336 259.420,202.200 259.200 C 202.064 258.980,201.524 258.800,201.000 258.800 C 200.476 258.800,199.936 258.620,199.800 258.400 C 199.664 258.180,199.201 258.000,198.771 258.000 C 198.341 258.000,197.677 257.841,197.295 257.647 C 196.913 257.452,196.150 257.112,195.600 256.889 C 194.401 256.405,187.333 252.919,186.200 252.254 C 185.760 251.995,184.639 251.292,183.708 250.692 C 182.777 250.091,181.860 249.600,181.670 249.600 C 181.480 249.600,180.998 249.240,180.600 248.800 C 180.202 248.360,179.665 248.000,179.408 248.000 C 179.150 248.000,178.531 247.565,178.032 247.034 C 177.533 246.503,176.332 245.567,175.362 244.955 C 174.393 244.342,173.600 243.696,173.600 243.520 C 173.600 243.344,173.372 243.200,173.093 243.200 C 172.568 243.200,166.400 252.027,166.400 252.777 C 166.400 253.010,166.250 253.200,166.068 253.200 C 165.885 253.200,165.480 253.695,165.168 254.300 C 164.855 254.905,164.285 255.749,163.900 256.175 C 163.515 256.602,163.200 257.172,163.200 257.442 C 163.200 257.712,163.061 257.993,162.891 258.067 C 162.519 258.227,158.861 263.270,157.789 265.100 C 157.370 265.815,156.886 266.400,156.714 266.400 C 156.541 266.400,156.400 266.636,156.400 266.925 C 156.400 267.213,156.040 267.836,155.600 268.308 C 155.160 268.780,154.800 269.266,154.800 269.388 C 154.800 269.509,154.035 270.700,153.100 272.034 C 152.165 273.367,151.204 274.804,150.964 275.226 C 150.725 275.649,150.230 276.325,149.864 276.729 C 149.499 277.133,149.200 277.646,149.200 277.870 C 149.200 278.093,148.840 278.602,148.400 279.000 C 147.960 279.398,147.600 279.883,147.600 280.078 C 147.600 280.273,147.209 280.961,146.731 281.608 C 145.807 282.858,146.432 284.400,147.862 284.400 C 148.158 284.400,148.400 284.550,148.400 284.732 C 148.400 284.915,148.895 285.320,149.500 285.632 C 150.105 285.945,150.949 286.515,151.375 286.900 C 151.802 287.285,152.359 287.600,152.613 287.600 C 152.868 287.600,153.402 287.960,153.800 288.400 C 154.198 288.840,154.689 289.200,154.890 289.200 C 155.091 289.200,156.011 289.695,156.935 290.300 C 159.600 292.047,160.149 292.379,161.000 292.761 C 161.440 292.958,162.430 293.548,163.200 294.071 C 164.575 295.006,167.439 296.448,170.600 297.797 C 171.480 298.172,173.260 299.002,174.556 299.640 C 175.852 300.278,177.337 300.800,177.856 300.800 C 178.375 300.800,178.800 300.980,178.800 301.200 C 178.800 301.420,179.149 301.600,179.576 301.600 C 180.003 301.600,180.464 301.780,180.600 302.000 C 180.736 302.220,181.276 302.400,181.800 302.400 C 182.324 302.400,182.864 302.580,183.000 302.800 C 183.136 303.020,183.651 303.200,184.144 303.200 C 184.637 303.200,185.211 303.349,185.420 303.530 C 185.629 303.712,186.610 304.090,187.600 304.369 C 188.590 304.649,189.713 305.040,190.095 305.239 C 190.477 305.438,191.321 305.600,191.971 305.600 C 192.621 305.600,193.264 305.780,193.400 306.000 C 193.536 306.220,194.321 306.400,195.144 306.400 C 195.967 306.400,196.811 306.562,197.020 306.759 C 197.229 306.956,198.165 307.226,199.100 307.359 C 203.299 307.954,204.018 308.106,204.226 308.442 C 204.348 308.639,205.339 308.800,206.429 308.800 C 207.519 308.800,208.723 308.972,209.105 309.183 C 213.087 311.377,245.956 311.364,250.062 309.167 C 250.439 308.965,251.289 308.800,251.950 308.800 C 252.612 308.800,253.264 308.620,253.400 308.400 C 253.536 308.180,254.346 308.000,255.200 308.000 C 256.054 308.000,256.864 307.820,257.000 307.600 C 257.136 307.380,257.856 307.200,258.600 307.200 C 259.344 307.200,260.064 307.020,260.200 306.800 C 260.336 306.580,260.966 306.400,261.600 306.400 C 262.234 306.400,262.864 306.220,263.000 306.000 C 263.136 305.780,263.676 305.600,264.200 305.600 C 264.724 305.600,265.264 305.420,265.400 305.200 C 265.536 304.980,265.991 304.800,266.411 304.800 C 266.832 304.800,267.817 304.440,268.600 304.000 C 269.383 303.560,270.283 303.200,270.600 303.200 C 270.917 303.200,271.817 302.840,272.600 302.400 C 273.383 301.960,274.289 301.600,274.612 301.600 C 274.935 301.600,275.200 301.420,275.200 301.200 C 275.200 300.980,275.452 300.800,275.759 300.800 C 276.406 300.800,280.333 298.787,281.993 297.605 C 282.615 297.162,283.293 296.800,283.500 296.800 C 283.707 296.800,284.202 296.440,284.600 296.000 C 284.998 295.560,285.471 295.200,285.650 295.200 C 286.977 295.200,296.988 286.458,299.758 282.880 C 303.307 278.298,305.568 274.968,305.584 274.300 C 305.593 273.915,305.750 273.600,305.932 273.600 C 306.250 273.600,306.781 272.652,307.558 270.700 C 308.112 269.308,310.007 265.081,310.426 264.305 C 310.631 263.923,310.800 263.259,310.800 262.829 C 310.800 262.399,310.980 261.936,311.200 261.800 C 311.420 261.664,311.600 260.969,311.600 260.256 C 311.600 259.543,311.763 258.789,311.961 258.580 C 313.372 257.096,313.258 237.441,311.805 231.600 C 310.875 227.862,310.095 225.574,309.181 223.905 C 308.971 223.523,308.795 222.983,308.790 222.705 C 308.781 222.267,307.292 219.175,305.050 214.942 C 304.683 214.250,304.117 213.463,303.792 213.193 C 303.466 212.923,303.200 212.530,303.200 212.319 C 303.200 211.402,297.149 204.699,294.600 202.792 C 293.500 201.969,292.060 200.824,291.400 200.248 C 290.740 199.672,290.041 199.201,289.847 199.200 C 289.653 199.200,289.203 198.869,288.847 198.465 C 287.068 196.442,277.231 190.736,272.200 188.808 C 271.760 188.639,270.500 188.096,269.400 187.600 C 268.300 187.104,266.950 186.520,266.400 186.303 C 265.850 186.085,265.087 185.748,264.705 185.553 C 264.323 185.359,263.736 185.200,263.400 185.200 C 263.064 185.200,262.477 185.041,262.095 184.847 C 261.713 184.652,260.860 184.271,260.200 184.000 C 259.540 183.729,258.687 183.348,258.305 183.153 C 257.923 182.959,257.158 182.800,256.605 182.800 C 256.052 182.800,255.600 182.620,255.600 182.400 C 255.600 182.180,255.155 182.000,254.612 182.000 C 254.069 182.000,253.034 181.672,252.312 181.270 C 251.590 180.869,250.010 180.202,248.800 179.789 C 247.590 179.376,246.429 178.895,246.220 178.719 C 246.011 178.544,245.437 178.400,244.944 178.400 C 244.451 178.400,243.936 178.220,243.800 178.000 C 243.664 177.780,243.124 177.600,242.600 177.600 C 242.076 177.600,241.536 177.420,241.400 177.200 C 241.264 176.980,240.724 176.800,240.200 176.800 C 239.676 176.800,239.136 176.620,239.000 176.400 C 238.864 176.180,238.349 176.000,237.856 176.000 C 237.363 176.000,236.789 175.851,236.580 175.670 C 236.371 175.488,235.390 175.095,234.400 174.797 C 233.410 174.499,231.790 173.910,230.800 173.488 C 229.810 173.066,228.640 172.580,228.200 172.408 C 221.176 169.667,213.200 164.244,213.200 162.211 C 213.200 161.875,213.040 161.600,212.845 161.600 C 212.100 161.600,211.324 155.522,211.907 154.252 C 213.630 150.500,214.436 149.283,216.397 147.471 C 218.381 145.637,220.655 144.253,223.500 143.149 C 223.995 142.957,224.805 142.634,225.300 142.430 C 226.628 141.884,228.327 141.543,230.800 141.324 C 232.010 141.217,233.171 140.965,233.380 140.765 C 233.907 140.259,247.086 140.292,247.400 140.800 C 247.536 141.020,248.706 141.200,250.000 141.200 C 251.294 141.200,252.464 141.380,252.600 141.600 C 252.736 141.820,253.456 142.000,254.200 142.000 C 254.944 142.000,255.664 142.180,255.800 142.400 C 255.936 142.620,256.476 142.800,257.000 142.800 C 257.524 142.800,258.064 142.980,258.200 143.200 C 258.336 143.420,258.876 143.600,259.400 143.600 C 259.924 143.600,260.464 143.780,260.600 144.000 C 260.736 144.220,261.116 144.400,261.445 144.400 C 262.431 144.400,275.061 150.739,276.747 152.081 C 279.232 154.058,282.800 153.454,282.800 151.056 C 282.800 150.891,283.520 149.696,284.400 148.400 C 285.280 147.104,286.000 145.882,286.000 145.684 C 286.000 145.486,286.360 144.998,286.800 144.600 C 287.240 144.202,287.600 143.662,287.600 143.400 C 287.600 143.138,287.960 142.598,288.400 142.200 C 288.840 141.802,289.200 141.315,289.200 141.118 C 289.200 140.921,290.910 138.267,293.000 135.220 C 295.090 132.174,296.800 129.511,296.800 129.302 C 296.800 129.094,297.160 128.598,297.600 128.200 C 298.040 127.802,298.400 127.316,298.400 127.120 C 298.400 126.924,299.300 125.430,300.400 123.800 C 301.500 122.170,302.400 120.676,302.400 120.480 C 302.400 120.284,302.760 119.798,303.200 119.400 C 303.640 119.002,304.000 118.456,304.000 118.187 C 304.000 117.918,304.273 117.471,304.607 117.194 C 306.562 115.572,306.549 112.400,304.587 112.400 C 304.318 112.400,303.881 112.139,303.616 111.819 C 303.351 111.500,302.294 110.811,301.267 110.289 C 300.240 109.767,298.770 108.970,298.000 108.519 C 293.855 106.088,291.483 104.800,291.156 104.800 C 290.954 104.800,290.477 104.643,290.095 104.450 C 287.002 102.892,285.824 102.400,285.186 102.400 C 284.780 102.400,284.336 102.220,284.200 102.000 C 284.064 101.780,283.524 101.600,283.000 101.600 C 282.476 101.600,281.936 101.420,281.800 101.200 C 281.664 100.980,281.124 100.800,280.600 100.800 C 280.076 100.800,279.536 100.620,279.400 100.400 C 279.264 100.180,278.724 100.000,278.200 100.000 C 277.676 100.000,277.136 99.820,277.000 99.600 C 276.864 99.380,276.223 99.200,275.576 99.200 C 274.929 99.200,274.400 99.020,274.400 98.800 C 274.400 98.580,273.871 98.400,273.224 98.400 C 272.577 98.400,271.948 98.240,271.827 98.044 C 271.619 97.708,271.124 97.585,267.496 96.967 C 266.669 96.827,265.894 96.551,265.773 96.356 C 265.652 96.160,264.879 96.000,264.056 96.000 C 263.233 96.000,262.389 95.837,262.180 95.637 C 261.971 95.437,260.810 95.165,259.600 95.032 C 258.390 94.899,256.050 94.604,254.400 94.376 C 246.132 93.236,227.914 92.453,226.800 93.191 M355.600 232.188 C 351.132 233.216,341.994 237.544,339.600 239.767 C 338.830 240.482,337.713 241.432,337.118 241.877 C 334.052 244.172,327.600 254.038,327.600 256.432 C 327.600 256.828,327.440 257.252,327.244 257.373 C 327.049 257.494,326.774 258.269,326.633 259.096 C 326.493 259.923,326.181 261.590,325.940 262.800 C 324.953 267.752,325.478 274.476,327.409 281.600 C 327.854 283.241,330.328 288.083,331.599 289.800 C 332.250 290.680,332.946 291.760,333.146 292.200 C 333.990 294.060,341.496 300.800,342.723 300.800 C 342.932 300.800,343.323 301.066,343.593 301.392 C 344.176 302.093,346.298 303.200,347.061 303.200 C 347.358 303.200,347.600 303.380,347.600 303.600 C 347.600 303.820,348.039 304.000,348.576 304.000 C 349.113 304.000,349.664 304.180,349.800 304.400 C 349.936 304.620,350.476 304.800,351.000 304.800 C 351.524 304.800,352.064 304.980,352.200 305.200 C 352.336 305.420,353.146 305.600,354.000 305.600 C 354.854 305.600,355.664 305.780,355.800 306.000 C 355.949 306.241,358.730 306.400,362.800 306.400 C 366.870 306.400,369.651 306.241,369.800 306.000 C 369.936 305.780,370.622 305.597,371.324 305.594 C 372.601 305.588,375.343 304.790,375.859 304.274 C 376.010 304.123,376.429 304.000,376.790 304.000 C 382.936 304.000,395.578 290.639,398.362 281.200 C 398.654 280.210,399.097 278.860,399.346 278.200 C 399.955 276.590,399.963 261.272,399.355 259.960 C 399.111 259.432,398.693 258.280,398.426 257.400 C 395.113 246.473,386.984 238.480,373.843 233.227 C 369.893 231.649,360.316 231.103,355.600 232.188 " stroke="none" fill="#ffffff" fill-rule="evenodd"></path></g></svg>