<?xml version="1.0" encoding="utf-8"?>
<!-- Generator: Adobe Illustrator 16.0.0, SVG Export Plug-In . SVG Version: 6.00 Build 0)  -->
<!DOCTYPE svg PUBLIC "-//W3C//DTD SVG 1.1//EN" "http://www.w3.org/Graphics/SVG/1.1/DTD/svg11.dtd">
<svg version="1.1" id="Layer_1" xmlns="http://www.w3.org/2000/svg" xmlns:xlink="http://www.w3.org/1999/xlink" x="0px" y="0px"
	 width="144px" height="144px" viewBox="0 0 144 144" enable-background="new 0 0 144 144" xml:space="preserve">
<path fill-rule="evenodd" clip-rule="evenodd" fill="#FFFFFF" d="M29.198,100.698c-3.972-3.405-6.691-7.044-9.086-10.952
	c-9.343-15.256-9.008-35.588,0.942-49.404c6.771-9.4,16.415-14.458,27.494-16.351c22.868-3.907,44.063,0.56,62.611,14.831
	c12.523,9.636,19.657,22.487,19.497,38.589c-0.138,13.772-6.328,24.927-16.239,34.188c-0.154,0.143-0.409,0.178-0.861,0.363
	c0-8.03,0.021-15.896-0.008-23.762c-0.021-5.965-3.612-10.793-9.267-12.565c-8.194-2.568-16.851,3.605-16.934,12.206
	c-0.092,9.543-0.021,19.088-0.022,28.632c0,0.576-0.002,1.152,0.001,1.729c0.005,0.985,0.193,2.037-1.383,1.994
	c-1.451-0.037-1.218-1.05-1.221-1.915c-0.017-3.537-0.007-7.076-0.007-10.613c0-10.122,0.022-20.241-0.01-30.361
	c-0.021-6.769-4.543-12.351-10.799-13.447c-8.254-1.446-15.607,4.716-15.644,13.222c-0.052,12.341,0.008,24.683-0.061,37.023
	c-0.005,0.824,0.924,2.432-0.919,2.471c-1.755,0.04-1.634-1.411-1.631-2.686c0.018-8.145,0.013-16.291,0.008-24.436
	c-0.004-7.813-5.52-13.817-12.911-14.063c-7.306-0.243-13.346,5.854-13.537,13.756C29.125,92.806,29.198,96.469,29.198,100.698z
	 M88.261,60.265c-0.039,6.72,5.396,12.311,12.069,12.411c6.624,0.104,12.375-5.588,12.49-12.36c0.109-6.4-5.75-12.234-12.312-12.259
	C93.854,48.031,88.301,53.568,88.261,60.265z M54.734,60.892c0.021-6.738-5.455-12.292-12.176-12.35
	c-6.607-0.057-12.283,5.546-12.373,12.214c-0.087,6.523,5.594,12.284,12.234,12.408C48.879,73.283,54.714,67.468,54.734,60.892z
	 M71.644,36.69c-6.711-0.057-12.374,5.445-12.454,12.1c-0.078,6.565,5.517,12.337,12.134,12.519
	c6.532,0.179,12.499-5.766,12.485-12.441C83.795,42.411,78.136,36.746,71.644,36.69z"/>
</svg>
