<?xml version="1.0" encoding="utf-8"?>
<!-- Generator: Adobe Illustrator 16.0.0, SVG Export Plug-In . SVG Version: 6.00 Build 0)  -->
<!DOCTYPE svg PUBLIC "-//W3C//DTD SVG 1.1//EN" "http://www.w3.org/Graphics/SVG/1.1/DTD/svg11.dtd">
<svg version="1.1" id="Layer_1" xmlns="http://www.w3.org/2000/svg" xmlns:xlink="http://www.w3.org/1999/xlink" x="0px" y="0px"
	 width="144px" height="144px" viewBox="0 0 144 144" enable-background="new 0 0 144 144" xml:space="preserve">
<g>
	<path fill-rule="evenodd" clip-rule="evenodd" fill="#FFFFFF" d="M64.794,71.616c-1.207-3.451-2.304-6.672-3.462-9.871
		c-1.022-2.824-2.117-5.623-3.172-8.434c-0.766-2.039-2.164-2.991-4.405-2.942c-4.036,0.09-8.074,0.026-12.334,0.026
		c7.632,17.416,12.333,35.438,15.422,54.062c-0.557,0.054-0.95,0.124-1.343,0.124c-4.878,0.007-9.755,0.033-14.632-0.003
		c-5.102-0.037-8.789-3.467-9.436-8.521c-1.808-14.137-3.702-28.263-5.485-42.404c-0.276-2.186-0.531-4.492-0.133-6.619
		c0.778-4.151,4.401-6.911,8.616-6.918c17.952-0.029,35.904-0.013,53.856-0.009c0.336,0,0.673,0.069,1.279,0.135
		C80.04,49.797,71.819,60.081,64.794,71.616z"/>
	<path fill-rule="evenodd" clip-rule="evenodd" fill="#FFFFFF" d="M136.407,9.118c-6.954,6.367-12.977,13.473-18.242,21.234
		C108.13,45.145,100.92,61.278,95.594,78.287c-2.65,8.467-4.745,17.066-5.746,26.036c-7.054,0-14.081,0-21.346,0
		c0.572-1.728,1.093-3.425,1.69-5.093c9.561-26.668,23.903-50.427,43.405-71.008c6.512-6.869,13.583-13.115,21.532-18.315
		C135.548,9.634,135.981,9.381,136.407,9.118z"/>
	<path fill-rule="evenodd" clip-rule="evenodd" fill="#FFFFFF" d="M43.706,127.736c-5.073-0.015-9.077-4.001-9.093-9.051
		c-0.015-5.109,4.052-9.153,9.18-9.129c5.133,0.023,9.118,4.066,9.083,9.216C52.843,123.793,48.793,127.752,43.706,127.736z"/>
	<path fill-rule="evenodd" clip-rule="evenodd" fill="#FFFFFF" d="M78.237,127.736c-5.091-0.005-9.105-3.996-9.113-9.059
		c-0.007-5.143,4.062-9.17,9.214-9.121c5.082,0.049,9.069,4.08,9.048,9.145C87.365,123.75,83.324,127.74,78.237,127.736z"/>
</g>
</svg>
