<?xml version="1.0" encoding="utf-8"?>
<!-- Generator: Adobe Illustrator 16.0.0, SVG Export Plug-In . SVG Version: 6.00 Build 0)  -->
<!DOCTYPE svg PUBLIC "-//W3C//DTD SVG 1.1//EN" "http://www.w3.org/Graphics/SVG/1.1/DTD/svg11.dtd">
<svg version="1.1" id="Layer_1" xmlns="http://www.w3.org/2000/svg" xmlns:xlink="http://www.w3.org/1999/xlink" x="0px" y="0px"
	 width="144px" height="144px" viewBox="0 0 144 144" enable-background="new 0 0 144 144" xml:space="preserve">
<path fill="#FFFFFF" d="M116.215,109.342c8.479-10.532,13.565-23.911,13.565-38.486c0-33.923-27.502-61.427-61.427-61.427
	S6.927,36.933,6.927,70.856c0,33.927,27.502,61.426,61.427,61.426h71.114L116.215,109.342z M104.26,61.888
	c-1.994,2.1-4.104,4.088-6.179,6.11c-3.275,3.205-6.556,6.403-9.853,9.585c-0.341,0.33-0.402,0.639-0.328,1.067
	c1.078,6.191,2.143,12.387,3.212,18.58c0.154,0.89,0.311,1.776,0.458,2.668c0.041,0.231,0.071,0.469,0.084,0.707
	c0.054,0.973,0.017,1.962-0.894,2.549c-0.863,0.558-1.755,0.201-2.564-0.221c-4.456-2.33-8.899-4.679-13.35-7.019
	c-2.057-1.081-4.122-2.148-6.168-3.252c-0.424-0.227-0.745-0.233-1.178-0.006c-6.353,3.358-12.713,6.699-19.076,10.039
	c-0.377,0.197-0.758,0.407-1.161,0.531c-1.731,0.548-2.855-0.317-2.815-2.396c0.272-1.598,0.583-3.447,0.9-5.294
	c0.97-5.632,1.938-11.267,2.926-16.899c0.083-0.481-0.056-0.781-0.396-1.111c-5.118-4.951-10.23-9.913-15.327-14.89
	c-0.452-0.441-0.87-0.949-1.191-1.493c-0.668-1.125-0.29-2.325,0.956-2.702c1.215-0.369,2.496-0.548,3.76-0.735
	c6.384-0.937,12.769-1.851,19.157-2.762c0.501-0.073,0.767-0.304,0.988-0.756c3.145-6.408,6.309-12.808,9.48-19.203
	c0.274-0.546,0.591-1.095,0.99-1.551c0.818-0.925,1.98-0.925,2.786,0.004c0.411,0.478,0.736,1.048,1.02,1.616
	c3.153,6.35,6.299,12.706,9.42,19.073c0.262,0.534,0.585,0.759,1.161,0.842c7.209,1.028,14.416,2.08,21.623,3.124
	c0.095,0.015,0.19,0.02,0.283,0.039C105.216,58.576,105.828,60.236,104.26,61.888z"/>
</svg>
