<?xml version="1.0" encoding="utf-8"?>
<!-- Generator: Adobe Illustrator 16.0.0, SVG Export Plug-In . SVG Version: 6.00 Build 0)  -->
<!DOCTYPE svg PUBLIC "-//W3C//DTD SVG 1.1//EN" "http://www.w3.org/Graphics/SVG/1.1/DTD/svg11.dtd">
<svg version="1.1" id="Layer_1" xmlns="http://www.w3.org/2000/svg" xmlns:xlink="http://www.w3.org/1999/xlink" x="0px" y="0px"
	 width="144px" height="144px" viewBox="0 0 144 144" enable-background="new 0 0 144 144" xml:space="preserve">
<g>
	<g>
		<g>
			<path fill="#FFFFFF" d="M90.711,29.078c-7.91-6.201-15.883-12.616-23.956-19.32c-6.121,6.139-12.286,12.578-18.477,19.24
				C62.414,28.928,76.552,28.954,90.711,29.078z"/>
			<path fill="#FFFFFF" d="M122.123,55.911c-0.222-2.083-1.284-3.908-2.728-5.103c0.011-0.014,0.023-0.027,0.04-0.04
				c-5.232-3.785-10.51-7.725-15.805-11.74c1.102,8.884,2.119,17.746,2.957,26.546L75.891,86.541l-35.13-16.778
				c-0.876-9.677-1.941-19.413-3.086-29.173c-4.151,4.622-8.317,9.319-12.513,14.17c0.037,0.037,0.068,0.074,0.11,0.112
				c-1.109,1.544-1.703,3.778-1.46,6.254c1.978,20.246,3.387,40.316,4.23,60.188c0.178,4.373,2.88,7.408,6.066,6.817
				c18.527-3.508,37.055-6.849,55.586-10.019c5.658,4.632,11.267,9.086,16.832,13.337c-0.018-5.302-0.086-10.608-0.201-15.933
				c4.762-0.763,9.519-1.52,14.283-2.286c3.186-0.504,5.642-3.834,5.459-7.431C125.22,89.34,123.915,72.699,122.123,55.911z
				 M35.441,112.698C34.69,97.689,33.617,82.57,32.21,67.345c9.495,6.19,18.917,12.076,28.263,17.652
				c-8.057,9.604-16.212,19.625-24.488,30.059C35.676,114.361,35.485,113.562,35.441,112.698z M114.153,106.355
				c-4.258,0.615-8.517,1.235-12.775,1.865c0.186,3.815,0.358,7.617,0.5,11.413c-3.457-3.229-6.937-6.532-10.436-9.907
				c-16.939,2.553-33.876,5.269-50.816,8.094c-1.122,0.182-2.171-0.087-3.029-0.728c8.527-10.683,16.924-20.947,25.218-30.778
				c4.539,2.727,9.058,5.353,13.563,7.917c4.117-3.626,8.213-7.173,12.31-10.621c9.594,7.525,19.065,14.589,28.428,21.235
				C116.322,105.641,115.289,106.2,114.153,106.355z M118.492,102.659c-9.124-6.508-18.346-13.413-27.695-20.743
				c8.358-7,16.668-13.671,24.938-19.995c1.299,12.985,2.311,25.881,3.047,38.671C118.817,101.312,118.717,101.997,118.492,102.659z
				"/>
			<path fill="#FFFFFF" d="M93.709,45.393c0.026,0.233-0.958,0.45-2.198,0.481c-13.473,0.334-26.95,0.758-40.413,1.265
				c-1.237,0.046-2.268-0.125-2.292-0.383c-0.317-2.812-0.644-5.628-0.983-8.446c-0.032-0.26,0.947-0.49,2.184-0.516
				c13.479-0.28,26.966-0.469,40.463-0.577c1.243-0.007,2.273,0.177,2.302,0.416C93.096,40.22,93.407,42.807,93.709,45.393z"/>
		</g>
		<path fill="#FFFFFF" d="M77.138,68.417c0.055,0.577-0.476,1.091-1.18,1.152c-7.685,0.627-15.37,1.283-23.05,1.972
			c-0.707,0.056-1.321-0.386-1.381-0.982c-0.639-6.606-1.339-13.231-2.108-19.881c-0.068-0.616,0.442-1.138,1.156-1.17
			c7.69-0.379,15.391-0.726,23.092-1.044c0.714-0.03,1.347,0.422,1.413,1.001C75.825,55.801,76.51,62.121,77.138,68.417z"/>
		<path fill="#FFFFFF" d="M96.291,67.038c0.057,0.555-0.254,1.036-0.688,1.071c-4.742,0.353-9.487,0.721-14.227,1.098
			c-0.438,0.03-0.837-0.407-0.892-0.975c-0.625-6.257-1.312-12.536-2.061-18.834c-0.071-0.582,0.227-1.067,0.667-1.083
			c4.751-0.188,9.503-0.362,14.258-0.528c0.437-0.017,0.842,0.431,0.91,0.985C95,54.885,95.676,60.974,96.291,67.038z"/>
	</g>
</g>
</svg>
