<?xml version="1.0" encoding="utf-8"?>
<!-- Generator: Adobe Illustrator 16.0.0, SVG Export Plug-In . SVG Version: 6.00 Build 0)  -->
<!DOCTYPE svg PUBLIC "-//W3C//DTD SVG 1.1//EN" "http://www.w3.org/Graphics/SVG/1.1/DTD/svg11.dtd">
<svg version="1.1" id="Layer_1" xmlns="http://www.w3.org/2000/svg" xmlns:xlink="http://www.w3.org/1999/xlink" x="0px" y="0px"
	 width="144px" height="144px" viewBox="0 0 144 144" enable-background="new 0 0 144 144" xml:space="preserve">
<path fill-rule="evenodd" clip-rule="evenodd" fill="#FEFCFB" d="M120.526,48.345c0.178,19.414-3.239,37.991-13.793,54.673
	c-6.625,10.475-15.448,18.527-26.958,23.521c-5.924,2.569-11.626,2.573-17.519-0.064c-18.262-8.177-29.199-22.562-34.914-41.254
	c-4.446-14.541-4.808-29.417-3.006-44.442c0.408-3.406,0.153-6.157,5.071-6.294c15.504-0.433,28.162-7.746,39.526-17.626
	c1.817-1.58,2.909-1.852,4.761-0.15c12.35,11.342,26.84,18,43.617,19.321c2.686,0.212,3.466,1.177,3.265,3.75
	C120.354,42.618,120.526,45.488,120.526,48.345z M37.21,58.84c-0.08,6.897,0.636,13.698,2.501,20.328
	c4.146,14.728,12.145,26.411,26.465,33.037c3.117,1.442,6.09,1.474,9.229,0.097c5.845-2.561,10.909-6.177,15.141-10.926
	c13.052-14.643,16.313-32.396,16.306-51.226c-0.003-2.47-1.58-2.423-3.076-2.662c-10.95-1.743-20.693-6.316-29.476-12.904
	c-2.217-1.665-3.538-1.848-5.802-0.116c-6.296,4.818-13.392,8.155-20.95,10.617c-3.237,1.054-7.958-0.138-9.497,2.958
	C36.563,51.042,37.397,55.195,37.21,58.84z"/>
</svg>
