<?xml version="1.0" encoding="utf-8"?>
<!-- Generator: Adobe Illustrator 16.0.0, SVG Export Plug-In . SVG Version: 6.00 Build 0)  -->
<!DOCTYPE svg PUBLIC "-//W3C//DTD SVG 1.1//EN" "http://www.w3.org/Graphics/SVG/1.1/DTD/svg11.dtd">
<svg version="1.1" id="Layer_1" xmlns="http://www.w3.org/2000/svg" xmlns:xlink="http://www.w3.org/1999/xlink" x="0px" y="0px"
	 width="144px" height="144px" viewBox="0 0 144 144" enable-background="new 0 0 144 144" xml:space="preserve">
<g>
	<path fill-rule="evenodd" clip-rule="evenodd" fill="#FFFFFF" d="M46.735,77.853c-0.031,2.694-2.444,4.97-5.281,4.983
		c-2.942,0.013-5.385-2.465-5.249-5.324c0.131-2.771,2.546-4.953,5.393-4.875C44.317,72.713,46.765,75.198,46.735,77.853z"/>
	<path fill-rule="evenodd" clip-rule="evenodd" fill="#FFFFFF" d="M11.602,48.218c5.614-0.451,10.743-0.336,15.617-1.394
		c5.558-1.208,10.955-3.283,16.305-5.292c20.461-7.687,40.767-7.498,60.619,1.697c7.175,3.324,14.361,4.958,22.146,4.562
		c1.78-0.091,3.568-0.012,6.18-0.012c-1.219,2.685-2.116,4.888-3.199,6.996c-1.561,3.037-1.442,5.76,0.145,8.928
		c10.682,21.344-3.247,44.033-26.814,45.198c-8.034,0.396-15.121-2.98-21.117-8.409c-0.905-0.818-1.793-1.655-2.94-2.717
		c-2.151,3.013-4.146,5.808-6.508,9.115c-2.201-3.042-4.125-5.702-6.21-8.586c-2.4,1.66-4.588,3.196-6.798,4.699
		c-10.49,7.128-21.453,7.862-32.398,1.506c-11-6.389-16.235-16.348-15.315-29.049c0.275-3.799,1.695-7.708,3.412-11.157
		c1.795-3.604,2.154-6.668-0.061-10.085C13.523,52.462,12.736,50.477,11.602,48.218z M126.104,78.358
		c0.737-13.013-10.35-24.125-23.706-23.996c-13.281,0.129-23.812,10.494-23.823,23.727c-0.01,13.217,10.538,23.798,23.739,23.816
		C115.82,101.924,126.101,91.748,126.104,78.358z M41.924,54.393C28.494,54.371,17.921,64.813,17.79,78.229
		c-0.124,12.619,11.133,23.656,24.123,23.65c12.938-0.006,23.969-10.964,23.969-23.812C65.881,65.062,55.105,54.413,41.924,54.393z
		 M46.351,47.167c13.387,2.881,21.511,11.195,25.812,24.532c2.299-6.805,4.754-12.584,9.793-16.234
		c4.779-3.461,10.293-5.908,15.55-8.837C80.609,41.049,63.47,40.752,46.351,47.167z"/>
	<path fill-rule="evenodd" clip-rule="evenodd" fill="#FFFFFF" d="M102.244,62.653c8.625-0.02,15.584,6.813,15.527,15.242
		c-0.057,8.201-7.077,15.056-15.435,15.069c-8.39,0.015-15.224-6.753-15.293-15.142C86.975,69.445,93.761,62.673,102.244,62.653z
		 M102.145,87.039c5.342,0.059,9.547-3.865,9.697-9.045c0.149-5.201-3.954-9.366-9.269-9.403c-5.474-0.039-9.579,3.746-9.737,8.979
		C92.683,82.621,96.972,86.984,102.145,87.039z"/>
	<path fill-rule="evenodd" clip-rule="evenodd" fill="#FFFFFF" d="M41.546,92.964c-8.375,0.013-15.446-6.819-15.52-15
		c-0.077-8.471,6.85-15.324,15.475-15.311c8.356,0.014,15.464,6.998,15.375,15.111C56.784,86.129,49.904,92.95,41.546,92.964z
		 M41.308,87.041c5.291,0.034,9.605-4.016,9.706-9.111c0.1-5.104-4.135-9.306-9.415-9.338c-5.446-0.033-9.606,3.873-9.628,9.042
		C31.949,82.887,36.037,87.006,41.308,87.041z"/>
	<path fill-rule="evenodd" clip-rule="evenodd" fill="#FFFFFF" d="M107.564,77.745c0.021,2.766-2.331,5.075-5.16,5.066
		c-2.8-0.007-5.285-2.347-5.297-4.983c-0.011-2.723,2.346-4.994,5.214-5.025C105.206,72.771,107.544,74.974,107.564,77.745z"/>
</g>
</svg>
