<?xml version="1.0" encoding="utf-8"?>
<!-- Generator: Adobe Illustrator 16.0.0, SVG Export Plug-In . SVG Version: 6.00 Build 0)  -->
<!DOCTYPE svg PUBLIC "-//W3C//DTD SVG 1.1//EN" "http://www.w3.org/Graphics/SVG/1.1/DTD/svg11.dtd">
<svg version="1.1" id="Layer_1" xmlns="http://www.w3.org/2000/svg" xmlns:xlink="http://www.w3.org/1999/xlink" x="0px" y="0px"
	 width="144px" height="144px" viewBox="0 0 144 144" enable-background="new 0 0 144 144" xml:space="preserve">
<g>
	<path fill="#FFFFFF" d="M100.756,42.247c7.496-10.39,16.402-19.331,27.362-26.156c0.207-0.129,0.536-0.17,0.53-0.524
		c-37.833,0-75.666,0-113.499,0c0,16.521,0,33.043,0,49.564c0.533,0.018,0.934,0.354,1.372,0.585
		c9.603,5.082,18.622,11.043,27.104,17.802c10.023,7.986,18.971,16.986,26.232,27.562c0.883,1.286,1.718,2.604,2.675,4.06
		c0.801-5.371,1.833-10.482,3.062-15.557c2.268-9.362,5.184-18.518,8.841-27.436C88.768,61.587,94.056,51.536,100.756,42.247z"/>
	<path fill="#FFFFFF" d="M128.852,64.124c-2.082,0.501-4.023,1.351-5.898,2.355c-6.081,3.258-10.952,7.932-15.373,13.098
		c-6.33,7.397-11.472,15.584-16.103,24.104c-3.526,6.487-6.745,13.118-9.545,19.945c-0.646,1.573-1.426,3.119-1.81,4.791
		c15.958,0,31.917-0.028,47.875,0c0.751,0.001,0.874-0.177,0.873-0.884C128.848,106.396,128.852,85.26,128.852,64.124z"/>
	<path fill="#FFFFFF" d="M65.038,127.363c-4.222-3.792-9.021-6.772-13.909-9.607c-2.582-1.497-5.31-2.711-8.051-3.914
		c-4.945-2.17-10.047-3.789-15.304-4.987c-4.159-0.947-8.385-1.41-12.623-1.798c0,6.85,0.013,13.701-0.021,20.552
		c-0.003,0.69,0.137,0.826,0.833,0.825c16.717-0.025,33.434-0.02,50.151-0.02C65.754,128.063,65.41,127.697,65.038,127.363z"/>
</g>
</svg>
