<?xml version="1.0" encoding="utf-8"?>
<!-- Generator: Adobe Illustrator 16.0.0, SVG Export Plug-In . SVG Version: 6.00 Build 0)  -->
<!DOCTYPE svg PUBLIC "-//W3C//DTD SVG 1.1//EN" "http://www.w3.org/Graphics/SVG/1.1/DTD/svg11.dtd">
<svg version="1.1" id="Layer_1" xmlns="http://www.w3.org/2000/svg" xmlns:xlink="http://www.w3.org/1999/xlink" x="0px" y="0px"
	 width="144px" height="144px" viewBox="0 0 144 144" enable-background="new 0 0 144 144" xml:space="preserve">
<g>
	<path fill="#FFFFFF" d="M94.541,44.531c-3.289,0.182-6.08,1.539-7.777,4.41c-3.416,5.784-3.475,11.736-0.406,17.712
		c0.236,0.458,0.43,0.971,0.771,1.336c2.254,2.401,4.965,3.814,7.752,3.688c4.266-0.007,7.393-1.497,9.137-4.278
		c3.039-4.842,3.355-10.007,1.627-15.323C103.934,46.819,100.061,44.224,94.541,44.531z"/>
	<path fill="#FFFFFF" d="M15.149,15.567v112.85h113.722V15.567H15.149z M36.317,35.518c0.815-0.009,0.777,0.592,0.926,1.028
		c2.202,6.488,4.381,12.984,6.57,19.476c1.412,4.187,2.829,8.372,4.245,12.557c0.113,0.335,0.239,0.664,0.459,1.277
		c0.825-2.738,1.571-5.199,2.308-7.662c2.565-8.575,5.132-17.15,7.681-25.73c0.192-0.647,0.424-0.963,1.201-0.952
		c3.452,0.054,6.904,0.023,10.496,0.023c-0.808,2.368-1.583,4.653-2.366,6.936c-4.775,13.918-9.551,27.835-14.329,41.753
		c-0.572,1.666-1.217,3.307-2.11,4.83c-2.233,3.807-5.457,6.043-9.947,6.439c-3.344,0.295-6.586,0.021-9.763-1.061
		c-0.505-0.172-0.815-0.348-0.805-0.994c0.042-2.777,0.039-5.557,0.005-8.336c-0.009-0.721,0.209-0.668,0.771-0.479
		c2.504,0.838,5.054,1.482,7.723,0.971c2.655-0.508,3.925-2.484,3.114-5.066c-1.321-4.207-3.132-8.233-4.722-12.342
		c-2.212-5.715-4.467-11.414-6.703-17.121c-1.94-4.953-3.879-9.906-5.817-14.86c-0.066-0.168-0.121-0.341-0.237-0.671
		C28.886,35.536,32.602,35.559,36.317,35.518z M118.127,108.236c0.035,1.033-0.258,1.305-1.295,1.305
		c-15.615-0.035-31.23-0.025-46.845-0.025c-15.652,0-31.305-0.01-46.958,0.023c-1.026,0.002-1.315-0.258-1.284-1.289
		c0.08-2.551,0.049-5.105,0.01-7.656c-0.01-0.686,0.171-0.99,0.874-0.883c0.147,0.021,0.3,0.002,0.45,0.002
		c31.23,0,62.46,0.006,93.69-0.025c1.076-0.002,1.402,0.24,1.361,1.344C118.039,103.43,118.049,105.836,118.127,108.236z
		 M113.785,73.016c-4.652,6.817-11.389,9.324-19.457,8.566c-2.447-0.23-4.801-0.854-6.957-2.07
		c-0.736-0.416-1.525-0.775-1.998-1.564c-0.125-0.206-0.305-0.613-0.672-0.436c-0.275,0.133-0.125,0.474-0.127,0.716
		c-0.008,5.183-0.045,10.366,0.025,15.548c0.014,1.117-0.293,1.348-1.354,1.32c-2.928-0.08-5.859-0.053-8.788-0.012
		c-0.714,0.012-0.864-0.203-0.862-0.883c0.018-19.267,0.018-38.532,0-57.797c-0.001-0.686,0.158-0.895,0.869-0.885
		c3.078,0.041,6.158,0.039,9.236,0.001c0.691-0.008,0.93,0.163,0.883,0.873c-0.062,0.935-0.016,1.876-0.016,3.048
		c4.047-3.546,8.664-5.003,13.764-4.98c3.74,0.018,7.184,1.142,10.203,3.355c5.037,3.694,7.926,8.774,9.057,14.838
		C118.947,59.907,117.992,66.848,113.785,73.016z"/>
</g>
</svg>
