<?xml version="1.0" encoding="utf-8"?>
<!-- Generator: Adobe Illustrator 16.0.0, SVG Export Plug-In . SVG Version: 6.00 Build 0)  -->
<!DOCTYPE svg PUBLIC "-//W3C//DTD SVG 1.1//EN" "http://www.w3.org/Graphics/SVG/1.1/DTD/svg11.dtd">
<svg version="1.1" id="Layer_1" xmlns="http://www.w3.org/2000/svg" xmlns:xlink="http://www.w3.org/1999/xlink" x="0px" y="0px"
	 width="144px" height="144px" viewBox="0 0 144 144" enable-background="new 0 0 144 144" xml:space="preserve">
<path fill-rule="evenodd" clip-rule="evenodd" fill="#FFFFFF" d="M107.371,81.815c-0.266,0.776-0.573,1.698-0.896,2.613
	c-1.173,3.341-2.358,6.678-3.525,10.02c-0.311,0.89-0.586,1.792-0.859,2.695c-0.172,0.567-0.529,0.813-1.123,0.86
	c-3.07,0.248-6.144,0.474-9.207,0.8c-3.066,0.327-6.132,0.695-9.178,1.17c-4.479,0.699-8.943,1.489-13.407,2.274
	c-6.107,1.077-12.141,2.498-18.156,3.987c-3.937,0.973-7.86,2.003-11.761,3.108c-3.792,1.075-7.555,2.252-11.314,3.436
	c-2.18,0.687-4.326,1.479-6.493,2.207c-0.213,0.071-0.469,0.018-0.705,0.022c0.005-0.244-0.05-0.508,0.026-0.728
	c0.493-1.431,1.018-2.851,1.525-4.277c0.977-2.744,1.965-5.485,2.907-8.242c0.213-0.624,0.553-1.009,1.159-1.252
	c2.994-1.202,5.958-2.485,8.972-3.634c3.361-1.28,6.75-2.492,10.155-3.65c2.431-0.825,4.9-1.539,7.366-2.256
	c2.905-0.845,5.806-1.709,8.74-2.435c4.263-1.055,8.541-2.056,12.836-2.966c3.287-0.696,6.607-1.235,9.919-1.809
	c2.441-0.422,4.888-0.812,7.341-1.161c1.323-0.189,2.665-0.254,3.996-0.397c1.242-0.134,2.483-0.299,3.725-0.449
	c0.622-0.076,1.241-0.17,1.864-0.22c1.62-0.13,3.241-0.237,4.86-0.362c0.227-0.017,0.448-0.085,0.675-0.107
	C107.274,81.016,107.448,81.202,107.371,81.815z"/>
<path fill-rule="evenodd" clip-rule="evenodd" fill="#FFFFFF" d="M62.07,79.242c0.147-0.216,0.263-0.463,0.446-0.643
	c3.795-3.73,7.608-7.442,11.395-11.18c3.604-3.556,7.188-7.131,10.771-10.708c5.874-5.862,11.741-11.73,17.612-17.596
	c0.708-0.707,1.412-1.42,2.136-2.111c0.594-0.564,0.667-0.57,1.314-0.125c1.673,1.149,3.349,2.293,4.997,3.475
	c2.393,1.715,4.781,3.439,7.14,5.201c3.068,2.291,6.116,4.608,9.152,6.942c2.29,1.759,4.548,3.557,6.813,5.347
	c0.252,0.2,0.463,0.454,0.822,0.813c-0.557,0.146-0.922,0.292-1.298,0.332c-1.358,0.143-2.723,0.235-4.082,0.374
	c-1.359,0.139-2.713,0.323-4.07,0.466c-1.335,0.141-2.673,0.254-4.009,0.381c-1.733,0.164-3.467,0.334-5.201,0.491
	c-0.735,0.066-1.221,0.326-1.525,1.1c-0.943,2.391-2.034,4.723-2.757,7.198c-0.134,0.456-0.38,0.751-0.883,0.799
	c-1.051,0.1-2.102,0.21-3.149,0.324c-2.186,0.236-4.372,0.464-6.555,0.719c-5.447,0.639-10.825,1.709-16.198,2.78
	c-3.777,0.753-7.535,1.633-11.266,2.6c-3.538,0.917-7.027,2.022-10.54,3.038c-0.306,0.089-0.628,0.12-0.942,0.179
	C62.152,79.372,62.111,79.307,62.07,79.242z"/>
<path fill-rule="evenodd" clip-rule="evenodd" fill="#FFFFFF" d="M80.957,46.331c-0.248,0.871-0.863,1.204-1.314,1.642
	c-1.414,1.375-2.874,2.703-4.327,4.038c-2.378,2.186-4.77,4.356-7.147,6.543c-1.136,1.045-2.247,2.118-3.377,3.171
	c-1.568,1.462-3.151,2.91-4.713,4.378c-1.625,1.527-3.225,3.081-4.849,4.607c-1.938,1.82-3.902,3.611-5.835,5.436
	c-2.743,2.588-5.475,5.188-8.195,7.799c-2.578,2.475-5.14,4.966-7.701,7.458c-1.761,1.714-3.506,3.445-5.267,5.16
	c-0.28,0.273-0.604,0.501-0.903,0.745c-0.532-0.333-0.246-0.714-0.14-1.02c0.334-0.972,0.725-1.924,1.078-2.891
	c1.393-3.809,2.77-7.623,4.171-11.43c1.174-3.189,2.375-6.37,3.561-9.555c0.108-0.291,0.201-0.587,0.336-0.982
	c-1.456,0.211-2.83,0.379-4.192,0.613c-3.94,0.677-7.877,1.372-11.812,2.08c-1.234,0.223-2.458,0.507-3.686,0.764
	c-0.112,0.023-0.231,0.086-0.333,0.064c-0.206-0.045-0.401-0.134-0.601-0.205c0.065-0.176,0.087-0.391,0.203-0.52
	c0.438-0.49,0.903-0.954,1.364-1.422c1.706-1.731,3.424-3.452,5.119-5.194c1.257-1.291,2.482-2.612,3.725-3.916
	c0.454-0.477,0.858-1.031,1.391-1.394c0.698-0.476,1.48-0.847,2.263-1.177c3.503-1.479,7.112-2.67,10.731-3.82
	c4.298-1.365,8.604-2.706,12.922-4.007c2.54-0.767,5.104-1.454,7.665-2.147c2.67-0.723,5.345-1.434,8.028-2.108
	c3.623-0.911,7.255-1.783,10.886-2.661C80.269,46.319,80.553,46.35,80.957,46.331z"/>
<path fill-rule="evenodd" clip-rule="evenodd" fill="#FFFFFF" d="M102.53,34.819c-0.413,0.126-0.64,0.232-0.876,0.259
	c-0.425,0.047-0.856,0.036-1.284,0.067c-1.389,0.102-2.78,0.192-4.167,0.326c-1.641,0.159-3.284,0.321-4.918,0.545
	c-2.485,0.34-4.969,0.71-7.445,1.112c-2.45,0.396-4.901,0.802-7.336,1.283c-3.498,0.69-6.986,1.432-10.47,2.191
	c-2.871,0.626-5.737,1.275-8.588,1.981c-2.467,0.611-4.915,1.305-7.364,1.986c-1.567,0.436-3.121,0.921-4.683,1.375
	c-0.283,0.082-0.607,0.279-0.864-0.232c0.183-0.167,0.372-0.366,0.586-0.532c1.039-0.806,2.08-1.608,3.129-2.4
	c1.732-1.307,3.469-2.608,5.209-3.904c3.438-2.56,6.857-5.146,10.326-7.663c3.329-2.417,6.687-4.794,10.076-7.124
	c1.669-1.147,3.449-2.13,5.159-3.219c0.926-0.59,1.795-0.591,2.715,0.001c1.152,0.742,2.344,1.425,3.497,2.167
	c2.547,1.641,5.098,3.275,7.614,4.961c3.014,2.02,5.995,4.089,8.983,6.145C102.045,34.292,102.212,34.509,102.53,34.819z"/>
</svg>
