<?xml version="1.0" encoding="utf-8"?>
<!-- Generator: Adobe Illustrator 16.0.0, SVG Export Plug-In . SVG Version: 6.00 Build 0)  -->
<!DOCTYPE svg PUBLIC "-//W3C//DTD SVG 1.1//EN" "http://www.w3.org/Graphics/SVG/1.1/DTD/svg11.dtd">
<svg version="1.1" id="Layer_1" xmlns="http://www.w3.org/2000/svg" xmlns:xlink="http://www.w3.org/1999/xlink" x="0px" y="0px"
	 width="144px" height="144px" viewBox="0 0 144 144" enable-background="new 0 0 144 144" xml:space="preserve">
<g>
	<path fill-rule="evenodd" clip-rule="evenodd" fill="#FFFFFF" d="M109.735,109.012c1.869,3.381,3.678,6.652,5.651,10.223
		c-1.085,0.611-2.005,1.197-2.981,1.67c-25.027,12.156-50.43,12.918-76.231,2.564c-1.991-0.799-2.498-1.92-2.621-3.992
		c-0.231-3.889,0.973-7.016,3.15-10.211c18.284-26.84,36.426-53.775,54.605-80.685c0.521-0.769,1-1.566,1.8-2.825
		c-19.971,0-39.517,0-59.265,0c0-4.109,0-7.818,0-11.869c1.173,0,2.192,0,3.21,0c23.04,0,46.08,0.045,69.12-0.061
		c2.703-0.012,3.425,0.705,3.532,3.436c0.167,4.272-1.016,7.737-3.431,11.277C87.286,56.383,68.47,84.344,49.603,112.27
		c-0.525,0.777-1.032,1.564-1.846,2.801C69.375,121.643,89.795,119.414,109.735,109.012z"/>
	<path fill-rule="evenodd" clip-rule="evenodd" fill="#FFFFFF" d="M114.744,69.392c-0.094,4.753-4.004,8.552-8.769,8.517
		c-4.875-0.033-8.794-4.093-8.622-8.928c0.171-4.755,4.127-8.482,8.893-8.377C110.992,60.708,114.839,64.685,114.744,69.392z"/>
	<path fill-rule="evenodd" clip-rule="evenodd" fill="#FFFFFF" d="M45.877,69.336c-0.039,4.819-3.817,8.558-8.646,8.558
		c-4.921,0.002-8.719-3.906-8.615-8.864c0.101-4.788,3.976-8.508,8.779-8.428C42.192,60.683,45.917,64.517,45.877,69.336z"/>
</g>
</svg>
