<?xml version="1.0" encoding="utf-8"?>
<!-- Generator: Adobe Illustrator 16.0.0, SVG Export Plug-In . SVG Version: 6.00 Build 0)  -->
<!DOCTYPE svg PUBLIC "-//W3C//DTD SVG 1.1//EN" "http://www.w3.org/Graphics/SVG/1.1/DTD/svg11.dtd">
<svg version="1.1" id="Layer_1" xmlns="http://www.w3.org/2000/svg" xmlns:xlink="http://www.w3.org/1999/xlink" x="0px" y="0px"
	 width="200px" height="200px" viewBox="0 0 200 200" enable-background="new 0 0 200 200" xml:space="preserve">
<polyline fill="none" stroke="#7DBED5" stroke-width="5" stroke-miterlimit="10" points="159.622,81.198 98.57,31.625 
	39.029,81.221 "/>
<polyline fill="#FFFFFF" stroke="#7DBED5" stroke-width="3" stroke-miterlimit="10" points="143.885,104.961 143.868,58.359 
	56.407,58.394 57.095,104.186 "/>
<g>
	<g>
		<defs>
			<rect id="SVGID_1_" x="29.915" y="31.625" width="140.17" height="143.75"/>
		</defs>
		<clipPath id="SVGID_2_">
			<use xlink:href="#SVGID_1_"  overflow="visible"/>
		</clipPath>
		<path clip-path="url(#SVGID_2_)" fill="#7DBED5" d="M45.104,165.19c-5.992-0.01-10.939-5.428-11.04-12.081l-0.045-65.796
			c-0.052-3.456,0.826-7.771,7.037-11.453c2.43-1.44,1.029-0.734,3.74-0.734c0.001,0-0.931,0.666-0.93,0.666l0.992,4.251
			c0,0-0.004,0.143-0.004,0.145c-0.838,0.896-1.701,2.054-2.342,2.98c-0.782,1.129-1.506,2.452-1.482,4.041l0.045,65.793
			c0.042,2.801,1.887,5.173,4.029,5.176l74.259-0.124l17.385,0.104l19.391-0.007c0.001,0,0.003,0,0.004,0
			c1.05,0,1.82-0.559,2.281-1.027c0.965-0.978,1.504-2.451,1.479-4.041l0.099-65.287c-0.04-2.805-2.759-4.796-5.039-6.667l0,0
			l-0.18-4.875c-0.174,1.111-2.532-1.486-2.531-1.486c7.05-0.219,14.268,6.233,14.764,12.002l-0.1,66.206
			c0.053,3.456-1.223,6.764-3.499,9.071c-1.98,2.009-4.562,3.116-7.269,3.116c-0.004,0-0.009,0-0.014,0l-19.408,0.007l-17.379-0.104
			L45.104,165.19z"/>
	</g>
	<g>
		<defs>
			<rect id="SVGID_3_" x="29.915" y="31.625" width="140.17" height="143.75"/>
		</defs>
		<clipPath id="SVGID_4_">
			<use xlink:href="#SVGID_3_"  overflow="visible"/>
		</clipPath>
		<path clip-path="url(#SVGID_4_)" fill="none" stroke="#7DBED5" stroke-width="3" stroke-miterlimit="10" d="M46.824,148.787
			c-0.368-0.791-0.536-2.26-0.553-3.187V97.037l34.103,22.23L46.824,148.787z"/>
	</g>
	<g>
		<defs>
			<rect id="SVGID_5_" x="29.915" y="31.625" width="140.17" height="143.75"/>
		</defs>
		<clipPath id="SVGID_6_">
			<use xlink:href="#SVGID_5_"  overflow="visible"/>
		</clipPath>
		<path clip-path="url(#SVGID_6_)" fill="none" stroke="#7DBED5" stroke-width="3" stroke-miterlimit="10" d="M118.779,151.911
			l-64.521,0.045c-1.456,0.002-1.456,0.002-2.976,0.002l33.12-30.256l15.803,9.913l15.149-9.774l35.358,29.411
			c-1.781,0.464-2.728,0.48-4.207,0.484l-14.819,0.161L118.779,151.911z"/>
	</g>
	<g>
		<defs>
			<rect id="SVGID_7_" x="29.915" y="31.625" width="140.17" height="143.75"/>
		</defs>
		<clipPath id="SVGID_8_">
			<use xlink:href="#SVGID_7_"  overflow="visible"/>
		</clipPath>
		<path clip-path="url(#SVGID_8_)" fill="none" stroke="#7DBED5" stroke-width="3" stroke-miterlimit="10" d="M119.747,119.231
			l34.813-21.726v48.021c0.014,0.891-0.158,1.739-0.477,2.509L119.747,119.231z"/>
	</g>
</g>
</svg>
