<?xml version="1.0" encoding="utf-8"?>
<!-- Generator: Adobe Illustrator 16.0.0, SVG Export Plug-In . SVG Version: 6.00 Build 0)  -->
<!DOCTYPE svg PUBLIC "-//W3C//DTD SVG 1.1//EN" "http://www.w3.org/Graphics/SVG/1.1/DTD/svg11.dtd">
<svg version="1.1" id="Layer_1" xmlns="http://www.w3.org/2000/svg" xmlns:xlink="http://www.w3.org/1999/xlink" x="0px" y="0px"
	 width="200px" height="200px" viewBox="0 0 200 200" enable-background="new 0 0 200 200" xml:space="preserve">
<path fill="none" stroke="#7DBED4" stroke-width="3" stroke-miterlimit="10" d="M50.948,151.668c0,0.556-3.669,1.005-8.187,1.005
	c-4.566,0-8.294-0.446-8.294-1.005V90.819c0-0.552,3.729-0.997,8.294-0.997c4.518,0,8.187,0.445,8.187,0.997V151.668z"/>
<path fill="none" stroke="#7DBED4" stroke-width="3" stroke-miterlimit="10" d="M74.281,151.937c0,0.405-3.653,0.734-8.19,0.734
	c-4.557,0-8.274-0.329-8.274-0.734v-44.38c0-0.408,3.717-0.727,8.274-0.727c4.539,0,8.19,0.318,8.19,0.727V151.937z"/>
<path fill="none" stroke="#7DBED4" stroke-width="3" stroke-miterlimit="10" d="M97.307,151.269c0,0.78-3.657,1.404-8.185,1.404
	c-4.56,0-8.279-0.624-8.279-1.404V66.351c0-0.767,3.717-1.38,8.279-1.38c4.528,0,8.185,0.613,8.185,1.38V151.269z"/>
<path fill="none" stroke="#7DBED4" stroke-width="3" stroke-miterlimit="10" d="M120.252,151.862c0,0.451-3.67,0.809-8.198,0.809
	c-4.551,0-8.268-0.357-8.268-0.809v-48.595c0-0.446,3.717-0.8,8.268-0.8c4.528,0,8.198,0.354,8.198,0.8V151.862z"/>
<path fill="none" stroke="#7DBED4" stroke-width="3" stroke-miterlimit="10" d="M143.602,151.607c0,0.595-3.669,1.065-8.203,1.065
	c-4.56,0-8.277-0.471-8.277-1.065V87.175c0-0.59,3.718-1.06,8.277-1.06c4.534,0,8.203,0.47,8.203,1.06V151.607z"/>
<path fill="none" stroke="#7DBED4" stroke-width="3" stroke-miterlimit="10" d="M166.616,151.937c0,0.405-3.646,0.734-8.187,0.734
	c-4.56,0-8.279-0.329-8.279-0.734v-44.38c0-0.408,3.72-0.727,8.279-0.727c4.54,0,8.187,0.318,8.187,0.727V151.937z"/>
<line fill="none" stroke="#7DBED4" stroke-width="5" stroke-miterlimit="10" x1="18.877" y1="45.818" x2="18.877" y2="167.5"/>
<line fill="none" stroke="#7DBED4" stroke-width="5" stroke-miterlimit="10" x1="15.51" y1="167.5" x2="180.5" y2="167.5"/>
</svg>
