<?xml version="1.0" encoding="utf-8"?>
<!-- Generator: Adobe Illustrator 16.0.0, SVG Export Plug-In . SVG Version: 6.00 Build 0)  -->
<!DOCTYPE svg PUBLIC "-//W3C//DTD SVG 1.1//EN" "http://www.w3.org/Graphics/SVG/1.1/DTD/svg11.dtd">
<svg version="1.1" id="Layer_1" xmlns="http://www.w3.org/2000/svg" xmlns:xlink="http://www.w3.org/1999/xlink" x="0px" y="0px"
	 width="200px" height="200px" viewBox="0 0 200 200" enable-background="new 0 0 200 200" xml:space="preserve">
<path fill="#7DBED4" d="M136.379,64.445c-0.566-25.032-11.962-38.985-36.621-38.903c-22.603,0.073-34.403,15.693-34.25,38.911
	c0.063,9.855,0.649,19.942-1.5,29.472c0.518,0.458-0.519,2.027,0,2.479c6.895-0.628,9.765-7.096,16.894-1.801
	c1.784,1.324,4.311,0.718,6.235-0.944c-0.286-0.198-0.575-0.335-0.861-0.549c-0.032-9.233,0.021-18.47-0.122-27.707
	c-0.133-8.905,3.728-20.928,13.843-20.606c11.353,0.361,14.594,11.06,14.661,21.208c0.064,8.732,0.205,17.085-0.802,25.828
	c7.312-2.203,14.326-2.732,20.986,2.612c1.812,1.452,2.712,5.053,4.575,3.061C134.214,88.325,136.602,74.058,136.379,64.445z"/>
<path fill="#7DBED4" d="M149.381,82.562H50.618c-10.747,0-19.459,7.317-19.459,16.338v73.788c0,0.608,0.136,1.188,0.213,1.769
	h137.253v0.002c0.08-0.584,0.214-1.161,0.214-1.77V98.9C168.84,89.878,160.127,82.562,149.381,82.562z M106.475,133.634V154.8
	H93.532v-21.162c-4.401-2.434-7.432-7.195-7.432-12.744c0-7.994,6.222-14.472,13.896-14.472c7.684,0,13.905,6.478,13.905,14.472
	C113.902,126.442,110.872,131.201,106.475,133.634z"/>
<path fill="#659AA8" d="M168.625,174.458c0.08-0.583,0.215-1.16,0.215-1.769V98.9c0-9.021-8.713-16.338-19.459-16.338h-13.002
	v91.896H168.625z"/>
</svg>
