<?xml version="1.0" encoding="utf-8"?>
<!-- Generator: Adobe Illustrator 16.0.0, SVG Export Plug-In . SVG Version: 6.00 Build 0)  -->
<!DOCTYPE svg PUBLIC "-//W3C//DTD SVG 1.1//EN" "http://www.w3.org/Graphics/SVG/1.1/DTD/svg11.dtd">
<svg version="1.1" id="Layer_1" xmlns="http://www.w3.org/2000/svg" xmlns:xlink="http://www.w3.org/1999/xlink" x="0px" y="0px"
	 width="200px" height="200px" viewBox="0 0 200 200" enable-background="new 0 0 200 200" xml:space="preserve">
<g>
	<g>
		<g>
			<path fill="#6F91A8" d="M143.637,182.561c5.874-0.316,11.756-0.683,17.635-1.096c4.484-0.318,8.539-5.51,9.121-11.576
				c2.59-27.646,6.027-55.287,10.282-82.915c0.964-6.056-2.591-11.18-7.974-11.428c-48.562-2.069-97.071-2.16-145.515-0.331
				c-5.373,0.213-8.858,5.423-7.843,11.595c4.512,28.199,8.14,56.381,10.888,84.557c0.612,6.171,4.691,11.377,9.159,11.596
				c32.833,0.438,46.104,0.442,81.508-0.386L143.637,182.561z"/>
			<path fill="#FFFFFF" d="M41.317,164.764c-0.483-1.086-0.805-2.277-0.913-3.521c-1.918-21.718-4.271-43.452-7.06-65.21
				c15.546,9.523,30.226,19.443,44.203,29.408C64.741,138.809,52.764,152.045,41.317,164.764z"/>
			<path fill="#FFFFFF" d="M48.163,170.062c-1.598-0.035-3.125-0.738-4.405-1.893c11.77-13.05,24.091-26.63,37.281-40.339
				c6.738,4.88,13.31,9.767,19.74,14.618c6.433-4.943,13.018-9.889,19.762-14.805c13.262,13.486,25.666,26.713,37.498,39.271
				c-1.286,1.188-2.83,1.939-4.471,2.025C118.408,170.635,83.272,171.018,48.163,170.062z"/>
			<path fill="#FFFFFF" d="M124.02,125.246c13.904-10.018,28.522-19.872,44.012-29.214c-2.652,21.36-4.893,42.721-6.713,64.065
				c-0.111,1.191-0.402,2.328-0.862,3.385C148.938,151.255,136.889,138.381,124.02,125.246z"/>
			<path fill="#6F91A8" d="M167.582,87.166c-24.287,0.169-48.436,0.775-72.437,1.736c-21.176-0.885-42.448-1.519-63.816-1.818
				c-3.228-3.062-6.514-6.099-9.863-9.114C44.33,57.632,69.78,36.493,98.958,16.746c29.735,20.386,56.296,41.422,79.614,61.696
				C175.051,81.173,170.98,84.353,167.582,87.166z"/>
			<g>
				<g>
					<path fill="#FFFFFF" d="M147.229,96.496c-6.666-0.259-13.328-0.503-20.004-0.715c-2.931,10.583-13.761-5.439-27.064-5.368
						c-13.481,0.048-25.972,16.315-28.839,5.443c-6.077,0.011-12.152,0.046-18.232,0.089c0.323,3.642,0.642,7.276,0.946,10.917
						c16.241,7.682,31.798,15.604,46.781,23.428c14.541-7.562,29.617-15.109,45.33-22.364
						C146.501,104.114,146.859,100.303,147.229,96.496z"/>
				</g>
				<g>
					<g>
						<path fill="#FFFFFF" d="M152.299,100.902c1.811-19.756,3.887-39.54,6.225-59.338c-39.445-2.197-78.852-2.399-118.225-0.642
							c2.567,19.795,4.84,39.566,6.832,59.315"/>
						<path fill="#7DBED5" d="M151.904,105.26c-2.646,1.208-5.281,2.43-7.891,3.652c1.521-20.196,3.274-40.418,5.27-60.662
							c-33.018-1.333-65.977-1.355-98.883-0.11c2.125,19.919,4.001,39.809,5.639,59.667c-2.847-1.369-5.713-2.724-8.6-4.074
							C45.379,82.82,43,61.882,40.299,40.921c39.374-1.757,78.787-1.557,118.225,0.642C156.012,62.82,153.801,84.053,151.904,105.26
							z"/>
					</g>
				</g>
			</g>
		</g>
	</g>
</g>
<g>
	<path fill="#555555" stroke="#333333" stroke-width="3" stroke-miterlimit="10" enable-background="new    " d="M91.79,54.489
		c12.456-10.66,30.424-10.691,42.718,0.137c11.335,9.992,14.596,27.006,6.114,41.071c-4.143,6.872-10.158,11.472-17.748,13.865
		c-9.311,2.933-18.242,1.806-26.672-3.196c-0.172,0.183-0.327,0.341-0.472,0.502c-0.679,0.751-2.97,0.937-4.082,2.178
		c-5.175,5.777-12.686,16.593-15.851,20.09c-1.101,1.215-2.18,2.453-3.335,3.609c-2.692,2.7-7.704,1.929-9.358-2.191
		c-0.955-2.367-0.327-4.483,1.367-6.356c3.854-4.259,15.02-13.718,20.877-20.264c1.252-1.4,0.723-3.886,1.546-4.799
		c0.178-0.199,0.404-0.355,0.625-0.543C76.127,83.638,80.371,64.26,91.79,54.489z M114.207,99.351
		c11.394-0.656,20.001-10.35,19.428-21.681c-0.562-11.175-10.521-20.072-21.632-19.407c-11.371,0.681-20.083,10.302-19.448,21.646
		C93.187,91.308,102.872,100.004,114.207,99.351z"/>
	<path opacity="0.95" fill="#A5CAD3" enable-background="new    " d="M114.412,99.327c11.394-0.657,20.004-10.352,19.428-21.682
		c-0.559-11.177-10.521-20.072-21.632-19.407c-11.369,0.68-20.082,10.301-19.446,21.646
		C93.392,91.281,103.081,99.979,114.412,99.327z"/>
	<path fill="#689EAD" d="M121.092,67.957c-5.842-6.143-12.729-7.002-18.783-1.136c-6.194,6.005-5.281,12.217-0.634,18.519
		c0,0,1.635-4.95,2.34-7.138c0.998-3.101,1.412-3.233,2.717-4.482c1.232-1.175,3.264-3.743,6.762-4.902
		C118.071,67.298,121.092,67.957,121.092,67.957z"/>
</g>
</svg>
