<?xml version="1.0" encoding="utf-8"?>
<!-- Generator: Adobe Illustrator 16.0.0, SVG Export Plug-In . SVG Version: 6.00 Build 0)  -->
<!DOCTYPE svg PUBLIC "-//W3C//DTD SVG 1.1//EN" "http://www.w3.org/Graphics/SVG/1.1/DTD/svg11.dtd">
<svg version="1.1" id="Layer_1" xmlns="http://www.w3.org/2000/svg" xmlns:xlink="http://www.w3.org/1999/xlink" x="0px" y="0px"
	 width="200px" height="200px" viewBox="0 0 200 200" enable-background="new 0 0 200 200" xml:space="preserve">
<rect x="32.302" y="131.505" fill="#7DBED4" width="99.933" height="13.913"/>
<rect x="32.302" y="63.746" fill="#7DBED4" width="99.933" height="13.913"/>
<rect x="32.302" y="97.699" fill="#7DBED4" width="99.933" height="13.911"/>
<g>
	<path fill="#FFFFFF" d="M82.136,174.483c0,0.02,0,0.04,0,0.061c13.964,0,27.927,0.008,41.891-0.014
		c1.583-0.002,3.173-0.102,4.745-0.276c13.889-1.546,25.26-13.702,25.683-27.647c0.208-6.841,0.058-13.688,0.104-20.533
		c0.012-1.636-0.468-2.897-2.081-3.538c-1.532-0.612-2.767-0.097-3.859,0.998c-1.895,1.899-3.773,3.816-5.7,5.684
		c-1.05,1.019-1.53,2.188-1.513,3.657c0.045,3.724,0.016,7.448,0.015,11.171c-0.002,10.432-6.965,17.387-17.405,17.387
		c-27.983,0-55.965,0-83.948-0.004c-9.862,0-16.965-7.112-16.966-16.997c-0.003-28.037-0.002-56.074,0-84.112
		c0.001-10.228,6.992-17.222,17.213-17.223c27.818-0.002,55.635-0.011,83.454,0.023c1.846,0.002,3.708,0.251,5.529,0.573
		c1.609,0.284,2.882-0.041,4.008-1.231c1.393-1.471,2.873-2.857,4.286-4.309c2.118-2.176,1.579-4.654-1.223-5.857
		c-3.675-1.578-7.522-2.305-11.506-2.306c-28.365-0.01-56.73-0.054-85.096,0.06c-3.23,0.013-6.599,0.507-9.661,1.516
		C17.802,35.618,9.988,46.792,9.978,59.951c-0.02,27.873-0.011,55.746,0.007,83.618c0.001,1.801,0.097,3.612,0.298,5.401
		c1.532,13.646,13.776,25.21,27.5,25.454C52.563,174.687,67.352,174.483,82.136,174.483z M174.028,79.365
		c-9.849-9.852-19.627-19.632-29.479-29.484c-0.297,0.274-0.7,0.625-1.079,1.003c-13.886,13.914-27.765,27.834-41.654,41.746
		c-8.357,8.371-16.74,16.716-25.06,25.123c-0.572,0.579-1.01,1.576-1.017,2.384c-0.072,8.816-0.047,17.632-0.042,26.448
		c0.001,0.525,0.052,1.051,0.084,1.667c0.688,0,1.229,0,1.769,0c8.707,0,17.414-0.025,26.121,0.032
		c1.213,0.008,2.018-0.387,2.845-1.222c9.987-10.068,19.999-20.112,30.021-30.148c12.111-12.129,24.237-24.24,36.356-36.362
		C173.312,80.133,173.714,79.696,174.028,79.365z M151.603,42.624c9.97,9.968,19.766,19.763,29.621,29.619
		c2.674-2.679,5.532-5.542,8.388-8.407c0.385-0.387,0.769-0.776,1.128-1.188c3.08-3.538,3.374-9.149,0.212-12.474
		c-5.577-5.861-11.319-11.574-17.165-17.167c-2.983-2.855-8.39-3.121-11.545-0.471C158.413,35.755,154.952,39.415,151.603,42.624z"
		/>
	<path fill-rule="evenodd" clip-rule="evenodd" fill="#7090AC" d="M82.136,174.483c-14.784,0-29.573,0.203-44.353-0.059
		c-13.724-0.244-25.968-11.809-27.5-25.454c-0.201-1.789-0.297-3.601-0.298-5.401c-0.018-27.872-0.027-55.745-0.007-83.618
		c0.01-13.159,7.824-24.333,20.128-28.387c3.062-1.009,6.431-1.503,9.661-1.516c28.366-0.114,56.731-0.07,85.096-0.06
		c3.983,0.001,7.831,0.728,11.506,2.306c2.802,1.203,3.341,3.681,1.223,5.857c-1.413,1.452-2.894,2.838-4.286,4.309
		c-1.126,1.19-2.398,1.515-4.008,1.231c-1.821-0.321-3.684-0.57-5.529-0.573c-27.819-0.035-55.636-0.026-83.454-0.023
		c-10.221,0.001-17.212,6.995-17.213,17.223c-0.002,28.038-0.003,56.075,0,84.112c0.001,9.885,7.104,16.997,16.966,16.997
		c27.983,0.004,55.964,0.004,83.948,0.004c10.44,0,17.403-6.955,17.405-17.387c0.001-3.723,0.03-7.447-0.015-11.171
		c-0.018-1.47,0.463-2.639,1.513-3.657c1.927-1.867,3.806-3.784,5.7-5.684c1.093-1.095,2.327-1.61,3.859-0.998
		c1.613,0.641,2.093,1.902,2.081,3.538c-0.047,6.845,0.104,13.692-0.104,20.533c-0.423,13.945-11.794,26.102-25.683,27.647
		c-1.572,0.175-3.162,0.274-4.745,0.276c-13.964,0.021-27.927,0.014-41.891,0.014C82.136,174.523,82.136,174.503,82.136,174.483z"/>
	<path fill-rule="evenodd" clip-rule="evenodd" fill="#5E7B8D" d="M174.028,79.365c-0.314,0.331-0.716,0.768-1.135,1.187
		c-12.119,12.122-24.245,24.233-36.356,36.362c-10.021,10.036-20.033,20.08-30.021,30.148c-0.827,0.835-1.632,1.229-2.845,1.222
		c-8.707-0.058-17.414-0.032-26.121-0.032c-0.54,0-1.081,0-1.769,0c-0.032-0.616-0.083-1.142-0.084-1.667
		c-0.004-8.816-0.029-17.632,0.042-26.448c0.007-0.808,0.444-1.805,1.017-2.384c8.32-8.406,16.703-16.752,25.06-25.123
		c13.89-13.912,27.769-27.832,41.654-41.746c0.379-0.378,0.782-0.729,1.079-1.003C154.401,59.733,164.18,69.513,174.028,79.365z
		 M97.375,110.92c-3.83,3.847-7.645,7.677-11.449,11.518c-0.178,0.181-0.362,0.458-0.366,0.693
		c-0.031,1.779-0.017,3.562-0.017,5.472c3.385,0,6.535,0,9.877,0c0,3.323,0,6.516,0,9.823c1.496,0,2.805-0.074,4.101,0.022
		c1.195,0.091,2.028-0.309,2.86-1.171c2.809-2.914,5.687-5.759,8.575-8.593c0.723-0.711,1.576-1.29,2.308-1.878
		C107.779,121.321,102.679,116.223,97.375,110.92z M147.261,66.26c-0.263-0.607-0.372-1.038-0.61-1.382
		c-1.062-1.543-2.467-1.513-4.095,0.115c-11.727,11.714-23.444,23.437-35.162,35.158c-0.233,0.232-0.463,0.468-0.669,0.722
		c-0.82,1.016-0.74,2.007,0.134,2.939c0.864,0.919,1.859,1.146,2.924,0.379c0.572-0.411,1.093-0.907,1.594-1.407
		c9.561-9.549,19.112-19.103,28.668-28.657c1.896-1.895,3.816-3.764,5.669-5.7C146.33,67.784,146.766,66.966,147.261,66.26z"/>
	<path fill-rule="evenodd" clip-rule="evenodd" fill="#5E7B8D" d="M151.603,42.624c3.35-3.209,6.811-6.868,10.639-10.088
		c3.155-2.65,8.562-2.384,11.545,0.471c5.846,5.593,11.588,11.306,17.165,17.167c3.162,3.324,2.868,8.936-0.212,12.474
		c-0.359,0.412-0.743,0.801-1.128,1.188c-2.855,2.866-5.714,5.729-8.388,8.407C171.368,62.387,161.572,52.592,151.603,42.624z"/>
	<path fill-rule="evenodd" clip-rule="evenodd" fill="#FFFFFF" d="M97.375,110.92c5.303,5.303,10.404,10.401,15.889,15.887
		c-0.731,0.588-1.585,1.167-2.308,1.878c-2.889,2.834-5.767,5.679-8.575,8.593c-0.832,0.862-1.665,1.262-2.86,1.171
		c-1.296-0.097-2.605-0.022-4.101-0.022c0-3.308,0-6.5,0-9.823c-3.342,0-6.493,0-9.877,0c0-1.909-0.014-3.692,0.017-5.472
		c0.003-0.235,0.188-0.513,0.366-0.693C89.731,118.597,93.546,114.767,97.375,110.92z"/>
	<path fill-rule="evenodd" clip-rule="evenodd" fill="#FFFFFF" d="M147.261,66.26c-0.495,0.706-0.931,1.523-1.548,2.167
		c-1.853,1.937-3.773,3.805-5.669,5.7c-9.556,9.554-19.107,19.108-28.668,28.657c-0.501,0.5-1.021,0.996-1.594,1.407
		c-1.064,0.768-2.06,0.54-2.924-0.379c-0.874-0.933-0.954-1.924-0.134-2.939c0.206-0.254,0.436-0.49,0.669-0.722
		c11.718-11.722,23.436-23.444,35.162-35.158c1.628-1.627,3.032-1.658,4.095-0.115C146.889,65.222,146.998,65.653,147.261,66.26z"/>
</g>
</svg>
