<?xml version="1.0" encoding="utf-8"?>
<!-- Generator: Adobe Illustrator 16.0.0, SVG Export Plug-In . SVG Version: 6.00 Build 0)  -->
<!DOCTYPE svg PUBLIC "-//W3C//DTD SVG 1.1//EN" "http://www.w3.org/Graphics/SVG/1.1/DTD/svg11.dtd">
<svg version="1.1" id="Layer_1" xmlns="http://www.w3.org/2000/svg" xmlns:xlink="http://www.w3.org/1999/xlink" x="0px" y="0px"
	 width="200px" height="200px" viewBox="0 0 200 200" enable-background="new 0 0 200 200" xml:space="preserve">
<g>
	<g>
		<path fill="#7DBED5" d="M10.335,177.265c0,0.9-0.838,1.626-1.891,1.626c-1.055,0-1.912-0.726-1.912-1.626v-99.16
			c0-0.904,0.856-1.622,1.912-1.622c1.053,0,1.891,0.718,1.891,1.622V177.265z"/>
		<path fill="#7DBED5" d="M10.121,178.891c-1.655,0-2.976-0.978-2.976-2.192c0-1.211,1.32-2.205,2.976-2.205h181.146
			c1.666,0,2.975,0.994,2.975,2.205c0,1.215-1.309,2.192-2.975,2.192H10.121z"/>
		<path fill="#7190AB" d="M35.373,164.906c0,0.565-3.741,1.022-8.349,1.022c-4.66,0-8.461-0.457-8.461-1.022v-62.062
			c0-0.56,3.801-1.016,8.461-1.016c4.608,0,8.349,0.456,8.349,1.016V164.906z"/>
		<path fill="#7190AB" d="M59.173,165.183c0,0.42-3.724,0.749-8.359,0.749c-4.644,0-8.436-0.329-8.436-0.749v-45.268
			c0-0.415,3.792-0.741,8.436-0.741c4.635,0,8.359,0.326,8.359,0.741V165.183z"/>
		<path fill="#7190AB" d="M82.659,164.502c0,0.799-3.729,1.43-8.349,1.43c-4.654,0-8.446-0.631-8.446-1.43V77.89
			c0-0.783,3.792-1.407,8.446-1.407c4.62,0,8.349,0.625,8.349,1.407V164.502z"/>
		<path fill="#7190AB" d="M106.059,165.113c0,0.457-3.742,0.815-8.356,0.815c-4.644,0-8.437-0.358-8.437-0.815v-49.572
			c0-0.45,3.793-0.814,8.437-0.814c4.614,0,8.356,0.364,8.356,0.814V165.113z"/>
		<path fill="#7190AB" d="M129.878,164.846c0,0.604-3.741,1.083-8.363,1.083c-4.661,0-8.444-0.479-8.444-1.083V99.127
			c0-0.6,3.783-1.079,8.444-1.079c4.622,0,8.363,0.479,8.363,1.079V164.846z"/>
		<path fill="#7190AB" d="M153.353,165.183c0,0.42-3.72,0.749-8.347,0.749c-4.654,0-8.446-0.329-8.446-0.749v-45.268
			c0-0.415,3.792-0.741,8.446-0.741c4.627,0,8.347,0.326,8.347,0.741V165.183z"/>
		<path fill="#7190AB" d="M175.773,164.556c0,0.771-3.723,1.376-8.349,1.376c-4.654,0-8.445-0.604-8.445-1.376V81.582
			c0-0.759,3.791-1.362,8.445-1.362c4.626,0,8.349,0.604,8.349,1.362V164.556z"/>
		
			<rect x="47.992" y="37.252" transform="matrix(0.5905 0.807 -0.807 0.5905 75.0974 -12.1194)" fill="#7DBED5" width="3" height="61.384"/>
	</g>
	<polygon fill="#7DBED5" points="96.677,69.632 70.798,51.506 73.118,48.134 98.996,66.259 	"/>
	<polygon fill="#7DBED5" points="145.187,79.324 118.925,60.461 121.531,57.304 147.79,76.166 	"/>
	
		<rect x="107.797" y="49.795" transform="matrix(0.3076 0.9515 -0.9515 0.3076 136.0213 -60.0854)" fill="#7DBED5" width="3" height="27.252"/>
	<polygon fill="#7DBED5" points="145.187,79.324 142.121,76.61 166.898,47.772 169.966,50.484 	"/>
	<polygon fill="#7DBED5" points="172.146,45.27 162.751,45.42 172.383,54.287 	"/>
</g>
</svg>
