<?xml version="1.0" encoding="utf-8"?>
<!-- Generator: Adobe Illustrator 16.0.0, SVG Export Plug-In . SVG Version: 6.00 Build 0)  -->
<!DOCTYPE svg PUBLIC "-//W3C//DTD SVG 1.1//EN" "http://www.w3.org/Graphics/SVG/1.1/DTD/svg11.dtd">
<svg version="1.1" id="Layer_1" xmlns="http://www.w3.org/2000/svg" xmlns:xlink="http://www.w3.org/1999/xlink" x="0px" y="0px"
	 width="200px" height="200px" viewBox="0 0 200 200" enable-background="new 0 0 200 200" xml:space="preserve">
<circle fill="#FFFFFF" stroke="#7EBED5" stroke-width="6" stroke-miterlimit="10" cx="100.75" cy="99.75" r="92.25"/>
<g>
	<path fill="#4CACCD" d="M165.452,139.563c-43.324-0.139-86.649-0.279-129.972-0.415c0.311-23.547,0.622-47.094,0.933-70.641
		c0.008-0.662-0.586-1.205-1.342-1.225c-0.759-0.02-1.381,0.492-1.39,1.155c-0.32,24.245-0.64,48.489-0.96,72.732
		c-0.009,0.66,0.599,1.194,1.358,1.196c0.185,0.001,0.359-0.034,0.519-0.091c0.216,0.057,0.444,0.093,0.685,0.094
		c43.376,0.094,86.752,0.189,130.129,0.281c1.191,0.002,2.146-0.681,2.158-1.534C167.58,140.267,166.646,139.566,165.452,139.563z"
		/>
	
		<linearGradient id="SVGID_1_" gradientUnits="userSpaceOnUse" x1="254.0986" y1="501.3223" x2="266.1748" y2="501.3223" gradientTransform="matrix(0.9999 0.0132 -0.0132 0.9999 -205.6738 -395.1729)">
		<stop  offset="0" style="stop-color:#7EBFD4"/>
		<stop  offset="0.2242" style="stop-color:#74BBD2"/>
		<stop  offset="0.613" style="stop-color:#57B0CD"/>
		<stop  offset="0.7307" style="stop-color:#4CACCD"/>
	</linearGradient>
	<path opacity="0.8" fill="url(#SVGID_1_)" enable-background="new    " d="M53.559,132.216c-0.005,0.412-2.698,0.734-6.007,0.716
		c-3.348-0.017-6.075-0.364-6.07-0.78c0.2-15.133,0.399-30.264,0.599-45.394c0.005-0.411,2.741-0.689,6.088-0.622
		c3.309,0.066,5.992,0.452,5.986,0.86C53.956,102.069,53.758,117.144,53.559,132.216z"/>
	
		<linearGradient id="SVGID_2_" gradientUnits="userSpaceOnUse" x1="271.207" y1="507.6113" x2="283.2715" y2="507.6113" gradientTransform="matrix(0.9999 0.0132 -0.0132 0.9999 -205.6738 -395.1729)">
		<stop  offset="0" style="stop-color:#7EBFD4"/>
		<stop  offset="0.2242" style="stop-color:#74BBD2"/>
		<stop  offset="0.613" style="stop-color:#57B0CD"/>
		<stop  offset="0.7307" style="stop-color:#4CACCD"/>
	</linearGradient>
	<path opacity="0.8" fill="url(#SVGID_2_)" enable-background="new    " d="M70.652,132.511c-0.004,0.305-2.681,0.527-6.011,0.511
		c-3.335-0.019-6.057-0.269-6.052-0.575c0.145-10.978,0.29-21.956,0.434-32.934c0.004-0.301,2.731-0.495,6.066-0.442
		c3.33,0.053,6,0.332,5.997,0.632C70.941,110.638,70.796,121.575,70.652,132.511z"/>
	
		<linearGradient id="SVGID_3_" gradientUnits="userSpaceOnUse" x1="288.0771" y1="492.1445" x2="300.1406" y2="492.1445" gradientTransform="matrix(0.9999 0.0132 -0.0132 0.9999 -205.6738 -395.1729)">
		<stop  offset="0" style="stop-color:#7EBFD4"/>
		<stop  offset="0.2242" style="stop-color:#74BBD2"/>
		<stop  offset="0.613" style="stop-color:#57B0CD"/>
		<stop  offset="0.7307" style="stop-color:#4CACCD"/>
	</linearGradient>
	<path opacity="0.8" fill="url(#SVGID_3_)" enable-background="new    " d="M87.528,132.107c-0.008,0.576-2.689,1.018-6.01,0.999
		c-3.341-0.017-6.061-0.484-6.053-1.064c0.276-20.893,0.551-41.782,0.827-62.674c0.008-0.567,2.738-0.949,6.079-0.863
		c3.318,0.085,5.989,0.605,5.982,1.169C88.077,90.486,87.802,111.298,87.528,132.107z"/>
	
		<linearGradient id="SVGID_4_" gradientUnits="userSpaceOnUse" x1="304.8867" y1="505.9238" x2="316.9502" y2="505.9238" gradientTransform="matrix(0.9999 0.0132 -0.0132 0.9999 -205.6738 -395.1729)">
		<stop  offset="0" style="stop-color:#7EBFD4"/>
		<stop  offset="0.2242" style="stop-color:#74BBD2"/>
		<stop  offset="0.613" style="stop-color:#57B0CD"/>
		<stop  offset="0.7307" style="stop-color:#4CACCD"/>
	</linearGradient>
	<path opacity="0.8" fill="url(#SVGID_4_)" enable-background="new    " d="M104.331,132.643c-0.005,0.326-2.697,0.57-6.011,0.554
		c-3.335-0.017-6.057-0.292-6.052-0.62c0.157-11.893,0.314-23.786,0.471-35.68c0.005-0.325,2.732-0.542,6.067-0.485
		c3.315,0.057,5.998,0.364,5.995,0.688C104.645,108.947,104.487,120.793,104.331,132.643z"/>
	
		<linearGradient id="SVGID_5_" gradientUnits="userSpaceOnUse" x1="321.9863" y1="499.9277" x2="334.0596" y2="499.9277" gradientTransform="matrix(0.9999 0.0132 -0.0132 0.9999 -205.6738 -395.1729)">
		<stop  offset="0" style="stop-color:#7EBFD4"/>
		<stop  offset="0.2242" style="stop-color:#74BBD2"/>
		<stop  offset="0.613" style="stop-color:#57B0CD"/>
		<stop  offset="0.7307" style="stop-color:#4CACCD"/>
	</linearGradient>
	<path opacity="0.8" fill="url(#SVGID_5_)" enable-background="new    " d="M121.443,132.542c-0.006,0.434-2.697,0.759-6.018,0.742
		c-3.349-0.019-6.061-0.374-6.055-0.808c0.207-15.683,0.413-31.362,0.62-47.043c0.006-0.429,2.729-0.716,6.074-0.647
		c3.319,0.069,6.002,0.467,5.996,0.895C121.856,101.302,121.649,116.922,121.443,132.542z"/>
	
		<linearGradient id="SVGID_6_" gradientUnits="userSpaceOnUse" x1="338.8574" y1="507.4336" x2="350.9219" y2="507.4336" gradientTransform="matrix(0.9999 0.0132 -0.0132 0.9999 -205.6738 -395.1729)">
		<stop  offset="0" style="stop-color:#7EBFD4"/>
		<stop  offset="0.2242" style="stop-color:#74BBD2"/>
		<stop  offset="0.613" style="stop-color:#57B0CD"/>
		<stop  offset="0.7307" style="stop-color:#4CACCD"/>
	</linearGradient>
	<path opacity="0.8" fill="url(#SVGID_6_)" enable-background="new    " d="M138.302,132.874c-0.004,0.297-2.679,0.514-6.003,0.497
		c-3.344-0.019-6.063-0.264-6.061-0.562c0.143-10.744,0.284-21.486,0.426-32.226c0.005-0.295,2.732-0.486,6.072-0.43
		c3.322,0.052,5.993,0.327,5.988,0.621C138.585,111.472,138.443,122.172,138.302,132.874z"/>
	
		<linearGradient id="SVGID_7_" gradientUnits="userSpaceOnUse" x1="354.9639" y1="493.6211" x2="367.0254" y2="493.6211" gradientTransform="matrix(0.9999 0.0132 -0.0132 0.9999 -205.6738 -395.1729)">
		<stop  offset="0" style="stop-color:#7EBFD4"/>
		<stop  offset="0.2242" style="stop-color:#74BBD2"/>
		<stop  offset="0.613" style="stop-color:#57B0CD"/>
		<stop  offset="0.7307" style="stop-color:#4CACCD"/>
	</linearGradient>
	<path opacity="0.8" fill="url(#SVGID_7_)" enable-background="new    " d="M154.413,132.516c-0.007,0.545-2.685,0.955-6.009,0.94
		c-3.344-0.019-6.061-0.458-6.054-1.005c0.259-19.588,0.518-39.175,0.776-58.763c0.006-0.538,2.736-0.897,6.077-0.814
		c3.321,0.084,5.989,0.576,5.981,1.111C154.929,93.495,154.671,113.006,154.413,132.516z"/>
</g>
</svg>
