<?xml version="1.0" encoding="utf-8"?>
<!-- Generator: Adobe Illustrator 16.0.0, SVG Export Plug-In . SVG Version: 6.00 Build 0)  -->
<!DOCTYPE svg PUBLIC "-//W3C//DTD SVG 1.1//EN" "http://www.w3.org/Graphics/SVG/1.1/DTD/svg11.dtd">
<svg version="1.1" id="Layer_1" xmlns="http://www.w3.org/2000/svg" xmlns:xlink="http://www.w3.org/1999/xlink" x="0px" y="0px"
	 width="193.75px" height="37.5px" viewBox="0 0 193.75 37.5" enable-background="new 0 0 193.75 37.5" xml:space="preserve">
<g>
	<path fill="#4292B7" d="M42.778,22.975c1.141,0,2.117,0.396,2.928,1.187s1.216,1.84,1.216,3.149c0,1.312-0.403,2.379-1.208,3.201
		c-0.806,0.82-1.744,1.231-2.816,1.231c-1.072,0-2.035-0.47-2.888-1.408v1.279h-1.792V19.743h1.792v4.848
		C40.714,23.514,41.636,22.975,42.778,22.975z M39.978,27.374c0,0.812,0.245,1.476,0.736,1.992c0.491,0.519,1.088,0.776,1.792,0.776
		s1.317-0.258,1.84-0.771c0.522-0.513,0.784-1.177,0.784-1.992c0-0.813-0.256-1.491-0.768-2.03c-0.512-0.539-1.125-0.81-1.84-0.81
		s-1.317,0.271-1.808,0.81C40.223,25.891,39.978,26.564,39.978,27.374z"/>
	<path fill="#4292B7" d="M50.042,35.007c-0.779,0-1.483-0.282-2.112-0.848l0.816-1.457c0.374,0.353,0.76,0.528,1.16,0.528
		c0.4,0,0.725-0.146,0.976-0.435c0.25-0.288,0.376-0.604,0.376-0.942c0-0.148-1.147-3.065-3.44-8.752h1.92l2.544,6.271l2.544-6.271
		h1.92l-4.128,10.11c-0.245,0.556-0.597,0.991-1.056,1.312C51.103,34.848,50.596,35.007,50.042,35.007z"/>
	<path fill="#4292B7" d="M66.177,21.902c-0.549,0-1,0.113-1.352,0.337c-0.352,0.224-0.528,0.562-0.528,1.016
		c0,0.453,0.176,0.8,0.528,1.04c0.352,0.24,1.101,0.499,2.248,0.775c1.146,0.277,2.01,0.668,2.592,1.169s0.872,1.239,0.872,2.216
		s-0.368,1.768-1.104,2.376c-0.736,0.606-1.701,0.912-2.896,0.912c-1.75,0-3.301-0.604-4.656-1.81l1.184-1.426
		c1.13,0.981,2.304,1.475,3.52,1.475c0.608,0,1.09-0.131,1.448-0.395c0.358-0.261,0.536-0.605,0.536-1.04
		c0-0.432-0.168-0.769-0.504-1.008s-0.915-0.458-1.736-0.653c-0.821-0.197-1.445-0.381-1.872-0.547
		c-0.427-0.164-0.805-0.381-1.136-0.646c-0.662-0.5-0.992-1.271-0.992-2.303c0-1.035,0.376-1.832,1.128-2.395s1.683-0.84,2.792-0.84
		c0.715,0,1.424,0.115,2.128,0.352s1.312,0.565,1.824,0.992l-1.008,1.424c-0.331-0.298-0.779-0.544-1.344-0.734
		C67.284,21.998,66.727,21.902,66.177,21.902z"/>
	<path fill="#4292B7" d="M78.474,27.711v-4.607h1.792v8.514h-1.792v-1.553c-0.288,0.521-0.686,0.935-1.192,1.231
		c-0.507,0.298-1.054,0.448-1.64,0.448c-0.96,0-1.736-0.293-2.328-0.881c-0.592-0.586-0.888-1.434-0.888-2.543v-5.217h1.792v4.672
		c0,1.566,0.65,2.353,1.952,2.353c0.619,0,1.157-0.206,1.616-0.616C78.244,29.1,78.474,28.5,78.474,27.711z"/>
	<path fill="#4292B7" d="M87.418,22.975c1.141,0,2.117,0.396,2.928,1.187c0.812,0.79,1.217,1.84,1.217,3.149
		c0,1.312-0.403,2.379-1.209,3.201c-0.806,0.82-1.743,1.231-2.815,1.231c-1.071,0-2.035-0.47-2.888-1.408v1.279h-1.792V19.743h1.792
		v4.848C85.354,23.514,86.276,22.975,87.418,22.975z M84.618,27.374c0,0.812,0.245,1.476,0.735,1.992
		c0.492,0.519,1.088,0.776,1.793,0.776c0.703,0,1.316-0.258,1.84-0.771c0.521-0.513,0.783-1.177,0.783-1.992
		c0-0.813-0.256-1.491-0.768-2.03s-1.125-0.81-1.84-0.81c-0.715,0-1.316,0.271-1.809,0.81
		C84.863,25.891,84.618,26.564,84.618,27.374z"/>
	<path fill="#4292B7" d="M99.674,29.07c0,0.812-0.293,1.459-0.881,1.945c-0.586,0.483-1.338,0.729-2.256,0.729
		c-0.619,0-1.261-0.112-1.927-0.336c-0.668-0.225-1.256-0.539-1.768-0.944l0.863-1.392c0.992,0.746,1.952,1.119,2.88,1.119
		c0.404,0,0.725-0.092,0.959-0.279c0.233-0.188,0.353-0.424,0.353-0.712c0-0.427-0.564-0.812-1.695-1.152
		c-0.084-0.032-0.15-0.053-0.191-0.063c-1.771-0.479-2.656-1.278-2.656-2.398c0-0.789,0.307-1.421,0.92-1.896
		c0.613-0.475,1.41-0.711,2.392-0.711c0.98,0,1.909,0.287,2.784,0.862l-0.673,1.328c-0.692-0.458-1.445-0.688-2.255-0.688
		c-0.428,0-0.773,0.078-1.041,0.231c-0.267,0.154-0.399,0.388-0.399,0.696c0,0.277,0.14,0.48,0.416,0.607
		c0.192,0.096,0.461,0.188,0.807,0.271c0.346,0.084,0.654,0.171,0.92,0.256c0.268,0.085,0.526,0.183,0.778,0.288
		c0.25,0.105,0.521,0.256,0.808,0.447C99.385,27.663,99.674,28.26,99.674,29.07z"/>
	<path fill="#4292B7" d="M105.48,31.743c-1.184,0-2.201-0.402-3.057-1.209c-0.854-0.806-1.277-1.858-1.277-3.16
		c0-1.301,0.443-2.36,1.336-3.176c0.891-0.816,1.977-1.224,3.256-1.224s2.361,0.44,3.248,1.326l-1.057,1.297
		c-0.734-0.642-1.479-0.959-2.227-0.959c-0.746,0-1.396,0.246-1.941,0.741c-0.551,0.496-0.824,1.138-0.824,1.921
		s0.271,1.447,0.814,1.991c0.543,0.544,1.213,0.813,2.01,0.813c0.793,0,1.543-0.36,2.244-1.088l1.059,1.152
		C108.031,31.221,106.836,31.743,105.48,31.743z"/>
	<path fill="#4292B7" d="M115.385,24.783c-0.885,0-1.551,0.287-2,0.863c-0.447,0.576-0.672,1.35-0.672,2.318v3.646h-1.791V23.1
		h1.791v1.713c0.289-0.533,0.68-0.971,1.176-1.312s1.021-0.519,1.576-0.526l0.018,1.809
		C115.449,24.783,115.418,24.783,115.385,24.783z"/>
	<path fill="#4292B7" d="M117.385,21.407c-0.225-0.224-0.336-0.491-0.336-0.8c0-0.312,0.111-0.576,0.336-0.801
		c0.225-0.226,0.49-0.336,0.801-0.336c0.312,0,0.576,0.11,0.801,0.336c0.227,0.225,0.338,0.489,0.338,0.801
		c0,0.309-0.111,0.576-0.338,0.8c-0.225,0.224-0.488,0.336-0.801,0.336C117.875,21.743,117.609,21.631,117.385,21.407z
		 M119.064,31.614h-1.791v-8.513h1.791V31.614z"/>
	<path fill="#4292B7" d="M126.217,22.975c1.141,0,2.117,0.396,2.928,1.187c0.812,0.79,1.217,1.84,1.217,3.149
		c0,1.312-0.4,2.379-1.207,3.201c-0.807,0.82-1.742,1.231-2.814,1.231c-1.07,0-2.033-0.47-2.889-1.408v1.279h-1.791V19.743h1.791
		v4.848C124.152,23.514,125.076,22.975,126.217,22.975z M123.416,27.374c0,0.812,0.246,1.476,0.736,1.992
		c0.49,0.519,1.088,0.776,1.793,0.776c0.703,0,1.316-0.258,1.84-0.771c0.521-0.513,0.783-1.177,0.783-1.992
		c0-0.813-0.256-1.491-0.77-2.03s-1.127-0.81-1.842-0.81s-1.314,0.271-1.811,0.81C123.662,25.891,123.416,26.564,123.416,27.374z"/>
	<path fill="#4292B7" d="M140.328,28.143h-6.672c0.043,0.619,0.324,1.119,0.848,1.496c0.523,0.379,1.121,0.567,1.793,0.567
		c1.066,0,1.877-0.335,2.432-1.007l1.023,1.121c-0.916,0.949-2.111,1.424-3.584,1.424c-1.193,0-2.209-0.396-3.047-1.191
		s-1.256-1.861-1.256-3.201c0-1.338,0.426-2.399,1.279-3.189c0.854-0.789,1.855-1.186,3.016-1.186c1.158,0,2.143,0.352,2.953,1.047
		c0.809,0.699,1.215,1.662,1.215,2.891V28.143L140.328,28.143z M133.656,26.734h4.881c0-0.715-0.225-1.264-0.672-1.647
		c-0.449-0.384-1-0.575-1.656-0.575s-1.246,0.199-1.77,0.6C133.918,25.512,133.656,26.053,133.656,26.734z"/>
	<path fill="#4292B7" d="M146.76,24.783c-0.885,0-1.551,0.287-2,0.863c-0.447,0.576-0.672,1.35-0.672,2.318v3.646h-1.791V23.1h1.791
		v1.713c0.289-0.533,0.68-0.971,1.176-1.312s1.021-0.519,1.576-0.526l0.018,1.809C146.824,24.783,146.793,24.783,146.76,24.783z"/>
	<path fill="#626363" d="M152.855,27.551l2.85-7.119h2.703l-4.496,11.186h-2.111l-4.496-11.186h2.705L152.855,27.551z"/>
	<path fill="#626363" d="M167.367,27.311c0,1.248-0.434,2.299-1.295,3.151c-0.865,0.854-1.951,1.28-3.258,1.28
		c-1.309,0-2.395-0.428-3.256-1.28c-0.863-0.854-1.297-1.903-1.297-3.151s0.434-2.301,1.297-3.16
		c0.861-0.856,1.947-1.286,3.256-1.286c1.307,0,2.393,0.43,3.258,1.286C166.936,25.01,167.367,26.062,167.367,27.311z
		 M160.68,27.311c0,0.703,0.199,1.277,0.604,1.722c0.396,0.44,0.908,0.661,1.533,0.661c0.623,0,1.139-0.221,1.535-0.661
		c0.4-0.442,0.604-1.019,0.604-1.722c0-0.705-0.201-1.278-0.604-1.729c-0.396-0.447-0.912-0.672-1.535-0.672
		c-0.625,0-1.137,0.225-1.533,0.672C160.879,26.031,160.68,26.607,160.68,27.311z"/>
	<path fill="#626363" d="M169.344,21.911c-0.27-0.272-0.408-0.604-0.408-1s0.141-0.728,0.408-1c0.273-0.272,0.605-0.408,1-0.408
		c0.396,0,0.73,0.136,1,0.408c0.273,0.272,0.408,0.604,0.408,1s-0.135,0.728-0.408,1c-0.27,0.272-0.604,0.407-1,0.407
		C169.949,22.318,169.617,22.184,169.344,21.911z M171.545,31.614h-2.4v-8.607h2.4V31.614z"/>
	<path fill="#626363" d="M177.943,29.615c0.801,0,1.521-0.4,2.16-1.2l1.424,1.601c-1.109,1.151-2.312,1.729-3.602,1.729
		c-1.291,0-2.383-0.408-3.271-1.226c-0.893-0.815-1.336-1.884-1.336-3.201c0-1.316,0.449-2.389,1.353-3.215s1.972-1.239,3.209-1.239
		c0.617,0,1.244,0.128,1.879,0.384c0.636,0.256,1.193,0.635,1.673,1.136l-1.248,1.634c-0.274-0.332-0.615-0.586-1.017-0.77
		c-0.399-0.182-0.797-0.271-1.19-0.271c-0.631,0-1.172,0.207-1.625,0.615c-0.453,0.41-0.681,0.981-0.681,1.713
		c0,0.73,0.228,1.299,0.681,1.703C176.805,29.413,177.336,29.615,177.943,29.615z"/>
	<path fill="#626363" d="M190.582,30.366c-0.971,0.918-2.109,1.377-3.416,1.377s-2.387-0.402-3.24-1.209
		c-0.854-0.806-1.279-1.886-1.279-3.239s0.438-2.432,1.307-3.232c0.867-0.799,1.896-1.197,3.08-1.197s2.188,0.355,3.016,1.07
		s1.24,1.695,1.24,2.943v1.28h-6.271c0.073,0.47,0.319,0.854,0.735,1.151c0.416,0.299,0.886,0.447,1.408,0.447
		c0.842,0,1.534-0.281,2.08-0.849L190.582,30.366z M188.279,25.264c-0.332-0.277-0.734-0.416-1.209-0.416s-0.908,0.146-1.305,0.432
		c-0.396,0.287-0.623,0.679-0.688,1.17h3.774C188.801,25.936,188.609,25.54,188.279,25.264z"/>
</g>
<g>
	<g>
		<g>
			<g>
				<path fill="#4192B6" d="M7.486,18.376c0.486,4.968,0.831,9.891,1.037,14.768c0.044,1.071,0.708,1.815,1.489,1.672
					c4.546-0.86,9.091-1.68,13.639-2.458c1.388,1.138,2.765,2.226,4.129,3.271c-0.003-1.302-0.021-2.604-0.049-3.909
					c1.169-0.188,2.336-0.376,3.505-0.558c0.781-0.128,1.384-0.944,1.34-1.828c-0.208-4.039-0.528-8.122-0.969-12.239
					c-0.095-0.902-0.817-1.622-1.602-1.605c-7.108,0.182-14.208,0.458-21.3,0.835C7.918,16.363,7.379,17.285,7.486,18.376z"/>
				<path fill="#FFFFFF" d="M10.474,31.605c-0.076-0.17-0.123-0.365-0.134-0.577c-0.183-3.682-0.447-7.393-0.792-11.13
					c2.33,1.521,4.64,2.965,6.935,4.331C14.506,26.587,12.504,29.046,10.474,31.605z"/>
				<path fill="#FFFFFF" d="M17.057,24.556c1.114,0.663,2.224,1.313,3.328,1.941c1.011-0.89,2.017-1.758,3.022-2.607
					c2.353,1.848,4.677,3.583,6.974,5.213c-0.194,0.193-0.448,0.332-0.726,0.37c-1.046,0.151-2.091,0.304-3.135,0.46
					c0.046,0.934,0.088,1.869,0.123,2.799c-0.849-0.792-1.702-1.602-2.562-2.432c-4.156,0.626-8.311,1.292-12.468,1.985
					c-0.274,0.047-0.532-0.023-0.743-0.176C12.961,29.486,15.021,26.965,17.057,24.556z"/>
				<path fill="#FFFFFF" d="M23.922,23.474c2.05-1.716,4.09-3.354,6.119-4.904c0.318,3.187,0.567,6.35,0.748,9.489
					c0.008,0.174-0.016,0.342-0.07,0.506C28.479,26.967,26.216,25.275,23.922,23.474z"/>
				<path fill="#4192B6" d="M29.741,17.307c-3.602,0.296-7.202,0.631-10.8,1.003c-3.2,0.028-6.397,0.064-9.594,0.105
					c-0.507-0.528-1.018-1.062-1.529-1.601c3.458-3.998,6.854-7.68,10.206-11.043c4.408,3.66,8.71,7.014,12.925,10.063
					C30.545,16.319,30.145,16.809,29.741,17.307z"/>
				<g>
					<g>
						<path fill="#FFFFFF" d="M27.029,18.039c-1.036-0.074-2.071-0.146-3.107-0.222c-0.866-0.452-1.981,0.683-4.109,0.818
							c-2.156,0.129-3.676,0.904-4.425,1.536c-0.925,0.062-1.851,0.126-2.776,0.192c0.036,0.388,0.069,0.778,0.104,1.166
							c2.529,1.088,5.045,2.115,7.551,3.079c2.263-1.41,4.521-2.754,6.774-4.025C27.04,19.734,27.037,18.888,27.029,18.039z"/>
					</g>
					<g>
						<g>
							<path fill="#FFFFFF" d="M27.796,19.467c-0.283-2.959-0.625-5.939-1.028-8.935c-5.411-0.066-10.817-0.077-16.218-0.031
								c0.431,3.351,0.796,6.683,1.095,9.994"/>
							<g>
								<path fill="#636363" d="M28.087,20.093c-0.4,0.197-0.801,0.399-1.202,0.602c-0.285-3.125-0.637-6.273-1.054-9.441
									c-4.718-0.023-9.434-0.004-14.144,0.057c0.435,3.442,0.798,6.864,1.094,10.264c-0.416-0.214-0.834-0.435-1.251-0.652
									c-0.331-3.624-0.739-7.272-1.227-10.945c5.554-0.02,11.114,0.021,16.682,0.118C27.427,13.449,27.793,16.783,28.087,20.093z"
									/>
							</g>
						</g>
						<path fill="#A4A1A8" d="M24.637,14.514c0.006,0.057-0.234,0.11-0.539,0.118c-3.307,0.082-6.612,0.187-9.916,0.311
							c-0.303,0.011-0.557-0.031-0.563-0.094c-0.078-0.69-0.157-1.381-0.241-2.073c-0.008-0.063,0.232-0.12,0.536-0.127
							c3.308-0.068,6.618-0.115,9.929-0.141c0.306-0.002,0.558,0.043,0.564,0.102C24.486,13.245,24.563,13.88,24.637,14.514z"/>
					</g>
				</g>
			</g>
		</g>
		<path fill="#A4A1A8" d="M20.571,20.162c0.014,0.143-0.116,0.269-0.289,0.282c-1.885,0.156-3.771,0.315-5.656,0.483
			c-0.172,0.017-0.324-0.094-0.338-0.239c-0.156-1.622-0.33-3.246-0.517-4.878c-0.019-0.152,0.108-0.279,0.282-0.287
			c1.888-0.095,3.777-0.179,5.666-0.256c0.175-0.008,0.331,0.104,0.347,0.246C20.249,17.067,20.417,18.62,20.571,20.162z"/>
		<path fill="#A4A1A8" d="M25.27,19.824c0.015,0.138-0.063,0.254-0.169,0.264c-1.163,0.086-2.327,0.179-3.491,0.269
			c-0.107,0.008-0.205-0.099-0.219-0.238c-0.152-1.537-0.321-3.075-0.504-4.622c-0.018-0.142,0.056-0.262,0.163-0.266
			c1.167-0.045,2.333-0.089,3.499-0.129c0.108-0.004,0.208,0.106,0.224,0.242C24.954,16.844,25.119,18.338,25.27,19.824z"/>
	</g>
</g>
</svg>
