<?xml version="1.0" encoding="utf-8"?>
<!-- Generator: Adobe Illustrator 16.0.0, SVG Export Plug-In . SVG Version: 6.00 Build 0)  -->
<!DOCTYPE svg PUBLIC "-//W3C//DTD SVG 1.1//EN" "http://www.w3.org/Graphics/SVG/1.1/DTD/svg11.dtd">
<svg version="1.1" id="Layer_1" xmlns="http://www.w3.org/2000/svg" xmlns:xlink="http://www.w3.org/1999/xlink" x="0px" y="0px"
	 width="901.334px" height="168px" viewBox="0 0 901.334 168" enable-background="new 0 0 901.334 168" xml:space="preserve">
<g>
	<g>
		<path fill="#FFFFFF" d="M483.219,104.936c-1.758,0-3.202,0.393-4.327,1.18c-1.128,0.789-1.692,1.98-1.692,3.57
			c0,1.595,0.564,2.812,1.692,3.658c1.125,0.843,3.528,1.751,7.196,2.729c3.67,0.973,6.434,2.34,8.296,4.103
			c1.86,1.763,2.791,4.359,2.791,7.789c0,3.427-1.178,6.212-3.534,8.35c-2.354,2.138-5.447,3.207-9.269,3.207
			c-5.601,0-10.571-2.116-14.908-6.354l3.789-5.006c3.616,3.448,7.379,5.175,11.271,5.175c1.946,0,3.489-0.459,4.638-1.379
			c1.143-0.917,1.715-2.138,1.715-3.653c0-1.521-0.537-2.699-1.613-3.545c-1.075-0.841-2.928-1.611-5.557-2.306
			c-2.631-0.694-4.631-1.328-5.996-1.91c-1.365-0.584-2.578-1.34-3.632-2.278c-2.118-1.762-3.179-4.461-3.179-8.098
			s1.202-6.438,3.614-8.407c2.409-1.969,5.387-2.953,8.939-2.953c2.286,0,4.554,0.416,6.812,1.238
			c2.253,0.826,4.198,1.988,5.836,3.485l-3.229,5.006c-1.06-1.05-2.492-1.909-4.298-2.587
			C486.768,105.273,484.981,104.936,483.219,104.936z"/>
		<path fill="#FFFFFF" d="M522.589,125.349v-16.192h5.734v29.915h-5.734v-5.464c-0.924,1.84-2.196,3.283-3.816,4.331
			c-1.623,1.056-3.375,1.574-5.252,1.574c-3.071,0-5.557-1.032-7.448-3.097c-1.898-2.064-2.847-5.043-2.847-8.941V109.15h5.739
			v16.417c0,5.51,2.083,8.279,6.25,8.279c1.98,0,3.704-0.723,5.173-2.171C521.855,130.225,522.589,128.123,522.589,125.349z"/>
		<path fill="#FFFFFF" d="M551.219,108.706c3.653,0,6.777,1.386,9.373,4.16c2.597,2.773,3.895,6.468,3.895,11.077
			c0,4.626-1.29,8.376-3.865,11.263c-2.583,2.888-5.586,4.314-9.017,4.314c-3.437,0-6.516-1.65-9.247-4.948v4.499h-5.736V97.345
			h5.736v17.038C544.611,110.6,547.564,108.706,551.219,108.706z M542.255,124.167c0,2.851,0.785,5.184,2.356,7.004
			c1.569,1.83,3.483,2.727,5.736,2.727c2.255,0,4.217-0.894,5.89-2.684c1.673-1.8,2.512-4.129,2.512-7.019
			c0-2.851-0.82-5.233-2.461-7.138c-1.639-1.896-3.606-2.845-5.89-2.845c-2.289,0-4.218,0.949-5.787,2.845
			C543.041,118.947,542.255,121.32,542.255,124.167z"/>
		<path fill="#FFFFFF" d="M590.453,130.129c0,2.851-0.938,5.128-2.816,6.831c-1.879,1.707-4.286,2.561-7.223,2.561
			c-1.98,0-4.039-0.383-6.171-1.165c-2.133-0.805-4.019-1.91-5.66-3.317l2.768-4.893c3.175,2.615,6.25,3.938,9.221,3.938
			c1.3,0,2.325-0.32,3.073-0.979c0.751-0.646,1.13-1.487,1.13-2.505c0-1.494-1.815-2.852-5.429-4.043
			c-0.273-0.119-0.479-0.19-0.615-0.221c-5.668-1.682-8.502-4.495-8.502-8.434c0-2.771,0.977-4.994,2.94-6.672
			c1.962-1.667,4.516-2.502,7.657-2.502s6.113,1.013,8.913,3.04l-2.15,4.66c-2.221-1.61-4.633-2.426-7.223-2.426
			c-1.365,0-2.477,0.281-3.329,0.809c-0.855,0.554-1.28,1.358-1.28,2.446c0,0.979,0.441,1.688,1.326,2.137
			c0.619,0.337,1.482,0.654,2.59,0.961c1.11,0.298,2.089,0.603,2.941,0.895c0.855,0.294,1.684,0.635,2.488,1.014
			c0.803,0.374,1.661,0.895,2.587,1.572C589.535,125.181,590.453,127.278,590.453,130.129z"/>
		<path fill="#FFFFFF" d="M609.049,139.521c-3.791,0-7.054-1.415-9.784-4.247c-2.731-2.832-4.097-6.533-4.097-11.106
			c0-4.571,1.423-8.293,4.276-11.162c2.852-2.865,6.324-4.299,10.425-4.299c4.097,0,7.563,1.556,10.396,4.667l-3.382,4.554
			c-2.356-2.251-4.725-3.375-7.12-3.375c-2.39,0-4.464,0.874-6.223,2.614c-1.757,1.745-2.639,3.994-2.639,6.751
			c0,2.755,0.875,5.087,2.613,6.997c1.74,1.918,3.884,2.869,6.428,2.869c2.541,0,4.942-1.274,7.194-3.82l3.382,4.047
			C617.209,137.683,613.386,139.521,609.049,139.521z"/>
		<path fill="#FFFFFF" d="M640.757,115.059c-2.839,0-4.975,1.014-6.407,3.036c-1.432,2.025-2.151,4.744-2.151,8.154v12.822h-5.736
			v-29.915h5.736v6.016c0.924-1.876,2.177-3.411,3.765-4.612c1.589-1.197,3.273-1.814,5.049-1.854l0.048,6.353
			C640.962,115.059,640.86,115.059,640.757,115.059z"/>
		<path fill="#FFFFFF" d="M647.155,103.19c-0.722-0.785-1.071-1.722-1.071-2.81c0-1.086,0.363-2.024,1.071-2.813
			c0.722-0.786,1.573-1.181,2.565-1.181c0.989,0,1.842,0.396,2.561,1.181c0.721,0.789,1.076,1.727,1.076,2.813
			c0,1.088-0.368,2.024-1.076,2.81c-0.719,0.791-1.571,1.18-2.561,1.18C648.726,104.37,647.874,103.981,647.155,103.19z
			 M652.536,139.071h-5.734v-29.915h5.734V139.071z"/>
		<path fill="#FFFFFF" d="M675.434,108.706c3.653,0,6.775,1.386,9.377,4.16c2.593,2.773,3.887,6.468,3.887,11.077
			c0,4.626-1.288,8.376-3.863,11.263c-2.596,2.888-5.587,4.314-9.017,4.314c-3.447,0-6.517-1.65-9.247-4.948v4.499h-5.737V97.345
			h5.737v17.038C668.825,110.6,671.776,108.706,675.434,108.706z M666.47,124.167c0,2.851,0.785,5.184,2.355,7.004
			c1.57,1.83,3.468,2.727,5.736,2.727c2.254,0,4.218-0.894,5.89-2.684c1.674-1.8,2.512-4.129,2.512-7.019
			c0-2.851-0.821-5.233-2.459-7.138c-1.641-1.896-3.617-2.845-5.892-2.845c-2.289,0-4.217,0.949-5.787,2.845
			C667.255,118.947,666.47,121.32,666.47,124.167z"/>
		<path fill="#FFFFFF" d="M720.608,126.867H699.25c0.136,2.173,1.046,3.929,2.715,5.259c1.672,1.329,3.586,1.994,5.743,1.994
			c3.413,0,6.005-1.179,7.782-3.54l3.277,3.951c-2.938,3.337-6.764,4.989-11.472,4.989c-3.826,0-7.078-1.396-9.759-4.191
			c-2.677-2.791-4.021-6.541-4.021-11.246c0-4.704,1.364-8.443,4.095-11.217c2.733-2.764,5.952-4.16,9.657-4.16
			c3.704,0,6.853,1.229,9.448,3.683c2.594,2.454,3.892,5.836,3.892,10.148V126.867L720.608,126.867z M699.25,121.919h15.623
			c0-2.512-0.726-4.443-2.152-5.791c-1.432-1.353-3.199-2.025-5.318-2.025c-2.084,0-3.987,0.703-5.656,2.109
			C700.087,117.614,699.25,119.521,699.25,121.919z"/>
		<path fill="#FFFFFF" d="M741.202,115.059c-2.836,0-4.969,1.014-6.405,3.036c-1.432,2.025-2.149,4.744-2.149,8.154v12.822h-5.743
			v-29.915h5.743v6.016c0.922-1.876,2.166-3.411,3.766-4.612c1.586-1.197,3.274-1.814,5.045-1.854l0.05,6.353
			C741.409,115.059,741.308,115.059,741.202,115.059z"/>
	</g>
	<g>
		<path fill="#FFFFFF" d="M762.49,123.601l9.874-27.102h9.377l-15.591,42.572h-7.323l-15.594-42.572h9.38L762.49,123.601z"/>
		<path fill="#FFFFFF" d="M812.8,122.688c0,4.751-1.495,8.75-4.489,11.999c-2.995,3.246-6.762,4.869-11.286,4.869
			c-4.531,0-8.294-1.623-11.29-4.869c-2.995-3.249-4.487-7.248-4.487-11.999c0-4.749,1.492-8.759,4.487-12.026
			c2.997-3.271,6.761-4.904,11.29-4.904s8.292,1.636,11.286,4.904C811.303,113.928,812.8,117.938,812.8,122.688z M789.614,122.688
			c0,2.681,0.698,4.861,2.087,6.548c1.394,1.684,3.172,2.524,5.323,2.524c2.161,0,3.938-0.841,5.319-2.524
			c1.389-1.687,2.085-3.867,2.085-6.548c0-2.679-0.696-4.874-2.085-6.576c-1.383-1.706-3.163-2.561-5.319-2.561
			c-2.163,0-3.944,0.854-5.323,2.561C790.311,117.813,789.614,120.009,789.614,122.688z"/>
		<path fill="#FFFFFF" d="M819.653,102.134c-0.946-1.034-1.412-2.302-1.412-3.805c0-1.501,0.466-2.771,1.412-3.806
			c0.944-1.035,2.094-1.553,3.465-1.553c1.368,0,2.524,0.518,3.465,1.553c0.941,1.035,1.417,2.304,1.417,3.806
			c0,1.503-0.476,2.771-1.417,3.805c-0.94,1.038-2.097,1.552-3.465,1.552C821.749,103.686,820.598,103.172,819.653,102.134z
			 M827.28,139.071h-8.323v-32.766h8.323V139.071z"/>
		<path fill="#FFFFFF" d="M849.469,131.457c2.775,0,5.271-1.523,7.488-4.566l4.938,6.089c-3.85,4.384-8.008,6.576-12.483,6.576
			c-4.47,0-8.254-1.551-11.346-4.657c-3.086-3.104-4.637-7.167-4.637-12.18c0-5.016,1.571-9.097,4.697-12.243
			c3.114-3.146,6.831-4.719,11.11-4.719c2.149,0,4.313,0.489,6.512,1.462c2.201,0.978,4.125,2.416,5.807,4.325l-4.331,6.21
			c-0.969-1.258-2.133-2.231-3.529-2.923c-1.394-0.689-2.765-1.039-4.127-1.039c-2.17,0-4.061,0.784-5.631,2.342
			c-1.574,1.563-2.357,3.733-2.357,6.51c0,2.773,0.797,4.946,2.357,6.488C845.518,130.685,847.358,131.457,849.469,131.457z"/>
		<path fill="#FFFFFF" d="M893.291,134.32c-3.361,3.489-7.313,5.229-11.844,5.229s-8.274-1.53-11.229-4.597
			c-2.959-3.066-4.438-7.181-4.438-12.332c0-5.148,1.489-9.258,4.518-12.299c3.015-3.048,6.577-4.569,10.676-4.569
			c4.115,0,7.596,1.362,10.457,4.082c2.863,2.722,4.298,6.451,4.298,11.202v4.876h-21.746c0.26,1.787,1.112,3.249,2.553,4.382
			c1.443,1.138,3.07,1.709,4.894,1.709c2.919,0,5.315-1.062,7.201-3.23L893.291,134.32z M885.303,114.891
			c-1.144-1.052-2.539-1.583-4.188-1.583c-1.646,0-3.153,0.555-4.521,1.66c-1.368,1.104-2.17,2.587-2.385,4.45h13.093
			C887.119,117.451,886.454,115.947,885.303,114.891z"/>
	</g>
	<g>
		<g>
			<g>
				<path fill="#FFFFFF" d="M429.216,77.075c-6.029-4.727-12.107-9.619-18.26-14.728c-4.667,4.678-9.366,9.587-14.085,14.666
					C407.646,76.959,418.423,76.979,429.216,77.075z"/>
				<path fill="#FFFFFF" d="M453.161,97.529c-0.17-1.587-0.979-2.979-2.08-3.888c0.01-0.012,0.018-0.022,0.03-0.032
					c-3.987-2.885-8.011-5.888-12.046-8.949c0.838,6.771,1.614,13.526,2.252,20.234l-23.4,15.982l-26.776-12.788
					c-0.669-7.378-1.48-14.799-2.354-22.238c-3.165,3.523-6.342,7.104-9.539,10.8c0.027,0.029,0.051,0.057,0.084,0.087
					c-0.846,1.178-1.299,2.881-1.111,4.768c1.506,15.433,2.58,30.731,3.223,45.879c0.136,3.334,2.195,5.647,4.624,5.198
					c14.122-2.675,28.246-5.222,42.373-7.639c4.312,3.532,8.587,6.928,12.831,10.167c-0.015-4.042-0.066-8.086-0.153-12.144
					c3.629-0.584,7.256-1.162,10.886-1.744c2.429-0.385,4.301-2.923,4.162-5.665C455.522,123.012,454.527,110.324,453.161,97.529z
					 M387.084,140.817c-0.571-11.443-1.39-22.968-2.461-34.571c7.236,4.718,14.419,9.204,21.544,13.455
					c-6.142,7.32-12.358,14.957-18.669,22.911C387.264,142.085,387.118,141.476,387.084,140.817z M447.085,135.98
					c-3.246,0.47-6.492,0.941-9.738,1.424c0.143,2.906,0.273,5.805,0.381,8.698c-2.635-2.46-5.287-4.979-7.955-7.551
					c-12.913,1.946-25.823,4.017-38.735,6.169c-0.856,0.139-1.655-0.066-2.311-0.556c6.502-8.143,12.9-15.966,19.224-23.459
					c3.46,2.077,6.904,4.078,10.34,6.033c3.139-2.765,6.262-5.467,9.383-8.095c7.312,5.735,14.533,11.12,21.669,16.187
					C448.737,135.437,447.95,135.864,447.085,135.98z M450.393,133.164c-6.954-4.962-13.985-10.225-21.11-15.812
					c6.371-5.337,12.705-10.422,19.009-15.242c0.989,9.897,1.761,19.729,2.324,29.479
					C450.641,132.138,450.565,132.659,450.393,133.164z"/>
				<path fill="#FFFFFF" d="M431.5,89.511c0.021,0.178-0.728,0.343-1.674,0.367c-10.271,0.255-20.543,0.578-30.805,0.963
					c-0.945,0.035-1.73-0.096-1.748-0.292c-0.242-2.144-0.491-4.291-0.75-6.436c-0.023-0.199,0.723-0.375,1.665-0.395
					c10.274-0.214,20.555-0.359,30.844-0.438c0.946-0.008,1.734,0.133,1.755,0.315C431.034,85.569,431.271,87.539,431.5,89.511z"/>
			</g>
			<path fill="#FFFFFF" d="M418.87,107.062c0.041,0.44-0.363,0.832-0.9,0.88c-5.858,0.478-11.717,0.977-17.57,1.5
				c-0.538,0.043-1.007-0.291-1.052-0.748c-0.488-5.036-1.021-10.086-1.607-15.155c-0.053-0.468,0.336-0.867,0.882-0.891
				c5.86-0.292,11.73-0.555,17.602-0.797c0.544-0.023,1.027,0.323,1.076,0.765C417.868,97.445,418.392,102.263,418.87,107.062z"/>
			<path fill="#FFFFFF" d="M433.469,106.011c0.046,0.423-0.193,0.789-0.524,0.819c-3.615,0.267-7.232,0.546-10.844,0.832
				c-0.334,0.022-0.639-0.309-0.682-0.743c-0.477-4.769-0.998-9.555-1.57-14.355c-0.054-0.443,0.174-0.813,0.508-0.825
				c3.623-0.144,7.244-0.275,10.869-0.403c0.334-0.012,0.643,0.329,0.695,0.752C432.485,96.747,433.001,101.387,433.469,106.011z"/>
		</g>
	</g>
</g>
<g>
	<path fill-rule="evenodd" clip-rule="evenodd" fill="#FFFFFF" d="M163.156,104.43c0.152-0.254,0.09-0.47,0.09-0.674
		c0.004-7.286-0.002-14.572,0.015-21.857c0.001-0.479-0.157-0.713-0.569-0.939c-21.899-11.989-43.793-23.988-65.674-36.008
		c-0.621-0.341-1.035-0.213-1.579,0.085C73.472,57.083,51.501,69.119,29.52,81.139c-0.515,0.281-0.667,0.583-0.665,1.148
		c0.02,7.135,0.012,14.27,0.016,21.405c0,0.227-0.06,0.465,0.063,0.709c0.063-0.027,0.138-0.033,0.164-0.071
		c2.066-3.144,5.137-4.683,8.702-5.394c4.641-0.925,8.912-0.098,12.667,2.869c3.166,2.502,5.065,5.859,6.049,9.695
		c1.504,5.861,1.473,11.732-0.523,17.494c-1.209,3.494-3.191,6.488-6.256,8.658c-2.907,2.059-6.167,2.877-9.706,2.654
		c-2.139-0.133-4.224-0.512-6.225-1.314c-2.2-0.881-3.905-2.324-5.097-4.375c-0.07-0.121-0.096-0.289-0.358-0.355
		c0,1.258,0,2.492,0,3.727c0,1.297,0,1.297-1.326,1.297c-2.695,0-5.39-0.02-8.083,0.016c-0.635,0.008-0.826-0.129-0.825-0.807
		c0.021-16.727,0.017-33.454,0.017-50.181c0-0.907-0.001-0.909-0.773-0.487c-2.418,1.32-4.841,2.63-7.248,3.972
		c-0.44,0.245-0.619,0.239-0.817-0.276c-0.929-2.407-1.877-4.808-2.877-7.186c-0.242-0.577-0.105-0.794,0.386-1.083
		c11.752-6.897,23.497-13.811,35.242-20.721c17.813-10.48,35.628-20.958,53.43-31.457c0.599-0.353,1.007-0.36,1.61-0.004
		c28.006,16.507,56.023,32.994,84.038,49.482c1.614,0.95,3.225,1.906,4.849,2.84c0.318,0.183,0.399,0.333,0.251,0.696
		c-1.016,2.489-2.016,4.985-2.991,7.49c-0.178,0.455-0.351,0.468-0.738,0.252c-2.654-1.472-5.317-2.925-7.98-4.382
		c-0.144-0.079-0.273-0.214-0.528-0.169c0,0.243,0,0.493,0,0.742c0,16.813,0.001,33.626-0.001,50.441c0,0.908,0.12,0.818-0.832,0.82
		c-1.682,0.004-3.363,0.018-5.045-0.004c-1.418-0.018-2.838,0.09-4.253-0.064c-0.195-1.408-0.035-2.826-0.086-4.238
		c-0.008-0.227-0.001-0.455-0.001-0.867c-0.639,0.922-1.159,1.701-1.806,2.383c-2.085,2.201-4.726,3.252-7.656,3.658
		c-3.217,0.447-6.37,0.182-9.363-1.148c-4.085-1.816-6.888-4.938-8.531-9.02c-3.024-7.512-3.111-15.057,0.505-22.396
		c2.384-4.841,6.308-7.922,11.733-8.774c4.536-0.712,8.749,0.09,12.36,3.134c0.696,0.587,1.265,1.291,1.795,2.027
		C162.908,104.123,163.025,104.262,163.156,104.43z M163.613,120.34c0.023-2.834-0.166-4.717-0.656-6.555
		c-1.651-6.188-6.905-8.188-11.979-6.359c-2.71,0.977-4.212,3.184-5.07,5.834c-0.922,2.85-1.107,5.779-0.732,8.742
		c0.28,2.219,0.869,4.344,2.149,6.223c1.974,2.896,4.708,4.189,8.193,3.844c3.39-0.338,5.572-2.26,6.848-5.328
		C163.34,124.393,163.579,121.918,163.613,120.34z M28.514,119.07c0,3.26,0.529,5.93,1.504,7.975c1.83,3.838,5.108,5.621,9.195,4.92
		c2.95-0.506,4.925-2.35,6.055-5.004c2.048-4.807,2.016-9.715,0.198-14.588c-0.767-2.053-2.11-3.719-4.111-4.711
		c-3.387-1.679-8.458-1.277-11.096,3.732C28.929,113.92,28.576,116.652,28.514,119.07z"/>
	<path fill-rule="evenodd" clip-rule="evenodd" fill="#FFFFFF" d="M87.548,133.699c-0.654,0.943-1.256,1.828-2.019,2.588
		c-2.904,2.889-6.474,4.076-10.486,4.053c-2.005-0.014-3.997-0.244-5.906-0.926c-4.23-1.514-6.45-4.672-7.305-8.943
		c-0.428-2.141-0.588-4.309-0.592-6.484c-0.012-7.846,0.004-15.689-0.02-23.535c-0.002-0.654,0.161-0.823,0.817-0.814
		c3.06,0.038,6.121,0.035,9.18,0.002c0.626-0.006,0.83,0.112,0.827,0.797c-0.029,7.392-0.021,14.783-0.017,22.175
		c0.001,1.709,0.208,3.387,0.734,5.025c0.804,2.504,2.533,3.816,5.112,4.047c1.228,0.111,2.455,0.045,3.657-0.256
		c2.259-0.566,3.786-1.955,4.611-4.127c0.658-1.732,0.899-3.543,0.957-5.379c0.138-4.395,0.033-8.791,0.057-13.186
		c0.015-2.824,0.013-5.646-0.007-8.469c-0.003-0.465,0.09-0.629,0.598-0.626c3.211,0.025,6.422,0.02,9.633,0.004
		c0.418-0.001,0.544,0.108,0.544,0.538c-0.011,12.866-0.011,25.733-0.001,38.598c0,0.395-0.104,0.516-0.505,0.514
		c-3.082-0.016-6.164-0.016-9.246,0c-0.407,0.002-0.509-0.133-0.504-0.521c0.021-1.443,0.011-2.889,0.005-4.332
		C87.671,134.234,87.731,134.018,87.548,133.699z"/>
	<path fill-rule="evenodd" clip-rule="evenodd" fill="#FFFFFF" d="M130.507,111.953c0,8.855-0.005,17.713,0.012,26.57
		c0.001,0.562-0.105,0.766-0.724,0.758c-3.125-0.035-6.249-0.023-9.374-0.008c-0.471,0.004-0.662-0.076-0.662-0.619
		c0.016-17.822,0.016-35.643,0-53.465c0-0.54,0.186-0.625,0.66-0.622c3.146,0.018,6.293,0.024,9.439-0.005
		c0.559-0.005,0.662,0.17,0.661,0.69C130.502,94.152,130.507,103.052,130.507,111.953z"/>
	<path fill-rule="evenodd" clip-rule="evenodd" fill="#FFFFFF" d="M103.326,119.445c0-6.355,0.008-12.712-0.015-19.068
		c-0.002-0.602,0.166-0.742,0.749-0.737c3.124,0.029,6.248,0.026,9.372,0.001c0.521-0.004,0.64,0.15,0.639,0.651
		c-0.014,12.776-0.014,25.554,0.001,38.329c0,0.549-0.158,0.68-0.688,0.678c-3.145-0.025-6.291-0.025-9.437,0
		c-0.525,0.004-0.635-0.164-0.634-0.656C103.331,132.244,103.326,125.844,103.326,119.445z"/>
	<path fill-rule="evenodd" clip-rule="evenodd" fill="#FFFFFF" d="M248.345,117.174c0.312-0.482,0.604-0.979,0.938-1.443
		c1.904-2.654,4.543-3.768,7.755-3.699c1.403,0.029,2.73,0.33,3.981,0.957c1.466,0.738,2.514,1.859,3.109,3.396
		c0.075,0.193,0.082,0.428,0.312,0.604c0.672-1.328,1.525-2.51,2.787-3.312c3.218-2.045,6.615-2.201,10.049-0.691
		c2.258,0.992,3.293,2.996,3.769,5.318c0.194,0.951,0.272,1.916,0.271,2.889c-0.008,5.799-0.013,11.596,0.01,17.393
		c0.002,0.557-0.113,0.773-0.701,0.715c-0.556-0.057-1.12-0.012-1.681-0.014c-0.845,0-0.846,0-0.846-0.816
		c0-5.604,0-11.207,0.001-16.811c0-1.102-0.089-2.189-0.399-3.256c-0.559-1.924-1.796-3.088-3.772-3.449
		c-1.239-0.227-2.489-0.285-3.722-0.002c-2.703,0.621-4.108,2.51-4.801,5.047c-0.398,1.463-0.516,2.967-0.517,4.477
		c-0.005,4.699-0.015,9.398,0.014,14.096c0.004,0.615-0.183,0.771-0.755,0.727c-0.6-0.047-1.208-0.047-1.808,0
		c-0.548,0.043-0.68-0.156-0.678-0.686c0.019-5.754,0.008-11.508,0.015-17.262c0.001-0.912-0.09-1.809-0.302-2.689
		c-0.666-2.768-2.948-4.227-5.988-3.844c-3.75,0.473-6.011,2.775-6.662,6.789c-0.165,1.021-0.249,2.049-0.247,3.086
		c0.009,4.635-0.009,9.268,0.019,13.9c0.003,0.584-0.154,0.75-0.719,0.707c-0.643-0.051-1.294-0.043-1.938-0.002
		c-0.502,0.031-0.603-0.162-0.602-0.631c0.016-5.797,0.01-11.594,0.01-17.391c0-2.629,0.01-5.26-0.009-7.889
		c-0.003-0.436,0.09-0.621,0.564-0.59c0.622,0.039,1.251,0.041,1.873-0.002c0.482-0.031,0.564,0.168,0.556,0.594
		c-0.025,1.246-0.009,2.492-0.009,3.738C248.264,117.143,248.304,117.158,248.345,117.174z"/>
	<path fill-rule="evenodd" clip-rule="evenodd" fill="#FFFFFF" d="M217.41,126.182c-0.135-2.49,0.356-5.053,1.503-7.451
		c1.172-2.453,2.959-4.348,5.45-5.551c2.267-1.094,4.635-1.291,7.095-1.02c2.788,0.305,5.098,1.539,7.002,3.551
		c1.773,1.873,2.766,4.164,3.247,6.658c0.691,3.586,0.496,7.131-1.015,10.498c-1.814,4.045-4.866,6.479-9.364,7.004
		c-3.273,0.385-6.267-0.225-8.921-2.225c-2.155-1.625-3.521-3.801-4.288-6.361C217.638,129.682,217.362,128.043,217.41,126.182z
		 M220.595,125.984c0.048,2.93,0.708,5.67,2.516,8.047c3.145,4.137,9.283,4.393,12.769,0.539c3.7-4.092,3.981-11.797,0.597-16.359
		c-3.387-4.562-9.903-4.646-13.38-0.15C221.298,120.387,220.664,123.1,220.595,125.984z"/>
	<path fill-rule="evenodd" clip-rule="evenodd" fill="#FFFFFF" d="M195.406,126.072c0.04,2.98,0.737,5.758,2.636,8.131
		c2.845,3.555,7.885,4.131,11.198,1.277c1.564-1.346,2.451-3.09,2.746-5.123c0.064-0.449,0.188-0.631,0.672-0.6
		c0.708,0.047,1.422,0.027,2.133,0.006c0.354-0.012,0.501,0.061,0.439,0.463c-0.949,6.166-5.156,10.377-12.049,9.688
		c-5.096-0.51-8.454-3.361-10.06-8.141c-1.604-4.781-1.41-9.547,1.146-13.982c2.295-3.98,5.906-5.816,10.49-5.75
		c2.954,0.043,5.604,0.889,7.729,3.025c1.57,1.58,2.237,3.588,2.578,5.732c0.044,0.277-0.079,0.33-0.316,0.326
		c-0.84-0.006-1.682-0.021-2.521,0.008c-0.427,0.016-0.417-0.289-0.483-0.541c-0.374-1.414-0.975-2.715-1.978-3.797
		c-1.66-1.793-3.811-2.195-6.097-1.965c-3.893,0.391-6.127,2.836-7.435,6.301C195.637,122.713,195.363,124.369,195.406,126.072z"/>
	<path fill-rule="evenodd" clip-rule="evenodd" fill="#FFFFFF" d="M102.679,89.97c0.001-3.512,2.471-5.984,5.98-5.986
		c3.582-0.001,6.07,2.445,6.068,5.968c-0.001,3.527-2.471,5.978-6.05,6.004C105.21,95.982,102.677,93.455,102.679,89.97z"/>
	<path fill-rule="evenodd" clip-rule="evenodd" fill="#FFFFFF" d="M187.416,136.428c0,2.566-2.289,4.176-4.535,3.188
		c-1.524-0.67-2.264-2.66-1.666-4.484c0.544-1.658,2.127-2.541,3.827-2.135C186.491,133.344,187.415,134.68,187.416,136.428z"/>
</g>
<polygon fill="#FFFFFF" points="341.888,122.348 328.003,122.348 328.003,108.463 323.847,108.463 323.847,122.348 309.962,122.348 
	309.962,126.504 323.847,126.504 323.847,140.389 328.003,140.389 328.003,126.504 341.888,126.504 "/>
</svg>
