<?xml version="1.0" encoding="utf-8"?>
<!-- Generator: Adobe Illustrator 16.0.0, SVG Export Plug-In . SVG Version: 6.00 Build 0)  -->
<!DOCTYPE svg PUBLIC "-//W3C//DTD SVG 1.1//EN" "http://www.w3.org/Graphics/SVG/1.1/DTD/svg11.dtd">
<svg version="1.1" id="Layer_1" xmlns="http://www.w3.org/2000/svg" xmlns:xlink="http://www.w3.org/1999/xlink" x="0px" y="0px"
	 width="719.729px" height="440px" viewBox="0 0 719.729 440" enable-background="new 0 0 719.729 440" xml:space="preserve">
<path fill="#919191" d="M713.066,1.187H6.958c-3.658,0-6.624,2.853-6.624,6.371V433.78c0,3.523,2.965,6.376,6.624,6.376h0.071
	c-3.656,0-6.622-2.851-6.622-6.376V60.391h719.285V7.558C719.692,4.04,716.728,1.187,713.066,1.187z"/>
<g>
	<circle fill="#DEBC46" cx="34.691" cy="14.75" r="4.936"/>
	<path fill="#C3A540" d="M38.233,18.176c0.858-0.888,1.394-2.094,1.394-3.426c0-2.725-2.209-4.936-4.936-4.936
		c-1.19,0-2.267,0.438-3.119,1.14L38.233,18.176z"/>
</g>
<circle fill="#37C983" cx="52.348" cy="14.75" r="4.935"/>
<g>
	<g>
		<path fill="#C2C2C2" d="M241.981,33.822c0,0-3.786-3.095-4.706-4.937c-1.436-2.87-4.715-12-6.947-15.954
			c-0.629-1.12-2.237-1.147-2.237-1.147H75.188c0,0-1.607,0.027-2.237,1.147c-2.23,3.952-5.508,13.083-6.944,15.954
			c-0.921,1.842-4.704,4.937-4.704,4.937"/>
		<path fill="#7C7C7C" d="M241.837,33.999c-0.16-0.127-3.838-3.147-4.768-5.011c-0.574-1.147-1.427-3.25-2.41-5.683
			c-1.499-3.699-3.194-7.891-4.528-10.26c-0.559-0.99-2.03-1.03-2.045-1.031H75.188c-0.009,0.001-1.48,0.041-2.038,1.031
			c-1.335,2.369-3.033,6.561-4.53,10.26c-0.985,2.434-1.835,4.536-2.409,5.683c-0.931,1.864-4.611,4.884-4.766,5.011l-0.292-0.355
			c0.039-0.03,3.76-3.085,4.647-4.86c0.564-1.131,1.413-3.226,2.394-5.652c1.502-3.709,3.205-7.918,4.554-10.312
			c0.688-1.218,2.363-1.262,2.435-1.263h152.907c0.076,0.001,1.754,0.045,2.437,1.263c1.352,2.394,3.054,6.603,4.557,10.312
			c0.98,2.427,1.829,4.521,2.395,5.652c0.888,1.775,4.608,4.83,4.643,4.86L241.837,33.999z"/>
	</g>
	<polygon fill="#7B7B7B" points="226.843,22.762 225.25,21.169 226.843,19.575 226.052,18.786 224.459,20.379 222.867,18.786 
		222.079,19.575 223.672,21.169 222.079,22.762 222.867,23.551 224.459,21.959 226.052,23.551 	"/>
</g>
<g>
	<circle fill="#ED6B6D" cx="16.729" cy="14.75" r="4.936"/>
	<path fill="#CB655E" d="M20.271,18.176c0.86-0.888,1.394-2.094,1.394-3.426c0-2.725-2.21-4.936-4.936-4.936
		c-1.191,0-2.267,0.438-3.118,1.14L20.271,18.176z"/>
</g>
<g>
	<rect x="0.334" y="29.901" fill="#5C5C5C" width="719.288" height="31.524"/>
	<rect x="0.334" y="29.442" fill="#828282" width="719.288" height="0.917"/>
	<rect x="0.334" y="30.32" fill="#919191" width="719.288" height="0.917"/>
</g>
<g>
	<polygon fill="#7B7B7B" points="711.973,6.802 709.202,6.802 705.466,6.802 707.333,8.671 704.528,11.478 707.859,14.814 
		710.668,12.009 712.294,13.631 712.294,10.382 712.294,7.123 712.294,6.802 	"/>
	<polygon fill="#7B7B7B" points="706.613,15.891 703.364,12.643 700.58,15.424 698.673,13.519 698.673,17.332 698.673,20.104 
		698.673,20.348 698.917,20.348 702.331,20.348 705.503,20.348 703.913,18.761 706.781,15.891 	"/>
</g>
<path fill="#BCBCBC" d="M21.819,43.482h-7.077l2.046-2.045c0.501-0.502,0.501-1.314,0-1.818c-0.502-0.5-1.314-0.5-1.817,0
	l-4.226,4.224c-0.242,0.236-0.394,0.56-0.394,0.923c0,0.36,0.147,0.681,0.386,0.915l-0.005,0.004l4.257,4.257
	c0.502,0.501,1.313,0.501,1.816,0c0.501-0.503,0.501-1.317,0-1.819l-2.075-2.073h7.088c0.71,0,1.286-0.576,1.286-1.285
	C23.105,44.057,22.531,43.482,21.819,43.482z"/>
<path fill="#BCBCBC" d="M35.976,43.482h7.078l-2.045-2.045c-0.5-0.502-0.5-1.314,0-1.818c0.501-0.5,1.313-0.5,1.816,0l4.226,4.224
	c0.243,0.236,0.396,0.56,0.396,0.923c0,0.36-0.151,0.681-0.388,0.915l0.004,0.004l-4.256,4.257c-0.501,0.501-1.314,0.501-1.816,0
	c-0.502-0.503-0.502-1.317,0-1.819l2.075-2.073h-7.09c-0.708,0-1.284-0.576-1.284-1.285C34.691,44.057,35.266,43.482,35.976,43.482z
	"/>
<g>
	<path fill="#BCBCBC" d="M70.512,47.106c-0.374,1.482-0.988,2.111-1.754,2.958c-1.218,1.345-2.995,1.993-4.816,1.993
		s-3.534-0.708-4.818-1.995c-2.657-2.657-2.657-6.98,0-9.634c1.285-1.289,2.996-1.993,4.817-1.993c1.492,0,2.921,0.479,4.096,1.364
		l1.96-1.955l0.088,6.294l-6.118-0.269l1.966-1.966c-0.597-0.354-1.282-0.546-1.992-0.546c-1.039,0-2.018,0.402-2.747,1.138
		c-1.518,1.516-1.518,3.983,0,5.5c0.73,0.735,1.709,1.139,2.749,1.139c1.04,0,2.079-0.349,2.75-1.139
		c0.388-0.456,0.714-0.726,1.037-1.43c0.276-0.601,0.902-1.404,1.892-1.132C70.518,45.682,70.662,46.516,70.512,47.106z"/>
</g>
<path fill="#FFFFFF" d="M685.816,51.945c0,1.943-1.478,3.516-3.307,3.516H83.55c-1.828,0-3.31-1.573-3.31-3.516v-13.49
	c0-1.943,1.482-3.52,3.31-3.52h598.958c1.829,0,3.307,1.576,3.307,3.52L685.816,51.945L685.816,51.945z"/>
<path fill="#BCBCBC" d="M707.854,41.722c0,0.656-0.528,1.186-1.185,1.186h-8.57c-0.655,0-1.187-0.53-1.187-1.186l0,0
	c0-0.657,0.529-1.186,1.187-1.186h8.57C707.323,40.537,707.854,41.066,707.854,41.722L707.854,41.722z"/>
<path fill="#BCBCBC" d="M707.854,46.123c0,0.655-0.528,1.188-1.185,1.188h-8.57c-0.655,0-1.187-0.533-1.187-1.188l0,0
	c0-0.656,0.529-1.186,1.187-1.186h8.57C707.323,44.936,707.854,45.467,707.854,46.123L707.854,46.123z"/>
<path fill="#BCBCBC" d="M707.854,50.487c0,0.655-0.528,1.186-1.185,1.186h-8.57c-0.655,0-1.187-0.532-1.187-1.186l0,0
	c0-0.656,0.529-1.187,1.187-1.187h8.57C707.323,49.299,707.854,49.831,707.854,50.487L707.854,50.487z"/>
<g>
	<path fill="#EFF0EE" d="M0.834,59.229v373.548c0,3.525,2.961,6.379,6.612,6.379h705.058c3.656,0,6.617-2.852,6.617-6.379V59.229
		H0.834z"/>
	<path fill="#5C5C5C" d="M712.505,439.656H7.447c-3.922,0-7.112-3.086-7.112-6.879V58.729h719.288v374.048
		C719.622,436.57,716.43,439.656,712.505,439.656z M1.334,59.729v373.048c0,3.241,2.742,5.879,6.112,5.879h705.058
		c3.373,0,6.117-2.638,6.117-5.879V59.729H1.334z"/>
</g>
</svg>
