<?xml version="1.0" encoding="utf-8"?>
<!-- Generator: Adobe Illustrator 16.0.0, SVG Export Plug-In . SVG Version: 6.00 Build 0)  -->
<!DOCTYPE svg PUBLIC "-//W3C//DTD SVG 1.1//EN" "http://www.w3.org/Graphics/SVG/1.1/DTD/svg11.dtd">
<svg version="1.1" id="Layer_1" xmlns="http://www.w3.org/2000/svg" xmlns:xlink="http://www.w3.org/1999/xlink" x="0px" y="0px"
	 width="200px" height="200px" viewBox="0 0 200 200" enable-background="new 0 0 200 200" xml:space="preserve">
<rect x="39.029" y="82.475" fill="#7DBED5" width="123.471" height="77.692"/>
<polygon fill="#FFFFFF" points="100.205,131.615 142.332,105.136 58.476,104.993 "/>
<g>
	<polyline fill="#7DBED5" points="162.875,84.75 98.57,31.625 36.5,84.167 	"/>
	<polygon fill="#7DBED5" points="159.326,82.738 98.593,34.88 41.062,82.633 39.029,78.219 98.546,28.37 162.5,78.875 	"/>
</g>
<polyline fill="#FFFFFF" stroke="#659AA8" stroke-width="6" stroke-miterlimit="10" points="143.824,105.775 143.815,55.536 
	56.355,55.571 57,105.208 "/>
<g>
	<g>
		<g>
			<defs>
				<rect id="SVGID_1_" x="29.915" y="31.625" width="140.17" height="143.75"/>
			</defs>
			<clipPath id="SVGID_2_">
				<use xlink:href="#SVGID_1_"  overflow="visible"/>
			</clipPath>
			<path clip-path="url(#SVGID_2_)" fill="#7DBED5" d="M45.104,165.189c-5.992-0.01-10.939-5.428-11.04-12.08l-0.045-65.796
				c-0.052-3.456,3.308-8.792,9.519-12.475c2.43-1.44,1.833-0.297,2.296,0.329c0,0.001-1.968,0.625-1.967,0.625l0.992,4.251
				c0,0-0.004,0.143-0.004,0.145c-0.838,0.896-1.701,2.054-2.342,2.98c-0.782,1.129-1.506,2.452-1.482,4.041l0.045,65.793
				c0.042,2.801,1.887,5.173,4.029,5.176l74.259-0.123l17.385,0.104l19.391-0.008c0.002,0,0.004,0,0.004,0
				c1.051,0,1.82-0.559,2.281-1.026c0.965-0.978,1.504-2.451,1.479-4.041l0.1-65.287c-0.04-2.805-2.759-4.796-5.039-6.667l0,0
				l-0.18-4.875c-0.174,1.111-2.532-1.486-2.531-1.486c7.051-0.219,14.268,6.233,14.764,12.002l-0.1,66.207
				c0.053,3.455-1.223,6.764-3.499,9.07c-1.979,2.01-4.562,3.116-7.269,3.116c-0.004,0-0.01,0-0.015,0l-19.407,0.007l-17.379-0.104
				L45.104,165.189z"/>
		</g>
	</g>
	<g>
		<g>
			<defs>
				<rect id="SVGID_3_" x="29.915" y="31.625" width="140.17" height="143.75"/>
			</defs>
			<clipPath id="SVGID_4_">
				<use xlink:href="#SVGID_3_"  overflow="visible"/>
			</clipPath>
			<path clip-path="url(#SVGID_4_)" fill="#FFFFFF" stroke="#7DBED5" stroke-width="3" stroke-miterlimit="10" d="M46.824,148.787
				c-0.368-0.791-0.536-2.26-0.553-3.188V97.037l34.103,22.23L46.824,148.787z"/>
		</g>
	</g>
	<g>
		<g>
			<defs>
				<rect id="SVGID_5_" x="29.915" y="31.625" width="140.17" height="143.75"/>
			</defs>
			<clipPath id="SVGID_6_">
				<use xlink:href="#SVGID_5_"  overflow="visible"/>
			</clipPath>
			<path clip-path="url(#SVGID_6_)" fill="#FFFFFF" stroke="#7DBED5" stroke-width="3" stroke-miterlimit="10" d="M118.779,151.911
				l-64.521,0.045c-1.456,0.002-1.456,0.002-2.976,0.002l33.12-30.256l15.803,9.913l15.148-9.774l35.358,29.411
				c-1.78,0.464-2.728,0.48-4.207,0.484l-14.819,0.16L118.779,151.911z"/>
		</g>
	</g>
	<g>
		<g>
			<defs>
				<rect id="SVGID_7_" x="29.915" y="31.625" width="140.17" height="143.75"/>
			</defs>
			<clipPath id="SVGID_8_">
				<use xlink:href="#SVGID_7_"  overflow="visible"/>
			</clipPath>
			<path clip-path="url(#SVGID_8_)" fill="#FFFFFF" stroke="#7DBED5" stroke-width="3" stroke-miterlimit="10" d="M119.747,119.23
				l34.813-21.726v48.021c0.014,0.892-0.158,1.74-0.478,2.51L119.747,119.23z"/>
		</g>
	</g>
</g>
</svg>
