<?xml version="1.0" encoding="utf-8"?>
<!-- Generator: Adobe Illustrator 16.0.0, SVG Export Plug-In . SVG Version: 6.00 Build 0)  -->
<!DOCTYPE svg PUBLIC "-//W3C//DTD SVG 1.1//EN" "http://www.w3.org/Graphics/SVG/1.1/DTD/svg11.dtd">
<svg version="1.1" id="Layer_1" xmlns="http://www.w3.org/2000/svg" xmlns:xlink="http://www.w3.org/1999/xlink" x="0px" y="0px"
	 width="200px" height="200px" viewBox="0 0 200 200" enable-background="new 0 0 200 200" xml:space="preserve">
<g>
	<g>
		<path fill="#7DBED4" d="M175.68,137.132c0,3.452-0.865,4.341-4.26,4.341c-47.584,0-95.165,0-142.75,0
			c-3.521,0-4.359-0.843-4.359-4.384c0-24.298,0-63.501,0-87.804c-0.004-3.362,0.865-4.245,4.189-4.245
			c23.868-0.002,47.728-0.002,71.592-0.002c23.811,0,47.631,0,71.444,0.002c3.239,0,4.144,0.912,4.144,4.14
			C175.68,73.533,175.68,112.779,175.68,137.132 M167.422,155.469c-2.57,0-4.658-2.086-4.658-4.656c0-2.571,2.088-4.658,4.658-4.658
			c2.571,0,4.653,2.087,4.653,4.658C172.075,153.383,169.993,155.469,167.422,155.469 M187.295,46.311
			c-0.004-8.214-6.411-14.558-14.626-14.558c-48.457-0.02-96.918-0.021-145.379,0.033c-1.799,0-3.692,0.362-5.383,0.995
			c-5.713,2.133-9.223,7.509-9.223,13.85c-0.008,32.596,0,65.194-0.004,97.789c0,9.152,6.186,15.366,15.308,15.366
			c15.665,0,23.34,0.021,39.009,0.021h2.149c-0.745,2.723-1.233,5.192-2.11,7.52c-1.005,2.665-2.401,5.186-3.541,7.804
			c-1.299,3.015-6.202,7.206,2.276,7.955c1.117,0.073,2.692-0.012,3.685-0.012h61.073c0.996,0,2.572,0.085,3.688,0.012
			c8.479-0.749,3.576-4.94,2.273-7.955c-1.134-2.618-2.533-5.139-3.537-7.804c-0.877-2.326-1.365-4.797-2.11-7.52l0.233-0.021h1.894
			c15.809,0,23.836,0.016,39.645-0.013c8.211-0.008,14.673-6.35,14.681-14.514C187.329,112.279,187.329,79.295,187.295,46.311"/>
	</g>
</g>
<path fill="none" stroke="#7DBED4" stroke-width="3" stroke-miterlimit="10" d="M56.518,137.47c0,0.399-2.633,0.722-5.876,0.722
	c-3.277,0-5.953-0.321-5.953-0.722V93.798c0-0.396,2.676-0.716,5.953-0.716c3.243,0,5.876,0.32,5.876,0.716V137.47z"/>
<path fill="none" stroke="#7DBED4" stroke-width="3" stroke-miterlimit="10" d="M73.265,137.663c0,0.291-2.622,0.526-5.879,0.526
	c-3.27,0-5.938-0.235-5.938-0.526v-31.853c0-0.293,2.668-0.521,5.938-0.521c3.258,0,5.879,0.229,5.879,0.521V137.663z"/>
<path fill="none" stroke="#7DBED4" stroke-width="3" stroke-miterlimit="10" d="M89.791,137.184c0,0.559-2.625,1.008-5.875,1.008
	c-3.273,0-5.942-0.449-5.942-1.008V76.237c0-0.551,2.668-0.991,5.942-0.991c3.25,0,5.875,0.44,5.875,0.991V137.184z"/>
<path fill="none" stroke="#7DBED4" stroke-width="3" stroke-miterlimit="10" d="M106.259,137.609c0,0.324-2.634,0.58-5.884,0.58
	c-3.266,0-5.934-0.256-5.934-0.58v-34.877c0-0.32,2.668-0.574,5.934-0.574c3.25,0,5.884,0.254,5.884,0.574V137.609z"/>
<path fill="none" stroke="#7DBED4" stroke-width="3" stroke-miterlimit="10" d="M123.018,137.427c0,0.427-2.634,0.765-5.888,0.765
	c-3.272,0-5.94-0.338-5.94-0.765V91.182c0-0.423,2.668-0.76,5.94-0.76c3.254,0,5.888,0.337,5.888,0.76V137.427z"/>
<path fill="none" stroke="#7DBED4" stroke-width="3" stroke-miterlimit="10" d="M139.535,137.663c0,0.291-2.617,0.526-5.875,0.526
	c-3.273,0-5.942-0.235-5.942-0.526v-31.853c0-0.293,2.669-0.521,5.942-0.521c3.258,0,5.875,0.229,5.875,0.521V137.663z"/>
<path fill="none" stroke="#7DBED4" stroke-width="3" stroke-miterlimit="10" d="M155.312,137.221c0,0.545-2.617,0.971-5.875,0.971
	c-3.273,0-5.942-0.426-5.942-0.971V78.835c0-0.533,2.669-0.959,5.942-0.959c3.258,0,5.875,0.426,5.875,0.959V137.221z"/>
<line fill="none" stroke="#7DBED4" stroke-width="3" stroke-miterlimit="10" x1="49.024" y1="81.994" x2="83.884" y2="56.486"/>
<polygon fill="#7DBED4" points="99.653,70.427 81.448,57.672 83.077,55.299 101.286,68.051 "/>
<polygon fill="#7DBED4" points="133.792,77.245 115.311,63.973 117.146,61.75 135.622,75.022 "/>
<line fill="none" stroke="#7DBED4" stroke-width="3" stroke-miterlimit="10" x1="99.413" y1="69.005" x2="117.657" y2="63.11"/>
<polygon fill="#7DBED4" points="133.792,77.245 131.631,75.337 149.068,55.045 151.229,56.953 "/>
<polygon fill="#7DBED4" points="146.148,53.389 152.928,59.629 152.757,53.284 "/>
</svg>
