<?xml version="1.0" encoding="utf-8"?>
<!-- Generator: Adobe Illustrator 16.0.0, SVG Export Plug-In . SVG Version: 6.00 Build 0)  -->
<!DOCTYPE svg PUBLIC "-//W3C//DTD SVG 1.1//EN" "http://www.w3.org/Graphics/SVG/1.1/DTD/svg11.dtd">
<svg version="1.1" id="Layer_1" xmlns="http://www.w3.org/2000/svg" xmlns:xlink="http://www.w3.org/1999/xlink" x="0px" y="0px"
	 width="200px" height="200px" viewBox="0 0 200 200" enable-background="new 0 0 200 200" xml:space="preserve">
<g>
	<path fill="#659AA8" d="M114.128,54.108c-12.567,0.168-24.661,2.435-36.077,7.814c-9.905,4.667-18.334,11.109-24.134,20.583
		c-4.407,7.199-6.102,15.015-4.934,23.418c1.381,9.925,6.517,17.754,13.79,24.277c10.168,9.118,22.348,13.979,35.638,16.362
		c8.471,1.519,16.979,1.642,25.532,0.898c0.535-0.045,1.238,0.195,1.643,0.547c10.549,9.059,22.688,14.861,36.227,17.818
		c1.557,0.34,3.136,0.58,4.719,0.812c1.4,0.204,2.542-0.31,3.308-1.515c0.776-1.231,0.89-2.58-0.034-3.709
		c-1.791-2.213-3.674-4.356-5.604-6.445c-4.381-4.754-7.109-10.377-8.946-16.502c-0.219-0.739,0.179-0.965,0.675-1.252
		c4.406-2.565,8.459-5.598,12.004-9.264c5.584-5.777,9.701-12.353,11.227-20.379c1.556-8.185,0.259-15.906-3.713-23.18
		c-5.146-9.419-12.874-16.157-22.307-21.033c-9.568-4.947-19.763-7.788-30.486-8.708C119.816,54.412,116.975,54.287,114.128,54.108z
		"/>
</g>
<g>
	<path fill="#7DBED4" d="M75.09,46.028c10.508,0.141,20.612,2.036,30.154,6.533c8.279,3.899,15.324,9.285,20.173,17.2
		c3.683,6.021,5.099,12.554,4.122,19.574c-1.15,8.295-5.445,14.84-11.523,20.297c-8.5,7.615-18.682,11.683-29.789,13.677
		c-7.078,1.266-14.19,1.364-21.34,0.746c-0.447-0.037-1.035,0.17-1.374,0.459c-8.817,7.567-18.96,12.422-30.276,14.896
		c-1.302,0.28-2.622,0.479-3.945,0.678c-1.172,0.168-2.122-0.258-2.763-1.267c-0.648-1.03-0.744-2.159,0.026-3.098
		c1.5-1.854,3.072-3.647,4.686-5.389c3.659-3.977,5.941-8.676,7.479-13.797c0.183-0.619-0.149-0.803-0.565-1.047
		c-3.682-2.143-7.07-4.678-10.035-7.738c-4.663-4.83-8.108-10.326-9.382-17.037c-1.301-6.837-0.214-13.294,3.105-19.372
		c4.3-7.872,10.76-13.503,18.644-17.58c7.998-4.136,16.518-6.512,25.48-7.276C70.335,46.284,72.713,46.179,75.09,46.028z"/>
</g>
</svg>
