<?xml version="1.0" encoding="utf-8"?>
<!-- Generator: Adobe Illustrator 16.0.0, SVG Export Plug-In . SVG Version: 6.00 Build 0)  -->
<!DOCTYPE svg PUBLIC "-//W3C//DTD SVG 1.1//EN" "http://www.w3.org/Graphics/SVG/1.1/DTD/svg11.dtd">
<svg version="1.1" id="Layer_1" xmlns="http://www.w3.org/2000/svg" xmlns:xlink="http://www.w3.org/1999/xlink" x="0px" y="0px"
	 width="200px" height="200px" viewBox="0 0 200 200" enable-background="new 0 0 200 200" xml:space="preserve">
<g>
	<path fill-rule="evenodd" clip-rule="evenodd" fill="#7090AC" d="M114.128,54.108c-12.568,0.168-24.661,2.435-36.077,7.814
		c-9.905,4.667-18.334,11.109-24.134,20.583c-4.407,7.199-6.102,15.015-4.934,23.418c1.381,9.924,6.517,17.754,13.79,24.277
		c10.168,9.119,22.348,13.98,35.638,16.363c8.471,1.518,16.979,1.641,25.533,0.898c0.535-0.045,1.237,0.195,1.642,0.547
		c10.549,9.059,22.688,14.861,36.226,17.818c1.557,0.34,3.136,0.58,4.719,0.812c1.401,0.205,2.542-0.309,3.308-1.514
		c0.776-1.232,0.89-2.58-0.034-3.709c-1.792-2.213-3.674-4.357-5.604-6.445c-4.381-4.754-7.109-10.377-8.946-16.502
		c-0.219-0.74,0.178-0.965,0.675-1.252c4.406-2.566,8.458-5.598,12.004-9.264c5.583-5.777,9.701-12.352,11.226-20.379
		c1.556-8.185,0.259-15.906-3.713-23.18c-5.146-9.419-12.874-16.157-22.306-21.033c-9.569-4.947-19.763-7.788-30.487-8.708
		C119.816,54.412,116.975,54.287,114.128,54.108z"/>
</g>
<g>
	<path fill-rule="evenodd" clip-rule="evenodd" fill="#7DBED4" d="M75.09,46.028c10.508,0.141,20.612,2.036,30.154,6.533
		c8.28,3.899,15.324,9.285,20.173,17.2c3.682,6.021,5.099,12.554,4.122,19.574c-1.151,8.295-5.445,14.84-11.523,20.297
		c-8.501,7.615-18.682,11.682-29.789,13.676c-7.078,1.266-14.19,1.365-21.34,0.746c-0.447-0.037-1.035,0.17-1.374,0.459
		c-8.817,7.568-18.96,12.422-30.276,14.896c-1.302,0.281-2.622,0.48-3.945,0.678c-1.172,0.168-2.122-0.258-2.763-1.266
		c-0.648-1.031-0.744-2.16,0.026-3.098c1.5-1.855,3.072-3.648,4.686-5.389c3.659-3.977,5.941-8.676,7.479-13.797
		c0.183-0.619-0.149-0.803-0.565-1.047c-3.682-2.143-7.07-4.678-10.035-7.738c-4.663-4.83-8.108-10.326-9.382-17.037
		c-1.301-6.837-0.214-13.294,3.105-19.372c4.3-7.872,10.76-13.503,18.644-17.58c7.998-4.136,16.518-6.512,25.48-7.276
		C70.335,46.284,72.713,46.179,75.09,46.028z"/>
</g>
</svg>
