<?xml version="1.0" encoding="utf-8"?>
<!-- Generator: Adobe Illustrator 16.0.0, SVG Export Plug-In . SVG Version: 6.00 Build 0)  -->
<!DOCTYPE svg PUBLIC "-//W3C//DTD SVG 1.1//EN" "http://www.w3.org/Graphics/SVG/1.1/DTD/svg11.dtd">
<svg version="1.1" id="Layer_1" xmlns="http://www.w3.org/2000/svg" xmlns:xlink="http://www.w3.org/1999/xlink" x="0px" y="0px"
	 width="295px" height="127.667px" viewBox="22.301 0 295 127.667" enable-background="new 22.301 0 295 127.667"
	 xml:space="preserve">
<g>
	<path fill="#FFFFFF" d="M272.286,52.776c0,12.533-11.892,22.695-26.554,22.695H79.068c-14.664,0-26.554-10.162-26.554-22.695l0,0
		c0-12.536,11.89-22.698,26.554-22.698h166.666C260.396,30.078,272.286,40.24,272.286,52.776L272.286,52.776z"/>
	<path fill="#4192B6" stroke="#79B3C7" stroke-width="0.5" stroke-miterlimit="10" d="M245.734,77.428H79.068
		c-15.718,0-28.508-11.059-28.508-24.649c0-13.595,12.791-24.651,28.508-24.651h166.666c15.724,0,28.507,11.057,28.507,24.651
		C274.24,66.369,261.456,77.428,245.734,77.428z M79.068,32.03c-13.562,0-24.601,9.307-24.601,20.746s11.036,20.742,24.601,20.742
		h166.666c13.566,0,24.602-9.303,24.602-20.742S259.302,32.03,245.734,32.03H79.068z"/>
</g>
<g>
	<path fill="#2A73AD" d="M121.74,45.303h3.438v15.406h-3.438V45.303z"/>
	<path fill="#2A73AD" d="M131.834,54.098v6.611h-3.306V48.852h3.306v1.321c1-1.013,2.12-1.52,3.37-1.52
		c1.249,0,2.294,0.441,3.142,1.324c0.847,0.881,1.267,2.061,1.267,3.525v7.206h-3.305v-6.7c0-1.819-0.671-2.732-2.008-2.732
		c-0.659,0-1.237,0.238-1.727,0.715C132.079,52.469,131.834,53.172,131.834,54.098z"/>
	<path fill="#2A73AD" d="M149.443,48.653c1.442,0,2.694,0.564,3.769,1.685c1.073,1.124,1.608,2.568,1.608,4.331
		s-0.551,3.24-1.652,4.43c-1.103,1.19-2.354,1.785-3.757,1.785c-1.406,0-2.568-0.58-3.496-1.743v1.566h-3.306V44.354h3.306v5.818
		C146.828,49.16,148.003,48.653,149.443,48.653z M145.872,54.792c0,0.96,0.271,1.747,0.806,2.359
		c0.537,0.609,1.186,0.913,1.95,0.913c0.762,0,1.434-0.304,2.005-0.913c0.574-0.612,0.861-1.396,0.861-2.348
		c0-0.956-0.283-1.759-0.842-2.404c-0.557-0.648-1.227-0.97-2.004-0.97c-0.779,0-1.436,0.321-1.973,0.959
		C146.141,53.03,145.872,53.828,145.872,54.792z"/>
	<path fill="#2A73AD" d="M169.147,54.78c0,1.721-0.594,3.168-1.785,4.343c-1.19,1.176-2.684,1.762-4.487,1.762
		c-1.798,0-3.294-0.586-4.483-1.762c-1.19-1.175-1.786-2.622-1.786-4.343c0-1.72,0.596-3.168,1.786-4.354
		c1.189-1.184,2.686-1.773,4.483-1.773c1.804,0,3.297,0.59,4.487,1.773C168.552,51.612,169.147,53.061,169.147,54.78z
		 M159.935,54.78c0,0.968,0.274,1.759,0.826,2.371c0.549,0.609,1.255,0.913,2.112,0.913c0.86,0,1.567-0.304,2.118-0.913
		c0.551-0.612,0.825-1.403,0.825-2.371c0-0.972-0.274-1.763-0.825-2.381c-0.551-0.617-1.258-0.924-2.118-0.924
		c-0.857,0-1.563,0.307-2.112,0.924C160.209,53.02,159.935,53.809,159.935,54.78z"/>
	<path fill="#2A73AD" d="M173.994,48.852l2.026,3.175l2.099-3.175h3.877l-4.077,5.794l4.231,6.063h-3.945l-2.313-3.264l-2.248,3.264
		h-3.812l4.144-6.04l-3.925-5.815h3.945L173.994,48.852L173.994,48.852z"/>
	<path fill="#2A73AD" d="M189.138,54.163l2.733-8.86h3.589l2.717,8.86l3.061-8.86h3.728l-5.38,15.406h-2.557l-3.37-10.712
		l-3.353,10.712h-2.558l-5.375-15.406h3.725L189.138,54.163z"/>
	<path fill="#2A73AD" d="M217.391,54.78c0,1.721-0.593,3.168-1.785,4.343c-1.189,1.176-2.686,1.762-4.483,1.762
		c-1.802,0-3.294-0.586-4.485-1.762c-1.189-1.175-1.785-2.622-1.785-4.343c0-1.72,0.596-3.168,1.785-4.354
		c1.191-1.184,2.684-1.773,4.485-1.773c1.798,0,3.294,0.59,4.483,1.773C216.797,51.612,217.391,53.061,217.391,54.78z
		 M208.177,54.78c0,0.968,0.276,1.759,0.83,2.371c0.547,0.609,1.255,0.913,2.114,0.913s1.562-0.304,2.114-0.913
		c0.55-0.612,0.826-1.403,0.826-2.371c0-0.972-0.276-1.763-0.826-2.381c-0.553-0.617-1.255-0.924-2.114-0.924
		s-1.567,0.307-2.114,0.924C208.453,53.02,208.177,53.809,208.177,54.78z"/>
	<path fill="#2A73AD" d="M226.073,51.76c-0.983,0-1.721,0.353-2.204,1.048c-0.484,0.699-0.724,1.622-0.724,2.769v5.133h-3.306
		V48.852h3.306v1.562c0.424-0.483,0.956-0.894,1.596-1.233c0.637-0.337,1.289-0.513,1.95-0.529l0.022,3.106h-0.641V51.76
		L226.073,51.76z"/>
	<path fill="#2A73AD" d="M232.838,51.229v5.313c0,0.458,0.117,0.814,0.354,1.067c0.234,0.258,0.513,0.388,0.837,0.388
		c0.618,0,1.141-0.28,1.566-0.837l1.233,2.315c-1.028,0.938-2.111,1.41-3.253,1.41c-1.137,0-2.101-0.377-2.887-1.126
		c-0.783-0.749-1.179-1.769-1.179-3.064v-5.467h-1.387v-2.376h1.387v-3.549h3.328v3.549h2.862v2.376H232.838z"/>
	<path fill="#2A73AD" d="M241.9,54.315v6.394h-3.306V44.354h3.306v5.818c0.998-1.013,2.119-1.52,3.359-1.52s2.289,0.441,3.141,1.324
		c0.853,0.881,1.281,2.061,1.281,3.525v7.206h-3.307v-6.481c0-1.819-0.67-2.729-2.004-2.729c-0.666,0-1.24,0.239-1.731,0.715
		C242.145,52.689,241.9,53.391,241.9,54.315z"/>
	<path fill="#2A73AD" d="M254.723,65.381c-1.159,0-2.254-0.472-3.284-1.411l1.499-2.449c0.559,0.545,1.133,0.816,1.718,0.816
		c0.312,0,0.572-0.152,0.795-0.453c0.219-0.3,0.33-0.622,0.33-0.96c0-0.337-1.528-4.362-4.584-12.074h3.524l2.888,7.382l2.888-7.382
		h3.527l-5.507,13.973c-0.325,0.805-0.83,1.437-1.509,1.885C256.323,65.158,255.565,65.381,254.723,65.381z"/>
</g>
<g>
	<g>
		<path fill="#4192B6" stroke="#79B3C7" stroke-width="0.5" stroke-miterlimit="10" d="M113.846,27.808
			C103.414,18.792,91.869,9.335,78.713,0.317C65.38,9.341,53.726,18.99,43.235,28.296c-0.146,0.114-0.288,0.232-0.417,0.367
			c-0.051,0.046-0.104,0.092-0.155,0.138c0.008,0.007,0.015,0.014,0.021,0.021c-0.854,0.998-1.276,2.464-1.01,4.092
			c2.1,13.119,3.787,26.229,5.065,39.339c0.284,2.869,2.183,5.291,4.262,5.395c12.631,0.547,25.271,0.604,37.92,0.185
			c3.434,4.042,6.763,8.002,10.021,11.84c0.161-4.069,0.349-8.14,0.557-12.212c2.732-0.146,5.47-0.316,8.206-0.508
			c2.085-0.148,3.97-2.565,4.239-5.385c1.206-12.863,2.805-25.724,4.785-38.578C117.126,30.496,115.876,28.348,113.846,27.808z"/>
		<path fill="#FFFFFF" d="M51.898,69.181c-0.225-0.509-0.375-1.062-0.426-1.639c-0.893-10.104-1.986-20.217-3.283-30.339
			c7.232,4.43,14.062,9.046,20.563,13.683C62.795,57.104,57.223,63.263,51.898,69.181z"/>
		<path fill="#FFFFFF" d="M55.082,71.646c-0.743-0.016-1.454-0.344-2.05-0.879c5.476-6.068,11.208-12.392,17.345-18.769
			c3.135,2.271,6.19,4.544,9.184,6.802c2.993-2.299,6.057-4.602,9.194-6.889c6.169,6.275,11.938,12.43,17.446,18.27
			c-0.601,0.555-1.319,0.904-2.08,0.942C87.762,71.912,71.416,72.091,55.082,71.646z"/>
		<path fill="#FFFFFF" d="M90.372,50.795c6.47-4.659,13.269-9.247,20.475-13.593c-1.234,9.939-2.275,19.875-3.122,29.808
			c-0.05,0.554-0.188,1.083-0.4,1.573C101.966,62.896,96.36,56.907,90.372,50.795z"/>
		<g>
			<g>
				<path fill="#FFFFFF" d="M101.171,37.418c-3.102-0.12-6.201-0.231-9.306-0.333c-1.364,4.927-6.745,10.721-12.937,10.754
					c-6.271,0.02-11.739-5.659-13.073-10.718c-2.828,0.006-5.653,0.021-8.481,0.044c0.149,1.692,0.298,3.384,0.439,5.075
					c7.557,3.575,14.792,7.26,21.765,10.899c6.766-3.517,13.778-7.029,21.09-10.405C100.832,40.964,100.999,39.19,101.171,37.418z"
					/>
			</g>
			<g>
				<g>
					<path fill="#FFFFFF" d="M103.529,39.47c0.844-9.193,1.811-18.396,2.896-27.607c-18.351-1.022-36.685-1.117-55.002-0.299
						c1.194,9.21,2.252,18.409,3.178,27.597"/>
					<path fill="#626363" d="M103.345,41.497c-1.229,0.562-2.454,1.129-3.669,1.699c0.707-9.396,1.523-18.803,2.449-28.222
						c-15.358-0.621-30.693-0.631-46.002-0.051c0.987,9.267,1.86,18.52,2.622,27.76c-1.323-0.637-2.657-1.27-4-1.898
						c-0.958-9.728-2.064-19.468-3.322-29.221c18.318-0.818,36.652-0.724,55.002,0.299C105.258,21.751,104.23,31.63,103.345,41.497z
						"/>
				</g>
				<path fill="#2B72AD" d="M92.267,37.085c0.346-6-5.579-11.024-13.264-11.05c-7.688-0.013-13.547,5.018-13.143,11.068
					c0.397,6.045,6.31,10.929,13.249,10.908C86.055,47.976,91.929,43.084,92.267,37.085z"/>
				<g>
					<g>
						<path fill="#0F79AC" d="M76.866,42.019c3.517-2.666,7.14-5.323,10.884-7.942"/>
						<path fill="#FFFFFF" d="M77.152,43.267c-0.533-1.316-1.076-2.632-1.63-3.948c3.394-2.807,6.895-5.604,10.521-8.363
							c1.104,0.983,2.194,1.967,3.273,2.949C85.109,36.986,81.062,40.121,77.152,43.267z"/>
					</g>
					<g>
						<path fill="#0F79AC" d="M71.991,38.533c1.54,1.127,3.062,2.258,4.562,3.389"/>
						<path fill="#FFFFFF" d="M77.063,43.269c-2.206-1.718-4.456-3.436-6.751-5.146c1.16-1.052,2.334-2.103,3.523-3.152
							c1.491,1.188,2.962,2.38,4.412,3.571C77.846,40.117,77.451,41.692,77.063,43.269z"/>
					</g>
				</g>
				<path fill="#A3A0A8" d="M96.525,24.182c-0.014,0.18-0.814,0.305-1.794,0.281c-10.621-0.245-21.233-0.267-31.844-0.069
					c-0.979,0.016-1.784-0.111-1.798-0.291c-0.158-1.954-0.319-3.909-0.485-5.864c-0.017-0.18,0.786-0.347,1.787-0.372
					c10.91-0.24,21.826-0.201,32.749,0.122c1.006,0.029,1.812,0.201,1.797,0.379C96.796,20.306,96.658,22.244,96.525,24.182z"/>
			</g>
		</g>
	</g>
</g>
<g enable-background="new    ">
	<path fill="#4192B6" d="M163.619,94.459c-0.594,0-1.083,0.133-1.465,0.399c-0.381,0.267-0.571,0.67-0.571,1.209
		s0.19,0.951,0.571,1.237c0.382,0.285,1.193,0.592,2.436,0.923c1.242,0.33,2.179,0.792,2.809,1.389s0.945,1.475,0.945,2.637
		c0,1.16-0.398,2.103-1.197,2.826c-0.797,0.723-1.843,1.085-3.137,1.085c-1.896,0-3.576-0.717-5.045-2.151l1.283-1.693
		c1.225,1.167,2.496,1.751,3.813,1.751c0.659,0,1.181-0.155,1.569-0.468c0.387-0.31,0.58-0.723,0.58-1.235
		c0-0.515-0.182-0.913-0.546-1.199c-0.364-0.285-0.991-0.545-1.881-0.78c-0.89-0.234-1.565-0.45-2.028-0.646
		c-0.462-0.197-0.873-0.453-1.23-0.771c-0.717-0.596-1.074-1.51-1.074-2.74s0.406-2.18,1.223-2.846
		c0.814-0.666,1.822-0.998,3.024-0.998c0.774,0,1.543,0.14,2.306,0.418c0.763,0.279,1.421,0.673,1.977,1.18l-1.094,1.693
		c-0.358-0.354-0.843-0.646-1.455-0.875C164.82,94.573,164.216,94.459,163.619,94.459z"/>
	<path fill="#4192B6" d="M176.942,101.368v-5.481h1.942v10.124h-1.942v-1.847c-0.312,0.623-0.742,1.111-1.291,1.467
		c-0.549,0.354-1.142,0.533-1.775,0.533c-1.041,0-1.882-0.35-2.523-1.048c-0.641-0.698-0.963-1.707-0.963-3.026v-6.203h1.941v5.557
		c0,1.864,0.705,2.798,2.115,2.798c0.671,0,1.254-0.245,1.752-0.733C176.695,103.02,176.942,102.306,176.942,101.368z"/>
	<path fill="#4192B6" d="M186.633,95.735c1.235,0,2.293,0.47,3.172,1.408c0.878,0.939,1.317,2.188,1.317,3.749
		c0,1.56-0.437,2.829-1.309,3.806c-0.873,0.977-1.89,1.466-3.052,1.466c-1.161,0-2.203-0.56-3.129-1.675v1.521h-1.941v-14.12h1.941
		v5.766C184.396,96.376,185.396,95.735,186.633,95.735z M183.598,100.968c0,0.965,0.267,1.755,0.798,2.369
		c0.531,0.616,1.179,0.924,1.942,0.924c0.762,0,1.426-0.305,1.992-0.913c0.566-0.609,0.85-1.398,0.85-2.371
		c0-0.969-0.276-1.775-0.832-2.415c-0.555-0.642-1.219-0.963-1.993-0.963s-1.428,0.321-1.959,0.963
		C183.865,99.201,183.598,100.004,183.598,100.968z"/>
	<path fill="#4192B6" d="M199.911,102.985c0,0.965-0.319,1.735-0.955,2.312c-0.636,0.578-1.45,0.867-2.443,0.867
		c-0.67,0-1.367-0.134-2.089-0.399c-0.723-0.268-1.36-0.643-1.916-1.123l0.937-1.655c1.075,0.888,2.115,1.332,3.121,1.332
		c0.438,0,0.784-0.11,1.04-0.333c0.254-0.222,0.38-0.504,0.38-0.846c0-0.508-0.611-0.966-1.836-1.371
		c-0.093-0.038-0.162-0.063-0.209-0.076c-1.918-0.57-2.876-1.522-2.876-2.854c0-0.938,0.331-1.69,0.996-2.255
		c0.663-0.564,1.527-0.848,2.59-0.848c1.064,0,2.069,0.343,3.018,1.027l-0.729,1.579c-0.75-0.546-1.566-0.818-2.443-0.818
		c-0.464,0-0.84,0.093-1.128,0.276c-0.288,0.185-0.433,0.46-0.433,0.828c0,0.329,0.148,0.57,0.45,0.722
		c0.207,0.115,0.5,0.222,0.876,0.323c0.374,0.104,0.707,0.205,0.996,0.306c0.289,0.102,0.568,0.216,0.841,0.343
		c0.271,0.127,0.562,0.304,0.875,0.532C199.599,101.311,199.911,102.021,199.911,102.985z"/>
	<path fill="#4192B6" d="M206.203,106.164c-1.282,0-2.387-0.48-3.312-1.438c-0.924-0.958-1.386-2.21-1.386-3.758
		c0-1.547,0.482-2.807,1.447-3.777c0.966-0.971,2.142-1.455,3.528-1.455c1.386,0,2.559,0.526,3.519,1.579l-1.145,1.542
		c-0.797-0.762-1.601-1.144-2.408-1.144c-0.81,0-1.513,0.297-2.106,0.886c-0.597,0.591-0.894,1.351-0.894,2.284
		c0,0.933,0.295,1.722,0.885,2.368c0.589,0.649,1.312,0.972,2.174,0.972s1.674-0.432,2.437-1.294l1.145,1.37
		C208.965,105.541,207.671,106.164,206.203,106.164z"/>
	<path fill="#4192B6" d="M216.934,97.885c-0.96,0-1.683,0.343-2.167,1.027c-0.486,0.686-0.728,1.605-0.728,2.761v4.338h-1.943
		V95.887h1.943v2.036c0.311-0.635,0.736-1.153,1.273-1.56c0.537-0.405,1.105-0.615,1.706-0.628l0.018,2.149
		C217.002,97.885,216.969,97.885,216.934,97.885z"/>
	<path fill="#4192B6" d="M219.099,93.869c-0.242-0.266-0.362-0.584-0.362-0.952c0-0.366,0.121-0.685,0.362-0.951
		c0.244-0.266,0.531-0.399,0.868-0.399c0.334,0,0.623,0.134,0.867,0.399c0.242,0.267,0.363,0.585,0.363,0.951
		c0,0.368-0.121,0.687-0.363,0.952c-0.244,0.268-0.533,0.399-0.867,0.399C219.63,94.269,219.343,94.137,219.099,93.869z
		 M220.919,106.011h-1.94V95.887h1.94V106.011z"/>
	<path fill="#4192B6" d="M228.669,95.735c1.236,0,2.292,0.47,3.17,1.408c0.88,0.939,1.319,2.188,1.319,3.749
		c0,1.56-0.437,2.829-1.308,3.806c-0.874,0.977-1.891,1.466-3.053,1.466s-2.204-0.56-3.129-1.675v1.521h-1.941v-14.12h1.941v5.766
		C226.433,96.376,227.432,95.735,228.669,95.735z M225.634,100.968c0,0.965,0.267,1.755,0.799,2.369
		c0.531,0.616,1.177,0.924,1.94,0.924c0.763,0,1.428-0.305,1.993-0.913c0.566-0.609,0.851-1.398,0.851-2.371
		c0-0.969-0.277-1.775-0.833-2.415c-0.555-0.642-1.219-0.963-1.992-0.963c-0.775,0-1.428,0.321-1.959,0.963
		C225.901,99.201,225.634,100.004,225.634,100.968z"/>
	<path fill="#4192B6" d="M243.957,101.881h-7.229c0.046,0.735,0.353,1.33,0.918,1.78c0.566,0.45,1.214,0.675,1.943,0.675
		c1.155,0,2.033-0.398,2.635-1.198l1.108,1.333c-0.994,1.129-2.288,1.693-3.883,1.693c-1.294,0-2.396-0.473-3.302-1.419
		c-0.907-0.944-1.361-2.213-1.361-3.806c0-1.592,0.463-2.856,1.387-3.796c0.925-0.938,2.013-1.408,3.267-1.408
		c1.255,0,2.32,0.416,3.199,1.246c0.877,0.831,1.317,1.976,1.317,3.435V101.881L243.957,101.881z M236.729,100.206h5.287
		c0-0.85-0.243-1.503-0.729-1.96c-0.485-0.456-1.082-0.685-1.794-0.685c-0.71,0-1.351,0.238-1.914,0.713
		C237.011,98.751,236.729,99.396,236.729,100.206z"/>
	<path fill="#4192B6" d="M250.926,97.885c-0.96,0-1.682,0.343-2.166,1.027c-0.485,0.686-0.729,1.605-0.729,2.761v4.338h-1.941
		V95.887h1.941v2.036c0.311-0.635,0.736-1.153,1.274-1.56c0.536-0.405,1.105-0.615,1.707-0.628l0.017,2.149
		C250.996,97.885,250.961,97.885,250.926,97.885z"/>
</g>
<g enable-background="new    ">
	<path fill="#636363" d="M258.131,100.775l3.341-9.171h3.173l-5.274,14.406h-2.48l-5.274-14.406h3.173L258.131,100.775z"/>
	<path fill="#636363" d="M275.156,100.468c0,1.606-0.507,2.96-1.519,4.06c-1.014,1.099-2.288,1.648-3.822,1.648
		c-1.531,0-2.808-0.55-3.821-1.648c-1.014-1.1-1.519-2.453-1.519-4.06c0-1.608,0.505-2.965,1.519-4.071s2.29-1.659,3.821-1.659
		c1.534,0,2.809,0.553,3.822,1.659C274.65,97.503,275.156,98.859,275.156,100.468z M267.31,100.468c0,0.906,0.234,1.644,0.704,2.215
		c0.47,0.569,1.07,0.854,1.802,0.854c0.732,0,1.333-0.285,1.803-0.854c0.468-0.571,0.704-1.309,0.704-2.215
		c0-0.908-0.236-1.65-0.704-2.227c-0.47-0.577-1.07-0.866-1.803-0.866c-0.731,0-1.332,0.289-1.802,0.866
		C267.544,98.817,267.31,99.56,267.31,100.468z"/>
	<path fill="#636363" d="M277.475,93.512c-0.319-0.351-0.477-0.78-0.477-1.288s0.157-0.938,0.477-1.288
		c0.32-0.351,0.71-0.525,1.175-0.525c0.461,0,0.854,0.175,1.171,0.525c0.319,0.351,0.481,0.78,0.481,1.288s-0.162,0.938-0.481,1.288
		c-0.316,0.351-0.71,0.524-1.171,0.524C278.185,94.036,277.795,93.862,277.475,93.512z M280.057,106.011h-2.816V94.923h2.816
		V106.011z"/>
	<path fill="#636363" d="M287.565,103.435c0.939,0,1.785-0.516,2.534-1.545l1.672,2.061c-1.303,1.483-2.71,2.226-4.224,2.226
		c-1.515,0-2.795-0.525-3.839-1.576c-1.045-1.052-1.569-2.426-1.569-4.122c0-1.698,0.529-3.078,1.587-4.143
		c1.058-1.065,2.312-1.598,3.765-1.598c0.725,0,1.461,0.165,2.204,0.495c0.745,0.33,1.398,0.817,1.965,1.463l-1.467,2.102
		c-0.325-0.425-0.723-0.755-1.192-0.988c-0.47-0.234-0.936-0.351-1.398-0.351c-0.736,0-1.372,0.264-1.905,0.792
		c-0.531,0.529-0.798,1.265-0.798,2.204c0,0.943,0.267,1.674,0.798,2.196C286.227,103.174,286.852,103.435,287.565,103.435z"/>
	<path fill="#636363" d="M302.396,104.403c-1.139,1.182-2.474,1.771-4.007,1.771c-1.534,0-2.802-0.518-3.802-1.556
		c-1.001-1.037-1.501-2.429-1.501-4.174c0-1.743,0.509-3.132,1.529-4.162c1.021-1.031,2.224-1.546,3.611-1.546
		c1.392,0,2.569,0.461,3.54,1.381c0.97,0.921,1.455,2.186,1.455,3.793v1.648h-7.359c0.088,0.605,0.376,1.1,0.863,1.484
		c0.489,0.384,1.04,0.577,1.654,0.577c0.987,0,1.8-0.363,2.438-1.093L302.396,104.403z M299.694,97.828
		c-0.388-0.356-0.861-0.535-1.419-0.535c-0.557,0-1.065,0.187-1.529,0.557c-0.463,0.372-0.731,0.873-0.806,1.505h4.429
		C300.307,98.695,300.082,98.187,299.694,97.828z"/>
</g>
<rect x="39.723" y="92.309" fill="none" width="116.25" height="17.667"/>
<text transform="matrix(1 0 0 1 39.7234 105.9883)" fill="#7B8598" font-family="'OpenSans-Bold'" font-size="18">Feedback by</text>
</svg>
