<?xml version="1.0" encoding="utf-8"?>
<!-- Generator: Adobe Illustrator 16.0.0, SVG Export Plug-In . SVG Version: 6.00 Build 0)  -->
<!DOCTYPE svg PUBLIC "-//W3C//DTD SVG 1.1//EN" "http://www.w3.org/Graphics/SVG/1.1/DTD/svg11.dtd">
<svg version="1.1" id="Layer_1" xmlns="http://www.w3.org/2000/svg" xmlns:xlink="http://www.w3.org/1999/xlink" x="0px" y="0px"
	 width="200px" height="200px" viewBox="0 0 200 200" enable-background="new 0 0 200 200" xml:space="preserve">
<g>
	<path fill-rule="evenodd" clip-rule="evenodd" fill="none" stroke="#3088C0" stroke-width="10" stroke-miterlimit="10" d="
		M195.715,121.715l-43.316-0.021c-1.906,0.018-2.721-0.743-3.506-2.532c-4.271-9.748-4.588-11.493-8.973-21.18
		c-2.104-4.649-6.105-6.505-10.354-4.936c-2.791,1.031-4.312,3.279-5.141,6.39l-8.506,32.235c-1.266,4.696-4.398,7.396-8.227,7.308
		c-3.85-0.087-6.861-2.92-8.05-7.602l-5.661-24.586c-3.704-14.567-7.41-29.135-11.119-43.7c-1.232-4.837-4.427-7.685-8.469-7.622
		c-4.005,0.062-6.913,2.888-8.013,7.84c-4.708,21.149-4.757,22.369-9.381,43.54c-0.476,2.175-1.198,2.884-3.244,2.871
		c-16.708-0.106-33.417-0.077-50.127-0.026"/>
</g>
</svg>
