<?xml version="1.0" encoding="utf-8"?>
<!-- Generator: Adobe Illustrator 16.0.0, SVG Export Plug-In . SVG Version: 6.00 Build 0)  -->
<!DOCTYPE svg PUBLIC "-//W3C//DTD SVG 1.1//EN" "http://www.w3.org/Graphics/SVG/1.1/DTD/svg11.dtd">
<svg version="1.1" id="Layer_1" xmlns="http://www.w3.org/2000/svg" xmlns:xlink="http://www.w3.org/1999/xlink" x="0px" y="0px"
	 width="200px" height="200px" viewBox="0 0 200 200" enable-background="new 0 0 200 200" xml:space="preserve">
<g>
	<g>
		<g>
			<g>
				<path fill="none" d="M100.535,190.751c-49.523,0.063-90.411-40.709-90.455-90.192C10.038,50.747,50.621,9.934,100.23,9.898
					c49.922-0.034,90.649,40.549,90.676,90.358C190.938,149.955,150.254,190.688,100.535,190.751z"/>
			</g>
			<g>
				<path fill="#FFFFFF" d="M100.008,115.088c-16.306-0.001-32.596,3.623-47.664,10.814c-2.556,1.222-4.62,2.934-5.585,5.515
					c-1.442,3.864-0.719,7.244,2.315,9.874c3.044,2.646,6.304,3.271,9.8,2.165c0.606-0.19,1.173-0.497,1.747-0.769
					c24.895-11.871,53.863-11.865,78.757,0.004c3.935,1.879,7.772,1.638,11.052-0.894c5.164-3.797,4.734-11.979-1.867-15.396
					c-6.449-3.31-13.238-5.75-20.119-7.584C119.137,116.331,109.57,115.087,100.008,115.088z"/>
			</g>
		</g>
	</g>
	<path fill="#FFFFFF" d="M58.78,65.693c-0.018,9.543,5.381,17.485,11.833,17.409c6.433-0.074,11.718-7.879,11.741-17.334
		c0.021-9.509-5.402-17.484-11.84-17.411C64.057,48.433,58.795,56.21,58.78,65.693z"/>
	<path fill="#FFFFFF" d="M118.635,65.694c-0.018,9.544,5.379,17.481,11.832,17.408c6.432-0.074,11.719-7.882,11.74-17.338
		c0.023-9.508-5.4-17.481-11.84-17.407C123.912,48.432,118.648,56.209,118.635,65.694z"/>
</g>
<path fill="#FFFFFF" d="M100.282,190.751c-23.932,0-46.536-9.453-63.652-26.619c-17.115-17.164-26.544-39.832-26.552-63.83
	C10.07,76.274,19.504,53.605,36.641,36.47c17.138-17.136,39.812-26.572,63.85-26.572c23.987,0,46.644,9.416,63.788,26.513
	c17.146,17.099,26.604,39.708,26.63,63.659c0.022,24.168-9.396,46.922-26.526,64.069
	C147.238,181.302,124.473,190.752,100.282,190.751L100.282,190.751L100.282,190.751z M45.473,45.303
	c-14.771,14.771-22.902,34.301-22.896,54.998c0.008,20.676,8.137,40.209,22.894,55.008c14.753,14.793,34.223,22.942,54.825,22.942
	l0,0c20.851,0,40.472-8.146,55.247-22.937c14.768-14.782,22.891-34.396,22.865-55.221c-0.021-20.625-8.172-40.102-22.951-54.839
	c-14.781-14.739-34.301-22.856-54.967-22.856C79.785,22.398,60.246,30.532,45.473,45.303z"/>
</svg>
