<?xml version="1.0" encoding="utf-8"?>
<!-- Generator: Adobe Illustrator 16.0.0, SVG Export Plug-In . SVG Version: 6.00 Build 0)  -->
<!DOCTYPE svg PUBLIC "-//W3C//DTD SVG 1.1//EN" "http://www.w3.org/Graphics/SVG/1.1/DTD/svg11.dtd">
<svg version="1.1" id="Layer_1" xmlns="http://www.w3.org/2000/svg" xmlns:xlink="http://www.w3.org/1999/xlink" x="0px" y="0px"
	 width="200px" height="200px" viewBox="0 0 200 200" enable-background="new 0 0 200 200" xml:space="preserve">
<g>
	<g>
		<g>
			<g>
				<path fill="#FFA30B" stroke="#FFFFFF" stroke-width="8" stroke-miterlimit="10" d="M100.533,187.307
					c-47.636,0.062-86.967-39.158-87.009-86.758c-0.04-47.914,38.997-87.172,86.716-87.207
					c48.021-0.033,87.197,39.004,87.222,86.917C187.492,148.064,148.359,187.245,100.533,187.307z"/>
			</g>
			<g opacity="0.5">
				<path fill="#323232" d="M100.008,115.088c-16.306-0.001-32.596,3.623-47.664,10.815c-2.556,1.221-4.62,2.933-5.585,5.514
					c-1.442,3.864-0.719,7.244,2.315,9.874c3.044,2.647,6.304,3.271,9.8,2.165c0.606-0.191,1.173-0.497,1.747-0.769
					c24.895-11.87,53.863-11.865,78.757,0.005c3.935,1.878,7.772,1.637,11.052-0.894c5.164-3.797,4.734-11.98-1.867-15.396
					c-6.45-3.309-13.239-5.749-20.119-7.584C119.136,116.331,109.571,115.087,100.008,115.088z"/>
			</g>
		</g>
	</g>
	<path opacity="0.5" fill="#323232" enable-background="new    " d="M58.78,65.693c-0.018,9.543,5.381,17.485,11.833,17.409
		c6.433-0.074,11.718-7.879,11.741-17.334c0.021-9.509-5.402-17.484-11.84-17.411C64.057,48.433,58.795,56.21,58.78,65.693z"/>
	<path opacity="0.5" fill="#323232" enable-background="new    " d="M118.635,65.694c-0.018,9.544,5.379,17.481,11.832,17.408
		c6.432-0.074,11.719-7.882,11.74-17.338c0.023-9.508-5.4-17.481-11.84-17.407C123.912,48.432,118.648,56.209,118.635,65.694z"/>
</g>
<path fill="#4192B6" d="M32.144,168.773c-18.381-18.351-28.514-42.57-28.538-68.207C3.584,74.752,13.651,50.4,31.952,31.997
	C50.254,13.589,74.501,3.442,100.29,3.424c53.508,0,97.063,43.437,97.092,96.827c0.029,53.405-43.411,96.903-96.842,96.976h-0.121
	C74.769,197.227,50.524,187.123,32.144,168.773z M40.557,40.255c-16.094,16.185-24.948,37.6-24.928,60.294
	c0.021,22.52,8.932,43.805,25.094,59.94c16.163,16.135,37.476,25.021,60.007,25.021h0.105c46.975-0.06,85.169-38.304,85.143-85.253
	c-0.021-46.936-38.321-85.122-85.433-85.122C77.955,15.152,56.649,24.072,40.557,40.255z"/>
</svg>
