<?xml version="1.0" encoding="utf-8"?>
<!-- Generator: Adobe Illustrator 16.0.0, SVG Export Plug-In . SVG Version: 6.00 Build 0)  -->
<!DOCTYPE svg PUBLIC "-//W3C//DTD SVG 1.1//EN" "http://www.w3.org/Graphics/SVG/1.1/DTD/svg11.dtd">
<svg version="1.1" id="Layer_1" xmlns="http://www.w3.org/2000/svg" xmlns:xlink="http://www.w3.org/1999/xlink" x="0px" y="0px"
	 width="200px" height="200px" viewBox="0 0 200 200" enable-background="new 0 0 200 200" xml:space="preserve">
<path fill="#FFFFFF" d="M100.23,9.898c-49.609,0.036-90.192,40.849-90.15,90.661c0.044,49.483,40.932,90.256,90.455,90.192
	c49.719-0.063,90.402-40.796,90.371-90.495C190.879,50.447,150.152,9.864,100.23,9.898z M130.367,48.357
	c6.439-0.074,11.863,7.899,11.84,17.407c-0.021,9.456-5.309,17.264-11.74,17.338c-6.453,0.073-11.85-7.864-11.832-17.408
	C118.648,56.209,123.912,48.432,130.367,48.357z M70.514,48.357c6.438-0.073,11.861,7.902,11.84,17.411
	c-0.023,9.455-5.308,17.26-11.741,17.334c-6.452,0.076-11.851-7.866-11.833-17.409C58.795,56.21,64.057,48.433,70.514,48.357z
	 M150.43,141.798c-3.279,2.531-7.117,2.772-11.052,0.894c-24.894-11.869-53.862-11.875-78.757-0.004
	c-0.574,0.271-1.141,0.578-1.747,0.769c-3.496,1.106-6.756,0.481-9.8-2.165c-3.034-2.63-3.757-6.01-2.315-9.874
	c0.965-2.581,3.029-4.293,5.585-5.515c15.068-7.191,31.358-10.815,47.664-10.814c9.562-0.001,19.129,1.243,28.436,3.73
	c6.881,1.834,13.67,4.274,20.119,7.584C155.164,129.818,155.594,138.001,150.43,141.798z"/>
</svg>
