<?xml version="1.0" encoding="utf-8"?>
<!-- Generator: Adobe Illustrator 16.0.0, SVG Export Plug-In . SVG Version: 6.00 Build 0)  -->
<!DOCTYPE svg PUBLIC "-//W3C//DTD SVG 1.1//EN" "http://www.w3.org/Graphics/SVG/1.1/DTD/svg11.dtd">
<svg version="1.1" id="Layer_1" xmlns="http://www.w3.org/2000/svg" xmlns:xlink="http://www.w3.org/1999/xlink" x="0px" y="0px"
	 width="360px" height="306.584px" viewBox="0 0 360 306.584" enable-background="new 0 0 360 306.584" xml:space="preserve">
<g>
	<path fill-rule="evenodd" clip-rule="evenodd" fill="#76B3CE" d="M179.859,87.398c-48.974,0-97.949,0.028-146.924-0.063
		c-3.187-0.006-4.39,0.477-4.38,4.129c0.143,51.57,0.099,103.141,0.092,154.712c0,3.068,0.029,6.114,2.007,8.719
		c2.527,3.328,5.933,4.552,10.043,4.538c17.83-0.061,7.94,0.031,25.77-0.083c2.862-0.018,4.125,0.397,3.956,3.737
		c-0.323,6.407-0.096,6.469-6.439,6.477c-17.04,0.019-6.361,0.016-23.401-0.026c-13.279-0.032-22.041-8.688-22.078-22.039
		c-0.076-27.984-0.013-55.972-0.011-83.957c0.001-34.982-0.001-69.964-0.003-104.947c0-3.382-0.21-6.796,0.611-10.108
		c2.018-8.138,9.134-14.578,17.635-14.938c11.377-0.48,22.785-0.308,34.179-0.314c48.862-0.028,97.725-0.033,146.587,0.023
		c2.415,0.003,3.444-0.386,3.708-3.17c0.939-9.891,9.132-17.598,19.396-17.732c20.192-0.264,40.394-0.261,60.586,0.004
		c10.592,0.139,17.977,7.47,19.14,18.174c0.202,1.858,0.603,2.653,2.696,2.874c11.355,1.197,18.337,8.875,18.426,20.318
		c0.121,15.459,0.062,30.919,0.063,46.38c0.003,49.088-0.01,98.176,0.003,147.264c0.003,10.642-5.523,18.726-14.716,21.426
		c-1.975,0.581-3.993,0.767-6.018,0.77c-18.394,0.026-135.938-0.042-154.331,0.078c-2.796,0.018-3.292-0.874-3.116-3.466
		c0.459-6.759,0.329-6.768,7.272-6.769c16.7-0.001,132.552-0.004,149.253-0.004c7.432-0.002,11.462-3.989,11.464-11.525
		c0.014-45.59-0.005-91.179-0.009-136.769c-0.001-6.884-0.06-13.769,0.07-20.65c0.044-2.228-0.386-3.112-2.914-3.107
		c-49.54,0.08-99.079,0.06-148.619,0.06C179.859,87.407,179.859,87.403,179.859,87.398z M302.846,50.508
		c-5.556,0.025-10.049,4.533-10.075,10.106c-0.025,5.567,4.448,10.119,10.001,10.177c5.733,0.06,10.278-4.505,10.221-10.267
		C312.936,54.948,308.412,50.482,302.846,50.508z M241.81,70.81c5.562,0.075,10.12-4.334,10.255-9.92
		c0.135-5.568-4.274-10.233-9.794-10.361c-5.777-0.135-10.35,4.288-10.41,10.068C231.802,66.165,236.253,70.734,241.81,70.81z
		 M272.48,50.507c-5.525-0.026-10.087,4.471-10.164,10.019c-0.078,5.557,4.362,10.175,9.882,10.282
		c5.662,0.109,10.338-4.501,10.337-10.193C282.535,55.075,278.016,50.533,272.48,50.507z"/>
	<g>
		<path fill-rule="evenodd" clip-rule="evenodd" fill="#76B3CE" d="M72.93,272.131c0.417-0.785,0.689-1.51,1.135-2.102
			c2.075-2.752,4.182-5.479,6.314-8.186c0.422-0.535,0.446-0.925,0.157-1.549c-0.785-1.691-1.492-3.418-2.146-5.163
			c-0.237-0.635-0.534-0.924-1.219-1.018c-3.666-0.497-7.326-1.041-10.985-1.584c-1.942-0.288-2.677-1.136-2.682-3.088
			c-0.009-4.732-0.008-9.464,0-14.193c0.003-1.996,0.782-2.857,2.742-3.151c3.696-0.554,7.385-1.149,11.085-1.67
			c0.665-0.093,0.914-0.397,1.137-0.957c0.633-1.599,1.289-3.191,2.017-4.748c0.272-0.581,0.258-0.972-0.136-1.473
			c-2.179-2.764-4.314-5.561-6.489-8.325c-1.345-1.712-1.505-2.619-0.045-4.156c3.401-3.582,6.849-7.131,10.451-10.511
			c1.994-1.871,2.802-1.705,4.982-0.02c2.639,2.04,5.291,4.065,7.895,6.15c0.616,0.494,1.084,0.497,1.765,0.172
			c1.318-0.634,2.656-1.263,4.049-1.688c1.073-0.329,1.335-0.961,1.469-1.954c0.469-3.447,0.966-6.894,1.568-10.319
			c0.444-2.527,1.062-2.947,3.638-2.947c4.548,0,9.096-0.002,13.644,0.002c2.176,0.002,2.887,0.582,3.226,2.723
			c0.584,3.692,1.153,7.386,1.684,11.085c0.097,0.675,0.363,1.001,1.003,1.237c1.511,0.555,3,1.174,4.464,1.841
			c0.65,0.297,1.1,0.252,1.677-0.193c2.932-2.263,5.899-4.479,8.859-6.701c1.287-0.966,2.414-1.038,3.563,0.1
			c3.647,3.604,7.256,7.249,10.776,10.977c1.39,1.47,1.308,2.465,0.061,4.116c-2.076,2.751-4.184,5.477-6.308,8.189
			c-0.435,0.556-0.497,0.972-0.171,1.648c0.78,1.611,1.465,3.274,2.075,4.957c0.268,0.737,0.674,1.021,1.396,1.124
			c3.589,0.521,7.173,1.077,10.761,1.607c2.044,0.302,2.78,1.131,2.783,3.225c0.004,4.658,0.004,9.316,0,13.973
			c-0.003,2.127-0.739,2.938-2.872,3.262c-3.658,0.554-7.312,1.146-10.974,1.669c-0.659,0.093-0.912,0.388-1.135,0.957
			c-0.633,1.598-1.298,3.187-2.031,4.738c-0.263,0.554-0.223,0.917,0.137,1.373c2.129,2.71,4.224,5.445,6.36,8.148
			c1.583,2.001,1.741,2.834-0.003,4.682c-3.313,3.514-6.708,6.962-10.236,10.261c-2.008,1.875-2.918,1.715-5.091,0.013
			c-2.629-2.055-5.263-4.102-7.871-6.184c-0.525-0.418-0.939-0.489-1.567-0.184c-1.315,0.638-2.65,1.277-4.042,1.701
			c-1.133,0.344-1.481,0.952-1.623,2.072c-0.432,3.414-0.944,6.82-1.542,10.209c-0.457,2.587-1.053,2.986-3.714,2.986
			c-4.548,0-9.095,0.005-13.643-0.002c-2.081-0.002-2.808-0.612-3.138-2.693c-0.58-3.653-1.157-7.308-1.673-10.97
			c-0.106-0.747-0.347-1.147-1.083-1.413c-1.514-0.542-3.001-1.167-4.464-1.838c-0.625-0.288-1.048-0.211-1.576,0.195
			c-2.844,2.193-5.711,4.359-8.581,6.521c-1.698,1.279-2.636,1.303-4.153-0.19c-3.547-3.492-7.042-7.043-10.504-10.623
			C73.58,273.712,73.34,272.895,72.93,272.131z M98.703,242.386c-0.013,9.806,7.741,17.637,17.516,17.691
			c9.81,0.055,17.681-7.777,17.706-17.616c0.024-9.755-7.776-17.574-17.575-17.618C106.596,224.799,98.716,232.634,98.703,242.386z"
			/>
	</g>
</g>
</svg>
