<?xml version="1.0" encoding="utf-8"?>
<!-- Generator: Adobe Illustrator 16.0.0, SVG Export Plug-In . SVG Version: 6.00 Build 0)  -->
<!DOCTYPE svg PUBLIC "-//W3C//DTD SVG 1.1//EN" "http://www.w3.org/Graphics/SVG/1.1/DTD/svg11.dtd">
<svg version="1.1" id="Layer_1" xmlns="http://www.w3.org/2000/svg" xmlns:xlink="http://www.w3.org/1999/xlink" x="0px" y="0px"
	 width="360px" height="306.584px" viewBox="0 0 360 306.584" enable-background="new 0 0 360 306.584" xml:space="preserve">
<g>
	<path fill="#76B3CE" stroke="#76B3CE" stroke-width="15" stroke-miterlimit="10" d="M331.328,206.459
		c0,3.585,0.002,37.836,0.001,41.421c-0.002,7.536-4.032,11.523-11.464,11.525l-279.168,0.027c-4.11,0.014-7.516-1.209-10.043-4.537
		c-1.978-2.605-2.007-5.651-2.007-8.72c0-3.017,0.001-36.7,0.002-39.717H18.496c0.006,3.458,0,37.583,0.009,41.04
		c0.037,13.352,8.799,22.007,22.078,22.039l280.204,0.027c2.024-0.002,4.043-0.188,6.018-0.77
		c9.193-2.699,14.72-10.784,14.717-21.426c-0.001-3.415,0-37.496,0-40.911H331.328z"/>
	<g>
		<path fill-rule="evenodd" clip-rule="evenodd" fill="#76B3CE" d="M195.525,125.98c0-0.957,0-1.714,0-2.472
			c0-13.059,0.006-26.117-0.003-39.176c-0.003-3.603-1.319-4.915-4.914-4.92c-6.981-0.012-13.963-0.008-20.945-0.003
			c-3.991,0.002-5.166,1.194-5.167,5.242c-0.004,12.995-0.002,25.989-0.003,38.983c0,0.745,0,1.491,0,2.347c-1.062,0-1.83,0-2.599,0
			c-6.723,0-13.447,0.009-20.169-0.006c-1.825-0.004-3.281,0.53-4.082,2.326c-0.811,1.818-0.126,3.253,1.06,4.588
			c0.215,0.241,0.456,0.459,0.685,0.687c12.296,12.297,24.59,24.595,36.891,36.888c2.51,2.509,4.677,2.751,6.898,0.54
			c12.646-12.588,25.254-25.211,37.853-37.846c1.344-1.348,2.124-2.97,1.274-4.918c-0.826-1.894-2.487-2.262-4.333-2.26
			c-6.4,0.006-12.801,0.002-19.201,0.002C197.753,125.98,196.737,125.98,195.525,125.98z"/>
		<path fill-rule="evenodd" clip-rule="evenodd" fill="#76B3CE" d="M214.071,126.004c2.657,0,4.884,0,7.11,0
			c14.032,0,28.065,0.009,42.098-0.004c4.047-0.003,7.689,0.804,9.5,4.956c1.863,4.272,0.152,7.829-2.794,10.783
			c-27.622,27.702-55.266,55.379-82.99,82.978c-4.871,4.847-9.622,4.316-15.125-1.185c-26.968-26.952-53.924-53.915-80.882-80.875
			c-0.502-0.5-1.03-0.977-1.5-1.506c-2.601-2.926-4.101-6.073-2.323-10.059c1.757-3.938,4.948-5.11,8.95-5.1
			c14.739,0.033,29.481,0.013,44.221,0.013c1.686,0,3.371,0,5.698,0c0-1.877,0-3.512,0-5.146
			c0.001-28.489-0.003-56.979,0.007-85.469c0.003-8.875,2.58-11.487,11.33-11.492c15.307-0.011,30.614-0.018,45.92,0.007
			c7.882,0.012,10.768,2.89,10.774,10.788c0.02,28.63,0.007,57.261,0.007,85.892C214.071,122.246,214.071,123.906,214.071,126.004z"
			/>
	</g>
</g>
</svg>
