<?xml version="1.0" encoding="utf-8"?>
<!-- Generator: Adobe Illustrator 16.0.0, SVG Export Plug-In . SVG Version: 6.00 Build 0)  -->
<!DOCTYPE svg PUBLIC "-//W3C//DTD SVG 1.1//EN" "http://www.w3.org/Graphics/SVG/1.1/DTD/svg11.dtd">
<svg version="1.1" id="Layer_1" xmlns="http://www.w3.org/2000/svg" xmlns:xlink="http://www.w3.org/1999/xlink" x="0px" y="0px"
	 width="252.936px" height="127.667px" viewBox="0 0 252.936 127.667" enable-background="new 0 0 252.936 127.667"
	 xml:space="preserve">
<g>
	<path fill="#FFFFFF" d="M240.62,52.776c0,12.533-11.895,22.695-26.557,22.695H47.402c-14.664,0-26.554-10.162-26.554-22.695l0,0
		c0-12.536,11.89-22.698,26.554-22.698h166.666C228.73,30.078,240.62,40.24,240.62,52.776L240.62,52.776z"/>
	<g>
		<path fill="#4192B6" d="M214.068,77.427H47.402c-15.718,0-28.508-11.059-28.508-24.648c0-13.595,12.791-24.651,28.508-24.651
			h166.666c15.727,0,28.51,11.057,28.51,24.651C242.573,66.369,229.79,77.427,214.068,77.427z M47.402,32.03
			c-13.562,0-24.601,9.307-24.601,20.746s11.036,20.742,24.601,20.742h166.666c13.566,0,24.604-9.303,24.604-20.742
			S227.636,32.03,214.068,32.03H47.402z"/>
		<path fill="#79B3C7" d="M214.068,77.677H47.402c-15.857,0-28.758-11.169-28.758-24.898c0-13.73,12.901-24.901,28.758-24.901
			h166.666c15.858,0,28.76,11.17,28.76,24.901C242.823,66.508,229.922,77.677,214.068,77.677z M47.402,28.378
			c-15.582,0-28.258,10.946-28.258,24.401c0,13.453,12.676,24.398,28.258,24.398h166.666c15.578,0,28.256-10.945,28.26-24.398
			c0-13.455-12.678-24.401-28.26-24.401H47.402z M214.068,73.768H47.402c-13.703,0-24.851-9.417-24.851-20.992
			c0-11.577,11.148-20.996,24.851-20.996h166.666c13.705,0,24.854,9.419,24.854,20.996
			C238.922,64.351,227.773,73.768,214.068,73.768z M47.402,32.28c-13.427,0-24.351,9.194-24.351,20.496
			c0,11.299,10.924,20.492,24.351,20.492h166.666c13.429,0,24.354-9.193,24.354-20.492c0-11.302-10.926-20.496-24.354-20.496H47.402
			z"/>
	</g>
</g>
<g>
	<path fill="#2A73AD" d="M90.074,45.303h3.438v15.406h-3.438V45.303z"/>
	<path fill="#2A73AD" d="M100.168,54.098v6.611H96.86V48.852h3.309v1.321c1-1.013,2.121-1.52,3.371-1.52
		c1.248,0,2.294,0.441,3.141,1.324c0.846,0.881,1.266,2.061,1.266,3.525v7.206h-3.304v-6.7c0-1.819-0.671-2.732-2.007-2.732
		c-0.66,0-1.238,0.238-1.727,0.715C100.413,52.469,100.168,53.172,100.168,54.098z"/>
	<path fill="#2A73AD" d="M117.777,48.653c1.442,0,2.695,0.564,3.771,1.685c1.074,1.124,1.606,2.568,1.606,4.331
		c0,1.763-0.552,3.24-1.65,4.43c-1.104,1.19-2.354,1.785-3.757,1.785c-1.406,0-2.568-0.58-3.496-1.743v1.566h-3.309V44.354h3.309
		v5.818C115.162,49.16,116.337,48.653,117.777,48.653z M114.206,54.792c0,0.96,0.27,1.747,0.806,2.359
		c0.537,0.609,1.188,0.913,1.95,0.913s1.434-0.304,2.005-0.913c0.574-0.612,0.861-1.396,0.861-2.348
		c0-0.956-0.283-1.759-0.844-2.404c-0.557-0.648-1.227-0.97-2.004-0.97c-0.776,0-1.436,0.321-1.973,0.959
		C114.475,53.03,114.206,53.828,114.206,54.792z"/>
	<path fill="#2A73AD" d="M137.481,54.78c0,1.721-0.594,3.168-1.785,4.343c-1.188,1.176-2.684,1.762-4.484,1.762
		c-1.798,0-3.294-0.586-4.483-1.762c-1.188-1.175-1.786-2.622-1.786-4.343c0-1.72,0.598-3.168,1.786-4.354
		c1.189-1.184,2.688-1.773,4.483-1.773c1.804,0,3.297,0.59,4.484,1.773C136.886,51.612,137.481,53.061,137.481,54.78z
		 M128.269,54.78c0,0.968,0.274,1.759,0.826,2.371c0.549,0.609,1.255,0.913,2.112,0.913s1.564-0.304,2.118-0.913
		c0.551-0.612,0.822-1.403,0.822-2.371c0-0.972-0.271-1.763-0.822-2.381c-0.554-0.617-1.261-0.924-2.118-0.924
		s-1.563,0.307-2.112,0.924C128.543,53.02,128.269,53.809,128.269,54.78z"/>
	<path fill="#2A73AD" d="M142.328,48.852l2.023,3.175l2.102-3.175h3.877l-4.077,5.794l4.229,6.063h-3.942l-2.313-3.264l-2.248,3.264
		h-3.812l4.144-6.04l-3.925-5.815h3.945L142.328,48.852L142.328,48.852z"/>
	<path fill="#2A73AD" d="M157.472,54.163l2.733-8.86h3.589l2.717,8.86l3.061-8.86h3.729l-5.38,15.406h-2.56l-3.367-10.712
		l-3.354,10.712h-2.558l-5.375-15.406h3.725L157.472,54.163z"/>
	<path fill="#2A73AD" d="M185.725,54.78c0,1.721-0.593,3.168-1.785,4.343c-1.188,1.176-2.686,1.762-4.48,1.762
		c-1.805,0-3.294-0.586-4.485-1.762c-1.188-1.175-1.785-2.622-1.785-4.343c0-1.72,0.599-3.168,1.785-4.354
		c1.191-1.184,2.687-1.773,4.485-1.773c1.798,0,3.294,0.59,4.48,1.773C185.131,51.612,185.725,53.061,185.725,54.78z M176.511,54.78
		c0,0.968,0.276,1.759,0.83,2.371c0.547,0.609,1.255,0.913,2.114,0.913c0.856,0,1.562-0.304,2.111-0.913
		c0.553-0.612,0.826-1.403,0.826-2.371c0-0.972-0.273-1.763-0.826-2.381c-0.553-0.617-1.255-0.924-2.111-0.924
		c-0.859,0-1.567,0.307-2.114,0.924C176.787,53.02,176.511,53.809,176.511,54.78z"/>
	<path fill="#2A73AD" d="M194.407,51.76c-0.983,0-1.724,0.353-2.204,1.048c-0.484,0.699-0.727,1.622-0.727,2.769v5.133h-3.306
		V48.852h3.306v1.562c0.424-0.483,0.956-0.894,1.599-1.233c0.637-0.337,1.286-0.513,1.947-0.529l0.022,3.106h-0.644v0.002H194.407z"
		/>
	<path fill="#2A73AD" d="M201.172,51.229v5.313c0,0.458,0.117,0.814,0.354,1.067c0.234,0.258,0.516,0.388,0.837,0.388
		c0.618,0,1.144-0.28,1.566-0.837l1.233,2.315c-1.028,0.938-2.111,1.41-3.253,1.41c-1.14,0-2.104-0.377-2.89-1.126
		c-0.783-0.749-1.179-1.769-1.179-3.064v-5.467h-1.387v-2.376h1.387v-3.549h3.328v3.549h2.861v2.376L201.172,51.229L201.172,51.229z
		"/>
	<path fill="#2A73AD" d="M210.234,54.315v6.394h-3.306V44.354h3.306v5.818c0.998-1.013,2.119-1.52,3.359-1.52
		s2.289,0.441,3.141,1.324c0.854,0.881,1.281,2.061,1.281,3.525v7.206h-3.307v-6.481c0-1.819-0.67-2.729-2.004-2.729
		c-0.666,0-1.24,0.239-1.731,0.715C210.479,52.689,210.234,53.391,210.234,54.315z"/>
	<path fill="#2A73AD" d="M223.057,65.38c-1.159,0-2.254-0.471-3.284-1.413l1.499-2.449c0.562,0.545,1.133,0.816,1.721,0.816
		c0.312,0,0.569-0.152,0.795-0.453c0.219-0.3,0.33-0.622,0.33-0.96c0-0.337-1.528-4.362-4.584-12.074h3.521l2.888,7.382l2.891-7.382
		h3.524l-5.507,13.973c-0.325,0.805-0.83,1.437-1.509,1.886C224.656,65.158,223.899,65.38,223.057,65.38z"/>
</g>
<g>
	<g>
		<g>
			<path fill="#4192B6" d="M82.18,27.808C71.748,18.792,60.203,9.335,47.047,0.317C33.714,9.341,22.06,18.99,11.569,28.296
				c-0.146,0.114-0.286,0.232-0.417,0.367c-0.051,0.046-0.104,0.092-0.152,0.138c0.008,0.007,0.015,0.014,0.021,0.021
				c-0.854,0.998-1.273,2.464-1.01,4.092c2.1,13.119,3.787,26.229,5.065,39.339c0.281,2.869,2.183,5.291,4.262,5.395
				c12.631,0.547,25.271,0.604,37.92,0.186c3.434,4.041,6.763,8.002,10.021,11.84c0.161-4.067,0.352-8.141,0.56-12.213
				c2.729-0.146,5.47-0.313,8.206-0.508c2.085-0.146,3.97-2.562,4.236-5.385c1.206-12.863,2.808-25.724,4.785-38.578
				C85.46,30.496,84.21,28.348,82.18,27.808z"/>
			<path fill="#79B3C7" d="M67.502,90.324l-0.415-0.488c-1.532-1.805-3.079-3.636-4.645-5.49c-1.741-2.06-3.505-4.147-5.297-6.258
				c-5.481,0.18-11.022,0.271-16.473,0.271c-7.106,0-14.288-0.154-21.346-0.46c-2.189-0.109-4.207-2.63-4.5-5.62
				c-1.272-13.051-2.976-26.282-5.063-39.324c-0.249-1.539,0.084-3.022,0.917-4.109l-0.044-0.042l0.348-0.325
				c0.126-0.132,0.276-0.257,0.43-0.378C24.287,16.681,35.569,7.784,46.907,0.11l0.141-0.095l0.14,0.096
				c14.232,9.755,26.237,19.801,35.112,27.471c2.153,0.606,3.417,2.886,3.011,5.447c-1.983,12.892-3.593,25.866-4.783,38.562
				c-0.278,2.941-2.282,5.458-4.468,5.61c-2.566,0.183-5.252,0.35-7.985,0.496c-0.222,4.356-0.401,8.279-0.548,11.985L67.502,90.324
				z M57.369,77.58l0.078,0.092c1.82,2.142,3.61,4.261,5.376,6.352c1.425,1.687,2.834,3.354,4.229,5
				c0.145-3.584,0.32-7.378,0.534-11.575l0.011-0.225l0.225-0.013c2.808-0.149,5.567-0.32,8.202-0.507
				c1.953-0.137,3.749-2.451,4.005-5.159c1.191-12.705,2.802-25.689,4.787-38.592c0.369-2.327-0.768-4.388-2.702-4.902l-0.099-0.053
				c-8.84-7.641-20.797-17.651-34.97-27.377c-11.272,7.64-22.498,16.498-35.312,27.863c-0.148,0.117-0.28,0.227-0.403,0.354
				l-0.122,0.147c-0.846,0.989-1.193,2.407-0.953,3.89c2.089,13.053,3.794,26.293,5.068,39.355c0.27,2.753,2.076,5.072,4.025,5.169
				c7.049,0.306,14.224,0.46,21.323,0.46c5.485,0,11.062-0.092,16.577-0.274L57.369,77.58z"/>
		</g>
		<path fill="#FFFFFF" d="M20.232,69.181c-0.225-0.51-0.375-1.062-0.426-1.639c-0.893-10.104-1.986-20.217-3.283-30.339
			c7.232,4.43,14.062,9.046,20.563,13.683C31.129,57.104,25.557,63.263,20.232,69.181z"/>
		<path fill="#FFFFFF" d="M23.416,71.646c-0.743-0.016-1.454-0.344-2.05-0.879c5.476-6.068,11.208-12.392,17.345-18.769
			c3.135,2.271,6.188,4.544,9.184,6.802c2.993-2.299,6.06-4.602,9.194-6.889c6.169,6.275,11.938,12.43,17.446,18.27
			c-0.604,0.555-1.319,0.904-2.08,0.941C56.096,71.912,39.75,72.091,23.416,71.646z"/>
		<path fill="#FFFFFF" d="M58.706,50.795c6.47-4.659,13.269-9.247,20.475-13.593c-1.234,9.939-2.273,19.875-3.122,29.807
			c-0.05,0.555-0.188,1.084-0.397,1.574C70.3,62.896,64.694,56.907,58.706,50.795z"/>
		<g>
			<g>
				<path fill="#FFFFFF" d="M69.505,37.418c-3.104-0.12-6.201-0.231-9.306-0.333c-1.364,4.927-6.745,10.721-12.938,10.754
					c-6.271,0.02-11.739-5.659-13.073-10.718c-2.828,0.006-5.65,0.021-8.479,0.044c0.146,1.692,0.298,3.384,0.438,5.075
					c7.56,3.575,14.792,7.26,21.768,10.899c6.766-3.517,13.775-7.029,21.09-10.405C69.166,40.964,69.333,39.19,69.505,37.418z"/>
			</g>
			<g>
				<g>
					<path fill="#FFFFFF" d="M71.863,39.47c0.847-9.193,1.812-18.396,2.896-27.607c-18.351-1.022-36.685-1.117-55.002-0.299
						c1.194,9.21,2.252,18.409,3.178,27.597"/>
					<path fill="#626363" d="M71.679,41.497c-1.229,0.562-2.454,1.129-3.669,1.699c0.707-9.396,1.523-18.803,2.449-28.222
						c-15.358-0.621-30.693-0.631-46.002-0.051c0.984,9.267,1.857,18.52,2.622,27.76c-1.323-0.637-2.657-1.27-4-1.898
						c-0.958-9.728-2.064-19.468-3.322-29.221c18.318-0.818,36.652-0.724,55.002,0.299C73.592,21.751,72.564,31.63,71.679,41.497z"
						/>
				</g>
				<path fill="#2B72AD" d="M60.601,37.085c0.346-6-5.579-11.024-13.264-11.05c-7.688-0.013-13.547,5.018-13.146,11.068
					c0.397,6.045,6.312,10.929,13.249,10.908C54.389,47.976,60.263,43.084,60.601,37.085z"/>
				<g>
					<g>
						<path fill="#0F79AC" d="M45.2,42.019c3.517-2.666,7.14-5.323,10.884-7.942"/>
						<path fill="#FFFFFF" d="M45.486,43.267c-0.53-1.316-1.073-2.632-1.63-3.948c3.396-2.807,6.896-5.604,10.521-8.363
							c1.104,0.983,2.191,1.967,3.271,2.949C53.443,36.986,49.396,40.121,45.486,43.267z"/>
					</g>
					<g>
						<path fill="#0F79AC" d="M40.325,38.533c1.54,1.127,3.062,2.258,4.562,3.389"/>
						<path fill="#FFFFFF" d="M45.397,43.269c-2.206-1.718-4.456-3.436-6.751-5.146c1.16-1.052,2.334-2.103,3.523-3.152
							c1.491,1.188,2.962,2.38,4.412,3.571C46.18,40.117,45.785,41.692,45.397,43.269z"/>
					</g>
				</g>
				<path fill="#A3A0A8" d="M64.859,24.182c-0.014,0.18-0.812,0.305-1.794,0.281c-10.621-0.245-21.23-0.267-31.844-0.069
					c-0.979,0.016-1.784-0.111-1.798-0.291c-0.158-1.954-0.319-3.909-0.485-5.864c-0.017-0.18,0.786-0.347,1.787-0.372
					c10.91-0.24,21.826-0.201,32.749,0.122c1.006,0.029,1.812,0.201,1.797,0.379C65.13,20.306,64.992,22.244,64.859,24.182z"/>
			</g>
		</g>
	</g>
</g>
<g>
	<path fill="#4192B6" d="M53.444,100.298h5.834v7.625c-0.944,0.309-1.835,0.525-2.669,0.647c-0.835,0.122-1.689,0.187-2.561,0.187
		c-2.218,0-3.915-0.65-5.083-1.957c-1.17-1.305-1.755-3.176-1.755-5.617c0-2.372,0.679-4.223,2.037-5.553
		c1.357-1.328,3.239-1.991,5.647-1.991c1.507,0,2.963,0.305,4.364,0.905l-1.036,2.496c-1.074-0.539-2.188-0.805-3.349-0.805
		c-1.35,0-2.429,0.453-3.239,1.357c-0.811,0.906-1.216,2.121-1.216,3.65c0,1.596,0.326,2.813,0.979,3.653
		c0.651,0.843,1.604,1.265,2.852,1.265c0.648,0,1.311-0.068,1.979-0.201v-3.069h-2.787L53.444,100.298L53.444,100.298z"/>
	<path fill="#4192B6" d="M62.406,94.404c0-0.999,0.555-1.499,1.669-1.499c1.113,0,1.67,0.5,1.67,1.499
		c0,0.477-0.141,0.848-0.417,1.112c-0.278,0.265-0.695,0.397-1.253,0.397C62.961,95.916,62.406,95.41,62.406,94.404z
		 M65.604,108.558h-3.068V97.314h3.068V108.558z"/>
	<path fill="#4192B6" d="M71.496,108.558l-4.285-11.244h3.21l2.171,6.406c0.242,0.812,0.394,1.58,0.454,2.306h0.062
		c0.032-0.644,0.184-1.411,0.454-2.306l2.162-6.406h3.209l-4.284,11.244H71.496z"/>
	<path fill="#4192B6" d="M85.629,108.757c-1.812,0-3.225-0.502-4.244-1.502c-1.021-0.998-1.529-2.412-1.529-4.243
		c0-1.884,0.471-3.339,1.412-4.369c0.941-1.026,2.245-1.545,3.908-1.545c1.591,0,2.827,0.452,3.711,1.358s1.327,2.158,1.327,3.752
		v1.487h-7.251c0.032,0.873,0.292,1.554,0.774,2.044c0.483,0.488,1.16,0.733,2.031,0.733c0.677,0,1.316-0.07,1.921-0.212
		c0.604-0.141,1.233-0.366,1.892-0.676v2.373c-0.537,0.268-1.11,0.469-1.722,0.599C87.251,108.692,86.506,108.757,85.629,108.757z
		 M85.196,99.283c-0.649,0-1.16,0.207-1.528,0.619c-0.369,0.411-0.581,0.997-0.635,1.756h4.306
		c-0.015-0.759-0.213-1.345-0.595-1.756C86.362,99.49,85.845,99.283,85.196,99.283z"/>
	<path fill="#4192B6" d="M101.369,108.558H98.3V93.852h8.428v2.556h-5.361v3.788h4.987v2.548h-4.987L101.369,108.558
		L101.369,108.558z"/>
	<path fill="#4192B6" d="M114.453,108.757c-1.812,0-3.225-0.502-4.245-1.502c-1.021-0.998-1.529-2.412-1.529-4.243
		c0-1.884,0.471-3.339,1.412-4.369c0.941-1.026,2.245-1.545,3.908-1.545c1.59,0,2.828,0.452,3.711,1.358
		c0.884,0.906,1.327,2.158,1.327,3.752v1.487h-7.252c0.033,0.873,0.292,1.554,0.775,2.044c0.483,0.488,1.16,0.733,2.031,0.733
		c0.677,0,1.316-0.07,1.921-0.212c0.605-0.141,1.233-0.366,1.891-0.676v2.373c-0.537,0.268-1.11,0.469-1.72,0.599
		C116.075,108.692,115.332,108.757,114.453,108.757z M114.02,99.283c-0.649,0-1.161,0.207-1.528,0.619
		c-0.369,0.411-0.581,0.997-0.636,1.756h4.307c-0.015-0.759-0.212-1.345-0.595-1.756C115.188,99.49,114.672,99.283,114.02,99.283z"
		/>
	<path fill="#4192B6" d="M126.623,108.757c-1.812,0-3.226-0.502-4.245-1.502c-1.02-0.998-1.529-2.412-1.529-4.243
		c0-1.884,0.471-3.339,1.413-4.369c0.941-1.026,2.245-1.545,3.907-1.545c1.59,0,2.828,0.452,3.711,1.358
		c0.884,0.906,1.327,2.158,1.327,3.752v1.487h-7.25c0.031,0.873,0.292,1.554,0.773,2.044c0.483,0.488,1.161,0.733,2.031,0.733
		c0.678,0,1.318-0.07,1.921-0.212c0.604-0.141,1.234-0.366,1.891-0.676v2.373c-0.536,0.268-1.11,0.469-1.722,0.599
		C128.246,108.692,127.502,108.757,126.623,108.757z M126.19,99.283c-0.648,0-1.16,0.207-1.528,0.619
		c-0.367,0.411-0.58,0.997-0.634,1.756h4.306c-0.015-0.759-0.212-1.345-0.596-1.756C127.358,99.49,126.841,99.283,126.19,99.283z"/>
	<path fill="#4192B6" d="M137.264,108.757c-1.32,0-2.357-0.514-3.114-1.541c-0.752-1.023-1.13-2.447-1.13-4.266
		c0-1.843,0.383-3.277,1.151-4.311c0.767-1.025,1.826-1.544,3.173-1.544c1.413,0,2.495,0.548,3.238,1.647h0.101
		c-0.154-0.836-0.231-1.586-0.231-2.242v-3.601h3.077v15.649h-2.354l-0.596-1.456h-0.13
		C139.754,108.207,138.693,108.757,137.264,108.757z M138.34,106.314c0.785,0,1.359-0.229,1.725-0.684
		c0.366-0.457,0.566-1.231,0.599-2.325v-0.33c0-1.207-0.185-2.072-0.558-2.595c-0.371-0.523-0.979-0.787-1.814-0.787
		c-0.688,0-1.215,0.291-1.597,0.871c-0.38,0.582-0.566,1.422-0.566,2.529s0.188,1.937,0.572,2.488
		C137.083,106.039,137.629,106.314,138.34,106.314z"/>
	<path fill="#4192B6" d="M152.994,97.101c1.326,0,2.365,0.518,3.117,1.554c0.751,1.035,1.126,2.456,1.126,4.261
		c0,1.856-0.388,3.295-1.162,4.315c-0.775,1.021-1.83,1.528-3.164,1.528c-1.319,0-2.357-0.48-3.107-1.439h-0.213l-0.513,1.238
		h-2.345v-15.65h3.069v3.643c0,0.461-0.04,1.203-0.12,2.222h0.12C150.523,97.658,151.586,97.101,152.994,97.101z M152.009,99.553
		c-0.758,0-1.312,0.233-1.658,0.698c-0.351,0.467-0.532,1.235-0.546,2.31v0.331c0,1.21,0.179,2.074,0.539,2.598
		c0.359,0.522,0.928,0.784,1.705,0.784c0.631,0,1.13-0.288,1.503-0.871c0.371-0.579,0.557-1.422,0.557-2.528
		c0-1.105-0.188-1.936-0.562-2.488C153.17,99.832,152.66,99.553,152.009,99.553z"/>
	<path fill="#4192B6" d="M166.914,108.558l-0.595-1.531h-0.08c-0.518,0.65-1.049,1.104-1.597,1.354
		c-0.547,0.254-1.26,0.379-2.135,0.379c-1.079,0-1.931-0.311-2.551-0.928c-0.619-0.617-0.93-1.496-0.93-2.636
		c0-1.192,0.416-2.073,1.253-2.64c0.834-0.568,2.094-0.883,3.777-0.941l1.949-0.061v-0.493c0-1.14-0.583-1.71-1.748-1.71
		c-0.898,0-1.956,0.271-3.171,0.816l-1.015-2.074c1.294-0.678,2.729-1.018,4.305-1.018c1.507,0,2.664,0.327,3.469,0.985
		c0.805,0.655,1.207,1.655,1.207,2.996v7.491h-2.142v0.01H166.914z M166.011,103.346l-1.188,0.04
		c-0.893,0.025-1.557,0.188-1.991,0.482c-0.438,0.295-0.653,0.744-0.653,1.348c0,0.867,0.498,1.299,1.489,1.299
		c0.711,0,1.277-0.206,1.703-0.612c0.427-0.405,0.641-0.952,0.641-1.629L166.011,103.346L166.011,103.346z"/>
	<path fill="#4192B6" d="M176.78,108.757c-3.5,0-5.25-1.924-5.25-5.764c0-1.912,0.478-3.369,1.43-4.379
		c0.952-1.011,2.314-1.515,4.095-1.515c1.301,0,2.465,0.255,3.501,0.765l-0.905,2.373c-0.483-0.193-0.933-0.354-1.349-0.479
		c-0.417-0.122-0.834-0.186-1.247-0.186c-1.597,0-2.396,1.133-2.396,3.399c0,2.198,0.798,3.299,2.396,3.299
		c0.591,0,1.135-0.077,1.638-0.233c0.506-0.16,1.008-0.406,1.51-0.74v2.623c-0.496,0.315-0.996,0.535-1.503,0.656
		C178.19,108.697,177.551,108.757,176.78,108.757z"/>
	<path fill="#4192B6" d="M185.751,102.441l1.339-1.71l3.146-3.417h3.459l-4.465,4.878l4.738,6.366h-3.539l-3.239-4.557l-1.315,1.058
		v3.501h-3.068V92.908h3.068v6.98l-0.163,2.553H185.751z"/>
</g>
</svg>
