<?xml version="1.0" encoding="utf-8"?>
<!-- Generator: Adobe Illustrator 16.0.0, SVG Export Plug-In . SVG Version: 6.00 Build 0)  -->
<!DOCTYPE svg PUBLIC "-//W3C//DTD SVG 1.1//EN" "http://www.w3.org/Graphics/SVG/1.1/DTD/svg11.dtd">
<svg version="1.1" id="Layer_1" xmlns="http://www.w3.org/2000/svg" xmlns:xlink="http://www.w3.org/1999/xlink" x="0px" y="0px"
	 width="200px" height="200px" viewBox="0 0 200 200" enable-background="new 0 0 200 200" xml:space="preserve">
<g>
	<g>
		<g>
			<path fill="#96D34F" d="M100.536,190.427c-49.524,0.064-90.412-40.706-90.456-90.194C10.039,50.421,50.622,9.61,100.23,9.574
				c49.922-0.034,90.649,40.549,90.677,90.357C190.938,149.631,150.257,190.361,100.536,190.427z"/>
		</g>
	</g>
	<g opacity="0.5">
		<path fill="#323232" d="M100.645,129.845c13.431,0.003,26.867-2.958,39.256-8.938c2.104-1.017,4.219-1.521,6.699-0.843
			c3.676,1.006,6.516,3.09,7.479,7.117c0.96,4.008-0.455,7.529-4.097,10.041c-0.625,0.43-1.334,0.75-2.022,1.077
			c-29.907,14.267-64.725,14.269-94.631-0.006c-4.784-2.288-7.06-6.259-6.333-10.433c1.247-6.467,8.377-9.727,13.611-7.288
			c5.411,2.519,10.927,4.68,16.602,6.192C84.885,128.816,92.762,129.84,100.645,129.845z"/>
	</g>
</g>
<path opacity="0.5" fill="#323232" enable-background="new    " d="M58.905,65.693c-0.018,9.543,5.381,17.485,11.833,17.409
	c6.433-0.074,11.718-7.879,11.741-17.334c0.021-9.509-5.402-17.484-11.84-17.411C64.182,48.433,58.921,56.21,58.905,65.693z"/>
<path opacity="0.5" fill="#323232" enable-background="new    " d="M118.76,65.694c-0.018,9.544,5.379,17.481,11.832,17.408
	c6.432-0.074,11.719-7.882,11.741-17.338c0.022-9.508-5.401-17.481-11.841-17.407C124.037,48.432,118.773,56.209,118.76,65.694z"/>
<path fill="#323232" fill-opacity="0.5" d="M100.406,190.427c-23.932,0-46.536-9.452-63.652-26.618
	c-17.115-17.164-26.544-39.832-26.552-63.831c-0.008-24.027,9.426-46.697,26.563-63.832C53.903,19.01,76.577,9.574,100.615,9.574
	c23.988,0,46.644,9.416,63.789,26.513c17.146,17.099,26.604,39.708,26.629,63.659c0.021,24.168-9.396,46.922-26.526,64.068
	C147.361,180.979,124.598,190.428,100.406,190.427L100.406,190.427L100.406,190.427z M45.597,44.979
	C30.826,59.75,22.695,79.28,22.701,99.977c0.008,20.675,8.137,40.208,22.894,55.007c14.754,14.793,34.224,22.942,54.825,22.942l0,0
	c20.85,0,40.471-8.146,55.247-22.937c14.769-14.782,22.89-34.396,22.865-55.22c-0.021-20.625-8.171-40.102-22.951-54.839
	c-14.781-14.739-34.302-22.856-54.968-22.856C79.909,22.074,60.37,30.208,45.597,44.979z"/>
</svg>
