<?xml version="1.0" encoding="utf-8"?>
<!-- Generator: Adobe Illustrator 16.0.0, SVG Export Plug-In . SVG Version: 6.00 Build 0)  -->
<!DOCTYPE svg PUBLIC "-//W3C//DTD SVG 1.1//EN" "http://www.w3.org/Graphics/SVG/1.1/DTD/svg11.dtd">
<svg version="1.1" id="Layer_1" xmlns="http://www.w3.org/2000/svg" xmlns:xlink="http://www.w3.org/1999/xlink" x="0px" y="0px"
	 width="200px" height="200px" viewBox="0 0 200 200" enable-background="new 0 0 200 200" xml:space="preserve">
<g>
	<g>
		<g>
			<path fill="#96D34F" stroke="#FFFFFF" stroke-width="8" stroke-miterlimit="10" d="M100.534,187.307
				c-47.638,0.062-86.968-39.156-87.01-86.759c-0.04-47.914,38.997-87.171,86.716-87.206c48.021-0.033,87.197,39.004,87.224,86.916
				C187.491,148.064,148.361,187.244,100.534,187.307z"/>
		</g>
	</g>
	<g opacity="0.5">
		<path fill="#323232" d="M100.645,129.511c13.431,0.002,26.868-2.958,39.257-8.938c2.106-1.017,4.22-1.522,6.701-0.843
			c3.677,1.006,6.516,3.09,7.48,7.118c0.96,4.008-0.454,7.53-4.096,10.043c-0.627,0.43-1.333,0.749-2.023,1.076
			c-29.909,14.267-64.73,14.27-94.638-0.006c-4.785-2.287-7.06-6.259-6.333-10.433c1.247-6.467,8.378-9.727,13.612-7.289
			c5.411,2.519,10.928,4.68,16.604,6.193C84.883,128.482,92.762,129.508,100.645,129.511z"/>
	</g>
</g>
<path opacity="0.5" fill="#323232" enable-background="new    " d="M58.905,65.693c-0.018,9.543,5.381,17.485,11.833,17.409
	c6.433-0.074,11.718-7.879,11.741-17.334c0.021-9.509-5.402-17.484-11.84-17.411C64.182,48.433,58.921,56.21,58.905,65.693z"/>
<path opacity="0.5" fill="#323232" enable-background="new    " d="M118.76,65.694c-0.018,9.544,5.379,17.481,11.832,17.408
	c6.432-0.074,11.719-7.882,11.741-17.338c0.022-9.508-5.401-17.481-11.841-17.407C124.037,48.432,118.773,56.209,118.76,65.694z"/>
<path fill="#4192B6" d="M31.65,168.773c-18.381-18.352-28.514-42.57-28.538-68.207C3.09,74.751,13.157,50.399,31.458,31.997
	C49.76,13.588,74.007,3.441,99.796,3.423c53.509,0,97.063,43.437,97.093,96.827c0.028,53.406-43.412,96.904-96.843,96.975h-0.121
	C74.275,197.225,50.03,187.123,31.65,168.773z M40.063,40.254c-16.094,16.185-24.948,37.6-24.928,60.294
	c0.021,22.519,8.932,43.804,25.094,59.938c16.163,16.136,37.476,25.021,60.008,25.021h0.106
	c46.974-0.062,85.169-38.305,85.142-85.253c-0.021-46.936-38.32-85.122-85.43-85.122C77.461,15.151,56.155,24.071,40.063,40.254z"/>
</svg>
