<?xml version="1.0" encoding="utf-8"?>
<!-- Generator: Adobe Illustrator 16.0.0, SVG Export Plug-In . SVG Version: 6.00 Build 0)  -->
<!DOCTYPE svg PUBLIC "-//W3C//DTD SVG 1.1//EN" "http://www.w3.org/Graphics/SVG/1.1/DTD/svg11.dtd">
<svg version="1.1" id="Layer_1" xmlns="http://www.w3.org/2000/svg" xmlns:xlink="http://www.w3.org/1999/xlink" x="0px" y="0px"
	 width="200px" height="200px" viewBox="0 0 200 200" enable-background="new 0 0 200 200" xml:space="preserve">
<path fill="#FFFFFF" d="M100.23,9.574C50.622,9.61,10.039,50.421,10.08,100.233c0.044,49.488,40.932,90.258,90.456,90.194
	c49.721-0.065,90.401-40.796,90.371-90.496C190.879,50.123,150.152,9.54,100.23,9.574z M130.492,48.357
	c6.439-0.074,11.863,7.899,11.841,17.407c-0.022,9.456-5.31,17.264-11.741,17.338c-6.453,0.073-11.85-7.864-11.832-17.408
	C118.773,56.209,124.037,48.432,130.492,48.357z M70.639,48.357c6.438-0.073,11.861,7.902,11.84,17.411
	c-0.023,9.455-5.308,17.26-11.741,17.334c-6.452,0.076-11.851-7.866-11.833-17.409C58.921,56.21,64.182,48.433,70.639,48.357z
	 M149.982,137.223c-0.625,0.43-1.334,0.75-2.022,1.076c-29.907,14.268-64.725,14.27-94.631-0.006
	c-4.784-2.288-7.06-6.259-6.333-10.434c1.247-6.467,8.377-9.727,13.611-7.287c5.411,2.519,10.927,4.68,16.602,6.191
	c7.676,2.053,15.553,3.076,23.436,3.082c13.432,0.002,26.867-2.959,39.256-8.938c2.104-1.017,4.22-1.521,6.699-0.843
	c3.676,1.006,6.517,3.09,7.479,7.117C155.039,131.189,153.624,134.71,149.982,137.223z"/>
</svg>
