<?xml version="1.0" encoding="utf-8"?>
<!-- Generator: Adobe Illustrator 16.0.0, SVG Export Plug-In . SVG Version: 6.00 Build 0)  -->
<!DOCTYPE svg PUBLIC "-//W3C//DTD SVG 1.1//EN" "http://www.w3.org/Graphics/SVG/1.1/DTD/svg11.dtd">
<svg version="1.1" id="Layer_1" xmlns="http://www.w3.org/2000/svg" xmlns:xlink="http://www.w3.org/1999/xlink" x="0px" y="0px"
	 width="44.74px" height="40.75px" viewBox="0 0 44.74 40.75" enable-background="new 0 0 44.74 40.75" xml:space="preserve">
<g>
	<path fill="#FFFFFF" d="M5.179,17.019l17.429,10.157l17.541-10.164c0-6.371,0-12.988,0-13.407c0-1.101-1.538-1.295-1.538-1.295
		H6.957c-1.915,0-1.775,1.725-1.775,1.725L5.179,17.019z"/>
</g>
<polygon fill="#D0DEE7" points="5.177,13.969 2.751,15.604 5.177,17.018 "/>
<polygon fill="#D0DEE7" points="40.148,13.969 42.574,15.604 40.148,17.018 "/>
<g>
	<path fill="#90AFC5" d="M41.753,38.335L2.751,15.604v21.299c0,0-0.14,1.835,2.914,1.835s34.275,0,34.275,0s1.027,0.1,1.799-0.396"
		/>
	<path fill="#A4BED0" d="M42.574,36.661c0,0.848-0.351,1.354-0.794,1.655c-0.016,0.011-0.027,0.021-0.041,0.026L22.608,27.175
		l19.966-11.572V36.661z"/>
</g>
<path fill="#4191B5" d="M22.668,10.851c-3.502-0.008-6.337,2.738-6.349,6.158c-0.006,3.398,2.804,6.124,6.238,6.176
	c3.571,0.053,6.448-2.743,6.448-6.165C29.007,13.608,26.185,10.859,22.668,10.851z"/>
<path fill="#FFFFFF" fill-opacity="0.6" d="M26.773,15.864c-0.027,0.033-0.062,0.064-0.093,0.094
	c-1.438,1.399-2.88,2.796-4.313,4.199c-0.115,0.11-0.235,0.201-0.405,0.213c-0.162,0.01-0.302-0.043-0.416-0.152
	c-0.988-0.96-1.975-1.918-2.961-2.881c-0.208-0.202-0.222-0.503-0.019-0.712c0.256-0.267,0.525-0.523,0.803-0.771
	c0.185-0.164,0.453-0.159,0.648-0.004c0.078,0.061,0.147,0.132,0.222,0.203c0.557,0.542,1.111,1.082,1.694,1.651
	c0.04-0.05,0.068-0.096,0.104-0.131c1.054-1.023,2.105-2.042,3.158-3.066c0.108-0.107,0.226-0.199,0.39-0.212
	c0.165-0.014,0.304,0.038,0.417,0.146c0.251,0.239,0.506,0.474,0.748,0.719C26.951,15.356,26.955,15.648,26.773,15.864z"/>
<path fill="#636363" fill-opacity="0.3" d="M38.274,7.208c0,0.604-0.632,1.093-1.408,1.093H8.458c-0.776,0-1.406-0.489-1.406-1.093
	V5.217c0-0.604,0.63-1.093,1.406-1.093h28.408c0.776,0,1.408,0.49,1.408,1.093V7.208z"/>
</svg>
