<?xml version="1.0" encoding="utf-8"?>
<!-- Generator: Adobe Illustrator 16.0.0, SVG Export Plug-In . SVG Version: 6.00 Build 0)  -->
<!DOCTYPE svg PUBLIC "-//W3C//DTD SVG 1.1//EN" "http://www.w3.org/Graphics/SVG/1.1/DTD/svg11.dtd">
<svg version="1.1" id="Layer_1" xmlns="http://www.w3.org/2000/svg" xmlns:xlink="http://www.w3.org/1999/xlink" x="0px" y="0px"
	 width="252.936px" height="127.667px" viewBox="0 0 252.936 127.667" enable-background="new 0 0 252.936 127.667"
	 xml:space="preserve">
<g>
	<path fill="#FFFFFF" d="M240.62,52.776c0,12.533-11.893,22.695-26.555,22.695H47.402c-14.664,0-26.554-10.162-26.554-22.695l0,0
		c0-12.536,11.89-22.698,26.554-22.698h166.666C228.73,30.078,240.62,40.24,240.62,52.776L240.62,52.776z"/>
	<path fill="#4192B6" stroke="#79B3C7" stroke-width="0.5" stroke-miterlimit="10" d="M214.068,77.427H47.402
		c-15.718,0-28.508-11.059-28.508-24.648c0-13.595,12.791-24.651,28.508-24.651h166.666c15.725,0,28.508,11.057,28.508,24.651
		C242.573,66.369,229.79,77.427,214.068,77.427z M47.402,32.03c-13.562,0-24.601,9.307-24.601,20.746s11.036,20.742,24.601,20.742
		h166.666c13.566,0,24.603-9.303,24.603-20.742S227.636,32.03,214.068,32.03H47.402z"/>
</g>
<g>
	<path fill="#2A73AD" d="M90.074,45.303h3.438v15.406h-3.438V45.303z"/>
	<path fill="#2A73AD" d="M100.168,54.098v6.611h-3.307V48.852h3.307v1.321c1-1.013,2.121-1.52,3.371-1.52
		c1.248,0,2.294,0.441,3.141,1.324c0.846,0.881,1.266,2.061,1.266,3.525v7.206h-3.304v-6.7c0-1.819-0.671-2.732-2.007-2.732
		c-0.66,0-1.238,0.238-1.727,0.715C100.413,52.469,100.168,53.172,100.168,54.098z"/>
	<path fill="#2A73AD" d="M117.777,48.653c1.442,0,2.695,0.564,3.77,1.685c1.074,1.124,1.608,2.568,1.608,4.331
		c0,1.763-0.552,3.24-1.652,4.43c-1.103,1.19-2.354,1.785-3.757,1.785c-1.406,0-2.568-0.58-3.496-1.743v1.566h-3.307V44.354h3.307
		v5.818C115.162,49.16,116.337,48.653,117.777,48.653z M114.206,54.792c0,0.96,0.27,1.747,0.806,2.359
		c0.537,0.609,1.187,0.913,1.95,0.913c0.762,0,1.434-0.304,2.005-0.913c0.574-0.612,0.861-1.396,0.861-2.348
		c0-0.956-0.283-1.759-0.842-2.404c-0.557-0.648-1.227-0.97-2.004-0.97c-0.778,0-1.436,0.321-1.973,0.959
		C114.475,53.03,114.206,53.828,114.206,54.792z"/>
	<path fill="#2A73AD" d="M137.481,54.78c0,1.721-0.594,3.168-1.785,4.343c-1.189,1.176-2.684,1.762-4.486,1.762
		c-1.798,0-3.294-0.586-4.483-1.762c-1.189-1.175-1.786-2.622-1.786-4.343c0-1.72,0.596-3.168,1.786-4.354
		c1.189-1.184,2.687-1.773,4.483-1.773c1.804,0,3.297,0.59,4.486,1.773C136.886,51.612,137.481,53.061,137.481,54.78z
		 M128.269,54.78c0,0.968,0.274,1.759,0.826,2.371c0.549,0.609,1.255,0.913,2.112,0.913c0.859,0,1.566-0.304,2.118-0.913
		c0.551-0.612,0.824-1.403,0.824-2.371c0-0.972-0.273-1.763-0.824-2.381c-0.552-0.617-1.259-0.924-2.118-0.924
		c-0.857,0-1.563,0.307-2.112,0.924C128.543,53.02,128.269,53.809,128.269,54.78z"/>
	<path fill="#2A73AD" d="M142.328,48.852l2.025,3.175l2.1-3.175h3.877l-4.077,5.794l4.23,6.063h-3.944l-2.313-3.264l-2.248,3.264
		h-3.812l4.144-6.04l-3.925-5.815h3.945L142.328,48.852L142.328,48.852z"/>
	<path fill="#2A73AD" d="M157.472,54.163l2.733-8.86h3.589l2.717,8.86l3.061-8.86h3.729l-5.38,15.406h-2.558l-3.369-10.712
		l-3.354,10.712h-2.558l-5.375-15.406h3.725L157.472,54.163z"/>
	<path fill="#2A73AD" d="M185.725,54.78c0,1.721-0.593,3.168-1.785,4.343c-1.188,1.176-2.686,1.762-4.482,1.762
		c-1.803,0-3.294-0.586-4.485-1.762c-1.188-1.175-1.785-2.622-1.785-4.343c0-1.72,0.597-3.168,1.785-4.354
		c1.191-1.184,2.685-1.773,4.485-1.773c1.798,0,3.294,0.59,4.482,1.773C185.131,51.612,185.725,53.061,185.725,54.78z
		 M176.511,54.78c0,0.968,0.276,1.759,0.83,2.371c0.547,0.609,1.255,0.913,2.114,0.913c0.858,0,1.562-0.304,2.113-0.913
		c0.551-0.612,0.826-1.403,0.826-2.371c0-0.972-0.275-1.763-0.826-2.381c-0.553-0.617-1.255-0.924-2.113-0.924
		c-0.859,0-1.567,0.307-2.114,0.924C176.787,53.02,176.511,53.809,176.511,54.78z"/>
	<path fill="#2A73AD" d="M194.407,51.76c-0.983,0-1.722,0.353-2.204,1.048c-0.484,0.699-0.725,1.622-0.725,2.769v5.133h-3.306
		V48.852h3.306v1.562c0.424-0.483,0.956-0.894,1.597-1.233c0.637-0.337,1.288-0.513,1.949-0.529l0.022,3.106h-0.642v0.002H194.407z"
		/>
	<path fill="#2A73AD" d="M201.172,51.229v5.313c0,0.458,0.117,0.814,0.354,1.067c0.234,0.258,0.514,0.388,0.837,0.388
		c0.618,0,1.142-0.28,1.566-0.837l1.233,2.315c-1.028,0.938-2.111,1.41-3.253,1.41c-1.138,0-2.102-0.377-2.888-1.126
		c-0.783-0.749-1.179-1.769-1.179-3.064v-5.467h-1.387v-2.376h1.387v-3.549h3.328v3.549h2.862v2.376L201.172,51.229L201.172,51.229z
		"/>
	<path fill="#2A73AD" d="M210.234,54.315v6.394h-3.306V44.354h3.306v5.818c0.998-1.013,2.119-1.52,3.359-1.52
		s2.289,0.441,3.141,1.324c0.854,0.881,1.281,2.061,1.281,3.525v7.206h-3.307v-6.481c0-1.819-0.67-2.729-2.004-2.729
		c-0.666,0-1.24,0.239-1.731,0.715C210.479,52.689,210.234,53.391,210.234,54.315z"/>
	<path fill="#2A73AD" d="M223.057,65.38c-1.159,0-2.254-0.471-3.284-1.411l1.499-2.449c0.56,0.545,1.133,0.816,1.719,0.816
		c0.312,0,0.571-0.152,0.795-0.453c0.219-0.3,0.33-0.622,0.33-0.96c0-0.337-1.528-4.362-4.584-12.074h3.523l2.888,7.382l2.889-7.382
		h3.526l-5.507,13.973c-0.325,0.805-0.83,1.437-1.509,1.885C224.656,65.158,223.899,65.38,223.057,65.38z"/>
</g>
<g>
	<g>
		<path fill="#4192B6" stroke="#79B3C7" stroke-width="0.5" stroke-miterlimit="10" d="M82.18,27.808
			C71.748,18.792,60.203,9.335,47.047,0.317C33.714,9.341,22.06,18.99,11.569,28.296c-0.146,0.114-0.288,0.232-0.417,0.367
			c-0.051,0.046-0.104,0.092-0.154,0.138c0.008,0.007,0.015,0.014,0.021,0.021c-0.854,0.998-1.275,2.464-1.01,4.092
			c2.1,13.119,3.787,26.229,5.065,39.339c0.283,2.869,2.183,5.291,4.262,5.395c12.631,0.547,25.271,0.604,37.92,0.186
			c3.434,4.041,6.763,8.002,10.021,11.84c0.161-4.069,0.35-8.141,0.558-12.213c2.731-0.146,5.47-0.315,8.206-0.508
			c2.085-0.147,3.97-2.564,4.238-5.385c1.206-12.863,2.806-25.724,4.785-38.578C85.46,30.496,84.21,28.348,82.18,27.808z"/>
		<path fill="#FFFFFF" d="M20.232,69.181c-0.225-0.51-0.375-1.062-0.426-1.639c-0.893-10.104-1.986-20.217-3.283-30.339
			c7.232,4.43,14.062,9.046,20.563,13.683C31.129,57.104,25.557,63.263,20.232,69.181z"/>
		<path fill="#FFFFFF" d="M23.416,71.646c-0.743-0.016-1.454-0.344-2.05-0.879c5.476-6.068,11.208-12.392,17.345-18.769
			c3.135,2.271,6.189,4.544,9.184,6.802c2.993-2.299,6.058-4.602,9.194-6.889c6.169,6.275,11.938,12.43,17.446,18.27
			c-0.602,0.555-1.319,0.904-2.08,0.941C56.096,71.912,39.75,72.091,23.416,71.646z"/>
		<path fill="#FFFFFF" d="M58.706,50.795c6.47-4.659,13.269-9.247,20.475-13.593c-1.234,9.939-2.275,19.875-3.122,29.807
			c-0.05,0.555-0.188,1.084-0.399,1.574C70.3,62.896,64.694,56.907,58.706,50.795z"/>
		<g>
			<g>
				<path fill="#FFFFFF" d="M69.505,37.418c-3.103-0.12-6.201-0.231-9.306-0.333c-1.364,4.927-6.745,10.721-12.938,10.754
					c-6.271,0.02-11.739-5.659-13.073-10.718c-2.828,0.006-5.652,0.021-8.48,0.044c0.148,1.692,0.298,3.384,0.438,5.075
					c7.558,3.575,14.792,7.26,21.766,10.899c6.766-3.517,13.777-7.029,21.09-10.405C69.166,40.964,69.333,39.19,69.505,37.418z"/>
			</g>
			<g>
				<g>
					<path fill="#FFFFFF" d="M71.863,39.47c0.845-9.193,1.812-18.396,2.896-27.607c-18.351-1.022-36.685-1.117-55.002-0.299
						c1.194,9.21,2.252,18.409,3.178,27.597"/>
					<path fill="#626363" d="M71.679,41.497c-1.229,0.562-2.454,1.129-3.669,1.699c0.707-9.396,1.523-18.803,2.449-28.222
						c-15.358-0.621-30.693-0.631-46.002-0.051c0.986,9.267,1.859,18.52,2.622,27.76c-1.323-0.637-2.657-1.27-4-1.898
						c-0.958-9.728-2.064-19.468-3.322-29.221c18.318-0.818,36.652-0.724,55.002,0.299C73.592,21.751,72.564,31.63,71.679,41.497z"
						/>
				</g>
				<path fill="#2B72AD" d="M60.601,37.085c0.346-6-5.579-11.024-13.264-11.05c-7.688-0.013-13.547,5.018-13.144,11.068
					c0.397,6.045,6.311,10.929,13.249,10.908C54.389,47.976,60.263,43.084,60.601,37.085z"/>
				<g>
					<g>
						<path fill="#0F79AC" d="M45.2,42.019c3.517-2.666,7.14-5.323,10.884-7.942"/>
						<path fill="#FFFFFF" d="M45.486,43.267c-0.532-1.316-1.075-2.632-1.63-3.948c3.395-2.807,6.896-5.604,10.521-8.363
							c1.104,0.983,2.193,1.967,3.272,2.949C53.443,36.986,49.396,40.121,45.486,43.267z"/>
					</g>
					<g>
						<path fill="#0F79AC" d="M40.325,38.533c1.54,1.127,3.062,2.258,4.562,3.389"/>
						<path fill="#FFFFFF" d="M45.397,43.269c-2.206-1.718-4.456-3.436-6.751-5.146c1.16-1.052,2.334-2.103,3.523-3.152
							c1.491,1.188,2.962,2.38,4.412,3.571C46.18,40.117,45.785,41.692,45.397,43.269z"/>
					</g>
				</g>
				<path fill="#A3A0A8" d="M64.859,24.182c-0.014,0.18-0.813,0.305-1.794,0.281c-10.621-0.245-21.232-0.267-31.844-0.069
					c-0.979,0.016-1.784-0.111-1.798-0.291c-0.158-1.954-0.319-3.909-0.485-5.864c-0.017-0.18,0.786-0.347,1.787-0.372
					c10.91-0.24,21.826-0.201,32.749,0.122c1.006,0.029,1.812,0.201,1.797,0.379C65.13,20.306,64.992,22.244,64.859,24.182z"/>
			</g>
		</g>
	</g>
</g>
<g>
	<path fill="#7B8598" d="M45.224,95.491c1.16,0,2.067,0.453,2.725,1.359c0.656,0.903,0.984,2.146,0.984,3.721
		c0,1.623-0.338,2.881-1.017,3.771c-0.676,0.891-1.598,1.336-2.764,1.336c-1.154,0-2.06-0.419-2.716-1.257h-0.186l-0.447,1.081
		h-2.048V91.827h2.681v3.182c0,0.404-0.035,1.053-0.105,1.941h0.105C43.065,95.977,43.992,95.491,45.224,95.491z M44.362,97.635
		c-0.662,0-1.146,0.204-1.45,0.61c-0.305,0.407-0.463,1.079-0.475,2.019v0.289c0,1.055,0.156,1.811,0.47,2.268
		c0.314,0.457,0.812,0.687,1.49,0.687c0.551,0,0.988-0.253,1.313-0.761c0.324-0.506,0.487-1.243,0.487-2.211
		c0-0.967-0.164-1.691-0.492-2.174C45.378,97.877,44.931,97.635,44.362,97.635z"/>
	<path fill="#7B8598" d="M49.74,95.675h2.937l1.854,5.528c0.158,0.48,0.268,1.049,0.325,1.705h0.053
		c0.064-0.604,0.19-1.172,0.378-1.705l1.819-5.528h2.874l-4.157,11.083c-0.381,1.025-0.925,1.793-1.631,2.303
		s-1.53,0.766-2.474,0.766c-0.464,0-0.917-0.051-1.362-0.149v-2.127c0.322,0.076,0.674,0.114,1.055,0.114
		c0.476,0,0.89-0.145,1.244-0.436c0.354-0.289,0.631-0.729,0.83-1.313l0.158-0.483L49.74,95.675z"/>
</g>
<g enable-background="new    ">
	<path fill="#4192B6" d="M70.522,94.918c-0.595,0-1.083,0.133-1.465,0.398s-0.572,0.67-0.572,1.209s0.19,0.951,0.572,1.236
		c0.381,0.285,1.193,0.593,2.436,0.924c1.242,0.33,2.179,0.792,2.809,1.389c0.63,0.598,0.945,1.475,0.945,2.637
		c0,1.16-0.398,2.104-1.196,2.826c-0.797,0.723-1.843,1.086-3.138,1.086c-1.896,0-3.576-0.718-5.045-2.152l1.283-1.692
		c1.225,1.167,2.496,1.751,3.813,1.751c0.659,0,1.181-0.154,1.568-0.468c0.388-0.31,0.58-0.724,0.58-1.235
		c0-0.515-0.181-0.912-0.545-1.199c-0.363-0.285-0.991-0.545-1.881-0.779s-1.564-0.45-2.028-0.646
		c-0.462-0.197-0.873-0.453-1.229-0.771c-0.716-0.597-1.074-1.511-1.074-2.74s0.407-2.181,1.222-2.847
		c0.815-0.666,1.823-0.998,3.025-0.998c0.774,0,1.543,0.141,2.305,0.419c0.764,0.278,1.421,0.673,1.978,1.18l-1.093,1.692
		c-0.359-0.354-0.844-0.645-1.456-0.875C71.722,95.032,71.119,94.918,70.522,94.918z"/>
	<path fill="#4192B6" d="M83.845,101.827v-5.48h1.942v10.123h-1.942v-1.846c-0.312,0.623-0.743,1.11-1.291,1.467
		c-0.549,0.354-1.142,0.533-1.776,0.533c-1.041,0-1.881-0.351-2.522-1.049c-0.642-0.697-0.962-1.707-0.962-3.025v-6.203h1.94v5.557
		c0,1.864,0.705,2.799,2.115,2.799c0.67,0,1.253-0.246,1.751-0.734C83.598,103.48,83.845,102.765,83.845,101.827z"/>
	<path fill="#4192B6" d="M93.535,96.194c1.236,0,2.293,0.471,3.173,1.408c0.878,0.939,1.316,2.188,1.316,3.749
		c0,1.56-0.437,2.829-1.309,3.806c-0.873,0.977-1.891,1.467-3.051,1.467c-1.162,0-2.204-0.561-3.13-1.676v1.521h-1.941v-14.12h1.941
		v5.767C91.299,96.834,92.299,96.194,93.535,96.194z M90.501,101.426c0,0.966,0.267,1.756,0.798,2.369
		c0.531,0.617,1.179,0.924,1.941,0.924s1.428-0.305,1.993-0.912c0.566-0.609,0.85-1.398,0.85-2.371c0-0.969-0.276-1.775-0.832-2.415
		c-0.556-0.642-1.221-0.963-1.994-0.963c-0.774,0-1.429,0.321-1.959,0.963C90.767,99.661,90.501,100.463,90.501,101.426z"/>
	<path fill="#4192B6" d="M106.814,103.444c0,0.965-0.318,1.734-0.955,2.312c-0.636,0.578-1.45,0.867-2.442,0.867
		c-0.67,0-1.367-0.135-2.09-0.399c-0.723-0.269-1.359-0.644-1.916-1.123l0.938-1.655c1.075,0.889,2.115,1.332,3.121,1.332
		c0.438,0,0.784-0.109,1.04-0.333c0.254-0.222,0.38-0.504,0.38-0.846c0-0.509-0.611-0.966-1.836-1.371
		c-0.093-0.038-0.162-0.063-0.209-0.076c-1.918-0.569-2.876-1.522-2.876-2.854c0-0.938,0.331-1.689,0.996-2.254
		c0.663-0.564,1.526-0.849,2.59-0.849s2.069,0.343,3.018,1.027l-0.729,1.579c-0.75-0.547-1.566-0.818-2.443-0.818
		c-0.464,0-0.84,0.094-1.128,0.275c-0.288,0.186-0.433,0.461-0.433,0.828c0,0.33,0.147,0.57,0.45,0.723
		c0.207,0.115,0.5,0.222,0.876,0.322c0.374,0.104,0.707,0.205,0.995,0.307c0.289,0.102,0.568,0.216,0.842,0.343
		c0.271,0.128,0.562,0.304,0.875,0.532C106.502,101.77,106.814,102.48,106.814,103.444z"/>
	<path fill="#4192B6" d="M113.106,106.624c-1.282,0-2.387-0.48-3.312-1.438c-0.924-0.958-1.387-2.21-1.387-3.759
		c0-1.547,0.482-2.807,1.447-3.776c0.966-0.972,2.143-1.455,3.528-1.455s2.559,0.526,3.519,1.579l-1.145,1.542
		c-0.797-0.763-1.602-1.144-2.408-1.144c-0.81,0-1.513,0.297-2.106,0.886c-0.597,0.591-0.894,1.351-0.894,2.284
		c0,0.933,0.295,1.722,0.885,2.367c0.589,0.649,1.312,0.973,2.174,0.973c0.862,0,1.675-0.432,2.438-1.295l1.145,1.371
		C115.868,106,114.574,106.624,113.106,106.624z"/>
	<path fill="#4192B6" d="M123.837,98.344c-0.96,0-1.684,0.343-2.167,1.027c-0.486,0.686-0.729,1.604-0.729,2.76v4.338h-1.942V96.346
		h1.942v2.035c0.312-0.635,0.736-1.152,1.273-1.56c0.537-0.405,1.104-0.614,1.706-0.628l0.018,2.148
		C123.905,98.344,123.872,98.344,123.837,98.344z"/>
	<path fill="#4192B6" d="M126.001,94.329c-0.242-0.267-0.361-0.584-0.361-0.953c0-0.365,0.121-0.685,0.361-0.951
		c0.244-0.266,0.531-0.398,0.867-0.398c0.334,0,0.623,0.135,0.867,0.398c0.242,0.268,0.363,0.586,0.363,0.951
		c0,0.369-0.121,0.688-0.363,0.953c-0.244,0.268-0.533,0.398-0.867,0.398C126.532,94.728,126.245,94.596,126.001,94.329z
		 M127.822,106.469h-1.939V96.346h1.939V106.469z"/>
	<path fill="#4192B6" d="M135.572,96.194c1.236,0,2.293,0.471,3.17,1.408c0.881,0.939,1.32,2.188,1.32,3.749
		c0,1.56-0.438,2.829-1.309,3.806c-0.873,0.977-1.891,1.467-3.053,1.467s-2.204-0.561-3.13-1.676v1.521h-1.94v-14.12h1.94v5.767
		C133.336,96.834,134.335,96.194,135.572,96.194z M132.537,101.426c0,0.966,0.268,1.756,0.799,2.369
		c0.531,0.617,1.177,0.924,1.94,0.924s1.428-0.305,1.992-0.912c0.566-0.609,0.852-1.398,0.852-2.371
		c0-0.969-0.277-1.775-0.832-2.415c-0.557-0.642-1.221-0.963-1.992-0.963c-0.775,0-1.429,0.321-1.96,0.963
		C132.803,99.661,132.537,100.463,132.537,101.426z"/>
	<path fill="#4192B6" d="M150.861,102.34h-7.229c0.045,0.734,0.352,1.33,0.918,1.779c0.564,0.45,1.213,0.676,1.941,0.676
		c1.156,0,2.033-0.398,2.637-1.198l1.107,1.333c-0.994,1.129-2.289,1.693-3.883,1.693c-1.295,0-2.396-0.474-3.303-1.42
		c-0.906-0.943-1.361-2.213-1.361-3.806c0-1.592,0.463-2.856,1.387-3.796c0.926-0.938,2.014-1.408,3.268-1.408
		c1.256,0,2.32,0.416,3.199,1.246c0.877,0.831,1.316,1.977,1.316,3.436v1.465H150.861z M143.632,100.665h5.287
		c0-0.85-0.244-1.502-0.73-1.959c-0.484-0.457-1.082-0.686-1.793-0.686s-1.352,0.238-1.914,0.713
		C143.913,99.209,143.632,99.855,143.632,100.665z"/>
	<path fill="#4192B6" d="M157.827,98.344c-0.959,0-1.682,0.343-2.164,1.027c-0.486,0.686-0.73,1.604-0.73,2.76v4.338h-1.941V96.346
		h1.941v2.035c0.311-0.635,0.736-1.152,1.275-1.56c0.535-0.405,1.104-0.614,1.707-0.628l0.016,2.148
		C157.9,98.344,157.865,98.344,157.827,98.344z"/>
</g>
<g enable-background="new    ">
	<path fill="#636363" d="M165.034,101.234l3.342-9.171h3.172l-5.273,14.406h-2.48l-5.273-14.406h3.172L165.034,101.234z"/>
	<path fill="#636363" d="M182.06,100.926c0,1.607-0.508,2.961-1.52,4.061c-1.014,1.1-2.287,1.648-3.822,1.648
		c-1.531,0-2.809-0.551-3.82-1.648c-1.014-1.1-1.52-2.453-1.52-4.061s0.506-2.965,1.52-4.07s2.289-1.659,3.82-1.659
		c1.535,0,2.809,0.554,3.822,1.659C181.552,97.961,182.06,99.318,182.06,100.926z M174.212,100.926c0,0.906,0.234,1.645,0.705,2.216
		c0.469,0.569,1.068,0.854,1.801,0.854s1.334-0.285,1.803-0.854c0.469-0.571,0.705-1.31,0.705-2.216
		c0-0.907-0.236-1.649-0.705-2.227c-0.469-0.576-1.07-0.865-1.803-0.865c-0.73,0-1.332,0.289-1.801,0.865
		C174.447,99.276,174.212,100.019,174.212,100.926z"/>
	<path fill="#636363" d="M184.378,93.971c-0.32-0.352-0.479-0.78-0.479-1.288c0-0.509,0.158-0.938,0.479-1.288
		c0.318-0.352,0.709-0.525,1.174-0.525c0.461,0,0.854,0.176,1.172,0.525c0.318,0.352,0.48,0.779,0.48,1.288
		c0,0.508-0.162,0.938-0.48,1.288c-0.316,0.351-0.711,0.523-1.172,0.523C185.087,94.495,184.698,94.321,184.378,93.971z
		 M186.96,106.469h-2.816V95.381h2.816V106.469z"/>
	<path fill="#636363" d="M194.468,103.894c0.938,0,1.785-0.517,2.533-1.545l1.672,2.062c-1.303,1.482-2.709,2.225-4.225,2.225
		c-1.514,0-2.795-0.524-3.838-1.575c-1.045-1.052-1.568-2.427-1.568-4.122c0-1.697,0.527-3.078,1.586-4.143
		c1.059-1.065,2.312-1.599,3.766-1.599c0.725,0,1.461,0.165,2.203,0.495c0.746,0.33,1.398,0.816,1.965,1.463l-1.467,2.102
		c-0.324-0.424-0.723-0.754-1.191-0.987c-0.471-0.233-0.936-0.351-1.398-0.351c-0.736,0-1.371,0.264-1.904,0.791
		c-0.531,0.529-0.799,1.266-0.799,2.205c0,0.942,0.268,1.674,0.799,2.195C193.13,103.633,193.755,103.894,194.468,103.894z"/>
	<path fill="#636363" d="M209.298,104.862c-1.139,1.182-2.475,1.771-4.006,1.771c-1.535,0-2.803-0.518-3.803-1.557
		c-1.002-1.037-1.502-2.429-1.502-4.174c0-1.742,0.51-3.132,1.529-4.162c1.021-1.031,2.225-1.546,3.611-1.546
		c1.393,0,2.568,0.461,3.541,1.382c0.969,0.92,1.455,2.186,1.455,3.793v1.647h-7.359c0.088,0.604,0.375,1.101,0.863,1.483
		c0.488,0.385,1.039,0.578,1.652,0.578c0.988,0,1.801-0.363,2.439-1.094L209.298,104.862z M206.597,98.288
		c-0.389-0.356-0.861-0.535-1.42-0.535c-0.557,0-1.064,0.187-1.529,0.557c-0.463,0.372-0.73,0.873-0.805,1.505h4.428
		C207.21,99.154,206.986,98.646,206.597,98.288z"/>
</g>
</svg>
