<?xml version="1.0" encoding="utf-8"?>
<!-- Generator: Adobe Illustrator 16.0.0, SVG Export Plug-In . SVG Version: 6.00 Build 0)  -->
<!DOCTYPE svg PUBLIC "-//W3C//DTD SVG 1.1//EN" "http://www.w3.org/Graphics/SVG/1.1/DTD/svg11.dtd">
<svg version="1.1" id="Layer_1" xmlns="http://www.w3.org/2000/svg" xmlns:xlink="http://www.w3.org/1999/xlink" x="0px" y="0px"
	 width="253.48px" height="51px" viewBox="0 0 253.48 51" enable-background="new 0 0 253.48 51" xml:space="preserve">
<text transform="matrix(1 0 0 1 48.157 40.0371)" fill="#FFFFFF" font-family="'Montserrat-Regular'" font-size="28">InboxWorthy</text>
<g>
	<path fill="#FFFFFF" d="M29.081,7.94c-2.473-1.912-5.059-3.816-7.783-5.684c-2.7,1.829-5.265,3.707-7.715,5.605
		C18.746,7.746,23.912,7.772,29.081,7.94z"/>
	<path fill="#FFFFFF" d="M39.461,16.469c-1.405-1.216-2.854-2.446-4.343-3.685c-0.103,0.944-0.216,1.89-0.314,2.834
		c-0.084,0.807-0.157,1.612-0.238,2.418c-0.184,1.837-0.369,3.674-0.533,5.508c-0.499,0.229-0.994,0.46-1.489,0.691
		c-3.742,1.729-7.333,3.529-10.798,5.33c-3.57-1.864-7.273-3.75-11.14-5.581c-0.564-0.271-1.128-0.539-1.699-0.806
		c-0.092-0.938-0.19-1.877-0.287-2.816c-0.136-1.288-0.271-2.576-0.417-3.865c-0.092-0.812-0.185-1.624-0.28-2.436
		c-0.058-0.493-0.122-0.984-0.181-1.477c-1.646,1.386-3.243,2.768-4.786,4.136c-0.075,0.059-0.148,0.12-0.215,0.189
		c-0.027,0.024-0.054,0.048-0.08,0.072c0.004,0.003,0.008,0.007,0.011,0.011c-0.441,0.516-0.659,1.274-0.521,2.116
		c1.085,6.781,1.958,13.559,2.619,20.335c0.146,1.482,1.128,2.734,2.204,2.789c6.528,0.281,13.062,0.312,19.602,0.097
		c1.775,2.09,3.497,4.137,5.181,6.12c0.083-2.104,0.182-4.207,0.289-6.312c1.413-0.074,2.827-0.164,4.242-0.263
		c1.078-0.077,2.052-1.326,2.191-2.784c0.624-6.65,1.451-13.298,2.474-19.943C41.157,17.858,40.677,17.496,39.461,16.469z
		 M7.215,37.01c-0.461-5.224-1.025-10.451-1.695-15.685c3.737,2.291,7.269,4.677,10.63,7.075c-3.079,3.215-5.959,6.397-8.713,9.457
		C7.319,37.594,7.241,37.311,7.215,37.01z M34.433,38.859c-1.138,0.055-2.815,0.125-3.971,0.168l-0.098,3.984l-3.18-3.9
		L9.082,39.132c-0.385-0.01-0.752-0.178-1.061-0.455c2.832-3.138,5.794-6.405,8.968-9.702c1.62,1.174,3.199,2.35,4.748,3.517
		c1.547-1.189,3.13-2.38,4.753-3.562c3.188,3.244,6.171,6.426,9.019,9.443C35.198,38.662,34.827,38.842,34.433,38.859z
		 M36.296,36.734c-0.024,0.287-0.098,0.562-0.207,0.813c-2.77-2.94-5.668-6.034-8.764-9.196c3.345-2.408,6.86-4.78,10.585-7.027
		C37.272,26.464,36.734,31.602,36.296,36.734z"/>
</g>
<path fill="#FFFFFF" d="M24.608,18.131c-0.105-0.1-0.233-0.147-0.383-0.135s-0.256,0.096-0.358,0.194
	c-0.96,0.935-1.923,1.867-2.885,2.802c-0.034,0.033-0.059,0.074-0.095,0.119c-0.534-0.52-1.043-1.014-1.552-1.509
	c-0.065-0.063-0.129-0.128-0.2-0.185c-0.179-0.142-0.424-0.147-0.593,0.004c-0.253,0.227-0.5,0.459-0.735,0.703
	c-0.184,0.192-0.171,0.468,0.019,0.653c0.9,0.879,1.803,1.755,2.706,2.632c0.104,0.101,0.23,0.15,0.379,0.14
	c0.154-0.01,0.265-0.094,0.37-0.195c1.314-1.279,2.628-2.557,3.943-3.836c0.028-0.026,0.056-0.055,0.082-0.085
	c0.167-0.198,0.164-0.464-0.019-0.646C25.066,18.565,24.835,18.349,24.608,18.131z"/>
<path fill="#FFFFFF" d="M32.583,9.204c-7.43-0.213-14.856-0.24-22.278-0.081C9.624,9.14,9.078,9.25,9.09,9.369
	c0.113,1.293,0.838,13.124,0.946,14.417c0.01,0.12,1.044,0.609,1.044,0.609l10.715,5.292l10.313-4.902c0,0,0.953-0.472,0.961-0.59
	c0.091-1.282,0.641-13.459,0.736-14.741C33.815,9.337,33.267,9.223,32.583,9.204z M21.428,26.013
	c-3.139-0.045-5.708-2.538-5.702-5.643c0.01-3.125,2.602-5.636,5.803-5.627c3.214,0.009,5.791,2.52,5.792,5.638
	C27.322,23.507,24.692,26.062,21.428,26.013z M32.176,13.184c-0.008,0.08-0.498,0.134-1.1,0.125
	c-6.507-0.109-13.011-0.119-19.513-0.031c-0.601,0.007-1.093-0.048-1.102-0.128c-0.097-0.864-0.196-1.729-0.298-2.593
	c-0.01-0.079,0.481-0.153,1.095-0.165c6.686-0.106,13.376-0.088,20.069,0.054c0.616,0.013,1.11,0.089,1.101,0.167
	C32.343,11.469,32.258,12.327,32.176,13.184z"/>
</svg>
