<?xml version="1.0" encoding="utf-8"?>
<!-- Generator: Adobe Illustrator 16.0.0, SVG Export Plug-In . SVG Version: 6.00 Build 0)  -->
<!DOCTYPE svg PUBLIC "-//W3C//DTD SVG 1.1//EN" "http://www.w3.org/Graphics/SVG/1.1/DTD/svg11.dtd">
<svg version="1.1" id="Layer_1" xmlns="http://www.w3.org/2000/svg" xmlns:xlink="http://www.w3.org/1999/xlink" x="0px" y="0px"
	 width="252.936px" height="90.334px" viewBox="0 0 252.936 90.334" enable-background="new 0 0 252.936 90.334"
	 xml:space="preserve">
<g>
	<path fill="#4192B6" d="M65.969,11.286c-4.785-3.697-9.786-7.381-15.056-10.994c-5.225,3.537-10.185,7.17-14.925,10.841
		C45.977,10.911,55.97,10.96,65.969,11.286z"/>
	<path fill="#4192B6" d="M86.046,27.784c-2.72-2.351-5.52-4.732-8.4-7.127c-0.2,1.827-0.418,3.655-0.609,5.482
		c-0.163,1.561-0.305,3.119-0.46,4.679c-0.355,3.552-0.714,7.105-1.032,10.655c-0.965,0.441-1.923,0.887-2.88,1.333
		c-7.238,3.346-14.184,6.825-20.887,10.309c-6.905-3.604-14.071-7.253-21.548-10.795c-1.089-0.522-2.181-1.043-3.285-1.558
		c-0.179-1.815-0.368-3.63-0.557-5.446c-0.261-2.492-0.527-4.984-0.807-7.477c-0.176-1.571-0.357-3.142-0.541-4.713
		c-0.112-0.951-0.236-1.903-0.349-2.855c-3.184,2.68-6.273,5.354-9.257,8c-0.146,0.114-0.288,0.232-0.417,0.367
		c-0.051,0.046-0.104,0.092-0.155,0.138c0.009,0.007,0.016,0.014,0.021,0.021c-0.854,0.998-1.276,2.464-1.01,4.092
		c2.1,13.119,3.787,26.229,5.064,39.338c0.284,2.869,2.184,5.291,4.263,5.396c12.631,0.547,25.271,0.604,37.92,0.185
		c3.434,4.043,6.763,8.002,10.021,11.84c0.161-4.068,0.35-8.14,0.558-12.211c2.731-0.146,5.47-0.316,8.205-0.509
		c2.085-0.147,3.971-2.565,4.239-5.385c1.206-12.862,2.806-25.724,4.785-38.578C89.326,30.472,88.397,29.77,86.046,27.784z
		 M23.671,67.517c-0.894-10.104-1.986-20.217-3.283-30.338c7.232,4.43,14.062,9.045,20.563,13.682
		c-5.956,6.22-11.528,12.377-16.854,18.296C23.872,68.647,23.722,68.094,23.671,67.517z M76.321,71.099
		c-2.2,0.105-5.446,0.239-7.68,0.325l-0.188,7.704l-6.151-7.544l-35.019,0.037c-0.743-0.017-1.454-0.345-2.051-0.879
		c5.477-6.068,11.208-12.392,17.346-18.769c3.135,2.271,6.189,4.543,9.184,6.801c2.993-2.299,6.057-4.602,9.194-6.889
		c6.169,6.275,11.938,12.43,17.445,18.271C77.8,70.711,77.082,71.06,76.321,71.099z M79.925,66.985
		c-0.05,0.555-0.188,1.084-0.4,1.574c-5.358-5.688-10.966-11.677-16.953-17.789c6.471-4.658,13.27-9.247,20.476-13.592
		C81.813,47.117,80.772,57.054,79.925,66.985z"/>
</g>
<path fill="#4192B6" d="M68.724,24.158c-0.014,0.18-0.813,0.305-1.794,0.281c-10.621-0.245-21.233-0.267-31.844-0.069
	c-0.979,0.016-1.784-0.111-1.798-0.291c-0.158-1.954-0.319-3.909-0.485-5.864c-0.017-0.18,0.786-0.347,1.787-0.372
	c10.91-0.24,21.826-0.201,32.749,0.122c1.006,0.029,1.812,0.201,1.797,0.379C68.996,20.282,68.858,22.22,68.724,24.158z"/>
<path fill="#4192B6" d="M51.203,26.011c-7.688-0.013-13.548,5.018-13.144,11.068c0.397,6.044,6.311,10.929,13.249,10.908
	c6.946-0.036,12.82-4.927,13.158-10.926C64.813,31.061,58.888,26.037,51.203,26.011z M49.351,43.242
	c-0.018-0.044-0.037-0.089-0.055-0.133c-0.011,0.045-0.022,0.09-0.034,0.135c-2.206-1.718-4.456-3.436-6.751-5.146
	c1.16-1.052,2.334-2.103,3.523-3.152c1.191,0.95,2.361,1.903,3.526,2.855c2.822-2.304,5.7-4.602,8.682-6.87
	c1.104,0.983,2.193,1.967,3.272,2.949C57.308,36.961,53.261,40.097,49.351,43.242z"/>
</svg>
