<?xml version="1.0" encoding="utf-8"?>
<!-- Generator: Adobe Illustrator 16.0.0, SVG Export Plug-In . SVG Version: 6.00 Build 0)  -->
<!DOCTYPE svg PUBLIC "-//W3C//DTD SVG 1.1//EN" "http://www.w3.org/Graphics/SVG/1.1/DTD/svg11.dtd">
<svg version="1.1" id="Layer_1" xmlns="http://www.w3.org/2000/svg" xmlns:xlink="http://www.w3.org/1999/xlink" x="0px" y="0px"
	 width="252.936px" height="90.334px" viewBox="0 0 252.936 90.334" enable-background="new 0 0 252.936 90.334"
	 xml:space="preserve">
<g>
	<path fill="#FFFFFF" d="M244.486,52.752c0,12.533-11.891,22.694-26.553,22.694H51.267c-14.664,0-26.554-10.161-26.554-22.694l0,0
		c0-12.536,11.89-22.698,26.554-22.698h166.666C232.595,30.054,244.486,40.216,244.486,52.752L244.486,52.752z"/>
	<path fill="#4192B6" stroke="#79B3C7" stroke-width="0.5" stroke-miterlimit="10" d="M217.933,77.403H51.267
		c-15.718,0-28.508-11.06-28.508-24.649c0-13.595,12.791-24.651,28.508-24.651h166.666c15.726,0,28.508,11.057,28.508,24.651
		C246.439,66.345,233.656,77.403,217.933,77.403z M51.267,32.006c-13.562,0-24.601,9.307-24.601,20.746
		c0,11.438,11.036,20.742,24.601,20.742h166.666c13.566,0,24.603-9.304,24.603-20.742c0-11.439-11.033-20.746-24.603-20.746H51.267z
		"/>
</g>
<g>
	<path fill="#2A73AD" d="M93.94,45.278h3.438v15.407H93.94V45.278z"/>
	<path fill="#2A73AD" d="M104.034,54.073v6.611h-3.307V48.827h3.307v1.32c1-1.013,2.12-1.52,3.37-1.52
		c1.248,0,2.295,0.441,3.142,1.324c0.846,0.881,1.266,2.061,1.266,3.525v7.205h-3.304v-6.699c0-1.819-0.671-2.732-2.007-2.732
		c-0.66,0-1.238,0.238-1.728,0.715C104.279,52.444,104.034,53.147,104.034,54.073z"/>
	<path fill="#2A73AD" d="M121.642,48.629c1.442,0,2.695,0.563,3.77,1.685c1.073,1.125,1.607,2.568,1.607,4.332
		c0,1.763-0.551,3.239-1.651,4.43c-1.103,1.189-2.354,1.785-3.758,1.785c-1.405,0-2.567-0.58-3.496-1.743v1.565h-3.306V44.33h3.306
		v5.817C119.028,49.136,120.203,48.629,121.642,48.629z M118.072,54.769c0,0.959,0.271,1.746,0.807,2.358
		c0.537,0.608,1.186,0.913,1.95,0.913c0.762,0,1.434-0.305,2.005-0.913c0.574-0.612,0.86-1.396,0.86-2.349
		c0-0.955-0.282-1.758-0.841-2.403c-0.557-0.647-1.227-0.97-2.004-0.97c-0.779,0-1.436,0.32-1.973,0.959
		C118.341,53.006,118.072,53.804,118.072,54.769z"/>
	<path fill="#2A73AD" d="M141.347,54.756c0,1.722-0.594,3.168-1.785,4.343c-1.19,1.176-2.684,1.762-4.487,1.762
		c-1.798,0-3.294-0.586-4.482-1.762c-1.191-1.175-1.787-2.621-1.787-4.343c0-1.72,0.596-3.168,1.787-4.354
		c1.188-1.184,2.686-1.772,4.482-1.772c1.805,0,3.297,0.59,4.487,1.772C140.751,51.588,141.347,53.036,141.347,54.756z
		 M132.134,54.756c0,0.968,0.275,1.759,0.826,2.371c0.549,0.608,1.256,0.913,2.113,0.913c0.858,0,1.565-0.305,2.116-0.913
		c0.552-0.612,0.826-1.403,0.826-2.371c0-0.972-0.274-1.763-0.826-2.381c-0.551-0.617-1.258-0.924-2.116-0.924
		c-0.857,0-1.564,0.307-2.113,0.924C132.409,52.995,132.134,53.784,132.134,54.756z"/>
	<path fill="#2A73AD" d="M146.195,48.827l2.025,3.175l2.1-3.175h3.877l-4.077,5.794l4.231,6.063h-3.945l-2.313-3.265l-2.248,3.265
		h-3.812l4.145-6.041l-3.926-5.814h3.944L146.195,48.827L146.195,48.827z"/>
	<path fill="#2A73AD" d="M161.337,54.14l2.733-8.861h3.589l2.717,8.861l3.061-8.861h3.729l-5.381,15.406h-2.558l-3.369-10.711
		l-3.354,10.711h-2.558l-5.375-15.406h3.726L161.337,54.14z"/>
	<path fill="#2A73AD" d="M189.591,54.756c0,1.722-0.594,3.168-1.785,4.343c-1.188,1.176-2.686,1.762-4.484,1.762
		c-1.801,0-3.293-0.586-4.483-1.762c-1.189-1.175-1.785-2.621-1.785-4.343c0-1.72,0.596-3.168,1.785-4.354
		c1.19-1.184,2.684-1.772,4.483-1.772s3.296,0.59,4.484,1.772C188.997,51.588,189.591,53.036,189.591,54.756z M180.376,54.756
		c0,0.968,0.276,1.759,0.83,2.371c0.547,0.608,1.256,0.913,2.114,0.913c0.859,0,1.562-0.305,2.113-0.913
		c0.551-0.612,0.826-1.403,0.826-2.371c0-0.972-0.275-1.763-0.826-2.381c-0.553-0.617-1.254-0.924-2.113-0.924
		c-0.858,0-1.567,0.307-2.114,0.924C180.654,52.995,180.376,53.784,180.376,54.756z"/>
	<path fill="#2A73AD" d="M198.273,51.735c-0.981,0-1.721,0.353-2.203,1.048c-0.483,0.698-0.725,1.622-0.725,2.769v5.133h-3.305
		V48.827h3.305v1.562c0.424-0.483,0.957-0.895,1.596-1.233c0.638-0.337,1.289-0.513,1.951-0.529l0.021,3.106h-0.642L198.273,51.735
		L198.273,51.735z"/>
	<path fill="#2A73AD" d="M205.038,51.205v5.313c0,0.457,0.116,0.813,0.354,1.066c0.234,0.258,0.512,0.389,0.836,0.389
		c0.619,0,1.142-0.281,1.566-0.838l1.233,2.315c-1.028,0.938-2.11,1.409-3.254,1.409c-1.137,0-2.1-0.377-2.887-1.125
		c-0.783-0.75-1.178-1.77-1.178-3.064v-5.467h-1.388v-2.376h1.388V45.28h3.328v3.549h2.86v2.376H205.038L205.038,51.205z"/>
	<path fill="#2A73AD" d="M214.099,54.291v6.394h-3.305V44.33h3.305v5.817c0.998-1.013,2.119-1.52,3.359-1.52
		c1.239,0,2.289,0.441,3.141,1.324c0.854,0.881,1.281,2.061,1.281,3.525v7.205h-3.307v-6.48c0-1.819-0.671-2.729-2.005-2.729
		c-0.666,0-1.239,0.238-1.729,0.715C214.345,52.665,214.099,53.366,214.099,54.291z"/>
	<path fill="#2A73AD" d="M226.923,65.356c-1.16,0-2.254-0.473-3.285-1.412l1.5-2.448c0.559,0.545,1.133,0.815,1.717,0.815
		c0.312,0,0.572-0.151,0.795-0.453c0.22-0.299,0.33-0.621,0.33-0.959s-1.526-4.362-4.584-12.074h3.525l2.887,7.382l2.889-7.382
		h3.527l-5.508,13.973c-0.324,0.805-0.83,1.438-1.508,1.885C228.523,65.134,227.765,65.356,226.923,65.356z"/>
</g>
<g>
	<g>
		<path fill="#4192B6" stroke="#79B3C7" stroke-width="0.5" stroke-miterlimit="10" d="M86.046,27.784
			C75.614,18.768,64.069,9.311,50.913,0.292C37.58,9.316,25.926,18.966,15.434,28.271c-0.146,0.114-0.288,0.232-0.417,0.367
			c-0.051,0.046-0.104,0.092-0.155,0.138c0.009,0.007,0.016,0.014,0.021,0.021c-0.854,0.998-1.276,2.464-1.01,4.092
			c2.1,13.119,3.787,26.229,5.064,39.338c0.284,2.869,2.184,5.291,4.263,5.396c12.631,0.547,25.271,0.604,37.92,0.185
			c3.434,4.043,6.763,8.002,10.021,11.84c0.161-4.068,0.35-8.14,0.558-12.211c2.731-0.146,5.47-0.316,8.205-0.509
			c2.085-0.147,3.971-2.565,4.239-5.385c1.206-12.862,2.806-25.724,4.785-38.578C89.326,30.472,88.076,28.324,86.046,27.784z"/>
		<path fill="#FFFFFF" d="M24.097,69.156c-0.225-0.509-0.375-1.062-0.426-1.64c-0.894-10.104-1.986-20.217-3.283-30.338
			c7.232,4.43,14.062,9.045,20.563,13.682C34.995,57.08,29.423,63.237,24.097,69.156z"/>
		<path fill="#FFFFFF" d="M27.282,71.621c-0.743-0.017-1.454-0.345-2.051-0.879c5.477-6.068,11.208-12.392,17.346-18.769
			c3.135,2.271,6.189,4.543,9.184,6.801c2.993-2.299,6.057-4.602,9.194-6.889c6.169,6.275,11.938,12.43,17.445,18.271
			c-0.601,0.555-1.318,0.903-2.08,0.942C59.962,71.888,43.616,72.065,27.282,71.621z"/>
		<path fill="#FFFFFF" d="M62.572,50.771c6.471-4.658,13.27-9.247,20.476-13.592c-1.234,9.939-2.275,19.875-3.122,29.807
			c-0.05,0.555-0.188,1.084-0.4,1.574C74.166,62.871,68.559,56.883,62.572,50.771z"/>
		<g>
			<g>
				<path fill="#FFFFFF" d="M73.371,37.394c-3.103-0.12-6.201-0.231-9.307-0.333c-1.363,4.928-6.745,10.721-12.937,10.754
					c-6.271,0.02-11.739-5.658-13.073-10.718c-2.828,0.006-5.653,0.021-8.48,0.044c0.148,1.692,0.298,3.384,0.438,5.075
					c7.557,3.575,14.792,7.26,21.765,10.899c6.767-3.517,13.778-7.029,21.091-10.404C73.032,40.939,73.199,39.166,73.371,37.394z"/>
			</g>
			<g>
				<g>
					<path fill="#FFFFFF" d="M75.728,39.445c0.844-9.193,1.812-18.396,2.896-27.607c-18.352-1.022-36.686-1.117-55.002-0.299
						c1.193,9.21,2.252,18.409,3.178,27.597"/>
					<path fill="#626363" d="M75.545,41.473c-1.229,0.562-2.454,1.129-3.669,1.699c0.707-9.396,1.522-18.803,2.449-28.222
						c-15.358-0.621-30.693-0.631-46.002-0.051c0.986,9.267,1.859,18.52,2.621,27.76c-1.322-0.637-2.656-1.27-4-1.897
						c-0.958-9.728-2.063-19.468-3.321-29.221c18.317-0.818,36.651-0.724,55.002,0.299C77.458,21.727,76.429,31.605,75.545,41.473z"
						/>
				</g>
				<path fill="#2B72AD" d="M64.467,37.061c0.346-6-5.579-11.024-13.264-11.05c-7.688-0.013-13.548,5.018-13.144,11.068
					c0.397,6.044,6.311,10.929,13.249,10.908C58.255,47.951,64.129,43.06,64.467,37.061z"/>
				<g>
					<g>
						<path fill="#0F79AC" d="M49.066,41.994c3.518-2.666,7.141-5.323,10.885-7.941"/>
						<path fill="#FFFFFF" d="M49.351,43.242c-0.533-1.315-1.076-2.632-1.63-3.948c3.395-2.807,6.896-5.604,10.521-8.363
							c1.104,0.983,2.193,1.967,3.272,2.949C57.308,36.961,53.261,40.097,49.351,43.242z"/>
					</g>
					<g>
						<path fill="#0F79AC" d="M44.191,38.509c1.54,1.127,3.062,2.258,4.562,3.389"/>
						<path fill="#FFFFFF" d="M49.262,43.244c-2.206-1.718-4.456-3.436-6.751-5.146c1.16-1.052,2.334-2.103,3.523-3.152
							c1.49,1.188,2.962,2.38,4.411,3.571C50.046,40.093,49.651,41.668,49.262,43.244z"/>
					</g>
				</g>
				<path fill="#A3A0A8" d="M68.724,24.158c-0.014,0.18-0.813,0.305-1.794,0.281c-10.621-0.245-21.233-0.267-31.844-0.069
					c-0.979,0.016-1.784-0.111-1.798-0.291c-0.158-1.954-0.319-3.909-0.485-5.864c-0.017-0.18,0.786-0.347,1.787-0.372
					c10.91-0.24,21.826-0.201,32.749,0.122c1.006,0.029,1.812,0.201,1.797,0.379C68.996,20.282,68.858,22.22,68.724,24.158z"/>
			</g>
		</g>
	</g>
</g>
</svg>
