<?xml version="1.0" encoding="utf-8"?>
<!-- Generator: Adobe Illustrator 16.0.0, SVG Export Plug-In . SVG Version: 6.00 Build 0)  -->
<!DOCTYPE svg PUBLIC "-//W3C//DTD SVG 1.1//EN" "http://www.w3.org/Graphics/SVG/1.1/DTD/svg11.dtd">
<svg version="1.1" id="Layer_1" xmlns="http://www.w3.org/2000/svg" xmlns:xlink="http://www.w3.org/1999/xlink" x="0px" y="0px"
	 width="253.48px" height="90.667px" viewBox="0 0 253.48 90.667" enable-background="new 0 0 253.48 90.667" xml:space="preserve">
<text transform="matrix(1 0 0 1 24.7258 80.3125)" enable-background="new    "><tspan x="0" y="0" fill="#FFFFFF" font-family="'GillSans'" font-size="36.2304">Inbox</tspan><tspan x="83.394" y="0" fill="#FFFFFF" font-family="'GillSans-SemiBold'" font-size="36.2304">Worthy</tspan></text>
<g>
	<path fill="#FFFFFF" d="M134.267,6.773c-2.473-1.912-5.059-3.816-7.783-5.684c-2.7,1.829-5.265,3.707-7.715,5.605
		C123.933,6.58,129.099,6.605,134.267,6.773z"/>
	<path fill="#FFFFFF" d="M144.648,15.302c-1.406-1.216-2.854-2.446-4.344-3.685c-0.102,0.944-0.215,1.89-0.314,2.834
		c-0.084,0.807-0.156,1.612-0.238,2.418c-0.184,1.837-0.369,3.674-0.533,5.508c-0.498,0.229-0.994,0.46-1.488,0.691
		c-3.742,1.729-7.334,3.529-10.798,5.33c-3.57-1.865-7.273-3.75-11.14-5.581c-0.564-0.271-1.128-0.539-1.699-0.806
		c-0.092-0.938-0.19-1.877-0.287-2.816c-0.136-1.288-0.271-2.576-0.417-3.865c-0.092-0.812-0.185-1.624-0.28-2.436
		c-0.058-0.493-0.122-0.984-0.181-1.477c-1.646,1.386-3.243,2.768-4.786,4.136c-0.075,0.059-0.148,0.12-0.215,0.189
		c-0.027,0.024-0.054,0.048-0.08,0.072c0.004,0.003,0.008,0.007,0.011,0.011c-0.441,0.516-0.659,1.274-0.521,2.116
		c1.085,6.781,1.958,13.559,2.619,20.336c0.146,1.482,1.128,2.734,2.204,2.789c6.528,0.281,13.062,0.312,19.602,0.096
		c1.775,2.09,3.496,4.137,5.18,6.121c0.084-2.104,0.182-4.207,0.289-6.312c1.414-0.074,2.828-0.164,4.242-0.264
		c1.078-0.076,2.053-1.326,2.191-2.783c0.625-6.65,1.451-13.298,2.475-19.943C146.344,16.691,145.863,16.33,144.648,15.302z
		 M112.402,35.844c-0.461-5.225-1.025-10.452-1.695-15.685c3.737,2.291,7.269,4.677,10.63,7.076
		c-3.079,3.215-5.959,6.396-8.713,9.457C112.506,36.428,112.428,36.145,112.402,35.844z M139.621,37.693
		c-1.139,0.055-2.816,0.125-3.971,0.168l-0.098,3.984l-3.18-3.9l-18.104,0.02c-0.385-0.01-0.752-0.178-1.061-0.455
		c2.832-3.137,5.794-6.404,8.968-9.701c1.62,1.174,3.199,2.35,4.748,3.516c1.546-1.189,3.13-2.379,4.753-3.561
		c3.188,3.244,6.17,6.426,9.018,9.443C140.385,37.496,140.013,37.676,139.621,37.693z M141.482,35.568
		c-0.023,0.287-0.098,0.561-0.207,0.812c-2.77-2.939-5.668-6.033-8.764-9.195c3.346-2.408,6.861-4.78,10.586-7.028
		C142.459,25.297,141.922,30.436,141.482,35.568z"/>
</g>
<path fill="none" stroke="#FFFFFF" stroke-miterlimit="10" stroke-opacity="0.6" d="M126.746,10.503
	c-3.822-0.01-6.916,2.988-6.928,6.718c-0.008,3.707,3.059,6.683,6.807,6.737c3.896,0.06,7.037-2.992,7.036-6.724
	C133.66,13.513,130.584,10.514,126.746,10.503z"/>
<path fill="#FFFFFF" fill-opacity="0.6" d="M131.221,15.975c-0.03,0.036-0.063,0.07-0.097,0.102c-1.57,1.527-3.141,3.053-4.709,4.58
	c-0.125,0.122-0.257,0.221-0.441,0.233c-0.178,0.012-0.33-0.047-0.453-0.167c-1.078-1.046-2.156-2.093-3.231-3.142
	c-0.226-0.221-0.242-0.55-0.022-0.779c0.28-0.291,0.575-0.569,0.877-0.839c0.202-0.181,0.494-0.174,0.708-0.005
	c0.084,0.067,0.161,0.145,0.239,0.22c0.607,0.591,1.215,1.181,1.853,1.802c0.043-0.054,0.073-0.104,0.113-0.143
	c1.147-1.116,2.297-2.229,3.444-3.345c0.122-0.117,0.249-0.218,0.427-0.232c0.18-0.014,0.332,0.042,0.457,0.161
	c0.272,0.259,0.547,0.518,0.812,0.784C131.417,15.421,131.421,15.738,131.221,15.975z"/>
</svg>
