<?xml version="1.0" encoding="utf-8"?>
<!-- Generator: Adobe Illustrator 16.0.0, SVG Export Plug-In . SVG Version: 6.00 Build 0)  -->
<!DOCTYPE svg PUBLIC "-//W3C//DTD SVG 1.1//EN" "http://www.w3.org/Graphics/SVG/1.1/DTD/svg11.dtd">
<svg version="1.1" id="Layer_1" xmlns="http://www.w3.org/2000/svg" xmlns:xlink="http://www.w3.org/1999/xlink" x="0px" y="0px"
	 width="253.48px" height="48.25px" viewBox="0 0 253.48 48.25" enable-background="new 0 0 253.48 48.25" xml:space="preserve">
<g>
	<path fill="#FFFFFF" d="M6.795,21.548l17.431,10.157l17.541-10.164c0-6.371,0-12.988,0-13.407c0-1.101-1.538-1.295-1.538-1.295
		H8.571c-1.915,0-1.775,1.725-1.775,1.725L6.795,21.548z"/>
</g>
<polygon fill="#D0DEE7" points="6.793,18.499 4.366,20.133 6.793,21.547 "/>
<polygon fill="#D0DEE7" points="41.763,18.491 44.189,20.125 41.763,21.539 "/>
<g>
	<path fill="#90AFC5" d="M43.368,42.864L4.366,20.133v21.299c0,0-0.14,1.836,2.914,1.836s34.275,0,34.275,0s1.025,0.102,1.799-0.396
		"/>
	<path fill="#A4BED0" d="M44.189,41.189c0,0.849-0.353,1.354-0.794,1.656c-0.018,0.01-0.027,0.021-0.041,0.024L24.223,31.705
		l19.966-11.572V41.189z"/>
</g>
<path fill="#4191B5" d="M24.283,15.38c-3.502-0.008-6.337,2.738-6.349,6.158c-0.006,3.397,2.804,6.124,6.236,6.176
	c3.571,0.054,6.448-2.743,6.448-6.165C30.622,18.138,27.802,15.389,24.283,15.38z"/>
<path fill="#FFFFFF" fill-opacity="0.6" d="M28.388,20.394c-0.027,0.033-0.062,0.064-0.095,0.094c-1.438,1.399-2.88,2.796-4.312,4.2
	c-0.115,0.109-0.235,0.201-0.405,0.213c-0.162,0.012-0.302-0.043-0.416-0.15c-0.988-0.96-1.975-1.918-2.961-2.881
	c-0.208-0.202-0.222-0.503-0.019-0.712c0.256-0.267,0.523-0.523,0.803-0.771c0.185-0.164,0.453-0.159,0.646-0.004
	c0.078,0.061,0.147,0.132,0.224,0.203c0.557,0.542,1.109,1.082,1.692,1.651c0.04-0.05,0.068-0.096,0.104-0.131
	c1.054-1.023,2.104-2.042,3.158-3.066c0.106-0.107,0.226-0.199,0.39-0.212c0.165-0.014,0.304,0.038,0.417,0.146
	c0.251,0.239,0.506,0.474,0.748,0.719C28.566,19.886,28.57,20.178,28.388,20.394z"/>
<path fill="#636363" fill-opacity="0.3" d="M39.889,11.738c0,0.604-0.634,1.093-1.408,1.093H10.073
	c-0.776,0-1.406-0.489-1.406-1.093V9.747c0-0.604,0.63-1.093,1.406-1.093h28.408c0.774,0,1.408,0.49,1.408,1.093V11.738z"/>
<g>
	<path fill="#FFFFFF" d="M59.096,16.743v22.079h-4.271V16.743H59.096z"/>
	<path fill="#FFFFFF" d="M72.119,23.774c1.58,0,2.841,0.519,3.784,1.558c0.942,1.038,1.415,2.404,1.415,4.1v9.387h-3.872v-8.99
		c0-0.958-0.229-1.719-0.688-2.275c-0.459-0.56-1.082-0.837-1.873-0.837c-0.601,0-1.162,0.177-1.688,0.528
		c-0.528,0.354-1.107,0.939-1.737,1.762v9.812H63.57V24.059h3.889v2.07c0.715-0.842,1.451-1.445,2.205-1.808
		C70.415,23.956,71.233,23.774,72.119,23.774z"/>
	<path fill="#FFFFFF" d="M84.967,16.743v8.265c1.149-0.821,2.449-1.233,3.904-1.233c1.295,0,2.476,0.319,3.532,0.956
		c1.06,0.641,1.881,1.535,2.465,2.688c0.585,1.153,0.878,2.442,0.878,3.864c0,2.423-0.721,4.333-2.165,5.729
		c-1.441,1.396-3.419,2.094-5.927,2.094c-2.255,0-4.447-0.416-6.574-1.248V16.742L84.967,16.743L84.967,16.743z M84.967,35.739
		c0.832,0.284,1.805,0.425,2.909,0.425c1.19,0,2.138-0.434,2.837-1.303c0.7-0.869,1.053-2.072,1.053-3.61
		c0-1.392-0.354-2.5-1.062-3.328c-0.706-0.825-1.638-1.241-2.797-1.241c-0.537,0-1.033,0.104-1.485,0.301
		c-0.45,0.201-0.938,0.514-1.454,0.936L84.967,35.739L84.967,35.739L84.967,35.739z"/>
	<path fill="#FFFFFF" d="M106.16,23.774c1.538,0,2.937,0.321,4.188,0.964c1.253,0.643,2.223,1.543,2.905,2.703
		c0.688,1.16,1.028,2.473,1.028,3.937c0,1.526-0.329,2.867-0.988,4.015c-0.657,1.148-1.627,2.057-2.906,2.717
		c-1.28,0.664-2.689,0.996-4.229,0.996c-1.549,0-2.955-0.332-4.219-0.996c-1.268-0.66-2.229-1.567-2.885-2.717
		c-0.66-1.146-0.988-2.488-0.988-4.015c0-1.487,0.348-2.808,1.043-3.958c0.695-1.154,1.665-2.05,2.908-2.688
		C103.263,24.093,104.643,23.774,106.16,23.774z M102.146,31.377c0,1.477,0.357,2.652,1.082,3.532
		c0.722,0.88,1.688,1.319,2.896,1.319c1.268,0,2.264-0.42,2.987-1.268c0.728-0.842,1.091-2.047,1.091-3.619
		c0-1.492-0.367-2.65-1.099-3.467c-0.732-0.814-1.728-1.229-2.979-1.229c-1.18,0-2.138,0.434-2.875,1.297
		C102.515,28.812,102.146,29.955,102.146,31.377z"/>
	<path fill="#FFFFFF" d="M120.178,24.059l3.684,4.63l3.54-4.63h4.662l-5.927,7.253l6.365,7.508h-4.662l-3.979-4.883l-3.812,4.883
		h-4.533l6.114-7.508l-6.114-7.253H120.178z"/>
	<path fill="#FFFFFF" d="M137.105,16.743l5.499,13.623l5.786-13.623h3.602l5.816,13.671l5.481-13.671h4.361l-9.086,22.362h-1.439
		l-6.954-16.375l-6.982,16.375h-1.395l-9.104-22.362H137.105z"/>
	<path fill="#FFFFFF" d="M175.098,23.774c1.54,0,2.935,0.321,4.188,0.964c1.252,0.643,2.223,1.543,2.908,2.703
		c0.685,1.16,1.026,2.473,1.026,3.937c0,1.526-0.329,2.867-0.986,4.015c-0.66,1.148-1.629,2.057-2.91,2.717
		c-1.279,0.664-2.688,0.996-4.228,0.996c-1.551,0-2.956-0.332-4.222-0.996c-1.265-0.66-2.228-1.567-2.885-2.717
		c-0.659-1.146-0.988-2.488-0.988-4.015c0-1.487,0.351-2.808,1.043-3.958c0.695-1.154,1.665-2.05,2.909-2.688
		C172.201,24.093,173.582,23.774,175.098,23.774z M171.085,31.377c0,1.477,0.361,2.652,1.082,3.532
		c0.725,0.88,1.689,1.319,2.901,1.319c1.263,0,2.26-0.42,2.987-1.268c0.726-0.842,1.091-2.047,1.091-3.619
		c0-1.492-0.367-2.65-1.103-3.467c-0.73-0.814-1.726-1.229-2.979-1.229c-1.183,0-2.143,0.434-2.876,1.297
		C171.453,28.812,171.085,29.955,171.085,31.377z"/>
	<path fill="#FFFFFF" d="M194.774,23.774c0.517,0,1.022,0.117,1.522,0.349s1.082,0.622,1.746,1.168l-1.392,3.398
		c-1.128-0.842-2.032-1.266-2.717-1.266c-0.604,0-1.193,0.227-1.779,0.674c-0.584,0.444-1.053,1.041-1.405,1.774
		c-0.354,0.735-0.527,1.479-0.527,2.213v6.729h-3.891V24.059h3.891v3.761h0.062c0.706-1.424,1.417-2.452,2.134-3.09
		C193.135,24.092,193.921,23.774,194.774,23.774z"/>
	<path fill="#FFFFFF" d="M203.91,20.139h0.315v3.92h5.058v2.939h-5.058v6.812c0,0.664,0.197,1.199,0.601,1.61
		s0.949,0.615,1.646,0.615c0.902,0,1.946-0.326,3.129-0.979v3.11c-1.4,0.622-2.721,0.935-3.95,0.935
		c-1.665,0-2.962-0.453-3.896-1.358c-0.934-0.905-1.396-2.134-1.396-3.683v-7.063h-2.311v-0.633L203.91,20.139z"/>
	<path fill="#FFFFFF" d="M215.699,16.743v9.386h0.095c1.253-1.57,2.77-2.354,4.536-2.354c1.569,0,2.834,0.516,3.792,1.549
		c0.96,1.033,1.44,2.381,1.44,4.046v9.45h-3.873v-8.709c0-0.989-0.233-1.776-0.704-2.362c-0.467-0.585-1.107-0.876-1.92-0.876
		c-0.59,0-1.146,0.17-1.667,0.505c-0.522,0.337-1.088,0.897-1.699,1.675v9.768h-3.888V16.742L215.699,16.743L215.699,16.743z"/>
	<path fill="#FFFFFF" d="M231.613,24.059l3.494,7.934l3.54-7.934h4.172l-10.193,22.205h-4.172l4.693-10.16l-5.736-12.042
		L231.613,24.059L231.613,24.059z"/>
</g>
<g>
	<path fill="#FFFFFF" d="M248.007,16.997c0.783,0,1.509,0.194,2.181,0.588c0.677,0.388,1.21,0.92,1.6,1.595
		c0.395,0.676,0.586,1.395,0.586,2.175c0,0.782-0.191,1.51-0.583,2.178c-0.388,0.671-0.919,1.203-1.597,1.589
		c-0.675,0.392-1.397,0.585-2.187,0.585c-0.785,0-1.515-0.193-2.188-0.58c-0.677-0.389-1.21-0.92-1.598-1.591
		c-0.39-0.67-0.583-1.399-0.583-2.181c0-0.782,0.193-1.513,0.587-2.183c0.389-0.673,0.923-1.204,1.598-1.592
		C246.497,17.191,247.227,16.997,248.007,16.997z M248.007,17.721c-1.001,0-1.857,0.352-2.569,1.067
		c-0.714,0.713-1.064,1.566-1.064,2.571c0,1.005,0.351,1.864,1.061,2.568c0.712,0.71,1.567,1.062,2.572,1.062
		c1.004,0,1.86-0.354,2.571-1.065c0.709-0.71,1.064-1.564,1.064-2.565c0-1.005-0.355-1.858-1.068-2.571
		C249.861,18.073,249.004,17.721,248.007,17.721z M247.019,23.697h-0.758v-4.684h1.625c0.57,0,0.981,0.039,1.218,0.133
		c0.237,0.09,0.428,0.241,0.566,0.452c0.143,0.21,0.214,0.439,0.214,0.681c0,0.358-0.125,0.66-0.378,0.906
		c-0.253,0.249-0.57,0.388-0.967,0.417c0.182,0.073,0.343,0.193,0.501,0.36c0.159,0.168,0.354,0.443,0.594,0.823l0.565,0.916h-0.924
		l-0.411-0.735c-0.296-0.527-0.533-0.869-0.707-1.024c-0.173-0.159-0.406-0.236-0.696-0.236h-0.445v1.992h0.003V23.697z
		 M247.019,19.646v1.411h0.924c0.394,0,0.68-0.058,0.86-0.173c0.18-0.114,0.269-0.293,0.269-0.541c0-0.26-0.089-0.44-0.266-0.545
		c-0.177-0.104-0.483-0.152-0.929-0.152H247.019L247.019,19.646z"/>
</g>
</svg>
