<?xml version="1.0" encoding="utf-8"?>
<!-- Generator: Adobe Illustrator 16.0.0, SVG Export Plug-In . SVG Version: 6.00 Build 0)  -->
<!DOCTYPE svg PUBLIC "-//W3C//DTD SVG 1.1//EN" "http://www.w3.org/Graphics/SVG/1.1/DTD/svg11.dtd">
<svg version="1.1" id="Layer_1" xmlns="http://www.w3.org/2000/svg" xmlns:xlink="http://www.w3.org/1999/xlink" x="0px" y="0px"
	 width="268.574px" height="48.25px" viewBox="0 0 268.574 48.25" enable-background="new 0 0 268.574 48.25" xml:space="preserve">
<path fill="#90AFC5" d="M46.07,39.439c0,3.601-2.918,6.519-6.518,6.519H8.921c-3.6,0-6.518-2.918-6.518-6.519V8.81
	c0-3.6,2.918-6.518,6.518-6.518h30.631c3.6,0,6.518,2.918,6.518,6.518V39.439z"/>
<g>
	<g>
		<path fill="#636363" d="M258.026,16.997c0.783,0,1.509,0.194,2.181,0.588c0.678,0.388,1.211,0.92,1.602,1.595
			c0.393,0.676,0.586,1.395,0.586,2.175c0,0.782-0.193,1.51-0.584,2.178c-0.389,0.671-0.918,1.203-1.598,1.589
			c-0.674,0.392-1.396,0.585-2.187,0.585c-0.784,0-1.515-0.193-2.188-0.58c-0.678-0.389-1.211-0.92-1.598-1.591
			c-0.389-0.67-0.584-1.399-0.584-2.181c0-0.782,0.195-1.513,0.588-2.183c0.389-0.673,0.922-1.204,1.598-1.592
			C256.516,17.191,257.248,16.997,258.026,16.997z M258.026,17.721c-1,0-1.856,0.352-2.569,1.067
			c-0.713,0.713-1.062,1.566-1.062,2.571c0,1.005,0.35,1.864,1.059,2.568c0.713,0.71,1.568,1.062,2.574,1.062
			c1.004,0,1.859-0.354,2.57-1.065c0.709-0.71,1.064-1.564,1.064-2.565c0-1.005-0.355-1.858-1.068-2.571
			C259.88,18.073,259.024,17.721,258.026,17.721z M257.039,23.697h-0.759v-4.684h1.625c0.572,0,0.982,0.039,1.22,0.133
			c0.237,0.09,0.428,0.241,0.565,0.452c0.144,0.21,0.215,0.439,0.215,0.681c0,0.358-0.125,0.66-0.379,0.906
			c-0.252,0.249-0.569,0.388-0.967,0.417c0.183,0.073,0.344,0.193,0.502,0.36c0.157,0.168,0.354,0.443,0.594,0.823l0.563,0.916
			h-0.924l-0.41-0.735c-0.297-0.527-0.532-0.869-0.707-1.024c-0.174-0.159-0.405-0.236-0.696-0.236h-0.444v1.992h0.002V23.697z
			 M257.039,19.646v1.411h0.924c0.395,0,0.682-0.058,0.861-0.173c0.18-0.114,0.268-0.293,0.268-0.541c0-0.26-0.088-0.44-0.266-0.545
			c-0.177-0.104-0.482-0.152-0.929-0.152H257.039L257.039,19.646z"/>
	</g>
	<g>
		<path fill="#636363" d="M69.116,16.743v22.079h-4.27V16.743H69.116z"/>
		<path fill="#636363" d="M82.139,23.774c1.58,0,2.841,0.519,3.784,1.558c0.942,1.038,1.415,2.404,1.415,4.1v9.387h-3.872v-8.989
			c0-0.958-0.229-1.72-0.688-2.274c-0.459-0.561-1.082-0.838-1.873-0.838c-0.601,0-1.163,0.178-1.689,0.528
			c-0.528,0.354-1.107,0.938-1.737,1.762v9.812H73.59V24.059h3.889v2.07c0.715-0.842,1.451-1.445,2.205-1.808
			C80.435,23.956,81.253,23.774,82.139,23.774z"/>
		<path fill="#636363" d="M94.987,16.743v8.265c1.149-0.821,2.449-1.233,3.904-1.233c1.295,0,2.475,0.319,3.532,0.956
			c1.06,0.642,1.881,1.535,2.465,2.688c0.585,1.153,0.878,2.442,0.878,3.864c0,2.423-0.721,4.333-2.165,5.729
			c-1.442,1.396-3.419,2.094-5.927,2.094c-2.255,0-4.447-0.416-6.574-1.248V16.742L94.987,16.743L94.987,16.743z M94.987,35.739
			c0.832,0.284,1.804,0.425,2.909,0.425c1.19,0,2.137-0.434,2.837-1.303c0.7-0.869,1.052-2.072,1.052-3.61
			c0-1.392-0.354-2.5-1.061-3.328c-0.706-0.825-1.638-1.241-2.797-1.241c-0.537,0-1.033,0.104-1.485,0.301
			c-0.451,0.201-0.938,0.515-1.454,0.937L94.987,35.739L94.987,35.739L94.987,35.739z"/>
		<path fill="#636363" d="M116.18,23.774c1.537,0,2.936,0.321,4.188,0.964c1.252,0.643,2.223,1.543,2.906,2.703
			c0.686,1.16,1.027,2.473,1.027,3.937c0,1.526-0.328,2.867-0.988,4.015c-0.658,1.148-1.627,2.058-2.906,2.717
			c-1.281,0.664-2.689,0.996-4.229,0.996c-1.55,0-2.956-0.332-4.22-0.996c-1.267-0.659-2.228-1.566-2.884-2.717
			c-0.66-1.146-0.988-2.488-0.988-4.015c0-1.487,0.348-2.808,1.043-3.958c0.695-1.154,1.666-2.05,2.908-2.688
			C113.282,24.093,114.663,23.774,116.18,23.774z M112.165,31.377c0,1.477,0.358,2.652,1.082,3.532
			c0.723,0.88,1.688,1.319,2.898,1.319c1.266,0,2.262-0.42,2.986-1.269c0.729-0.842,1.092-2.047,1.092-3.619
			c0-1.491-0.367-2.649-1.1-3.467c-0.732-0.813-1.727-1.229-2.979-1.229c-1.181,0-2.138,0.435-2.875,1.297
			C112.534,28.812,112.165,29.955,112.165,31.377z"/>
		<path fill="#636363" d="M130.198,24.059l3.684,4.63l3.54-4.63h4.662l-5.926,7.253l6.364,7.508h-4.662l-3.979-4.883l-3.812,4.883
			h-4.533l6.115-7.508l-6.115-7.253H130.198z"/>
		<path fill="#636363" d="M147.125,16.743l5.5,13.623l5.785-13.623h3.604l5.814,13.671l5.481-13.671h4.36l-9.086,22.362h-1.438
			l-6.953-16.375l-6.983,16.375h-1.394l-9.104-22.362H147.125z"/>
		<path fill="#636363" d="M185.119,23.774c1.539,0,2.936,0.321,4.188,0.964c1.252,0.643,2.223,1.543,2.908,2.703
			c0.685,1.16,1.024,2.473,1.024,3.937c0,1.526-0.327,2.867-0.985,4.015c-0.658,1.148-1.629,2.058-2.908,2.717
			c-1.279,0.664-2.689,0.996-4.229,0.996c-1.552,0-2.957-0.332-4.222-0.996c-1.267-0.659-2.229-1.566-2.886-2.717
			c-0.659-1.146-0.987-2.488-0.987-4.015c0-1.487,0.351-2.808,1.043-3.958c0.694-1.154,1.664-2.05,2.908-2.688
			C182.221,24.093,183.602,23.774,185.119,23.774z M181.104,31.377c0,1.477,0.36,2.652,1.082,3.532
			c0.726,0.88,1.688,1.319,2.899,1.319c1.265,0,2.263-0.42,2.988-1.269c0.727-0.842,1.09-2.047,1.09-3.619
			c0-1.491-0.367-2.649-1.102-3.467c-0.73-0.813-1.727-1.229-2.979-1.229c-1.183,0-2.144,0.435-2.877,1.297
			C181.473,28.812,181.104,29.955,181.104,31.377z"/>
		<path fill="#636363" d="M204.794,23.774c0.518,0,1.022,0.117,1.522,0.349s1.082,0.622,1.746,1.168l-1.394,3.398
			c-1.129-0.842-2.03-1.267-2.717-1.267c-0.604,0-1.193,0.228-1.779,0.675c-0.584,0.443-1.053,1.041-1.403,1.773
			c-0.354,0.734-0.528,1.479-0.528,2.213v6.729h-3.89V24.059h3.89v3.761h0.062c0.706-1.424,1.418-2.452,2.135-3.09
			C203.155,24.092,203.94,23.774,204.794,23.774z"/>
		<path fill="#636363" d="M213.93,20.139h0.313v3.92h5.06v2.939h-5.06v6.812c0,0.664,0.197,1.198,0.603,1.609
			c0.401,0.411,0.946,0.615,1.646,0.615c0.903,0,1.946-0.326,3.129-0.979v3.109c-1.398,0.622-2.72,0.936-3.949,0.936
			c-1.666,0-2.963-0.453-3.896-1.358s-1.396-2.134-1.396-3.683v-7.063h-2.311v-0.633L213.93,20.139z"/>
		<path fill="#636363" d="M225.718,16.743v9.386h0.095c1.254-1.57,2.771-2.354,4.537-2.354c1.567,0,2.834,0.516,3.791,1.549
			c0.961,1.033,1.438,2.381,1.438,4.046v9.45h-3.873v-8.709c0-0.989-0.231-1.776-0.703-2.362c-0.467-0.585-1.106-0.876-1.92-0.876
			c-0.59,0-1.146,0.17-1.668,0.505c-0.521,0.337-1.088,0.897-1.697,1.675v9.768h-3.889V16.742L225.718,16.743L225.718,16.743z"/>
		<path fill="#636363" d="M241.632,24.059l3.494,7.934l3.541-7.934h4.172l-10.193,22.205h-4.172l4.693-10.16l-5.736-12.042
			L241.632,24.059L241.632,24.059z"/>
	</g>
</g>
<g>
	<path fill="#FFFFFF" d="M11.068,21.473l13.17,7.673l13.253-7.68c0-4.813,0-9.813,0-10.13c0-0.832-1.162-0.979-1.162-0.979H12.41
		c-1.447,0-1.341,1.303-1.341,1.303L11.068,21.473z"/>
</g>
<polygon fill="#FFFFFF" fill-opacity="0.4" points="11.066,19.169 9.233,20.404 11.066,21.472 "/>
<polygon fill="#FFFFFF" fill-opacity="0.4" points="37.49,19.164 39.322,20.398 37.49,21.466 "/>
<g>
	<path fill="#FFFFFF" fill-opacity="0.6" d="M38.701,37.579L9.233,20.404v16.093c0,0-0.105,1.387,2.202,1.387s25.897,0,25.897,0
		s0.774,0.077,1.359-0.299"/>
	<path fill="#FFFFFF" fill-opacity="0.5" d="M39.322,36.312c0,0.643-0.266,1.023-0.6,1.252c-0.014,0.008-0.021,0.017-0.031,0.02
		l-14.455-8.438l15.085-8.744L39.322,36.312L39.322,36.312z"/>
</g>
<path fill="#4191B5" d="M24.281,16.812c-2.646-0.006-4.788,2.069-4.797,4.653c-0.004,2.567,2.119,4.627,4.712,4.666
	c2.699,0.041,4.872-2.072,4.872-4.658C29.071,18.897,26.94,16.82,24.281,16.812z"/>
<path fill="#FFFFFF" fill-opacity="0.6" d="M27.384,20.601c-0.021,0.025-0.047,0.048-0.072,0.071
	c-1.086,1.057-2.176,2.113-3.257,3.173c-0.087,0.082-0.178,0.151-0.307,0.16c-0.122,0.009-0.228-0.032-0.314-0.113
	c-0.747-0.726-1.492-1.449-2.237-2.177c-0.157-0.153-0.167-0.38-0.014-0.538c0.193-0.202,0.396-0.396,0.606-0.583
	c0.14-0.124,0.343-0.12,0.489-0.003c0.059,0.046,0.111,0.1,0.169,0.153c0.42,0.41,0.838,0.817,1.279,1.248
	c0.03-0.038,0.052-0.073,0.079-0.099c0.796-0.773,1.589-1.543,2.386-2.316c0.081-0.081,0.171-0.151,0.294-0.16
	c0.125-0.011,0.229,0.029,0.315,0.11c0.189,0.18,0.382,0.358,0.565,0.543C27.518,20.217,27.521,20.438,27.384,20.601z"/>
<path fill="#636363" fill-opacity="0.3" d="M36.073,14.061c0,0.456-0.479,0.826-1.064,0.826H13.545c-0.586,0-1.062-0.37-1.062-0.826
	v-1.504c0-0.456,0.476-0.826,1.062-0.826H35.01c0.585,0,1.064,0.371,1.064,0.826L36.073,14.061L36.073,14.061z"/>
</svg>
