<?xml version="1.0" encoding="utf-8"?>
<!-- Generator: Adobe Illustrator 16.0.0, SVG Export Plug-In . SVG Version: 6.00 Build 0)  -->
<!DOCTYPE svg PUBLIC "-//W3C//DTD SVG 1.1//EN" "http://www.w3.org/Graphics/SVG/1.1/DTD/svg11.dtd">
<svg version="1.1" id="Layer_1" xmlns="http://www.w3.org/2000/svg" xmlns:xlink="http://www.w3.org/1999/xlink" x="0px" y="0px"
	 width="253.48px" height="86.5px" viewBox="0 0 253.48 86.5" enable-background="new 0 0 253.48 86.5" xml:space="preserve">
<g>
	<path fill="#FFFFFF" d="M110.129,23.623L127.56,33.78l17.54-10.164c0-6.371,0-12.988,0-13.407c0-1.101-1.538-1.295-1.538-1.295
		h-31.654c-1.915,0-1.775,1.725-1.775,1.725L110.129,23.623z"/>
</g>
<polygon fill="#D0DEE7" points="110.127,20.59 107.7,22.224 110.127,23.638 "/>
<polygon fill="#D0DEE7" points="145.097,20.574 147.523,22.208 145.097,23.622 "/>
<g>
	<path fill="#90AFC5" d="M146.702,44.939L107.7,22.208v21.299c0,0-0.14,1.835,2.914,1.835s34.275,0,34.275,0s1.023,0.1,1.799-0.396"
		/>
	<path fill="#A4BED0" d="M147.523,43.266c0,0.848-0.354,1.354-0.794,1.655c-0.02,0.011-0.027,0.021-0.041,0.026L127.557,33.78
		l19.966-11.572V43.266z"/>
</g>
<path fill="#4191B5" d="M127.617,17.455c-3.502-0.008-6.337,2.738-6.349,6.158c-0.006,3.398,2.804,6.124,6.234,6.176
	c3.571,0.053,6.448-2.743,6.448-6.165C133.956,20.213,131.135,17.464,127.617,17.455z"/>
<path fill="#FFFFFF" fill-opacity="0.6" d="M131.722,22.469c-0.027,0.033-0.062,0.064-0.097,0.094
	c-1.438,1.399-2.88,2.796-4.312,4.199c-0.115,0.11-0.235,0.201-0.405,0.213c-0.162,0.01-0.302-0.043-0.416-0.152
	c-0.988-0.96-1.975-1.918-2.961-2.881c-0.208-0.202-0.222-0.503-0.019-0.712c0.256-0.267,0.521-0.523,0.803-0.771
	c0.185-0.164,0.453-0.159,0.646-0.004c0.078,0.061,0.147,0.132,0.226,0.203c0.557,0.542,1.107,1.082,1.69,1.651
	c0.04-0.05,0.068-0.096,0.104-0.131c1.054-1.023,2.104-2.042,3.158-3.066c0.104-0.107,0.226-0.199,0.39-0.212
	c0.165-0.014,0.304,0.038,0.417,0.146c0.251,0.239,0.506,0.474,0.748,0.719C131.9,21.961,131.904,22.253,131.722,22.469z"/>
<path fill="#636363" fill-opacity="0.3" d="M143.223,13.813c0,0.604-0.636,1.093-1.408,1.093h-28.408
	c-0.776,0-1.406-0.489-1.406-1.093v-1.991c0-0.604,0.63-1.093,1.406-1.093h28.408c0.772,0,1.408,0.49,1.408,1.093V13.813z"/>
<g>
	<path fill="#FFFFFF" d="M29.15,52.684v23.812h-4.604V52.684H29.15z"/>
	<path fill="#FFFFFF" d="M43.195,60.268c1.705,0,3.062,0.559,4.082,1.683c1.016,1.118,1.526,2.595,1.526,4.419V76.49h-4.178v-9.696
		c0-1.03-0.249-1.851-0.738-2.454c-0.498-0.605-1.168-0.902-2.021-0.902c-0.65,0-1.256,0.188-1.824,0.566
		c-0.567,0.383-1.192,1.018-1.873,1.902v10.586h-4.195V60.575h4.194v2.233c0.771-0.908,1.562-1.561,2.377-1.953
		C41.357,60.462,42.239,60.268,43.195,60.268z"/>
	<path fill="#FFFFFF" d="M57.051,52.684v8.914c1.242-0.886,2.643-1.33,4.212-1.33c1.396,0,2.663,0.344,3.809,1.028
		c1.143,0.688,2.029,1.656,2.659,2.897c0.63,1.24,0.944,2.634,0.944,4.166c0,2.615-0.773,4.674-2.335,6.18
		c-1.557,1.507-3.688,2.256-6.393,2.256c-2.431,0-4.794-0.447-7.089-1.346V52.678L57.051,52.684L57.051,52.684z M57.051,73.172
		c0.897,0.309,1.943,0.459,3.142,0.459c1.283,0,2.301-0.468,3.06-1.402c0.754-0.938,1.132-2.236,1.132-3.896
		c0-1.5-0.38-2.698-1.142-3.59c-0.761-0.892-1.768-1.337-3.017-1.337c-0.58,0-1.115,0.107-1.603,0.324
		c-0.49,0.217-1.011,0.551-1.568,1.006L57.051,73.172L57.051,73.172z"/>
	<path fill="#FFFFFF" d="M79.908,60.268c1.659,0,3.164,0.349,4.517,1.037c1.351,0.695,2.398,1.662,3.138,2.918
		c0.737,1.248,1.107,2.666,1.107,4.246c0,1.646-0.354,3.09-1.064,4.328c-0.713,1.24-1.755,2.217-3.142,2.932
		c-1.381,0.715-2.899,1.072-4.559,1.072c-1.672,0-3.188-0.355-4.551-1.072c-1.363-0.715-2.403-1.694-3.112-2.932
		c-0.712-1.236-1.065-2.682-1.065-4.328c0-1.604,0.375-3.027,1.125-4.271c0.749-1.245,1.796-2.209,3.139-2.898
		C76.785,60.614,78.272,60.268,79.908,60.268z M75.58,68.469c0,1.59,0.388,2.861,1.167,3.809c0.778,0.947,1.823,1.424,3.127,1.424
		c1.365,0,2.442-0.451,3.225-1.363c0.783-0.906,1.179-2.207,1.179-3.9c0-1.612-0.396-2.86-1.188-3.74
		c-0.79-0.885-1.858-1.321-3.212-1.321c-1.271,0-2.304,0.466-3.1,1.399C75.977,65.701,75.58,66.934,75.58,68.469z"/>
	<path fill="#FFFFFF" d="M95.027,60.575l3.976,4.993l3.817-4.993h5.028l-6.394,7.823l6.868,8.099h-5.028l-4.292-5.267l-4.108,5.267
		H90l6.6-8.099L90,60.575H95.027z"/>
	<path fill="#FFFFFF" d="M113.283,52.684l5.933,14.692l6.241-14.692h3.883l6.273,14.746l5.913-14.746h4.705l-9.797,24.117h-1.558
		l-7.5-17.66l-7.531,17.66h-1.5l-9.819-24.117H113.283z"/>
	<path fill="#FFFFFF" d="M154.26,60.268c1.664,0,3.164,0.349,4.519,1.037c1.348,0.695,2.396,1.662,3.137,2.918
		c0.738,1.248,1.107,2.666,1.107,4.246c0,1.646-0.354,3.09-1.063,4.328c-0.713,1.24-1.757,2.217-3.142,2.932
		c-1.379,0.715-2.896,1.072-4.562,1.072c-1.669,0-3.188-0.355-4.55-1.072c-1.364-0.715-2.404-1.694-3.111-2.932
		c-0.71-1.236-1.064-2.682-1.064-4.328c0-1.604,0.375-3.027,1.125-4.271c0.749-1.245,1.795-2.209,3.14-2.898
		C151.135,60.614,152.624,60.268,154.26,60.268z M149.93,68.469c0,1.59,0.393,2.861,1.167,3.809
		c0.777,0.947,1.821,1.424,3.131,1.424c1.358,0,2.438-0.451,3.224-1.363c0.779-0.906,1.177-2.207,1.177-3.9
		c0-1.612-0.396-2.86-1.188-3.74c-0.79-0.885-1.86-1.321-3.21-1.321c-1.275,0-2.309,0.466-3.102,1.399
		C150.329,65.701,149.93,66.934,149.93,68.469z"/>
	<path fill="#FFFFFF" d="M175.479,60.268c0.557,0,1.104,0.125,1.646,0.377c0.538,0.25,1.166,0.67,1.884,1.26l-1.504,3.664
		c-1.217-0.905-2.188-1.359-2.931-1.359c-0.646,0-1.285,0.24-1.917,0.727c-0.631,0.481-1.138,1.121-1.517,1.914
		c-0.384,0.797-0.57,1.594-0.57,2.389v7.261h-4.194v-15.92h4.194v4.058h0.067c0.766-1.537,1.527-2.646,2.301-3.334
		C173.714,60.614,174.559,60.268,175.479,60.268z"/>
	<path fill="#FFFFFF" d="M185.332,56.35h0.342v4.228h5.456v3.17h-5.456v7.346c0,0.718,0.22,1.298,0.648,1.739
		c0.436,0.443,1.026,0.663,1.771,0.663c0.979,0,2.104-0.351,3.375-1.058v3.355c-1.512,0.67-2.932,1.007-4.262,1.007
		c-1.795,0-3.191-0.489-4.197-1.466c-1.005-0.979-1.508-2.301-1.508-3.973v-7.617h-2.488v-0.684L185.332,56.35z"/>
	<path fill="#FFFFFF" d="M198.048,52.684v10.123h0.104c1.352-1.691,2.982-2.539,4.893-2.539c1.692,0,3.059,0.557,4.089,1.67
		c1.035,1.112,1.558,2.568,1.558,4.36V76.49h-4.175V67.1c0-1.064-0.253-1.918-0.766-2.551c-0.501-0.629-1.19-0.941-2.069-0.941
		c-0.637,0-1.236,0.188-1.8,0.545c-0.562,0.361-1.173,0.971-1.832,1.811v10.531h-4.191V52.682L198.048,52.684L198.048,52.684z"/>
	<path fill="#FFFFFF" d="M215.212,60.575l3.771,8.557l3.816-8.557h4.499l-10.991,23.946h-4.5l5.062-10.957l-6.187-12.989H215.212z"
		/>
</g>
<g>
	<path fill="#FFFFFF" d="M232.674,52.682c0.845,0,1.624,0.209,2.35,0.635c0.729,0.418,1.304,0.99,1.724,1.718
		c0.424,0.729,0.631,1.503,0.631,2.344c0,0.843-0.207,1.627-0.628,2.347c-0.418,0.725-0.99,1.297-1.721,1.713
		c-0.729,0.422-1.506,0.631-2.354,0.631c-0.848,0-1.632-0.209-2.356-0.627c-0.729-0.416-1.305-0.989-1.723-1.713
		s-0.628-1.508-0.628-2.351s0.211-1.63,0.634-2.353c0.418-0.725,0.992-1.297,1.721-1.715
		C231.047,52.891,231.834,52.682,232.674,52.682z M232.674,53.462c-1.078,0-2.002,0.379-2.77,1.149
		c-0.77,0.769-1.147,1.688-1.147,2.771s0.378,2.009,1.144,2.767c0.768,0.766,1.688,1.146,2.771,1.146
		c1.082,0,2.004-0.383,2.771-1.147c0.764-0.765,1.146-1.686,1.146-2.764c0-1.083-0.384-2.002-1.15-2.771
		C234.671,53.841,233.748,53.462,232.674,53.462z M231.61,59.9h-0.817v-5.047h1.752c0.615,0,1.059,0.041,1.312,0.144
		c0.257,0.099,0.46,0.26,0.61,0.487c0.152,0.227,0.23,0.474,0.23,0.732c0,0.387-0.135,0.711-0.407,0.977
		c-0.271,0.269-0.615,0.418-1.042,0.449c0.194,0.078,0.369,0.207,0.54,0.387c0.171,0.183,0.382,0.479,0.641,0.888l0.608,0.985
		h-0.996l-0.441-0.791c-0.319-0.567-0.575-0.937-0.763-1.104c-0.187-0.172-0.438-0.255-0.75-0.255h-0.479V59.9H231.61z
		 M231.61,55.536v1.521h0.994c0.425,0,0.732-0.062,0.928-0.188c0.193-0.123,0.289-0.316,0.289-0.583
		c0-0.279-0.096-0.474-0.286-0.587c-0.188-0.112-0.521-0.164-1-0.164L231.61,55.536L231.61,55.536z"/>
</g>
</svg>
