<?xml version="1.0" encoding="utf-8"?>
<!-- Generator: Adobe Illustrator 16.0.0, SVG Export Plug-In . SVG Version: 6.00 Build 0)  -->
<!DOCTYPE svg PUBLIC "-//W3C//DTD SVG 1.1//EN" "http://www.w3.org/Graphics/SVG/1.1/DTD/svg11.dtd">
<svg version="1.1" id="Layer_1" xmlns="http://www.w3.org/2000/svg" xmlns:xlink="http://www.w3.org/1999/xlink" x="0px" y="0px"
	 width="200.24px" height="48.25px" viewBox="0 0 200.24 48.25" enable-background="new 0 0 200.24 48.25" xml:space="preserve">
<g>
	<path fill="#636363" d="M5.617,10.947v22.079h-4.27V10.947H5.617z"/>
	<path fill="#636363" d="M18.64,17.978c1.58,0,2.841,0.519,3.784,1.558c0.942,1.038,1.415,2.404,1.415,4.1v9.387h-3.872v-8.99
		c0-0.958-0.229-1.719-0.688-2.275c-0.459-0.56-1.082-0.837-1.873-0.837c-0.601,0-1.163,0.177-1.689,0.528
		c-0.528,0.354-1.107,0.939-1.737,1.762v9.812H10.09V18.263h3.889v2.07c0.715-0.842,1.451-1.445,2.205-1.808
		C16.936,18.16,17.753,17.978,18.64,17.978z"/>
	<path fill="#636363" d="M31.487,10.947v8.265c1.149-0.821,2.449-1.233,3.904-1.233c1.295,0,2.475,0.319,3.532,0.956
		c1.06,0.641,1.881,1.535,2.465,2.688c0.585,1.153,0.878,2.442,0.878,3.864c0,2.423-0.721,4.333-2.165,5.729
		c-1.442,1.396-3.419,2.094-5.927,2.094c-2.255,0-4.447-0.416-6.574-1.248V10.946L31.487,10.947L31.487,10.947z M31.487,29.943
		c0.832,0.284,1.804,0.425,2.909,0.425c1.19,0,2.137-0.434,2.837-1.303c0.7-0.869,1.052-2.072,1.052-3.61
		c0-1.392-0.354-2.5-1.061-3.328c-0.706-0.825-1.638-1.241-2.797-1.241c-0.537,0-1.033,0.104-1.485,0.301
		c-0.451,0.201-0.938,0.514-1.454,0.936L31.487,29.943L31.487,29.943L31.487,29.943z"/>
	<path fill="#636363" d="M52.681,17.978c1.538,0,2.937,0.321,4.188,0.964c1.252,0.643,2.223,1.543,2.905,2.703
		c0.687,1.16,1.028,2.473,1.028,3.937c0,1.526-0.329,2.867-0.988,4.015c-0.658,1.148-1.627,2.057-2.906,2.717
		c-1.281,0.664-2.689,0.996-4.229,0.996c-1.55,0-2.955-0.332-4.22-0.996c-1.267-0.66-2.228-1.567-2.884-2.717
		c-0.66-1.146-0.988-2.488-0.988-4.015c0-1.487,0.348-2.808,1.043-3.958c0.695-1.154,1.666-2.05,2.908-2.688
		C49.783,18.297,51.164,17.978,52.681,17.978z M48.666,25.581c0,1.477,0.358,2.652,1.082,3.532c0.723,0.88,1.688,1.319,2.897,1.319
		c1.267,0,2.263-0.42,2.987-1.268c0.728-0.842,1.091-2.047,1.091-3.619c0-1.492-0.367-2.65-1.099-3.467
		c-0.732-0.814-1.728-1.229-2.979-1.229c-1.181,0-2.138,0.434-2.875,1.297C49.035,23.017,48.666,24.159,48.666,25.581z"/>
	<path fill="#636363" d="M66.699,18.263l3.684,4.63l3.539-4.63h4.662l-5.926,7.253l6.365,7.508h-4.662l-3.979-4.883l-3.812,4.883
		h-4.533l6.114-7.508l-6.114-7.253H66.699z"/>
	<path fill="#636363" d="M83.625,10.947l5.5,13.623l5.785-13.623h3.603l5.815,13.671l5.482-13.671h4.361l-9.086,22.362h-1.439
		l-6.954-16.375L89.709,33.31h-1.394l-9.104-22.362H83.625z"/>
	<path fill="#636363" d="M121.619,17.978c1.539,0,2.935,0.321,4.188,0.964c1.252,0.643,2.223,1.543,2.908,2.703
		c0.685,1.16,1.025,2.473,1.025,3.937c0,1.526-0.328,2.867-0.986,4.015c-0.659,1.148-1.629,2.057-2.909,2.717
		c-1.279,0.664-2.688,0.996-4.228,0.996c-1.551,0-2.957-0.332-4.222-0.996c-1.265-0.66-2.228-1.567-2.885-2.717
		c-0.659-1.146-0.988-2.488-0.988-4.015c0-1.487,0.351-2.808,1.043-3.958c0.695-1.154,1.665-2.05,2.909-2.688
		C118.722,18.297,120.103,17.978,121.619,17.978z M117.605,25.581c0,1.477,0.361,2.652,1.082,3.532
		c0.725,0.88,1.689,1.319,2.9,1.319c1.264,0,2.261-0.42,2.988-1.268c0.726-0.842,1.09-2.047,1.09-3.619
		c0-1.492-0.367-2.65-1.102-3.467c-0.73-0.814-1.727-1.229-2.979-1.229c-1.183,0-2.143,0.434-2.877,1.297
		C117.974,23.017,117.605,24.159,117.605,25.581z"/>
	<path fill="#636363" d="M141.295,17.978c0.517,0,1.022,0.117,1.522,0.349s1.082,0.622,1.746,1.168l-1.392,3.398
		c-1.129-0.842-2.032-1.266-2.717-1.266c-0.604,0-1.193,0.227-1.779,0.674c-0.584,0.444-1.053,1.041-1.405,1.774
		c-0.354,0.735-0.528,1.479-0.528,2.213v6.729h-3.89V18.263h3.89v3.761h0.062c0.706-1.424,1.417-2.452,2.134-3.09
		C139.655,18.296,140.441,17.978,141.295,17.978z"/>
	<path fill="#636363" d="M150.431,14.343h0.315v3.92h5.058v2.939h-5.058v6.812c0,0.664,0.197,1.199,0.601,1.61
		s0.948,0.615,1.646,0.615c0.903,0,1.947-0.326,3.129-0.979v3.11c-1.399,0.622-2.72,0.935-3.949,0.935
		c-1.666,0-2.963-0.453-3.896-1.358s-1.396-2.134-1.396-3.683v-7.063h-2.311v-0.633L150.431,14.343z"/>
	<path fill="#636363" d="M162.22,10.947v9.386h0.095c1.253-1.57,2.77-2.354,4.536-2.354c1.569,0,2.834,0.516,3.792,1.549
		c0.96,1.033,1.439,2.381,1.439,4.046v9.45h-3.873v-8.709c0-0.989-0.232-1.776-0.703-2.362c-0.467-0.585-1.107-0.876-1.92-0.876
		c-0.59,0-1.146,0.17-1.668,0.505c-0.521,0.337-1.088,0.897-1.698,1.675v9.768h-3.888V10.946L162.22,10.947L162.22,10.947z"/>
	<path fill="#636363" d="M178.133,18.263l3.494,7.934l3.541-7.934h4.172l-10.193,22.205h-4.172l4.693-10.16l-5.736-12.042
		L178.133,18.263L178.133,18.263z"/>
</g>
<g>
	<path fill="#636363" d="M194.527,11.201c0.783,0,1.508,0.194,2.18,0.588c0.678,0.388,1.211,0.92,1.601,1.595
		c0.394,0.676,0.586,1.395,0.586,2.175c0,0.782-0.192,1.51-0.583,2.178c-0.389,0.671-0.919,1.203-1.598,1.589
		c-0.674,0.392-1.396,0.585-2.186,0.585c-0.785,0-1.515-0.193-2.188-0.58c-0.678-0.389-1.211-0.92-1.598-1.591
		c-0.39-0.67-0.584-1.399-0.584-2.181c0-0.782,0.194-1.513,0.588-2.183c0.389-0.673,0.922-1.204,1.598-1.592
		C193.018,11.395,193.748,11.201,194.527,11.201z M194.527,11.925c-1.001,0-1.857,0.352-2.57,1.067
		c-0.713,0.713-1.063,1.566-1.063,2.571c0,1.005,0.351,1.864,1.06,2.568c0.713,0.71,1.568,1.062,2.573,1.062
		c1.004,0,1.86-0.354,2.571-1.065c0.709-0.71,1.064-1.564,1.064-2.565c0-1.005-0.355-1.858-1.068-2.571
		C196.381,12.277,195.524,11.925,194.527,11.925z M193.539,17.901h-0.758v-4.684h1.625c0.571,0,0.982,0.039,1.219,0.133
		c0.237,0.09,0.428,0.241,0.566,0.452c0.143,0.21,0.214,0.439,0.214,0.681c0,0.358-0.125,0.66-0.378,0.906
		c-0.253,0.249-0.57,0.388-0.967,0.417c0.182,0.073,0.343,0.193,0.501,0.36c0.159,0.168,0.354,0.443,0.594,0.823l0.565,0.916h-0.924
		l-0.411-0.735c-0.296-0.527-0.533-0.869-0.707-1.024c-0.173-0.159-0.406-0.236-0.696-0.236h-0.445v1.992h0.002V17.901z
		 M193.539,13.85v1.411h0.924c0.395,0,0.681-0.058,0.861-0.173c0.18-0.114,0.268-0.293,0.268-0.541c0-0.26-0.088-0.44-0.266-0.545
		c-0.176-0.104-0.482-0.152-0.928-0.152H193.539L193.539,13.85z"/>
</g>
</svg>
