<?xml version="1.0" encoding="utf-8"?>
<!-- Generator: Adobe Illustrator 16.0.0, SVG Export Plug-In . SVG Version: 6.00 Build 0)  -->
<!DOCTYPE svg PUBLIC "-//W3C//DTD SVG 1.1//EN" "http://www.w3.org/Graphics/SVG/1.1/DTD/svg11.dtd">
<svg version="1.1" id="Layer_1" xmlns="http://www.w3.org/2000/svg" xmlns:xlink="http://www.w3.org/1999/xlink" x="0px" y="0px"
	 width="52.871px" height="52.872px" viewBox="0 0 52.871 52.872" enable-background="new 0 0 52.871 52.872" xml:space="preserve">
<g>
	<path fill="#FFFFFF" d="M42.783,43.712h-0.037c-0.185,0-0.285-0.008-0.312-0.01l-31.812,0.003c-1.355,0-2.362-0.347-2.995-1.029
		c-0.666-0.717-0.644-1.514-0.632-1.666L6.992,20.772l19.57-13.118l19.316,12.876v20.323c0,0.984-0.405,1.802-1.141,2.3
		l-0.185,0.112C43.857,43.712,43.159,43.712,42.783,43.712z M42.466,42.796c0.057,0.004,0.133,0.009,0.247,0.009h0.07
		c0.409,0,0.846-0.023,1.29-0.309l0.174-0.105c0.475-0.323,0.725-0.843,0.725-1.537V21.016L26.564,8.746L7.9,21.256l0.001,19.786
		c-0.002,0.055-0.034,0.558,0.391,1.017c0.455,0.49,1.238,0.739,2.33,0.739L42.466,42.796z"/>
	<g>
		<path fill="#FFFFFF" d="M44.169,22.278L27.41,31.992l1.057,0.617l15.364,8.954c0.229-0.242,0.338-0.557,0.338-0.966V22.278z"/>
		<polygon fill="#FFFFFF" points="26.508,31.464 31.231,28.728 33.196,27.588 36.392,25.737 43.765,21.464 26.509,9.961 
			9.346,21.464 10.104,21.905 11.32,22.615 		"/>
		<path fill="#FFFFFF" d="M11.135,42.028h31.1c0.024,0.001,0.251,0.019,0.544-0.015l-14.596-8.521L8.944,22.28v18.535
			c-0.001,0.04-0.01,0.361,0.274,0.656C9.568,41.835,10.231,42.028,11.135,42.028z"/>
	</g>
</g>
<path fill="#FFFFFF" d="M8.037,21.751"/>
</svg>
