<?xml version="1.0" encoding="utf-8"?>
<!-- Generator: Adobe Illustrator 16.0.0, SVG Export Plug-In . SVG Version: 6.00 Build 0)  -->
<!DOCTYPE svg PUBLIC "-//W3C//DTD SVG 1.1//EN" "http://www.w3.org/Graphics/SVG/1.1/DTD/svg11.dtd">
<svg version="1.1" id="Layer_1" xmlns="http://www.w3.org/2000/svg" xmlns:xlink="http://www.w3.org/1999/xlink" x="0px" y="0px"
	 width="52.871px" height="52.872px" viewBox="0 0 52.871 52.872" enable-background="new 0 0 52.871 52.872" xml:space="preserve">
<path fill="#FFFFFF" d="M26.436,10.307c-10.437,0-18.928,8.491-18.928,18.927c0,5.257,2.105,10.142,5.926,13.756l0.479,0.452
	l0.49-0.439c3.263-2.937,7.537-4.553,12.033-4.553c4.496,0,8.771,1.616,12.034,4.553l0.49,0.439l0.478-0.452
	c3.822-3.614,5.926-8.499,5.926-13.756C45.363,18.798,36.873,10.307,26.436,10.307z M38.946,42.47
	c-3.263-2.936-7.665-4.734-12.511-4.734c-4.845,0-9.248,1.799-12.512,4.734c-3.511-3.319-5.702-8.021-5.702-13.236
	c0-10.058,8.155-18.212,18.214-18.212c10.06,0,18.214,8.154,18.214,18.212C44.649,34.449,42.458,39.151,38.946,42.47z"/>
<g>
	<path fill="#FFFFFF" d="M26.373,25.621c-1.779,0-3.226,1.447-3.226,3.227c0,1.778,1.447,3.226,3.226,3.226
		c1.779,0,3.226-1.447,3.226-3.226C29.599,27.068,28.152,25.621,26.373,25.621z"/>
	<path fill="#FFFFFF" d="M41.115,29.699v-1.2h2.303c-0.18-4.195-1.886-8-4.577-10.874l-1.624,1.624l-0.85-0.85l1.622-1.622
		c-2.898-2.689-6.731-4.382-10.952-4.53v2.316h-1.202v-2.316c-4.227,0.147-8.066,1.846-10.965,4.542l1.609,1.609l-0.85,0.85
		l-1.61-1.61c-2.684,2.872-4.386,6.671-4.565,10.86h2.304v1.2H9.443c0.111,4.167,1.714,8.085,4.552,11.122
		c3.485-2.777,7.883-4.3,12.44-4.3c4.558,0,8.956,1.522,12.441,4.3c2.838-3.037,4.44-6.955,4.552-11.122H41.115z M30.617,28.847
		c0,2.339-1.904,4.243-4.244,4.243c-0.782,0-1.513-0.212-2.142-0.581c-0.007,0.007-0.017,0.018-0.022,0.022
		c-0.526,0.526-1.022,0.882-1.559,0.345c-0.529-0.528-0.297-1.127,0.213-1.646c-0.463-0.679-0.734-1.5-0.734-2.383
		c0-2.34,1.904-4.244,4.245-4.244c0.998,0,1.918,0.347,2.644,0.927c3.983-3.654,6.104-5.348,6.217-5.235
		c0.115,0.115-1.642,2.228-5.337,6.19C30.353,27.16,30.617,27.972,30.617,28.847z"/>
</g>
</svg>
