<?xml version="1.0" encoding="utf-8"?>
<!-- Generator: Adobe Illustrator 16.0.0, SVG Export Plug-In . SVG Version: 6.00 Build 0)  -->
<!DOCTYPE svg PUBLIC "-//W3C//DTD SVG 1.1//EN" "http://www.w3.org/Graphics/SVG/1.1/DTD/svg11.dtd">
<svg version="1.1" id="Layer_1" xmlns="http://www.w3.org/2000/svg" xmlns:xlink="http://www.w3.org/1999/xlink" x="0px" y="0px"
	 width="52.871px" height="52.872px" viewBox="0 0 52.871 52.872" enable-background="new 0 0 52.871 52.872" xml:space="preserve">
<path fill="#FFFFFF" d="M67.875,60.235"/>
<circle fill="#FFFFFF" cx="18.724" cy="17.537" r="5.745"/>
<circle fill="#FFFFFF" cx="35.039" cy="17.537" r="5.745"/>
<path fill="#FFFFFF" d="M18.371,26.875c7.492,0,13.909,2.595,14.137,3.095c0.226,0.498,0.226,1.281,0.226,1.281v8.256h-14.01H4.715
	V31.25c0,0,0-0.783,0.226-1.281C5.168,29.469,10.879,26.875,18.371,26.875z"/>
<path fill="#FFFFFF" d="M47.929,29.969c-0.225-0.5-6.643-3.095-14.135-3.095c-0.6,0-1.186,0.019-1.76,0.049
	c1.88,0.599,3.055,1.171,3.151,1.38c0.226,0.498,0.226,1.281,0.226,1.281v9.924h12.745V31.25
	C48.156,31.25,48.156,30.467,47.929,29.969z"/>
</svg>
