<?xml version="1.0" encoding="utf-8"?>
<!-- Generator: Adobe Illustrator 16.0.0, SVG Export Plug-In . SVG Version: 6.00 Build 0)  -->
<!DOCTYPE svg PUBLIC "-//W3C//DTD SVG 1.1//EN" "http://www.w3.org/Graphics/SVG/1.1/DTD/svg11.dtd">
<svg version="1.1" id="Layer_1" xmlns="http://www.w3.org/2000/svg" xmlns:xlink="http://www.w3.org/1999/xlink" x="0px" y="0px"
	 width="52.871px" height="52.872px" viewBox="0 0 52.871 52.872" enable-background="new 0 0 52.871 52.872" xml:space="preserve">
<path fill="#FFFFFF" d="M67.875,60.235"/>
<g>
	<path fill="#FFFFFF" d="M28.529,22.13c-0.764-0.928-1.699-1.699-2.597-1.699c-1.062,0-2.322,0.758-3.196,1.33
		c-0.877,0.573-0.967,0.945-2.278,1.231c-1.311,0.286-2.559,0.152-3.122-0.353c-0.561-0.504-0.866-0.905-0.958-1.284
		c-0.115-0.479,0.201-1.725,0.576-2.082c0.306-0.296,2.903-3.192,5.909-5.569c-0.426-0.482-0.768-0.354-0.768-0.354
		s-7.03,4.263-8.13,5.164c-1.101,0.9-0.841,1.68-0.841,1.68s0.007,10.247,0.001,11.008c-0.003,0.43,0.197,1.014,0.197,1.014
		c0.867,0.496,6.372,5.809,8.261,7.701c1.886,1.892,2.831,1.352,2.831,1.352c1.376-0.541,1.468-1.934,1.468-1.934
		s1.384,1.168,2.701,0.83c0.966-0.248,1.136-2.061,1.136-2.061s1.458,1.318,2.66,0.617c0.719-0.418,1.178-2.286,1.178-2.286
		s1.883,0.931,2.775-0.122c0.525-0.624,0.505-1.59,0.355-2.1C36.371,33.149,32.689,27.176,28.529,22.13z"/>
	<path fill="#FFFFFF" d="M11.747,15.756H6.721c-0.297,0-0.538,0.37-0.538,0.827v18.059c0,0.455,0.241,0.825,0.538,0.825h5.026
		c0.296,0,0.538-0.37,0.538-0.825V16.583C12.285,16.126,12.044,15.756,11.747,15.756z M9.246,33.768
		c-0.505,0-0.914-0.409-0.914-0.914s0.409-0.914,0.914-0.914s0.914,0.409,0.914,0.914S9.751,33.768,9.246,33.768z"/>
	<path fill="#FFFFFF" d="M38.518,18.38c-2.363-0.42-3.358-1.873-4.604-2.474c-0.939-0.452-6.307-4.917-8.443-3.281
		c-2.177,1.669-7.519,6.647-7.834,6.949c-0.314,0.301-0.329,0.904-0.23,1.307c0.078,0.319,0.23,0.556,0.703,0.98
		c0.471,0.425,1.773,0.635,2.774,0.22c0.315-0.131,0.757-0.529,1.492-1.009c0.734-0.482,3.074-1.822,3.966-1.79
		c0.596,0.021,1.801,1.11,2.553,1.8c0.842,0.776,6.59,9.268,7.271,10.168c0.682,0.901,1.09,1.942,2.453,1.801
		c1.09-0.108,1.173-0.776,1.173-0.776s-0.01-10.89-0.01-12.332C39.782,18.503,38.518,18.38,38.518,18.38z"/>
	<path fill="#FFFFFF" d="M46.234,15.756h-5.028c-0.296,0-0.537,0.37-0.537,0.827v18.059c0,0.455,0.241,0.825,0.537,0.825h5.028
		c0.295,0,0.537-0.37,0.537-0.825V16.583C46.771,16.126,46.529,15.756,46.234,15.756z M43.752,33.768
		c-0.505,0-0.914-0.409-0.914-0.914s0.409-0.914,0.914-0.914s0.914,0.409,0.914,0.914S44.257,33.768,43.752,33.768z"/>
</g>
</svg>
