<?xml version="1.0" encoding="utf-8"?>
<!-- Generator: Adobe Illustrator 16.0.0, SVG Export Plug-In . SVG Version: 6.00 Build 0)  -->
<!DOCTYPE svg PUBLIC "-//W3C//DTD SVG 1.1//EN" "http://www.w3.org/Graphics/SVG/1.1/DTD/svg11.dtd">
<svg version="1.1" id="Layer_1" xmlns="http://www.w3.org/2000/svg" xmlns:xlink="http://www.w3.org/1999/xlink" x="0px" y="0px"
	 width="36.667px" height="36.667px" viewBox="0 0 36.667 36.667" enable-background="new 0 0 36.667 36.667" xml:space="preserve">
<g>
</g>
<g>
	<path fill="#2B73AE" d="M18.257,4.015C8.227,4.003,0.582,10.823,1.109,19.03c0.516,8.187,8.233,14.814,17.29,14.789
		c9.062-0.057,16.727-6.686,17.17-14.816C36.021,10.862,28.284,4.057,18.257,4.015z"/>
</g>
<g>
	<g>
		<path fill="#147AAD" d="M14.933,25.703c4.752-3.604,9.651-7.197,14.713-10.738"/>
		<path fill="#FFFFFF" d="M15.318,27.391c-0.724-1.779-1.458-3.559-2.205-5.338c4.586-3.794,9.321-7.576,14.222-11.306
			c1.491,1.328,2.968,2.659,4.429,3.986C26.076,18.898,20.604,23.138,15.318,27.391z"/>
	</g>
	<g>
		<path fill="#147AAD" d="M8.342,20.99c2.081,1.524,4.138,3.053,6.166,4.582"/>
		<path fill="#FFFFFF" d="M15.197,27.393c-2.981-2.323-6.023-4.645-9.126-6.957c1.569-1.422,3.155-2.843,4.764-4.261
			c2.015,1.606,4.003,3.218,5.966,4.827C16.255,23.132,15.723,25.261,15.197,27.393z"/>
	</g>
</g>
</svg>
