<?xml version="1.0" encoding="utf-8"?>
<!-- Generator: Adobe Illustrator 16.0.0, SVG Export Plug-In . SVG Version: 6.00 Build 0)  -->
<!DOCTYPE svg PUBLIC "-//W3C//DTD SVG 1.1//EN" "http://www.w3.org/Graphics/SVG/1.1/DTD/svg11.dtd">
<svg version="1.1" id="Layer_1" xmlns="http://www.w3.org/2000/svg" xmlns:xlink="http://www.w3.org/1999/xlink" x="0px" y="0px"
	 width="36.667px" height="36.667px" viewBox="0 0 36.667 36.667" enable-background="new 0 0 36.667 36.667" xml:space="preserve">
<g>
</g>
<g opacity="0.3">
	<path fill="#CC3D29" d="M18.257,4.015C8.227,4.003,0.582,10.823,1.109,19.03c0.516,8.187,8.233,14.814,17.29,14.789
		c9.062-0.057,16.727-6.686,17.17-14.816C36.021,10.862,28.284,4.057,18.257,4.015z M18.388,29.855
		C11.739,29.874,6.075,25.01,5.699,19.001C5.309,12.98,10.922,7.973,18.282,7.983c7.361,0.026,13.035,5.022,12.705,11
		C30.659,24.953,25.036,29.815,18.388,29.855z"/>
	<polygon fill="#CC3D29" points="10.829,31.278 7.397,28.042 25.842,6.928 29.274,10.166 	"/>
</g>
</svg>
