<?xml version="1.0" encoding="utf-8"?>
<!-- Generator: Adobe Illustrator 16.0.0, SVG Export Plug-In . SVG Version: 6.00 Build 0)  -->
<!DOCTYPE svg PUBLIC "-//W3C//DTD SVG 1.1//EN" "http://www.w3.org/Graphics/SVG/1.1/DTD/svg11.dtd">
<svg version="1.1" id="Layer_1" xmlns="http://www.w3.org/2000/svg" xmlns:xlink="http://www.w3.org/1999/xlink" x="0px" y="0px"
	 width="82.333px" height="83.333px" viewBox="0 0 82.333 83.333" enable-background="new 0 0 82.333 83.333" xml:space="preserve">
<g>
	<path fill-rule="evenodd" clip-rule="evenodd" fill="#4292B7" d="M41.342,0.87c8.759,0,17.519-0.084,26.277,0.026
		c7.122,0.091,13.516,6.102,14.306,13.206c0.088,0.786,0.148,1.58,0.148,2.372c0.01,16.81,0.027,33.618-0.004,50.431
		c-0.013,6.643-3.219,11.336-9.083,14.271c-1.958,0.98-4.092,1.305-6.268,1.307c-16.98,0.006-33.961,0.027-50.941-0.008
		C7.176,82.459,0.456,75.75,0.438,67.15c-0.036-16.98-0.03-33.961-0.002-50.94C0.449,8.717,5.646,2.443,12.873,1.119
		c1.052-0.193,2.139-0.263,3.211-0.265c8.418-0.022,16.838-0.013,25.258-0.013C41.342,0.852,41.342,0.861,41.342,0.87z"/>
</g>
<g>
	<g>
		<path fill="#FFFFFF" d="M10.375,31.728c1.729,10.792,3.118,21.573,4.171,32.369c0.233,2.357,1.794,4.347,3.503,4.428
			c10.395,0.456,20.792,0.505,31.203,0.159c2.823,3.329,5.562,6.582,8.244,9.743c0.135-3.353,0.287-6.703,0.459-10.053
			c2.247-0.117,4.498-0.251,6.755-0.419c1.706-0.121,3.262-2.107,3.477-4.424c0.999-10.589,2.322-21.166,3.947-31.746
			c0.362-2.314-0.994-4.28-3.056-4.369c-18.59-0.796-37.156-0.829-55.701-0.132C11.321,27.37,9.988,29.357,10.375,31.728z"/>
		<path fill="#4393B8" d="M18.787,61.568c-0.185-0.422-0.308-0.873-0.347-1.348c-0.734-8.32-1.636-16.638-2.703-24.962
			c5.952,3.641,11.567,7.44,16.92,11.25C27.755,51.63,23.169,56.694,18.787,61.568z"/>
		<path fill="#4393B8" d="M21.41,63.598c-0.611-0.019-1.196-0.288-1.688-0.731c4.507-4.988,9.222-10.193,14.272-15.439
			c2.58,1.868,5.091,3.736,7.553,5.597c2.469-1.89,4.986-3.783,7.569-5.668c5.076,5.165,9.817,10.225,14.357,15.038
			c-0.501,0.448-1.096,0.734-1.716,0.767C48.295,63.815,34.846,63.956,21.41,63.598z"/>
		<path fill="#4393B8" d="M50.439,46.433c5.329-3.831,10.923-7.6,16.847-11.174c-1.015,8.17-1.868,16.348-2.564,24.516
			c-0.043,0.46-0.151,0.896-0.33,1.297C59.986,56.39,55.37,51.468,50.439,46.433z"/>
		<path fill="#FFFFFF" d="M67.119,31.857c-9.299,0.064-18.535,0.303-27.729,0.672c-8.103-0.346-16.248-0.58-24.425-0.697
			c-1.234-1.169-2.492-2.335-3.774-3.491c8.75-7.786,18.496-15.88,29.661-23.436c11.387,7.799,21.311,16.012,30.236,23.771
			C69.743,29.727,68.414,30.783,67.119,31.857z"/>
		<g>
			<g>
				<path fill="#FFFFFF" d="M59.327,35.433c-2.548-0.104-5.097-0.19-7.656-0.274c-1.117,4.048-5.549,8.815-10.64,8.842
					c-5.163,0.016-9.66-4.654-10.761-8.814c-2.323,0.008-4.648,0.013-6.976,0.041c0.124,1.392,0.244,2.785,0.363,4.167
					c6.217,2.942,12.168,5.977,17.905,8.975c5.564-2.892,11.339-5.786,17.354-8.563C59.052,38.348,59.186,36.89,59.327,35.433z"/>
			</g>
			<g>
				<g>
					<path fill="#FFFFFF" d="M61.266,37.117c0.696-7.559,1.495-15.132,2.391-22.713c-15.105-0.834-30.19-0.92-45.26-0.246
						c0.984,7.578,1.853,15.15,2.613,22.707"/>
					<path fill="#626464" d="M61.125,38.789c-1.021,0.46-2.025,0.931-3.029,1.394c0.589-7.727,1.258-15.469,2.019-23.214
						c-12.638-0.515-25.254-0.523-37.85-0.041c0.812,7.622,1.533,15.232,2.154,22.839c-1.086-0.522-2.184-1.049-3.29-1.564
						c-0.786-8-1.696-16.016-2.733-24.044c15.074-0.675,30.154-0.589,45.26,0.246C62.686,22.543,61.848,30.669,61.125,38.789z"/>
				</g>
				<path fill="#2C73AE" d="M52,35.159c0.286-4.94-4.591-9.071-10.912-9.095c-6.324-0.006-11.144,4.13-10.812,9.114
					c0.327,4.964,5.191,8.985,10.901,8.975C46.888,44.114,51.719,40.092,52,35.159z"/>
				<g>
					<g>
						<path fill="#147AAD" d="M39.328,39.216c2.894-2.196,5.875-4.375,8.958-6.529"/>
						<path fill="#FFFFFF" d="M39.57,40.239c-0.447-1.082-0.895-2.161-1.349-3.242c2.793-2.313,5.677-4.613,8.662-6.887
							c0.906,0.812,1.803,1.623,2.686,2.426C46.116,35.081,42.785,37.661,39.57,40.239z"/>
					</g>
					<g>
						<path fill="#147AAD" d="M35.319,36.349c1.269,0.923,2.519,1.861,3.753,2.787"/>
						<path fill="#FFFFFF" d="M39.495,40.247c-1.816-1.414-3.669-2.825-5.557-4.234c0.956-0.87,1.923-1.728,2.904-2.589
							c1.221,0.974,2.431,1.949,3.626,2.932C40.138,37.651,39.814,38.946,39.495,40.247z"/>
					</g>
				</g>
				<path fill="#A3A0A8" d="M55.51,24.541c-0.021,0.146-0.675,0.254-1.48,0.227c-8.737-0.194-17.47-0.21-26.2-0.048
					c-0.809,0.011-1.466-0.098-1.48-0.246c-0.13-1.606-0.262-3.21-0.397-4.816c-0.017-0.16,0.644-0.29,1.468-0.313
					c8.975-0.197,17.958-0.165,26.939,0.1c0.836,0.024,1.496,0.173,1.484,0.318C55.732,21.355,55.618,22.949,55.51,24.541z"/>
			</g>
		</g>
	</g>
</g>
</svg>
