<?xml version="1.0" encoding="utf-8"?>
<!-- Generator: Adobe Illustrator 16.0.0, SVG Export Plug-In . SVG Version: 6.00 Build 0)  -->
<!DOCTYPE svg PUBLIC "-//W3C//DTD SVG 1.1//EN" "http://www.w3.org/Graphics/SVG/1.1/DTD/svg11.dtd">
<svg version="1.1" id="Layer_1" xmlns="http://www.w3.org/2000/svg" xmlns:xlink="http://www.w3.org/1999/xlink" x="0px" y="0px"
	 width="299.743px" height="176.729px" viewBox="0 0 299.743 176.729" enable-background="new 0 0 299.743 176.729"
	 xml:space="preserve">
<g>
	<g id="cBxW1J_1_">
		<g opacity="0.75">
			<path fill="#383234" d="M102.063,18.699c-0.755-1.034-1.594-0.326-2.287,0c-7.736,3.646-14.641,8.443-20.879,13.876
				c-9.38,8.167-17.085,17.534-22.469,28.442c-5.982,12.12-9.26,24.723-9.376,38.024c-0.015,1.691,0.353,2.432,2.406,2.294
				c6.219-0.416,12.458-0.201,18.685-0.361c1.875-0.048,3.814,0.215,5.66-0.367c15.982-0.092,31.962,0.052,47.95-0.201
				c18.469-0.29,36.953-0.339,55.438,0.175c14.958,0.416,29.942,0.056,44.916,0.041c0.485,0.118,0.972,0.331,1.461,0.347
				c7.683,0.24,15.38-0.15,23.052,0.446c1.937,0.15,2.301-0.644,2.311-2.224c0.064-11.151-2.283-21.893-6.594-32.28
				c-6.032-14.537-15.625-26.812-28.51-36.966c-5.384-4.243-11.07-8.095-17.367-11.144c-0.74-0.359-1.685-1.398-2.606-0.11
				c-0.992-0.551-1.96-1.149-2.985-1.646c-4.633-2.245-9.547-3.818-14.562-5.196c-4.3-1.182-8.669-2.048-13.065-2.816
				c-7.316-1.278-14.726-0.689-22.099-0.839c-3.319-0.065-6.496,0.723-9.731,1.143c-4.297,0.558-8.451,1.679-12.614,2.805
				C112.915,13.723,107.248,15.675,102.063,18.699z"/>
			<path fill="#383234" d="M209.891,100.644c-12.506,0.016-25.021,0.314-37.516-0.032c-15.439-0.429-30.88-0.388-46.307-0.146
				c-13.354,0.212-26.701,0.092-40.051,0.169c0.21-1.888,0.199-3.784,0.395-5.678c0.821-7.953,3.279-15.413,7.558-22.387
				c5.731-9.337,13.677-16.669,23.877-21.931c1.513-0.779,1.641-1.512,0.866-2.796c-1.507-2.49-2.897-5.038-4.335-7.562
				c0.559-0.018,1.031-0.207,1.542-0.435c3.196-1.422,6.406-2.802,9.856-3.696c3.115-0.808,6.201-1.622,9.423-2.104
				c3.541-0.532,7.08-1.04,10.648-1.159c6.395-0.214,12.686,0.536,18.912,1.927c3.751,0.838,7.406,1.823,10.98,3.198
				c1.932,0.744,3.651,1.979,5.797,2.257c-1.467,2.57-2.953,5.133-4.391,7.716c-0.482,0.867-0.923,1.781,0.456,2.41
				c4.03,1.836,7.521,4.366,10.896,7.058c7.221,5.752,12.762,12.609,16.455,20.687C208.245,85.333,209.734,92.869,209.891,100.644z"
				/>
			<path fill="#383234" d="M222.107,100.619c-0.188-9.311-1.974-18.331-5.913-26.947c-4.421-9.666-11.059-17.878-19.699-24.765
				c-4.041-3.221-8.777-5.534-13.603-7.734c-1.651-0.752-1.123-1.847-0.546-2.884c1.722-3.094,3.499-6.161,5.255-9.238
				c2.146-3.094,4.427-7.11,6.253-10.362c0.922-1.288,1.863-0.249,2.605,0.109c6.295,3.05,11.981,6.901,17.367,11.145
				c12.883,10.153,22.477,22.429,28.508,36.965c4.312,10.391,6.66,21.129,6.595,32.282c-0.011,1.58-0.374,2.373-2.312,2.223
				c-7.671-0.597-15.369-0.205-23.051-0.445C223.079,100.951,222.594,100.738,222.107,100.619z"/>
			<path fill="#383234" d="M108.333,29.005c1.723,3.021,3.387,6.072,5.19,9.053c0.929,1.536,0.775,2.412-1.036,3.347
				c-12.21,6.3-22.302,14.425-29.164,25.604c-5.123,8.347-8.065,17.279-9.047,26.798c-0.235,2.271-0.222,4.54-0.474,6.8
				c-1.847,0.582-3.785,0.319-5.661,0.368c-6.227,0.16-12.466-0.055-18.685,0.36c-2.053,0.139-2.421-0.602-2.406-2.294
				c0.117-13.301,3.395-25.904,9.376-38.024c5.384-10.908,13.089-20.274,22.469-28.442c6.239-5.434,13.144-10.229,20.879-13.876
				c0.692-0.325,1.531-1.033,2.287,0C103.941,21.927,106.151,25.927,108.333,29.005z"/>
		</g>
		<g>
			<g>
				<g>
					<path fill="#FEFEFE" d="M103.235,17.41c-0.755-1.033-1.594-0.326-2.286,0c-7.736,3.646-14.641,8.443-20.879,13.876
						c-9.382,8.168-17.086,17.534-22.47,28.442c-5.982,12.12-9.261,24.724-9.377,38.024c-0.015,1.691,0.353,2.432,2.406,2.295
						c6.219-0.417,12.458-0.201,18.685-0.361c1.875-0.049,3.814,0.214,5.66-0.368c15.983-0.092,31.962,0.052,47.95-0.201
						c18.468-0.29,36.954-0.339,55.438,0.175c14.959,0.416,29.943,0.056,44.916,0.041c0.486,0.119,0.971,0.331,1.461,0.348
						c7.682,0.24,15.379-0.151,23.051,0.445c1.938,0.15,2.301-0.644,2.312-2.223c0.063-11.152-2.283-21.894-6.595-32.281
						c-6.032-14.537-15.625-26.812-28.508-36.964c-5.385-4.244-11.072-8.096-17.369-11.146c-0.739-0.359-1.684-1.396-2.604-0.11
						c-0.993-0.551-1.961-1.148-2.985-1.646c-4.633-2.245-9.547-3.818-14.562-5.196c-4.302-1.182-8.67-2.049-13.067-2.816
						c-7.316-1.278-14.726-0.689-22.098-0.838c-3.318-0.067-6.496,0.722-9.731,1.142c-4.297,0.559-8.451,1.68-12.614,2.805
						C114.087,12.434,108.419,14.386,103.235,17.41z"/>
					<path fill="#EDEDED" d="M178.774,49.109c4.031,1.836,7.521,4.366,10.896,7.057c7.219,5.752,12.762,12.609,16.455,20.687
						c3.289,7.192,4.781,14.729,4.938,22.504c-12.506,0.017-25.021,0.315-37.516-0.031c-15.441-0.43-30.88-0.389-46.306-0.146
						c-13.355,0.212-26.702,0.093-40.051,0.17c0.21-1.888,0.199-3.785,0.395-5.678c0.821-7.954,3.279-15.414,7.558-22.387
						c5.731-9.338,13.677-16.668,23.877-21.931c0,0,5.932-2.365,7.959-3.008c3.068-0.975,6.201-1.622,9.423-2.104
						c3.541-0.532,7.08-1.04,10.649-1.159c6.393-0.214,12.692,0.501,18.911,1.927C170.163,45.97,178.774,49.109,178.774,49.109z"/>
					<path fill="#6F90AB" d="M108.925,42.01c-2.181-3.078-4.616-21.913-6.494-25.141c5.185-3.024,11.653-5.072,17.533-6.659
						c4.164-1.125,8.317-2.247,12.614-2.806c3.235-0.42,9.537-1.214,12.857-1.146c6.849-0.01,6.728-0.281,17.392,0.635
						c4.398,0.77,9.455,1.431,15.965,2.94c5.017,1.378,8.611,3.038,13.244,5.282c1.025,0.496,3.603,2.095,4.594,2.646
						c-1.825,3.252-4.85,20.357-7.303,24.232c-2.293-0.833-4.627-1.812-6.94-2.701c-4.277-1.646-8.654-2.826-13.146-3.83
						c-7.453-1.665-14.928-2.866-22.58-2.609c-4.274,0.145-8.51,0.479-12.75,1.114c-3.858,0.579-7.551,1.827-11.282,2.794
						c-5.176,1.768-8.032,3.025-11.859,4.728C110.159,41.761,109.593,41.99,108.925,42.01z"/>
					<path fill="#7DBFD4" d="M241.786,61.295c4.311,10.391,8.018,25.333,7.95,36.484c-0.01,1.58-0.009,2.493-1.946,2.344
						c-7.67-0.597-15.369-0.206-23.051-0.446c-0.488-0.014-0.973-0.227-1.461-0.346c-0.188-9.311-2.643-20.198-6.584-28.813
						L241.786,61.295z"/>
					<path fill="#6F90AB" d="M109.505,27.716c1.723,3.021,3.387,6.072,5.19,9.054c0.929,1.536,0.776,2.412-1.036,3.347
						c-12.21,6.299-22.302,14.424-29.164,25.604c-5.123,8.347-8.065,17.279-9.047,26.799c-0.234,2.27-0.222,4.54-0.473,6.8
						c-1.847,0.581-3.786,0.318-5.661,0.367c-6.228,0.16-12.466-0.055-18.685,0.361c-2.054,0.138-2.421-0.603-2.406-2.295
						c0.117-13.301,3.395-25.904,9.377-38.023c5.384-10.908,13.088-20.274,22.469-28.442c6.238-5.434,15.986-11.546,23.722-15.193
						c0.691-0.325,1.531-1.033,2.286,0C107.955,19.321,107.323,24.638,109.505,27.716z"/>
					<path fill="#6F90AB" d="M216.694,70.518c-4.099-7.375-5.992-10.176-10.371-15.153c-7.621-7.521-14.621-11.958-23.423-15.854
						c-2.124-0.83-4.317-1.424-6.428-2.266c-0.069-1.937,0.704-2.56,1.155-4.379c1.504-6.046,3.371-12.001,4.627-18.106
						c0.414-2.017-0.736-4.07,0.892-3.604c12.789,3.654,24.118,10.439,35.806,19.814c10.938,9.688,16.03,16.012,21.406,27.229
						c0.491,1.023,0.969,2.056,1.428,3.098"/>
				</g>
			</g>
		</g>
	</g>
	<path fill="#626464" d="M169.006,85.435c15.815-13.323,28.185-24.83,27.625-25.693c-0.562-0.868-13.838,9.232-29.654,22.559
		c-5.41,4.557-11.576,10.913-16.918,14.199c-1.042,0.642-1.924,2.062-2.713,3.66h5.887
		C157.278,94.709,164.114,89.557,169.006,85.435z"/>
	<rect x="46.919" y="100.238" fill="#A3A0A8" width="202.817" height="3.3"/>
</g>
<g>
	<path fill="#FFFFFF" d="M227.764,145.708c0,8.309-7.885,15.047-17.604,15.047H99.657c-9.722,0-17.605-6.738-17.605-15.047l0,0
		c0-8.312,7.884-15.052,17.605-15.052h110.503C219.879,130.656,227.764,137.394,227.764,145.708L227.764,145.708z"/>
	<path fill="#4292B7" d="M210.161,162.05H99.657c-10.421,0-18.901-7.33-18.901-16.343c0-9.014,8.48-16.348,18.901-16.348h110.503
		c10.424,0,18.9,7.332,18.9,16.348C229.061,154.718,220.584,162.05,210.161,162.05z M99.657,131.951
		c-8.991,0-16.31,6.17-16.31,13.757c0,7.585,7.317,13.751,16.31,13.751h110.503c8.992,0,16.311-6.166,16.311-13.751
		c0-7.587-7.317-13.757-16.311-13.757H99.657z"/>
</g>
<g>
	<path fill="#2C74AE" d="M128.533,141.435h2.184v9.783h-2.184V141.435z"/>
	<path fill="#2C74AE" d="M134.944,147.02v4.199h-2.101v-7.527h2.101v0.837c0.635-0.645,1.348-0.963,2.142-0.963
		c0.791,0,1.455,0.277,1.992,0.838c0.538,0.56,0.805,1.312,0.805,2.239v4.575h-2.098v-4.256c0-1.155-0.426-1.733-1.275-1.733
		c-0.42,0-0.787,0.149-1.097,0.451C135.097,145.987,134.944,146.434,134.944,147.02z"/>
	<path fill="#2C74AE" d="M146.126,143.566c0.914,0,1.71,0.356,2.394,1.069c0.681,0.713,1.019,1.632,1.019,2.75
		s-0.348,2.059-1.048,2.812c-0.701,0.757-1.496,1.135-2.385,1.135c-0.895,0-1.631-0.369-2.221-1.108v0.996h-2.1v-10.386h2.1v3.694
		C144.465,143.885,145.211,143.566,146.126,143.566z M143.858,147.462c0,0.608,0.171,1.11,0.513,1.5
		c0.342,0.388,0.752,0.58,1.237,0.58c0.484,0,0.909-0.192,1.273-0.58c0.365-0.39,0.546-0.888,0.546-1.491
		c0-0.608-0.18-1.117-0.529-1.528c-0.354-0.409-0.781-0.614-1.274-0.614c-0.496,0-0.913,0.205-1.255,0.608
		C144.029,146.342,143.858,146.85,143.858,147.462z"/>
	<path fill="#2C74AE" d="M158.638,147.455c0,1.093-0.38,2.013-1.136,2.757c-0.756,0.746-1.703,1.12-2.85,1.12
		c-1.142,0-2.092-0.374-2.85-1.12c-0.756-0.744-1.133-1.664-1.133-2.757c0-1.094,0.377-2.013,1.133-2.766
		c0.758-0.752,1.707-1.126,2.85-1.126c1.146,0,2.094,0.374,2.85,1.126C158.26,145.443,158.638,146.362,158.638,147.455z
		 M152.792,147.455c0,0.614,0.17,1.117,0.521,1.505c0.351,0.389,0.797,0.581,1.342,0.581c0.546,0,0.994-0.192,1.345-0.581
		c0.352-0.391,0.522-0.891,0.522-1.505c0-0.618-0.172-1.12-0.522-1.514c-0.351-0.393-0.799-0.585-1.345-0.585
		c-0.545,0-0.991,0.194-1.342,0.585C152.961,146.336,152.792,146.837,152.792,147.455z"/>
	<path fill="#2C74AE" d="M161.717,143.692l1.289,2.017l1.332-2.017h2.459l-2.588,3.68l2.688,3.849h-2.507l-1.466-2.071l-1.432,2.071
		h-2.421l2.632-3.834l-2.494-3.693L161.717,143.692L161.717,143.692z"/>
	<path fill="#2C74AE" d="M171.334,147.062l1.735-5.626h2.277l1.728,5.626l1.941-5.626h2.365l-3.412,9.783h-1.624l-2.144-6.801
		l-2.127,6.801h-1.627l-3.41-9.783h2.363L171.334,147.062z"/>
	<path fill="#2C74AE" d="M189.275,147.455c0,1.093-0.378,2.013-1.134,2.757c-0.758,0.746-1.707,1.12-2.852,1.12
		c-1.144,0-2.09-0.374-2.846-1.12c-0.758-0.744-1.134-1.664-1.134-2.757c0-1.094,0.376-2.013,1.134-2.766
		c0.756-0.752,1.702-1.126,2.846-1.126c1.145,0,2.094,0.374,2.852,1.126C188.899,145.443,189.275,146.362,189.275,147.455z
		 M183.426,147.455c0,0.614,0.175,1.117,0.525,1.505c0.346,0.389,0.797,0.581,1.34,0.581c0.545,0,0.994-0.192,1.344-0.581
		c0.352-0.391,0.525-0.891,0.525-1.505c0-0.618-0.175-1.12-0.525-1.514c-0.35-0.391-0.799-0.585-1.344-0.585
		c-0.543,0-0.994,0.194-1.34,0.585C183.601,146.336,183.426,146.837,183.426,147.455z"/>
	<path fill="#2C74AE" d="M194.79,145.537c-0.625,0-1.094,0.222-1.4,0.666c-0.307,0.441-0.458,1.026-0.458,1.756v3.26h-2.101v-7.527
		h2.101v0.99c0.269-0.307,0.604-0.565,1.012-0.782c0.405-0.214,0.821-0.325,1.239-0.336l0.016,1.973L194.79,145.537L194.79,145.537z
		"/>
	<path fill="#2C74AE" d="M199.084,145.199v3.374c0,0.293,0.074,0.52,0.226,0.679c0.149,0.164,0.326,0.247,0.53,0.247
		c0.394,0,0.723-0.179,0.996-0.53l0.783,1.471c-0.654,0.593-1.344,0.894-2.067,0.894c-0.722,0-1.331-0.24-1.833-0.713
		c-0.497-0.477-0.747-1.126-0.747-1.945V145.2h-0.884v-1.507h0.884v-2.255h2.112v2.255h1.818v1.507L199.084,145.199L199.084,145.199
		z"/>
	<path fill="#2C74AE" d="M204.84,147.16v4.06h-2.098v-10.386h2.098v3.694c0.636-0.645,1.347-0.963,2.134-0.963
		c0.789,0,1.452,0.277,1.993,0.838c0.541,0.56,0.814,1.312,0.814,2.239v4.575h-2.103v-4.117c0-1.152-0.425-1.731-1.271-1.731
		c-0.423,0-0.787,0.152-1.102,0.454C204.997,146.126,204.84,146.573,204.84,147.16z"/>
	<path fill="#2C74AE" d="M212.984,154.185c-0.735,0-1.431-0.299-2.085-0.894l0.95-1.557c0.354,0.348,0.719,0.52,1.09,0.52
		c0.2,0,0.364-0.095,0.508-0.286c0.14-0.19,0.208-0.396,0.208-0.61s-0.97-2.77-2.91-7.666h2.237l1.835,4.687l1.834-4.687h2.238
		l-3.497,8.869c-0.204,0.514-0.524,0.913-0.956,1.199C213.999,154.048,213.518,154.185,212.984,154.185z"/>
</g>
<g>
	<g>
		<path fill="#4393B8" d="M74.865,132.536c1.393,8.698,2.512,17.39,3.358,26.082c0.188,1.902,1.448,3.508,2.825,3.576
			c8.373,0.362,16.754,0.401,25.142,0.121c2.276,2.682,4.482,5.307,6.645,7.852c0.106-2.697,0.231-5.396,0.368-8.097
			c1.813-0.098,3.626-0.211,5.442-0.336c1.381-0.1,2.632-1.7,2.812-3.569c0.799-8.528,1.859-17.054,3.171-25.578
			c0.296-1.868-0.798-3.449-2.46-3.524c-14.98-0.64-29.942-0.667-44.884-0.101C75.628,129.025,74.553,130.631,74.865,132.536z"/>
		<path fill="#FFFFFF" d="M81.645,156.583c-0.15-0.338-0.249-0.706-0.284-1.087c-0.592-6.698-1.315-13.402-2.176-20.114
			c4.794,2.937,9.323,5.996,13.633,9.071C88.868,148.575,85.175,152.659,81.645,156.583z"/>
		<path fill="#FFFFFF" d="M83.756,158.219c-0.493-0.012-0.965-0.229-1.36-0.584c3.63-4.023,7.432-8.216,11.5-12.444
			c2.079,1.508,4.106,3.015,6.09,4.513c1.984-1.525,4.014-3.052,6.096-4.57c4.09,4.16,7.915,8.243,11.567,12.115
			c-0.398,0.368-0.875,0.598-1.38,0.624C105.421,158.393,94.585,158.511,83.756,158.219z"/>
		<path fill="#FFFFFF" d="M107.154,144.392c4.289-3.09,8.797-6.132,13.574-9.013c-0.818,6.592-1.508,13.178-2.07,19.764
			c-0.032,0.366-0.124,0.719-0.266,1.044C114.841,152.415,111.121,148.444,107.154,144.392z"/>
		<path fill="#4393B8" d="M120.59,132.646c-7.491,0.051-14.938,0.24-22.344,0.537c-6.531-0.274-13.093-0.468-19.685-0.562
			c-0.995-0.946-2.008-1.882-3.042-2.812c7.053-6.273,14.904-12.794,23.901-18.884c9.174,6.287,17.174,12.9,24.369,19.152
			C122.705,130.923,121.639,131.781,120.59,132.646z"/>
		<g>
			<g>
				<path fill="#FFFFFF" d="M114.313,135.525c-2.054-0.082-4.111-0.154-6.169-0.222c-0.906,3.267-4.472,7.109-8.577,7.129
					c-4.158,0.015-7.784-3.75-8.668-7.104c-1.876,0.004-3.75,0.015-5.624,0.029c0.101,1.121,0.197,2.243,0.292,3.364
					c5.009,2.369,9.808,4.814,14.43,7.229c4.485-2.332,9.136-4.662,13.982-6.901C114.089,137.876,114.198,136.699,114.313,135.525z"
					/>
			</g>
			<g>
				<g>
					<path fill="#FFFFFF" d="M115.876,136.884c0.558-6.098,1.199-12.197,1.919-18.306c-12.167-0.679-24.321-0.739-36.466-0.198
						c0.791,6.105,1.494,12.205,2.106,18.298"/>
					<path fill="#626464" d="M115.754,138.229c-0.817,0.372-1.627,0.749-2.433,1.127c0.469-6.229,1.011-12.468,1.625-18.713
						c-10.183-0.411-20.35-0.418-30.5-0.034c0.656,6.146,1.233,12.28,1.74,18.408c-0.878-0.423-1.763-0.843-2.654-1.259
						c-0.634-6.45-1.369-12.908-2.201-19.375c12.145-0.54,24.301-0.479,36.466,0.198
						C117.022,125.136,116.34,131.685,115.754,138.229z"/>
				</g>
				<path fill="#2C73AE" d="M108.408,135.302c0.23-3.979-3.698-7.31-8.792-7.325c-5.098-0.012-8.983,3.326-8.712,7.335
					c0.263,4.008,4.182,7.247,8.784,7.232C104.291,142.523,108.184,139.28,108.408,135.302z"/>
				<g>
					<g>
						<path fill="#147AAD" d="M98.199,138.573c2.332-1.769,4.733-3.526,7.214-5.266"/>
						<path fill="#FFFFFF" d="M98.388,139.401c-0.355-0.873-0.714-1.746-1.081-2.617c2.25-1.86,4.57-3.715,6.974-5.544
							c0.732,0.649,1.455,1.304,2.171,1.954C103.664,135.236,100.98,137.315,98.388,139.401z"/>
					</g>
					<g>
						<path fill="#147AAD" d="M94.967,136.263c1.022,0.748,2.03,1.497,3.023,2.247"/>
						<path fill="#FFFFFF" d="M98.329,139.402c-1.463-1.139-2.954-2.277-4.477-3.41c0.768-0.697,1.547-1.395,2.336-2.09
							c0.988,0.786,1.962,1.575,2.924,2.366C98.848,137.313,98.586,138.357,98.329,139.402z"/>
					</g>
				</g>
				<path fill="#A3A0A8" d="M111.232,126.75c-0.009,0.117-0.542,0.202-1.189,0.186c-7.042-0.163-14.079-0.178-21.114-0.047
					c-0.648,0.012-1.182-0.073-1.191-0.192c-0.105-1.295-0.211-2.594-0.322-3.889c-0.012-0.119,0.521-0.229,1.185-0.246
					c7.234-0.158,14.472-0.134,21.714,0.081c0.667,0.021,1.201,0.135,1.192,0.251C111.412,124.178,111.32,125.465,111.232,126.75z"
					/>
			</g>
		</g>
	</g>
</g>
</svg>
