<?xml version="1.0" encoding="utf-8"?>
<!-- Generator: Adobe Illustrator 16.0.0, SVG Export Plug-In . SVG Version: 6.00 Build 0)  -->
<!DOCTYPE svg PUBLIC "-//W3C//DTD SVG 1.1//EN" "http://www.w3.org/Graphics/SVG/1.1/DTD/svg11.dtd">
<svg version="1.1" id="Layer_1" xmlns="http://www.w3.org/2000/svg" xmlns:xlink="http://www.w3.org/1999/xlink" x="0px" y="0px"
	 width="200px" height="200px" viewBox="0 0 200 200" enable-background="new 0 0 200 200" xml:space="preserve">
<path fill="#FFFFFF" d="M100.047,9.573C50.438,9.608,9.854,50.421,9.897,100.23c0.045,49.489,40.932,90.258,90.453,90.196
	c49.72-0.064,90.398-40.795,90.371-90.498C190.693,50.12,149.967,9.538,100.047,9.573z M130.332,47.709
	c6.439-0.074,11.863,7.899,11.841,17.407c-0.022,9.456-5.31,17.264-11.741,17.338c-6.453,0.073-11.85-7.864-11.832-17.408
	C118.613,55.561,123.877,47.784,130.332,47.709z M70.479,47.709c6.438-0.073,11.86,7.902,11.839,17.411
	c-0.022,9.455-5.307,17.26-11.74,17.334c-6.452,0.076-11.851-7.866-11.833-17.409C58.761,55.562,64.022,47.785,70.479,47.709z
	 M146.596,144.775c-4.064,0.149-7.502-1.873-10.391-5.396c-18.35-22.4-53.424-22.406-71.779-0.012
	c-0.422,0.514-0.823,1.064-1.298,1.537c-2.735,2.73-5.854,4.125-9.756,3.725c-3.865-0.369-6.075-2.986-6.239-7.643
	c-0.103-3.098,1.291-6.086,3.447-8.729c12.695-15.596,31.209-23.41,49.745-23.408c10.874,0,21.745,2.69,31.431,8.074
	c7.154,3.969,13.738,9.365,19.038,16.354C156.255,136.641,152.895,144.907,146.596,144.775z"/>
</svg>
