<?xml version="1.0" encoding="utf-8"?>
<!-- Generator: Adobe Illustrator 16.0.0, SVG Export Plug-In . SVG Version: 6.00 Build 0)  -->
<!DOCTYPE svg PUBLIC "-//W3C//DTD SVG 1.1//EN" "http://www.w3.org/Graphics/SVG/1.1/DTD/svg11.dtd">
<svg version="1.1" id="Layer_1" xmlns="http://www.w3.org/2000/svg" xmlns:xlink="http://www.w3.org/1999/xlink" x="0px" y="0px"
	 width="200px" height="200px" viewBox="0 0 200 200" enable-background="new 0 0 200 200" xml:space="preserve">
<g>
	<path fill="#BB524E" stroke="#FFFFFF" stroke-width="8" stroke-miterlimit="10" d="M100.348,187.482
		c-47.733,0.06-87.143-39.237-87.186-86.938c-0.041-48.011,39.077-87.349,86.895-87.383c48.117-0.034,87.373,39.083,87.399,87.092
		C187.482,148.161,148.273,187.42,100.348,187.482z"/>
</g>
<g opacity="0.75">
	<path fill="#323232" d="M100.326,104.85c-18.533-0.002-37.044,7.812-49.736,23.404c-2.156,2.643-3.549,5.628-3.447,8.727
		c0.164,4.656,2.373,7.272,6.238,7.64c3.901,0.403,7.021-0.993,9.754-3.722c0.475-0.474,0.876-1.024,1.298-1.537
		c18.352-22.389,53.42-22.385,71.767,0.013c2.889,3.524,6.325,5.545,10.389,5.396c6.298,0.131,9.656-8.133,4.198-15.496
		c-5.299-6.987-11.883-12.381-19.035-16.349C122.066,107.54,111.198,104.85,100.326,104.85z"/>
</g>
<path opacity="0.75" fill="#323232" enable-background="new    " d="M58.745,65.045c-0.018,9.543,5.381,17.485,11.833,17.409
	c6.433-0.074,11.718-7.879,11.74-17.334c0.021-9.509-5.401-17.484-11.839-17.411C64.022,47.785,58.761,55.562,58.745,65.045z"/>
<path opacity="0.75" fill="#323232" enable-background="new    " d="M118.6,65.046c-0.018,9.544,5.379,17.481,11.832,17.408
	c6.432-0.074,11.719-7.882,11.741-17.338c0.022-9.508-5.401-17.481-11.841-17.407C123.877,47.784,118.613,55.561,118.6,65.046z"/>
<path fill="#4192B6" d="M31.981,168.771C13.6,150.42,3.467,126.201,3.444,100.564C3.422,74.749,13.49,50.397,31.791,31.995
	C50.092,13.586,74.339,3.44,100.128,3.421c53.509,0,97.063,43.437,97.093,96.827c0.028,53.406-43.412,96.904-96.843,96.975h-0.121
	C74.606,197.223,50.362,187.121,31.981,168.771z M40.396,40.252c-16.095,16.186-24.949,37.6-24.929,60.294
	c0.021,22.519,8.933,43.804,25.095,59.938c16.162,16.136,37.476,25.021,60.008,25.021h0.104
	c46.974-0.062,85.168-38.305,85.142-85.253c-0.021-46.936-38.319-85.122-85.432-85.122C77.793,15.149,56.487,24.069,40.396,40.252z"
	/>
</svg>
