<?xml version="1.0" encoding="utf-8"?>
<!-- Generator: Adobe Illustrator 16.0.0, SVG Export Plug-In . SVG Version: 6.00 Build 0)  -->
<!DOCTYPE svg PUBLIC "-//W3C//DTD SVG 1.1//EN" "http://www.w3.org/Graphics/SVG/1.1/DTD/svg11.dtd">
<svg version="1.1" id="Layer_1" xmlns="http://www.w3.org/2000/svg" xmlns:xlink="http://www.w3.org/1999/xlink" x="0px" y="0px"
	 width="207.555px" height="336.009px" viewBox="0 0 207.555 336.009" enable-background="new 0 0 207.555 336.009"
	 xml:space="preserve">
<g>
	<path fill-rule="evenodd" clip-rule="evenodd" fill="#838383" d="M204.873,104.192c-0.2,19.005-4.46,34.204-11.596,48.761
		c-28.501,58.145-56.894,116.342-85.333,174.518c-0.444,0.909-0.809,1.912-1.455,2.661c-1.773,2.054-3.725,2.062-5.421-0.073
		c-0.774-0.972-1.223-2.211-1.779-3.348c-28.132-57.48-56.166-115.009-84.444-172.417c-9.063-18.399-13.862-37.48-11.612-58.04
		C6.763,64,21.964,38.465,49.222,21.127c32.69-20.792,67.254-22.281,101.56-4.388c29.426,15.35,46.911,40.3,52.576,73.173
		C204.323,95.512,204.57,101.234,204.873,104.192z M35.731,105.878c0.074,37.48,30.917,68.276,68.226,68.122
		c37.479-0.156,68.163-30.966,68.043-68.323c-0.119-37.305-30.585-67.705-68.084-67.937C66.716,37.51,35.657,68.547,35.731,105.878z
		"/>
</g>
</svg>
