<?xml version="1.0" encoding="utf-8"?>
<!-- Generator: Adobe Illustrator 16.0.0, SVG Export Plug-In . SVG Version: 6.00 Build 0)  -->
<!DOCTYPE svg PUBLIC "-//W3C//DTD SVG 1.1//EN" "http://www.w3.org/Graphics/SVG/1.1/DTD/svg11.dtd">
<svg version="1.1" id="Layer_1" xmlns="http://www.w3.org/2000/svg" xmlns:xlink="http://www.w3.org/1999/xlink" x="0px" y="0px"
	 width="200px" height="200px" viewBox="0 0 200 200" enable-background="new 0 0 200 200" xml:space="preserve">
<path fill="#FFFFFF" d="M100.168,9.574c-49.589,0.05-90.147,40.892-90.089,90.724c0.058,49.456,40.984,90.204,90.519,90.129
	c49.702-0.077,90.344-40.833,90.311-90.559C190.875,50.079,150.121,9.526,100.168,9.574z M130.367,48.357
	c6.439-0.074,11.863,7.899,11.841,17.407c-0.022,9.456-5.31,17.264-11.741,17.338c-6.453,0.073-11.85-7.864-11.832-17.408
	C118.648,56.209,123.912,48.432,130.367,48.357z M70.514,48.357c6.438-0.073,11.861,7.902,11.84,17.411
	c-0.023,9.455-5.308,17.26-11.741,17.334c-6.452,0.076-11.851-7.866-11.833-17.409C58.796,56.21,64.057,48.433,70.514,48.357z
	 M151.663,132.469c-1.39,3.852-4.649,6.027-9.11,6.027c-28.039,0.008-56.08,0.003-84.121,0c-0.647,0-1.302,0.023-1.938-0.074
	c-3.684-0.587-6.189-2.808-7.326-6.636c-1.136-3.831-0.011-7.044,2.676-9.675c1.806-1.766,3.982-2.301,6.375-2.295
	c14.09,0.031,28.182,0.015,42.277,0.015c8.268-0.002,16.533-0.002,24.803-0.001c6.113,0.002,12.227-0.091,18.334,0.031
	C149.739,119.98,153.814,126.497,151.663,132.469z"/>
</svg>
