<?xml version="1.0" encoding="utf-8"?>
<!-- Generator: Adobe Illustrator 16.0.0, SVG Export Plug-In . SVG Version: 6.00 Build 0)  -->
<!DOCTYPE svg PUBLIC "-//W3C//DTD SVG 1.1//EN" "http://www.w3.org/Graphics/SVG/1.1/DTD/svg11.dtd">
<svg version="1.1" id="Layer_1" xmlns="http://www.w3.org/2000/svg" xmlns:xlink="http://www.w3.org/1999/xlink" x="0px" y="0px"
	 width="200px" height="200px" viewBox="0 0 200 200" enable-background="new 0 0 200 200" xml:space="preserve">
<g>
	<g>
		<g>
			<g>
				<path fill="none" d="M100.598,190.427c-49.535,0.075-90.46-40.673-90.519-90.129c-0.058-49.832,40.5-90.674,90.089-90.724
					c49.953-0.048,90.707,40.505,90.74,90.294C190.941,149.594,150.3,190.35,100.598,190.427z"/>
			</g>
			<path fill="#FFFFFF" d="M100.496,119.831c-14.095,0-28.187,0.017-42.277-0.015c-2.393-0.006-4.569,0.529-6.375,2.295
				c-2.687,2.631-3.812,5.844-2.676,9.675c1.137,3.828,3.642,6.049,7.326,6.636c0.636,0.098,1.291,0.074,1.938,0.074
				c28.041,0.003,56.082,0.008,84.121,0c4.461,0,7.721-2.176,9.11-6.027c2.151-5.972-1.924-12.488-8.03-12.607
				c-6.107-0.122-12.221-0.029-18.334-0.031C117.029,119.829,108.764,119.829,100.496,119.831z"/>
		</g>
	</g>
	<path fill="#FFFFFF" d="M58.78,65.693c-0.018,9.543,5.381,17.485,11.833,17.409c6.433-0.074,11.718-7.879,11.741-17.334
		c0.021-9.509-5.402-17.484-11.84-17.411C64.057,48.433,58.796,56.21,58.78,65.693z"/>
	<path fill="#FFFFFF" d="M118.635,65.694c-0.018,9.544,5.379,17.481,11.832,17.408c6.432-0.074,11.719-7.882,11.741-17.338
		c0.022-9.508-5.401-17.481-11.841-17.407C123.912,48.432,118.648,56.209,118.635,65.694z"/>
</g>
<path fill="#FFFFFF" d="M100.282,190.427c-23.932,0-46.536-9.452-63.652-26.618c-17.115-17.164-26.544-39.832-26.552-63.831
	C10.07,75.95,19.504,53.281,36.641,36.146C53.779,19.01,76.453,9.574,100.491,9.574c23.987,0,46.644,9.416,63.788,26.513
	c17.146,17.099,26.604,39.708,26.63,63.659c0.022,24.168-9.396,46.922-26.526,64.068
	C147.238,180.979,124.473,190.428,100.282,190.427L100.282,190.427L100.282,190.427z M45.473,44.979
	C30.702,59.75,22.571,79.28,22.577,99.977c0.008,20.675,8.137,40.208,22.894,55.007c14.753,14.793,34.223,22.942,54.825,22.942l0,0
	c20.851,0,40.472-8.146,55.247-22.937c14.768-14.782,22.891-34.395,22.865-55.22c-0.021-20.625-8.172-40.102-22.951-54.839
	c-14.781-14.739-34.301-22.856-54.967-22.856C79.785,22.074,60.246,30.208,45.473,44.979z"/>
</svg>
