<?xml version="1.0" encoding="utf-8"?>
<!-- Generator: Adobe Illustrator 16.0.0, SVG Export Plug-In . SVG Version: 6.00 Build 0)  -->
<!DOCTYPE svg PUBLIC "-//W3C//DTD SVG 1.1//EN" "http://www.w3.org/Graphics/SVG/1.1/DTD/svg11.dtd">
<svg version="1.1" id="Layer_1" xmlns="http://www.w3.org/2000/svg" xmlns:xlink="http://www.w3.org/1999/xlink" x="0px" y="0px"
	 width="200px" height="200px" viewBox="0 0 200 200" enable-background="new 0 0 200 200" xml:space="preserve">
<g>
	<g>
		<g>
			<g>
				<path fill="#FFF922" stroke="#FFFFFF" stroke-width="8" stroke-miterlimit="10" d="M100.593,187.305
					c-47.647,0.072-87.014-39.123-87.069-86.695C13.468,52.676,52.481,13.39,100.18,13.342c48.05-0.046,87.251,38.962,87.284,86.854
					C187.495,148.027,148.402,187.23,100.593,187.305z"/>
			</g>
			<path opacity="0.5" fill="#323232" enable-background="new    " d="M100.496,120.167c-14.094,0-28.185,0.015-42.275-0.017
				c-2.393-0.004-4.569,0.53-6.375,2.298c-2.687,2.629-3.812,5.842-2.675,9.673c1.137,3.828,3.641,6.048,7.326,6.635
				c0.635,0.098,1.291,0.073,1.938,0.073c28.039,0.005,56.078,0.009,84.116,0c4.459,0,7.719-2.173,9.108-6.026
				c2.151-5.97-1.923-12.487-8.028-12.606c-6.108-0.123-12.221-0.029-18.332-0.032C117.027,120.164,108.763,120.164,100.496,120.167
				z"/>
		</g>
	</g>
	<path opacity="0.5" fill="#323232" enable-background="new    " d="M58.78,65.693c-0.018,9.543,5.381,17.485,11.833,17.409
		c6.433-0.074,11.718-7.879,11.741-17.334c0.021-9.509-5.402-17.484-11.84-17.411C64.057,48.433,58.796,56.21,58.78,65.693z"/>
	<path opacity="0.5" fill="#323232" enable-background="new    " d="M118.635,65.694c-0.018,9.544,5.379,17.481,11.832,17.408
		c6.432-0.074,11.719-7.882,11.741-17.338c0.022-9.508-5.401-17.481-11.841-17.407C123.912,48.432,118.648,56.209,118.635,65.694z"
		/>
</g>
<path fill="#4192B6" d="M31.649,168.773c-18.381-18.352-28.514-42.57-28.537-68.207C3.09,74.751,13.157,50.399,31.458,31.997
	C49.76,13.588,74.007,3.442,99.796,3.423c53.509,0,97.063,43.437,97.093,96.827c0.028,53.406-43.412,96.904-96.843,96.975h-0.121
	C74.274,197.225,50.03,187.123,31.649,168.773z M40.063,40.254c-16.095,16.186-24.949,37.6-24.929,60.294
	c0.021,22.519,8.933,43.804,25.095,59.938c16.162,16.136,37.476,25.021,60.008,25.021h0.106
	c46.974-0.062,85.169-38.305,85.142-85.253c-0.021-46.936-38.32-85.122-85.43-85.122C77.461,15.151,56.155,24.071,40.063,40.254z"/>
</svg>
