<?xml version="1.0" encoding="utf-8"?>
<!-- Generator: Adobe Illustrator 16.0.0, SVG Export Plug-In . SVG Version: 6.00 Build 0)  -->
<!DOCTYPE svg PUBLIC "-//W3C//DTD SVG 1.1//EN" "http://www.w3.org/Graphics/SVG/1.1/DTD/svg11.dtd">
<svg version="1.1" id="Layer_1" xmlns="http://www.w3.org/2000/svg" xmlns:xlink="http://www.w3.org/1999/xlink" x="0px" y="0px"
	 width="777.697px" height="541.476px" viewBox="0 0 777.697 541.476" enable-background="new 0 0 777.697 541.476"
	 xml:space="preserve">
<path id="BG" fill="#F9F9F9" stroke="#C3C3C3" stroke-miterlimit="10" d="M641.432,519.427c0,2.424-1.603,4.391-3.577,4.391H117.059
	c-1.978,0-3.578-1.967-3.578-4.391V12.873c0-2.425,1.602-4.39,3.578-4.39h520.796c1.979,0,3.576,1.965,3.576,4.39L641.432,519.427
	L641.432,519.427z"/>
<path id="BGwhite" fill="#FFFFFF" stroke="#C3C3C3" stroke-miterlimit="10" d="M113.479,32.971v486.413
	c0,2.447,1.602,4.432,3.578,4.432h520.795c1.979,0,3.577-1.982,3.577-4.432V32.971H113.479z"/>
<g id="Circles_1_" transform="translate(10.000000, 11.000000)" opacity="0.5">
	<ellipse id="Oval-2_1_" fill="#FC615C" cx="114.417" cy="9.555" rx="4.131" ry="4.242"/>
	<ellipse id="Oval-2-Copy_1_" fill="#FDBC40" cx="127.638" cy="9.555" rx="4.133" ry="4.242"/>
	<ellipse id="Oval-2-Copy-2_1_" fill="#34C849" cx="140.859" cy="9.555" rx="4.131" ry="4.242"/>
</g>
<g id="Website" opacity="0.3">
	<path fill="#BFBFBF" d="M415.452,94.183c0,5.643-5.439,10.217-12.152,10.217H149.791c-6.711,0-12.152-4.575-12.152-10.217V67.615
		c0-5.644,5.441-10.218,12.152-10.218h253.511c6.711,0,12.152,4.574,12.152,10.218L415.452,94.183L415.452,94.183z"/>
	<path fill="#A3A3A3" d="M591.653,159.567c0,4.048-5.439,7.328-12.154,7.328H149.791c-6.711,0-12.152-3.28-12.152-7.328v-17.953
		c0-4.047,5.441-7.328,12.152-7.328h429.711c6.711,0,12.153,3.28,12.153,7.328L591.653,159.567L591.653,159.567z"/>
	<g>
		<g>
			<path fill="#CACCBA" d="M615.349,350.889c0,5.642-5.727,10.218-12.786,10.218H150.424c-7.062,0-12.787-4.576-12.787-10.218l0,0
				c0-5.642,5.725-10.218,12.787-10.218h452.138C609.624,340.671,615.349,345.251,615.349,350.889L615.349,350.889z"/>
		</g>
		<g>
			<path fill="#CACCBA" d="M615.349,277.035c0,5.643-5.727,10.217-12.786,10.217H150.424c-7.062,0-12.787-4.574-12.787-10.217l0,0
				c0-5.643,5.725-10.218,12.787-10.218h452.138C609.624,266.817,615.349,271.392,615.349,277.035L615.349,277.035z"/>
			<path fill="#CACCBA" d="M615.349,313.82c0,5.639-5.727,10.215-12.786,10.215H150.424c-7.062,0-12.787-4.576-12.787-10.215l0,0
				c0-5.643,5.725-10.22,12.787-10.22h452.138C609.624,303.6,615.349,308.177,615.349,313.82L615.349,313.82z"/>
		</g>
		<g>
			<path fill="#CACCBA" d="M615.349,203.176c0,5.645-5.727,10.218-12.786,10.218H150.424c-7.062,0-12.787-4.574-12.787-10.218l0,0
				c0-5.642,5.725-10.218,12.787-10.218h452.138C609.624,192.956,615.349,197.532,615.349,203.176L615.349,203.176z"/>
			<path fill="#CACCBA" d="M615.349,239.959c0,5.645-5.727,10.219-12.786,10.219H150.424c-7.062,0-12.787-4.574-12.787-10.219l0,0
				c0-5.642,5.725-10.217,12.787-10.217h452.138C609.624,229.742,615.349,234.316,615.349,239.959L615.349,239.959z"/>
		</g>
	</g>
</g>
<g id="path-1_1_">
	<rect x="136.003" y="378.182" fill="#C0DCE7" width="479.345" height="79.015"/>
	<path fill="#76B3CE" d="M593.892,378.182h-16.35v4.087h16.35V378.182L593.892,378.182z M572.434,378.182h-16.35v4.087h16.35
		V378.182L572.434,378.182z M550.976,378.182h-16.35v4.087h16.35V378.182L550.976,378.182z M529.518,378.182h-16.349v4.087h16.349
		V378.182L529.518,378.182z M508.059,378.182h-16.348v4.087h16.348V378.182L508.059,378.182z M486.602,378.182h-16.349v4.087h16.349
		V378.182L486.602,378.182z M465.144,378.182h-16.349v4.087h16.349V378.182L465.144,378.182z M443.687,378.182h-16.35v4.087h16.35
		V378.182L443.687,378.182z M422.229,378.182H405.88v4.087h16.349V378.182L422.229,378.182z M400.771,378.182h-16.349v4.087h16.349
		V378.182L400.771,378.182z M379.313,378.182h-16.348v4.087h16.349L379.313,378.182L379.313,378.182z M357.855,378.182h-16.348
		v4.087h16.348V378.182L357.855,378.182z M336.397,378.182h-16.349v4.087h16.349V378.182L336.397,378.182z M314.94,378.182h-16.35
		v4.087h16.35V378.182L314.94,378.182z M293.483,378.182h-16.349v4.087h16.349V378.182L293.483,378.182z M272.024,378.182h-16.349
		v4.087h16.349V378.182L272.024,378.182z M250.566,378.182H234.22v4.087h16.348L250.566,378.182L250.566,378.182z M229.108,378.182
		H212.76v4.087h16.349V378.182L229.108,378.182z M207.651,378.182h-16.349v4.087h16.349V378.182L207.651,378.182z M186.193,378.182
		h-16.349v4.087h16.349V378.182L186.193,378.182z M164.736,378.182h-16.348v4.087h16.349L164.736,378.182L164.736,378.182z
		 M143.278,378.182h-7.274v4.087l0,0c0,2.404,0,4.984,0,4.984h4.087v-4.984h3.188L143.278,378.182L143.278,378.182z M140.09,392.367
		h-4.087v16.348h4.087V392.367L140.09,392.367z M140.09,413.824h-4.087v16.35h4.087V413.824L140.09,413.824z M140.09,435.283h-4.087
		v16.348h4.087V435.283L140.09,435.283z M151.893,453.111h-15.889v3.627l0,0v-3.627v3.627l0,0v0.459h4.087l0,0l0,0l0,0l0,0
		c4.708,0,11.802,0,11.802,0V453.111L151.893,453.111z M173.349,453.111H157v4.086h16.349V453.111L173.349,453.111z
		 M194.807,453.111h-16.349v4.086h16.349V453.111L194.807,453.111z M216.264,453.111h-16.348v4.086h16.349L216.264,453.111
		L216.264,453.111z M237.722,453.111h-16.348v4.086h16.348V453.111L237.722,453.111z M259.181,453.111h-16.35v4.086h16.35V453.111
		L259.181,453.111z M280.639,453.111H264.29v4.086h16.349V453.111L280.639,453.111z M302.096,453.111h-16.349v4.086h16.349V453.111
		L302.096,453.111z M323.554,453.111h-16.349v4.086h16.349V453.111L323.554,453.111z M345.011,453.111h-16.349v4.086h16.349V453.111
		L345.011,453.111z M366.469,453.111H350.12v4.086h16.349V453.111L366.469,453.111z M387.927,453.111h-16.349v4.086h16.349V453.111
		L387.927,453.111z M409.385,453.111h-16.349v4.086h16.349V453.111L409.385,453.111z M430.841,453.111h-16.348v4.086h16.348V453.111
		L430.841,453.111z M452.299,453.111H435.95v4.086h16.349V453.111L452.299,453.111z M473.757,453.111h-16.35v4.086h16.35V453.111
		L473.757,453.111z M495.215,453.111h-16.353v4.086h16.353V453.111L495.215,453.111z M516.673,453.111h-16.35v4.086h16.35V453.111
		L516.673,453.111z M538.13,453.111h-16.349v4.086h16.35L538.13,453.111L538.13,453.111z M559.589,453.111h-16.351v4.086h16.351
		V453.111L559.589,453.111z M581.047,453.111h-16.352v4.086h16.352V453.111L581.047,453.111z M602.504,453.111h-16.35v4.086h16.35
		V453.111L602.504,453.111z M615.349,448.585h-4.087v4.525h-3.646v4.086h7.733V448.585L615.349,448.585z M615.349,427.126h-4.087
		v16.348h4.087V427.126L615.349,427.126z M615.349,405.669h-4.087v16.352h4.087V405.669L615.349,405.669z M615.349,384.212h-4.087
		v16.348h4.087V384.212L615.349,384.212z M615.349,378.182h-16.35v4.087h16.35V378.182L615.349,378.182z"/>
</g>
<g>
	<g>
		<g>
			<g>
				<g>
					<g>
						
							<rect x="236.921" y="225.094" fill="#FFFFFF" stroke="#898989" stroke-width="4" stroke-miterlimit="10" width="507.07" height="96.382"/>
					</g>
				</g>
				<g enable-background="new    ">
					<path fill="#636363" d="M276.464,246.5c0,2.77-0.751,4.886-2.255,6.352c-1.503,1.465-3.667,2.197-6.488,2.197h-4.648v-16.777
						h5.141c2.608,0,4.636,0.723,6.082,2.169C275.742,241.888,276.464,243.906,276.464,246.5z M274.398,246.568
						c0-2.188-0.549-3.835-1.646-4.946c-1.097-1.108-2.729-1.664-4.894-1.664h-2.835v13.404h2.375c2.326,0,4.073-0.572,5.245-1.716
						C273.813,250.503,274.398,248.81,274.398,246.568z"/>
					<path fill="#636363" d="M279.758,239.065c0-0.437,0.108-0.756,0.322-0.958c0.214-0.203,0.482-0.304,0.803-0.304
						c0.306,0,0.57,0.104,0.793,0.311c0.222,0.208,0.333,0.525,0.333,0.953c0,0.428-0.11,0.747-0.333,0.957
						c-0.222,0.21-0.487,0.315-0.793,0.315c-0.321,0-0.588-0.105-0.803-0.315C279.865,239.812,279.758,239.493,279.758,239.065z
						 M281.823,255.049h-1.904v-12.577h1.904V255.049z"/>
					<path fill="#636363" d="M294.423,253.363h-0.103c-0.88,1.277-2.196,1.916-3.947,1.916c-1.646,0-2.925-0.562-3.84-1.687
						c-0.914-1.124-1.371-2.723-1.371-4.797c0-2.073,0.46-3.683,1.378-4.831s2.195-1.722,3.833-1.722
						c1.705,0,3.013,0.62,3.924,1.859h0.149l-0.08-0.907l-0.046-0.883v-5.118h1.904v17.855h-1.549L294.423,253.363z
						 M290.613,253.684c1.3,0,2.244-0.353,2.828-1.062c0.585-0.708,0.878-1.85,0.878-3.425v-0.402c0-1.782-0.297-3.054-0.889-3.815
						c-0.593-0.761-1.541-1.142-2.84-1.142c-1.118,0-1.972,0.435-2.565,1.302c-0.592,0.869-0.889,2.094-0.889,3.678
						c0,1.606,0.295,2.819,0.885,3.638C288.609,253.275,289.474,253.684,290.613,253.684z"/>
					<path fill="#636363" d="M304.374,242.473h2.042l2.754,7.172c0.604,1.636,0.98,2.819,1.125,3.547h0.091
						c0.1-0.391,0.308-1.059,0.625-2.003c0.318-0.945,1.355-3.851,3.116-8.715h2.042l-5.405,14.321
						c-0.536,1.415-1.161,2.418-1.877,3.012c-0.714,0.593-1.593,0.889-2.634,0.889c-0.582,0-1.155-0.065-1.722-0.195v-1.527
						c0.421,0.092,0.892,0.138,1.411,0.138c1.309,0,2.242-0.734,2.8-2.204l0.701-1.79L304.374,242.473z"/>
					<path fill="#636363" d="M329.067,248.75c0,2.051-0.517,3.651-1.549,4.802c-1.032,1.151-2.459,1.729-4.279,1.729
						c-1.125,0-2.123-0.263-2.996-0.792c-0.872-0.528-1.546-1.285-2.02-2.272c-0.474-0.986-0.711-2.143-0.711-3.465
						c0-2.05,0.513-3.647,1.538-4.791c1.025-1.145,2.448-1.716,4.269-1.716c1.759,0,3.158,0.585,4.195,1.756
						C328.548,245.168,329.067,246.753,329.067,248.75z M319.485,248.75c0,1.606,0.322,2.831,0.964,3.673
						c0.643,0.842,1.587,1.262,2.835,1.262c1.246,0,2.193-0.419,2.84-1.256c0.647-0.837,0.97-2.063,0.97-3.678
						c0-1.598-0.323-2.813-0.97-3.643c-0.646-0.829-1.601-1.245-2.863-1.245c-1.247,0-2.188,0.409-2.823,1.229
						C319.803,245.907,319.485,247.128,319.485,248.75z"/>
					<path fill="#636363" d="M334.196,242.473v8.159c0,1.026,0.233,1.791,0.701,2.294c0.466,0.505,1.197,0.758,2.191,0.758
						c1.316,0,2.278-0.36,2.887-1.078c0.608-0.719,0.913-1.894,0.913-3.523v-6.61h1.904v12.577h-1.571l-0.276-1.687h-0.103
						c-0.39,0.62-0.932,1.094-1.625,1.423c-0.693,0.329-1.482,0.493-2.369,0.493c-1.531,0-2.676-0.363-3.438-1.09
						c-0.761-0.727-1.142-1.89-1.142-3.488v-8.228H334.196L334.196,242.473z"/>
					<path fill="#636363" d="M354.839,255.049h-1.905v-17.855h1.905V255.049z"/>
					<path fill="#636363" d="M358.719,239.065c0-0.437,0.108-0.756,0.322-0.958c0.214-0.203,0.482-0.304,0.804-0.304
						c0.306,0,0.569,0.104,0.792,0.311c0.223,0.208,0.333,0.525,0.333,0.953c0,0.428-0.11,0.747-0.333,0.957
						c-0.222,0.21-0.486,0.315-0.792,0.315c-0.322,0-0.588-0.105-0.804-0.315C358.827,239.812,358.719,239.493,358.719,239.065z
						 M360.785,255.049h-1.904v-12.577h1.904V255.049z"/>
					<path fill="#636363" d="M366.707,248.612c0.329-0.466,0.831-1.078,1.504-1.836l4.062-4.303h2.261l-5.094,5.359l5.451,7.218
						h-2.307l-4.441-5.944l-1.435,1.239v4.704h-1.882v-17.855h1.882v9.467c0,0.42-0.03,1.072-0.092,1.95L366.707,248.612
						L366.707,248.612z"/>
					<path fill="#636363" d="M382.473,255.278c-1.858,0-3.325-0.566-4.4-1.699c-1.075-1.132-1.612-2.703-1.612-4.717
						c0-2.027,0.499-3.637,1.498-4.831c0.999-1.194,2.34-1.79,4.022-1.79c1.576,0,2.823,0.518,3.74,1.555
						c0.918,1.037,1.377,2.404,1.377,4.103v1.205h-8.664c0.039,1.477,0.412,2.598,1.119,3.363c0.708,0.765,1.705,1.146,2.989,1.146
						c1.354,0,2.693-0.283,4.017-0.849v1.698c-0.673,0.291-1.311,0.499-1.912,0.626
						C384.046,255.215,383.324,255.278,382.473,255.278z M381.957,243.838c-1.009,0-1.815,0.329-2.415,0.986
						c-0.601,0.658-0.954,1.568-1.062,2.731h6.576c0-1.2-0.269-2.121-0.803-2.759C383.716,244.158,382.952,243.838,381.957,243.838z
						"/>
					<path fill="#636363" d="M400.513,253.707c0.336,0,0.662-0.025,0.976-0.074c0.313-0.049,0.562-0.101,0.746-0.155v1.457
						c-0.208,0.101-0.511,0.182-0.913,0.247c-0.4,0.065-0.762,0.098-1.083,0.098c-2.432,0-3.647-1.281-3.647-3.843v-7.482h-1.801
						v-0.918l1.801-0.792l0.802-2.686h1.103v2.915h3.648v1.481h-3.648v7.401c0,0.758,0.18,1.338,0.539,1.745
						C399.393,253.503,399.885,253.707,400.513,253.707z"/>
					<path fill="#636363" d="M413.354,255.049v-8.135c0-1.026-0.233-1.791-0.701-2.294c-0.466-0.505-1.196-0.758-2.19-0.758
						c-1.324,0-2.289,0.36-2.897,1.079c-0.606,0.72-0.913,1.897-0.913,3.535v6.575h-1.904v-17.855h1.904v5.405
						c0,0.65-0.031,1.19-0.092,1.617h0.113c0.375-0.604,0.91-1.08,1.601-1.428c0.692-0.348,1.481-0.522,2.37-0.522
						c1.538,0,2.691,0.365,3.46,1.096c0.769,0.729,1.151,1.892,1.151,3.482v8.205L413.354,255.049L413.354,255.049z"/>
					<path fill="#636363" d="M419.011,239.065c0-0.437,0.107-0.756,0.32-0.958c0.213-0.203,0.481-0.304,0.805-0.304
						c0.305,0,0.568,0.104,0.792,0.311c0.221,0.208,0.333,0.525,0.333,0.953c0,0.428-0.112,0.747-0.333,0.957
						c-0.222,0.21-0.487,0.315-0.792,0.315c-0.322,0-0.59-0.105-0.805-0.315C419.118,239.812,419.011,239.493,419.011,239.065z
						 M421.077,255.049h-1.904v-12.577h1.904V255.049z"/>
					<path fill="#636363" d="M433.229,251.618c0,1.17-0.437,2.074-1.31,2.708c-0.871,0.634-2.096,0.953-3.67,0.953
						c-1.668,0-2.969-0.263-3.901-0.792v-1.768c0.604,0.307,1.252,0.547,1.944,0.725c0.691,0.176,1.359,0.264,2.002,0.264
						c0.994,0,1.759-0.16,2.295-0.477c0.535-0.317,0.804-0.802,0.804-1.452c0-0.49-0.212-0.91-0.638-1.257
						c-0.424-0.347-1.252-0.759-2.482-1.234c-1.171-0.436-2.002-0.818-2.497-1.142c-0.495-0.325-0.86-0.694-1.103-1.108
						c-0.24-0.413-0.36-0.907-0.36-1.48c0-1.026,0.417-1.834,1.251-2.427c0.832-0.593,1.977-0.889,3.432-0.889
						c1.354,0,2.678,0.276,3.969,0.826l-0.676,1.55c-1.263-0.521-2.406-0.781-3.433-0.781c-0.903,0-1.583,0.141-2.042,0.425
						c-0.459,0.282-0.688,0.673-0.688,1.17c0,0.337,0.086,0.624,0.256,0.861c0.174,0.238,0.451,0.463,0.832,0.677
						c0.385,0.214,1.119,0.524,2.205,0.929c1.492,0.543,2.5,1.091,3.022,1.641C432.966,250.092,433.229,250.785,433.229,251.618z"/>
					<path fill="#636363" d="M447.745,255.278c-1.858,0-3.326-0.566-4.4-1.699c-1.075-1.132-1.612-2.703-1.612-4.717
						c0-2.027,0.498-3.637,1.497-4.831c0.999-1.194,2.339-1.79,4.022-1.79c1.572,0,2.822,0.518,3.739,1.555s1.377,2.404,1.377,4.103
						v1.205h-8.664c0.037,1.477,0.41,2.598,1.121,3.363c0.707,0.765,1.703,1.146,2.988,1.146c1.354,0,2.69-0.283,4.016-0.849v1.698
						c-0.675,0.291-1.31,0.499-1.909,0.626C449.318,255.215,448.594,255.278,447.745,255.278z M447.229,243.838
						c-1.008,0-1.814,0.329-2.416,0.986c-0.599,0.658-0.955,1.568-1.061,2.731h6.573c0-1.2-0.265-2.121-0.803-2.759
						C448.987,244.158,448.223,243.838,447.229,243.838z"/>
					<path fill="#636363" d="M471.647,255.049v-8.181c0-1.003-0.215-1.753-0.643-2.255c-0.43-0.501-1.096-0.752-1.997-0.752
						c-1.188,0-2.062,0.341-2.628,1.021c-0.566,0.681-0.851,1.729-0.851,3.144v7.022h-1.903v-8.181c0-1.003-0.214-1.753-0.644-2.255
						c-0.429-0.501-1.097-0.752-2.009-0.752c-1.191,0-2.067,0.357-2.622,1.074c-0.555,0.717-0.832,1.888-0.832,3.518v6.598h-1.902
						v-12.577h1.55l0.308,1.722h0.092c0.359-0.612,0.867-1.089,1.521-1.434c0.653-0.345,1.387-0.517,2.196-0.517
						c1.967,0,3.252,0.711,3.855,2.134h0.092c0.375-0.658,0.915-1.178,1.626-1.562c0.715-0.383,1.523-0.574,2.438-0.574
						c1.422,0,2.487,0.366,3.194,1.097s1.062,1.898,1.062,3.505v8.205H471.647L471.647,255.049z"/>
					<path fill="#636363" d="M485.211,255.049l-0.378-1.79h-0.093c-0.628,0.788-1.254,1.321-1.877,1.6
						c-0.624,0.279-1.401,0.419-2.336,0.419c-1.247,0-2.225-0.322-2.932-0.964c-0.707-0.643-1.061-1.557-1.061-2.743
						c0-2.541,2.03-3.871,6.095-3.993l2.136-0.07v-0.78c0-0.986-0.214-1.716-0.638-2.186c-0.427-0.471-1.103-0.706-2.035-0.706
						c-1.051,0-2.234,0.322-3.561,0.964l-0.584-1.457c0.62-0.337,1.299-0.601,2.035-0.793c0.737-0.19,1.479-0.287,2.221-0.287
						c1.499,0,2.61,0.333,3.333,0.999c0.725,0.666,1.087,1.732,1.087,3.201v8.583L485.211,255.049L485.211,255.049z
						 M480.906,253.707c1.189,0,2.12-0.325,2.795-0.976c0.679-0.65,1.018-1.561,1.018-2.732v-1.137l-1.905,0.081
						c-1.515,0.054-2.605,0.289-3.275,0.706c-0.671,0.417-1.005,1.065-1.005,1.944c0,0.689,0.211,1.213,0.628,1.573
						C479.576,253.527,480.157,253.707,480.906,253.707z"/>
					<path fill="#636363" d="M490.386,239.065c0-0.437,0.106-0.756,0.32-0.958c0.215-0.203,0.482-0.304,0.806-0.304
						c0.305,0,0.567,0.104,0.79,0.311c0.222,0.208,0.334,0.525,0.334,0.953c0,0.428-0.112,0.747-0.334,0.957
						c-0.223,0.21-0.485,0.315-0.79,0.315c-0.322,0-0.588-0.105-0.806-0.315C490.493,239.812,490.386,239.493,490.386,239.065z
						 M492.451,255.049h-1.901v-12.577h1.901V255.049z"/>
					<path fill="#636363" d="M498.396,255.049h-1.904v-17.855h1.904V255.049z"/>
					<path fill="#636363" d="M503.733,250.424v-0.62c0-0.896,0.137-1.632,0.413-2.209c0.275-0.577,0.787-1.188,1.537-1.83
						c1.04-0.88,1.695-1.542,1.968-1.985c0.271-0.444,0.407-0.98,0.407-1.607c0-0.78-0.252-1.382-0.753-1.807
						c-0.5-0.424-1.223-0.637-2.164-0.637c-0.604,0-1.19,0.071-1.768,0.211c-0.573,0.142-1.232,0.399-1.974,0.775l-0.677-1.549
						c1.446-0.756,2.957-1.135,4.533-1.135c1.462,0,2.594,0.36,3.407,1.079c0.812,0.718,1.217,1.731,1.217,3.04
						c0,0.559-0.074,1.05-0.224,1.475c-0.148,0.424-0.37,0.826-0.661,1.206c-0.291,0.379-0.917,0.988-1.884,1.83
						c-0.771,0.658-1.282,1.205-1.529,1.641c-0.251,0.437-0.372,1.018-0.372,1.744v0.379L503.733,250.424L503.733,250.424z
						 M503.17,253.833c0-1.04,0.459-1.562,1.378-1.562c0.443,0,0.786,0.134,1.025,0.401c0.241,0.268,0.361,0.653,0.361,1.16
						c0,0.49-0.123,0.87-0.366,1.142c-0.245,0.271-0.584,0.407-1.021,0.407c-0.396,0-0.726-0.12-0.987-0.361
						C503.301,254.78,503.17,254.384,503.17,253.833z"/>
				</g>
				<g>
					<g>
						<path fill="#FFFFFF" d="M717.235,279.417c0,9.203-9.001,16.67-20.104,16.67H570.92c-11.104,0-20.108-7.467-20.108-16.67l0,0
							c0-9.213,9.004-16.677,20.108-16.677h126.213C708.231,262.739,717.235,270.203,717.235,279.417L717.235,279.417z"/>
						<path fill="#4192B6" d="M697.132,297.525H570.921c-11.897,0-21.588-8.125-21.588-18.104c0-9.997,9.689-18.116,21.588-18.116
							h126.213c11.901,0,21.584,8.126,21.584,18.116C718.72,289.397,709.034,297.525,697.132,297.525z M570.921,264.173
							c-10.273,0-18.626,6.838-18.626,15.245c0,8.399,8.357,15.232,18.626,15.232h126.213c10.27,0,18.629-6.835,18.629-15.232
							c0-8.407-8.354-15.245-18.629-15.245H570.921z"/>
					</g>
					<rect x="606.477" y="275.292" fill="none" width="92.563" height="12.488"/>
					<g enable-background="new    ">
						<path fill="#4192B6" d="M595.438,275.847c-0.493,0-0.902,0.105-1.216,0.332c-0.315,0.22-0.479,0.555-0.479,0.998
							c0,0.449,0.161,0.791,0.479,1.031c0.314,0.234,0.989,0.492,2.021,0.77c1.034,0.275,1.81,0.656,2.334,1.154
							c0.523,0.49,0.783,1.224,0.783,2.188c0,0.961-0.334,1.744-0.994,2.352c-0.659,0.599-1.528,0.901-2.604,0.901
							c-1.573,0-2.967-0.595-4.188-1.79l1.063-1.404c1.018,0.968,2.071,1.455,3.167,1.455c0.546,0,0.98-0.131,1.305-0.396
							c0.319-0.257,0.483-0.599,0.483-1.024c0-0.427-0.155-0.758-0.454-0.996c-0.3-0.236-0.821-0.451-1.562-0.651
							c-0.737-0.19-1.305-0.368-1.682-0.535c-0.386-0.161-0.724-0.376-1.021-0.638c-0.598-0.495-0.896-1.256-0.896-2.276
							s0.34-1.808,1.013-2.362c0.679-0.55,1.519-0.828,2.515-0.828c0.644,0,1.278,0.117,1.911,0.351
							c0.634,0.229,1.183,0.558,1.641,0.979l-0.902,1.408c-0.302-0.298-0.705-0.539-1.214-0.73
							C596.437,275.944,595.934,275.847,595.438,275.847z"/>
						<path fill="#4192B6" d="M606.502,281.582v-4.549h1.611v8.406h-1.611v-1.531c-0.258,0.516-0.618,0.918-1.071,1.215
							c-0.455,0.299-0.95,0.444-1.473,0.444c-0.865,0-1.562-0.291-2.099-0.872c-0.537-0.578-0.798-1.415-0.798-2.507v-5.155h1.611
							v4.612c0,1.556,0.587,2.323,1.757,2.323c0.558,0,1.043-0.206,1.456-0.611C606.295,282.957,606.502,282.367,606.502,281.582z"
							/>
						<path fill="#4192B6" d="M614.551,276.905c1.021,0,1.896,0.39,2.631,1.167c0.729,0.789,1.096,1.82,1.096,3.118
							c0,1.297-0.357,2.349-1.084,3.159c-0.73,0.812-1.571,1.218-2.537,1.218c-0.962,0-1.83-0.47-2.598-1.394v1.265h-1.612v-11.724
							h1.612v4.783C612.689,277.437,613.52,276.905,614.551,276.905z M612.026,281.25c0,0.799,0.221,1.453,0.663,1.967
							c0.441,0.519,0.981,0.77,1.611,0.77c0.633,0,1.19-0.251,1.657-0.758c0.473-0.51,0.705-1.161,0.705-1.971
							c0-0.801-0.231-1.471-0.689-2.004c-0.463-0.532-1.014-0.803-1.655-0.803c-0.646,0-1.187,0.273-1.625,0.803
							C612.253,279.783,612.026,280.453,612.026,281.25z"/>
						<path fill="#4192B6" d="M625.569,282.928c0,0.797-0.261,1.438-0.786,1.918c-0.534,0.478-1.206,0.723-2.034,0.723
							c-0.552,0-1.128-0.112-1.729-0.332c-0.605-0.222-1.132-0.532-1.593-0.934l0.774-1.371c0.898,0.733,1.756,1.101,2.59,1.101
							c0.365,0,0.654-0.093,0.865-0.275c0.211-0.186,0.315-0.418,0.315-0.704c0-0.427-0.511-0.798-1.522-1.138
							c-0.078-0.03-0.135-0.051-0.171-0.064c-1.593-0.477-2.389-1.266-2.389-2.364c0-0.782,0.276-1.405,0.826-1.874
							c0.551-0.475,1.268-0.703,2.151-0.703c0.883,0,1.721,0.285,2.5,0.854l-0.604,1.31c-0.62-0.451-1.302-0.678-2.024-0.678
							c-0.389,0-0.697,0.075-0.939,0.225c-0.241,0.154-0.355,0.381-0.355,0.688c0,0.274,0.126,0.478,0.369,0.603
							c0.173,0.096,0.414,0.188,0.73,0.264c0.312,0.091,0.585,0.171,0.827,0.258c0.241,0.081,0.474,0.177,0.693,0.279
							c0.227,0.109,0.472,0.254,0.728,0.443C625.313,281.531,625.569,282.125,625.569,282.928z"/>
						<path fill="#4192B6" d="M630.8,285.569c-1.062,0-1.981-0.403-2.748-1.196c-0.771-0.797-1.149-1.836-1.149-3.119
							c0-1.289,0.396-2.334,1.199-3.141c0.8-0.808,1.782-1.208,2.926-1.208c1.152,0,2.128,0.44,2.922,1.312l-0.948,1.281
							c-0.667-0.631-1.333-0.947-2-0.947c-0.677,0-1.257,0.244-1.752,0.732c-0.491,0.492-0.74,1.121-0.74,1.896
							c0,0.771,0.24,1.426,0.73,1.962c0.491,0.541,1.094,0.808,1.81,0.808c0.715,0,1.388-0.353,2.021-1.076l0.95,1.143
							C633.09,285.048,632.017,285.569,630.8,285.569z"/>
						<path fill="#4192B6" d="M639.708,278.694c-0.796,0-1.394,0.28-1.801,0.853c-0.402,0.565-0.604,1.332-0.604,2.291v3.603h-1.611
							v-8.409h1.611v1.688c0.26-0.523,0.614-0.957,1.056-1.295c0.448-0.336,0.921-0.51,1.423-0.524l0.021,1.785
							C639.767,278.694,639.739,278.694,639.708,278.694z"/>
						<path fill="#4192B6" d="M641.505,275.352c-0.205-0.22-0.303-0.479-0.303-0.789c0-0.306,0.098-0.571,0.303-0.79
							c0.203-0.221,0.442-0.33,0.724-0.33c0.279,0,0.519,0.109,0.724,0.33c0.194,0.223,0.301,0.486,0.301,0.79
							c0,0.31-0.105,0.569-0.301,0.789c-0.205,0.226-0.443,0.338-0.724,0.338S641.708,275.578,641.505,275.352z M643.019,285.439
							h-1.611v-8.406h1.611V285.439z"/>
						<path fill="#4192B6" d="M649.45,276.905c1.033,0,1.907,0.39,2.637,1.167c0.731,0.789,1.098,1.82,1.098,3.118
							c0,1.297-0.361,2.349-1.091,3.159c-0.725,0.812-1.564,1.218-2.532,1.218c-0.963,0-1.826-0.47-2.592-1.394v1.265h-1.617
							v-11.724h1.616v4.783C647.597,277.437,648.427,276.905,649.45,276.905z M646.934,281.25c0,0.799,0.224,1.453,0.66,1.967
							c0.443,0.519,0.981,0.77,1.614,0.77s1.186-0.251,1.652-0.758c0.469-0.51,0.706-1.161,0.706-1.971
							c0-0.801-0.229-1.471-0.688-2.004c-0.464-0.532-1.017-0.803-1.655-0.803c-0.648,0-1.188,0.273-1.63,0.803
							C647.156,279.783,646.934,280.453,646.934,281.25z"/>
						<path fill="#4192B6" d="M662.152,282.005h-6.005c0.038,0.615,0.289,1.105,0.76,1.48c0.477,0.373,1.012,0.559,1.612,0.559
							c0.959,0,1.691-0.332,2.193-0.994l0.915,1.107c-0.822,0.934-1.896,1.4-3.222,1.4c-1.07,0-1.984-0.395-2.744-1.176
							c-0.745-0.788-1.126-1.842-1.126-3.156c0-1.327,0.383-2.374,1.146-3.152c0.771-0.777,1.673-1.172,2.709-1.172
							c1.044,0,1.938,0.35,2.659,1.037c0.729,0.693,1.098,1.643,1.098,2.854L662.152,282.005L662.152,282.005z M656.147,280.621
							h4.393c0-0.709-0.207-1.25-0.61-1.627c-0.397-0.381-0.9-0.57-1.485-0.57c-0.593,0-1.121,0.195-1.597,0.591
							C656.385,279.41,656.147,279.944,656.147,280.621z"/>
						<path fill="#4192B6" d="M667.938,278.694c-0.796,0-1.396,0.28-1.799,0.853c-0.404,0.565-0.609,1.332-0.609,2.291v3.603h-1.609
							v-8.409h1.609v1.688c0.26-0.523,0.61-0.957,1.06-1.295c0.445-0.336,0.915-0.51,1.417-0.524l0.023,1.785
							C667.995,278.694,667.965,278.694,667.938,278.694z"/>
					</g>
					<g enable-background="new    ">
						<path fill="#636363" d="M673.915,281.089l2.777-7.608h2.634l-4.38,11.958h-2.055l-4.382-11.958h2.634L673.915,281.089z"/>
						<path fill="#636363" d="M688.055,280.835c0,1.336-0.416,2.451-1.257,3.371c-0.848,0.912-1.899,1.367-3.17,1.367
							c-1.277,0-2.332-0.455-3.173-1.367c-0.842-0.916-1.266-2.035-1.266-3.371s0.424-2.465,1.266-3.381
							c0.84-0.922,1.895-1.379,3.173-1.379c1.271,0,2.322,0.459,3.17,1.379C687.639,278.371,688.055,279.5,688.055,280.835z
							 M681.536,280.835c0,0.754,0.197,1.369,0.588,1.84c0.394,0.476,0.895,0.707,1.496,0.707c0.605,0,1.107-0.234,1.499-0.707
							c0.387-0.475,0.581-1.086,0.581-1.84c0-0.756-0.194-1.371-0.581-1.85c-0.392-0.479-0.894-0.725-1.499-0.725
							c-0.603,0-1.104,0.244-1.496,0.725C681.733,279.462,681.536,280.08,681.536,280.835z"/>
						<path fill="#636363" d="M689.984,275.06c-0.269-0.295-0.401-0.646-0.401-1.071c0-0.419,0.134-0.776,0.401-1.067
							c0.261-0.289,0.585-0.437,0.972-0.437c0.385,0,0.713,0.144,0.972,0.437c0.269,0.291,0.399,0.649,0.399,1.067
							c0,0.423-0.132,0.777-0.399,1.071c-0.259,0.29-0.587,0.436-0.972,0.436C690.572,275.496,690.247,275.352,689.984,275.06z
							 M692.127,285.439h-2.342v-9.209h2.342V285.439z"/>
						<path fill="#636363" d="M698.36,283.294c0.785,0,1.481-0.424,2.105-1.279l1.391,1.71c-1.085,1.235-2.254,1.844-3.512,1.844
							s-2.32-0.431-3.19-1.303c-0.862-0.869-1.296-2.017-1.296-3.425c0-1.412,0.436-2.555,1.312-3.44
							c0.878-0.879,1.921-1.325,3.129-1.325c0.6,0,1.212,0.139,1.828,0.407c0.617,0.276,1.158,0.683,1.63,1.218l-1.216,1.743
							c-0.272-0.349-0.604-0.62-0.993-0.817c-0.392-0.194-0.775-0.291-1.158-0.291c-0.619,0-1.143,0.221-1.583,0.66
							c-0.443,0.44-0.664,1.051-0.664,1.828c0,0.788,0.221,1.389,0.664,1.826C697.253,283.08,697.77,283.294,698.36,283.294z"/>
						<path fill="#636363" d="M710.676,284.104c-0.948,0.979-2.052,1.468-3.331,1.468c-1.273,0-2.322-0.426-3.154-1.287
							c-0.83-0.861-1.245-2.019-1.245-3.465c0-1.453,0.42-2.607,1.271-3.466c0.848-0.854,1.847-1.278,3.002-1.278
							c1.152,0,2.131,0.377,2.938,1.146c0.803,0.765,1.206,1.812,1.206,3.149v1.368h-6.106c0.068,0.497,0.312,0.911,0.715,1.234
							c0.406,0.319,0.863,0.481,1.376,0.481c0.817,0,1.494-0.305,2.028-0.91L710.676,284.104z M708.428,278.641
							c-0.321-0.296-0.71-0.444-1.177-0.444c-0.466,0-0.889,0.153-1.269,0.461c-0.384,0.309-0.61,0.727-0.669,1.248h3.678
							C708.941,279.365,708.754,278.941,708.428,278.641z"/>
					</g>
					<g>
						<g>
							<g>
								<g>
									<path fill="#4192B6" d="M535.036,268.397c1.061,10.787,1.81,21.474,2.256,32.06c0.101,2.334,1.538,3.948,3.235,3.633
										c9.872-1.868,19.736-3.641,29.613-5.332c3.01,2.463,6.001,4.832,8.964,7.098c-0.013-2.826-0.047-5.652-0.108-8.484
										c2.536-0.41,5.07-0.812,7.605-1.216c1.701-0.276,3.008-2.045,2.917-3.968c-0.452-8.768-1.15-17.637-2.108-26.569
										c-0.209-1.961-1.778-3.525-3.479-3.485c-15.433,0.396-30.848,0.995-46.246,1.813
										C535.98,264.028,534.812,266.031,535.036,268.397z"/>
									<path fill="#FFFFFF" d="M541.527,297.123c-0.161-0.367-0.265-0.795-0.287-1.258c-0.402-7.988-0.971-16.045-1.723-24.156
										c5.057,3.303,10.072,6.437,15.055,9.397C550.28,286.23,545.938,291.569,541.527,297.123z"/>
									<path fill="#FFFFFF" d="M555.818,281.814c2.425,1.441,4.829,2.85,7.229,4.214c2.191-1.929,4.374-3.812,6.556-5.653
										c5.111,4.01,10.156,7.774,15.146,11.312c-0.424,0.422-0.971,0.726-1.572,0.81c-2.272,0.326-4.54,0.656-6.808,0.994
										c0.1,2.025,0.188,4.059,0.264,6.075c-1.844-1.724-3.693-3.478-5.562-5.28c-9.021,1.365-18.047,2.805-27.065,4.316
										c-0.598,0.097-1.159-0.051-1.611-0.385C546.931,292.522,551.399,287.05,555.818,281.814z"/>
									<path fill="#FFFFFF" d="M570.73,279.464c4.452-3.725,8.879-7.28,13.283-10.646c0.694,6.92,1.231,13.787,1.624,20.602
										c0.021,0.379-0.033,0.744-0.156,1.093C580.62,287.056,575.708,283.376,570.73,279.464z"/>
									<path fill="#4192B6" d="M583.361,266.075c-7.823,0.64-15.641,1.37-23.451,2.182c-6.944,0.064-13.889,0.138-20.832,0.225
										c-1.1-1.146-2.209-2.303-3.312-3.474c7.501-8.677,14.874-16.675,22.155-23.974c9.571,7.946,18.906,15.225,28.061,21.848
										C585.106,263.934,584.235,264.995,583.361,266.075z"/>
									<g>
										<g>
											<path fill="#FFFFFF" d="M577.472,267.669c-2.25-0.161-4.497-0.319-6.747-0.479c-1.879-0.986-4.305,1.481-8.923,1.774
												c-4.68,0.28-7.982,1.964-9.604,3.333c-2.011,0.141-4.021,0.281-6.029,0.422c0.077,0.848,0.15,1.689,0.227,2.529
												c5.488,2.361,10.952,4.598,16.393,6.687c4.914-3.063,9.817-5.981,14.704-8.737
												C577.496,271.349,577.486,269.509,577.472,267.669z"/>
										</g>
										<g>
											<g>
												<path fill="#FFFFFF" d="M579.136,270.769c-0.617-6.427-1.36-12.891-2.23-19.398c-11.746-0.147-23.48-0.166-35.211-0.069
													c0.936,7.277,1.727,14.505,2.378,21.7"/>
												<g>
													<path fill="#636363" d="M579.769,272.123c-0.87,0.435-1.739,0.871-2.609,1.311c-0.621-6.784-1.384-13.624-2.286-20.498
														c-10.246-0.05-20.487-0.012-30.709,0.122c0.942,7.475,1.732,14.901,2.372,22.282c-0.902-0.463-1.809-0.938-2.713-1.406
														c-0.72-7.875-1.607-15.793-2.667-23.769c12.06-0.042,24.128,0.046,36.223,0.256
														C578.334,257.7,579.133,264.938,579.769,272.123z"/>
												</g>
											</g>
											<path fill="#A4A1A8" d="M572.276,260.014c0.021,0.122-0.503,0.236-1.164,0.257c-7.182,0.175-14.36,0.404-21.535,0.672
												c-0.657,0.026-1.205-0.065-1.219-0.203c-0.169-1.499-0.344-3-0.525-4.501c-0.021-0.137,0.502-0.259,1.164-0.274
												c7.184-0.15,14.363-0.251,21.557-0.306c0.661-0.002,1.208,0.094,1.224,0.225
												C571.951,257.26,572.121,258.638,572.276,260.014z"/>
										</g>
									</g>
								</g>
							</g>
							<path fill="#A4A1A8" d="M563.452,272.279c0.024,0.309-0.253,0.578-0.63,0.61c-4.092,0.335-8.188,0.688-12.278,1.05
								c-0.379,0.035-0.702-0.206-0.734-0.523c-0.34-3.515-0.713-7.046-1.121-10.588c-0.039-0.327,0.234-0.608,0.618-0.62
								c4.096-0.204,8.195-0.389,12.3-0.56c0.378-0.015,0.719,0.226,0.751,0.539C562.754,265.558,563.117,268.924,563.452,272.279z"
								/>
							<path fill="#A4A1A8" d="M573.654,271.542c0.032,0.299-0.136,0.553-0.367,0.569c-2.524,0.193-5.053,0.388-7.575,0.584
								c-0.232,0.021-0.448-0.214-0.48-0.516c-0.326-3.335-0.694-6.68-1.092-10.033c-0.034-0.31,0.118-0.566,0.354-0.578
								c2.527-0.102,5.062-0.19,7.592-0.279c0.233-0.015,0.449,0.227,0.489,0.525C572.966,265.073,573.329,268.32,573.654,271.542z"
								/>
						</g>
					</g>
				</g>
				<path fill="#636363" d="M426.247,304.482c-10.177,0-18.455-8.281-18.455-18.459c0-10.182,8.279-18.459,18.455-18.459
					c10.179,0,18.459,8.28,18.459,18.459C444.709,296.201,436.426,304.482,426.247,304.482z M426.247,269.533
					c-9.09,0-16.488,7.397-16.488,16.489c0,9.091,7.396,16.491,16.488,16.491s16.491-7.396,16.491-16.491
					C442.738,276.93,435.339,269.533,426.247,269.533z"/>
				<rect x="385.188" y="269.289" fill="#636363" width="1.969" height="34.21"/>
				<path fill="#636363" d="M346.507,304.482c-10.179,0-18.46-8.281-18.46-18.459c0-10.182,8.281-18.459,18.46-18.459
					c10.177,0,18.459,8.28,18.459,18.459C364.966,296.201,356.686,304.482,346.507,304.482z M346.507,269.533
					c-9.091,0-16.491,7.397-16.491,16.489c0,9.091,7.396,16.491,16.491,16.491c9.092,0,16.49-7.396,16.49-16.491
					C362.999,276.93,355.601,269.533,346.507,269.533z"/>
				<path fill="#636363" d="M345.954,294.267c-4.716,0-7.446-2.092-7.559-2.178l1.209-1.555c0.021,0.021,2.35,1.762,6.35,1.762
					c4.029,0,6.604-1.771,6.629-1.789l1.138,1.605C353.599,292.207,350.644,294.267,345.954,294.267z"/>
				<circle fill="#636363" cx="340.246" cy="280.666" r="1.297"/>
				<circle fill="#636363" cx="352.612" cy="280.667" r="1.298"/>
				<path fill="#636363" d="M432.398,293.49c-0.022-0.021-2.599-1.791-6.626-1.791c-4,0-6.327,1.747-6.35,1.766l-1.209-1.555
					c0.113-0.088,2.84-2.176,7.559-2.176c4.689,0,7.645,2.064,7.77,2.15L432.398,293.49z"/>
				<circle fill="#636363" cx="420.065" cy="280.654" r="1.297"/>
				<circle fill="#636363" cx="432.431" cy="280.654" r="1.297"/>
			</g>
		</g>
	</g>
</g>
<g>
	<path fill="none" stroke="#656565" stroke-width="3" stroke-miterlimit="10" d="M681.798,331.738c0,0,5.951,44.704-24.949,68.25
		c-32.438,24.718-63.98,18.168-63.98,18.168"/>
	<polyline fill="none" stroke="#656565" stroke-width="3" stroke-linecap="square" stroke-miterlimit="10" points="603.489,430.48 
		592.257,418.037 604.316,407.179 	"/>
</g>
<path fill="#BFBFBF" d="M245.062,487.871c-0.108-7.727,6.688-14.574,14.759-14.49c7.637,0.078,14.557,6.68,14.442,14.842
	c-0.108,7.645-6.686,14.416-14.69,14.393C251.812,502.587,244.837,495.902,245.062,487.871z M262.995,487.117
	c-1.054-1.051-2.17-1.652-2.297-2.422c-0.172-1.025,0.792-1.625,1.987-1.646c0.307-0.006,0.89-0.732,0.836-1.039
	c-0.082-0.465-0.537-1.109-0.959-1.229c-2.43-0.678-4.432,0.9-4.491,3.516c-0.024,1.121-0.094,2.018-1.55,2.031
	c-0.275,0-0.782,0.467-0.77,0.695c0.027,0.482,0.201,1.1,0.545,1.385c0.417,0.342,1.071,0.395,1.838,0.641c0,1.998,0,4.057,0,6.074
	c0.918,0,1.617,0,2.447,0c0-1.369,0.108-2.59-0.026-3.783c-0.195-1.738,0.165-2.91,2.249-2.729
	C262.9,487.867,262.976,487.271,262.995,487.117z"/>
<path fill="#BFBFBF" d="M442.774,488.062c0.141,7.787-6.703,14.611-14.699,14.553c-7.712-0.059-14.589-6.705-14.502-14.787
	c0.084-7.719,6.706-14.447,14.635-14.447C436.036,473.378,442.971,480.101,442.774,488.062z M432.027,486.39
	c0.539-1.518-0.138-1.893-1.31-1.799c-1.441,0.115-1.971-0.586-1.814-1.938c0.186-1.611-0.418-2.303-1.513-1.971
	c-1.519,1.924-2.731,3.457-4.045,5.117c2.429,0.916,1.764,2.92,1.75,4.633c-0.03,3.729,1.881,5.256,5.151,4.77
	c0.918-0.137,1.729-0.994,2.588-1.521c-0.766-0.27-1.519-0.719-2.299-0.771c-1.088-0.078-1.754-0.473-1.582-1.557
	c0.254-1.611-0.938-3.479,0.793-4.822c0.172-0.137,0.525-0.025,0.795-0.043C431.011,486.466,431.478,486.427,432.027,486.39z"/>
<path fill="#BFBFBF" d="M386.063,502.58c-7.863,0.17-14.648-6.695-14.629-14.623c0.019-7.82,6.74-14.619,14.713-14.578
	c7.734,0.043,14.602,6.711,14.523,14.764C400.598,495.89,393.958,502.724,386.063,502.58z M385.85,494.775
	c0.018-0.111,0.035-0.225,0.051-0.332c1.554,0,3.108,0.051,4.66-0.018c2.121-0.09,3.577-1.592,3.622-3.691
	c0.038-1.822,0.038-3.648,0-5.473c-0.045-2.104-1.501-3.641-3.62-3.688c-3.037-0.068-6.08-0.074-9.116,0.006
	c-2.022,0.057-3.469,1.592-3.512,3.58c-0.042,1.955-0.184,3.938,0.073,5.859c0.128,0.959,0.869,2.348,1.646,2.607
	C381.624,494.291,383.771,494.425,385.85,494.775z"/>
<path fill="#BFBFBF" d="M455.769,487.986c0.049-7.969,6.577-14.562,14.616-14.537c7.905,0.023,14.552,6.557,14.493,14.654
	c-0.06,7.896-6.533,14.412-14.506,14.439C462.35,502.574,455.806,495.974,455.769,487.986z M461.864,487.841
	c0.115,0.021,0.229,0.039,0.342,0.059c0,1.215-0.026,2.43,0.007,3.643c0.071,2.711,1.889,4.521,4.632,4.57
	c2.359,0.041,4.723,0.045,7.082-0.006c2.619-0.055,4.46-1.881,4.515-4.475c0.047-2.426,0.047-4.857-0.003-7.287
	c-0.053-2.584-1.906-4.408-4.525-4.461c-2.357-0.049-4.722,0.021-7.08-0.023c-1.769-0.035-3.268,0.637-3.824,2.232
	C462.366,483.919,462.224,485.917,461.864,487.841z"/>
<path fill="#BFBFBF" d="M301.855,473.378c-8.007-0.025-14.583,6.75-14.69,14.391c-0.116,8.164,6.802,14.766,14.441,14.846
	c8.069,0.086,14.866-6.768,14.759-14.494C316.587,480.091,309.611,473.404,301.855,473.378z M308.022,487.371
	c-1.678,5.043-5.266,7.676-10.583,7.076c-0.929-0.105-1.823-0.52-2.733-0.791c0.057-0.15,0.112-0.303,0.167-0.453
	c1.004-0.34,2.01-0.678,3.226-1.088c-3.346-2.822-3.571-6.154-3.586-9.562c2.248,1.129,4.44,2.225,6.006,3.012
	c1.461-1.699,2.265-3.461,3.5-3.848c1.368-0.424,3.127,0.404,5.024,0.744C308.706,484.14,308.54,485.816,308.022,487.371z"/>
<path fill="#BFBFBF" d="M383.715,485.556c1.379,0.617,2.578,1.117,3.738,1.695c0.301,0.15,0.583,0.521,0.665,0.844
	c0.041,0.156-0.367,0.52-0.637,0.646c-1.171,0.561-2.366,1.07-3.766,1.691C383.715,488.806,383.715,487.267,383.715,485.556z"/>
<path fill="#BFBFBF" d="M470.351,481.488c1.279,0,2.559-0.02,3.835,0.006c1.694,0.029,2.612,0.922,2.641,2.605
	c0.039,2.557,0.037,5.113,0.007,7.674c-0.021,1.785-1.003,2.711-2.771,2.732c-2.491,0.027-4.979,0.027-7.469,0
	c-1.77-0.021-2.747-0.949-2.771-2.732c-0.034-2.492-0.026-4.98-0.009-7.471c0.02-1.895,1.049-2.803,2.901-2.822
	c1.211-0.014,2.424-0.002,3.634-0.002C470.351,481.48,470.351,481.486,470.351,481.488z M470.319,492.097
	c2.619,0.002,4.096-1.453,4.112-4.041c0.013-2.584-1.471-4.135-3.99-4.162c-2.713-0.027-4.226,1.457-4.217,4.143
	C466.236,490.634,467.708,492.093,470.319,492.097z"/>
<path fill="#BFBFBF" d="M467.821,487.976c-0.07-1.771,0.851-2.514,2.565-2.496c1.759,0.021,2.494,0.914,2.462,2.623
	c-0.031,1.658-0.865,2.395-2.479,2.406C468.651,490.527,467.745,489.763,467.821,487.976z"/>
<path fill="#BFBFBF" d="M344.326,473.386c-8.377-0.207-14.864,6.803-15.021,14.256c-0.177,8.33,6.825,14.834,14.308,14.971
	c8.246,0.15,14.937-6.801,14.89-14.363C358.756,479.992,351.731,473.57,344.326,473.386z M349.64,488.927
	c-0.392,0.824-0.894,1.562-1.633,2.117c-0.706,0.531-1.503,0.818-2.386,0.898c-0.72,0.062-1.394-0.061-2.014-0.432
	c-0.152-0.09-0.296-0.203-0.424-0.326c-0.124-0.117-0.22-0.266-0.348-0.422c-0.145,0.588-0.306,1.154-0.425,1.73
	c-0.313,1.508-1.001,2.834-1.94,4.035c-0.042,0.053-0.123,0.072-0.187,0.107c-0.033-0.061-0.09-0.121-0.096-0.188
	c-0.056-0.609-0.135-1.221-0.146-1.83c-0.016-0.949,0.145-1.881,0.363-2.801c0.325-1.363,0.671-2.715,1.011-4.072
	c0.032-0.131,0.02-0.242-0.023-0.373c-0.331-0.988-0.423-1.971,0.135-2.92c0.286-0.484,0.668-0.85,1.256-0.939
	c0.782-0.125,1.434,0.387,1.516,1.176c0.057,0.543-0.075,1.055-0.225,1.562c-0.174,0.594-0.38,1.178-0.535,1.773
	c-0.078,0.301-0.122,0.623-0.098,0.93c0.055,0.729,0.679,1.291,1.413,1.324c0.85,0.035,1.514-0.312,2.009-0.99
	c0.619-0.85,0.927-1.818,1.078-2.846c0.084-0.57,0.14-1.143,0.098-1.719c-0.103-1.414-0.785-2.459-2.107-2.979
	c-1.551-0.619-3.095-0.521-4.528,0.359c-1.214,0.742-1.913,1.854-2.093,3.279c-0.114,0.896,0.035,1.727,0.54,2.484
	c0.109,0.164,0.238,0.328,0.216,0.549c-0.035,0.35-0.115,0.684-0.303,0.982c-0.101,0.158-0.25,0.146-0.406,0.1
	c-0.383-0.119-0.697-0.342-0.967-0.635c-0.463-0.506-0.69-1.125-0.829-1.775c-0.479-2.213,0.115-4.086,1.821-5.584
	c1.271-1.115,2.775-1.664,4.451-1.766c1.479-0.09,2.872,0.199,4.106,1.033c1.658,1.113,2.514,2.68,2.47,4.701
	C350.382,486.681,350.158,487.835,349.64,488.927z"/>
</svg>
