<?xml version="1.0" encoding="utf-8"?>
<!-- Generator: Adobe Illustrator 16.0.0, SVG Export Plug-In . SVG Version: 6.00 Build 0)  -->
<!DOCTYPE svg PUBLIC "-//W3C//DTD SVG 1.1//EN" "http://www.w3.org/Graphics/SVG/1.1/DTD/svg11.dtd">
<svg version="1.1" id="Layer_1" xmlns="http://www.w3.org/2000/svg" xmlns:xlink="http://www.w3.org/1999/xlink" x="0px" y="0px"
	 width="175px" height="199px" viewBox="0 0 175 199" enable-background="new 0 0 175 199" xml:space="preserve">
<path fill="#6F90AB" d="M148.833,71.105c0,0-0.324-4.237-2.16-6.355l-0.706-0.66c-2.099-1.859-6.049-2.276-6.049-2.276
	s-37.878-0.063-40.466,0.007c-3.389,0.092-6.275,3.51-6.275,3.51l-62.346,63.856c-1.837,1.88-0.833,5.839,2.24,8.838l41.035,40.062
	c3.073,3.001,7.053,3.909,8.89,2.028l62.345-63.855c0,0,3.367-2.74,3.495-6.128C148.936,107.544,148.833,71.105,148.833,71.105z
	 M126.213,97.226c-5.148,0-9.315-4.171-9.315-9.315c0-5.143,4.167-9.315,9.315-9.315c5.147,0,9.314,4.172,9.314,9.315
	C135.527,93.055,131.36,97.226,126.213,97.226z"/>
<path fill="#7DBFD5" d="M134.033,33.609c0,0-0.324-4.238-2.16-6.356l-0.705-0.659c-2.099-1.859-6.051-2.276-6.051-2.276
	s-37.876-0.063-40.466,0.007c-3.388,0.092-6.275,3.51-6.275,3.51L16.03,91.692c-1.837,1.88-0.833,5.838,2.24,8.839l41.034,40.061
	c3.072,3.001,7.053,3.908,8.891,2.027l62.343-63.854c0,0,3.367-2.74,3.495-6.128C134.134,70.048,134.033,33.609,134.033,33.609z
	 M111.412,59.73c-5.147,0-9.314-4.172-9.314-9.315c0-5.144,4.167-9.315,9.314-9.315c5.148,0,9.315,4.172,9.315,9.315
	C120.726,55.558,116.561,59.73,111.412,59.73z"/>
</svg>
