<?xml version="1.0" encoding="utf-8"?>
<!-- Generator: Adobe Illustrator 16.0.0, SVG Export Plug-In . SVG Version: 6.00 Build 0)  -->
<!DOCTYPE svg PUBLIC "-//W3C//DTD SVG 1.1//EN" "http://www.w3.org/Graphics/SVG/1.1/DTD/svg11.dtd">
<svg version="1.1" id="Livello_1" xmlns="http://www.w3.org/2000/svg" xmlns:xlink="http://www.w3.org/1999/xlink" x="0px" y="0px"
	 width="209.75px" height="440px" viewBox="0 0 209.75 440" enable-background="new 0 0 209.75 440" xml:space="preserve">
<g>
	<g>
		<g>
			<path fill="#EFF0EE" d="M207.146,43.418c0,0-1.864-30.412-26.205-30.5H31.586c-24.34,0.089-26.204,30.5-26.204,30.5L5.378,67.101
				H4.227V83.93h1.151v19.132H4.227v31.001h1.151v6.578H4.227v31.412h1.151v227.695c0,0,1.864,30.412,26.204,30.5h149.357
				c24.34-0.088,26.203-30.5,26.203-30.5V133.542l2.344,0.008v-30.487h-2.467L207.146,43.418z"/>
			<path fill="#5E6065" d="M180.939,430.579H31.582C7.214,430.491,5.069,400.075,5.05,399.769L5.049,172.382H3.898v-32.068h1.151
				v-5.922H3.898v-31.658h1.151V84.259H3.898V66.772h1.151l0.004-23.354c0.019-0.327,2.165-30.741,26.531-30.83h149.357
				c24.369,0.089,26.515,30.502,26.533,30.81l-0.127,59.335h2.469v31.146l-2.346-0.008v265.877
				C207.453,400.075,205.309,430.491,180.939,430.579z M4.556,171.724h1.152v228.025c0.018,0.281,2.127,30.086,25.876,30.172
				h149.355l0,0c23.758-0.086,25.856-29.891,25.875-30.19V133.212l2.344,0.008v-29.828h-2.469l0.129-59.974
				c-0.019-0.28-2.129-30.084-25.877-30.171H31.586C7.838,13.333,5.729,43.138,5.71,43.439L5.708,67.43H4.556v16.171h1.152v19.791
				H4.556v30.344h1.152v7.234H4.556V171.724z"/>
		</g>
		<path fill="#5E6065" d="M197.584,380.411H16.733V61.4h180.851V380.411z M17.391,379.753h179.536V62.058H17.391V379.753z"/>
		<path fill="#EEEEEE" d="M106.857,420.446c-9.19,0-16.667-7.476-16.667-16.664c0-9.189,7.476-16.666,16.667-16.666
			c9.188,0,16.664,7.477,16.664,16.666C123.521,412.971,116.046,420.446,106.857,420.446z M106.857,389.091
			c-8.103,0-14.692,6.591-14.692,14.691s6.591,14.69,14.692,14.69c8.1,0,14.69-6.59,14.69-14.69S114.957,389.091,106.857,389.091z"
			/>
	</g>
	<g>
		<g>
			<rect x="17.391" y="62.058" fill="#FFFFFF" width="179.536" height="317.695"/>
			<path fill="#FFFFFF" d="M209.157,103.392h-2.468l0.127-59.974c-0.018-0.28-2.127-30.084-25.875-30.171H31.586
				C7.838,13.333,5.729,43.138,5.71,43.439L5.708,67.43H4.556v16.171h1.152v19.791H4.556v30.344h1.152v7.234H4.556v30.754h1.152
				v228.025c0.018,0.281,2.127,30.086,25.876,30.172h149.355c23.758-0.086,25.856-29.891,25.875-30.191V133.212l2.344,0.008
				L209.157,103.392L209.157,103.392z M197.584,380.411H16.733V61.4h180.851V380.411z"/>
		</g>
		<path fill="#EEEEEE" d="M106.857,420.446c-9.19,0-16.667-7.476-16.667-16.664c0-9.189,7.476-16.666,16.667-16.666
			c9.188,0,16.664,7.477,16.664,16.666C123.521,412.971,116.046,420.446,106.857,420.446z M106.857,389.091
			c-8.103,0-14.692,6.591-14.692,14.691s6.591,14.69,14.692,14.69c8.1,0,14.69-6.59,14.69-14.69S114.957,389.091,106.857,389.091z"
			/>
	</g>
</g>
<path fill="#2E3192" d="M106.857,357.594"/>
<path fill="#2E3192" d="M106.857,422.181"/>
<path fill="#2B2B2B" d="M125.094,40.238c0,1.958-1.588,3.546-3.547,3.546H92.169c-1.959,0-3.547-1.588-3.547-3.546l0,0
	c0-1.958,1.588-3.546,3.547-3.546h29.378C123.506,36.692,125.094,38.281,125.094,40.238L125.094,40.238z"/>
<path fill="#212121" d="M110.645,22.75c0,2.091-1.694,3.786-3.785,3.786l0,0c-2.091,0-3.788-1.694-3.788-3.786l0,0
	c0-2.092,1.695-3.786,3.788-3.786l0,0C108.949,18.963,110.645,20.658,110.645,22.75L110.645,22.75z"/>
<path fill="#5E6065" d="M132.395-59.318c0,1.15-1.119,2.083-2.5,2.083H86.912c-1.381,0-2.5-0.933-2.5-2.083l0,0
	c0-1.151,1.119-2.083,2.5-2.083h42.982C131.275-61.402,132.395-60.469,132.395-59.318L132.395-59.318z"/>
<circle fill="#5E6065" cx="107.77" cy="-78.86" r="3.375"/>
<circle fill="#5E6065" cx="58.835" cy="-59.069" r="5"/>
</svg>
