<?xml version="1.0" encoding="utf-8"?>
<!-- Generator: Adobe Illustrator 16.0.0, SVG Export Plug-In . SVG Version: 6.00 Build 0)  -->
<!DOCTYPE svg PUBLIC "-//W3C//DTD SVG 1.1//EN" "http://www.w3.org/Graphics/SVG/1.1/DTD/svg11.dtd">
<svg version="1.1" id="Layer_1" xmlns="http://www.w3.org/2000/svg" xmlns:xlink="http://www.w3.org/1999/xlink" x="0px" y="0px"
	 width="200px" height="200px" viewBox="0 0 200 200" enable-background="new 0 0 200 200" xml:space="preserve">
<g>
	<defs>
		<rect id="SVGID_1_" x="15.9" y="49.418" width="168.199" height="145.789"/>
	</defs>
	<clipPath id="SVGID_2_">
		<use xlink:href="#SVGID_1_"  overflow="visible"/>
	</clipPath>
	<path clip-path="url(#SVGID_2_)" fill="#7190AB" d="M184.074,63.451c-0.005-7.909-6.177-14.019-14.089-14.019
		c-46.668-0.019-93.342-0.021-140.012,0.029c-1.733,0-3.557,0.351-5.185,0.96c-5.506,2.054-8.882,7.23-8.887,13.337
		c-0.003,31.394,0,62.789-0.001,94.179c0,8.817,5.955,14.8,14.741,14.8c15.089,0.004,22.483,0.021,37.574,0.021h2.068
		c-0.718,2.622-1.19,5.003-2.033,7.245c-0.966,2.565-2.313,4.992-3.411,7.514c-1.251,2.902-5.971,6.94,2.193,7.66
		c1.077,0.073,2.593-0.011,3.552-0.011h58.819c0.958,0,2.479,0.084,3.552,0.011c8.167-0.72,3.442-4.758,2.191-7.66
		c-1.094-2.521-2.443-4.948-3.408-7.514c-0.844-2.242-1.313-4.623-2.035-7.245l0.227-0.017h1.822c15.227,0,22.955,0.016,38.183-0.01
		c7.909-0.012,14.13-6.118,14.14-13.98C184.108,126.984,184.104,95.218,184.074,63.451 M164.933,168.583
		c-2.476,0-4.487-2.01-4.487-4.487s2.012-4.485,4.487-4.485c2.473,0,4.483,2.008,4.483,4.485S167.405,168.583,164.933,168.583
		 M172.886,150.922c0,3.325-0.835,4.179-4.105,4.179H31.303c-3.393,0-4.202-0.811-4.202-4.221V66.315
		c-0.003-3.237,0.834-4.087,4.035-4.087c22.986-0.001,45.968-0.001,68.95-0.001c22.935,0,45.873,0,68.809,0.001
		c3.12,0,3.992,0.878,3.992,3.988C172.886,89.668,172.886,127.468,172.886,150.922"/>
</g>
</svg>
