<?xml version="1.0" encoding="utf-8"?>
<!-- Generator: Adobe Illustrator 16.0.0, SVG Export Plug-In . SVG Version: 6.00 Build 0)  -->
<!DOCTYPE svg PUBLIC "-//W3C//DTD SVG 1.1//EN" "http://www.w3.org/Graphics/SVG/1.1/DTD/svg11.dtd">
<svg version="1.1" id="Layer_1" xmlns="http://www.w3.org/2000/svg" xmlns:xlink="http://www.w3.org/1999/xlink" x="0px" y="0px"
	 width="200px" height="200px" viewBox="0 0 200 200" enable-background="new 0 0 200 200" xml:space="preserve">
<circle fill="#FFFFFF" stroke="#7EBED5" stroke-width="6" stroke-miterlimit="10" cx="100.75" cy="99.75" r="92.25"/>
<path fill="none" stroke="#7EBED5" stroke-width="4" stroke-miterlimit="10" d="M160.724,62.121c-0.002-5.642-4.404-10-10.049-10
	c-33.291-0.014-66.585-0.015-99.878,0.021c-1.236,0-2.537,0.251-3.698,0.686c-3.928,1.465-6.337,5.157-6.339,9.514
	c-0.003,22.395,0,44.791-0.002,67.183c0,6.29,4.248,10.559,10.516,10.559c10.765,0.001,16.04,0.014,26.804,0.014h1.474
	c-0.51,1.87-0.847,3.569-1.449,5.169c-0.688,1.83-1.65,3.561-2.433,5.36c-0.893,2.069-4.26,4.949,1.564,5.465
	c0.767,0.052,1.85-0.009,2.534-0.009h41.958c0.684,0,1.766,0.061,2.533,0.009c5.826-0.516,2.457-3.396,1.564-5.465
	c-0.779-1.8-1.744-3.53-2.43-5.36c-0.605-1.6-0.939-3.299-1.455-5.169l0.164-0.013h1.299c10.863,0,16.375,0.012,27.238-0.007
	c5.641-0.007,10.08-4.364,10.084-9.973C160.749,107.443,160.747,84.782,160.724,62.121 M100.751,136.542
	c-1.122,0-2.031-0.908-2.031-2.031c0-1.12,0.909-2.029,2.031-2.029c1.119,0,2.027,0.909,2.027,2.029
	C102.778,135.634,101.87,136.542,100.751,136.542 M152.745,124.519c0,2.372-0.596,2.981-2.928,2.981H51.745
	c-2.42,0-2.996-0.578-2.996-3.01V64.164c-0.003-2.31,0.595-2.916,2.877-2.916c16.398-0.001,32.792-0.001,49.186-0.001
	c16.361,0,32.724,0,49.085,0.001c2.227,0,2.85,0.627,2.85,2.845C152.745,80.824,152.745,107.788,152.745,124.519"/>
<path fill-rule="evenodd" clip-rule="evenodd" fill="#7EBED5" d="M137.824,78.485v13.193c-0.003,0.33-0.062,0.715-0.235,0.979
	c-0.401,0.6-1.107,0.584-1.697,0.003c-1.22-1.207-2.433-2.426-3.643-3.644c-0.126-0.128-0.291-0.311-0.396-0.46l-0.516,0.511
	c-6.906,6.918-11.768,11.577-18.68,18.485c-0.155,0.155-0.304,0.317-0.474,0.458L89.597,95.799l-23.998,14.887l-3.424-5.368
	l27.233-17.062l22.277,12.115c5.358-5.324,10.666-10.597,16.02-15.917c-0.701-0.693-1.399-1.382-2.094-2.074
	c-0.688-0.683-1.374-1.366-2.055-2.055c-0.323-0.326-0.438-0.705-0.248-1.149c0.193-0.453,0.534-0.679,1.021-0.688
	c0.146-0.003,0.293-0.003,0.438-0.003H137.824z"/>
</svg>
