<?xml version="1.0" encoding="utf-8"?>
<!-- Generator: Adobe Illustrator 16.0.0, SVG Export Plug-In . SVG Version: 6.00 Build 0)  -->
<!DOCTYPE svg PUBLIC "-//W3C//DTD SVG 1.1//EN" "http://www.w3.org/Graphics/SVG/1.1/DTD/svg11.dtd">
<svg version="1.1" id="Layer_1" xmlns="http://www.w3.org/2000/svg" xmlns:xlink="http://www.w3.org/1999/xlink" x="0px" y="0px"
	 width="360px" height="360px" viewBox="0 0 360 360" enable-background="new 0 0 360 360" xml:space="preserve">
<g>
	<g>
		<g>
			<path fill="#76B3CE" d="M225.148,62.183c-22.559-17.684-45.297-35.979-68.303-55.099c-17.463,17.508-35.054,35.871-52.705,54.871
				C144.447,61.758,184.768,61.832,225.148,62.183z"/>
			<path fill="#76B3CE" d="M314.734,138.71c-0.634-5.942-3.662-11.145-7.795-14.551c0.029-0.041,0.066-0.078,0.127-0.116
				c-14.92-10.794-29.989-22.029-45.073-33.48c3.141,25.337,6.042,50.608,8.43,75.707l-87.542,59.795L82.693,178.218
				c-2.499-27.598-5.55-55.367-8.803-83.2c-11.839,13.182-23.722,26.576-35.688,40.41c0.104,0.104,0.179,0.213,0.313,0.321
				c-3.163,4.405-4.856,10.775-4.163,17.836c5.64,57.74,9.66,114.98,12.062,171.653c0.492,12.473,8.198,21.127,17.3,19.44
				c52.838-10.004,105.677-19.53,158.53-28.571c16.137,13.211,32.131,25.931,48.005,38.038c-0.052-15.121-0.246-30.258-0.574-45.438
				c13.577-2.178,27.146-4.342,40.731-6.52c9.086-1.44,16.091-10.937,15.568-21.194C323.567,234.048,319.845,186.588,314.734,138.71
				z M67.521,300.665c-2.142-42.805-5.2-85.923-9.213-129.344c27.08,17.654,53.95,34.438,80.604,50.344
				c-22.977,27.385-46.237,55.964-69.84,85.722C68.191,305.41,67.647,303.127,67.521,300.665z M292.004,282.575
				c-12.145,1.753-24.289,3.521-36.434,5.318c0.515,10.877,1.021,21.724,1.425,32.548c-9.862-9.205-19.784-18.627-29.758-28.25
				c-48.311,7.28-96.613,15.023-144.939,23.08c-3.201,0.522-6.192-0.246-8.639-2.073c24.334-30.467,48.266-59.739,71.921-87.773
				c12.943,7.788,25.833,15.263,38.68,22.573c11.741-10.34,23.409-20.455,35.106-30.287c27.363,21.477,54.375,41.604,81.074,60.56
				C298.188,280.538,295.242,282.135,292.004,282.575z M304.38,272.034c-26.02-18.561-52.323-38.255-78.985-59.157
				c23.834-19.963,47.535-38.989,71.123-57.023c3.7,37.031,6.587,73.809,8.705,110.287
				C305.305,268.192,305.021,270.146,304.38,272.034z"/>
			<path fill="#76B3CE" d="M233.697,108.714c0.074,0.664-2.73,1.283-6.266,1.373c-38.412,0.955-76.86,2.163-115.256,3.606
				c-3.529,0.131-6.468-0.358-6.52-1.093c-0.902-8.02-1.835-16.05-2.805-24.084c-0.09-0.743,2.7-1.399,6.214-1.474
				c38.441-0.798,76.904-1.339,115.397-1.645c3.544-0.022,6.483,0.503,6.565,1.186C231.952,93.962,232.84,101.34,233.697,108.714z"
				/>
		</g>
		<path fill="#76B3CE" d="M186.439,174.376c0.156,1.646-1.373,3.111-3.365,3.286c-21.917,1.787-43.834,3.659-65.736,5.621
			c-2.015,0.156-3.753-1.097-3.939-2.797c-1.82-18.844-3.819-37.74-6.013-56.703c-0.179-1.757,1.261-3.245,3.312-3.338
			c21.917-1.082,43.879-2.07,65.841-2.977c2.051-0.086,3.857,1.205,4.029,2.857C182.693,138.397,184.648,156.42,186.439,174.376z"/>
		<path fill="#76B3CE" d="M241.061,170.445c0.164,1.582-0.724,2.954-1.962,3.055c-13.525,1.007-27.058,2.055-40.575,3.129
			c-1.245,0.086-2.387-1.16-2.543-2.778c-1.783-17.845-3.738-35.752-5.894-53.715c-0.202-1.66,0.649-3.043,1.902-3.088
			c13.555-0.533,27.102-1.029,40.664-1.503c1.245-0.048,2.387,1.227,2.596,2.809C237.383,135.786,239.308,153.149,241.061,170.445z"
			/>
	</g>
</g>
<g>
	<g>
		<g>
			<g>
				<path fill="#EDEDEE" d="M69.087,307.372c-0.88-1.978-1.44-4.26-1.552-6.722c-2.141-42.805-5.2-85.924-9.213-129.344
					c27.079,17.654,53.95,34.438,80.604,50.343C115.942,249.027,92.683,277.614,69.087,307.372z"/>
				<path fill="#EDEDEE" d="M145.596,225.41c12.943,7.758,25.834,15.263,38.68,22.573c11.742-10.34,23.417-20.478,35.106-30.295
					c27.363,21.462,54.376,41.589,81.074,60.567c-2.268,2.268-5.222,3.864-8.444,4.297c-12.145,1.746-24.289,3.521-36.435,5.318
					c0.522,10.877,1.022,21.724,1.425,32.548c-9.861-9.205-19.783-18.62-29.758-28.235c-48.317,7.258-96.628,15.017-144.931,23.073
					c-3.2,0.522-6.192-0.246-8.639-2.073C98.001,282.717,121.948,253.444,145.596,225.41z"/>
				<path fill="#EDEDEE" d="M225.402,212.862c23.834-19.963,47.534-38.989,71.123-57.024c3.699,37.031,6.587,73.808,8.697,110.288
					c0.112,2.073-0.179,4.006-0.82,5.894C278.36,253.459,252.071,233.765,225.402,212.862z"/>
			</g>
		</g>
	</g>
</g>
<g>
	<g>
		<g>
			<g>
				<g>
					<g>
						<path fill="#EDEDEE" d="M261.739,149.658c-12.032-0.839-24.058-1.705-36.113-2.566c-10.063-5.256-23.044,7.922-47.766,9.5
							c-25.05,1.492-42.73,10.537-51.429,17.848c-10.75,0.746-21.514,1.488-32.271,2.268c0.41,4.509,0.791,9.031,1.194,13.529
							c29.407,12.645,58.649,24.588,87.758,35.814c26.312-16.396,52.548-31.995,78.747-46.792
							C261.881,169.39,261.844,159.527,261.739,149.658z"/>
					</g>
					<g>
						<g>
							<path fill="#EDEDEE" d="M270.661,166.271c-3.29-34.398-7.266-69.03-11.936-103.865
								c-62.917-0.771-125.737-0.895-188.505-0.361c4.998,38.944,9.235,77.684,12.719,116.166"/>
							<g>
								<path fill="#EDEDEE" d="M274.048,173.537c-4.654,2.324-9.302,4.644-13.965,7.009c-3.319-36.326-7.4-72.925-12.257-109.736
									c-54.853-0.276-109.646-0.056-164.394,0.664c5.043,39.989,9.265,79.773,12.712,119.277
									c-4.841-2.499-9.706-5.021-14.54-7.564c-3.856-42.115-8.602-84.536-14.264-127.222
									c64.551-0.228,129.191,0.231,193.906,1.361C266.372,96.315,270.632,135.051,274.048,173.537z"/>
							</g>
						</g>
						<path fill="#76B3CE" d="M233.951,108.699c0.074,0.664-2.723,1.283-6.267,1.373c-38.434,0.955-76.859,2.164-115.256,3.607
							c-3.528,0.138-6.468-0.358-6.527-1.093c-0.902-8.02-1.835-16.058-2.805-24.077c-0.104-0.75,2.7-1.406,6.229-1.474
							c38.433-0.798,76.897-1.346,115.39-1.645c3.544-0.03,6.482,0.496,6.55,1.175C232.198,93.955,233.086,101.317,233.951,108.699z
							"/>
					</g>
				</g>
			</g>
		</g>
		<path fill="#76B3CE" d="M186.686,174.361c0.164,1.652-1.351,3.111-3.35,3.293c-21.918,1.779-43.835,3.66-65.729,5.614
			c-2.022,0.156-3.782-1.097-3.946-2.798c-1.82-18.844-3.82-37.732-6.013-56.703c-0.202-1.75,1.261-3.245,3.29-3.338
			c21.947-1.093,43.909-2.07,65.871-2.987c2.037-0.082,3.827,1.208,4.021,2.864C182.947,138.382,184.902,156.401,186.686,174.361z"
			/>
		<path fill="#76B3CE" d="M241.314,170.43c0.156,1.578-0.725,2.954-1.963,3.055c-13.531,1-27.057,2.055-40.582,3.122
			c-1.245,0.086-2.379-1.152-2.543-2.778c-1.769-17.844-3.723-35.752-5.871-53.712c-0.194-1.656,0.648-3.04,1.902-3.084
			c13.539-0.533,27.102-1.029,40.664-1.507c1.246-0.044,2.395,1.231,2.596,2.812C237.629,135.771,239.554,153.142,241.314,170.43z"
			/>
	</g>
</g>
</svg>
