<?xml version="1.0" encoding="utf-8"?>
<!-- Generator: Adobe Illustrator 16.0.0, SVG Export Plug-In . SVG Version: 6.00 Build 0)  -->
<!DOCTYPE svg PUBLIC "-//W3C//DTD SVG 1.1//EN" "http://www.w3.org/Graphics/SVG/1.1/DTD/svg11.dtd">
<svg version="1.1" id="Layer_1" xmlns="http://www.w3.org/2000/svg" xmlns:xlink="http://www.w3.org/1999/xlink" x="0px" y="0px"
	 width="360px" height="360px" viewBox="0 0 360 360" enable-background="new 0 0 360 360" xml:space="preserve">
<g>
	<g>
		<g>
			<path fill="#848B9F" d="M225.359,61.626C202.695,43.859,179.85,25.478,156.72,6.268c-17.538,17.591-35.204,36.04-52.944,55.129
				C144.279,61.199,184.789,61.273,225.359,61.626z"/>
			<path fill="#848B9F" d="M315.367,138.513c-0.637-5.97-3.68-11.197-7.817-14.619c0.03-0.042,0.067-0.079,0.112-0.116
				c-14.99-10.846-30.114-22.133-45.284-33.638c3.155,25.457,6.07,50.846,8.47,76.063l-87.953,60.076L82.236,178.207
				c-2.511-27.728-5.562-55.627-8.844-83.591c-11.895,13.244-23.834,26.701-35.856,40.6c0.105,0.105,0.195,0.214,0.315,0.322
				c-3.178,4.426-4.879,10.827-4.183,17.92c5.667,58.013,9.706,115.521,12.12,172.46c0.51,12.531,8.252,21.227,17.381,19.532
				c53.087-10.052,106.174-19.622,159.276-28.706c16.212,13.273,32.281,26.037,48.229,38.217
				c-0.053-15.191-0.247-30.398-0.577-45.652c13.642-2.188,27.274-4.36,40.924-6.551c9.129-1.445,16.166-10.986,15.642-21.293
				C324.241,234.299,320.501,186.616,315.367,138.513z M66.991,301.229c-2.151-43.006-5.224-86.326-9.257-129.952
				c27.207,17.737,54.204,34.601,80.983,50.581c-23.084,27.514-46.454,56.228-70.168,86.125
				C67.666,305.996,67.118,303.703,66.991,301.229z M292.529,283.055c-12.201,1.762-24.403,3.537-36.604,5.344
				c0.532,10.929,1.026,21.826,1.433,32.701c-9.909-9.25-19.877-18.716-29.905-28.385c-48.538,7.314-97.067,15.096-145.605,23.189
				c-3.215,0.525-6.221-0.247-8.679-2.084c24.434-30.609,48.492-60.021,72.259-88.187c13.004,7.81,25.955,15.335,38.861,22.681
				c11.797-10.389,23.534-20.551,35.271-30.431c27.492,21.563,54.631,41.8,81.457,60.845
				C298.743,281.008,295.783,282.611,292.529,283.055z M304.964,272.464c-26.144-18.647-52.569-38.435-79.356-59.437
				c23.947-20.057,47.759-39.171,71.457-57.292c3.719,37.206,6.619,74.157,8.731,110.806
				C305.895,268.604,305.607,270.566,304.964,272.464z"/>
			<path fill="#848B9F" d="M233.949,108.376c0.074,0.667-2.743,1.289-6.297,1.379c-38.605,0.959-77.22,2.174-115.796,3.624
				c-3.545,0.131-6.498-0.36-6.566-1.098c-0.907-8.057-1.844-16.125-2.818-24.198c-0.09-0.746,2.713-1.405,6.258-1.48
				c38.622-0.802,77.266-1.345,115.939-1.653c3.562-0.022,6.515,0.506,6.597,1.192C232.195,93.555,233.087,100.967,233.949,108.376z
				"/>
		</g>
		<path fill="#848B9F" d="M186.469,174.347c0.157,1.653-1.363,3.125-3.381,3.302c-22.02,1.795-44.04,3.676-66.045,5.647
			c-2.024,0.161-3.785-1.104-3.958-2.814c-1.829-18.929-3.837-37.913-6.041-56.966c-0.195-1.765,1.267-3.26,3.313-3.354
			c22.035-1.087,44.101-2.08,66.166-2.991c2.046-0.086,3.86,1.21,4.047,2.871C182.706,138.198,184.67,156.307,186.469,174.347z"/>
		<path fill="#848B9F" d="M241.348,170.397c0.164,1.589-0.728,2.968-1.972,3.069c-13.589,1.012-27.185,2.065-40.767,3.144
			c-1.252,0.086-2.397-1.166-2.555-2.792c-1.791-17.928-3.756-35.92-5.906-53.968c-0.203-1.667,0.651-3.058,1.91-3.103
			c13.618-0.536,27.229-1.035,40.855-1.511c1.251-0.048,2.413,1.233,2.607,2.822C237.65,135.575,239.586,153.02,241.348,170.397z"/>
	</g>
</g>
</svg>
