<?xml version="1.0" encoding="utf-8"?>
<!-- Generator: Adobe Illustrator 16.0.0, SVG Export Plug-In . SVG Version: 6.00 Build 0)  -->
<!DOCTYPE svg PUBLIC "-//W3C//DTD SVG 1.1//EN" "http://www.w3.org/Graphics/SVG/1.1/DTD/svg11.dtd">
<svg version="1.1" id="Layer_1" xmlns="http://www.w3.org/2000/svg" xmlns:xlink="http://www.w3.org/1999/xlink" x="0px" y="0px"
	 width="144px" height="144px" viewBox="0 0 144 144" enable-background="new 0 0 144 144" xml:space="preserve">
<circle opacity="0.75" fill="#FFFFFF" enable-background="new    " cx="72" cy="72" r="72"/>
<g opacity="0.75" enable-background="new    ">
	<path fill="#4192B6" d="M62.143,105.417c0-3.308,0.886-5.809,2.659-7.502c1.772-1.693,4.351-2.54,7.739-2.54
		c3.268,0,5.798,0.866,7.591,2.599c1.792,1.733,2.688,4.215,2.688,7.443c0,3.112-0.907,5.563-2.719,7.355s-4.332,2.688-7.561,2.688
		c-3.309,0-5.869-0.877-7.68-2.629C63.049,111.079,62.143,108.607,62.143,105.417z M79.807,85.214H65.393l-3.013-57.717H82.82
		L79.807,85.214z"/>
</g>
</svg>
