<?xml version="1.0" encoding="utf-8"?>
<!-- Generator: Adobe Illustrator 16.0.0, SVG Export Plug-In . SVG Version: 6.00 Build 0)  -->
<!DOCTYPE svg PUBLIC "-//W3C//DTD SVG 1.1//EN" "http://www.w3.org/Graphics/SVG/1.1/DTD/svg11.dtd">
<svg version="1.1" id="Layer_1" xmlns="http://www.w3.org/2000/svg" xmlns:xlink="http://www.w3.org/1999/xlink" x="0px" y="0px"
	 width="54px" height="54px" viewBox="0 0 54 54" enable-background="new 0 0 54 54" xml:space="preserve">
<path fill="#FFFFFF" d="M12.084,40.213c-0.123-0.279-0.204-0.578-0.23-0.894c-0.488-5.524-1.086-11.047-1.794-16.575
	c3.952,2.417,7.681,4.941,11.233,7.471C18.039,33.615,14.995,36.978,12.084,40.213z"/>
<g>
</g>
<g>
	<g>
		<path fill="#4393B8" d="M5.437,20.004c1.216,7.598,2.193,15.19,2.934,22.783c0.165,1.66,1.263,3.062,2.468,3.121
			c7.314,0.318,14.633,0.352,21.959,0.107c1.987,2.34,3.915,4.633,5.804,6.855c0.093-2.355,0.201-4.715,0.32-7.072
			c1.583-0.084,3.169-0.182,4.752-0.293c1.208-0.086,2.3-1.484,2.457-3.117c0.698-7.45,1.624-14.896,2.77-22.339
			c0.261-1.631-0.695-3.012-2.147-3.078c-13.085-0.56-26.152-0.583-39.204-0.09C6.103,16.938,5.163,18.341,5.437,20.004z"/>
		<path fill="#FFFFFF" d="M11.357,41.006c-0.13-0.291-0.217-0.613-0.247-0.947c-0.517-5.851-1.15-11.708-1.901-17.569
			c4.188,2.565,8.143,5.238,11.908,7.923C17.667,34.014,14.44,37.581,11.357,41.006z"/>
		<path fill="#FFFFFF" d="M13.2,42.436c-0.429-0.01-0.841-0.199-1.186-0.51c3.17-3.515,6.491-7.175,10.043-10.869
			c1.815,1.314,3.586,2.631,5.318,3.939c1.734-1.332,3.508-2.666,5.325-3.99c3.572,3.635,6.913,7.198,10.103,10.58
			c-0.348,0.32-0.763,0.523-1.205,0.547C32.125,42.59,22.659,42.693,13.2,42.436z"/>
		<path fill="#FFFFFF" d="M33.638,30.36c3.745-2.698,7.683-5.354,11.855-7.871c-0.714,5.756-1.317,11.51-1.808,17.262
			c-0.027,0.32-0.108,0.626-0.231,0.912C40.352,37.368,37.104,33.899,33.638,30.36z"/>
		<path fill="#4393B8" d="M45.374,20.101c-6.544,0.045-13.049,0.209-19.517,0.468c-5.703-0.239-11.436-0.409-17.191-0.49
			c-0.87-0.824-1.756-1.644-2.659-2.454c6.16-5.479,13.018-11.176,20.878-16.496c8.012,5.492,15.001,11.268,21.283,16.729
			C47.221,18.596,46.29,19.344,45.374,20.101z"/>
		<g>
			<g>
				<path fill="#FFFFFF" d="M39.892,22.614c-1.796-0.07-3.592-0.133-5.391-0.193c-0.788,2.854-3.828-0.689-7.413-0.67
					c-3.633,0.012-6.874,3.622-7.647,0.692c-1.638,0.004-3.274,0.013-4.911,0.025c0.086,0.98,0.171,1.959,0.254,2.939
					c4.376,2.07,8.566,4.204,12.604,6.311c3.917-2.035,7.979-4.07,12.212-6.024C39.694,24.667,39.792,23.64,39.892,22.614z"/>
			</g>
			<g>
				<g>
					<path fill="#FFFFFF" d="M41.256,23.802c0.488-5.324,1.047-10.652,1.678-15.987C32.307,7.223,21.689,7.168,11.082,7.642
						c0.691,5.333,1.304,10.66,1.84,15.981"/>
					<path fill="#626464" d="M41.15,24.976c-0.714,0.325-1.423,0.653-2.127,0.983c0.411-5.441,0.883-10.888,1.42-16.343
						c-8.894-0.36-17.774-0.366-26.641-0.029c0.573,5.366,1.079,10.725,1.52,16.075c-0.767-0.369-1.539-0.735-2.316-1.099
						c-0.555-5.634-1.195-11.274-1.924-16.922C21.69,7.168,32.308,7.223,42.934,7.815C42.257,13.541,41.662,19.262,41.15,24.976z"/>
				</g>
				<path fill="#A3A0A8" d="M37.2,14.949c-0.008,0.104-0.472,0.176-1.039,0.163c-6.15-0.142-12.297-0.155-18.441-0.04
					c-0.566,0.009-1.032-0.064-1.039-0.169c-0.092-1.132-0.187-2.264-0.282-3.396c-0.009-0.104,0.455-0.201,1.035-0.215
					c6.317-0.14,12.639-0.117,18.964,0.07c0.584,0.017,1.05,0.116,1.042,0.219C37.356,12.705,37.277,13.827,37.2,14.949z"/>
			</g>
		</g>
	</g>
</g>
<g>
	<path fill="#2C73AE" d="M26.968,16.381c-4.199-0.005-7.399,2.743-7.179,6.05c0.216,3.299,3.446,5.969,7.237,5.959
		c3.793-0.023,7.002-2.694,7.188-5.97C34.403,19.14,31.165,16.397,26.968,16.381z M27.026,26.403c-2.538,0.007-4.7-1.78-4.844-3.987
		c-0.148-2.212,1.994-4.051,4.803-4.048c2.81,0.01,4.975,1.845,4.85,4.041C31.71,24.602,29.563,26.388,27.026,26.403z"/>
	<polygon fill="#2B73AF" points="23.845,27.41 22.363,26.102 30.331,17.57 31.813,18.877 	"/>
</g>
</svg>
