<?xml version="1.0" encoding="utf-8"?>
<!-- Generator: Adobe Illustrator 16.0.0, SVG Export Plug-In . SVG Version: 6.00 Build 0)  -->
<!DOCTYPE svg PUBLIC "-//W3C//DTD SVG 1.1//EN" "http://www.w3.org/Graphics/SVG/1.1/DTD/svg11.dtd">
<svg version="1.1" id="Layer_1" xmlns="http://www.w3.org/2000/svg" xmlns:xlink="http://www.w3.org/1999/xlink" x="0px" y="0px"
	 width="343.743px" height="244.863px" viewBox="0 0 343.743 244.863" enable-background="new 0 0 343.743 244.863"
	 xml:space="preserve">
<g>
	<g id="cBxW1J_1_">
		<g opacity="0.75">
			<path fill="#383234" d="M108.82,55.428c-1.029-1.408-2.172-0.445-3.116,0c-10.542,4.969-19.954,11.508-28.456,18.91
				C64.464,85.47,53.963,98.236,46.626,113.102c-8.153,16.517-12.62,33.693-12.779,51.82c-0.02,2.307,0.479,3.314,3.278,3.129
				c8.476-0.568,16.98-0.275,25.466-0.494c2.554-0.064,5.197,0.293,7.713-0.5c21.783-0.125,43.56,0.068,65.349-0.277
				c25.17-0.395,50.361-0.459,75.553,0.238c20.387,0.568,40.807,0.076,61.213,0.057c0.664,0.162,1.324,0.453,1.992,0.473
				c10.469,0.328,20.959-0.205,31.415,0.607c2.639,0.209,3.135-0.875,3.147-3.027c0.09-15.201-3.11-29.836-8.985-43.995
				c-8.221-19.812-21.295-36.541-38.853-50.377c-7.338-5.783-15.089-11.032-23.669-15.188c-1.01-0.489-2.295-1.905-3.553-0.15
				c-1.353-0.751-2.671-1.567-4.068-2.244c-6.314-3.06-13.013-5.204-19.846-7.082c-5.861-1.61-11.814-2.792-17.808-3.84
				c-9.97-1.742-20.068-0.94-30.116-1.141c-4.523-0.091-8.852,0.983-13.262,1.555c-5.857,0.762-11.518,2.29-17.192,3.823
				C123.61,48.647,115.886,51.307,108.82,55.428z"/>
			<path fill="#383234" d="M255.773,167.108c-17.042,0.02-34.101,0.43-51.127-0.045c-21.042-0.584-42.084-0.529-63.108-0.201
				c-18.201,0.291-36.39,0.127-54.584,0.232c0.287-2.572,0.272-5.158,0.539-7.738c1.119-10.84,4.468-21.006,10.3-30.508
				c7.811-12.727,18.641-22.719,32.541-29.888c2.062-1.062,2.235-2.062,1.18-3.812c-2.054-3.393-3.948-6.865-5.909-10.305
				c0.761-0.022,1.405-0.282,2.101-0.591c4.356-1.938,8.731-3.818,13.432-5.038c4.246-1.101,8.45-2.21,12.842-2.868
				c4.825-0.726,9.647-1.417,14.513-1.58c8.714-0.292,17.288,0.729,25.774,2.625c5.111,1.144,10.094,2.485,14.967,4.359
				c2.632,1.013,4.976,2.696,7.901,3.076c-2.001,3.502-4.025,6.995-5.984,10.516c-0.658,1.181-1.259,2.427,0.62,3.284
				c5.493,2.504,10.25,5.95,14.849,9.618c9.84,7.84,17.394,17.186,22.427,28.191C253.528,146.24,255.559,156.51,255.773,167.108z"/>
			<path fill="#383234" d="M116.575,88.954c-2.973-4.194-5.195-27.072-7.755-31.471c7.066-4.123,14.79-6.782,22.804-8.945
				c5.675-1.532,11.335-3.061,17.192-3.822c4.409-0.572,8.738-1.648,13.262-1.557c10.047,0.204,20.145-0.601,30.117,1.143
				c5.992,1.047,11.946,2.229,17.808,3.839c6.833,1.878,13.531,4.024,19.845,7.082c1.396,0.678,2.716,1.493,4.068,2.244
				c-2.487,4.433-4.421,26.184-7.766,31.465c-3.125-1.135-6.306-2.469-9.459-3.682c-5.831-2.243-11.796-3.851-17.918-5.22
				c-10.157-2.269-20.423-3.493-30.853-3.144c-5.825,0.196-11.598,1.025-17.376,1.892c-5.256,0.789-10.29,2.116-15.376,3.434
				c-5.626,1.46-10.864,3.711-16.08,6.031C118.257,88.615,117.485,88.927,116.575,88.954z"/>
			<path fill="#383234" d="M272.421,167.073c-0.256-12.688-2.688-24.982-8.059-36.725c-6.024-13.174-15.071-24.366-26.849-33.752
				c-5.508-4.388-11.961-7.542-18.537-10.541c-2.251-1.025-1.53-2.517-0.743-3.931c2.347-4.215,4.769-8.396,7.162-12.589
				c2.925-4.216,6.033-9.69,8.521-14.122c1.256-1.756,2.541-0.339,3.551,0.149c8.579,4.156,16.33,9.405,23.671,15.189
				c17.558,13.836,30.631,30.565,38.852,50.376c5.875,14.16,9.075,28.796,8.987,43.996c-0.015,2.152-0.511,3.234-3.149,3.029
				c-10.454-0.812-20.945-0.281-31.416-0.607C273.746,167.526,273.085,167.235,272.421,167.073z"/>
			<path fill="#383234" d="M117.365,69.473c2.348,4.118,4.616,8.276,7.073,12.338c1.266,2.093,1.058,3.287-1.412,4.561
				c-16.642,8.584-30.394,19.657-39.747,34.893c-6.981,11.376-10.991,23.549-12.329,36.522c-0.32,3.094-0.303,6.188-0.645,9.268
				c-2.518,0.793-5.159,0.436-7.715,0.502c-8.486,0.217-16.99-0.074-25.465,0.492c-2.798,0.188-3.299-0.82-3.278-3.127
				c0.159-18.129,4.626-35.305,12.779-51.82c7.337-14.867,17.837-27.633,30.623-38.765c8.501-7.404,17.912-13.94,28.455-18.911
				c0.942-0.443,2.087-1.407,3.116,0C111.38,59.827,114.391,65.279,117.365,69.473z"/>
		</g>
		<g>
			<g>
				<g>
					<path fill="#FEFEFE" d="M109.916,53.237c-1.03-1.408-2.172-0.445-3.117,0c-10.542,4.969-19.953,11.508-28.455,18.911
						C65.56,83.279,55.06,96.045,47.723,110.91c-8.153,16.517-12.621,33.694-12.779,51.821c-0.02,2.307,0.48,3.314,3.278,3.127
						c8.475-0.568,16.979-0.273,25.465-0.492c2.554-0.066,5.197,0.291,7.713-0.5c21.783-0.127,43.56,0.066,65.35-0.277
						c25.169-0.395,50.361-0.459,75.552,0.238c20.386,0.568,40.807,0.076,61.214,0.057c0.663,0.162,1.322,0.453,1.991,0.473
						c10.469,0.328,20.96-0.205,31.414,0.607c2.641,0.207,3.137-0.875,3.149-3.027c0.09-15.201-3.112-29.837-8.985-43.996
						c-8.223-19.812-21.295-36.542-38.854-50.377c-7.337-5.784-15.09-11.031-23.669-15.188c-1.012-0.489-2.297-1.905-3.554-0.15
						c-1.353-0.751-2.671-1.566-4.068-2.244c-6.314-3.059-13.013-5.204-19.845-7.082c-5.86-1.611-11.814-2.792-17.808-3.839
						c-9.971-1.742-20.068-0.94-30.117-1.141c-4.522-0.092-8.853,0.983-13.262,1.555c-5.856,0.761-11.518,2.29-17.191,3.823
						C124.705,46.455,116.982,49.115,109.916,53.237z"/>
					<path fill="#EDEDED" d="M256.87,164.914c-17.043,0.021-34.101,0.43-51.128-0.043c-21.042-0.584-42.084-0.529-63.108-0.201
						c-18.201,0.289-36.39,0.127-54.584,0.232c0.287-2.572,0.272-5.158,0.539-7.738c1.119-10.84,4.468-21.006,10.3-30.509
						c7.811-12.725,18.641-22.718,32.541-29.888c2.063-1.062,2.235-2.061,1.18-3.811c-2.054-3.393-3.948-6.866-5.909-10.305
						c0.761-0.023,1.406-0.28,2.101-0.592c4.356-1.937,8.731-3.817,13.432-5.036c4.245-1.102,8.451-2.21,12.842-2.869
						c4.825-0.725,9.648-1.416,14.513-1.58c8.715-0.291,17.288,0.731,25.774,2.626c5.112,1.144,10.095,2.485,14.965,4.358
						c2.634,1.013,4.979,2.698,7.901,3.076c-2,3.502-4.022,6.994-5.982,10.516c-0.658,1.181-1.259,2.426,0.621,3.283
						c5.492,2.502,10.249,5.95,14.849,9.617c9.84,7.84,17.394,17.188,22.428,28.193C254.623,144.049,256.656,154.319,256.87,164.914
						z"/>
					<path fill="#4393B8" d="M117.67,86.762c-2.972-4.194-5.195-27.073-7.754-31.471c7.066-4.123,14.789-6.781,22.804-8.945
						c5.675-1.532,11.335-3.061,17.191-3.822c4.409-0.573,8.739-1.648,13.262-1.556c10.047,0.204,20.146-0.601,30.117,1.142
						c5.992,1.047,11.946,2.229,17.807,3.839c6.834,1.877,13.533,4.023,19.845,7.082c1.397,0.677,2.717,1.492,4.069,2.243
						c-2.487,4.433-4.421,26.183-7.765,31.465c-3.124-1.136-6.308-2.469-9.458-3.682c-5.831-2.244-11.796-3.851-17.919-5.22
						c-10.158-2.268-20.423-3.493-30.853-3.143c-5.825,0.196-11.599,1.025-17.376,1.892c-5.257,0.789-10.29,2.116-15.375,3.434
						c-5.626,1.46-10.865,3.71-16.08,6.03C119.353,86.424,118.582,86.737,117.67,86.762z"/>
					<path fill="#7DBFD4" d="M273.518,164.881c-0.256-12.688-2.689-24.982-8.061-36.725c-6.023-13.174-15.068-24.367-26.847-33.751
						c-5.508-4.388-11.963-7.541-18.537-10.541c-2.251-1.025-1.531-2.517-0.744-3.93c2.348-4.216,4.769-8.396,7.162-12.589
						c2.926-4.217,6.034-9.691,8.521-14.123c1.257-1.755,2.54-0.339,3.552,0.149c8.577,4.157,16.33,9.405,23.669,15.189
						c17.559,13.836,30.632,30.566,38.853,50.376c5.875,14.161,9.076,28.796,8.985,43.995c-0.012,2.154-0.508,3.234-3.149,3.029
						c-10.452-0.811-20.943-0.279-31.413-0.607C274.84,165.334,274.182,165.043,273.518,164.881z"/>
					<path fill="#6F90AB" d="M118.46,67.281c2.348,4.117,4.616,8.275,7.074,12.338c1.266,2.092,1.057,3.287-1.412,4.561
						c-16.642,8.585-30.394,19.659-39.746,34.893c-6.981,11.376-10.99,23.55-12.33,36.522c-0.32,3.094-0.303,6.188-0.645,9.268
						c-2.518,0.793-5.159,0.436-7.714,0.5c-8.487,0.219-16.99-0.074-25.465,0.494c-2.798,0.188-3.299-0.82-3.278-3.129
						c0.159-18.127,4.626-35.303,12.779-51.82C55.06,96.043,65.56,83.278,78.345,72.146c8.502-7.405,17.912-13.941,28.455-18.911
						c0.942-0.443,2.087-1.407,3.117,0C112.476,57.635,115.487,63.087,118.46,67.281z"/>
				</g>
			</g>
		</g>
	</g>
	<path fill="#4393B8" d="M185.758,136.164c13.817-28.508,23.9-52.081,22.521-52.646c-1.381-0.571-13.701,22.082-27.52,50.592
		c-4.727,9.75-9.34,22.234-14.813,30.432c-1.066,1.598-1.386,3.986-1.455,6.508l8.44-4.762
		C175.107,156.586,181.483,144.985,185.758,136.164z"/>
	<rect x="33.667" y="166.555" fill="#4393B8" width="276.409" height="4.494"/>
	<rect x="153.589" y="38.903" fill="none" width="41.835" height="36.99"/>
	<g>
		<path fill="#4393B8" d="M160.066,196.652c0.9-1.229,1.35-2.475,1.35-3.735c0-1.26-0.48-2.332-1.44-3.217
			c-0.96-0.885-2.175-1.328-3.645-1.328c-2.581,0-4.725,1.32-6.435,3.96l-4.275-2.475c1.379-2.07,2.902-3.63,4.567-4.68
			s3.81-1.575,6.435-1.575c2.625,0,4.928,0.832,6.908,2.497s2.97,3.938,2.97,6.817c0,1.62-0.42,3.166-1.26,4.636
			c-0.84,1.47-2.385,3.359-4.635,5.67l-7.38,7.515h14.265v5.085h-21.51v-4.5l9.54-9.585
			C157.651,199.576,159.167,197.882,160.066,196.652z"/>
		<path fill="#4393B8" d="M173.34,189.091v-4.725h18.406v4.14l-7.605,8.506c2.879,0.09,5.129,0.997,6.75,2.722
			c1.619,1.726,2.43,3.788,2.43,6.188c0,3.211-1.088,5.73-3.262,7.561c-2.176,1.83-4.973,2.745-8.393,2.745
			s-6.766-1.095-10.036-3.285l2.25-4.275c2.58,1.8,5.279,2.7,8.1,2.7c1.83,0,3.338-0.428,4.523-1.282
			c1.184-0.855,1.777-2.085,1.777-3.69c0-1.604-0.66-2.887-1.98-3.848c-1.32-0.959-3.15-1.439-5.49-1.439
			c-1.17,0-2.295,0.165-3.375,0.495v-4.05l7.289-8.461H173.34z"/>
	</g>
</g>
<g>
	<path fill="#6F90AB" d="M8.785,183.704v-1.574h4.98v1.574H8.785z"/>
	<path fill="#6F90AB" d="M14.875,176.909h3.81v10.485h-1.68v-8.91h-2.13V176.909z"/>
	<path fill="#6F90AB" d="M22.105,186.037c-0.71-0.985-1.065-2.303-1.065-3.952c0-1.65,0.355-2.968,1.065-3.953
		c0.71-0.984,1.78-1.478,3.21-1.478c1.43,0,2.5,0.493,3.21,1.478c0.71,0.985,1.065,2.303,1.065,3.953
		c0,1.649-0.355,2.967-1.065,3.952c-0.71,0.985-1.78,1.478-3.21,1.478C23.885,187.515,22.815,187.023,22.105,186.037z
		 M23.373,179.25c-0.415,0.72-0.622,1.664-0.622,2.835c0,1.17,0.207,2.114,0.622,2.835c0.415,0.72,1.062,1.08,1.943,1.08
		c0.88,0,1.522-0.357,1.927-1.073c0.405-0.715,0.607-1.662,0.607-2.842c0-1.181-0.202-2.128-0.607-2.843
		c-0.405-0.715-1.047-1.072-1.927-1.072C24.435,178.17,23.788,178.53,23.373,179.25z"/>
	<path fill="#6F90AB" d="M32.425,186.037c-0.71-0.985-1.065-2.303-1.065-3.952c0-1.65,0.355-2.968,1.065-3.953
		c0.71-0.984,1.78-1.478,3.21-1.478c1.43,0,2.5,0.493,3.21,1.478c0.71,0.985,1.065,2.303,1.065,3.953
		c0,1.649-0.355,2.967-1.065,3.952c-0.71,0.985-1.78,1.478-3.21,1.478C34.205,187.515,33.135,187.023,32.425,186.037z
		 M33.692,179.25c-0.415,0.72-0.622,1.664-0.622,2.835c0,1.17,0.207,2.114,0.622,2.835c0.415,0.72,1.062,1.08,1.943,1.08
		c0.88,0,1.522-0.357,1.927-1.073c0.405-0.715,0.607-1.662,0.607-2.842c0-1.181-0.202-2.128-0.607-2.843
		c-0.405-0.715-1.047-1.072-1.927-1.072C34.755,178.17,34.107,178.53,33.692,179.25z"/>
</g>
<g>
	<path fill="#7DBFD4" d="M299.41,176.908h3.81v10.486h-1.68v-8.91h-2.13V176.908z"/>
	<path fill="#7DBFD4" d="M306.639,186.037c-0.71-0.986-1.064-2.303-1.064-3.953s0.354-2.967,1.064-3.953
		c0.711-0.984,1.78-1.477,3.211-1.477c1.43,0,2.499,0.492,3.209,1.477c0.711,0.986,1.065,2.303,1.065,3.953
		s-0.354,2.967-1.065,3.953c-0.71,0.984-1.779,1.477-3.209,1.477C308.419,187.514,307.35,187.022,306.639,186.037z M307.907,179.25
		c-0.415,0.719-0.622,1.664-0.622,2.834s0.207,2.115,0.622,2.836c0.415,0.719,1.062,1.08,1.943,1.08
		c0.879,0,1.521-0.357,1.927-1.074c0.405-0.715,0.607-1.662,0.607-2.842s-0.202-2.127-0.607-2.842s-1.048-1.072-1.927-1.072
		C308.969,178.17,308.322,178.53,307.907,179.25z"/>
	<path fill="#7DBFD4" d="M316.959,186.037c-0.711-0.986-1.065-2.303-1.065-3.953s0.354-2.967,1.065-3.953
		c0.71-0.984,1.779-1.477,3.21-1.477c1.43,0,2.499,0.492,3.21,1.477c0.71,0.986,1.064,2.303,1.064,3.953s-0.354,2.967-1.064,3.953
		c-0.711,0.984-1.78,1.477-3.21,1.477C318.739,187.514,317.669,187.022,316.959,186.037z M318.227,179.25
		c-0.416,0.719-0.623,1.664-0.623,2.834s0.207,2.115,0.623,2.836c0.414,0.719,1.062,1.08,1.942,1.08s1.522-0.357,1.927-1.074
		c0.406-0.715,0.607-1.662,0.607-2.842s-0.201-2.127-0.607-2.842c-0.404-0.715-1.047-1.072-1.927-1.072
		S318.641,178.53,318.227,179.25z"/>
</g>
<g>
	<path fill="#FFFFFF" d="M167.012,62.761c-0.947-1.313-1.42-3.07-1.42-5.27c0-2.2,0.473-3.957,1.42-5.27
		c0.946-1.313,2.373-1.97,4.28-1.97s3.333,0.657,4.281,1.97c0.945,1.313,1.42,3.07,1.42,5.27c0,2.2-0.475,3.957-1.42,5.27
		c-0.947,1.313-2.374,1.97-4.281,1.97S167.958,64.075,167.012,62.761z M168.702,53.712c-0.554,0.96-0.83,2.22-0.83,3.78
		s0.276,2.82,0.83,3.78c0.553,0.96,1.417,1.44,2.59,1.44s2.031-0.477,2.57-1.43c0.541-0.953,0.811-2.216,0.811-3.79
		c0-1.573-0.27-2.836-0.811-3.79c-0.539-0.953-1.396-1.43-2.57-1.43S169.255,52.752,168.702,53.712z"/>
</g>
</svg>
