<?xml version="1.0" encoding="utf-8"?>
<!-- Generator: Adobe Illustrator 16.0.0, SVG Export Plug-In . SVG Version: 6.00 Build 0)  -->
<!DOCTYPE svg PUBLIC "-//W3C//DTD SVG 1.1//EN" "http://www.w3.org/Graphics/SVG/1.1/DTD/svg11.dtd">
<svg version="1.1" id="Layer_1" xmlns="http://www.w3.org/2000/svg" xmlns:xlink="http://www.w3.org/1999/xlink" x="0px" y="0px"
	 width="122.333px" height="116px" viewBox="0 0 122.333 116" enable-background="new 0 0 122.333 116" xml:space="preserve">
<g>
	<path fill="#4192B6" d="M106.829,5.824C76.334,5.771,45.841,5.775,15.348,5.82c-7.72,0.012-12.553,4.622-12.6,12.436
		C2.612,41.083,2.635,63.913,2.745,86.741c0.029,6.011,3.127,10.907,8.501,11.388c8.648,0.773,17.416,0.208,26.031,0.208
		c0-3.614,0-6.897,0-10.682c-7.652,0-15.066,0-22.747,0c0-18.196,0-35.881,0-53.558c31.278,0,62.17,0,92.971,0
		c0,17.964,0,35.543,0,53.451c-7.66,0-14.953,0-22.709,0c0,4.106,0,7.504,0,11.271c8.088,0,15.896,0.25,23.681-0.076
		c6.353-0.268,10.034-4.719,10.036-11.235c0.01-23.327,0.009-46.657,0.002-69.985C118.508,10.099,114.37,5.836,106.829,5.824z
		 M18.854,24.321c-1.896,0-3.434-1.537-3.434-3.434s1.537-3.434,3.434-3.434s3.434,1.537,3.434,3.434S20.751,24.321,18.854,24.321z
		 M28.652,24.321c-1.896,0-3.434-1.537-3.434-3.434s1.537-3.434,3.434-3.434s3.434,1.537,3.434,3.434S30.548,24.321,28.652,24.321z
		 M38.449,24.321c-1.896,0-3.434-1.537-3.434-3.434s1.537-3.434,3.434-3.434c1.897,0,3.434,1.537,3.434,3.434
		S40.346,24.321,38.449,24.321z M107.583,24.321c-20.26,0-40.438,0-60.82,0c0-2.264,0-4.371,0-6.867c20.209,0,40.389,0,60.82,0
		C107.583,19.75,107.583,21.85,107.583,24.321z"/>
	<path fill="#4192B6" d="M50.13,75.641c-5.905,0-10.987,0-15.908,0c9.022-9.129,17.928-18.139,26.901-27.215
		c8.588,8.761,17.401,17.754,26.528,27.064c-5.22,0-10.402,0-16.029,0c0,11.796,0,23.047,0,34.725c-7.297,0-14.151,0-21.492,0
		C50.13,98.893,50.13,87.629,50.13,75.641z"/>
</g>
</svg>
