<?xml version="1.0" encoding="utf-8"?>
<!-- Generator: Adobe Illustrator 16.0.0, SVG Export Plug-In . SVG Version: 6.00 Build 0)  -->
<!DOCTYPE svg PUBLIC "-//W3C//DTD SVG 1.1//EN" "http://www.w3.org/Graphics/SVG/1.1/DTD/svg11.dtd">
<svg version="1.1" id="Layer_1" xmlns="http://www.w3.org/2000/svg" xmlns:xlink="http://www.w3.org/1999/xlink" x="0px" y="0px"
	 width="389px" height="62.318px" viewBox="0 0 389 62.318" enable-background="new 0 0 389 62.318" xml:space="preserve">
<text transform="matrix(0.9109 0 0 1 169.7563 46.0154)" fill="#4192B6" font-family="'Montserrat-Regular'" font-size="26.747">Subscriber</text>
<text transform="matrix(0.9109 0 0 1 301.0264 46.0154)" fill="#636363" font-family="'Montserrat-Bold'" font-size="28.9668">Voice</text>
<g>
	<g>
		<g>
			<g>
				<path fill="#4192B6" d="M126.6,28.716l1.759,19.107c0.128,1.396,1.177,2.457,2.338,2.367l21.127-1.673l5.483,5.551l-0.542-5.902
					l5.522-0.429c1.163-0.089,2.001-1.295,1.872-2.693l-1.759-19.106c-0.128-1.397-1.175-2.459-2.34-2.367l-31.589,2.452
					C127.31,26.111,126.471,27.318,126.6,28.716z"/>
				<path fill="#FFFFFF" d="M131.199,46.013c-0.122-0.233-0.201-0.494-0.228-0.774l-1.343-14.593l10.303,5.845L131.199,46.013z"/>
				<path fill="#FFFFFF" d="M140.792,36.956l5.007,2.862l4.435-3.6l10.625,8.233c-0.28,0.28-0.648,0.464-1.065,0.497l-4.665,0.36
					l0.388,4.201l-4.016-3.92l-18.56,1.439c-0.409,0.034-0.799-0.086-1.123-0.31L140.792,36.956z"/>
				<path fill="#FFFFFF" d="M150.996,35.63l9.067-7.345l1.344,14.594c0.024,0.271-0.003,0.532-0.076,0.774L150.996,35.63z"/>
				<polygon fill="#4192B6" points="159.631,26.365 143.599,28.285 129.359,28.715 127.141,26.692 142.953,10.814 161.45,24.031 
									"/>
				<g>
					<g>
						<path fill="#FFFFFF" d="M155.601,27.598l-4.605-0.199c-1.276-0.617-2.951,1.07-6.11,1.316c-3.2,0.249-5.47,1.353-6.589,2.216
							l-4.126,0.292l0.144,1.551l11.257,4.37l10.03-5.746V27.598z"/>
					</g>
					<g>
						<g>
							<polyline fill="#FFFFFF" points="156.728,29.712 155.499,16.4 131.521,18.264 132.734,31.404 							"/>
							<g>
								<polygon fill="#636363" points="157.158,30.646 155.375,31.562 154.072,17.596 133.149,19.224 134.414,32.834 
									132.558,31.969 131.191,17.6 155.845,15.714 								"/>
							</g>
						</g>
						<path fill="#A4A1A8" d="M152.149,22.528c0.008,0.084-0.351,0.183-0.802,0.217l-14.698,1.145
							c-0.451,0.035-0.824-0.007-0.831-0.09l-0.256-2.77c-0.008-0.085,0.352-0.182,0.803-0.217l14.698-1.145
							c0.451-0.034,0.822,0.006,0.83,0.091L152.149,22.528z"/>
					</g>
				</g>
			</g>
		</g>
		<path fill="#A4A1A8" d="M145.996,30.857c0.019,0.199-0.173,0.381-0.432,0.403l-8.405,0.708c-0.258,0.02-0.484-0.126-0.502-0.324
			l-0.654-6.56c-0.021-0.203,0.172-0.381,0.43-0.403l8.406-0.707c0.258-0.022,0.484,0.125,0.504,0.324L145.996,30.857z"/>
		<path fill="#A4A1A8" d="M152.976,30.297c0.02,0.199-0.092,0.375-0.252,0.388l-5.186,0.438c-0.159,0.011-0.304-0.14-0.324-0.34
			l-0.656-6.558c-0.019-0.202,0.093-0.377,0.253-0.389l5.185-0.437c0.159-0.013,0.305,0.141,0.324,0.339L152.976,30.297z"/>
	</g>
</g>
<text transform="matrix(0.9109 0 0 1 2.9863 45.7703)" fill="#4E4E40" font-family="'OpenSans'" font-size="21.6741">powered by</text>
</svg>
