<?xml version="1.0" encoding="utf-8"?>
<!-- Generator: Adobe Illustrator 16.0.0, SVG Export Plug-In . SVG Version: 6.00 Build 0)  -->
<!DOCTYPE svg PUBLIC "-//W3C//DTD SVG 1.1//EN" "http://www.w3.org/Graphics/SVG/1.1/DTD/svg11.dtd">
<svg version="1.1" id="Layer_1" xmlns="http://www.w3.org/2000/svg" xmlns:xlink="http://www.w3.org/1999/xlink" x="0px" y="0px"
	 width="389px" height="62.318px" viewBox="0 0 389 62.318" enable-background="new 0 0 389 62.318" xml:space="preserve">
<text transform="matrix(0.9109 0 0 1 134.333 44.748)"><tspan x="0" y="0" fill="#4192B6" font-family="'Montserrat-Regular'" font-size="30.9544">Subscriber</tspan><tspan x="166.78" y="0" fill="#636363" font-family="'Montserrat-Bold'" font-size="33.5233">Voice</tspan></text>
<g>
	<g>
		<g>
			<g>
				<path fill="#4192B6" d="M84.386,24.728l2.036,22.113c0.149,1.616,1.361,2.842,2.706,2.74l24.451-1.937l6.346,6.424l-0.628-6.83
					l6.391-0.497c1.346-0.103,2.316-1.499,2.167-3.117l-2.036-22.112c-0.148-1.617-1.36-2.845-2.707-2.74l-36.559,2.838
					C85.208,21.713,84.237,23.11,84.386,24.728z"/>
				<path fill="#FFFFFF" d="M89.71,44.747c-0.141-0.27-0.233-0.572-0.264-0.897l-1.554-16.888l11.924,6.764L89.71,44.747z"/>
				<path fill="#FFFFFF" d="M100.811,34.263l5.795,3.315l5.132-4.166l12.296,9.528c-0.324,0.324-0.75,0.536-1.232,0.573
					l-5.398,0.418l0.448,4.863l-4.648-4.536l-21.479,1.666c-0.474,0.038-0.925-0.1-1.3-0.36L100.811,34.263z"/>
				<path fill="#FFFFFF" d="M112.621,32.729l10.494-8.501l1.555,16.89c0.029,0.312-0.003,0.616-0.087,0.896L112.621,32.729z"/>
				<polygon fill="#4192B6" points="122.615,22.008 104.06,24.229 87.581,24.727 85.013,22.386 103.312,4.01 124.719,19.305 				"/>
				<g>
					<g>
						<path fill="#FFFFFF" d="M117.95,23.434l-5.329-0.23c-1.477-0.714-3.416,1.239-7.072,1.523
							c-3.703,0.288-6.33,1.567-7.625,2.565l-4.776,0.338l0.167,1.796l13.028,5.056l11.607-6.65V23.434z"/>
					</g>
					<g>
						<g>
							<polyline fill="#FFFFFF" points="119.254,25.881 117.833,10.474 90.082,12.633 91.486,27.839 							"/>
							<g>
								<polygon fill="#636363" points="119.751,26.962 117.688,28.022 116.18,11.859 91.965,13.743 93.429,29.493 91.283,28.494 
									89.7,11.864 118.233,9.68 								"/>
							</g>
						</g>
						<path fill="#A4A1A8" d="M113.955,17.567c0.009,0.098-0.406,0.211-0.928,0.251l-17.01,1.324
							c-0.522,0.041-0.953-0.007-0.961-0.104l-0.296-3.205c-0.009-0.099,0.407-0.211,0.929-0.251l17.01-1.324
							c0.522-0.04,0.952,0.006,0.961,0.104L113.955,17.567z"/>
					</g>
				</g>
			</g>
		</g>
		<path fill="#A4A1A8" d="M106.833,27.205c0.022,0.231-0.2,0.441-0.499,0.467l-9.727,0.818c-0.299,0.023-0.56-0.145-0.582-0.374
			l-0.757-7.591c-0.024-0.234,0.199-0.441,0.498-0.467l9.728-0.818c0.299-0.025,0.56,0.145,0.583,0.375L106.833,27.205z"/>
		<path fill="#A4A1A8" d="M114.911,26.557c0.022,0.231-0.107,0.434-0.292,0.45l-6.002,0.505c-0.184,0.013-0.352-0.162-0.375-0.393
			l-0.758-7.59c-0.023-0.233,0.107-0.436,0.292-0.449l6.001-0.506c0.183-0.015,0.352,0.163,0.374,0.393L114.911,26.557z"/>
	</g>
</g>
<text transform="matrix(0.9109 0 0 1 11.9854 44.748)" fill="#4192B6" font-family="'Montserrat-Regular'" font-size="10.8973">powered by</text>
</svg>
