<?xml version="1.0" encoding="utf-8"?>
<!-- Generator: Adobe Illustrator 16.0.0, SVG Export Plug-In . SVG Version: 6.00 Build 0)  -->
<!DOCTYPE svg PUBLIC "-//W3C//DTD SVG 1.1//EN" "http://www.w3.org/Graphics/SVG/1.1/DTD/svg11.dtd">
<svg version="1.1" id="Layer_1" xmlns="http://www.w3.org/2000/svg" xmlns:xlink="http://www.w3.org/1999/xlink" x="0px" y="0px"
	 width="200px" height="200px" viewBox="0 0 200 200" enable-background="new 0 0 200 200" xml:space="preserve">
<path fill="#7DBED4" d="M139.945,60.303c-0.622-27.486-13.135-42.807-40.211-42.717c-24.819,0.08-37.776,17.232-37.607,42.726
	c0.069,10.822,0.713,21.897-1.647,32.361c0.568,0.503-0.57,2.226,0,2.722c7.571-0.69,10.722-7.792,18.55-1.978
	c1.959,1.454,4.733,0.788,6.846-1.036c-0.314-0.218-0.631-0.369-0.946-0.603c-0.035-10.139,0.024-20.281-0.133-30.423
	c-0.146-9.778,4.093-22.98,15.2-22.627c12.465,0.397,16.024,12.144,16.099,23.287c0.07,9.589,0.225,18.761-0.881,28.36
	c8.028-2.419,15.73-3,23.044,2.868c1.989,1.594,2.978,5.548,5.023,3.361C137.568,86.524,140.189,70.858,139.945,60.303z"/>
<path fill="#7DBED4" d="M154.223,80.196H45.777c-11.801,0-21.367,8.034-21.367,17.94v81.021c0,0.668,0.149,1.304,0.234,1.942
	h150.709v0.002c0.088-0.641,0.235-1.275,0.235-1.943V98.136C175.589,88.23,166.021,80.196,154.223,80.196z M107.109,136.275v23.24
	H92.898v-23.236c-4.832-2.672-8.16-7.9-8.16-13.993c0-8.778,6.832-15.892,15.259-15.892c8.437,0,15.269,7.114,15.269,15.892
	C115.266,128.379,111.938,133.604,107.109,136.275z"/>
<path fill="#659AA8" d="M175.354,181.102c0.088-0.641,0.235-1.275,0.235-1.943V98.136c0-9.906-9.567-17.94-21.366-17.94h-14.277
	v100.906H175.354z"/>
</svg>
