<?xml version="1.0" encoding="utf-8"?>
<!-- Generator: Adobe Illustrator 16.0.0, SVG Export Plug-In . SVG Version: 6.00 Build 0)  -->
<!DOCTYPE svg PUBLIC "-//W3C//DTD SVG 1.1//EN" "http://www.w3.org/Graphics/SVG/1.1/DTD/svg11.dtd">
<svg version="1.1" id="Layer_1" xmlns="http://www.w3.org/2000/svg" xmlns:xlink="http://www.w3.org/1999/xlink" x="0px" y="0px"
	 width="200px" height="200px" viewBox="0 0 200 200" enable-background="new 0 0 200 200" xml:space="preserve">
<path fill-rule="evenodd" clip-rule="evenodd" fill="#7DBED4" d="M139.945,60.303c-0.622-27.486-13.134-42.807-40.211-42.717
	c-24.819,0.08-37.776,17.232-37.607,42.726c0.069,10.822,0.713,21.897-1.647,32.361c0.568,0.503-0.57,2.226,0,2.722
	c7.571-0.69,10.722-7.792,18.55-1.978c1.959,1.454,4.733,0.788,6.846-1.036c-0.314-0.218-0.631-0.369-0.946-0.603
	c-0.035-10.139,0.024-20.281-0.133-30.423c-0.146-9.778,4.093-22.98,15.2-22.627c12.465,0.397,16.025,12.144,16.099,23.287
	c0.07,9.589,0.224,18.761-0.881,28.36c8.028-2.419,15.731-3,23.044,2.868c1.989,1.594,2.977,5.548,5.023,3.361
	C137.568,86.524,140.189,70.858,139.945,60.303z"/>
<path fill-rule="evenodd" clip-rule="evenodd" fill="#7090AC" d="M175.353,181.101c0.088-0.64,0.236-1.275,0.236-1.943V98.136
	c0-9.906-9.567-17.94-21.367-17.94H45.777c-11.801,0-21.367,8.034-21.367,17.94v81.021c0,0.668,0.149,1.304,0.234,1.943H175.353z"/>
<path fill-rule="evenodd" clip-rule="evenodd" fill="#7DBED4" d="M115.266,122.286c0-8.777-6.832-15.892-15.269-15.892
	c-8.427,0-15.259,7.114-15.259,15.892c0,6.093,3.328,11.321,8.16,13.993v23.237h14.212v-23.241
	C111.938,133.604,115.266,128.379,115.266,122.286z"/>
<path fill-rule="evenodd" clip-rule="evenodd" fill="#5E7B8D" d="M175.353,181.101c0.088-0.64,0.236-1.275,0.236-1.943V98.136
	c0-9.906-9.567-17.94-21.367-17.94h-14.276v100.905H175.353z"/>
</svg>
