<?xml version="1.0" encoding="utf-8"?>
<!-- Generator: Adobe Illustrator 16.0.0, SVG Export Plug-In . SVG Version: 6.00 Build 0)  -->
<!DOCTYPE svg PUBLIC "-//W3C//DTD SVG 1.1//EN" "http://www.w3.org/Graphics/SVG/1.1/DTD/svg11.dtd">
<svg version="1.1" id="Layer_1" xmlns="http://www.w3.org/2000/svg" xmlns:xlink="http://www.w3.org/1999/xlink" x="0px" y="0px"
	 width="200px" height="200px" viewBox="0 0 200 200" enable-background="new 0 0 200 200" xml:space="preserve">
<g>
	<rect x="67.93" y="111.02" fill="#7190AB" width="119.572" height="16.328"/>
	<rect x="67.93" y="60.273" fill="#7190AB" width="119.572" height="16.333"/>
	<rect x="67.93" y="161.486" fill="#7190AB" width="119.572" height="16.336"/>
	<polygon fill="#7DBED5" points="34.232,156.946 24.603,147.112 15.193,157.814 24.539,167.368 24.525,167.379 34.189,177.822 
		71.67,137.516 62.009,127.076 	"/>
	<polygon fill="#7DBED5" points="34.232,106.472 24.603,96.64 15.193,107.34 24.539,116.896 24.525,116.907 34.189,127.348 
		71.67,87.044 62.009,76.599 	"/>
	<polygon fill="#7DBED5" points="62.009,25.86 34.232,55.732 24.603,45.9 15.193,56.601 24.539,66.154 24.525,66.166 34.189,76.609 
		71.67,36.305 	"/>
</g>
</svg>
