<?xml version="1.0" encoding="utf-8"?>
<!-- Generator: Adobe Illustrator 16.0.0, SVG Export Plug-In . SVG Version: 6.00 Build 0)  -->
<!DOCTYPE svg PUBLIC "-//W3C//DTD SVG 1.1//EN" "http://www.w3.org/Graphics/SVG/1.1/DTD/svg11.dtd">
<svg version="1.1" id="Layer_1" xmlns="http://www.w3.org/2000/svg" xmlns:xlink="http://www.w3.org/1999/xlink" x="0px" y="0px"
	 width="109.833px" height="60.583px" viewBox="0 0 109.833 60.583" enable-background="new 0 0 109.833 60.583"
	 xml:space="preserve">
<polygon fill="#FFFFFF" stroke="#3E7E92" stroke-miterlimit="10" points="95.722,39.197 107.329,39.197 97.49,45.608 102.453,58.71 
	91.346,50.634 80.074,58.71 85.145,45.608 75.197,39.197 87.648,39.197 91.346,26.078 "/>
<polygon fill="#7EC0D5" stroke="#3E7E92" stroke-miterlimit="10" points="22.54,39.188 34.133,39.188 24.306,45.597 29.263,58.683 
	18.169,50.614 6.911,58.683 11.975,45.597 2.041,39.188 14.477,39.188 18.169,26.083 "/>
<polygon fill="#7EC0D5" stroke="#3E7E92" stroke-miterlimit="10" points="58.957,39.188 70.55,39.188 60.723,45.597 65.68,58.683 
	54.586,50.614 43.328,58.683 48.392,45.597 38.458,39.188 50.894,39.188 54.586,26.083 "/>
<polygon fill="#7EC0D5" stroke="#3E7E92" stroke-miterlimit="10" points="77.166,15.463 88.759,15.463 78.932,21.872 83.889,34.958 
	72.795,26.889 61.536,34.958 66.6,21.872 56.666,15.463 69.103,15.463 72.795,2.358 "/>
<polygon fill="#7EC0D5" stroke="#3E7E92" stroke-miterlimit="10" points="40.749,15.463 52.342,15.463 42.515,21.872 47.472,34.958 
	36.378,26.889 25.119,34.958 30.183,21.872 20.249,15.463 32.686,15.463 36.378,2.358 "/>
<polygon fill="#FFFFFF" stroke="#3E7E92" stroke-miterlimit="10" points="77.171,15.462 88.778,15.462 78.939,21.873 83.902,34.975 
	72.795,26.898 61.523,34.975 66.594,21.873 56.646,15.462 69.098,15.462 72.795,2.342 "/>
</svg>
