<?xml version="1.0" encoding="utf-8"?>
<!-- Generator: Adobe Illustrator 16.0.0, SVG Export Plug-In . SVG Version: 6.00 Build 0)  -->
<!DOCTYPE svg PUBLIC "-//W3C//DTD SVG 1.1//EN" "http://www.w3.org/Graphics/SVG/1.1/DTD/svg11.dtd">
<svg version="1.1" id="Layer_1" xmlns="http://www.w3.org/2000/svg" xmlns:xlink="http://www.w3.org/1999/xlink" x="0px" y="0px"
	 width="200px" height="200px" viewBox="0 0 200 200" enable-background="new 0 0 200 200" xml:space="preserve">
<circle fill="#FFFFFF" stroke="#7EBED5" stroke-width="6" stroke-miterlimit="10" cx="100.75" cy="99.75" r="92.25"/>
<g>
	
		<rect x="79.001" y="99.931" fill="none" stroke="#7EBED5" stroke-width="6" stroke-miterlimit="10" width="77.817" height="10.627"/>
	
		<rect x="79.001" y="66.907" fill="none" stroke="#7EBED5" stroke-width="6" stroke-miterlimit="10" width="77.817" height="10.628"/>
	
		<rect x="79.001" y="132.777" fill="none" stroke="#7EBED5" stroke-width="6" stroke-miterlimit="10" width="77.817" height="10.629"/>
	<path fill="#7EBED5" d="M57.043,143.406l-6.29-6.796l0.011-0.009l-6.083-6.218l6.125-6.965l6.264,6.401l9.614-10.339H47.068
		c-1.316,0-2.386,1.068-2.386,2.386v21.816c0,1.317,1.07,2.386,2.386,2.386H68.89c1.314,0,2.383-1.068,2.383-2.386v-15.581
		L57.043,143.406z"/>
	<path fill="#7EBED5" d="M57.043,110.558l-6.29-6.796l0.011-0.01l-6.083-6.216l6.125-6.964l6.264,6.401l9.612-10.337H47.068
		c-1.316,0-2.386,1.068-2.386,2.387v21.817c0,1.316,1.07,2.388,2.386,2.388H68.89c1.314,0,2.383-1.071,2.383-2.388V95.256
		L57.043,110.558z"/>
	<path fill="#7EBED5" d="M57.043,77.537l-6.29-6.795l0.011-0.009l-6.083-6.217l6.125-6.966l6.264,6.403l9.615-10.34H47.068
		c-1.316,0-2.386,1.067-2.386,2.385v21.818c0,1.318,1.07,2.388,2.386,2.388H68.89c1.314,0,2.383-1.07,2.383-2.388V62.233
		L57.043,77.537z"/>
</g>
</svg>
