<?xml version="1.0" encoding="utf-8"?>
<!-- Generator: Adobe Illustrator 16.0.0, SVG Export Plug-In . SVG Version: 6.00 Build 0)  -->
<!DOCTYPE svg PUBLIC "-//W3C//DTD SVG 1.1//EN" "http://www.w3.org/Graphics/SVG/1.1/DTD/svg11.dtd">
<svg version="1.1" id="Layer_1" xmlns="http://www.w3.org/2000/svg" xmlns:xlink="http://www.w3.org/1999/xlink" x="0px" y="0px"
	 width="200px" height="200px" viewBox="0 0 200 200" enable-background="new 0 0 200 200" xml:space="preserve">
<g>
	<path fill="#659AA8" d="M177.652,165.852c-52.477-0.233-104.954-0.466-157.429-0.692c0.377-39.357,0.754-78.714,1.13-118.072
		c0.01-1.106-0.71-2.015-1.625-2.047c-0.919-0.034-4.055,1.092-4.066,2.2c-0.388,40.523-0.775,81.044-1.163,121.566
		c-0.011,1.104,3.107,1.727,4.027,1.729c0.224,0.001,0.435-0.059,0.629-0.154c0.261,0.096,0.538,0.156,0.83,0.159
		c52.539,0.155,105.078,0.314,157.618,0.468c1.442,0.003,2.6-1.138,2.614-2.563C180.229,167.029,179.099,165.857,177.652,165.852z"
		/>
	<path opacity="0.8" fill="#7DBED4" enable-background="new    " d="M42.122,153.571c-0.006,0.689-3.268,1.228-7.276,1.198
		c-4.055-0.03-7.358-0.608-7.352-1.304c0.242-25.294,0.483-50.583,0.726-75.874c0.006-0.688,3.32-1.152,7.374-1.039
		c4.008,0.11,7.258,0.755,7.25,1.438C42.603,103.183,42.363,128.382,42.122,153.571z"/>
	<path opacity="0.8" fill="#7DBED4" enable-background="new    " d="M62.826,154.067c-0.005,0.508-3.247,0.88-7.281,0.85
		c-4.04-0.029-7.337-0.448-7.331-0.959c0.176-18.351,0.352-36.697,0.526-55.046c0.004-0.504,3.308-0.828,7.347-0.74
		c4.034,0.089,7.268,0.557,7.264,1.057C63.176,117.507,63,135.786,62.826,154.067z"/>
	<path opacity="0.8" fill="#7DBED4" enable-background="new    " d="M83.267,153.391c-0.01,0.964-3.257,1.7-7.28,1.668
		c-4.047-0.026-7.341-0.809-7.332-1.777c0.334-34.923,0.668-69.835,1.002-104.755c0.009-0.948,3.316-1.586,7.363-1.442
		c4.019,0.142,7.254,1.011,7.246,1.953C83.932,83.823,83.599,118.608,83.267,153.391z"/>
	<path opacity="0.8" fill="#7DBED4" enable-background="new    " d="M103.619,154.284c-0.006,0.546-3.267,0.954-7.281,0.929
		c-4.039-0.03-7.336-0.491-7.331-1.037c0.19-19.881,0.381-39.757,0.57-59.638c0.007-0.542,3.31-0.906,7.349-0.81
		c4.015,0.096,7.266,0.608,7.261,1.15C103.999,114.68,103.808,134.479,103.619,154.284z"/>
	<path opacity="0.8" fill="#7DBED4" enable-background="new    " d="M124.347,154.117c-0.007,0.725-3.268,1.268-7.29,1.239
		c-4.057-0.029-7.341-0.625-7.334-1.349c0.251-26.215,0.501-52.42,0.752-78.63c0.007-0.717,3.304-1.198,7.356-1.081
		c4.02,0.115,7.271,0.78,7.263,1.496C124.846,101.899,124.595,128.009,124.347,154.117z"/>
	<path opacity="0.8" fill="#7DBED4" enable-background="new    " d="M144.766,154.671c-0.004,0.497-3.245,0.861-7.271,0.831
		c-4.05-0.033-7.344-0.44-7.341-0.94c0.173-17.958,0.344-35.909,0.516-53.861c0.006-0.495,3.31-0.812,7.355-0.718
		c4.023,0.086,7.258,0.545,7.253,1.038C145.108,118.902,144.938,136.783,144.766,154.671z"/>
	<path opacity="0.8" fill="#7DBED4" enable-background="new    " d="M164.28,154.072c-0.008,0.911-3.252,1.597-7.277,1.571
		c-4.05-0.031-7.343-0.764-7.334-1.678c0.314-32.74,0.628-65.479,0.94-98.218c0.007-0.9,3.313-1.5,7.361-1.361
		c4.021,0.14,7.253,0.964,7.243,1.857C164.906,88.854,164.593,121.464,164.28,154.072z"/>
</g>
</svg>
