<?xml version="1.0" encoding="utf-8"?>
<!-- Generator: Adobe Illustrator 16.0.0, SVG Export Plug-In . SVG Version: 6.00 Build 0)  -->
<!DOCTYPE svg PUBLIC "-//W3C//DTD SVG 1.1//EN" "http://www.w3.org/Graphics/SVG/1.1/DTD/svg11.dtd">
<svg version="1.1" id="Layer_1" xmlns="http://www.w3.org/2000/svg" xmlns:xlink="http://www.w3.org/1999/xlink" x="0px" y="0px"
	 width="200px" height="200px" viewBox="0 0 200 200" enable-background="new 0 0 200 200" xml:space="preserve">
<path fill-rule="evenodd" clip-rule="evenodd" fill="#3088C0" d="M195.327,62.25c-0.551-0.013-1.102-0.024-1.651-0.036
	c-5.3-0.111-10.781-0.226-14.82-1.404l-3.449-1.005l0.884-3.481c1.033-4.062,3.556-8.562,6.225-13.326
	c0.452-0.806,0.907-1.618,1.354-2.426c-6.981,3.894-13.664,7.632-20.356,11.457c-0.098,0.135-0.303,0.468-0.632,1.243
	c-3.643,8.581-9.695,15.277-17.986,19.902c-2.302,1.283-4.604,2.563-6.908,3.845c-6.977,3.879-14.192,7.891-21.222,11.925
	c-1.679,0.963-3.738,1.946-6.301,1.946c-1.552,0-3.12-0.36-4.796-1.103c-1.256-0.556-2.59-0.837-3.965-0.837
	c-4.739,0-9.166,3.339-10.523,7.939c-0.88,2.988-0.48,6.262,1.099,8.981c1.535,2.644,3.957,4.472,6.82,5.146
	c0.915,0.216,1.849,0.326,2.775,0.326c5.72,0,10.357-3.946,11.028-9.382c0.547-4.41,3.102-6.345,5.268-7.537l3.443-1.895
	c8.238-4.533,16.759-9.221,25.038-13.972c6.789-3.896,13.995-5.871,21.421-5.871c1.935,0,3.923,0.134,5.91,0.397
	c0.106,0.014,0.229,0.021,0.359,0.021c0.796,0,1.802-0.264,2.56-0.672c5.35-2.878,10.755-5.897,15.98-8.817
	C193.697,63.161,194.513,62.705,195.327,62.25z"/>
<g>
	<path fill-rule="evenodd" clip-rule="evenodd" fill="#3088C0" d="M125.146,99.028l-3.443,1.895c-1.2,0.661-1.352,0.956-1.473,1.931
		c-1.117,9.068-9.034,15.908-18.409,15.908c-1.501,0-3.009-0.176-4.483-0.523c-4.873-1.15-8.974-4.223-11.545-8.651
		c-2.602-4.479-3.258-9.882-1.8-14.82c2.306-7.816,9.566-13.274,17.658-13.274c2.417,0,4.764,0.496,6.973,1.474
		c0.709,0.314,1.294,0.466,1.785,0.466c0.658,0,1.412-0.278,2.6-0.959c2.582-1.481,5.186-2.955,7.79-4.421
		c-5.259-4.807-12.267-7.75-19.985-7.784c-16.429-0.073-29.774,13.09-29.875,29.464c-0.101,16.605,13.086,29.925,29.708,30.008
		c16.422,0.08,29.735-13.222,29.782-29.75c0.004-1.269-0.081-2.516-0.233-3.741C128.505,97.18,126.815,98.109,125.146,99.028z"/>
</g>
<g>
	<path fill-rule="evenodd" clip-rule="evenodd" fill="#3088C0" d="M150.3,84.99c-2.138,1.227-4.289,2.448-6.446,3.663
		c0.922,3.562,1.43,7.309,1.469,11.188c0.401,24.204-19.925,44.812-44.496,44.866c-24.499,0.053-44.604-19.734-44.784-44.573
		C55.865,75.62,75.63,55.559,100.161,55.354c13.729-0.115,25.894,5.725,34.134,15.158c0.008-0.005,0.016-0.009,0.024-0.014
		c2.299-1.279,4.599-2.558,6.897-3.84c2.106-1.175,4.017-2.489,5.745-3.948c-10.669-13.051-26.724-21.639-44.163-22.246
		C69.73,39.313,41.7,66.339,41.103,98.672c-0.598,32.335,25.506,59.925,57.733,60.875c33.063,0.975,61.017-25.875,61.289-58.124
		c0.282-6.846-0.703-13.45-2.705-19.632C155.019,82.58,152.649,83.642,150.3,84.99z"/>
</g>
</svg>
