<?xml version="1.0" encoding="utf-8"?>
<!-- Generator: Adobe Illustrator 16.0.0, SVG Export Plug-In . SVG Version: 6.00 Build 0)  -->
<!DOCTYPE svg PUBLIC "-//W3C//DTD SVG 1.1//EN" "http://www.w3.org/Graphics/SVG/1.1/DTD/svg11.dtd">
<svg version="1.1" id="Layer_1" xmlns="http://www.w3.org/2000/svg" xmlns:xlink="http://www.w3.org/1999/xlink" x="0px" y="0px"
	 width="600px" height="600px" viewBox="0 0 600 600" enable-background="new 0 0 600 600" xml:space="preserve">
<g>
	<path fill="#7DBED4" d="M80.426,333.609c-0.043,0-0.086,0-0.129,0c0,33.885,0.008,67.77-0.005,101.655
		c-0.004,10.35,1.387,20.508,6.005,29.815c13.491,27.186,35.158,42.195,65.932,42.278c67.113,0.183,134.226,0.067,201.338,0.027
		c3.794-0.001,7.606-0.25,11.379-0.661c33.738-3.684,60.904-32.772,61.917-66.75c0.485-16.271,0.122-32.565,0.23-48.851
		c0.025-3.927-1.132-6.933-5.009-8.466c-3.683-1.456-6.642-0.224-9.257,2.394c-4.55,4.552-9.054,9.15-13.67,13.632
		c-2.515,2.441-3.665,5.251-3.625,8.774c0.104,9.324,0.045,18.648,0.032,27.975c-0.036,23.403-17.109,40.5-40.519,40.506
		c-67.639,0.017-135.277,0.019-202.915,0c-23.156-0.006-40.319-17.153-40.327-40.298c-0.021-67.64-0.02-135.278-0.001-202.916
		c0.006-23.662,17.019-40.574,40.771-40.577c67.113-0.008,134.226-0.026,201.339,0.054c4.161,0.005,8.366,0.586,12.472,1.335
		c3.824,0.696,6.924,0.038,9.646-2.825c3.346-3.521,6.886-6.858,10.28-10.333c5.234-5.358,3.888-11.254-3.093-14.239
		c-9.203-3.937-18.83-5.472-28.777-5.471c-66.979,0.011-133.962-0.006-200.944,0.036c-3.924,0.002-7.869,0.267-11.771,0.704
		c-33.104,3.701-60.694,33.25-61.185,66.612C80.023,263.21,80.426,298.413,80.426,333.609z M403.055,208.402
		c-0.524,0.479-1.311,1.143-2.034,1.867c-33.397,33.475-66.78,66.966-100.186,100.433c-20.138,20.174-40.338,40.286-60.388,60.548
		c-1.368,1.384-2.394,3.786-2.409,5.726c-0.169,21.146-0.105,42.296-0.104,63.443c0,1.251,0,2.499,0,3.942c1.894,0,3.195,0,4.497,0
		c20.886,0,41.773-0.046,62.658,0.058c2.704,0.012,4.612-0.731,6.534-2.673c22.644-22.864,45.351-45.664,68.09-68.437
		c30.443-30.487,60.928-60.938,91.391-91.406c1.005-1.006,1.965-2.056,2.649-2.772C450.116,255.484,426.66,232.019,403.055,208.402z
		 M490.372,262.378c0.307-0.236,0.746-0.507,1.1-0.862c7.416-7.427,15.01-14.685,22.181-22.342
		c8.319-8.884,8.06-22.828-0.597-31.694c-12.556-12.858-25.254-25.584-38.121-38.131c-9.007-8.784-22.281-9.169-31.681-0.785
		c-7.527,6.714-14.483,14.069-21.676,21.155c-0.715,0.705-1.32,1.52-1.799,2.076C443.335,215.346,466.696,238.704,490.372,262.378z"
		/>
	<path fill-rule="evenodd" clip-rule="evenodd" fill="#7DBED4" d="M80.426,333.609c0-35.197-0.403-70.399,0.115-105.589
		c0.491-33.362,28.081-62.911,61.185-66.612c3.902-0.437,7.846-0.701,11.771-0.704c66.981-0.042,133.964-0.025,200.944-0.036
		c9.947-0.001,19.574,1.534,28.777,5.471c6.98,2.985,8.327,8.881,3.093,14.239c-3.395,3.476-6.935,6.812-10.28,10.333
		c-2.722,2.863-5.821,3.521-9.646,2.825c-4.105-0.749-8.311-1.33-12.472-1.335c-67.113-0.08-134.227-0.062-201.339-0.054
		c-23.752,0.002-40.765,16.915-40.771,40.577c-0.018,67.638-0.02,135.276,0.001,202.916c0.007,23.145,17.171,40.292,40.327,40.298
		c67.638,0.019,135.276,0.017,202.915,0c23.409-0.006,40.482-17.103,40.519-40.506c0.013-9.326,0.072-18.65-0.032-27.975
		c-0.04-3.523,1.11-6.333,3.625-8.774c4.616-4.481,9.12-9.08,13.67-13.632c2.615-2.617,5.574-3.85,9.257-2.394
		c3.877,1.533,5.034,4.539,5.009,8.466c-0.108,16.285,0.255,32.58-0.23,48.851c-1.013,33.978-28.179,63.066-61.917,66.75
		c-3.772,0.411-7.585,0.66-11.379,0.661c-67.112,0.04-134.225,0.155-201.338-0.027c-30.774-0.083-52.441-15.093-65.932-42.278
		c-4.618-9.308-6.009-19.466-6.005-29.815c0.013-33.886,0.005-67.771,0.005-101.655C80.339,333.609,80.382,333.609,80.426,333.609z"
		/>
	<path fill-rule="evenodd" clip-rule="evenodd" fill="#669BA9" d="M403.055,208.402c23.605,23.617,47.062,47.083,70.698,70.729
		c-0.685,0.717-1.645,1.767-2.649,2.772c-30.463,30.469-60.947,60.919-91.391,91.406c-22.739,22.772-45.446,45.572-68.09,68.437
		c-1.922,1.941-3.83,2.685-6.534,2.673c-20.885-0.104-41.771-0.058-62.658-0.058c-1.302,0-2.603,0-4.497,0c0-1.443,0-2.691,0-3.942
		c-0.001-21.147-0.065-42.297,0.104-63.443c0.015-1.939,1.041-4.342,2.409-5.726c20.05-20.262,40.25-40.374,60.388-60.548
		c33.405-33.467,66.788-66.958,100.186-100.433C401.744,209.544,402.53,208.881,403.055,208.402z M289.96,354.836
		c-9.125,9.151-18.203,18.24-27.25,27.36c-0.516,0.52-1.083,1.288-1.099,1.955c-0.1,4.269-0.051,8.54-0.051,13.102
		c8.16,0,15.72,0,23.729,0c0,7.964,0,15.622,0,23.521c3.453,0,6.474-0.215,9.449,0.06c3.179,0.29,5.34-0.881,7.515-3.14
		c7.101-7.37,14.382-14.569,21.708-21.717c1.265-1.234,3.086-1.896,4.441-2.697C314.846,379.725,302.607,367.483,289.96,354.836z
		 M316.605,340.67c2.371-1.771,4.508-2.999,6.193-4.678c27.594-27.512,55.135-55.076,82.673-82.642
		c0.923-0.923,1.779-1.93,2.544-2.987c1.838-2.539,1.432-4.896-0.77-7.015c-2.771-2.664-5.343-2.293-9.075,1.436
		c-28.025,28.006-56.038,56.026-84.05,84.047c-0.649,0.647-1.608,1.251-1.806,2.032c-0.451,1.778-1.201,3.954-0.558,5.407
		C312.487,337.917,314.604,338.951,316.605,340.67z"/>
	<path fill-rule="evenodd" clip-rule="evenodd" fill="#669BA9" d="M490.372,262.378c-23.676-23.674-47.037-47.032-70.593-70.584
		c0.479-0.556,1.084-1.371,1.799-2.076c7.192-7.086,14.148-14.441,21.676-21.155c9.399-8.384,22.674-7.999,31.681,0.785
		c12.867,12.547,25.565,25.273,38.121,38.131c8.656,8.867,8.916,22.811,0.597,31.694c-7.171,7.657-14.765,14.915-22.181,22.342
		C491.118,261.871,490.679,262.142,490.372,262.378z"/>
	<path fill-rule="evenodd" clip-rule="evenodd" fill="#7DBED4" d="M289.96,354.836c12.647,12.647,24.886,24.889,38.442,38.444
		c-1.355,0.801-3.177,1.463-4.441,2.697c-7.326,7.147-14.607,14.347-21.708,21.717c-2.175,2.259-4.336,3.43-7.515,3.14
		c-2.976-0.274-5.996-0.06-9.449-0.06c0-7.899,0-15.558,0-23.521c-8.009,0-15.569,0-23.729,0c0-4.562-0.048-8.833,0.051-13.102
		c0.015-0.667,0.583-1.436,1.099-1.955C271.757,373.076,280.835,363.987,289.96,354.836z"/>
</g>
</svg>
