<?xml version="1.0" encoding="utf-8"?>
<!-- Generator: Adobe Illustrator 16.0.0, SVG Export Plug-In . SVG Version: 6.00 Build 0)  -->
<!DOCTYPE svg PUBLIC "-//W3C//DTD SVG 1.1//EN" "http://www.w3.org/Graphics/SVG/1.1/DTD/svg11.dtd">
<svg version="1.1" id="Layer_1" xmlns="http://www.w3.org/2000/svg" xmlns:xlink="http://www.w3.org/1999/xlink" x="0px" y="0px"
	 width="600px" height="600px" viewBox="0 0 600 600" enable-background="new 0 0 600 600" xml:space="preserve">
<g>
	<path fill="#FFFFFF" d="M134.423,333.609c-0.043,0-0.086,0-0.129,0c0,33.885,0.008,67.77-0.005,101.654
		c-0.004,10.351,1.387,20.509,6.005,29.815c13.491,27.186,35.158,42.195,65.932,42.278c67.113,0.183,134.227,0.066,201.338,0.026
		c3.795-0.001,7.605-0.25,11.379-0.661c33.738-3.684,60.904-32.771,61.918-66.75c0.484-16.271,0.121-32.564,0.229-48.851
		c0.025-3.927-1.131-6.933-5.008-8.466c-3.684-1.456-6.643-0.225-9.258,2.394c-4.549,4.552-9.053,9.15-13.67,13.632
		c-2.516,2.441-3.664,5.251-3.625,8.774c0.104,9.324,0.045,18.647,0.033,27.975c-0.037,23.403-17.109,40.5-40.52,40.506
		c-67.639,0.018-135.277,0.02-202.916,0c-23.156-0.006-40.319-17.152-40.327-40.298c-0.021-67.64-0.02-135.278-0.001-202.916
		c0.006-23.662,17.019-40.574,40.771-40.577c67.113-0.008,134.226-0.026,201.339,0.054c4.16,0.005,8.365,0.586,12.471,1.335
		c3.824,0.696,6.924,0.038,9.646-2.825c3.346-3.521,6.887-6.858,10.279-10.333c5.234-5.358,3.889-11.254-3.092-14.239
		c-9.203-3.937-18.83-5.472-28.777-5.471c-66.979,0.011-133.962-0.006-200.944,0.036c-3.924,0.002-7.869,0.267-11.771,0.704
		c-33.104,3.701-60.694,33.25-61.185,66.612C134.021,263.21,134.423,298.413,134.423,333.609z M457.053,208.402
		c-0.523,0.479-1.311,1.143-2.033,1.867c-33.398,33.475-66.781,66.966-100.188,100.433c-20.138,20.174-40.338,40.286-60.388,60.548
		c-1.368,1.384-2.394,3.786-2.409,5.727c-0.169,21.146-0.105,42.296-0.104,63.442c0,1.251,0,2.499,0,3.942c1.894,0,3.195,0,4.497,0
		c20.886,0,41.772-0.046,62.657,0.058c2.705,0.012,4.613-0.73,6.535-2.673c22.643-22.864,45.35-45.664,68.09-68.438
		c30.443-30.486,60.928-60.938,91.391-91.406c1.006-1.006,1.965-2.056,2.648-2.772C504.113,255.484,480.658,232.019,457.053,208.402
		z M544.369,262.378c0.307-0.236,0.746-0.507,1.1-0.862c7.416-7.427,15.012-14.685,22.182-22.342
		c8.318-8.884,8.061-22.828-0.598-31.694c-12.555-12.858-25.254-25.584-38.121-38.131c-9.006-8.784-22.279-9.169-31.68-0.785
		c-7.527,6.714-14.482,14.069-21.676,21.155c-0.715,0.705-1.32,1.521-1.799,2.076C497.332,215.346,520.693,238.704,544.369,262.378z
		"/>
	<path fill="#7DBED4" d="M134.423,333.609c0-35.197-0.403-70.399,0.115-105.589c0.491-33.362,28.081-62.911,61.185-66.612
		c3.902-0.437,7.846-0.701,11.771-0.704c66.981-0.042,133.964-0.025,200.945-0.036c9.945-0.001,19.572,1.534,28.775,5.471
		c6.98,2.985,8.328,8.881,3.094,14.239c-3.395,3.476-6.936,6.812-10.279,10.333c-2.723,2.863-5.822,3.521-9.646,2.825
		c-4.105-0.749-8.311-1.33-12.473-1.335c-67.113-0.08-134.227-0.062-201.339-0.054c-23.752,0.002-40.765,16.915-40.771,40.577
		c-0.018,67.638-0.02,135.276,0.001,202.916c0.007,23.146,17.171,40.292,40.327,40.299c67.638,0.019,135.276,0.017,202.915,0
		c23.41-0.007,40.482-17.104,40.52-40.507c0.014-9.325,0.072-18.649-0.031-27.975c-0.041-3.523,1.109-6.333,3.625-8.774
		c4.615-4.48,9.119-9.079,13.67-13.632c2.615-2.617,5.574-3.85,9.256-2.394c3.877,1.532,5.035,4.538,5.01,8.466
		c-0.107,16.285,0.254,32.58-0.23,48.851c-1.014,33.979-28.18,63.066-61.916,66.75c-3.773,0.411-7.586,0.66-11.379,0.661
		c-67.113,0.04-134.226,0.155-201.339-0.026c-30.774-0.083-52.441-15.094-65.932-42.278c-4.618-9.308-6.009-19.466-6.005-29.815
		c0.013-33.886,0.005-67.771,0.005-101.655C134.336,333.609,134.379,333.609,134.423,333.609z"/>
	<path fill="#7DBED4" d="M457.551,208.444c23.605,23.617,47.062,47.083,70.699,70.729c-0.686,0.717-1.645,1.768-2.65,2.771
		c-30.463,30.47-60.945,60.92-91.391,91.406c-22.738,22.772-45.445,45.572-68.09,68.438c-1.922,1.94-3.83,2.685-6.533,2.673
		c-20.885-0.104-41.771-0.058-62.658-0.058c-1.302,0-2.603,0-4.497,0c0-1.443,0-2.691,0-3.942
		c-0.001-21.147-0.065-42.297,0.104-63.442c0.015-1.939,1.041-4.343,2.409-5.727c20.05-20.262,40.25-40.374,60.388-60.548
		c33.404-33.468,66.787-66.958,100.186-100.433C456.24,209.586,457.027,208.923,457.551,208.444z M344.457,354.878
		c-9.125,9.15-18.203,18.24-27.25,27.359c-0.516,0.521-1.084,1.289-1.1,1.955c-0.1,4.27-0.051,8.541-0.051,13.103
		c8.16,0,15.721,0,23.729,0c0,7.964,0,15.622,0,23.521c3.453,0,6.475-0.216,9.449,0.06c3.18,0.29,5.34-0.881,7.516-3.14
		c7.102-7.37,14.381-14.569,21.707-21.718c1.266-1.233,3.086-1.896,4.441-2.697C369.342,379.767,357.104,367.524,344.457,354.878z
		 M371.102,340.712c2.371-1.771,4.508-2.999,6.193-4.678c27.594-27.512,55.135-55.076,82.672-82.642
		c0.924-0.923,1.779-1.93,2.545-2.987c1.838-2.539,1.432-4.896-0.77-7.015c-2.771-2.664-5.344-2.293-9.076,1.436
		c-28.025,28.006-56.037,56.026-84.049,84.047c-0.65,0.647-1.609,1.251-1.807,2.032c-0.451,1.777-1.201,3.953-0.559,5.406
		C366.984,337.959,369.1,338.993,371.102,340.712z"/>
	<path fill="#7DBED4" d="M544.369,262.378c-23.676-23.674-47.037-47.032-70.592-70.584c0.479-0.556,1.084-1.371,1.799-2.076
		c7.191-7.086,14.146-14.441,21.676-21.155c9.398-8.384,22.674-7.999,31.68,0.785c12.867,12.547,25.566,25.273,38.121,38.131
		c8.656,8.867,8.916,22.811,0.598,31.694c-7.17,7.657-14.766,14.915-22.182,22.342C545.115,261.871,544.676,262.142,544.369,262.378
		z"/>
	<path fill="#FFFFFF" d="M343.957,354.836c12.648,12.646,24.887,24.889,38.443,38.443c-1.355,0.802-3.178,1.464-4.441,2.697
		c-7.326,7.147-14.607,14.348-21.709,21.718c-2.174,2.259-4.336,3.43-7.515,3.14c-2.976-0.274-5.995-0.06-9.448-0.06
		c0-7.899,0-15.559,0-23.521c-8.01,0-15.57,0-23.729,0c0-4.562-0.048-8.833,0.051-13.103c0.015-0.666,0.583-1.436,1.099-1.954
		C325.754,373.076,334.832,363.986,343.957,354.836z"/>
</g>
</svg>
