<?xml version="1.0" encoding="utf-8"?>
<!-- Generator: Adobe Illustrator 16.0.0, SVG Export Plug-In . SVG Version: 6.00 Build 0)  -->
<!DOCTYPE svg PUBLIC "-//W3C//DTD SVG 1.1//EN" "http://www.w3.org/Graphics/SVG/1.1/DTD/svg11.dtd">
<svg version="1.1" id="Layer_1" xmlns="http://www.w3.org/2000/svg" xmlns:xlink="http://www.w3.org/1999/xlink" x="0px" y="0px"
	 width="200px" height="200px" viewBox="0 0 200 200" enable-background="new 0 0 200 200" xml:space="preserve">
<g>
	<path fill-rule="evenodd" clip-rule="evenodd" fill="#7090AC" d="M100.157,34.003c23.415,0,46.83,0,70.244,0
		c9.645,0,16.248,6.582,16.249,16.2c0.001,34.555,0.001,69.109-0.002,103.665c0,9.709-6.591,16.28-16.328,16.28
		c-46.882,0-93.762,0-140.643,0c-9.734,0-16.326-6.579-16.326-16.285c0.001-34.554,0-69.109,0.001-103.664
		c0-9.613,6.604-16.195,16.251-16.195C53.121,34.002,76.64,34.002,100.157,34.003z M99.836,157.799c23.363,0,46.726,0,70.088-0.003
		c3.343,0,4.358-1.002,4.358-4.314c0.002-26.096,0.002-67.336,0.001-93.432c0-2.995-1.094-4.082-4.112-4.082
		c-46.775-0.001-93.553-0.001-140.329,0c-3.032,0-4.127,1.08-4.127,4.066c-0.001,26.097,0,67.336,0.001,93.432
		c0,3.315,1.02,4.33,4.342,4.33C53.319,157.799,76.578,157.796,99.836,157.799z"/>
	<path fill-rule="evenodd" clip-rule="evenodd" fill="#7DBED4" d="M112.37,77.318c15.104,0,30.208-0.001,45.312,0
		c3.138,0.001,4.204,1.057,4.209,4.15c0.004,1.598,0.037,3.198-0.012,4.795c-0.066,2.113-1.301,3.313-3.407,3.4
		c-0.359,0.014-0.721,0.002-1.082,0.002c-30.001,0-60.002,0.001-90.004,0c-3.562,0-4.516-0.945-4.516-4.468
		c-0.001-1.341-0.01-2.682,0.001-4.021c0.023-2.706,1.168-3.856,3.879-3.857c14.433-0.005,28.866-0.002,43.302-0.002
		C110.823,77.318,111.596,77.318,112.37,77.318z"/>
	<path fill-rule="evenodd" clip-rule="evenodd" fill="#7DBED4" d="M112.362,102.077c15.105,0,30.208-0.002,45.312,0.001
		c3.143,0,4.207,1.052,4.214,4.144c0.004,1.598,0.038,3.196-0.01,4.793c-0.064,2.114-1.297,3.318-3.399,3.408
		c-0.36,0.015-0.722,0.004-1.083,0.004c-30,0-60.002,0-90.003,0c-3.566,0-4.522-0.945-4.525-4.462c0-1.34-0.008-2.682,0.002-4.021
		c0.018-2.699,1.164-3.86,3.873-3.861c12.836-0.009,25.672-0.005,38.507-0.005C107.62,102.077,109.991,102.077,112.362,102.077z"/>
	<path fill-rule="evenodd" clip-rule="evenodd" fill="#7DBED4" d="M112.354,139.185c-15.052,0-30.105,0.002-45.158,0
		c-3.31,0-4.326-1.024-4.329-4.346c0-1.29-0.001-2.58,0.001-3.867c0.005-3.081,1.076-4.134,4.222-4.134
		c15.98-0.003,31.961,0,47.941,0c14.124,0,28.249-0.003,42.373-0.003c3.542,0,4.485,0.949,4.484,4.494
		c-0.002,1.341,0.011,2.68-0.002,4.021c-0.029,2.666-1.205,3.83-3.912,3.832C142.769,139.188,127.562,139.185,112.354,139.185z"/>
	<path fill-rule="evenodd" clip-rule="evenodd" fill="#7DBED4" d="M44.333,89.663c-0.979,0.001-1.957,0.038-2.932-0.008
		c-1.941-0.09-3.199-1.276-3.27-3.194c-0.072-2.003-0.077-4.014,0.004-6.016c0.075-1.85,1.311-3.043,3.184-3.105
		c2.003-0.067,4.014-0.072,6.016,0.003c1.789,0.066,3.025,1.252,3.104,3.02c0.091,2.052,0.088,4.115,0.001,6.168
		c-0.078,1.856-1.315,3.017-3.177,3.122C46.29,89.707,45.311,89.661,44.333,89.663z"/>
	<path fill-rule="evenodd" clip-rule="evenodd" fill="#7DBED4" d="M44.207,114.423c-0.924,0-1.851,0.034-2.775-0.007
		c-1.951-0.085-3.222-1.256-3.297-3.167c-0.079-2.003-0.077-4.013-0.002-6.015c0.07-1.852,1.302-3.068,3.159-3.134
		c2.002-0.071,4.012-0.072,6.015,0c1.854,0.068,3.074,1.288,3.145,3.146c0.074,1.951,0.068,3.91,0.005,5.861
		c-0.064,2.021-1.302,3.225-3.317,3.309C46.164,114.457,45.185,114.423,44.207,114.423z"/>
	<path fill-rule="evenodd" clip-rule="evenodd" fill="#7DBED4" d="M50.47,133.065c-0.001,0.926,0.035,1.852-0.007,2.777
		c-0.095,2.031-1.292,3.266-3.299,3.326c-1.902,0.059-3.807,0.056-5.708,0.002c-2.018-0.057-3.269-1.286-3.329-3.295
		c-0.06-1.951-0.064-3.907,0.006-5.86c0.067-1.856,1.279-3.084,3.134-3.153c2.002-0.075,4.012-0.074,6.016-0.003
		c1.921,0.068,3.094,1.321,3.18,3.276C50.506,131.109,50.47,132.088,50.47,133.065z"/>
</g>
</svg>
