<?xml version="1.0" encoding="utf-8"?>
<!-- Generator: Adobe Illustrator 16.0.0, SVG Export Plug-In . SVG Version: 6.00 Build 0)  -->
<!DOCTYPE svg PUBLIC "-//W3C//DTD SVG 1.1//EN" "http://www.w3.org/Graphics/SVG/1.1/DTD/svg11.dtd">
<svg version="1.1" id="Layer_1" xmlns="http://www.w3.org/2000/svg" xmlns:xlink="http://www.w3.org/1999/xlink" x="0px" y="0px"
	 width="600px" height="600px" viewBox="0 0 600 600" enable-background="new 0 0 600 600" xml:space="preserve">
<g>
	<path fill-rule="evenodd" clip-rule="evenodd" fill="#80BFD3" d="M301.759,141.762c47.326,0.129,89.951,8.089,130.271,26.807
		c31.978,14.846,59.422,35.336,80.626,63.95c31.144,42.025,33.474,98.845,5.514,143.042c-18.931,29.928-45.19,51.513-76.318,67.586
		c-37.703,19.468-77.973,29.475-120.225,31.02c-17,0.623-34.069-0.753-51.111-0.98c-2.216-0.031-4.953,0.789-6.603,2.202
		c-36.332,31.132-78.089,51.365-124.512,62.228c-6.87,1.609-13.89,2.599-20.867,3.714c-5.071,0.81-8.987-1.3-11.644-5.562
		c-2.632-4.223-3.16-8.894,0.027-12.839c6.094-7.544,12.442-14.91,19.074-21.986c16.025-17.098,26.054-37.39,32.734-59.598
		c0.871-2.895-0.763-3.66-2.585-4.723c-17.369-10.135-33.12-22.313-46.653-37.235c-24.602-27.125-39.137-58.286-37.838-95.649
		c1.082-31.086,13.136-57.803,32.981-81.267c28.056-33.172,64.446-53.284,105.134-66.489
		C240.646,145.958,272.452,141.896,301.759,141.762z M173.92,491.241c0.562,0.129,0.85,0.295,1.056,0.224
		c0.914-0.314,1.814-0.675,2.702-1.058c26.203-11.349,49.867-26.681,70.834-46.017c5.07-4.676,9.895-7.348,16.926-5.512
		c3.842,1.003,7.981,0.865,11.982,1.26c40.472,4.001,80.025-0.229,118.447-13.705c28.457-9.979,54.473-24.176,75.896-45.849
		c15.519-15.698,27.209-33.655,31.194-55.751c5.941-32.938-5.229-60.572-27.136-84.6c-19.858-21.782-44.498-36.417-71.696-47.041
		c-37.951-14.822-77.329-20.034-117.896-17.568c-33.304,2.024-65.188,9.606-95.423,23.739
		c-27.716,12.956-52.128,30.298-69.259,56.146c-20.793,31.375-22.709,64.154-4.824,97.543
		c10.441,19.488,25.773,34.702,44.017,46.855c11.177,7.444,23.024,13.881,34.475,20.928c1.213,0.746,2.789,2.861,2.493,3.812
		c-5.436,17.431-10.977,34.833-16.866,52.114C179.137,481.771,176.279,486.385,173.92,491.241z"/>
</g>
</svg>
