<?xml version="1.0" encoding="utf-8"?>
<!-- Generator: Adobe Illustrator 16.0.0, SVG Export Plug-In . SVG Version: 6.00 Build 0)  -->
<!DOCTYPE svg PUBLIC "-//W3C//DTD SVG 1.1//EN" "http://www.w3.org/Graphics/SVG/1.1/DTD/svg11.dtd">
<svg version="1.1" id="Layer_1" xmlns="http://www.w3.org/2000/svg" xmlns:xlink="http://www.w3.org/1999/xlink" x="0px" y="0px"
	 width="600px" height="600px" viewBox="0 0 600 600" enable-background="new 0 0 600 600" xml:space="preserve">
<g>
	<g>
		<g>
			<path fill="#7DBED4" d="M502.791,316.416c0.124,112.11-91.123,203.408-203.285,203.408
				c-110.919,0-202.261-91.604-202.307-202.887c-0.034-111.397,91.339-202.764,202.793-202.764
				C411.23,114.174,502.679,205.368,502.791,316.416z"/>
		</g>
		<g opacity="0.5">
			<path fill="#333332" d="M297.506,403.016c-33.446,0.015-66.94-14.052-89.754-42.295c-3.879-4.797-8.102-8.674-14.455-10.763
				c-9.392-3.09-18.247-3.399-24.931,4.456c-6.618,7.742-6.962,18.988-0.051,30.677c1.187,1.997,2.701,3.834,4.173,5.626
				c63.915,78.024,186.127,78.02,250.023-0.04c10.256-12.543,11.615-26.504,5.36-35.052c-10.177-12.961-29.725-8.078-39.146,3.387
				c-9.955,12.283-21.531,22.243-34.476,29.434C336.759,398.154,317.137,403.014,297.506,403.016z"/>
		</g>
	</g>
	<g>
		<path opacity="0.5" fill="#333332" enable-background="new    " d="M201.468,235.541c-0.042,22.26,12.551,40.786,27.603,40.609
			c15.005-0.172,27.333-18.379,27.386-40.435c0.05-22.181-12.6-40.783-27.617-40.614
			C213.775,195.278,201.503,213.419,201.468,235.541z"/>
		<path opacity="0.5" fill="#333332" enable-background="new    " d="M341.087,235.543c-0.041,22.263,12.546,40.777,27.601,40.606
			c15.003-0.172,27.336-18.386,27.386-40.444c0.052-22.179-12.599-40.777-27.617-40.605
			C353.396,195.276,341.118,213.417,341.087,235.543z"/>
	</g>
</g>
</svg>
