<?xml version="1.0" encoding="utf-8"?>
<!-- Generator: Adobe Illustrator 16.0.0, SVG Export Plug-In . SVG Version: 6.00 Build 0)  -->
<!DOCTYPE svg PUBLIC "-//W3C//DTD SVG 1.1//EN" "http://www.w3.org/Graphics/SVG/1.1/DTD/svg11.dtd">
<svg version="1.1" id="Layer_1" xmlns="http://www.w3.org/2000/svg" xmlns:xlink="http://www.w3.org/1999/xlink" x="0px" y="0px"
	 width="600px" height="600px" viewBox="0 0 600 600" enable-background="new 0 0 600 600" xml:space="preserve">
<g>
	<path fill="#7EBDD2" d="M164.821,489.223c-0.339,12.056,6.735,17.256,16.68,13.688c2.309-0.829,4.521-1.968,6.7-3.112
		c36.618-19.245,73.237-38.491,109.809-57.826c2.48-1.312,4.409-1.24,6.851,0.05c33.787,17.861,67.607,35.66,101.462,53.391
		c5.563,2.916,11.139,6.036,17.06,7.991c7.598,2.509,13.383-1.791,14.053-9.771c0.275-3.25,0.186-6.625-0.361-9.834
		c-6.909-40.529-13.901-81.046-20.988-121.543c-0.569-3.254-0.099-5.513,2.396-7.929c27.091-26.235,54.087-52.572,81.026-78.966
		c4.781-4.687,9.707-9.383,13.616-14.765c4.739-6.529,2.359-13.234-5.061-16.361c-2.246-0.946-4.705-1.541-7.127-1.897
		c-41.22-6.058-82.446-12.087-123.688-18c-3.668-0.526-5.95-1.743-7.711-5.344c-17.935-36.681-36.072-73.265-54.245-109.829
		c-1.691-3.402-3.653-6.808-6.137-9.649c-4.245-4.858-11.311-4.839-15.553,0.006c-2.399,2.739-4.315,6.012-5.944,9.294
		c-18.34,36.94-36.608,73.917-54.796,110.934c-1.274,2.595-2.804,3.953-5.72,4.37c-36.63,5.229-73.25,10.541-109.865,15.881
		c-6.641,0.967-13.354,1.745-19.851,3.346c-10.131,2.498-12.86,10.17-6.936,18.708c1.86,2.681,4.115,5.141,6.458,7.426
		c29.266,28.524,58.564,57.015,87.925,85.441c1.892,1.83,2.486,3.528,2.035,6.107c-5.402,30.915-10.71,61.844-16.031,92.771
		C168.764,466.091,166.674,478.388,164.821,489.223z"/>
	<path fill-rule="evenodd" clip-rule="evenodd" fill="#7EBDD2" d="M164.821,489.223c1.853-10.835,3.942-23.132,6.057-35.422
		c5.321-30.927,10.628-61.855,16.031-92.771c0.451-2.579-0.143-4.277-2.035-6.107c-29.361-28.426-58.659-56.917-87.925-85.441
		c-2.344-2.285-4.599-4.745-6.458-7.426c-5.924-8.538-3.195-16.21,6.936-18.708c6.498-1.602,13.21-2.379,19.851-3.346
		c36.615-5.341,73.234-10.652,109.865-15.881c2.916-0.417,4.445-1.774,5.72-4.37c18.188-37.016,36.456-73.994,54.796-110.934
		c1.629-3.282,3.544-6.555,5.944-9.294c4.242-4.846,11.308-4.864,15.553-0.006c2.483,2.841,4.445,6.247,6.137,9.649
		c18.173,36.564,36.311,73.148,54.245,109.829c1.761,3.601,4.043,4.817,7.711,5.344c41.241,5.913,82.468,11.942,123.688,18
		c2.422,0.356,4.881,0.951,7.127,1.897c7.42,3.127,9.8,9.833,5.061,16.361c-3.909,5.382-8.835,10.079-13.616,14.765
		c-26.939,26.394-53.936,52.73-81.026,78.966c-2.494,2.416-2.965,4.675-2.396,7.929c7.087,40.497,14.079,81.014,20.988,121.543
		c0.547,3.209,0.637,6.584,0.361,9.834c-0.67,7.979-6.455,12.279-14.053,9.771c-5.921-1.955-11.496-5.075-17.06-7.991
		c-33.854-17.73-67.675-35.529-101.462-53.391c-2.441-1.29-4.37-1.361-6.851-0.05c-36.572,19.335-73.19,38.581-109.809,57.826
		c-2.179,1.145-4.391,2.283-6.7,3.112C171.557,506.479,164.482,501.278,164.821,489.223z"/>
</g>
</svg>
