<?xml version="1.0" encoding="utf-8"?>
<!-- Generator: Adobe Illustrator 16.0.0, SVG Export Plug-In . SVG Version: 6.00 Build 0)  -->
<!DOCTYPE svg PUBLIC "-//W3C//DTD SVG 1.1//EN" "http://www.w3.org/Graphics/SVG/1.1/DTD/svg11.dtd">
<svg version="1.1" id="Layer_1" xmlns="http://www.w3.org/2000/svg" xmlns:xlink="http://www.w3.org/1999/xlink" x="0px" y="0px"
	 width="600px" height="600px" viewBox="0 0 600 600" enable-background="new 0 0 600 600" xml:space="preserve">
<g>
	<g>
		<g>
			<path fill="#7DBED4" d="M502.791,316.416c0.124,112.11-91.123,203.408-203.285,203.408
				c-110.919,0-202.261-91.604-202.307-202.886c-0.034-111.398,91.339-202.764,202.793-202.764
				C411.23,114.174,502.679,205.368,502.791,316.416z"/>
			<path fill="#669BA9" d="M299.506,527.935c-55.823,0-108.551-22.051-148.478-62.094c-39.924-40.038-61.917-92.915-61.937-148.895
				c-0.018-56.048,21.988-108.927,61.962-148.896c39.978-39.973,92.868-61.984,148.94-61.984
				c55.956,0,108.804,21.964,148.798,61.847c39.995,39.886,62.06,92.625,62.116,148.494c0.053,56.376-21.917,109.453-61.877,149.452
				C409.039,505.893,355.935,527.936,299.506,527.935L299.506,527.935L299.506,527.935z M162.521,179.519
				c-36.907,36.907-57.224,85.709-57.208,137.421c0.019,51.66,20.332,100.468,57.204,137.446
				c36.864,36.963,85.513,57.326,136.989,57.326l0,0c52.096,0,101.123-20.354,138.044-57.312
				c36.899-36.935,57.194-85.938,57.133-137.973c-0.051-51.537-20.416-100.202-57.347-137.028
				c-36.936-36.828-85.707-57.11-137.344-57.11C248.256,122.288,199.433,142.612,162.521,179.519z"/>
		</g>
		<g opacity="0.5">
			<path fill="#333332" d="M297.506,403.016c-33.446,0.014-66.94-14.052-89.754-42.295c-3.879-4.797-8.102-8.674-14.455-10.763
				c-9.392-3.09-18.247-3.399-24.931,4.456c-6.618,7.742-6.962,18.988-0.051,30.677c1.187,1.997,2.701,3.834,4.173,5.626
				c63.915,78.024,186.127,78.019,250.023-0.04c10.256-12.543,11.615-26.504,5.36-35.052c-10.177-12.961-29.725-8.078-39.146,3.387
				c-9.955,12.283-21.532,22.243-34.476,29.433C336.759,398.154,317.137,403.014,297.506,403.016z"/>
		</g>
	</g>
	<g>
		<path opacity="0.5" fill="#333332" enable-background="new    " d="M201.468,235.541c-0.042,22.26,12.551,40.786,27.603,40.609
			c15.005-0.172,27.333-18.379,27.386-40.435c0.05-22.181-12.6-40.783-27.617-40.614
			C213.775,195.278,201.503,213.419,201.468,235.541z"/>
		<path opacity="0.5" fill="#333332" enable-background="new    " d="M341.087,235.543c-0.041,22.263,12.546,40.777,27.6,40.606
			c15.003-0.172,27.336-18.386,27.386-40.444c0.052-22.179-12.598-40.777-27.617-40.605
			C353.396,195.276,341.118,213.417,341.087,235.543z"/>
	</g>
</g>
</svg>
