<?xml version="1.0" encoding="utf-8"?>
<!-- Generator: Adobe Illustrator 16.0.0, SVG Export Plug-In . SVG Version: 6.00 Build 0)  -->
<!DOCTYPE svg PUBLIC "-//W3C//DTD SVG 1.1//EN" "http://www.w3.org/Graphics/SVG/1.1/DTD/svg11.dtd">
<svg version="1.1" id="Isolation_Mode" xmlns="http://www.w3.org/2000/svg" xmlns:xlink="http://www.w3.org/1999/xlink" x="0px"
	 y="0px" width="600px" height="600px" viewBox="0 0 600 600" enable-background="new 0 0 600 600" xml:space="preserve">
<g>
	<path fill="#FFFFFF" stroke="#FFFFFF" stroke-width="6" stroke-miterlimit="10" d="M380.357,228.201
		c0.317-1.466,0.371-2.523,0.773-3.423c1.823-4.067,3.431-8.274,5.686-12.095c14.897-25.273,20.396-52.257,15.151-81.251
		c-3.541-19.579-12.467-35.365-32.517-41.701c-8.688-2.746-18.036-3.598-27.155-4.727c-5.991-0.744-10.97,2.056-14.958,6.583
		c-7.185,8.152-11.387,17.82-13.898,28.201c-2.629,10.861-4.483,21.909-7.186,32.749c-2.426,9.742-6.245,18.924-12.976,26.698
		c-8.98,10.371-17.718,20.952-26.646,31.37c-12.998,15.167-25.857,30.462-39.27,45.254c-3.225,3.557-8.093,6.447-12.735,7.732
		c-11.821,3.274-16.756,8.831-16.761,21.211c-0.01,29.999-0.002,59.997-0.001,89.996c0,28.357-0.039,56.714,0.024,85.071
		c0.024,10.551,7.006,17.995,17.505,19.009c1.628,0.16,3.325,0.14,4.867,0.607c18.513,5.62,37.236,10.656,55.449,17.128
		c45.484,16.16,92.229,21.233,140.075,17.162c18.723-1.595,34.913-8.82,46.224-24.656c9.078-12.714,11.588-27.168,11.178-42.443
		c-0.06-2.262,0.65-5.078,2.059-6.762c13.088-15.695,17.424-33.479,13.665-53.456c-0.338-1.793-0.061-4.203,0.919-5.666
		c9.773-14.599,12.721-30.625,8.568-47.407c-1.775-7.181-0.582-11.994,3.27-18.162c11.476-18.367,13.893-38.264,3.395-57.8
		c-10.607-19.743-27.771-29.551-50.578-29.279c-22.98,0.274-45.969,0.059-68.953,0.058
		C383.922,228.201,382.314,228.201,380.357,228.201z M179.908,371.68c0-28.961,0.006-57.918-0.003-86.875
		c-0.004-13.641-7.076-20.768-20.58-20.771c-24.928-0.004-49.854-0.005-74.782,0c-14.126,0.003-21.026,6.953-21.028,21.221
		c-0.007,57.617-0.004,115.236,0,172.853c0.001,13.586,7.119,20.783,20.581,20.792c25.077,0.013,50.153,0.013,75.231,0
		c13.458-0.009,20.574-7.205,20.578-20.795C179.915,429.295,179.909,400.487,179.908,371.68z"/>
	<path fill="#7EBDD2" stroke="#FFFFFF" stroke-width="6" stroke-miterlimit="10" d="M380.357,228.201c1.957,0,3.563,0,5.172,0
		c22.984,0.001,45.973,0.216,68.953-0.058c22.808-0.271,39.971,9.537,50.578,29.279c10.498,19.536,8.081,39.433-3.395,57.801
		c-3.852,6.166-5.045,10.98-3.27,18.16c4.151,16.783,1.205,32.811-8.568,47.408c-0.979,1.463-1.257,3.873-0.919,5.666
		c3.759,19.979-0.577,37.761-13.665,53.456c-1.407,1.684-2.117,4.5-2.059,6.762c0.41,15.275-2.1,29.729-11.178,42.443
		c-11.311,15.836-27.501,23.062-46.224,24.655c-47.847,4.072-94.591-1.002-140.075-17.161
		c-18.213-6.472-36.937-11.509-55.449-17.128c-1.542-0.469-3.238-0.447-4.867-0.607c-10.499-1.014-17.48-8.458-17.505-19.009
		c-0.063-28.357-0.024-56.714-0.024-85.071c0-29.999-0.009-59.997,0.001-89.996c0.004-12.38,4.94-17.937,16.761-21.211
		c4.642-1.285,9.51-4.175,12.735-7.732c13.413-14.792,26.272-30.087,39.27-45.254c8.928-10.418,17.666-20.999,26.646-31.37
		c6.731-7.773,10.55-16.956,12.976-26.698c2.701-10.839,4.557-21.888,7.185-32.749c2.514-10.38,6.716-20.049,13.899-28.201
		c3.988-4.527,8.967-7.327,14.958-6.583c9.119,1.128,18.467,1.981,27.155,4.727c20.05,6.335,28.976,22.122,32.517,41.701
		c5.245,28.994-0.254,55.978-15.151,81.251c-2.255,3.821-3.861,8.028-5.686,12.095C380.729,225.678,380.676,226.735,380.357,228.201
		z"/>
	<path fill="#7EBDD2" stroke="#FFFFFF" stroke-width="6" stroke-miterlimit="10" d="M179.908,371.68
		c0.001,28.809,0.006,57.615-0.001,86.426c-0.004,13.589-7.12,20.785-20.578,20.794c-25.078,0.013-50.155,0.013-75.231,0
		c-13.462-0.009-20.58-7.206-20.581-20.792c-0.004-57.616-0.007-115.235,0-172.853c0.001-14.269,6.902-21.218,21.028-21.221
		c24.927-0.005,49.854-0.004,74.782,0c13.504,0.003,20.575,7.13,20.58,20.771C179.915,313.762,179.908,342.719,179.908,371.68z
		 M117.369,407.264c-9.861-0.076-18.038,7.975-18.059,17.781c-0.023,10.062,7.782,18.038,17.714,18.108
		c9.861,0.067,18.009-7.917,18.126-17.767C135.266,415.649,127.112,407.341,117.369,407.264z"/>
	<path fill="#FFFFFF" stroke="#FFFFFF" stroke-width="6" stroke-miterlimit="10" d="M117.369,407.264
		c9.744,0.077,17.897,8.387,17.781,18.124c-0.117,9.85-8.265,17.834-18.126,17.767c-9.932-0.07-17.737-8.047-17.714-18.108
		C99.331,415.237,107.507,407.188,117.369,407.264z"/>
</g>
</svg>
