<?xml version="1.0" encoding="utf-8"?>
<!-- Generator: Adobe Illustrator 16.0.0, SVG Export Plug-In . SVG Version: 6.00 Build 0)  -->
<!DOCTYPE svg PUBLIC "-//W3C//DTD SVG 1.1//EN" "http://www.w3.org/Graphics/SVG/1.1/DTD/svg11.dtd">
<svg version="1.1" id="Layer_1" xmlns="http://www.w3.org/2000/svg" xmlns:xlink="http://www.w3.org/1999/xlink" x="0px" y="0px"
	 width="88.123px" height="88.066px" viewBox="0 0 88.123 88.066" enable-background="new 0 0 88.123 88.066" xml:space="preserve">
<g>
	<g>
		<defs>
			<rect id="SVGID_1_" y="0" width="88.123" height="88.066"/>
		</defs>
		<clipPath id="SVGID_2_">
			<use xlink:href="#SVGID_1_"  overflow="visible"/>
		</clipPath>
		<path clip-path="url(#SVGID_2_)" fill="#4192B6" d="M20.918,8.817h2.5c1.7,0,2.9-0.6,3.8-2c0.9-1.399,1.8-2.8,2.7-4.1
			c1.9-2.8,4.9-3.5,7.8-1.8c1.5,0.8,3,1.7,4.5,2.5c1.2,0.7,2.399,0.6,3.7,0c1.5-0.8,2.899-1.7,4.399-2.5c3-1.7,5.899-1,7.8,1.8
			c0.899,1.4,1.801,2.7,2.7,4.1c0.899,1.4,2,2.101,3.699,2c1.7-0.1,3.4-0.1,5.101-0.199c3.2,0,5.601,2.3,5.801,5.5
			c0.101,1.6,0.3,3.3,0.399,4.899c0.199,1.601,0.899,2.7,2.399,3.3c1.5,0.7,3,1.4,4.5,2.2c2.899,1.5,3.899,4.4,2.7,7.3
			c-0.602,1.601-1.301,3.2-2,4.801c-0.602,1.399-0.4,2.6,0.398,3.8c1,1.3,2,2.7,3,4.1c2,2.7,1.701,5.8-0.898,8
			c-1.2,1-2.4,2.101-3.602,3c-1.5,1.101-2,2.5-1.6,4.3c0.301,1.7,0.6,3.4,0.7,5.101c0.3,3.101-1.5,5.601-4.601,6.2
			c-1.5,0.3-3,0.699-4.5,1c-1.7,0.3-2.801,1.199-3.301,2.899c-0.5,1.601-1.1,3.2-1.6,4.7c-1,2.899-3.7,4.3-6.7,3.6
			c-1.7-0.399-3.3-0.899-4.899-1.399c-1.601-0.5-3-0.199-4.2,1.101c-1.199,1.2-2.399,2.3-3.601,3.399c-2.399,2.2-5.399,2.2-7.8,0
			c-1.2-1.101-2.5-2.3-3.7-3.399c-1.1-1.101-2.4-1.5-4-1c-1.7,0.5-3.3,1-5,1.399c-3.1,0.801-5.8-0.8-6.8-3.8
			c-0.5-1.601-1.1-3.101-1.6-4.7c-0.5-1.601-1.5-2.5-3.1-2.8c-1.6-0.301-3.2-0.7-4.8-1c-3-0.601-4.8-3.101-4.5-6.101
			c0.2-1.7,0.5-3.399,0.7-5.2c0.3-1.699-0.1-3.1-1.5-4.199c-1.3-1-2.5-2.101-3.8-3.2c-2.4-2.101-2.8-5.199-1-7.899
			c1-1.399,2-2.7,3-4c0.9-1.2,1.1-2.5,0.5-4c-0.7-1.6-1.3-3.3-2-4.899c-1.1-2.7-0.1-5.601,2.4-7.101c1.6-0.899,3.2-1.6,4.9-2.399
			c1.5-0.7,2.3-1.801,2.4-3.4c0.2-1.7,0.3-3.3,0.4-5c0.2-3,2.6-5.3,5.6-5.3h2.8C20.918,8.617,20.918,8.717,20.918,8.817
			 M72.618,44.017c0-16.1-13.1-29-29.2-28.8c-15.8,0.3-28.5,13.4-28.3,29c0.2,16.1,13.3,28.9,29.3,28.6
			C60.219,72.517,72.618,59.517,72.618,44.017"/>
	</g>
	<g>
		<defs>
			<rect id="SVGID_3_" y="0" width="88.123" height="88.066"/>
		</defs>
		<clipPath id="SVGID_4_">
			<use xlink:href="#SVGID_3_"  overflow="visible"/>
		</clipPath>
		<path clip-path="url(#SVGID_4_)" fill="#4192B6" d="M44.019,18.817c13.8,0.101,24.9,11.2,25,24.9
			c0.101,14.6-11.199,25.8-25.8,25.5c-13.6-0.2-24.6-11.5-24.5-25.3C18.719,30.017,30.019,18.817,44.019,18.817 M40.219,47.017
			c-2.2-2-4.3-3.899-6.5-5.7c-2.4-2.1-2.9-2-5.1,0.2c-1.1,1.101-1.3,1.9-0.4,3.2c1.1,1.7,2.4,3.3,3.7,4.9c2.4,3,4.7,6.101,7.1,9.101
			c0.8,1,1.9,1,2.7,0c0.2-0.301,0.4-0.5,0.6-0.801c5.601-7.8,11.2-15.601,16.8-23.399c0.2-0.3,0.5-0.7,0.7-1.1
			c0.5-1,0.399-1.7-0.399-2.4c-0.601-0.5-1.2-1-1.899-1.399c-0.801-0.601-1.5-0.5-2.101,0.199c-0.899,1-1.899,2.101-2.801,3.2
			C48.317,37.617,44.318,42.217,40.219,47.017"/>
	</g>
</g>
</svg>
