<?xml version="1.0" encoding="UTF-8" standalone="no"?>
<svg width="32px" height="29px" viewBox="0 0 32 29" version="1.1" xmlns="http://www.w3.org/2000/svg" xmlns:xlink="http://www.w3.org/1999/xlink">
    <!-- Generator: Sketch 41 (35326) - http://www.bohemiancoding.com/sketch -->
    <title>seals-icon-status</title>
    <desc>Created with Sketch.</desc>
    <defs>
        <polygon id="path-1" points="31.6292604 28.9813519 0 28.9813519 0 0.000183010276 31.6292604 0.000183010276 31.6292604 28.9813519"></polygon>
    </defs>
    <g id="Page-1" stroke="none" stroke-width="1" fill="none" fill-rule="evenodd">
        <g id="Message-Seal" transform="translate(-877.000000, -291.000000)">
            <g id="Seal-1" transform="translate(232.000000, 117.000000)">
                <g id="Code-Section" transform="translate(440.000000, 143.000000)">
                    <g id="Selectors" transform="translate(38.000000, 31.000000)">
                        <g id="Status-Selector" transform="translate(165.000000, 0.000000)">
                            <g id="seals-icon-status" transform="translate(2.000000, 0.000000)">
                                <mask id="mask-2" fill="white">
                                    <use xlink:href="#path-1"></use>
                                </mask>
                                <g id="Clip-2"></g>
                                <path d="M15.8215814,24.5257405 C16.3484651,24.5257405 16.8757209,24.5286772 17.4026047,24.5250063 C17.8595349,24.5220696 18.0790698,24.3102595 18.0813023,23.8580063 C18.0861395,22.8085 18.0861395,21.7593608 18.0813023,20.7098544 C18.0794419,20.2799937 17.8543256,20.0623101 17.4156279,20.0608418 C16.352186,20.057538 15.2883721,20.057538 14.2253023,20.0608418 C13.7873488,20.0623101 13.5614884,20.2818291 13.56,20.7109557 C13.5562791,21.760462 13.555907,22.8096013 13.5603721,23.8587405 C13.5622326,24.3095253 13.7828837,24.5217025 14.2405581,24.5250063 C14.7674419,24.5286772 15.2943256,24.5261076 15.8215814,24.5257405 M18.208186,13.3974494 L18.2093023,13.3974494 C18.2595349,12.1456772 18.3105116,10.8939051 18.3588837,9.64176582 C18.3778605,9.15170253 18.1382326,8.90979114 17.6336744,8.90905696 C16.4284651,8.90722152 15.2232558,8.90758861 14.0176744,8.90905696 C13.4963721,8.90942405 13.2608372,9.15023418 13.2805581,9.66305696 C13.3754419,12.1856899 13.471814,14.7083228 13.5663256,17.2309557 C13.5819535,17.6453987 13.7255814,17.8219684 14.1393488,17.8271076 C15.2593488,17.8399557 16.380093,17.8395886 17.5004651,17.8260063 C17.8788837,17.8216013 18.044093,17.6321835 18.0586047,17.2650949 C18.1092093,15.9758797 18.1583256,14.6862975 18.208186,13.3974494 M15.7947907,28.9810949 C11.3125581,28.9810949 6.82995349,28.9825633 2.34734884,28.9799937 C0.965767442,28.9792595 -0.0991627907,27.9216772 0.00725581395,26.6089684 C0.0366511628,26.2451835 0.195162791,25.8703861 0.373023256,25.5425759 C1.44725581,23.5625 2.54381395,21.5949051 3.63404651,19.6236392 C7.00297674,13.5299684 10.3741395,7.43739873 13.7378605,1.34152532 C14.1534884,0.588626582 14.7376744,0.0780063291 15.6206512,0.00899367089 C16.6245581,-0.0695632911 17.3616744,0.380120253 17.8416744,1.24094304 C18.5304186,2.47693038 19.2109767,3.71732278 19.8956279,4.95587975 C23.6973023,11.8318165 27.4852093,18.715462 31.311814,25.5778165 C32.1426977,27.0678291 31.2124651,28.5739937 30.0210233,28.8786772 C29.7605581,28.9454873 29.4837209,28.9763228 29.2139535,28.9766899 C24.7410233,28.9825633 20.2677209,28.9810949 15.7947907,28.9810949" id="Fill-1" fill="#77B3CE" mask="url(#mask-2)"></path>
                            </g>
                        </g>
                    </g>
                </g>
            </g>
        </g>
    </g>
</svg>