<?xml version="1.0" encoding="utf-8"?>
<!-- Generator: Adobe Illustrator 16.0.0, SVG Export Plug-In . SVG Version: 6.00 Build 0)  -->
<!DOCTYPE svg PUBLIC "-//W3C//DTD SVG 1.1//EN" "http://www.w3.org/Graphics/SVG/1.1/DTD/svg11.dtd">
<svg version="1.1" id="Layer_1" xmlns="http://www.w3.org/2000/svg" xmlns:xlink="http://www.w3.org/1999/xlink" x="0px" y="0px"
	 width="37.375px" height="37.5px" viewBox="0 0 37.375 37.5" enable-background="new 0 0 37.375 37.5" xml:space="preserve">
<g>
	<g>
		<path fill="#4292B7" d="M4.426,14.168c0.796,4.977,1.437,9.95,1.921,14.922c0.108,1.088,0.828,2.008,1.617,2.047
			c4.792,0.207,9.586,0.229,14.384,0.069c1.302,1.533,2.565,3.035,3.802,4.49c0.061-1.543,0.132-3.087,0.21-4.632
			c1.037-0.057,2.075-0.121,3.113-0.192c0.791-0.058,1.506-0.974,1.608-2.042c0.458-4.879,1.063-9.757,1.815-14.633
			c0.169-1.068-0.457-1.973-1.408-2.016c-8.57-0.367-17.13-0.383-25.679-0.06C4.862,12.159,4.247,13.078,4.426,14.168z"/>
		<path fill="#FFFFFF" d="M8.304,27.925c-0.085-0.192-0.143-0.401-0.162-0.622c-0.339-3.832-0.753-7.668-1.246-11.508
			c2.744,1.682,5.334,3.432,7.8,5.189C12.438,23.344,10.324,25.68,8.304,27.925z"/>
		<path fill="#FFFFFF" d="M9.512,28.859C9.23,28.854,8.96,28.73,8.734,28.527c2.077-2.303,4.251-4.7,6.58-7.119
			c1.189,0.861,2.348,1.724,3.483,2.58c1.135-0.872,2.297-1.746,3.488-2.613c2.34,2.38,4.528,4.715,6.618,6.93
			c-0.228,0.211-0.5,0.344-0.789,0.357C21.908,28.961,15.708,29.029,9.512,28.859z"/>
		<path fill="#FFFFFF" d="M22.899,20.951c2.454-1.768,5.033-3.508,7.767-5.156c-0.468,3.77-0.863,7.539-1.185,11.307
			c-0.019,0.211-0.071,0.412-0.152,0.598C27.297,25.541,25.17,23.27,22.899,20.951z"/>
		<path fill="#4292B7" d="M30.586,14.23c-4.285,0.029-8.546,0.137-12.782,0.307c-3.737-0.157-7.491-0.268-11.262-0.321
			c-0.57-0.541-1.15-1.077-1.741-1.608C8.836,9.02,13.328,5.288,18.476,1.803c5.248,3.597,9.75,7.128,13.865,10.707
			C31.72,12.992,31.186,13.734,30.586,14.23z"/>
		<g>
			<g>
				<path fill="#FFFFFF" d="M26.995,15.876c-1.176-0.045-2.352-0.087-3.53-0.126c-0.518,1.869-2.559,4.066-4.907,4.079
					c-2.379,0.007-4.453-2.146-4.959-4.065c-1.073,0.002-2.145,0.008-3.218,0.018c0.057,0.642,0.113,1.283,0.167,1.925
					c2.866,1.356,5.611,2.754,8.256,4.135c2.566-1.333,5.227-2.667,8-3.946C26.866,17.223,26.93,16.549,26.995,15.876z"/>
			</g>
			<g>
				<g>
					<path fill="#FFFFFF" d="M27.889,16.655c0.32-3.487,0.687-6.979,1.099-10.474C22.027,5.795,15.072,5.76,8.124,6.068
						c0.453,3.494,0.854,6.984,1.206,10.469"/>
					<path fill="#626363" d="M27.819,17.424c-0.467,0.213-0.931,0.428-1.392,0.645c0.268-3.563,0.578-7.131,0.929-10.704
						c-5.826-0.236-11.643-0.24-17.45-0.021c0.375,3.516,0.706,7.025,0.995,10.53c-0.502-0.242-1.008-0.481-1.517-0.72
						C9.021,13.464,8.601,9.77,8.124,6.07c6.949-0.311,13.903-0.274,20.864,0.113C28.545,9.934,28.155,13.682,27.819,17.424z"/>
				</g>
				<path fill="#2B72AD" d="M23.617,15.75c0.131-2.275-2.116-4.182-5.031-4.191c-2.917-0.006-5.139,1.903-4.985,4.198
					c0.15,2.293,2.393,4.146,5.025,4.138C21.261,19.881,23.489,18.025,23.617,15.75z"/>
				<g>
					<g>
						<path fill="#0F79AC" d="M17.776,17.622c1.334-1.013,2.708-2.021,4.128-3.013"/>
						<path fill="#FFFFFF" d="M17.883,18.096c-0.203-0.5-0.408-1-0.618-1.498c1.287-1.064,2.615-2.127,3.99-3.173
							c0.419,0.373,0.833,0.746,1.242,1.119C20.902,15.713,19.367,16.902,17.883,18.096z"/>
					</g>
					<g>
						<path fill="#0F79AC" d="M15.926,16.3c0.584,0.427,1.161,0.856,1.73,1.285"/>
						<path fill="#FFFFFF" d="M17.85,18.096c-0.837-0.652-1.69-1.304-2.561-1.951c0.44-0.399,0.885-0.799,1.336-1.196
							c0.565,0.45,1.124,0.903,1.674,1.354C18.147,16.9,17.997,17.497,17.85,18.096z"/>
					</g>
				</g>
				<path fill="#A3A0A8" d="M25.232,10.855c-0.005,0.068-0.309,0.117-0.68,0.106c-4.029-0.093-8.055-0.103-12.079-0.026
					c-0.372,0.006-0.677-0.041-0.682-0.109c-0.06-0.741-0.121-1.482-0.184-2.225c-0.006-0.067,0.298-0.131,0.678-0.141
					c4.139-0.091,8.279-0.076,12.423,0.046c0.381,0.011,0.687,0.076,0.682,0.144C25.335,9.387,25.283,10.121,25.232,10.855z"/>
			</g>
		</g>
	</g>
</g>
</svg>
