<?xml version="1.0" encoding="utf-8"?>
<!-- Generator: Adobe Illustrator 16.0.0, SVG Export Plug-In . SVG Version: 6.00 Build 0)  -->
<!DOCTYPE svg PUBLIC "-//W3C//DTD SVG 1.1//EN" "http://www.w3.org/Graphics/SVG/1.1/DTD/svg11.dtd">
<svg version="1.1" id="Layer_1" xmlns="http://www.w3.org/2000/svg" xmlns:xlink="http://www.w3.org/1999/xlink" x="0px" y="0px"
	 width="37.833px" height="24px" viewBox="-6.833 0 37.833 24" enable-background="new -6.833 0 37.833 24" xml:space="preserve">
<title>seals-icon-edit</title>
<desc>Created with Sketch.</desc>
<g id="Page-1">
	<g id="Message-Seal" transform="translate(-800.000000, -295.000000)">
		<g id="Seal-1" transform="translate(232.000000, 117.000000)">
			<g id="Code-Section" transform="translate(440.000000, 143.000000)">
				<g id="Selectors" transform="translate(38.000000, 31.000000)">
					<g id="Edit-Selector" transform="translate(90.000000, 4.000000)">
						<g id="seals-icon-edit">
							<path id="Fill-1" fill="#77B3CE" d="M0.017,11.855c0-2.385-0.045-4.771,0.013-7.155C0.092,2.052,2.195,0.022,4.85,0.011
								c4.706-0.021,9.412-0.007,14.119-0.004c0.646,0,1.27,0.129,1.865,0.386c0.432,0.185,0.525,0.586,0.204,0.931
								c-0.252,0.27-0.521,0.522-0.782,0.784c-0.162,0.162-0.352,0.187-0.572,0.156c-0.346-0.048-0.696-0.099-1.045-0.1
								C14.095,2.158,9.551,2.16,5.007,2.16c-1.684,0-2.835,1.15-2.835,2.829c0,4.599,0,9.198,0,13.798
								c0,1.349,0.808,2.435,2.046,2.734c0.233,0.057,0.48,0.08,0.722,0.081c4.643,0.005,9.286,0.005,13.929,0.003
								c1.598,0,2.762-1.155,2.777-2.754c0.007-0.639,0.007-1.279-0.001-1.918c-0.003-0.25,0.072-0.451,0.255-0.626
								c0.312-0.299,0.614-0.608,0.919-0.915c0.187-0.188,0.392-0.283,0.656-0.176c0.267,0.109,0.337,0.32,0.336,0.587
								c-0.008,1.134,0.018,2.269-0.019,3.401c-0.072,2.251-1.971,4.27-4.208,4.506c-0.286,0.03-0.574,0.047-0.862,0.048
								c-4.588,0.003-9.178,0.003-13.766,0.001c-2.167-0.001-4.013-1.279-4.681-3.299c-0.172-0.519-0.247-1.09-0.254-1.64
								c-0.027-2.321-0.011-4.644-0.011-6.966H0.017z"/>
							<path id="Fill-3" fill="#77B3CE" d="M16.222,12.34c0.177-0.135,0.337-0.23,0.465-0.358c1.868-1.859,3.733-3.722,5.598-5.585
								c0.083-0.082,0.161-0.17,0.229-0.265c0.107-0.153,0.087-0.304-0.04-0.44c-0.192-0.21-0.385-0.186-0.661,0.089
								c-1.911,1.906-3.821,3.813-5.729,5.72c-0.058,0.057-0.138,0.11-0.159,0.18c-0.035,0.112-0.074,0.257-0.03,0.349
								C15.948,12.144,16.086,12.218,16.222,12.34L16.222,12.34z M14.082,16.207v1.619c0.301,0,0.571,0.004,0.84-0.004
								c0.057-0.001,0.128-0.023,0.167-0.062c0.633-0.625,1.262-1.253,1.858-1.849c-0.865-0.864-1.714-1.712-2.58-2.575
								c-0.599,0.601-1.221,1.224-1.841,1.848c-0.03,0.031-0.07,0.072-0.07,0.109c-0.006,0.301-0.003,0.602-0.003,0.914H14.082z
								 M22.18,3.273c1.621,1.619,3.226,3.222,4.846,4.84c-0.029,0.034-0.068,0.09-0.117,0.138
								c-3.684,3.678-7.367,7.356-11.053,11.031c-0.075,0.074-0.193,0.151-0.292,0.151c-1.55,0.008-3.101,0.004-4.65,0.002
								c-0.017,0-0.033-0.01-0.068-0.021c-0.005-0.07-0.014-0.148-0.015-0.227c0-1.458-0.004-2.916,0.006-4.373
								c0.001-0.125,0.065-0.282,0.153-0.371c3.679-3.683,7.363-7.36,11.047-11.037C22.08,3.362,22.128,3.321,22.18,3.273
								L22.18,3.273z"/>
							<g id="Group-7" transform="translate(23.312000, 0.003903)">
								<g id="Clip-6">
								</g>
								<defs>
									<filter id="Adobe_OpacityMaskFilter" filterUnits="userSpaceOnUse" x="0.084" y="0.116" width="6.775" height="6.802">
										<feColorMatrix  type="matrix" values="1 0 0 0 0  0 1 0 0 0  0 0 1 0 0  0 0 0 1 0"/>
									</filter>
								</defs>
								<mask maskUnits="userSpaceOnUse" x="0.084" y="0.116" width="6.775" height="6.802" id="mask-2">
									<g filter="url(#Adobe_OpacityMaskFilter)">
										<polygon id="path-1" fill="#FFFFFF" points="6.859,6.918 6.859,0.116 0.084,0.116 0.084,6.918 										"/>
									</g>
								</mask>
								<path id="Fill-5" mask="url(#mask-2)" fill="#77B3CE" d="M4.815,6.918c-1.566-1.564-3.176-3.171-4.73-4.723
									C0.63,1.613,1.158,0.969,1.772,0.421c0.506-0.45,1.395-0.386,1.899,0.083C4.43,1.208,5.155,1.95,5.89,2.678
									c0.198,0.196,0.397,0.394,0.577,0.606c0.516,0.61,0.534,1.484-0.014,2.071C5.934,5.912,5.352,6.411,4.815,6.918"/>
							</g>
						</g>
					</g>
				</g>
			</g>
		</g>
	</g>
</g>
</svg>
