<?xml version="1.0" encoding="utf-8"?>
<!-- Generator: Adobe Illustrator 16.0.0, SVG Export Plug-In . SVG Version: 6.00 Build 0)  -->
<!DOCTYPE svg PUBLIC "-//W3C//DTD SVG 1.1//EN" "http://www.w3.org/Graphics/SVG/1.1/DTD/svg11.dtd">
<svg version="1.1" id="Layer_1" xmlns="http://www.w3.org/2000/svg" xmlns:xlink="http://www.w3.org/1999/xlink" x="0px" y="0px"
	 width="82.333px" height="83.333px" viewBox="0 0 82.333 83.333" enable-background="new 0 0 82.333 83.333" xml:space="preserve">
<g>
	<path fill-rule="evenodd" clip-rule="evenodd" fill="#4292B7" d="M41.342,0.87c8.759,0,17.519-0.084,26.277,0.026
		c7.122,0.091,13.516,6.102,14.306,13.206c0.088,0.786,0.148,1.58,0.148,2.372c0.01,16.81,0.027,33.618-0.004,50.431
		c-0.013,6.643-3.219,11.336-9.083,14.271c-1.958,0.98-4.092,1.305-6.268,1.307c-16.98,0.006-33.961,0.027-50.941-0.008
		C7.176,82.459,0.456,75.75,0.438,67.15c-0.036-16.98-0.03-33.961-0.002-50.94C0.449,8.717,5.646,2.443,12.873,1.119
		c1.052-0.193,2.139-0.263,3.211-0.265c8.418-0.022,16.838-0.013,25.258-0.013C41.342,0.852,41.342,0.861,41.342,0.87z"/>
</g>
<g>
	<g>
		<g>
			<g>
				<path fill="#FFFFFF" d="M11.097,32.059l0.105,31.964c0.009,2.336,1.59,4.248,3.532,4.271l35.302,0.336l8.281,10.016
					l-0.033-9.871l9.228,0.102c1.943,0.023,3.511-1.855,3.503-4.195L70.91,32.719c-0.007-2.338-1.59-4.251-3.532-4.273
					l-52.776-0.582C12.66,27.841,11.089,29.721,11.097,32.059z"/>
				<path fill="#4292B7" d="M16.183,61.438c-0.168-0.404-0.261-0.852-0.264-1.32l-0.08-24.409l16.235,11.214L16.183,61.438z"/>
				<path fill="#4292B7" d="M33.432,47.819l7.887,5.49l7.887-5.32l16.419,15.227c-0.506,0.422-1.144,0.674-1.84,0.664l-7.793-0.086
					l0.023,7.029l-6.089-7.096l-31.005-0.346c-0.684-0.004-1.314-0.26-1.819-0.682L33.432,47.819z"/>
				<path fill="#4292B7" d="M50.559,47.124l16.127-10.853l0.078,24.412c0.004,0.453-0.081,0.885-0.237,1.273L50.559,47.124z"/>
				<polygon fill="#FFFFFF" points="66.251,33.023 39.367,33.847 15.676,32.463 12.293,28.78 40.868,4.763 69.61,29.416 				"/>
				<g>
					<g>
						<path fill="#FFFFFF" d="M59.382,34.473l-7.611-1.008c-2.026-1.211-5.056,1.343-10.334,1.285
							c-5.345-0.058-9.273,1.442-11.258,2.708l-6.89-0.122l0.012,2.595l18.034,8.906l17.488-8.059L59.382,34.473z"/>
					</g>
					<g>
						<g>
							<polyline fill="#FFFFFF" points="60.94,38.149 60.863,15.878 20.801,15.444 20.88,37.422 							"/>
							<g>
								<polygon fill="#636464" points="61.517,39.761 58.422,41.019 58.317,17.654 23.36,17.274 23.456,40.042 20.505,38.336 
									20.352,14.292 61.538,14.791 								"/>
							</g>
						</g>
						<path fill="#A4A1A8" d="M54.401,25.555c0.002,0.141-0.61,0.251-1.361,0.241l-24.558-0.265
							c-0.753-0.007-1.365-0.131-1.365-0.272L27.1,20.625c0-0.142,0.61-0.249,1.364-0.241L53.02,20.65
							c0.754,0.009,1.364,0.13,1.365,0.272L54.401,25.555z"/>
					</g>
				</g>
			</g>
		</g>
		<path fill="#A4A1A8" d="M43.268,38.466c0.005,0.335-0.342,0.607-0.773,0.607l-14.049-0.066c-0.432-0.004-0.785-0.277-0.788-0.61
			l-0.12-10.979c-0.005-0.339,0.341-0.608,0.773-0.605l14.05,0.063c0.431,0.002,0.784,0.279,0.788,0.613L43.268,38.466z"/>
		<path fill="#A4A1A8" d="M54.933,38.564c0.002,0.335-0.207,0.609-0.475,0.609l-8.671-0.039c-0.263-0.004-0.481-0.277-0.485-0.61
			L45.18,27.544c-0.003-0.337,0.209-0.611,0.476-0.606l8.669,0.038c0.266,0.003,0.484,0.278,0.486,0.61L54.933,38.564z"/>
	</g>
</g>
</svg>
