<?xml version="1.0" encoding="utf-8"?>
<!-- Generator: Adobe Illustrator 16.0.0, SVG Export Plug-In . SVG Version: 6.00 Build 0)  -->
<!DOCTYPE svg PUBLIC "-//W3C//DTD SVG 1.1//EN" "http://www.w3.org/Graphics/SVG/1.1/DTD/svg11.dtd">
<svg version="1.1" id="Layer_1" xmlns="http://www.w3.org/2000/svg" xmlns:xlink="http://www.w3.org/1999/xlink" x="0px" y="0px"
	 width="442px" height="281.153px" viewBox="0 0 442 281.153" enable-background="new 0 0 442 281.153" xml:space="preserve">
<title>Browser Window BG</title>
<desc>Created with Sketch.</desc>
<g id="Page-1">
	<g id="Message-Seal" transform="translate(-232.000000, -210.000000)">
		<g id="Seal-1" transform="translate(232.000000, 117.000000)">
			<g id="Preview-Section" transform="translate(0.000000, 93.000000)">
				<g id="Browser-Window" transform="translate(0.000000, 0.652463)">
					<g id="Browser-Window-BG">
						<path id="Rectangle-3" fill="#DCDCDC" d="M0.046,8.007C0.029,3.585,3.597,0,8.022,0h424.971c4.422,0,8.009,3.578,8.011,8.002
							l0.155,264.513c0.002,4.419-3.584,7.994-8.003,7.986L9.513,279.73c-4.422-0.008-8.021-3.6-8.038-8.021L0.046,8.007z"/>
						<path id="Rectangle-4" fill="#FBFCFB" d="M5.282,24.633L437,23.97v247.213c0,2.766-2.236,5.006-5.005,5.006H9.639
							c-2.764,0-5.001-2.242-4.996-4.996L5.282,24.633z"/>
						<g id="Circles" transform="translate(10.000000, 11.000000)">
							<ellipse id="Oval-2" fill="#FFFFFF" cx="2.476" cy="1.167" rx="4.722" ry="4.847"/>
							<ellipse id="Oval-2-Copy" fill="#FFFFFF" cx="17.585" cy="1.167" rx="4.722" ry="4.847"/>
							<ellipse id="Oval-2-Copy-2" fill="#FFFFFF" cx="32.694" cy="1.167" rx="4.722" ry="4.847"/>
						</g>
						<g id="Icon" transform="translate(114.000000, 58.000000)">
							<path id="Fill-1" fill="#E9EDF0" d="M112.115,7.284c-9.177,9.205-18.421,18.859-27.704,28.847
								c21.193-0.104,42.392-0.064,63.621,0.12C136.172,26.954,124.219,17.336,112.115,7.284z"/>
							<path id="Fill-3" fill="#E9EDF0" d="M189.687,146.577c-13.68-9.759-27.508-20.113-41.526-31.103
								c12.532-10.494,24.993-20.497,37.392-29.979c1.948,19.468,3.465,38.805,4.569,57.981
								C190.173,144.555,190.023,145.582,189.687,146.577 M183.179,152.117c-6.383,0.922-12.77,1.852-19.153,2.797
								c0.278,5.72,0.537,11.42,0.75,17.11c-5.185-4.84-10.401-9.792-15.648-14.852c-25.396,3.826-50.792,7.899-76.19,12.133
								c-1.683,0.274-3.255-0.129-4.542-1.088c12.786-16.019,25.375-31.41,37.811-46.147c6.805,4.088,13.582,8.023,20.335,11.869
								c6.173-5.437,12.314-10.755,18.455-15.925c14.386,11.281,28.587,21.874,42.624,31.84
								C186.431,151.046,184.882,151.886,183.179,152.117 M65.163,161.628c-1.125-22.505-2.734-45.172-4.844-68
								c14.237,9.28,28.363,18.105,42.376,26.467c-12.08,14.396-24.309,29.422-36.717,45.067
								C65.516,164.122,65.229,162.921,65.163,161.628 M195.129,76.484c-0.331-3.124-1.926-5.859-4.09-7.65
								c0.016-0.021,0.035-0.041,0.059-0.06c-7.844-5.676-15.758-11.581-23.695-17.602c1.65,13.32,3.177,26.605,4.433,39.801
								l-46.024,31.437L73.14,97.255c-1.314-14.51-2.91-29.108-4.627-43.741c-6.225,6.93-12.472,13.972-18.762,21.245
								c0.055,0.055,0.102,0.112,0.164,0.168c-1.663,2.316-2.553,5.666-2.188,9.377c2.965,30.356,5.079,60.448,6.342,90.242
								c0.267,6.559,4.318,11.109,9.095,10.221c27.778-5.26,55.557-10.267,83.344-15.021c8.483,6.946,16.892,13.623,25.235,19.997
								c-0.027-7.948-0.128-15.904-0.301-23.889c7.138-1.144,14.271-2.28,21.415-3.429c4.777-0.753,8.459-5.746,8.185-11.142
								C199.773,126.605,197.816,101.655,195.129,76.484"/>
							<path id="Fill-6" fill="#E9EDF0" d="M152.525,60.714c0.039,0.349-1.435,0.674-3.294,0.722
								c-20.202,0.502-40.406,1.138-60.592,1.896c-1.855,0.069-3.4-0.188-3.436-0.575c-0.475-4.216-0.964-8.438-1.474-12.662
								c-0.047-0.39,1.419-0.735,3.275-0.774c20.209-0.419,40.43-0.704,60.667-0.865c1.863-0.011,3.408,0.265,3.451,0.624
								C151.607,52.958,152.076,56.836,152.525,60.714"/>
							<path id="Fill-8" fill="#E9EDF0" d="M127.681,95.235c0.083,0.864-0.713,1.635-1.769,1.727
								c-11.521,0.939-23.044,1.924-34.56,2.955c-1.059,0.084-1.98-0.578-2.071-1.472c-0.957-9.905-2.007-19.839-3.161-29.809
								c-0.102-0.924,0.663-1.706,1.734-1.755c11.53-0.568,23.076-1.088,34.622-1.565c1.071-0.045,2.02,0.633,2.119,1.501
								C125.713,76.319,126.74,85.795,127.681,95.235"/>
							<path id="Fill-10" fill="#E9EDF0" d="M156.397,93.168c0.086,0.831-0.381,1.552-1.031,1.605
								c-7.111,0.53-14.225,1.081-21.332,1.646c-0.653,0.044-1.255-0.61-1.337-1.462c-0.938-9.381-1.967-18.795-3.09-28.239
								c-0.106-0.873,0.339-1.6,0.998-1.624c7.126-0.28,14.248-0.541,21.378-0.791c0.655-0.025,1.263,0.645,1.364,1.477
								C154.463,74.946,155.477,84.075,156.397,93.168"/>
						</g>
					</g>
				</g>
			</g>
		</g>
	</g>
</g>
</svg>
