<?xml version="1.0" encoding="UTF-8" standalone="no"?>
<svg width="37px" height="28px" viewBox="0 0 37 28" version="1.1" xmlns="http://www.w3.org/2000/svg" xmlns:xlink="http://www.w3.org/1999/xlink">
    <!-- Generator: Sketch 41 (35326) - http://www.bohemiancoding.com/sketch -->
    <title>seals-icon-code</title>
    <desc>Created with Sketch.</desc>
    <defs>
        <polygon id="path-1" points="0.0699748668 27.7514783 10.1073039 27.7514783 10.1073039 0.171793647 0.0699748668 0.171793647"></polygon>
    </defs>
    <g id="Page-1" stroke="none" stroke-width="1" fill="none" fill-rule="evenodd">
        <g id="Message-Seal" transform="translate(-710.000000, -291.000000)">
            <g id="Seal-1" transform="translate(232.000000, 117.000000)">
                <g id="Code-Section" transform="translate(440.000000, 143.000000)">
                    <g id="Selectors" transform="translate(38.000000, 31.000000)">
                        <g id="Code-Selector">
                            <g id="seals-icon-code">
                                <g id="Group-3" transform="translate(13.355030, 0.046762)">
                                    <mask id="mask-2" fill="white">
                                        <use xlink:href="#path-1"></use>
                                    </mask>
                                    <g id="Clip-2"></g>
                                    <path d="M10.1071302,1.19490873 C10.023497,1.49208992 9.93023077,1.83253718 9.83192899,2.17167336 C7.43437278,10.4475138 5.0363787,18.7233543 2.63816568,26.9989762 C2.60532544,27.1119488 2.57752071,27.227762 2.53110651,27.3352717 C2.38310651,27.6781226 2.1140355,27.8146949 1.74863314,27.7244479 C1.40490533,27.6396639 1.06446154,27.5424244 0.724017751,27.4454035 C0.11143787,27.2710281 -0.0367810651,27.0040021 0.138804734,26.3976213 C1.77402959,20.7492122 3.40969231,15.100803 5.04535503,9.45217536 C5.8735858,6.59202497 6.70181657,3.73187458 7.53026627,0.871724192 C7.72818343,0.188207467 7.94843195,0.0638721032 8.63960947,0.249391828 C8.95049704,0.333083294 9.26269822,0.412622964 9.56986391,0.507895756 C9.90877515,0.613220264 10.1141361,0.868664974 10.1071302,1.19490873" id="Fill-1" fill="#77B3CE" mask="url(#mask-2)"></path>
                                </g>
                                <path d="M33.2739467,14.0029589 C33.1828698,13.9072491 33.1051479,13.821154 33.0230473,13.7394291 C30.5234675,11.2441998 28.0234497,8.7491889 25.5238698,6.25395952 C25.0345503,5.76557721 25.0338935,5.5018289 25.5197101,5.01650581 C25.7929408,4.74336134 26.0622308,4.46562804 26.3420296,4.19947606 C26.6459112,3.9110355 26.9340296,3.90142082 27.2628698,4.15861365 C27.3554793,4.23116082 27.4391124,4.31572635 27.5223077,4.39898079 C30.4939112,7.36401865 33.464858,10.329275 36.4347101,13.2958425 C36.5481183,13.4090336 36.6588994,13.5279061 36.7515089,13.6579228 C36.9115503,13.8823383 36.9095799,14.1213944 36.7515089,14.3464654 C36.6656864,14.4683971 36.5632249,14.5804956 36.4576982,14.6860386 C33.4727396,17.6679022 30.4862485,20.6480176 27.4997574,23.6281331 C27.423787,23.703958 27.3478166,23.7804384 27.2637456,23.8466486 C26.9357811,24.1051526 26.646568,24.096849 26.3442189,23.8077529 C26.0418698,23.5182197 25.748497,23.2192904 25.4540296,22.9216722 C25.0566627,22.5204776 25.0540355,22.2211113 25.4535917,21.8216648 C27.1921538,20.0835919 28.9329053,18.3477041 30.673,16.6109423 C31.4710178,15.8146716 32.2688166,15.0186193 33.0663964,14.22213 C33.1331716,14.1554828 33.1964438,14.0851208 33.2739467,14.0029589" id="Fill-4" fill="#77B3CE"></path>
                                <g id="Group-8" transform="translate(0.000000, 3.761527)" fill="#77B3CE">
                                    <path d="M3.50210473,10.2458021 C3.68973195,10.3804077 3.79766686,10.4372217 3.88020533,10.5193836 C6.34387988,12.9746246 8.80536509,15.4318323 11.2666314,17.889477 C11.3577083,17.9803795 11.4509746,18.0706264 11.5306669,18.170925 C11.7752172,18.479032 11.7918562,18.7491173 11.5295722,19.040617 C11.2000751,19.4066306 10.8513118,19.7590963 10.4830633,20.0859956 C10.1507201,20.3805546 9.85844201,20.3322626 9.49851302,19.9732415 C7.84861953,18.3284748 6.20047751,16.6823969 4.55145976,15.0367561 C3.14589763,13.6336676 1.7396787,12.2310161 0.334554438,10.8274906 C-0.110102367,10.3832484 -0.111415976,10.0993966 0.329956805,9.65843221 C3.37643609,6.61713241 6.42335325,3.57605112 9.47070828,0.535625383 C9.89763136,0.109738523 10.2004183,0.103183056 10.628874,0.516177496 C10.914803,0.791944155 11.2002941,1.06924042 11.469584,1.3607402 C11.8001757,1.71866872 11.7940456,2.01672396 11.4719923,2.38273756 C11.4012763,2.46315129 11.3226787,2.53679104 11.2467083,2.61261594 C8.80032959,5.05474603 6.35395089,7.49709464 3.90538284,9.93703957 C3.81496272,10.0272865 3.70155444,10.0945893 3.50210473,10.2458021" id="Fill-6"></path>
                                </g>
                            </g>
                        </g>
                    </g>
                </g>
            </g>
        </g>
    </g>
</svg>