<?xml version="1.0" encoding="utf-8"?>
<!-- Generator: Adobe Illustrator 16.0.0, SVG Export Plug-In . SVG Version: 6.00 Build 0)  -->
<!DOCTYPE svg PUBLIC "-//W3C//DTD SVG 1.1//EN" "http://www.w3.org/Graphics/SVG/1.1/DTD/svg11.dtd">
<svg version="1.1" id="Layer_1" xmlns="http://www.w3.org/2000/svg" xmlns:xlink="http://www.w3.org/1999/xlink" x="0px" y="0px"
	 width="200px" height="200px" viewBox="0 0 200 200" enable-background="new 0 0 200 200" xml:space="preserve">
<g>
	<g>
		<g>
			<path fill="none" stroke="#3088C0" stroke-width="10" stroke-miterlimit="10" d="M100.535,188
				c-48.195,0.062-87.986-39.614-88.029-87.774C12.467,51.75,51.96,12.035,100.237,12c48.582-0.033,88.215,39.461,88.242,87.932
				C188.511,148.298,148.923,187.935,100.535,188z"/>
		</g>
	</g>
	<g>
		<path fill="#3088C0" d="M100.658,132.506c14.629,0.002,29.262-3.223,42.754-9.735c2.292-1.108,4.595-1.658,7.295-0.919
			c4.004,1.096,7.099,3.365,8.147,7.752c1.044,4.365-0.496,8.198-4.462,10.936c-0.682,0.469-1.453,0.816-2.204,1.172
			c-32.571,15.539-70.492,15.541-103.062-0.006c-5.211-2.493-7.689-6.817-6.897-11.363c1.358-7.043,9.123-10.594,14.824-7.938
			c5.894,2.743,11.901,5.098,18.082,6.744C83.494,131.385,92.074,132.498,100.658,132.506z"/>
	</g>
</g>
<path fill="#3088C0" d="M58.905,65.693c-0.018,9.543,5.381,17.485,11.833,17.409c6.433-0.074,11.718-7.879,11.741-17.334
	c0.021-9.509-5.402-17.484-11.84-17.411C64.182,48.433,58.921,56.21,58.905,65.693z"/>
<path fill="#3088C0" d="M118.76,65.694c-0.018,9.544,5.379,17.481,11.832,17.408c6.432-0.074,11.719-7.882,11.741-17.338
	c0.022-9.508-5.401-17.481-11.841-17.407C124.037,48.432,118.773,56.209,118.76,65.694z"/>
</svg>
