<?xml version="1.0" encoding="utf-8"?>
<!-- Generator: Adobe Illustrator 16.0.0, SVG Export Plug-In . SVG Version: 6.00 Build 0)  -->
<!DOCTYPE svg PUBLIC "-//W3C//DTD SVG 1.1//EN" "http://www.w3.org/Graphics/SVG/1.1/DTD/svg11.dtd">
<svg version="1.1" id="Layer_1" xmlns="http://www.w3.org/2000/svg" xmlns:xlink="http://www.w3.org/1999/xlink" x="0px" y="0px"
	 width="468.5px" height="544.072px" viewBox="0 0 468.5 544.072" enable-background="new 0 0 468.5 544.072" xml:space="preserve">
<title>Browser Window BG</title>
<desc>Created with Sketch.</desc>
<path id="Rectangle-3" fill="#484F51" d="M13.525,36.895c-0.018-4.422,3.995-8.084,8.419-8.084h424.971
	c4.422,0,8.607,4.286,8.609,8.709v486.005c0.002,4.419-4.027,7.968-8.446,7.96l-423.644-0.771c-4.422-0.008-9.893-3.663-9.91-8.085
	V36.895z"/>
<path id="Rectangle-4" fill="#FBFCFB" d="M18.568,62.144h432.355V521.5c0,2.766-2.236,5.006-5.005,5.006H23.562
	c-2.764,0-5-2.977-4.994-5.73V62.144z"/>
<g id="Circles" transform="translate(10.000000, 11.000000)">
	<ellipse id="Oval-2" fill="#FFFFFF" cx="20.401" cy="35.461" rx="6.479" ry="6.651"/>
	<ellipse id="Oval-2-Copy" fill="#FFFFFF" cx="41.133" cy="35.461" rx="6.479" ry="6.651"/>
	<ellipse id="Oval-2-Copy-2" fill="#FFFFFF" cx="61.864" cy="35.461" rx="6.479" ry="6.651"/>
</g>
<g id="Website" opacity="0.5">
	<path fill="#BFBFBF" d="M265.5,141.5c0,5.523-4.478,10-10,10H46.88c-5.523,0-10-4.477-10-10v-26c0-5.523,4.477-10,10-10H255.5
		c5.522,0,10,4.477,10,10V141.5z"/>
	<path fill="#A3A3A3" d="M410.5,226.25c0,5.522-4.478,10-10,10H46.88c-5.523,0-10-4.478-10-10v-24.5c0-5.523,4.477-10,10-10H400.5
		c5.522,0,10,4.477,10,10V226.25z"/>
	<g>
		<path fill="#D3D3D3" d="M410.5,493.485c0,5.522-4.478,10-10,10H46.88c-5.523,0-10-4.478-10-10v-24.5c0-5.523,4.477-10,10-10H400.5
			c5.522,0,10,4.477,10,10V493.485z"/>
	</g>
	<g>
		<path fill="#979990" d="M429.999,280.5c0,5.522-4.711,10-10.521,10H47.402c-5.811,0-10.522-4.478-10.522-10l0,0
			c0-5.522,4.711-10,10.522-10h372.076C425.288,270.5,429.999,274.978,429.999,280.5L429.999,280.5z"/>
		<path fill="#979990" d="M429.999,316.5c0,5.522-4.711,10-10.521,10H47.402c-5.811,0-10.522-4.478-10.522-10l0,0
			c0-5.522,4.711-10,10.522-10h372.076C425.288,306.5,429.999,310.978,429.999,316.5L429.999,316.5z"/>
		<path fill="#979990" d="M429.999,352.5c0,5.522-4.711,10-10.521,10H47.402c-5.811,0-10.522-4.478-10.522-10l0,0
			c0-5.522,4.711-10,10.522-10h372.076C425.288,342.5,429.999,346.978,429.999,352.5L429.999,352.5z"/>
		<path fill="#979990" d="M429.999,388.5c0,5.522-4.711,10-10.521,10H47.402c-5.811,0-10.522-4.478-10.522-10l0,0
			c0-5.522,4.711-10,10.522-10h372.076C425.288,378.5,429.999,382.978,429.999,388.5L429.999,388.5z"/>
	</g>
</g>
<path id="Rectangle-4_1_" opacity="0.5" d="M18.568,62.144h432.355V521.5c0,2.766-2.236,5.006-5.005,5.006H23.562
	c-2.764,0-5-2.977-4.994-5.73V62.144z"/>
<rect x="57.745" y="188.417" fill="#FFFFFF" stroke="#A3A3A3" stroke-width="6" stroke-miterlimit="10" width="354" height="248"/>
<path fill="#A3A3A3" d="M320.5,253.167c0,5.522-4.478,10-10,10h-209c-5.523,0-10-4.478-10-10v-19c0-5.522,4.477-10,10-10h209
	c5.522,0,10,4.478,10,10V253.167z"/>
<path fill="#C1C1C1" d="M173.5,296.667c0,4.694-3.806,8.5-8.5,8.5h-65c-4.694,0-8.5-3.806-8.5-8.5l0,0c0-4.694,3.806-8.5,8.5-8.5h65
	C169.694,288.167,173.5,291.973,173.5,296.667L173.5,296.667z"/>
<path fill="#E0E0E0" stroke="#A5A5A5" stroke-width="2" stroke-miterlimit="10" d="M363.5,334.667c0,5.522-4.478,10-10,10h-252
	c-5.523,0-10-4.478-10-10v-7c0-5.522,4.477-10,10-10h252c5.522,0,10,4.478,10,10V334.667z"/>
<g id="Rectangle">
</g>
<g id="path-1_1_">
	<rect x="266.166" y="367.167" fill="#C0DCE7" width="126.444" height="50.267"/>
	<path fill="#76B3CE" d="M392.61,367.167h-16v4h12v13.422h4V367.167L392.61,367.167z M371.61,367.167h-16v4h16V367.167
		L371.61,367.167z M350.61,367.167h-16v4h16V367.167L350.61,367.167z M329.61,367.167h-16v4h16V367.167L329.61,367.167z
		 M308.61,367.167h-16v4h16V367.167L308.61,367.167z M287.61,367.167h-16v4h16V367.167L287.61,367.167z M270.166,367.167h-4v4l0,0
		c0,4.609,0,11.556,0,11.556h4V367.167L270.166,367.167z M270.166,387.723h-4v16h4V387.723L270.166,387.723z M270.166,408.723h-4
		v8.711h4l0,0l0,0l0,0l0,0c1.696,0,3.289,0,3.289,0v-4h-3.289V408.723L270.166,408.723z M294.455,413.434h-16v4h16V413.434
		L294.455,413.434z M315.455,413.434h-16v4h16V413.434L315.455,413.434z M336.455,413.434h-16v4h16V413.434L336.455,413.434z
		 M357.455,413.434h-16v4h16V413.434L357.455,413.434z M378.455,413.434h-16v4h16V413.434L378.455,413.434z M392.61,410.589h-4
		v2.845h-5.155v4h9.155V410.589L392.61,410.589z M392.61,389.589h-4v16h4V389.589L392.61,389.589z"/>
</g>
<rect x="176.167" y="97.397" fill="#FFFFFF" stroke="#CCCCCC" stroke-width="3" stroke-miterlimit="10" width="245.421" height="195.27"/>
<g id="_x34_vZZau_1_">
	
		<image overflow="visible" width="682" height="576" id="_x34_vZZau_2_" xlink:href="F6BD6CD0FCD32316.jpg"  transform="matrix(0.3105 0 0 0.3105 193.0054 106.6914)">
	</image>
</g>
<g>
	<path fill="none" stroke="#656565" stroke-width="3" stroke-miterlimit="10" d="M388.5,285.524c0,0,16,21.168,16,59.768
		c0,38.601-25.686,49.143-25.686,49.143"/>
	
		<line fill="none" stroke="#656565" stroke-width="3" stroke-linecap="square" stroke-miterlimit="10" x1="380.407" y1="380.082" x2="377.377" y2="395.671"/>
	
		<line fill="none" stroke="#656565" stroke-width="3" stroke-linecap="square" stroke-miterlimit="10" x1="377.896" y1="395.755" x2="393.484" y2="398.785"/>
</g>
</svg>
