<?xml version="1.0" encoding="utf-8"?>
<!-- Generator: Adobe Illustrator 16.0.0, SVG Export Plug-In . SVG Version: 6.00 Build 0)  -->
<!DOCTYPE svg PUBLIC "-//W3C//DTD SVG 1.1//EN" "http://www.w3.org/Graphics/SVG/1.1/DTD/svg11.dtd">
<svg version="1.1" id="Layer_1" xmlns="http://www.w3.org/2000/svg" xmlns:xlink="http://www.w3.org/1999/xlink" x="0px" y="0px"
	 width="278.667px" height="232px" viewBox="0 0 278.667 232" enable-background="new 0 0 278.667 232" xml:space="preserve">
<g>
	<path fill="#000333" d="M253.793,224.635c11.09-0.469,17.514-8.239,17.518-19.613c0.019-40.719,0.017-81.445,0.003-122.168
		c-0.003-12.959-7.228-20.401-20.393-20.422c-53.231-0.093-106.462-0.086-159.691-0.008c-13.477,0.021-21.913,8.069-21.995,21.709
		c-0.238,39.849-0.198,79.702-0.005,119.551c0.051,10.492,5.459,19.04,14.84,19.879L253.793,224.635z M89.802,205.28
		c0-31.765,0-62.635,0-93.493c54.6,0,108.526,0,162.293,0c0,31.358,0,62.046,0,93.306L89.802,205.28z M97.351,94.721
		c-3.31,0-5.995-2.683-5.995-5.994s2.684-5.994,5.995-5.994c3.311,0,5.995,2.683,5.995,5.994S100.662,94.721,97.351,94.721z
		 M114.454,94.721c-3.31,0-5.994-2.683-5.994-5.994s2.683-5.994,5.994-5.994s5.995,2.683,5.995,5.994S117.764,94.721,114.454,94.721
		z M131.557,94.721c-3.31,0-5.995-2.683-5.995-5.994s2.683-5.994,5.995-5.994c3.312,0,5.994,2.683,5.994,5.994
		S134.868,94.721,131.557,94.721z M252.238,94.721c-35.366,0-70.589,0-106.168,0c0-3.952,0-7.63,0-11.986
		c35.277,0,70.504,0,106.168,0C252.238,86.742,252.238,90.408,252.238,94.721z"/>
</g>
<g>
	<path fill="#000333" d="M214.569,58.019c-0.002-10.036,0.005-19.624,0.001-29.659c-0.003-13.279-7.405-20.904-20.895-20.926
		C139.132,7.338,84.589,7.346,30.047,7.426C16.239,7.448,7.594,15.694,7.51,29.67C7.267,70.5,7.308,111.336,7.505,152.167
		c0.052,10.751,5.593,19.51,15.206,20.369l41.502,0.263c-0.016-6.347-0.022-12.692-0.029-19.038l-35.6,0.041
		c0-32.547,0-64.179,0-95.798c55.946,0,111.201,0,166.293,0L214.569,58.019z M86.239,28.237c36.147,0,72.242,0,108.785,0
		c0,4.105,0,7.862,0,12.281c-36.238,0-72.329,0-108.785,0C86.239,36.469,86.239,32.701,86.239,28.237z M71.368,28.235
		c3.393,0,6.142,2.749,6.142,6.143c0,3.393-2.749,6.141-6.142,6.141c-3.391,0-6.143-2.748-6.143-6.141
		C65.225,30.984,67.974,28.235,71.368,28.235z M53.843,28.235c3.393,0,6.143,2.749,6.143,6.143c0,3.393-2.751,6.141-6.143,6.141
		c-3.391,0-6.142-2.748-6.142-6.141C47.701,30.984,50.45,28.235,53.843,28.235z M36.318,28.235c3.393,0,6.143,2.749,6.143,6.143
		c0,3.393-2.75,6.141-6.143,6.141c-3.391,0-6.143-2.748-6.143-6.141C30.176,30.984,32.925,28.235,36.318,28.235z"/>
</g>
</svg>
