<?xml version="1.0" encoding="utf-8"?>
<!-- Generator: Adobe Illustrator 16.0.0, SVG Export Plug-In . SVG Version: 6.00 Build 0)  -->
<!DOCTYPE svg PUBLIC "-//W3C//DTD SVG 1.1//EN" "http://www.w3.org/Graphics/SVG/1.1/DTD/svg11.dtd">
<svg version="1.1" id="Layer_1" xmlns="http://www.w3.org/2000/svg" xmlns:xlink="http://www.w3.org/1999/xlink" x="0px" y="0px"
	 width="200px" height="200px" viewBox="0 0 200 200" enable-background="new 0 0 200 200" xml:space="preserve">
<g>
	<g>
		<g>
			<path fill="#318931" stroke="#FFFFFF" stroke-width="8" stroke-miterlimit="10" d="M188.027,100.202
				c0.053,48.062-39.064,87.2-87.147,87.2c-47.551,0-86.709-39.271-86.728-86.978c-0.015-47.756,39.156-86.924,86.936-86.924
				C148.775,13.502,187.979,52.596,188.027,100.202z"/>
		</g>
		<g opacity="0.5">
			<path fill="#323232" d="M100.02,133.685c-13.139,0.005-26.297-5.521-35.26-16.616c-1.524-1.885-3.183-3.407-5.678-4.229
				c-3.69-1.213-7.168-1.335-9.795,1.751c-2.6,3.041-2.735,7.46-0.02,12.052c0.466,0.784,1.061,1.506,1.64,2.21
				c25.108,30.651,73.12,30.649,98.222-0.017c4.027-4.927,4.562-10.413,2.105-13.771c-3.997-5.092-11.678-3.173-15.379,1.331
				c-3.91,4.827-8.458,8.738-13.544,11.562C115.44,131.774,107.731,133.684,100.02,133.685z"/>
		</g>
	</g>
	<g>
		<path opacity="0.5" fill="#323232" enable-background="new    " d="M58.851,65.531c-0.018,9.543,5.381,17.485,11.833,17.409
			c6.433-0.074,11.718-7.879,11.741-17.334c0.021-9.509-5.402-17.484-11.84-17.411C64.127,48.271,58.866,56.048,58.851,65.531z"/>
		<path opacity="0.5" fill="#323232" enable-background="new    " d="M118.705,65.532c-0.018,9.544,5.379,17.481,11.832,17.408
			c6.432-0.074,11.719-7.882,11.74-17.338c0.021-9.508-5.4-17.481-11.84-17.407C123.982,48.27,118.719,56.047,118.705,65.532z"/>
	</g>
</g>
<path fill="#4192B6" d="M32.459,168.777c-18.38-18.352-28.514-42.571-28.538-68.207C3.899,74.755,13.966,50.403,32.268,32
	C50.569,13.592,74.816,3.445,100.605,3.427c53.508,0,97.062,43.438,97.092,96.827c0.029,53.405-43.412,96.904-96.842,96.975h-0.121
	C75.084,197.229,50.839,187.126,32.459,168.777z M40.873,40.258c-16.094,16.185-24.948,37.6-24.928,60.294
	c0.021,22.519,8.932,43.804,25.094,59.94c16.163,16.135,37.476,25.021,60.008,25.021h0.105c46.975-0.062,85.17-38.306,85.143-85.255
	c-0.021-46.936-38.322-85.122-85.432-85.122C78.271,15.155,56.964,24.075,40.873,40.258z"/>
</svg>
