<?xml version="1.0" encoding="utf-8"?>
<!-- Generator: Adobe Illustrator 16.0.0, SVG Export Plug-In . SVG Version: 6.00 Build 0)  -->
<!DOCTYPE svg PUBLIC "-//W3C//DTD SVG 1.1//EN" "http://www.w3.org/Graphics/SVG/1.1/DTD/svg11.dtd">
<svg version="1.1" id="Layer_1" xmlns="http://www.w3.org/2000/svg" xmlns:xlink="http://www.w3.org/1999/xlink" x="0px" y="0px"
	 width="30px" height="30px" viewBox="0 0 30 30" enable-background="new 0 0 30 30" xml:space="preserve">
<path fill-rule="evenodd" clip-rule="evenodd" fill="#555655" d="M15.021,1.498c7.431,0,13.526,6.093,13.523,13.523
	c-0.002,7.421-6.094,13.531-13.492,13.531c-7.48,0-13.567-6.089-13.558-13.567C1.501,7.58,7.6,1.498,15.021,1.498z M15.012,24.502
	c0.359-0.029,0.718-0.053,1.075-0.085c0.147-0.013,0.291-0.036,0.434-0.066c3.123-0.677,5.215-2.505,6.221-5.549
	c0.175-0.525,0.046-1.012-0.365-1.387c-0.407-0.375-0.886-0.455-1.412-0.254c-0.493,0.189-0.703,0.59-0.865,1.056
	c-0.99,2.807-4.133,4.291-6.921,3.247c-1.665-0.619-2.759-1.797-3.333-3.483c-0.256-0.751-0.996-1.092-1.708-0.845
	c-0.728,0.251-1.071,0.981-0.821,1.749C8.412,22.265,11.457,24.482,15.012,24.502z M9.612,6.916
	C8.124,6.914,6.896,8.148,6.908,9.629c0.013,1.472,1.23,2.684,2.7,2.687c1.479,0.003,2.716-1.241,2.704-2.715
	C12.298,8.123,11.086,6.917,9.612,6.916z M20.424,6.916c-1.479,0.003-2.687,1.208-2.695,2.688c-0.015,1.474,1.227,2.717,2.706,2.712
	c1.471-0.007,2.685-1.216,2.695-2.69C23.144,8.148,21.906,6.911,20.424,6.916z"/>
</svg>
