<?xml version="1.0" encoding="utf-8"?>
<!-- Generator: Adobe Illustrator 16.0.0, SVG Export Plug-In . SVG Version: 6.00 Build 0)  -->
<!DOCTYPE svg PUBLIC "-//W3C//DTD SVG 1.1//EN" "http://www.w3.org/Graphics/SVG/1.1/DTD/svg11.dtd">
<svg version="1.1" id="Layer_1" xmlns="http://www.w3.org/2000/svg" xmlns:xlink="http://www.w3.org/1999/xlink" x="0px" y="0px"
	 width="30px" height="30px" viewBox="0 0 30 30" enable-background="new 0 0 30 30" xml:space="preserve">
<path fill-rule="evenodd" clip-rule="evenodd" fill="#6589A5" d="M15.012,24.502c0.359-0.029,0.718-0.053,1.075-0.085
	c0.147-0.013,0.291-0.036,0.434-0.066c3.123-0.677,5.215-2.505,6.221-5.549c0.175-0.525,0.046-1.012-0.365-1.387
	c-0.407-0.375-0.886-0.455-1.412-0.254c-0.493,0.189-0.703,0.59-0.865,1.056c-0.99,2.807-4.133,4.291-6.921,3.247
	c-1.665-0.619-2.759-1.797-3.333-3.483c-0.256-0.751-0.996-1.092-1.708-0.845c-0.728,0.251-1.071,0.981-0.821,1.749
	C8.412,22.265,11.457,24.482,15.012,24.502z"/>
<path fill-rule="evenodd" clip-rule="evenodd" fill="#6589A5" d="M9.612,6.916C8.124,6.914,6.896,8.148,6.908,9.629
	c0.013,1.472,1.23,2.684,2.7,2.687c1.479,0.003,2.716-1.241,2.704-2.715C12.298,8.123,11.086,6.917,9.612,6.916z"/>
<path fill-rule="evenodd" clip-rule="evenodd" fill="#6589A5" d="M20.424,6.916c-1.479,0.003-2.687,1.208-2.695,2.688
	c-0.015,1.474,1.227,2.717,2.706,2.712c1.471-0.007,2.685-1.216,2.695-2.69C23.144,8.148,21.906,6.911,20.424,6.916z"/>
<path fill-rule="evenodd" clip-rule="evenodd" fill="#FFFFFF" d="M15.021,1.498C7.6,1.498,1.501,7.58,1.494,14.985
	c-0.009,7.478,6.078,13.567,13.558,13.567c7.398,0,13.49-6.109,13.492-13.531C28.547,7.59,22.452,1.498,15.021,1.498z M9.593,6.891
	c1.475,0.001,2.688,1.207,2.7,2.685c0.013,1.474-1.225,2.718-2.704,2.715c-1.47-0.003-2.687-1.215-2.7-2.687
	C6.877,8.123,8.105,6.889,9.593,6.891z M22.723,18.777c-1.006,3.043-3.098,4.871-6.221,5.549c-0.143,0.029-0.286,0.053-0.434,0.066
	c-0.357,0.031-0.716,0.055-1.075,0.084c-3.555-0.02-6.6-2.236-7.696-5.617c-0.25-0.768,0.093-1.498,0.821-1.748
	c0.711-0.248,1.452,0.094,1.708,0.844c0.573,1.688,1.667,2.865,3.333,3.484c2.788,1.043,5.931-0.441,6.921-3.248
	c0.162-0.465,0.372-0.865,0.865-1.055c0.526-0.201,1.005-0.121,1.412,0.254C22.769,17.766,22.897,18.252,22.723,18.777z
	 M20.416,12.291c-1.479,0.005-2.721-1.237-2.706-2.712c0.009-1.479,1.216-2.685,2.695-2.688c1.482-0.004,2.72,1.232,2.706,2.71
	C23.101,11.075,21.887,12.284,20.416,12.291z"/>
</svg>
