<?xml version="1.0" encoding="utf-8"?>
<!-- Generator: Adobe Illustrator 16.0.0, SVG Export Plug-In . SVG Version: 6.00 Build 0)  -->
<!DOCTYPE svg PUBLIC "-//W3C//DTD SVG 1.1//EN" "http://www.w3.org/Graphics/SVG/1.1/DTD/svg11.dtd">
<svg version="1.1" id="Layer_1" xmlns="http://www.w3.org/2000/svg" xmlns:xlink="http://www.w3.org/1999/xlink" x="0px" y="0px"
	 width="200px" height="200px" viewBox="0 0 200 200" enable-background="new 0 0 200 200" xml:space="preserve">
<g>
	<g>
		<g>
			<path fill="#38A038" d="M191.504,100.192c0.055,49.983-40.627,90.687-90.632,90.687c-49.452,0-90.176-40.841-90.196-90.454
				c-0.015-49.665,40.722-90.399,90.412-90.399C150.682,10.026,191.452,50.683,191.504,100.192z"/>
			<path fill="#323232" fill-opacity="0.5" d="M100.88,190.879c-23.932,0-46.536-9.453-63.652-26.619
				c-17.115-17.164-26.544-39.832-26.552-63.831c-0.008-24.027,9.426-46.696,26.563-63.831
				c17.138-17.136,39.812-26.572,63.85-26.572c23.988,0,46.644,9.416,63.789,26.513c17.146,17.099,26.604,39.708,26.629,63.659
				c0.022,24.168-9.396,46.922-26.526,64.069C147.836,181.43,125.07,190.88,100.88,190.879L100.88,190.879L100.88,190.879z
				 M46.07,45.431C31.3,60.202,23.168,79.732,23.175,100.429c0.008,20.675,8.137,40.209,22.894,55.008
				c14.753,14.793,34.223,22.942,54.825,22.942l0,0c20.85,0,40.471-8.146,55.247-22.937c14.768-14.782,22.89-34.395,22.865-55.219
				c-0.021-20.625-8.171-40.102-22.951-54.84c-14.781-14.739-34.301-22.856-54.967-22.856C80.383,22.526,60.843,30.66,46.07,45.431z
				"/>
		</g>
		<g opacity="0.5">
			<path fill="#323232" d="M100.02,133.141c-12.806,0.005-25.631-5.382-34.367-16.198c-1.486-1.837-3.102-3.322-5.535-4.122
				c-3.597-1.183-6.987-1.302-9.546,1.705c-2.534,2.967-2.666,7.273-0.02,11.75c0.455,0.766,1.035,1.469,1.599,2.155
				c24.473,29.88,71.269,29.878,95.736-0.016c3.927-4.804,4.447-10.151,2.052-13.425c-3.896-4.963-11.381-3.094-14.989,1.298
				c-3.812,4.704-8.245,8.519-13.201,11.272C115.051,131.278,107.536,133.14,100.02,133.141z"/>
		</g>
	</g>
	<g>
		<path opacity="0.5" fill="#323232" enable-background="new    " d="M58.851,65.531c-0.018,9.543,5.381,17.485,11.833,17.409
			c6.433-0.074,11.718-7.879,11.741-17.334c0.021-9.509-5.402-17.484-11.84-17.411C64.127,48.271,58.866,56.048,58.851,65.531z"/>
		<path opacity="0.5" fill="#323232" enable-background="new    " d="M118.705,65.532c-0.018,9.544,5.379,17.481,11.832,17.408
			c6.432-0.074,11.719-7.882,11.74-17.338c0.022-9.508-5.4-17.481-11.84-17.407C123.982,48.27,118.719,56.047,118.705,65.532z"/>
	</g>
</g>
</svg>
