<?xml version="1.0" encoding="utf-8"?>
<!-- Generator: Adobe Illustrator 16.0.0, SVG Export Plug-In . SVG Version: 6.00 Build 0)  -->
<!DOCTYPE svg PUBLIC "-//W3C//DTD SVG 1.1//EN" "http://www.w3.org/Graphics/SVG/1.1/DTD/svg11.dtd">
<svg version="1.1" id="Layer_1" xmlns="http://www.w3.org/2000/svg" xmlns:xlink="http://www.w3.org/1999/xlink" x="0px" y="0px"
	 width="200px" height="200px" viewBox="0 0 200 200" enable-background="new 0 0 200 200" xml:space="preserve">
<path fill="#FFFFFF" d="M101.088,10.026c-49.69,0-90.427,40.734-90.412,90.399c0.02,49.613,40.744,90.454,90.196,90.454
	c50.005,0,90.687-40.704,90.632-90.687C191.452,50.683,150.682,10.026,101.088,10.026z M130.438,48.195
	c6.439-0.074,11.861,7.899,11.84,17.407c-0.021,9.456-5.309,17.264-11.74,17.338c-6.453,0.073-11.85-7.864-11.832-17.408
	C118.719,56.047,123.982,48.27,130.438,48.195z M70.585,48.195c6.438-0.073,11.861,7.902,11.84,17.411
	c-0.023,9.455-5.308,17.26-11.741,17.334c-6.452,0.076-11.851-7.866-11.833-17.409C58.866,56.048,64.127,48.271,70.585,48.195z
	 M147.887,128.415c-24.467,29.894-71.263,29.896-95.736,0.017c-0.564-0.687-1.144-1.39-1.599-2.156
	c-2.646-4.477-2.514-8.782,0.02-11.75c2.559-3.006,5.949-2.887,9.546-1.705c2.433,0.801,4.049,2.285,5.535,4.123
	c8.736,10.815,21.561,16.203,34.367,16.197c7.516,0,15.031-1.863,21.729-5.58c4.956-2.754,9.39-6.568,13.201-11.272
	c3.608-4.392,11.093-6.261,14.989-1.298C152.334,118.264,151.814,123.611,147.887,128.415z"/>
</svg>
