<?xml version="1.0" encoding="utf-8"?>
<!-- Generator: Adobe Illustrator 16.0.0, SVG Export Plug-In . SVG Version: 6.00 Build 0)  -->
<!DOCTYPE svg PUBLIC "-//W3C//DTD SVG 1.1//EN" "http://www.w3.org/Graphics/SVG/1.1/DTD/svg11.dtd">
<svg version="1.1" id="Layer_1" xmlns="http://www.w3.org/2000/svg" xmlns:xlink="http://www.w3.org/1999/xlink" x="0px" y="0px"
	 width="38.27px" height="38.272px" viewBox="0 0 38.27 38.272" enable-background="new 0 0 38.27 38.272" xml:space="preserve">
<g>
	<path fill="#D9DADD" d="M2.75,18.867C3.099,9.8,10.66,2.362,19.353,2.765c9.771,0.452,16.098,7.601,16.167,16.53
		c0.072,9.037-8.028,16.668-16.698,16.208C9.029,34.984,2.891,27.606,2.75,18.867z"/>
	<g>
		<path fill="#D9DADD" d="M12.65,25.882c0.155-0.951,0.224-2.039,0.526-3.058c0.454-1.53-0.084-2.591-1.298-3.425
			c-0.745-0.512-1.36-1.161-1.937-1.833c-0.944-1.102-0.604-2.14,0.812-2.452c1.332-0.293,2.688-0.505,4.043-0.666
			c0.636-0.075,0.977-0.309,1.238-0.902c0.535-1.212,1.159-2.386,1.765-3.565c0.638-1.241,1.893-1.3,2.59-0.078
			c0.661,1.161,1.232,2.374,1.8,3.584c0.275,0.586,0.588,0.921,1.312,0.971c1.212,0.084,2.429,0.264,3.613,0.537
			c2.007,0.464,2.273,1.445,0.852,2.908c-0.777,0.8-1.54,1.621-2.379,2.349c-0.689,0.599-0.782,1.271-0.619,2.096
			c0.229,1.16,0.49,2.322,0.58,3.497c0.12,1.543-0.764,2.121-2.174,1.464c-1.17-0.544-2.339-1.12-3.425-1.813
			c-0.62-0.396-1.057-0.316-1.622-0.002c-1.195,0.663-2.391,1.332-3.632,1.9C13.503,27.938,12.594,27.274,12.65,25.882z
			 M14.185,25.497c-0.05,0.387,0.298,0.378,0.817,0.102c1.014-0.539,2.062-1.023,3.038-1.624c0.806-0.497,1.496-0.423,2.266,0.045
			c0.854,0.518,1.75,0.973,2.644,1.423c0.283,0.142,0.608,0.449,0.916,0.254c0.322-0.206,0.149-0.619,0.095-0.93
			c-0.19-1.134-0.354-2.276-0.639-3.387c-0.164-0.64-0.01-1.05,0.441-1.472c0.895-0.838,1.753-1.713,2.632-2.566
			c0.554-0.538,0.499-0.875-0.304-0.993c-1.101-0.16-2.196-0.376-3.301-0.47c-0.896-0.076-1.382-0.515-1.723-1.31
			c-0.439-1.021-0.978-1.998-1.471-2.996c-0.114-0.23-0.181-0.523-0.524-0.469c-0.25,0.039-0.32,0.267-0.419,0.47
			c-0.57,1.162-1.181,2.304-1.718,3.482c-0.214,0.47-0.5,0.668-0.997,0.733c-1.286,0.167-2.566,0.378-3.849,0.574
			c-0.733,0.111-0.807,0.426-0.288,0.931c0.904,0.881,1.789,1.782,2.711,2.644c0.46,0.43,0.571,0.866,0.428,1.487
			C14.657,22.652,14.472,23.901,14.185,25.497z"/>
		<path fill="#FFFFFF" d="M14.185,25.497c0.288-1.595,0.472-2.845,0.753-4.072c0.143-0.621,0.033-1.058-0.428-1.487
			c-0.922-0.861-1.807-1.762-2.711-2.644c-0.518-0.505-0.444-0.819,0.288-0.931c1.283-0.196,2.563-0.407,3.849-0.574
			c0.495-0.064,0.782-0.263,0.997-0.733c0.537-1.178,1.147-2.32,1.718-3.482c0.099-0.203,0.169-0.431,0.42-0.47
			c0.343-0.053,0.41,0.239,0.523,0.469c0.493,0.999,1.032,1.975,1.47,2.996c0.342,0.796,0.828,1.234,1.725,1.31
			c1.105,0.094,2.201,0.31,3.3,0.47c0.804,0.117,0.859,0.454,0.304,0.993c-0.878,0.854-1.736,1.729-2.632,2.566
			c-0.451,0.422-0.606,0.833-0.442,1.472c0.285,1.11,0.449,2.253,0.641,3.387c0.053,0.312,0.226,0.725-0.096,0.93
			c-0.306,0.195-0.632-0.112-0.916-0.254c-0.893-0.451-1.789-0.906-2.644-1.423c-0.77-0.468-1.459-0.542-2.266-0.045
			c-0.976,0.601-2.023,1.085-3.037,1.624C14.483,25.875,14.135,25.884,14.185,25.497z"/>
	</g>
</g>
</svg>
