<?xml version="1.0" encoding="utf-8"?>
<!-- Generator: Adobe Illustrator 16.0.0, SVG Export Plug-In . SVG Version: 6.00 Build 0)  -->
<!DOCTYPE svg PUBLIC "-//W3C//DTD SVG 1.1//EN" "http://www.w3.org/Graphics/SVG/1.1/DTD/svg11.dtd">
<svg version="1.1" id="Layer_1" xmlns="http://www.w3.org/2000/svg" xmlns:xlink="http://www.w3.org/1999/xlink" x="0px" y="0px"
	 width="28.294px" height="28.391px" viewBox="0 0 28.294 28.391" enable-background="new 0 0 28.294 28.391" xml:space="preserve">
<g>
	<polygon fill="#FFFFFF" points="17.612,11.873 26.611,11.873 18.983,16.843 22.831,27.001 14.219,20.74 5.48,27.001 9.411,16.843 
		1.699,11.873 11.352,11.873 14.219,1.701 	"/>
	<path fill="#FFFFFF" d="M23.892,28.391l-9.674-7.035l-9.809,7.027l4.389-11.341L0,11.373h10.974L14.179,0l3.793,11.373h10.322
		l-8.701,5.67L23.892,28.391z M3.397,12.373l6.626,4.271l-3.473,8.976l7.67-5.496l7.548,5.489l-3.397-8.968l6.555-4.271h-7.676
		l-2.992-8.971l-2.529,8.971H3.397z"/>
</g>
</svg>
