<?xml version="1.0" encoding="utf-8"?>
<!-- Generator: Adobe Illustrator 16.0.0, SVG Export Plug-In . SVG Version: 6.00 Build 0)  -->
<!DOCTYPE svg PUBLIC "-//W3C//DTD SVG 1.1//EN" "http://www.w3.org/Graphics/SVG/1.1/DTD/svg11.dtd">
<svg version="1.1" id="Layer_1" xmlns="http://www.w3.org/2000/svg" xmlns:xlink="http://www.w3.org/1999/xlink" x="0px" y="0px"
	 width="265px" height="231.954px" viewBox="0 0 265 231.954" enable-background="new 0 0 265 231.954" xml:space="preserve">
<path fill-rule="evenodd" clip-rule="evenodd" fill="#2CC3E7" d="M208.883,224.067c-9.582-30.961-14.622-48.4-19.878-64.629
	c-1.84-5.684-3.668-11.149-5.972-16.566c-5.45-1.458-10.862-3.065-16.296-4.596c-0.435-0.122-0.873-0.23-1.414-0.373
	c-0.163,0.367-0.371,0.696-0.464,1.055c-1.513,5.928-3.024,10.798-4.751,16.679c-1.542,5.246-6.07,8.211-10.685,6.652
	c-1.182-0.398-2.319-1.218-3.217-2.107c-1.121-1.112-1.325-1.36-2.437-2.482c1.79,16.064,3.606,52.306,5.422,68.368
	c0.329,2.915,1.831,3.687,4.264,2.092c4.089-2.681,8.13-5.432,12.213-8.116c2.315-1.522,4.576-3.929,7.048-4.19
	c2.473-0.264,5.185,1.623,7.777,2.608c8.491,3.229,16.961,6.517,25.484,9.661c0.88,0.325,2.354,0.197,2.998-0.36
	c0.518-0.448,0.219-1.868,0.224-2.856C209.2,224.626,208.972,224.354,208.883,224.067z"/>
<path fill-rule="evenodd" clip-rule="evenodd" fill="#2CC3E7" d="M116.371,161.918c-5.271,3.531-11.055,0.373-12.679-5.472
	c-1.59-5.725-2.968-10.81-4.441-16.567c-0.078-0.303-0.185-0.598-0.336-1.081c-0.762,0.186-1.509,0.34-2.241,0.547
	c-4.772,1.354-9.554,2.68-14.311,4.088c-8.06,19.02-16.121,58.219-24.121,77.264c-0.371,0.882-0.417,2.434,0.11,3.01
	c0.5,0.546,2.079,0.552,2.969,0.22c9.667-3.602,19.3-7.294,28.916-11.028c1.298-0.503,2.258-0.455,3.44,0.353
	c5.417,3.703,10.889,7.323,16.375,10.923c1.951,1.279,3.36,0.604,3.706-1.688c0.198-1.31,0.311-2.632,0.459-3.948
	c1.546-13.729,3.536-45.521,5.051-59.253C118.254,160.319,117.575,161.111,116.371,161.918z"/>
<path fill-rule="evenodd" clip-rule="evenodd" fill="#2CC3E7" d="M205.146,94.274c-2.224-1.931-4.248-4.093-6.344-6.169
	c-2.31-2.286-4.599-4.591-6.96-6.951c0.479-0.503,0.86-0.927,1.267-1.327c4.02-3.953,8.076-7.869,12.043-11.874
	c0.862-0.87,1.666-1.962,2.058-3.103c1.334-3.895-0.903-7.76-5.153-8.979c-3.236-0.929-6.521-1.684-9.783-2.522
	c-2.839-0.729-5.676-1.465-8.593-2.219c0.158-0.621,0.261-1.074,0.387-1.521c1.546-5.463,3.044-10.941,4.665-16.381
	c0.851-2.852,0.401-5.239-1.735-7.376c-2.133-2.134-4.525-2.611-7.375-1.767c-5.447,1.614-10.925,3.126-16.393,4.672
	c-0.479,0.136-0.977,0.217-1.48,0.328c-0.158-0.473-0.275-0.765-0.353-1.067c-1.465-5.709-3.059-11.391-4.346-17.14
	c-1.256-5.609-8.571-7.448-12.291-3.19c-2.318,2.654-4.874,5.105-7.359,7.61c-1.914,1.93-3.887,3.803-5.876,5.745
	c-4.316-4.433-8.622-8.909-13.005-13.307c-0.867-0.87-1.945-1.684-3.082-2.101c-3.68-1.351-7.84,0.928-9.019,4.913
	c-0.866,2.925-1.53,5.91-2.288,8.867c-0.821,3.201-1.646,6.401-2.517,9.784c-6.16-1.754-12.088-3.406-17.991-5.14
	c-2.859-0.839-5.243-0.29-7.354,1.855c-2.073,2.107-2.536,4.458-1.696,7.244c1.35,4.479,2.595,8.991,3.874,13.492
	c0.412,1.449,0.79,2.908,1.205,4.44c-0.563,0.164-0.957,0.29-1.355,0.394c-5.905,1.541-11.869,2.892-17.7,4.675
	c-5.171,1.581-6.486,7.668-2.702,11.545c2.134,2.186,4.363,4.278,6.532,6.432c2.341,2.324,4.662,4.669,7.202,7.216
	c-0.538,0.44-1.015,0.771-1.424,1.171c-4.068,3.979-8.121,7.973-12.187,11.953c-1.287,1.259-2.155,2.704-2.253,4.551
	c-0.189,3.583,1.825,6.392,5.527,7.44c3.238,0.917,6.52,1.684,9.782,2.521c2.834,0.729,5.668,1.463,8.553,2.207
	c-0.124,0.538-0.191,0.896-0.29,1.244c-1.579,5.567-3.115,11.146-4.762,16.693c-0.849,2.859-0.343,5.241,1.787,7.369
	c2.137,2.135,4.533,2.583,7.379,1.729c5.188-1.555,10.411-2.994,15.622-4.473c0.731-0.208,1.478-0.363,2.24-0.547
	c0.151,0.482,0.259,0.777,0.336,1.08c1.474,5.758,2.852,11.542,4.442,17.267c1.624,5.845,7.801,7.404,12.079,3.123
	c3.313-3.317,6.562-6.698,9.847-10.045c1.091-1.112,2.202-2.204,3.506-3.507c0.515,0.636,0.849,1.116,1.252,1.529
	c3.94,4.03,7.863,8.08,11.866,12.05c0.833,0.825,1.891,1.587,2.988,1.957c4.283,1.446,8.064-1.042,9.307-5.966
	c1.391-5.508,2.785-11.014,4.189-16.519c0.086-0.333,0.278-0.639,0.43-0.979c0.503,0.132,0.91,0.232,1.314,0.347
	c5.821,1.64,11.614,3.387,17.469,4.891c4.869,1.253,9.502-3.45,8.328-8.335c-0.626-2.606-1.426-5.171-2.155-7.754
	c-1.037-3.677-2.08-7.354-3.137-11.085c0.506-0.163,0.845-0.292,1.194-0.382c5.707-1.464,11.397-3,17.13-4.363
	C207.613,105.183,209.538,98.083,205.146,94.274z M131.783,123.969c-23.49,0.045-42.878-19.117-42.907-42.403
	c-0.028-24.039,18.905-43.125,42.829-43.173c23.446-0.047,42.673,19.089,42.733,42.533
	C174.499,104.61,155.358,123.925,131.783,123.969z"/>
<path fill-rule="evenodd" clip-rule="evenodd" fill="#2CC3E7" d="M115.286,107.127c-1.656,0.02-2.262-1.006-1.851-2.761
	c0.743-3.176,1.524-6.343,2.282-9.515c0.501-2.099,0.894-4.229,1.521-6.288c0.36-1.183,0-1.815-0.864-2.542
	c-4.076-3.426-8.129-6.881-12.116-10.412c-0.621-0.549-1.212-1.552-1.179-2.318c0.048-1.096,1.188-1.271,2.188-1.347
	c4.938-0.377,9.87-0.854,14.814-1.135c1.969-0.112,3.177-0.602,3.938-2.684c1.712-4.693,3.733-9.276,5.741-13.855
	c0.326-0.743,1.212-1.698,1.857-1.713c0.634-0.014,1.57,0.924,1.893,1.655c2.137,4.867,4.191,9.771,6.161,14.709
	c0.48,1.208,1.145,1.677,2.387,1.768c5.412,0.397,10.823,0.825,16.224,1.352c0.702,0.068,1.724,0.651,1.904,1.216
	c0.18,0.568-0.312,1.632-0.842,2.101c-4.11,3.629-8.286,7.186-12.479,10.718c-0.824,0.695-1.075,1.315-0.796,2.421
	c1.312,5.202,2.55,10.425,3.699,15.666c0.177,0.807,0.04,1.981-0.451,2.566c-0.776,0.923-1.821,0.262-2.698-0.275
	c-4.492-2.752-9.012-5.462-13.469-8.27c-1.073-0.676-1.844-0.731-2.951-0.031c-4.498,2.843-9.064,5.576-13.614,8.336
	C116.102,106.785,115.567,106.992,115.286,107.127z"/>
</svg>
