<?xml version="1.0" encoding="utf-8"?>
<!-- Generator: Adobe Illustrator 16.0.0, SVG Export Plug-In . SVG Version: 6.00 Build 0)  -->
<!DOCTYPE svg PUBLIC "-//W3C//DTD SVG 1.1//EN" "http://www.w3.org/Graphics/SVG/1.1/DTD/svg11.dtd">
<svg version="1.1" id="Layer_1" xmlns="http://www.w3.org/2000/svg" xmlns:xlink="http://www.w3.org/1999/xlink" x="0px" y="0px"
	 width="199.352px" height="191.91px" viewBox="0 0 199.352 191.91" enable-background="new 0 0 199.352 191.91"
	 xml:space="preserve">
<g>
	<path fill="#2CC3E7" d="M0.214,93.822c16.386-0.049,32.772-0.08,49.157,0.029c2.114,0.014,2.845-0.605,3.334-2.606
		c4.547-18.573,9.156-37.133,13.917-55.653c0.487-1.895,1.722-3.944,3.225-5.163c4.555-3.693,11.167-1.059,12.888,4.939
		c5.308,18.507,10.583,37.023,15.872,55.537c2.875,10.062,5.749,20.129,8.721,30.535c0.291-0.822,0.487-1.312,0.64-1.814
		c5.256-17.469,10.519-34.933,15.746-52.41c0.817-2.733,2.388-4.648,5.156-5.507c4.205-1.305,8.024,0.343,10.126,4.489
		c4.399,8.683,8.758,17.387,13.118,26.09c0.433,0.865,0.773,1.541,2.02,1.537c14.761-0.055,29.521-0.027,44.282-0.066l0.219,16.322
		c-0.51,0-14.173,0-14.898,0c-11.71,0-23.422-0.041-35.133,0.023c-3.951,0.021-6.736-1.598-8.445-5.141
		c-0.794-1.646-1.633-3.267-2.451-4.898c-1.352-2.697-2.701-5.396-4.289-8.567c-0.355,1.168-0.534,1.748-0.708,2.329
		c-5.866,19.479-11.72,38.961-17.604,58.434c-1.28,4.232-4.388,6.662-8.199,6.568c-3.787-0.096-6.729-2.58-7.9-6.697
		c-4.628-16.25-9.249-32.5-13.878-48.751c-3.258-11.436-6.526-22.868-9.923-34.769c-0.299,1.001-0.488,1.557-0.63,2.124
		c-2.665,10.622-5.323,21.246-7.986,31.869c-1.386,5.535-3.895,7.475-9.665,7.477c-14.283,0.002-28.565,0.002-42.849,0.002
		c-0.689,0-13.14,0-13.83,0L0.214,93.822z"/>
</g>
</svg>
