<?xml version="1.0" encoding="utf-8"?>
<!-- Generator: Adobe Illustrator 16.0.0, SVG Export Plug-In . SVG Version: 6.00 Build 0)  -->
<!DOCTYPE svg PUBLIC "-//W3C//DTD SVG 1.1//EN" "http://www.w3.org/Graphics/SVG/1.1/DTD/svg11.dtd">
<svg version="1.1" id="Layer_1" xmlns="http://www.w3.org/2000/svg" xmlns:xlink="http://www.w3.org/1999/xlink" x="0px" y="0px"
	 width="52.871px" height="52.872px" viewBox="0 0 52.871 52.872" enable-background="new 0 0 52.871 52.872" xml:space="preserve">
<path fill="#FFFFFF" d="M67.875,60.235"/>
<g>
	<path fill="#00C9ED" d="M52.034,0H0.837C0.375,0,0,0.375,0,0.837v51.198c0,0.461,0.375,0.836,0.837,0.836h51.197
		c0.462,0,0.837-0.375,0.837-0.836V0.837C52.871,0.375,52.496,0,52.034,0z"/>
	<path fill="#FFFFFF" d="M38.389,14.985H14.481c-1.339,0-2.426,1.163-2.426,2.597v17.709c0,1.434,1.087,2.597,2.426,2.597h16.56
		l5.5,4.556v-4.556h1.848c1.34,0,2.427-1.163,2.427-2.597V17.582C40.816,16.148,39.729,14.985,38.389,14.985z M20.268,28.144
		c-0.943,0-1.708-0.765-1.708-1.708c0-0.943,0.765-1.708,1.708-1.708s1.708,0.765,1.708,1.708
		C21.976,27.379,21.211,28.144,20.268,28.144z M26.435,28.144c-0.943,0-1.708-0.765-1.708-1.708c0-0.943,0.765-1.708,1.708-1.708
		s1.708,0.765,1.708,1.708C28.143,27.379,27.378,28.144,26.435,28.144z M32.768,28.144c-0.943,0-1.708-0.765-1.708-1.708
		c0-0.943,0.765-1.708,1.708-1.708s1.708,0.765,1.708,1.708C34.476,27.379,33.711,28.144,32.768,28.144z"/>
</g>
</svg>
