<?xml version="1.0" encoding="utf-8"?>
<!-- Generator: Adobe Illustrator 16.0.0, SVG Export Plug-In . SVG Version: 6.00 Build 0)  -->
<!DOCTYPE svg PUBLIC "-//W3C//DTD SVG 1.1//EN" "http://www.w3.org/Graphics/SVG/1.1/DTD/svg11.dtd">
<svg version="1.1" id="Layer_1" xmlns="http://www.w3.org/2000/svg" xmlns:xlink="http://www.w3.org/1999/xlink" x="0px" y="0px"
	 width="560.189px" height="555.719px" viewBox="0 0 560.189 555.719" enable-background="new 0 0 560.189 555.719"
	 xml:space="preserve">
<g>
	<g>
		<g>
			<path fill="#FFFFFF" d="M367.379,89.18c-35.777-28.045-71.838-57.061-108.35-87.384c-27.684,27.768-55.57,56.89-83.575,87.023
				C239.39,88.505,303.337,88.624,367.379,89.18z"/>
			<path fill="#FFFFFF" d="M509.459,210.549c-1.006-9.424-5.811-17.675-12.34-23.077c0.047-0.065,0.106-0.125,0.177-0.183
				c-23.662-17.12-47.537-34.938-71.483-53.098c4.981,40.185,9.583,80.262,13.369,120.068l-138.838,94.833l-158.891-75.885
				c-3.964-43.769-8.779-87.81-13.961-131.952c-18.776,20.905-37.623,42.148-56.6,64.089c0.166,0.165,0.308,0.337,0.497,0.509
				c-5.016,6.986-7.702,17.09-6.602,28.288c8.945,91.572,15.322,182.352,19.131,272.232c0.805,19.782,13.026,33.507,27.437,30.832
				c83.8-15.865,167.599-30.973,251.422-45.313c25.591,20.954,50.957,41.102,76.133,60.327c-0.083-23.981-0.391-47.986-0.911-72.062
				c21.532-3.455,43.053-6.886,64.597-10.34c14.41-2.284,25.521-17.344,24.691-33.612
				C523.467,361.75,517.562,286.487,509.459,210.549z M117.388,467.402c-3.395-67.887-8.246-136.271-14.611-205.134
				c42.947,27.999,85.551,54.619,127.835,79.843c-36.44,43.431-73.329,88.757-110.762,135.951
				C118.453,474.927,117.589,471.307,117.388,467.402z M473.409,438.712c-19.261,2.78-38.522,5.584-57.783,8.436
				c0.84,17.25,1.621,34.452,2.26,51.619c-15.641-14.599-31.376-29.542-47.206-44.804c-76.618,11.547-153.225,23.828-229.843,36.605
				c-5.075,0.828-9.82-0.391-13.7-3.29c38.569-48.317,76.547-94.743,114.063-139.204c20.527,12.328,40.971,24.207,61.344,35.801
				c18.622-16.398,37.149-32.441,55.677-48.034c43.396,34.038,86.237,65.982,128.58,96.044
				C483.217,435.481,478.544,438.014,473.409,438.712z M493.037,421.995c-41.267-29.436-82.983-60.67-125.268-93.82
				c37.8-31.66,75.388-61.835,112.798-90.437c5.868,58.729,10.447,117.057,13.783,174.911
				C494.504,415.901,494.054,419.001,493.037,421.995z"/>
			<path fill="#FFFFFF" d="M380.937,162.977c0.119,1.053-4.33,2.035-9.938,2.177c-60.942,1.514-121.896,3.431-182.791,5.72
				c-5.596,0.207-10.257-0.568-10.364-1.733c-1.432-12.719-2.911-25.455-4.449-38.197c-0.142-1.177,4.283-2.218,9.879-2.337
				c60.965-1.266,121.967-2.123,183.015-2.608c5.62-0.036,10.281,0.798,10.411,1.881
				C378.168,139.58,379.577,151.281,380.937,162.977z"/>
		</g>
		<path fill="#FFFFFF" d="M305.987,267.114c0.249,2.608-2.153,4.934-5.336,5.211c-34.759,2.834-69.52,5.804-104.255,8.915
			c-3.194,0.254-5.975-1.745-6.247-4.442c-2.887-29.879-6.058-59.847-9.536-89.922c-0.308-2.786,2-5.146,5.229-5.294
			c34.784-1.716,69.614-3.283,104.445-4.721c3.229-0.136,6.093,1.911,6.388,4.532C300.048,210.052,303.148,238.636,305.987,267.114z
			"/>
		<path fill="#FFFFFF" d="M392.614,260.879c0.261,2.508-1.147,4.685-3.111,4.845c-21.45,1.597-42.912,3.259-64.35,4.963
			c-1.976,0.136-3.786-1.84-4.034-4.408c-2.828-28.3-5.927-56.7-9.323-85.189c-0.319-2.632,1.029-4.828,3.017-4.898
			c21.497-0.846,42.982-1.633,64.492-2.384c1.976-0.077,3.81,1.946,4.117,4.455C386.782,205.912,389.834,233.449,392.614,260.879z"
			/>
	</g>
</g>
</svg>
