<?xml version="1.0" encoding="utf-8"?>
<!-- Generator: Adobe Illustrator 16.0.0, SVG Export Plug-In . SVG Version: 6.00 Build 0)  -->
<!DOCTYPE svg PUBLIC "-//W3C//DTD SVG 1.1//EN" "http://www.w3.org/Graphics/SVG/1.1/DTD/svg11.dtd">
<svg version="1.1" id="Layer_1" xmlns="http://www.w3.org/2000/svg" xmlns:xlink="http://www.w3.org/1999/xlink" x="0px" y="0px"
	 width="199.352px" height="191.91px" viewBox="0 0 199.352 191.91" enable-background="new 0 0 199.352 191.91"
	 xml:space="preserve">
<g>
	<path fill-rule="evenodd" clip-rule="evenodd" fill="#2CC3E7" d="M167.436,97.704c-0.627-0.656-1.133-1.207-1.662-1.735
		c-10.55-10.554-21.104-21.105-31.654-31.659c-3.07-3.072-3.075-4.766-0.027-7.82c2.927-2.936,5.854-5.87,8.792-8.795
		c2.883-2.871,4.823-2.877,7.74,0.037c13.834,13.818,27.654,27.647,41.48,41.473c1.612,1.612,3.246,3.203,4.83,4.842
		c2.535,2.624,2.557,4.73-0.046,7.341c-15.521,15.551-31.055,31.087-46.609,46.604c-2.546,2.54-4.593,2.478-7.136-0.044
		c-3.042-3.017-6.064-6.052-9.089-9.084c-2.968-2.976-2.983-4.735-0.046-7.675c10.744-10.751,21.494-21.496,32.241-32.245
		C166.59,98.602,166.916,98.248,167.436,97.704z"/>
</g>
<g>
	<path fill-rule="evenodd" clip-rule="evenodd" fill="#2CC3E7" d="M31.916,97.704c0.627-0.656,1.133-1.207,1.662-1.735
		c10.55-10.554,21.105-21.105,31.655-31.659c3.07-3.072,3.075-4.766,0.027-7.82c-2.928-2.936-5.855-5.87-8.792-8.795
		c-2.883-2.871-4.823-2.877-7.74,0.037C34.893,61.549,21.073,75.379,7.247,89.204c-1.612,1.612-3.246,3.203-4.831,4.842
		c-2.535,2.624-2.556,4.73,0.047,7.341c15.52,15.551,31.054,31.087,46.609,46.604c2.546,2.54,4.592,2.478,7.135-0.044
		c3.042-3.017,6.065-6.052,9.09-9.084c2.968-2.976,2.982-4.735,0.045-7.675c-10.744-10.751-21.494-21.496-32.241-32.245
		C32.761,98.602,32.435,98.248,31.916,97.704z"/>
</g>
<circle fill="#2CC3E7" cx="67.541" cy="97.714" r="11.628"/>
<circle fill="#2CC3E7" cx="99.735" cy="97.714" r="11.628"/>
<circle fill="#2CC3E7" cx="131.813" cy="97.742" r="11.628"/>
</svg>
