<?xml version="1.0" encoding="utf-8"?>
<!-- Generator: Adobe Illustrator 16.0.0, SVG Export Plug-In . SVG Version: 6.00 Build 0)  -->
<!DOCTYPE svg PUBLIC "-//W3C//DTD SVG 1.1//EN" "http://www.w3.org/Graphics/SVG/1.1/DTD/svg11.dtd">
<svg version="1.1" id="Layer_1" xmlns="http://www.w3.org/2000/svg" xmlns:xlink="http://www.w3.org/1999/xlink" x="0px" y="0px"
	 width="199.352px" height="191.91px" viewBox="0 0 199.352 191.91" enable-background="new 0 0 199.352 191.91"
	 xml:space="preserve">
<path fill="#00C9ED" d="M65.01-68.545"/>
<g>
	<path fill="#2CC3E7" d="M149.775,126.404c0.58,0.406,1.188,0.713,1.647,1.17c12.021,11.996,24.015,24.023,36.046,36.012
		c4.285,4.268,6.029,9.275,4.089,15.08c-3.4,10.182-15.511,12.829-22.509,6.529c-0.881-0.793-1.77-1.584-2.608-2.422
		c-11.775-11.736-23.544-23.483-35.313-35.228c-0.376-0.375-0.768-0.735-1.242-1.19c-21.079,13.892-43.823,17.475-67.93,10.054
		c-18.031-5.55-32.383-16.361-42.536-32.438C-1.436,90.954,4.777,49.634,32.155,24.128c27.749-25.851,70.533-27.764,100.731-4.892
		c10.845,8.213,18.829,18.649,24.305,31.057c5.459,12.37,7.475,25.298,6.271,38.745
		C162.252,102.552,157.719,114.874,149.775,126.404z M22.277,81.795c-0.427,34.257,28.873,63.667,64.155,63.157
		c33.65-0.484,62.261-28.979,62.227-63.375c-0.034-34.387-29.023-63.091-63.118-63.131C50.982,18.408,21.735,47.458,22.277,81.795z"
		/>
</g>
</svg>
