<?xml version="1.0" encoding="utf-8"?>
<!-- Generator: Adobe Illustrator 16.0.0, SVG Export Plug-In . SVG Version: 6.00 Build 0)  -->
<!DOCTYPE svg PUBLIC "-//W3C//DTD SVG 1.1//EN" "http://www.w3.org/Graphics/SVG/1.1/DTD/svg11.dtd">
<svg version="1.1" id="Layer_1" xmlns="http://www.w3.org/2000/svg" xmlns:xlink="http://www.w3.org/1999/xlink" x="0px" y="0px"
	 width="199.352px" height="191.91px" viewBox="0 0 199.352 191.91" enable-background="new 0 0 199.352 191.91"
	 xml:space="preserve">
<g>
	<path fill="#00C9ED" d="M59.039,87.729c0,0,3.946-0.605,10.981-0.376c10.934,0.354,21.666-30.478,23.894-36.348
		c2.226-5.872,2.563-29.562,2.833-32.532c0.271-2.968,0.577-4.281,6.517-3.742c5.937,0.539,16.159,12.113,18.308,23.452
		c2.143,11.337-0.749,40.236-0.749,40.236c39.884-1.179,43.452-0.752,49.958,1.587c3.11,1.122,6.744,5.791,7.941,10.72
		c2.005,8.339-5.532,14.551-5.532,14.551s5.871,6.297,4.737,13.443c-0.901,8.6-10.309,10.621-10.309,10.621s6.257,5.34,5.247,12.832
		c-1.082,7.964-9.137,10.495-9.137,10.495s5.028,8.202,1.592,13.697c-1.65,2.637-4.068,5.361-18.021,7.81
		c-7.278,1.275-22.093,3.238-38.263,3.112c-18.285-0.14-38.249-8.278-49.998-8.735V87.729z"/>
	<path fill="#00C9ED" d="M49.774,81.734H23.139c-1.573,0-2.848,1.764-2.848,3.942v86.044c0,2.168,1.276,3.937,2.848,3.937h26.635
		c1.568,0,2.848-1.769,2.848-3.937V85.676C52.622,83.498,51.346,81.734,49.774,81.734z M36.457,167.956
		c-3.783,0-6.85-3.064-6.85-6.849c0-3.782,3.067-6.849,6.85-6.849c3.784,0,6.849,3.066,6.849,6.849
		C43.306,164.891,40.24,167.956,36.457,167.956z"/>
</g>
</svg>
