<?xml version="1.0" encoding="utf-8"?>
<!-- Generator: Adobe Illustrator 16.0.0, SVG Export Plug-In . SVG Version: 6.00 Build 0)  -->
<!DOCTYPE svg PUBLIC "-//W3C//DTD SVG 1.1//EN" "http://www.w3.org/Graphics/SVG/1.1/DTD/svg11.dtd">
<svg version="1.1" id="Layer_1" xmlns="http://www.w3.org/2000/svg" xmlns:xlink="http://www.w3.org/1999/xlink" x="0px" y="0px"
	 width="52.871px" height="52.872px" viewBox="0 0 52.871 52.872" enable-background="new 0 0 52.871 52.872" xml:space="preserve">
<path fill="#FFFFFF" d="M67.875,60.235"/>
<path fill="#00C9ED" d="M52.034,0H0.837C0.375,0,0,0.375,0,0.837v51.198c0,0.461,0.375,0.836,0.837,0.836h51.197
	c0.462,0,0.837-0.375,0.837-0.836V0.837C52.871,0.375,52.496,0,52.034,0z M39.205,26.324c-0.858,1.936-2.258,3.438-3.755,4.874
	c-2.707,2.597-5.41,5.199-8.112,7.801c-0.685,0.659-1.11,0.662-1.788,0.009c-3.042-2.937-6.098-5.859-9.127-8.81
	c-1.538-1.498-2.77-3.212-3.192-5.367c-0.52-2.65,0.257-6.085,3.386-7.486c2.55-1.143,5.074-1.033,7.433,0.577
	c0.824,0.562,1.596,1.203,2.344,1.772c1.085-0.756,2.119-1.583,3.25-2.243c2.615-1.524,6.473-0.918,8.489,1.253
	C39.833,20.538,40.286,23.887,39.205,26.324z"/>
</svg>
