<?xml version="1.0" encoding="utf-8"?>
<!-- Generator: Adobe Illustrator 16.0.0, SVG Export Plug-In . SVG Version: 6.00 Build 0)  -->
<!DOCTYPE svg PUBLIC "-//W3C//DTD SVG 1.1//EN" "http://www.w3.org/Graphics/SVG/1.1/DTD/svg11.dtd">
<svg version="1.1" id="Layer_1" xmlns="http://www.w3.org/2000/svg" xmlns:xlink="http://www.w3.org/1999/xlink" x="0px" y="0px"
	 width="199.352px" height="191.91px" viewBox="0 0 199.352 191.91" enable-background="new 0 0 199.352 191.91"
	 xml:space="preserve">
<g>
	<path fill-rule="evenodd" clip-rule="evenodd" fill="#2CC3E7" d="M97.699,78.27c2.17-1.703,4.352-3.5,6.619-5.172
		c3.033-2.234,6.365-3.934,10.137-4.39c6.26-0.756,12.193,0.24,17.371,4.088c3.809,2.831,5.971,6.744,6.986,11.341
		c1.832,8.275-0.531,15.459-5.59,21.988c-2.582,3.333-5.656,6.184-8.67,9.096c-4.211,4.068-8.438,8.123-12.654,12.183
		c-4.021,3.871-8.039,7.752-12.068,11.614c-1.305,1.249-2.937,1.243-4.246-0.02c-5.221-5.022-10.431-10.059-15.646-15.087
		c-4.84-4.667-9.79-9.226-14.493-14.027c-4.062-4.146-7.417-8.871-8.708-14.659c-1.716-7.689-0.557-14.818,5.001-20.779
		c2.445-2.621,5.561-4.224,9.021-5.082c3.766-0.933,7.58-1.305,11.422-0.454c3.475,0.771,6.565,2.384,9.387,4.504
		C93.669,74.991,95.69,76.671,97.699,78.27z"/>
</g>
<path fill="#00C9ED" d="M65.01-68.545"/>
<path fill-rule="evenodd" clip-rule="evenodd" fill="#2CC3E7" d="M187.231,98.184c1.008,43.86-34.627,82.909-79.053,87.472
	c-45.282,4.652-89.764-27.53-95.986-74.722c-0.277-2.096-0.777-4.175-0.904-6.276c-0.442-7.395-0.369-7.206,7.002-7.257
	c3.66-0.026,4.304,1.375,4.592,4.703c3.051,35.216,25.421,61.448,59.271,69.807c43.733,10.796,88.073-21.292,92.635-66.104
	c4.17-40.915-24.461-77.525-65.146-83.568c-11.761-1.749-23.336-0.667-34.684,3.079c-3.234,1.068-3.898,2.072-2.043,5.233
	c1.632,2.777,5.314,5.633,3.047,9.241c-2.64,4.203-6.805,0.896-10.134,0.593c-5.913-0.538-11.73-2.065-17.609-3.051
	c-4.061-0.682-5.124-2.738-3.672-6.543c2.679-7.017,5.183-14.101,7.797-21.14c0.67-1.802,1.283-3.74,3.745-3.837
	c2.289-0.091,3.87,1.363,4.435,3.143c2.383,7.508,6.689,6.8,13.094,4.698C123.215-2.62,177.592,30.688,186.147,82.087
	C187.041,87.464,187.207,92.798,187.231,98.184z"/>
</svg>
