<?xml version="1.0" encoding="utf-8"?>
<!-- Generator: Adobe Illustrator 16.0.0, SVG Export Plug-In . SVG Version: 6.00 Build 0)  -->
<!DOCTYPE svg PUBLIC "-//W3C//DTD SVG 1.1//EN" "http://www.w3.org/Graphics/SVG/1.1/DTD/svg11.dtd">
<svg version="1.1" id="Layer_1" xmlns="http://www.w3.org/2000/svg" xmlns:xlink="http://www.w3.org/1999/xlink" x="0px" y="0px"
	 width="199.352px" height="191.91px" viewBox="0 0 199.352 191.91" enable-background="new 0 0 199.352 191.91"
	 xml:space="preserve">
<path fill-rule="evenodd" clip-rule="evenodd" fill="#2CC3E7" d="M9.916,72.221c6.766,7.584,15.205,12.299,22.958,17.945
	c15.065,10.971,30.141,21.926,45.307,32.747c5.527,3.943,11.59,6.826,18.327,7.92c5.266,0.852,10.156-0.549,14.982-2.543
	c6.121-2.531,11.355-6.523,16.701-10.383c16.773-12.107,33.646-24.066,50.408-36.189c3.787-2.74,7.273-5.922,10.869-8.877
	c0.006,0.051,0.084,0.441,0.084,0.833c0.008,26.817,0.029,53.634-0.004,80.45c-0.012,9.41-7.07,16.666-16.199,16.668
	c-49.09,0.021-98.183,0.021-147.275,0c-9.063-0.002-16.189-7.209-16.206-16.488c-0.047-26.928-0.017-53.854-0.016-80.78
	C9.854,73.203,9.884,72.887,9.916,72.221z"/>
<path fill="#00C9ED" d="M65.01-68.545"/>
<g>
	<path fill-rule="evenodd" clip-rule="evenodd" fill="#2CC3E7" d="M112.915,99.867c0.014-0.012,0.022-0.023,0.035-0.035
		c-0.001-0.004-0.002-0.01-0.003-0.014C112.883,99.912,112.896,99.885,112.915,99.867z"/>
	<path fill-rule="evenodd" clip-rule="evenodd" fill="#2CC3E7" d="M172.506,25.034c-24.33,0.29-48.666,0.098-72.996,0.097
		c-19.84,0-39.68,0-59.52,0c-4.759,0-9.519-0.024-14.278,0.008c-6.372,0.042-11.143,2.906-13.822,8.919
		c-2.901,6.51-2.844,13.057,0.636,19.371c3.812,6.916,8.982,12.566,15.312,17.108c15.927,11.427,31.814,22.914,47.771,34.297
		c5.09,3.631,10.241,7.199,15.561,10.457c4.86,2.977,10.139,3.477,15.344,0.842c3.152-1.596,6.283-3.336,9.168-5.393
		c16.311-11.625,32.578-23.324,48.793-35.093c4.842-3.517,9.74-7.038,14.123-11.118c5.258-4.895,9.08-10.889,10.549-18.299
		C191.762,33.055,181.824,24.923,172.506,25.034z"/>
</g>
</svg>
