<?xml version="1.0" encoding="utf-8"?>
<!-- Generator: Adobe Illustrator 16.0.0, SVG Export Plug-In . SVG Version: 6.00 Build 0)  -->
<!DOCTYPE svg PUBLIC "-//W3C//DTD SVG 1.1//EN" "http://www.w3.org/Graphics/SVG/1.1/DTD/svg11.dtd">
<svg version="1.1" id="Layer_1" xmlns="http://www.w3.org/2000/svg" xmlns:xlink="http://www.w3.org/1999/xlink" x="0px" y="0px"
	 width="52.871px" height="52.872px" viewBox="0 0 52.871 52.872" enable-background="new 0 0 52.871 52.872" xml:space="preserve">
<path fill="#FFFFFF" d="M67.875,60.235"/>
<path fill="#00C9ED" d="M52.034,0H0.837C0.375,0,0,0.375,0,0.837v51.198c0,0.461,0.375,0.836,0.837,0.836h51.197
	c0.462,0,0.837-0.375,0.837-0.836V0.837C52.871,0.375,52.496,0,52.034,0z M28.761,39.41c-5.13,0.962-10.521-1.31-13.351-5.695
	c-2.251-3.489-2.76-7.257-1.598-11.247c0.056-0.193,0.113-0.387,0.202-0.692c-0.716-0.264-1.434-0.528-2.151-0.795
	c-0.241-0.09-0.483-0.178-0.716-0.287c-0.442-0.207-0.772-0.508-0.758-1.045c0.014-0.516,0.29-0.858,0.749-1.061
	c0.757-0.335,1.517-0.662,2.276-0.992c1.467-0.639,2.933-1.28,4.402-1.915c0.925-0.4,1.464-0.193,1.861,0.712
	c0.957,2.19,1.905,4.385,2.864,6.575c0.226,0.514,0.262,0.997-0.141,1.434c-0.402,0.438-0.889,0.373-1.375,0.182
	c-0.958-0.375-1.911-0.761-2.908-1.161c-0.615,1.7-0.717,3.377-0.265,5.073c0.731,2.734,2.382,4.719,4.95,5.924
	c1.309,0.615,2.698,0.799,4.132,0.745c0.904-0.033,0.904-0.017,1.261,0.805c0.36,0.826,0.726,1.649,1.076,2.48
	C29.499,38.989,29.32,39.305,28.761,39.41z M41.748,34.151c-2.292,1.002-4.583,2.005-6.88,2.992
	c-0.697,0.299-1.294,0.068-1.597-0.619c-1.01-2.288-2.002-4.583-2.997-6.878c-0.199-0.461-0.165-0.9,0.176-1.287
	c0.356-0.402,0.813-0.414,1.267-0.239c0.994,0.383,1.976,0.797,2.99,1.208c1.385-3.616-0.02-8.006-3.129-10.14
	c-1.719-1.178-3.596-1.734-5.667-1.59c-0.651,0.045-1.014-0.16-1.239-0.789c-0.296-0.829-0.699-1.62-1.039-2.434
	c-0.204-0.49-0.039-0.822,0.452-0.898c4.453-0.699,8.461,0.305,11.664,3.522c3.652,3.67,4.714,8.131,3.367,13.145
	c-0.067,0.247-0.149,0.491-0.241,0.792c0.915,0.357,1.823,0.706,2.725,1.066c0.485,0.194,0.883,0.479,0.878,1.073
	C42.472,33.593,42.207,33.95,41.748,34.151z"/>
</svg>
