<?xml version="1.0" encoding="utf-8"?>
<!-- Generator: Adobe Illustrator 16.0.0, SVG Export Plug-In . SVG Version: 6.00 Build 0)  -->
<!DOCTYPE svg PUBLIC "-//W3C//DTD SVG 1.1//EN" "http://www.w3.org/Graphics/SVG/1.1/DTD/svg11.dtd">
<svg version="1.1" id="Layer_1" xmlns="http://www.w3.org/2000/svg" xmlns:xlink="http://www.w3.org/1999/xlink" x="0px" y="0px"
	 width="265px" height="231.954px" viewBox="0 0 265 231.954" enable-background="new 0 0 265 231.954" xml:space="preserve">
<path fill="#00C9ED" d="M150.747,217.579c-40.213,7.529-82.462-10.273-104.644-44.639c-17.642-27.348-21.634-56.879-12.525-88.154
	c0.44-1.511,0.884-3.03,1.584-5.422c-5.614-2.066-11.239-4.137-16.861-6.23c-1.887-0.704-3.785-1.393-5.61-2.25
	c-3.463-1.623-6.05-3.98-5.939-8.189c0.107-4.045,2.273-6.724,5.871-8.316c5.932-2.625,11.886-5.189,17.837-7.772
	c11.496-5.01,22.989-10.035,34.5-15.009c7.251-3.134,11.473-1.516,14.584,5.58c7.501,17.164,14.933,34.366,22.448,51.53
	c1.772,4.03,2.056,7.814-1.105,11.24c-3.15,3.433-6.965,2.923-10.777,1.428c-7.508-2.939-14.979-5.963-22.789-9.101
	c-4.822,13.325-5.622,26.462-2.078,39.765c5.729,21.424,18.667,36.984,38.793,46.43c10.26,4.82,21.147,6.26,32.384,5.832
	c7.087-0.262,7.087-0.131,9.888,6.314c2.817,6.467,5.688,12.926,8.435,19.432C156.525,214.272,155.125,216.75,150.747,217.579z"/>
<path fill="#00C9ED" d="M252.528,176.354c-17.964,7.854-35.92,15.721-53.922,23.451c-5.465,2.342-10.142,0.535-12.514-4.852
	c-7.914-17.934-15.69-35.92-23.498-53.908c-1.554-3.611-1.285-7.049,1.386-10.086c2.794-3.146,6.376-3.246,9.927-1.875
	c7.793,3,15.492,6.244,23.438,9.475c10.853-28.347-0.153-62.754-24.523-79.478c-13.471-9.234-28.182-13.589-44.416-12.461
	c-5.105,0.353-7.949-1.254-9.713-6.184c-2.319-6.499-5.477-12.698-8.144-19.078c-1.596-3.842-0.302-6.441,3.544-7.038
	c34.901-5.48,66.312,2.392,91.418,27.604c28.618,28.763,36.945,63.727,26.391,103.025c-0.528,1.938-1.171,3.85-1.891,6.207
	c7.172,2.803,14.29,5.533,21.354,8.357c3.804,1.516,6.919,3.752,6.888,8.406C258.207,171.975,256.126,174.778,252.528,176.354z"/>
</svg>
