<?xml version="1.0" encoding="utf-8"?>
<!-- Generator: Adobe Illustrator 16.0.0, SVG Export Plug-In . SVG Version: 6.00 Build 0)  -->
<!DOCTYPE svg PUBLIC "-//W3C//DTD SVG 1.1//EN" "http://www.w3.org/Graphics/SVG/1.1/DTD/svg11.dtd">
<svg version="1.1" id="Layer_1" xmlns="http://www.w3.org/2000/svg" xmlns:xlink="http://www.w3.org/1999/xlink" x="0px" y="0px"
	 width="265px" height="231.954px" viewBox="0 0 265 231.954" enable-background="new 0 0 265 231.954" xml:space="preserve">
<circle fill="#2CC3E7" cx="130.564" cy="49.827" r="39.684"/>
<path fill="#2CC3E7" d="M225.77,125.622c-1.566-3.848-45.892-23.875-97.642-23.875c-51.752,0-91.202,20.03-92.769,23.875
	c-1.566,3.842-1.566,9.885-1.566,9.885v86.304h96.771h96.771v-86.304C227.336,135.506,227.336,129.463,225.77,125.622z
	 M145.866,198.729c-2.376,1.43-4.992,2.312-7.715,2.857c-0.39,0.078-0.778,0.16-1.245,0.258c0,0.807,0,1.574,0,2.344
	c0,2.449,0.01,4.898-0.004,7.349c-0.01,1.663-0.67,2.319-2.31,2.327c-2.295,0.008-4.59,0.007-6.884,0
	c-1.674-0.006-2.359-0.68-2.369-2.377c-0.016-2.853-0.005-5.705-0.005-8.558c0-0.337,0-0.674,0-0.906
	c-2.452-0.657-4.834-1.189-7.146-1.937c-5.174-1.672-9.747-4.406-13.692-8.157c-1.311-1.248-1.33-1.943-0.24-3.372
	c1.784-2.343,3.571-4.683,5.361-7.021c0.96-1.256,1.951-1.374,3.142-0.345c4.227,3.652,8.965,6.282,14.513,7.296
	c4.184,0.764,8.21,0.509,11.879-1.927c2.956-1.963,4.219-4.771,3.733-8.224c-0.363-2.587-2.065-4.446-4.253-5.694
	c-2.358-1.346-4.834-2.503-7.319-3.607c-4.324-1.923-8.767-3.593-13.025-5.649c-4.229-2.042-7.875-4.91-10.517-8.907
	c-1.646-2.492-2.45-5.273-2.798-8.182c-0.498-4.162,0.146-8.161,2.197-11.861c2.818-5.083,7.046-8.579,12.399-10.721
	c1.516-0.606,3.108-1.059,4.702-1.421c0.893-0.204,1.1-0.579,1.084-1.433c-0.053-2.852-0.021-5.705-0.02-8.557
	c0.001-2.008,0.604-2.613,2.598-2.614c2.232-0.001,4.464-0.009,6.696,0.003c1.599,0.006,2.262,0.658,2.271,2.265
	c0.016,2.914,0.004,5.829,0.004,8.744c0,0.334,0,0.668,0,0.83c2.727,0.722,5.347,1.328,7.909,2.114
	c3.629,1.116,6.836,3.049,9.731,5.486c1.442,1.215,1.514,1.787,0.602,3.428c-1.383,2.492-2.763,4.982-4.144,7.475
	c-0.867,1.565-1.992,1.774-3.409,0.656c-3.786-2.986-7.987-5.116-12.794-5.797c-4.186-0.592-8.243-0.184-11.824,2.349
	c-3.001,2.121-4.118,5.381-2.979,8.832c0.281,0.851,0.815,1.679,1.42,2.35c1.594,1.77,3.523,3.129,5.726,4.046
	c3.942,1.641,7.918,3.201,11.857,4.853c4.577,1.922,9.038,4.022,12.794,7.415c3.941,3.559,5.729,8.035,5.854,13.19
	C157.873,187.173,153.687,194.02,145.866,198.729z"/>
</svg>
