<?xml version="1.0" encoding="utf-8"?>
<!-- Generator: Adobe Illustrator 16.0.0, SVG Export Plug-In . SVG Version: 6.00 Build 0)  -->
<!DOCTYPE svg PUBLIC "-//W3C//DTD SVG 1.1//EN" "http://www.w3.org/Graphics/SVG/1.1/DTD/svg11.dtd">
<svg version="1.1" id="Layer_1" xmlns="http://www.w3.org/2000/svg" xmlns:xlink="http://www.w3.org/1999/xlink" x="0px" y="0px"
	 width="265px" height="231.954px" viewBox="0 0 265 231.954" enable-background="new 0 0 265 231.954" xml:space="preserve">
<path fill="#2CC3E7" d="M132.5,0C59.439,0,0,59.439,0,132.5c0,36.795,14.732,70.989,41.483,96.285l3.351,3.169l3.429-3.085
	C71.107,208.318,101.024,197,132.5,197c31.477,0,61.393,11.318,84.237,31.869l3.429,3.085l3.351-3.169
	C250.268,203.489,265,169.295,265,132.5C265,59.439,205.561,0,132.5,0z M220.081,225.152C197.239,204.604,166.418,192,132.5,192
	c-33.918,0-64.739,12.604-87.582,33.152C20.339,201.91,5,168.998,5,132.5C5,62.083,62.083,5,132.5,5C202.916,5,260,62.083,260,132.5
	C260,168.998,244.66,201.91,220.081,225.152z"/>
<path fill="#2CC3E7" d="M235.252,135.75v-8.41h16.129c-1.259-29.364-13.208-56.002-32.047-76.117l-11.366,11.366l-5.947-5.946
	l11.353-11.353c-20.285-18.825-47.123-30.676-76.668-31.708v16.21h-8.41v-16.21c-29.59,1.033-56.465,12.919-76.762,31.795
	l11.265,11.265l-5.947,5.947L45.579,51.318C26.79,71.421,14.876,98.021,13.619,127.34H29.75v8.41H13.547
	c0.777,29.163,11.998,56.584,31.865,77.85c24.394-19.433,55.187-30.1,87.087-30.1c31.9,0,62.693,10.667,87.087,30.1
	c19.868-21.266,31.089-48.687,31.866-77.85H235.252z"/>
<path fill="#FFFFFF" d="M194.084,69.917c-0.782-0.783-15.633,11.07-43.52,36.646c-5.081-4.058-11.512-6.491-18.505-6.491
	c-16.384,0-29.713,13.329-29.713,29.712c0,6.179,1.897,11.922,5.138,16.68c-3.573,3.645-5.193,7.829-1.49,11.53
	c3.756,3.756,7.235,1.266,10.917-2.416c0.035-0.034,0.104-0.107,0.154-0.157c4.405,2.586,9.527,4.076,14.994,4.076
	c16.384,0,29.713-13.329,29.713-29.713c0-6.119-1.86-11.81-5.043-16.542C182.589,85.509,194.892,70.723,194.084,69.917z
	 M132.059,152.365c-12.452,0-22.582-10.13-22.582-22.582c0-12.451,10.13-22.582,22.582-22.582s22.582,10.13,22.582,22.582
	C154.641,142.235,144.511,152.365,132.059,152.365z"/>
</svg>
