<?xml version="1.0" encoding="utf-8"?>
<!-- Generator: Adobe Illustrator 16.0.0, SVG Export Plug-In . SVG Version: 6.00 Build 0)  -->
<!DOCTYPE svg PUBLIC "-//W3C//DTD SVG 1.1//EN" "http://www.w3.org/Graphics/SVG/1.1/DTD/svg11.dtd">
<svg version="1.1" id="Layer_1" xmlns="http://www.w3.org/2000/svg" xmlns:xlink="http://www.w3.org/1999/xlink" x="0px" y="0px"
	 width="265px" height="231.954px" viewBox="0 0 265 231.954" enable-background="new 0 0 265 231.954" xml:space="preserve">
<circle fill="#2CC3E7" cx="88.047" cy="66.65" r="33.34"/>
<circle fill="#2CC3E7" cx="182.727" cy="66.65" r="33.34"/>
<path fill="#2CC3E7" d="M86,120.833c43.478,0,80.717,15.064,82.033,17.956c1.316,2.891,1.316,7.436,1.316,7.436v47.919H88.047H6.745
	v-47.919c0,0,0-4.544,1.316-7.436C9.377,135.898,42.521,120.833,86,120.833z"/>
<path fill="#2CC3E7" d="M257.534,138.79c-1.316-2.892-38.555-17.956-82.033-17.956c-3.478,0-6.881,0.106-10.216,0.285
	c10.911,3.468,17.737,6.798,18.287,8.005c1.316,2.891,1.316,7.436,1.316,7.436v57.585h73.962v-47.919
	C258.85,146.225,258.85,141.681,257.534,138.79z"/>
</svg>
