<?xml version="1.0" encoding="utf-8"?>
<!-- Generator: Adobe Illustrator 16.0.0, SVG Export Plug-In . SVG Version: 6.00 Build 0)  -->
<!DOCTYPE svg PUBLIC "-//W3C//DTD SVG 1.1//EN" "http://www.w3.org/Graphics/SVG/1.1/DTD/svg11.dtd">
<svg version="1.1" id="Layer_1" xmlns="http://www.w3.org/2000/svg" xmlns:xlink="http://www.w3.org/1999/xlink" x="0px" y="0px"
	 width="52.871px" height="52.872px" viewBox="0 0 52.871 52.872" enable-background="new 0 0 52.871 52.872" xml:space="preserve">
<g>
	<path fill-rule="evenodd" clip-rule="evenodd" fill="#00C9ED" d="M31.516,16.898c0.25,0.345,0.521,0.678,0.748,1.037
		c2.212,3.494,2.364,7.083,0.469,10.756c-0.432,0.836-1.003,1.578-1.667,2.245c-1.022,1.027-2.519,1.108-3.606,0.154
		c-0.993-0.87-1.15-2.345-0.371-3.407c0.324-0.443,0.72-0.839,1.009-1.302c1.257-2.018,0.948-4.638-0.729-6.321
		c-2.438-2.445-4.879-4.886-7.323-7.323c-1.924-1.919-4.96-2.029-7.035-0.263c-2.018,1.72-2.375,4.757-0.809,6.936
		c0.169,0.237,0.367,0.457,0.573,0.664c1.189,1.197,2.387,2.386,3.576,3.582c0.882,0.888,1.036,2.151,0.4,3.218
		c-0.759,1.273-2.527,1.616-3.706,0.715c-0.171-0.13-0.334-0.271-0.485-0.422c-1.135-1.13-2.274-2.256-3.397-3.397
		c-2.079-2.109-3.142-4.646-3.09-7.615c0.037-2.126,0.695-4.064,1.942-5.792c0.215-0.298,0.445-0.587,0.667-0.879
		C8.95,9.215,9.218,8.946,9.485,8.679c0.057-0.036,0.117-0.07,0.172-0.109c0.575-0.402,1.113-0.874,1.729-1.196
		c3.683-1.925,7.292-1.76,10.796,0.48c0.388,0.249,0.742,0.549,1.111,0.825C26.035,11.418,28.775,14.159,31.516,16.898z"/>
	<path fill-rule="evenodd" clip-rule="evenodd" fill="#00C9ED" d="M44.192,29.576c0.276,0.37,0.577,0.724,0.825,1.112
		c2.238,3.493,2.457,7.128,0.49,10.771c-2.82,5.224-9.414,6.908-14.483,3.773c-0.674-0.416-1.306-0.931-1.87-1.486
		c-2.475-2.434-4.917-4.897-7.37-7.353c-3.262-3.267-3.897-8.608-1.458-12.528c0.428-0.688,0.938-1.337,1.493-1.929
		c0.99-1.054,2.517-1.112,3.598-0.157c0.979,0.863,1.15,2.314,0.381,3.389c-0.324,0.453-0.73,0.853-1.024,1.323
		c-1.25,2.006-0.946,4.63,0.718,6.302c2.449,2.458,4.902,4.912,7.361,7.36c1.902,1.895,4.914,1.996,6.997,0.251
		c1.987-1.667,2.386-4.657,0.9-6.824c-0.189-0.275-0.405-0.536-0.641-0.773c-1.168-1.183-2.347-2.353-3.521-3.528
		c-0.94-0.941-1.118-2.176-0.472-3.27c0.756-1.281,2.503-1.63,3.702-0.742c0.041,0.031,0.09,0.048,0.136,0.071
		C41.367,26.75,42.779,28.163,44.192,29.576z"/>
</g>
</svg>
