<?xml version="1.0" encoding="utf-8"?>
<!-- Generator: Adobe Illustrator 16.0.0, SVG Export Plug-In . SVG Version: 6.00 Build 0)  -->
<!DOCTYPE svg PUBLIC "-//W3C//DTD SVG 1.1//EN" "http://www.w3.org/Graphics/SVG/1.1/DTD/svg11.dtd">
<svg version="1.1" id="Layer_1" xmlns="http://www.w3.org/2000/svg" xmlns:xlink="http://www.w3.org/1999/xlink" x="0px" y="0px"
	 width="199.352px" height="191.91px" viewBox="0 0 199.352 191.91" enable-background="new 0 0 199.352 191.91"
	 xml:space="preserve">
<path fill="#00C9ED" d="M65.01-68.545"/>
<circle fill="#2CC3E7" cx="66.968" cy="47.249" r="27.25"/>
<circle fill="#2CC3E7" cx="136.617" cy="47.249" r="27.25"/>
<path fill="#2CC3E7" d="M65.295,91.534c35.537,0,65.972,12.312,67.05,14.678c1.074,2.362,1.074,6.077,1.074,6.077v39.166H66.968
	H0.517v-39.166c0,0,0-3.714,1.076-6.077S29.758,91.534,65.295,91.534z"/>
<path fill="#2CC3E7" d="M197.759,108.275c-1.074-2.364-31.512-14.676-67.048-14.676c-2.843,0-5.623,0.086-8.349,0.233
	c8.917,2.833,14.496,5.555,14.946,6.54c1.076,2.366,1.076,6.081,1.076,6.081v45.002h60.45v-37.103
	C198.835,114.352,198.835,110.638,197.759,108.275z"/>
</svg>
