<?xml version="1.0" encoding="utf-8"?>
<!-- Generator: Adobe Illustrator 16.0.0, SVG Export Plug-In . SVG Version: 6.00 Build 0)  -->
<!DOCTYPE svg PUBLIC "-//W3C//DTD SVG 1.1//EN" "http://www.w3.org/Graphics/SVG/1.1/DTD/svg11.dtd">
<svg version="1.1" id="Layer_1" xmlns="http://www.w3.org/2000/svg" xmlns:xlink="http://www.w3.org/1999/xlink" x="0px" y="0px"
	 width="265px" height="231.954px" viewBox="0 0 265 231.954" enable-background="new 0 0 265 231.954" xml:space="preserve">
<circle fill="#2CC3E7" cx="132.483" cy="71.887" r="31.224"/>
<path fill="#2CC3E7" d="M130.566,122.633c40.72,0,75.595,14.108,76.829,16.817c1.233,2.705,1.233,6.963,1.233,6.963v44.878h-76.145
	H56.34v-44.878c0,0,0-4.256,1.233-6.963C58.805,136.742,89.846,122.633,130.566,122.633z"/>
<circle fill="#2CC3E7" cx="53.421" cy="94.863" r="22.246"/>
<path fill="#2CC3E7" d="M2.63,147.959v43.332h49.348v-49.783c0,0,0-3.033,0.88-4.962c0.366-0.805,4.921-3.026,12.2-5.34
	c-2.224-0.119-4.495-0.188-6.816-0.188c-29.009,0-53.856,10.049-54.734,11.979C2.63,144.926,2.63,147.958,2.63,147.959z"/>
<circle fill="#2CC3E7" cx="211.58" cy="94.863" r="22.245"/>
<path fill="#2CC3E7" d="M261.492,142.998c-0.877-1.931-25.725-11.979-54.732-11.979c-2.323,0-4.594,0.069-6.817,0.188
	c7.278,2.313,11.835,4.535,12.201,5.34c0.88,1.929,0.88,4.962,0.88,4.962v49.783h49.346v-43.332
	C262.369,147.958,262.369,144.926,261.492,142.998z"/>
</svg>
