<?xml version="1.0" encoding="utf-8"?>
<!-- Generator: Adobe Illustrator 16.0.0, SVG Export Plug-In . SVG Version: 6.00 Build 0)  -->
<!DOCTYPE svg PUBLIC "-//W3C//DTD SVG 1.1//EN" "http://www.w3.org/Graphics/SVG/1.1/DTD/svg11.dtd">
<svg version="1.1" id="Layer_1" xmlns="http://www.w3.org/2000/svg" xmlns:xlink="http://www.w3.org/1999/xlink" x="0px" y="0px"
	 width="52.871px" height="52.872px" viewBox="0 0 52.871 52.872" enable-background="new 0 0 52.871 52.872" xml:space="preserve">
<path fill="#00C9ED" d="M38.069,38.357c-1.054,1.242-3.276,0.144-3.276,0.144s-0.542,2.206-1.391,2.699
	c-1.419,0.828-3.141-0.729-3.141-0.729s-0.2,2.14-1.341,2.433c-1.555,0.398-3.188-0.98-3.188-0.98S25.624,43.568,24,44.207
	c0,0-1.116,0.638-3.342-1.596c-2.23-2.234-8.729-8.506-9.753-9.092c0,0-0.236-0.689-0.232-1.197
	c0.007-0.897-0.001-12.995-0.001-12.995s-0.308-0.92,0.993-1.983c1.298-1.064,9.598-6.097,9.598-6.097s0.404-0.151,0.906,0.417
	c-3.548,2.806-6.615,6.226-6.976,6.575c-0.443,0.421-0.815,1.892-0.68,2.458c0.109,0.447,0.469,0.921,1.131,1.516
	c0.665,0.596,2.138,0.754,3.686,0.417c1.548-0.339,1.654-0.777,2.689-1.455c1.032-0.674,2.52-1.569,3.773-1.569
	c1.06,0,2.165,0.909,3.066,2.005c4.912,5.958,9.258,13.009,9.632,14.266C38.666,36.48,38.689,37.62,38.069,38.357z"/>
<path fill="#00C9ED" d="M40.77,34.505c-1.609,0.168-2.091-1.062-2.896-2.126c-0.805-1.062-7.591-11.088-8.585-12.004
	c-0.888-0.815-2.311-2.101-3.014-2.126c-1.053-0.037-3.815,1.545-4.682,2.113c-0.868,0.566-1.389,1.037-1.762,1.191
	c-1.182,0.491-2.718,0.242-3.275-0.26c-0.558-0.5-0.738-0.78-0.829-1.156c-0.117-0.476-0.099-1.188,0.271-1.542
	c0.372-0.357,6.678-6.235,9.249-8.204c2.522-1.933,8.858,3.339,9.967,3.874c1.47,0.708,2.645,2.423,5.435,2.919
	c0,0,1.493,0.145,1.493,1.846c0,1.703,0.012,14.559,0.012,14.559S42.057,34.377,40.77,34.505z"/>
<path fill="#00C9ED" d="M9.045,14.088H3.112c-0.351,0-0.635,0.436-0.635,0.975v21.321c0,0.537,0.284,0.974,0.635,0.974h5.933
	c0.35,0,0.635-0.437,0.635-0.974V15.063C9.68,14.523,9.396,14.088,9.045,14.088z M5.958,34.967c-0.596,0-1.079-0.483-1.079-1.079
	c0-0.597,0.483-1.079,1.079-1.079s1.079,0.482,1.079,1.079C7.037,34.484,6.554,34.967,5.958,34.967z"/>
<path fill="#00C9ED" d="M49.76,14.088h-5.936c-0.35,0-0.635,0.436-0.635,0.975v21.321c0,0.537,0.285,0.974,0.635,0.974h5.936
	c0.349,0,0.635-0.437,0.635-0.974V15.063C50.395,14.523,50.108,14.088,49.76,14.088z M46.791,34.967
	c-0.596,0-1.079-0.483-1.079-1.079c0-0.597,0.483-1.079,1.079-1.079c0.597,0,1.079,0.482,1.079,1.079
	C47.87,34.484,47.388,34.967,46.791,34.967z"/>
</svg>
