<?xml version="1.0" encoding="utf-8"?>
<!-- Generator: Adobe Illustrator 16.0.0, SVG Export Plug-In . SVG Version: 6.00 Build 0)  -->
<!DOCTYPE svg PUBLIC "-//W3C//DTD SVG 1.1//EN" "http://www.w3.org/Graphics/SVG/1.1/DTD/svg11.dtd">
<svg version="1.1" id="Layer_1" xmlns="http://www.w3.org/2000/svg" xmlns:xlink="http://www.w3.org/1999/xlink" x="0px" y="0px"
	 width="52.871px" height="52.872px" viewBox="0 0 52.871 52.872" enable-background="new 0 0 52.871 52.872" xml:space="preserve">
<path fill="#FFFFFF" d="M67.875,60.235"/>
<g>
	<circle fill="#00C9ED" cx="9.246" cy="32.854" r="0.914"/>
	<circle fill="#00C9ED" cx="43.752" cy="32.854" r="0.914"/>
	<path fill="#00C9ED" d="M52.034,0H0.837C0.375,0,0,0.375,0,0.837v51.199c0,0.461,0.375,0.836,0.837,0.836h51.197
		c0.462,0,0.837-0.375,0.837-0.836V0.837C52.871,0.375,52.496,0,52.034,0z M12.285,34.642c0,0.455-0.242,0.826-0.538,0.826H6.721
		c-0.297,0-0.538-0.371-0.538-0.826V16.583c0-0.457,0.241-0.827,0.538-0.827h5.026c0.297,0,0.538,0.37,0.538,0.827V34.642z
		 M36.332,36.313c-0.892,1.053-2.775,0.122-2.775,0.122s-0.459,1.868-1.178,2.286c-1.202,0.701-2.66-0.617-2.66-0.617
		s-0.17,1.812-1.136,2.06c-1.317,0.338-2.701-0.83-2.701-0.83s-0.092,1.393-1.468,1.934c0,0-0.945,0.54-2.831-1.352
		c-1.889-1.892-7.394-7.204-8.261-7.701c0,0-0.2-0.583-0.197-1.014c0.006-0.76-0.001-11.007-0.001-11.007s-0.26-0.78,0.841-1.68
		c1.1-0.901,8.13-5.164,8.13-5.164s0.342-0.128,0.768,0.354c-3.006,2.377-5.603,5.273-5.909,5.569
		c-0.375,0.357-0.691,1.603-0.576,2.082c0.092,0.379,0.397,0.78,0.958,1.284c0.563,0.505,1.811,0.639,3.122,0.353
		s1.401-0.658,2.278-1.231c0.874-0.572,2.134-1.33,3.196-1.33c0.898,0,1.834,0.771,2.598,1.699
		c4.159,5.047,7.841,11.019,8.157,12.084C36.837,34.723,36.858,35.689,36.332,36.313z M38.619,33.052
		c-1.363,0.141-1.771-0.9-2.453-1.801c-0.681-0.901-6.429-9.393-7.272-10.169c-0.751-0.69-1.957-1.779-2.552-1.8
		c-0.892-0.032-3.232,1.308-3.966,1.79c-0.735,0.48-1.177,0.878-1.492,1.009c-1.001,0.415-2.303,0.205-2.774-0.22
		c-0.473-0.424-0.625-0.661-0.703-0.98c-0.099-0.403-0.084-1.006,0.23-1.307c0.315-0.302,5.657-5.28,7.834-6.949
		c2.136-1.636,7.503,2.829,8.443,3.281c1.245,0.601,2.241,2.054,4.604,2.474c0,0,1.264,0.123,1.264,1.563
		c0,1.442,0.01,12.332,0.01,12.332S39.709,32.943,38.619,33.052z M46.772,34.642c0,0.455-0.242,0.826-0.538,0.826h-5.028
		c-0.296,0-0.537-0.371-0.537-0.826V16.583c0-0.457,0.241-0.827,0.537-0.827h5.028c0.296,0,0.538,0.37,0.538,0.827V34.642z"/>
</g>
</svg>
