<?xml version="1.0" encoding="utf-8"?>
<!-- Generator: Adobe Illustrator 16.0.0, SVG Export Plug-In . SVG Version: 6.00 Build 0)  -->
<!DOCTYPE svg PUBLIC "-//W3C//DTD SVG 1.1//EN" "http://www.w3.org/Graphics/SVG/1.1/DTD/svg11.dtd">
<svg version="1.1" id="Layer_1" xmlns="http://www.w3.org/2000/svg" xmlns:xlink="http://www.w3.org/1999/xlink" x="0px" y="0px"
	 width="265px" height="231.954px" viewBox="0 0 265 231.954" enable-background="new 0 0 265 231.954" xml:space="preserve">
<path fill="#2CC3E7" d="M220.942,161.454c20.961-16.868,34.226-41.677,34.226-69.361c0-50.815-44.627-92.009-99.676-92.009
	c-55.05,0-99.676,41.194-99.676,92.009s44.626,92.009,99.676,92.009c13.49,0,26.349-2.487,38.084-6.971l32.595,14.777
	L220.942,161.454z"/>
<path fill="#2CC3E7" d="M143.595,194.324c-55.05,0-99.676-41.193-99.676-92.009c0-10.208,1.805-20.027,5.129-29.203
	C23.263,87.394,6,113.444,6,143.224c0,24.586,11.78,46.62,30.396,61.6l-4.644,27.047L60.7,218.746
	c10.423,3.982,21.842,6.19,33.823,6.19c29.056,0,54.84-12.922,70.98-32.878C158.451,193.523,151.126,194.324,143.595,194.324z"/>
</svg>
