<?xml version="1.0" encoding="utf-8"?>
<!-- Generator: Adobe Illustrator 16.0.0, SVG Export Plug-In . SVG Version: 6.00 Build 0)  -->
<!DOCTYPE svg PUBLIC "-//W3C//DTD SVG 1.1//EN" "http://www.w3.org/Graphics/SVG/1.1/DTD/svg11.dtd">
<svg version="1.1" id="Layer_1" xmlns="http://www.w3.org/2000/svg" xmlns:xlink="http://www.w3.org/1999/xlink" x="0px" y="0px"
	 width="38.201px" height="51px" viewBox="0 0 38.201 51" enable-background="new 0 0 38.201 51" xml:space="preserve">
<g>
	<g>
		<g>
			<path fill="#76B3CE" d="M24.998,9.111c-2.953-2.315-5.93-4.71-8.942-7.213C13.77,4.19,11.468,6.594,9.157,9.081
				C14.433,9.055,19.712,9.065,24.998,9.111z"/>
			<path fill="#76B3CE" d="M36.726,19.129c-0.084-0.778-0.479-1.459-1.021-1.905c0.004-0.005,0.009-0.01,0.017-0.015
				c-1.953-1.413-3.926-2.884-5.9-4.383c0.41,3.317,0.791,6.625,1.104,9.911l-11.46,7.828L6.349,24.301
				c-0.327-3.613-0.726-7.248-1.152-10.892c-1.55,1.726-3.105,3.479-4.672,5.29c0.014,0.014,0.024,0.028,0.041,0.042
				c-0.414,0.577-0.636,1.411-0.545,2.335C0.76,28.635,1.286,36.128,1.6,43.547c0.065,1.633,1.074,2.766,2.265,2.545
				c6.917-1.31,13.834-2.557,20.753-3.74c2.111,1.729,4.206,3.395,6.283,4.979c-0.006-1.979-0.031-3.961-0.074-5.948
				c1.777-0.285,3.554-0.568,5.332-0.854c1.189-0.188,2.105-1.432,2.037-2.774C37.882,31.609,37.394,25.397,36.726,19.129z
				 M4.363,40.33c-0.28-5.604-0.681-11.248-1.206-16.932c3.545,2.311,7.062,4.508,10.552,6.59
				c-3.008,3.585-6.053,7.326-9.143,11.222C4.451,40.951,4.38,40.652,4.363,40.33z M33.75,37.962
				c-1.59,0.229-3.181,0.461-4.771,0.696c0.068,1.424,0.135,2.844,0.188,4.261c-1.291-1.205-2.59-2.438-3.896-3.698
				c-6.324,0.953-12.646,1.967-18.973,3.021c-0.419,0.068-0.811-0.032-1.131-0.271c3.185-3.988,6.318-7.82,9.415-11.49
				c1.694,1.02,3.382,1.998,5.063,2.955c1.537-1.354,3.064-2.678,4.596-3.965c3.582,2.812,7.117,5.446,10.613,7.928
				C34.56,37.695,34.174,37.904,33.75,37.962z M35.37,36.582c-3.406-2.43-6.85-5.008-10.34-7.744
				c3.119-2.613,6.223-5.104,9.311-7.465c0.484,4.848,0.862,9.662,1.139,14.438C35.491,36.079,35.454,36.335,35.37,36.582z"/>
			<path fill="#76B3CE" d="M26.117,15.202c0.01,0.087-0.357,0.168-0.82,0.18c-5.028,0.125-10.062,0.283-15.088,0.472
				c-0.462,0.017-0.847-0.047-0.854-0.143c-0.118-1.05-0.24-2.101-0.367-3.153c-0.012-0.097,0.354-0.183,0.814-0.193
				c5.032-0.104,10.067-0.175,15.106-0.215c0.464-0.003,0.849,0.066,0.858,0.155C25.888,13.271,26.005,14.237,26.117,15.202z"/>
		</g>
		<path fill="#76B3CE" d="M19.931,23.798c0.021,0.215-0.18,0.407-0.44,0.43c-2.869,0.234-5.738,0.479-8.605,0.736
			c-0.264,0.021-0.492-0.144-0.516-0.367c-0.238-2.466-0.5-4.94-0.787-7.422c-0.024-0.23,0.165-0.425,0.433-0.437
			c2.87-0.142,5.745-0.271,8.62-0.39c0.268-0.011,0.504,0.158,0.527,0.374C19.44,19.088,19.696,21.447,19.931,23.798z"/>
		<path fill="#76B3CE" d="M27.081,23.283c0.021,0.207-0.096,0.387-0.257,0.4c-1.771,0.132-3.542,0.269-5.312,0.41
			c-0.164,0.011-0.312-0.152-0.334-0.364c-0.232-2.336-0.488-4.68-0.771-7.032c-0.026-0.217,0.085-0.398,0.249-0.404
			c1.773-0.07,3.548-0.135,5.322-0.197c0.164-0.006,0.313,0.161,0.34,0.368C26.599,18.746,26.851,21.019,27.081,23.283z"/>
	</g>
</g>
<g>
	<g>
		<g>
			<g>
				<path fill="#EDEDEE" d="M4.568,41.208c-0.115-0.259-0.188-0.558-0.203-0.88c-0.28-5.604-0.681-11.248-1.206-16.932
					c3.545,2.311,7.062,4.508,10.552,6.59C10.702,33.57,7.657,37.312,4.568,41.208z"/>
				<path fill="#EDEDEE" d="M14.584,30.479c1.694,1.016,3.382,1.998,5.063,2.955c1.537-1.354,3.065-2.681,4.596-3.966
					c3.582,2.81,7.117,5.444,10.613,7.929c-0.297,0.297-0.684,0.506-1.105,0.562c-1.59,0.229-3.18,0.461-4.77,0.696
					c0.068,1.424,0.134,2.844,0.187,4.261c-1.291-1.205-2.59-2.438-3.896-3.696C18.947,40.17,12.623,41.186,6.3,42.24
					c-0.419,0.068-0.811-0.032-1.131-0.271C8.353,37.98,11.488,34.148,14.584,30.479z"/>
				<path fill="#EDEDEE" d="M25.031,28.836c3.12-2.613,6.223-5.104,9.311-7.465c0.484,4.848,0.862,9.662,1.138,14.438
					c0.016,0.271-0.022,0.524-0.106,0.771C31.964,34.15,28.522,31.572,25.031,28.836z"/>
			</g>
		</g>
	</g>
</g>
<g>
	<g>
		<g>
			<g>
				<g>
					<g>
						<path fill="#EDEDEE" d="M29.788,20.562c-1.575-0.11-3.15-0.223-4.729-0.336c-1.316-0.688-3.016,1.037-6.252,1.244
							c-3.279,0.195-5.593,1.379-6.732,2.336c-1.407,0.098-2.816,0.195-4.225,0.297c0.054,0.59,0.104,1.182,0.157,1.771
							c3.849,1.655,7.677,3.219,11.488,4.688c3.443-2.146,6.879-4.188,10.309-6.125C29.806,23.145,29.802,21.854,29.788,20.562z"/>
					</g>
					<g>
						<g>
							<path fill="#EDEDEE" d="M30.956,22.737c-0.432-4.503-0.951-9.037-1.562-13.597c-8.236-0.101-16.46-0.117-24.677-0.047
								C5.371,14.191,5.926,19.262,6.382,24.3"/>
							<g>
								<path fill="#EDEDEE" d="M31.399,23.688c-0.609,0.304-1.219,0.608-1.828,0.918c-0.436-4.756-0.969-9.547-1.604-14.366
									c-7.181-0.036-14.354-0.007-21.521,0.087c0.66,5.235,1.213,10.443,1.664,15.614c-0.634-0.327-1.27-0.657-1.903-0.99
									C5.702,19.438,5.081,13.885,4.34,8.297c8.45-0.03,16.912,0.03,25.384,0.178C30.394,13.579,30.952,18.65,31.399,23.688z"/>
							</g>
						</g>
						<path fill="#76B3CE" d="M26.149,15.2c0.011,0.087-0.355,0.168-0.819,0.18c-5.031,0.125-10.062,0.283-15.088,0.472
							c-0.462,0.018-0.847-0.047-0.855-0.143c-0.118-1.05-0.24-2.102-0.367-3.152c-0.013-0.098,0.354-0.184,0.816-0.193
							c5.031-0.104,10.065-0.176,15.104-0.215c0.465-0.004,0.85,0.065,0.858,0.154C25.921,13.27,26.037,14.234,26.149,15.2z"/>
					</g>
				</g>
			</g>
		</g>
		<path fill="#76B3CE" d="M19.963,23.796c0.021,0.216-0.177,0.407-0.439,0.431c-2.869,0.233-5.738,0.479-8.604,0.735
			c-0.265,0.021-0.495-0.144-0.517-0.366c-0.238-2.467-0.5-4.94-0.787-7.423c-0.026-0.229,0.165-0.425,0.431-0.437
			c2.873-0.143,5.748-0.271,8.623-0.391c0.266-0.011,0.501,0.158,0.526,0.375C19.473,19.086,19.729,21.445,19.963,23.796z"/>
		<path fill="#76B3CE" d="M27.114,23.281c0.021,0.207-0.096,0.387-0.258,0.4c-1.771,0.131-3.541,0.269-5.312,0.409
			c-0.163,0.011-0.312-0.151-0.333-0.364c-0.232-2.336-0.488-4.68-0.77-7.031c-0.024-0.217,0.086-0.398,0.25-0.404
			c1.772-0.07,3.548-0.135,5.322-0.197c0.164-0.006,0.314,0.161,0.34,0.368C26.632,18.744,26.884,21.018,27.114,23.281z"/>
	</g>
</g>
</svg>
