<?xml version="1.0" encoding="utf-8"?>
<!-- Generator: Adobe Illustrator 16.0.0, SVG Export Plug-In . SVG Version: 6.00 Build 0)  -->
<!DOCTYPE svg PUBLIC "-//W3C//DTD SVG 1.1//EN" "http://www.w3.org/Graphics/SVG/1.1/DTD/svg11.dtd">
<svg version="1.1" id="Layer_1" xmlns="http://www.w3.org/2000/svg" xmlns:xlink="http://www.w3.org/1999/xlink" x="0px" y="0px"
	 width="290px" height="51px" viewBox="0 0 290 51" enable-background="new 0 0 290 51" xml:space="preserve">
<text transform="matrix(0.9109 0 0 1 56.8062 40.4102)"><tspan x="0" y="0" fill="#4292B7" font-family="'Montserrat-Regular'" font-size="29.3825">Subscriber</tspan><tspan x="158.312" y="0" fill="#636464" font-family="'Montserrat-Bold'" font-size="31.8209">Voice</tspan></text>
<g>
	<g>
		<g>
			<g>
				<path fill="#4292B7" d="M10.194,20.782c0.789,8.064,1.349,16.059,1.684,23.974c0.074,1.74,1.149,2.949,2.417,2.715
					c7.68-1.44,15.36-2.811,23.042-4.109c1.884,1.879,3.749,3.695,5.596,5.451c-0.051-2.096-0.121-4.198-0.209-6.308
					c2.008-0.328,4.016-0.652,6.024-0.972c1.268-0.201,2.247-1.526,2.173-2.963c-0.335-6.558-0.856-13.184-1.57-19.872
					c-0.156-1.464-1.328-2.633-2.603-2.604c-11.539,0.294-23.064,0.746-34.578,1.354C10.9,17.513,10.021,19.009,10.194,20.782z"/>
				<path fill="#FFFFFF" d="M15.046,42.262c-0.123-0.276-0.198-0.596-0.216-0.938c-0.298-5.979-0.727-12.001-1.287-18.065
					c3.783,2.465,7.534,4.809,11.257,7.03C21.592,34.113,18.342,38.105,15.046,42.262z"/>
				<path fill="#FFFFFF" d="M25.732,30.812c1.807,1.08,3.608,2.131,5.402,3.153c1.64-1.441,3.273-2.852,4.903-4.229
					c3.821,2.995,7.594,5.814,11.322,8.458c-0.317,0.317-0.727,0.539-1.18,0.604c-1.697,0.245-3.393,0.493-5.089,0.745
					c0.076,1.519,0.144,3.033,0.201,4.545c-1.377-1.285-2.764-2.602-4.16-3.95c-6.747,1.022-13.493,2.098-20.238,3.227
					c-0.447,0.075-0.865-0.035-1.208-0.286C19.082,38.816,22.428,34.727,25.732,30.812z"/>
				<path fill="#FFFFFF" d="M36.877,29.06c3.329-2.79,6.638-5.445,9.933-7.964c0.517,5.172,0.92,10.308,1.212,15.404
					c0.016,0.283-0.025,0.561-0.114,0.818C44.275,34.731,40.6,31.979,36.877,29.06z"/>
				<path fill="#4292B7" d="M46.322,19.044c-5.848,0.48-11.692,1.023-17.532,1.629c-5.192,0.045-10.384,0.103-15.575,0.172
					c-0.824-0.858-1.651-1.725-2.482-2.602C16.346,11.756,21.857,5.778,27.3,0.318c7.155,5.94,14.139,11.385,20.981,16.336
					C47.63,17.442,46.977,18.239,46.322,19.044z"/>
				<g>
					<g>
						<path fill="#FFFFFF" d="M41.92,20.2c-1.681-0.118-3.363-0.238-5.044-0.36c-1.406-0.735-3.217,1.107-6.671,1.326
							c-3.499,0.208-5.966,1.47-7.183,2.493c-1.502,0.102-3.005,0.207-4.507,0.313c0.058,0.631,0.114,1.262,0.168,1.892
							c4.105,1.767,8.19,3.434,12.258,5.002c3.674-2.294,7.338-4.472,10.995-6.532C41.938,22.956,41.933,21.578,41.92,20.2z"/>
					</g>
					<g>
						<g>
							<path fill="#FFFFFF" d="M43.167,22.554c-0.46-4.805-1.016-9.641-1.67-14.506c-8.785-0.107-17.56-0.124-26.326-0.049
								c0.698,5.439,1.29,10.848,1.776,16.224"/>
							<g>
								<path fill="#636464" d="M43.638,23.569c-0.65,0.322-1.3,0.648-1.951,0.977c-0.443-4.917-0.985-9.867-1.628-14.847
									c-7.525,0.036-15.043,0.145-22.554,0.327c0.684,5.398,1.26,10.764,1.732,16.095c-0.825-0.397-1.65-0.799-2.477-1.206
									c-0.538-5.882-1.201-11.806-1.993-17.767c9.016-0.032,18.042,0.032,27.078,0.19C42.565,12.784,43.162,18.195,43.638,23.569z
									"/>
							</g>
						</g>
						<g>
							<path fill="#7EBFD4" d="M38.038,14.512c0.011,0.094-0.38,0.181-0.875,0.194c-5.369,0.134-10.734,0.301-16.097,0.503
								c-0.494,0.018-0.903-0.051-0.914-0.153c-0.126-1.12-0.257-2.24-0.393-3.363c-0.012-0.104,0.378-0.196,0.873-0.205
								c5.369-0.111,10.741-0.188,16.116-0.23c0.495-0.003,0.905,0.07,0.917,0.165C37.793,12.454,37.917,13.483,38.038,14.512z"/>
						</g>
					</g>
				</g>
			</g>
		</g>
		<g>
			<path fill="#7EBFD4" d="M31.442,23.735c0.019,0.207-0.191,0.393-0.474,0.416c-3.061,0.252-6.121,0.517-9.18,0.793
				c-0.283,0.024-0.527-0.132-0.548-0.344c-0.229-2.36-0.48-4.728-0.751-7.103c-0.026-0.221,0.183-0.409,0.466-0.423
				c3.064-0.166,6.129-0.32,9.195-0.462c0.283-0.014,0.532,0.146,0.557,0.352C30.971,19.228,31.216,21.485,31.442,23.735z"/>
		</g>
		<g>
			<path fill="#7EBFD4" d="M39.069,23.176c0.02,0.198-0.099,0.371-0.264,0.385c-1.804,0.136-3.608,0.276-5.411,0.42
				c-0.166,0.013-0.317-0.143-0.338-0.346c-0.224-2.233-0.467-4.473-0.73-6.719c-0.023-0.207,0.09-0.381,0.257-0.388
				c1.807-0.079,3.614-0.154,5.422-0.225c0.165-0.007,0.32,0.151,0.343,0.351C38.607,18.834,38.848,21.009,39.069,23.176z"/>
		</g>
	</g>
</g>
</svg>
