<?xml version="1.0" encoding="utf-8"?>
<!-- Generator: Adobe Illustrator 16.0.0, SVG Export Plug-In . SVG Version: 6.00 Build 0)  -->
<!DOCTYPE svg PUBLIC "-//W3C//DTD SVG 1.1//EN" "http://www.w3.org/Graphics/SVG/1.1/DTD/svg11.dtd">
<svg version="1.1" id="Layer_1" xmlns="http://www.w3.org/2000/svg" xmlns:xlink="http://www.w3.org/1999/xlink" x="0px" y="0px"
	 width="253.48px" height="51px" viewBox="0 0 253.48 51" enable-background="new 0 0 253.48 51" xml:space="preserve">
<g>
	<path fill="#76B3CE" d="M51.447,22.757c-0.861,0-1.568,0.192-2.12,0.578c-0.552,0.386-0.828,0.969-0.828,1.749
		c0,0.78,0.276,1.376,0.828,1.791c0.552,0.412,1.729,0.857,3.525,1.336c1.797,0.477,3.15,1.146,4.062,2.01
		c0.911,0.863,1.367,2.135,1.367,3.814c0,1.679-0.577,3.043-1.731,4.09c-1.152,1.047-2.668,1.57-4.539,1.57
		c-2.743,0-5.178-1.037-7.302-3.112l1.856-2.451c1.771,1.688,3.613,2.534,5.52,2.534c0.953,0,1.709-0.225,2.271-0.676
		c0.56-0.449,0.84-1.047,0.84-1.789c0-0.744-0.263-1.322-0.79-1.736c-0.527-0.412-1.434-0.789-2.722-1.129s-2.268-0.65-2.937-0.936
		c-0.669-0.286-1.263-0.656-1.779-1.116c-1.037-0.862-1.557-2.185-1.557-3.966c0-1.781,0.589-3.153,1.771-4.117
		c1.18-0.964,2.638-1.446,4.378-1.446c1.12,0,2.23,0.203,3.336,0.606c1.104,0.404,2.057,0.974,2.858,1.708l-1.581,2.451
		c-0.519-0.514-1.221-0.936-2.105-1.267S52.31,22.757,51.447,22.757z"/>
	<path fill="#76B3CE" d="M70.728,32.754v-7.931h2.81v14.651h-2.81V36.8c-0.452,0.9-1.075,1.607-1.869,2.121
		c-0.794,0.517-1.652,0.771-2.571,0.771c-1.505,0-2.722-0.506-3.648-1.517c-0.93-1.011-1.395-2.47-1.395-4.38V24.82h2.812v8.042
		c0,2.699,1.02,4.055,3.061,4.055c0.97,0,1.814-0.354,2.534-1.062C70.37,35.143,70.728,34.113,70.728,32.754z"/>
	<path fill="#76B3CE" d="M84.751,24.603c1.789,0,3.319,0.679,4.591,2.038c1.271,1.359,1.907,3.168,1.907,5.426
		c0,2.266-0.632,4.102-1.894,5.516c-1.265,1.414-2.735,2.113-4.416,2.113c-1.683,0-3.19-0.809-4.528-2.424v2.203h-2.81V19.039h2.81
		v8.345C81.514,25.53,82.961,24.603,84.751,24.603z M80.36,32.176c0,1.396,0.385,2.539,1.154,3.43
		c0.769,0.896,1.706,1.336,2.81,1.336c1.104,0,2.065-0.438,2.885-1.314c0.819-0.882,1.229-2.021,1.229-3.438
		c0-1.396-0.401-2.562-1.204-3.496c-0.803-0.928-1.767-1.393-2.885-1.393c-1.121,0-2.066,0.465-2.835,1.393
		C80.746,29.619,80.36,30.781,80.36,32.176z"/>
	<path fill="#76B3CE" d="M103.967,35.096c0,1.396-0.46,2.512-1.38,3.346c-0.92,0.836-2.099,1.254-3.537,1.254
		c-0.97,0-1.978-0.188-3.021-0.57c-1.045-0.395-1.969-0.936-2.772-1.625l1.355-2.396c1.555,1.281,3.061,1.929,4.516,1.929
		c0.637,0,1.139-0.157,1.505-0.479c0.368-0.316,0.554-0.729,0.554-1.227c0-0.732-0.889-1.396-2.659-1.98
		c-0.134-0.058-0.234-0.093-0.301-0.107c-2.776-0.824-4.164-2.202-4.164-4.131c0-1.356,0.479-2.446,1.44-3.268
		c0.961-0.817,2.211-1.226,3.75-1.226s2.994,0.496,4.365,1.489l-1.054,2.282c-1.087-0.788-2.269-1.188-3.537-1.188
		c-0.669,0-1.213,0.137-1.631,0.396c-0.418,0.271-0.627,0.665-0.627,1.198c0,0.479,0.217,0.826,0.65,1.046
		c0.303,0.165,0.726,0.321,1.269,0.471c0.543,0.146,1.022,0.295,1.44,0.438s0.824,0.312,1.219,0.496
		c0.393,0.184,0.813,0.438,1.267,0.771C103.517,32.672,103.967,33.7,103.967,35.096z"/>
	<path fill="#76B3CE" d="M113.074,39.695c-1.856,0-3.454-0.693-4.792-2.08s-2.007-3.199-2.007-5.439
		c0-2.238,0.698-4.062,2.095-5.467c1.396-1.404,3.098-2.106,5.105-2.106c2.007,0,3.705,0.762,5.093,2.286l-1.656,2.23
		c-1.154-1.102-2.314-1.652-3.487-1.652c-1.171,0-2.187,0.428-3.048,1.28c-0.86,0.854-1.292,1.956-1.292,3.306
		s0.428,2.492,1.279,3.428c0.853,0.938,1.902,1.405,3.148,1.405c1.244,0,2.421-0.624,3.523-1.872l1.656,1.982
		C117.071,38.795,115.198,39.695,113.074,39.695z"/>
	<path fill="#76B3CE" d="M128.603,27.715c-1.391,0-2.436,0.496-3.138,1.486c-0.701,0.992-1.054,2.324-1.054,3.994v6.279h-2.81
		V24.823h2.81v2.946c0.452-0.918,1.066-1.67,1.844-2.257c0.778-0.587,1.604-0.89,2.473-0.909l0.023,3.112
		C128.704,27.715,128.654,27.715,128.603,27.715z"/>
	<path fill="#76B3CE" d="M131.738,21.903c-0.354-0.386-0.525-0.844-0.525-1.377c0-0.532,0.178-0.992,0.525-1.377
		c0.353-0.386,0.77-0.579,1.256-0.579c0.484,0,0.902,0.193,1.254,0.579c0.354,0.385,0.527,0.845,0.527,1.377
		c0,0.533-0.18,0.991-0.527,1.377c-0.352,0.386-0.77,0.578-1.254,0.578C132.507,22.481,132.09,22.289,131.738,21.903z
		 M134.373,39.475h-2.809V24.823h2.809V39.475z"/>
	<path fill="#76B3CE" d="M145.588,24.603c1.789,0,3.318,0.679,4.592,2.038c1.271,1.359,1.904,3.168,1.904,5.426
		c0,2.266-0.631,4.102-1.893,5.516c-1.271,1.414-2.736,2.113-4.416,2.113c-1.688,0-3.191-0.809-4.529-2.424v2.203h-2.81V19.039h2.81
		v8.345C142.351,25.53,143.796,24.603,145.588,24.603z M141.197,32.176c0,1.396,0.385,2.539,1.154,3.43
		c0.769,0.896,1.698,1.336,2.809,1.336c1.104,0,2.066-0.438,2.885-1.314c0.82-0.882,1.23-2.021,1.23-3.438
		c0-1.396-0.402-2.562-1.205-3.496c-0.803-0.928-1.771-1.393-2.885-1.393c-1.121,0-2.065,0.465-2.834,1.393
		C141.582,29.619,141.197,30.781,141.197,32.176z"/>
	<path fill="#76B3CE" d="M167.713,33.498h-10.461c0.066,1.064,0.512,1.924,1.33,2.575s1.756,0.978,2.812,0.978
		c1.672,0,2.941-0.578,3.812-1.734l1.605,1.936c-1.439,1.634-3.312,2.443-5.619,2.443c-1.873,0-3.467-0.684-4.779-2.053
		c-1.312-1.367-1.969-3.203-1.969-5.508c0-2.304,0.668-4.135,2.006-5.494c1.338-1.354,2.914-2.038,4.729-2.038
		c1.813,0,3.355,0.602,4.627,1.804c1.271,1.202,1.906,2.858,1.906,4.971V33.498L167.713,33.498z M157.252,31.074h7.652
		c0-1.229-0.355-2.176-1.055-2.836c-0.701-0.662-1.566-0.992-2.604-0.992c-1.021,0-1.953,0.345-2.771,1.033
		C157.662,28.967,157.252,29.9,157.252,31.074z"/>
	<path fill="#76B3CE" d="M177.799,27.715c-1.389,0-2.434,0.496-3.137,1.486c-0.701,0.992-1.053,2.324-1.053,3.994v6.279h-2.812
		V24.823h2.812v2.946c0.451-0.918,1.061-1.67,1.844-2.257c0.777-0.587,1.604-0.89,2.471-0.909l0.025,3.112
		C177.9,27.715,177.85,27.715,177.799,27.715z"/>
</g>
<g>
	<path fill="#EDEDEE" d="M188.225,31.898l4.836-13.273h4.592l-7.635,20.85h-3.588l-7.637-20.85h4.594L188.225,31.898z"/>
	<path fill="#EDEDEE" d="M212.865,31.451c0,2.326-0.732,4.285-2.199,5.876s-3.311,2.386-5.527,2.386
		c-2.22,0-4.062-0.795-5.529-2.386s-2.198-3.55-2.198-5.876s0.731-4.29,2.198-5.891c1.468-1.601,3.312-2.401,5.529-2.401
		c2.219,0,4.062,0.801,5.527,2.401S212.865,29.125,212.865,31.451z M201.51,31.451c0,1.312,0.342,2.381,1.021,3.207
		c0.683,0.824,1.554,1.236,2.607,1.236c1.059,0,1.93-0.412,2.605-1.236c0.68-0.826,1.021-1.895,1.021-3.207
		s-0.342-2.387-1.021-3.221c-0.678-0.836-1.549-1.254-2.605-1.254c-1.06,0-1.932,0.418-2.607,1.254
		C201.85,29.064,201.51,30.139,201.51,31.451z"/>
	<path fill="#EDEDEE" d="M216.221,21.385c-0.463-0.507-0.691-1.128-0.691-1.864c0-0.735,0.229-1.357,0.691-1.864
		c0.463-0.507,1.025-0.761,1.697-0.761c0.67,0,1.236,0.254,1.697,0.761c0.461,0.507,0.693,1.129,0.693,1.864
		c0,0.736-0.232,1.357-0.693,1.864c-0.461,0.507-1.027,0.76-1.697,0.76C217.248,22.145,216.684,21.892,216.221,21.385z
		 M219.957,39.475h-4.076V23.428h4.076V39.475z"/>
	<path fill="#EDEDEE" d="M230.824,35.746c1.359,0,2.582-0.746,3.668-2.236l2.418,2.982c-1.885,2.146-3.922,3.221-6.113,3.221
		c-2.189,0-4.043-0.76-5.557-2.281c-1.512-1.521-2.271-3.51-2.271-5.965c0-2.457,0.77-4.455,2.301-5.996
		c1.525-1.541,3.346-2.312,5.441-2.312c1.053,0,2.113,0.239,3.189,0.716c1.078,0.478,2.021,1.184,2.844,2.118l-2.121,3.042
		c-0.475-0.616-1.045-1.094-1.729-1.432c-0.683-0.338-1.354-0.509-2.021-0.509c-1.062,0-1.988,0.384-2.758,1.146
		c-0.771,0.766-1.154,1.829-1.154,3.188c0,1.358,0.391,2.422,1.154,3.178C228.889,35.368,229.791,35.746,230.824,35.746z"/>
	<path fill="#EDEDEE" d="M252.287,37.148c-1.646,1.709-3.582,2.562-5.801,2.562s-4.053-0.75-5.5-2.252
		c-1.449-1.501-2.174-3.517-2.174-6.039s0.729-4.534,2.213-6.025c1.477-1.492,3.221-2.237,5.229-2.237
		c2.016,0,3.721,0.667,5.121,1.999c1.402,1.333,2.105,3.16,2.105,5.486v2.389h-10.65c0.127,0.875,0.545,1.591,1.25,2.146
		c0.707,0.558,1.504,0.837,2.396,0.837c1.43,0,2.604-0.521,3.527-1.582L252.287,37.148z M248.375,27.633
		c-0.561-0.516-1.244-0.775-2.051-0.775s-1.545,0.271-2.215,0.812s-1.062,1.268-1.168,2.18h6.412
		C249.264,28.887,248.938,28.15,248.375,27.633z"/>
</g>
<g>
	<g>
		<g>
			<path fill="#4192B6" d="M24.998,9.111c-2.953-2.315-5.93-4.71-8.943-7.213c-2.285,2.292-4.587,4.696-6.898,7.183
				C14.433,9.055,19.712,9.065,24.998,9.111z"/>
			<path fill="#4192B6" d="M36.725,19.129c-0.083-0.778-0.479-1.459-1.019-1.905c0.004-0.005,0.009-0.01,0.015-0.015
				c-1.953-1.413-3.924-2.884-5.9-4.383c0.411,3.317,0.791,6.625,1.104,9.911l-11.46,7.828L6.349,24.301
				c-0.327-3.613-0.725-7.248-1.152-10.892c-1.55,1.726-3.105,3.479-4.672,5.29c0.014,0.014,0.025,0.028,0.041,0.042
				c-0.414,0.577-0.636,1.411-0.545,2.335C0.76,28.635,1.286,36.128,1.6,43.547c0.066,1.633,1.075,2.766,2.265,2.545
				c6.917-1.31,13.834-2.557,20.753-3.74c2.112,1.729,4.206,3.393,6.284,4.979c-0.007-1.979-0.032-3.961-0.075-5.948
				c1.777-0.285,3.554-0.568,5.332-0.854c1.189-0.188,2.106-1.432,2.038-2.774C37.882,31.609,37.394,25.397,36.725,19.129z
				 M4.363,40.33c-0.28-5.604-0.681-11.248-1.206-16.932c3.545,2.311,7.062,4.508,10.552,6.59
				c-3.008,3.585-6.053,7.326-9.143,11.222C4.451,40.951,4.38,40.652,4.363,40.33z M33.75,37.962c-1.59,0.229-3.18,0.461-4.77,0.696
				c0.069,1.424,0.134,2.844,0.187,4.261c-1.291-1.205-2.59-2.438-3.896-3.698c-6.324,0.953-12.647,1.967-18.972,3.021
				c-0.419,0.068-0.811-0.032-1.131-0.271c3.184-3.988,6.318-7.82,9.415-11.49c1.694,1.018,3.382,1.998,5.063,2.955
				c1.537-1.354,3.066-2.678,4.596-3.965c3.582,2.81,7.118,5.446,10.613,7.928C34.559,37.695,34.174,37.904,33.75,37.962z
				 M35.37,36.582c-3.406-2.43-6.85-5.008-10.34-7.744c3.12-2.613,6.223-5.104,9.311-7.465c0.484,4.848,0.862,9.662,1.138,14.438
				C35.491,36.079,35.454,36.335,35.37,36.582z"/>
			<path fill="#4192B6" d="M26.117,15.202c0.01,0.087-0.357,0.168-0.82,0.18c-5.03,0.125-10.062,0.283-15.088,0.472
				c-0.462,0.017-0.847-0.047-0.855-0.143c-0.118-1.05-0.24-2.101-0.367-3.153c-0.012-0.097,0.354-0.183,0.815-0.193
				c5.032-0.104,10.067-0.175,15.106-0.215c0.464-0.003,0.849,0.066,0.859,0.155C25.888,13.271,26.005,14.237,26.117,15.202z"/>
		</g>
		<path fill="#4192B6" d="M19.93,23.798c0.021,0.215-0.178,0.407-0.44,0.43c-2.869,0.234-5.738,0.479-8.605,0.736
			c-0.264,0.021-0.493-0.144-0.516-0.367c-0.238-2.466-0.5-4.94-0.787-7.422c-0.025-0.23,0.165-0.425,0.432-0.437
			c2.871-0.142,5.746-0.271,8.621-0.39c0.267-0.011,0.503,0.158,0.527,0.374C19.44,19.088,19.696,21.447,19.93,23.798z"/>
		<path fill="#4192B6" d="M27.081,23.283c0.021,0.207-0.095,0.387-0.257,0.4c-1.771,0.132-3.542,0.269-5.312,0.41
			c-0.163,0.011-0.312-0.152-0.333-0.364c-0.233-2.336-0.489-4.68-0.77-7.032c-0.026-0.217,0.085-0.398,0.249-0.404
			c1.774-0.07,3.548-0.135,5.323-0.197c0.163-0.006,0.314,0.161,0.34,0.368C26.599,18.746,26.851,21.019,27.081,23.283z"/>
	</g>
</g>
<g>
	<g>
		<g>
			<g>
				<path fill="#EDEDEE" d="M4.568,41.208c-0.115-0.259-0.187-0.558-0.203-0.88c-0.28-5.604-0.681-11.248-1.206-16.932
					c3.545,2.311,7.062,4.508,10.552,6.59C10.702,33.571,7.657,37.312,4.568,41.208z"/>
				<path fill="#EDEDEE" d="M14.584,30.479c1.694,1.014,3.382,1.998,5.063,2.955c1.537-1.354,3.067-2.681,4.596-3.966
					c3.582,2.81,7.118,5.444,10.613,7.929c-0.297,0.297-0.682,0.506-1.105,0.562c-1.59,0.229-3.18,0.461-4.77,0.696
					c0.07,1.424,0.134,2.844,0.187,4.261c-1.291-1.205-2.59-2.438-3.897-3.696C18.947,40.17,12.623,41.186,6.3,42.24
					c-0.419,0.068-0.811-0.032-1.131-0.271C8.353,37.98,11.488,34.148,14.584,30.479z"/>
				<path fill="#EDEDEE" d="M25.031,28.836c3.12-2.613,6.223-5.104,9.311-7.465c0.484,4.848,0.862,9.662,1.137,14.438
					c0.015,0.271-0.023,0.524-0.107,0.771C31.964,34.15,28.522,31.572,25.031,28.836z"/>
			</g>
		</g>
	</g>
</g>
<g>
	<g>
		<g>
			<g>
				<g>
					<g>
						<path fill="#EDEDEE" d="M29.788,20.562c-1.575-0.11-3.151-0.223-4.728-0.336c-1.317-0.688-3.015,1.037-6.253,1.244
							c-3.279,0.195-5.592,1.379-6.732,2.336c-1.407,0.098-2.816,0.195-4.225,0.297c0.054,0.59,0.105,1.182,0.158,1.771
							c3.848,1.655,7.676,3.219,11.488,4.688c3.444-2.146,6.879-4.188,10.307-6.125C29.806,23.145,29.802,21.854,29.788,20.562z"/>
					</g>
					<g>
						<g>
							<path fill="#EDEDEE" d="M30.956,22.737c-0.431-4.503-0.951-9.037-1.564-13.597C21.157,9.039,12.933,9.023,4.717,9.093
								C5.371,14.191,5.926,19.262,6.382,24.3"/>
							<g>
								<path fill="#EDEDEE" d="M31.399,23.688c-0.609,0.304-1.218,0.608-1.828,0.918c-0.435-4.756-0.969-9.547-1.604-14.366
									c-7.181-0.036-14.354-0.007-21.521,0.087C7.106,15.562,7.659,20.77,8.11,25.941c-0.634-0.327-1.269-0.657-1.903-0.99
									C5.702,19.438,5.081,13.885,4.34,8.297c8.45-0.03,16.912,0.03,25.382,0.178C30.394,13.579,30.952,18.65,31.399,23.688z"/>
							</g>
						</g>
						<path fill="#76B3CE" d="M26.15,15.2c0.01,0.087-0.356,0.168-0.82,0.18c-5.031,0.125-10.062,0.283-15.088,0.472
							c-0.462,0.018-0.847-0.047-0.856-0.143c-0.118-1.05-0.24-2.102-0.367-3.152c-0.012-0.098,0.354-0.184,0.817-0.193
							c5.031-0.104,10.066-0.176,15.105-0.215c0.464-0.004,0.849,0.065,0.859,0.154C25.921,13.27,26.037,14.234,26.15,15.2z"/>
					</g>
				</g>
			</g>
		</g>
		<path fill="#76B3CE" d="M19.963,23.796c0.021,0.216-0.177,0.407-0.44,0.431c-2.869,0.233-5.738,0.479-8.604,0.735
			c-0.265,0.021-0.495-0.144-0.517-0.366c-0.238-2.467-0.5-4.94-0.787-7.423c-0.026-0.229,0.165-0.425,0.431-0.437
			c2.873-0.143,5.748-0.271,8.623-0.391c0.265-0.011,0.501,0.158,0.526,0.375C19.473,19.086,19.729,21.445,19.963,23.796z"/>
		<path fill="#76B3CE" d="M27.114,23.281c0.021,0.207-0.095,0.387-0.257,0.4c-1.771,0.131-3.542,0.269-5.312,0.409
			c-0.163,0.011-0.312-0.151-0.333-0.364c-0.233-2.336-0.489-4.68-0.769-7.031c-0.025-0.217,0.085-0.398,0.249-0.404
			c1.774-0.07,3.548-0.135,5.323-0.197c0.163-0.006,0.315,0.161,0.34,0.368C26.632,18.744,26.884,21.018,27.114,23.281z"/>
	</g>
</g>
</svg>
