<?xml version="1.0" encoding="utf-8"?>
<!-- Generator: Adobe Illustrator 16.0.0, SVG Export Plug-In . SVG Version: 6.00 Build 0)  -->
<!DOCTYPE svg PUBLIC "-//W3C//DTD SVG 1.1//EN" "http://www.w3.org/Graphics/SVG/1.1/DTD/svg11.dtd">
<svg version="1.1" id="Layer_1" xmlns="http://www.w3.org/2000/svg" xmlns:xlink="http://www.w3.org/1999/xlink" x="0px" y="0px"
	 width="253.48px" height="51px" viewBox="0 0 253.48 51" enable-background="new 0 0 253.48 51" xml:space="preserve">
<g enable-background="new    ">
	<path fill="#4192B6" d="M51.448,22.757c-0.861,0-1.568,0.192-2.12,0.578c-0.552,0.386-0.828,0.969-0.828,1.749
		c0,0.78,0.276,1.376,0.828,1.791c0.552,0.412,1.727,0.857,3.525,1.336c1.797,0.477,3.152,1.146,4.064,2.01
		c0.911,0.863,1.367,2.135,1.367,3.814c0,1.679-0.577,3.043-1.731,4.09c-1.154,1.047-2.668,1.57-4.541,1.57
		c-2.743,0-5.176-1.037-7.3-3.112l1.856-2.451c1.772,1.688,3.613,2.534,5.52,2.534c0.953,0,1.709-0.225,2.27-0.676
		c0.56-0.449,0.84-1.047,0.84-1.789c0-0.744-0.263-1.322-0.79-1.736c-0.527-0.412-1.434-0.789-2.722-1.129s-2.266-0.65-2.935-0.936
		c-0.669-0.286-1.263-0.656-1.781-1.116c-1.037-0.862-1.555-2.185-1.555-3.966c0-1.781,0.589-3.153,1.769-4.117
		c1.18-0.964,2.638-1.446,4.378-1.446c1.12,0,2.232,0.203,3.336,0.606c1.104,0.404,2.057,0.974,2.86,1.708l-1.581,2.451
		c-0.519-0.514-1.221-0.936-2.107-1.267C53.185,22.922,52.311,22.757,51.448,22.757z"/>
	<path fill="#4192B6" d="M70.729,32.754v-7.931h2.81v14.651h-2.81V36.8c-0.452,0.9-1.075,1.607-1.869,2.121
		c-0.794,0.517-1.652,0.771-2.571,0.771c-1.505,0-2.722-0.506-3.65-1.517c-0.928-1.011-1.393-2.47-1.393-4.38V24.82h2.81v8.042
		c0,2.699,1.02,4.053,3.061,4.053c0.97,0,1.814-0.354,2.534-1.062C70.371,35.143,70.729,34.113,70.729,32.754z"/>
	<path fill="#4192B6" d="M84.752,24.603c1.789,0,3.319,0.679,4.591,2.038c1.271,1.359,1.907,3.168,1.907,5.426
		c0,2.264-0.632,4.1-1.894,5.514c-1.263,1.414-2.735,2.115-4.416,2.115s-3.19-0.809-4.528-2.424v2.203h-2.81V19.039h2.81v8.345
		C81.515,25.53,82.962,24.603,84.752,24.603z M80.361,32.176c0,1.396,0.385,2.539,1.154,3.43c0.769,0.896,1.706,1.336,2.81,1.336
		s2.065-0.438,2.885-1.316c0.819-0.882,1.229-2.021,1.229-3.436c0-1.398-0.401-2.564-1.204-3.496
		c-0.803-0.928-1.765-1.393-2.885-1.393c-1.121,0-2.066,0.465-2.835,1.393C80.747,29.619,80.361,30.781,80.361,32.176z"/>
	<path fill="#4192B6" d="M103.968,35.096c0,1.396-0.46,2.512-1.38,3.346c-0.92,0.836-2.099,1.254-3.537,1.254
		c-0.97,0-1.978-0.188-3.023-0.572c-1.045-0.393-1.969-0.934-2.772-1.625l1.355-2.396c1.555,1.282,3.061,1.928,4.516,1.928
		c0.635,0,1.137-0.157,1.505-0.479c0.368-0.317,0.552-0.729,0.552-1.227c0-0.732-0.887-1.396-2.659-1.981
		c-0.134-0.057-0.234-0.092-0.301-0.107c-2.776-0.825-4.164-2.203-4.164-4.131c0-1.357,0.48-2.447,1.442-3.267
		c0.961-0.817,2.211-1.226,3.75-1.226s2.994,0.496,4.365,1.489l-1.054,2.283c-1.087-0.789-2.267-1.188-3.537-1.188
		c-0.669,0-1.213,0.137-1.631,0.397c-0.418,0.269-0.627,0.665-0.627,1.198c0,0.479,0.217,0.826,0.652,1.046
		c0.301,0.165,0.724,0.321,1.267,0.47c0.543,0.147,1.024,0.295,1.442,0.439s0.824,0.312,1.217,0.496
		c0.393,0.184,0.815,0.438,1.267,0.771C103.518,32.672,103.968,33.7,103.968,35.096z"/>
	<path fill="#4192B6" d="M113.075,39.695c-1.856,0-3.454-0.693-4.792-2.08c-1.338-1.387-2.007-3.199-2.007-5.439
		c0-2.238,0.698-4.062,2.095-5.467c1.396-1.404,3.098-2.106,5.105-2.106s3.705,0.762,5.093,2.286l-1.656,2.23
		c-1.154-1.102-2.316-1.652-3.487-1.652c-1.171,0-2.187,0.428-3.048,1.28c-0.862,0.854-1.292,1.956-1.292,3.306
		s0.426,2.492,1.279,3.428c0.853,0.938,1.902,1.405,3.148,1.405c1.246,0,2.421-0.624,3.525-1.872l1.656,1.982
		C117.072,38.795,115.199,39.695,113.075,39.695z"/>
	<path fill="#4192B6" d="M128.604,27.715c-1.389,0-2.434,0.496-3.136,1.486c-0.703,0.992-1.054,2.324-1.054,3.994v6.279h-2.81
		V24.823h2.81v2.946c0.452-0.918,1.066-1.67,1.844-2.257c0.778-0.587,1.602-0.89,2.471-0.909l0.025,3.112
		C128.705,27.715,128.655,27.715,128.604,27.715z"/>
	<path fill="#4192B6" d="M131.739,21.903c-0.354-0.386-0.525-0.844-0.525-1.377c0-0.532,0.176-0.992,0.525-1.377
		c0.353-0.386,0.77-0.579,1.256-0.579c0.484,0,0.902,0.193,1.254,0.579c0.352,0.385,0.527,0.845,0.527,1.377
		c0,0.533-0.18,0.991-0.527,1.377c-0.352,0.386-0.77,0.578-1.254,0.578C132.508,22.481,132.091,22.289,131.739,21.903z
		 M134.374,39.475h-2.809V24.823h2.809V39.475z"/>
	<path fill="#4192B6" d="M145.589,24.603c1.789,0,3.318,0.679,4.591,2.038c1.271,1.359,1.905,3.168,1.905,5.426
		c0,2.264-0.631,4.1-1.894,5.514c-1.27,1.414-2.735,2.115-4.416,2.115c-1.686,0-3.19-0.809-4.528-2.424v2.203h-2.81V19.039h2.81
		v8.345C142.352,25.53,143.798,24.603,145.589,24.603z M141.198,32.176c0,1.396,0.385,2.539,1.154,3.43
		c0.769,0.896,1.7,1.336,2.809,1.336c1.104,0,2.065-0.438,2.885-1.316c0.82-0.882,1.229-2.021,1.229-3.436
		c0-1.398-0.401-2.564-1.205-3.496c-0.803-0.928-1.77-1.393-2.884-1.393c-1.121,0-2.066,0.465-2.834,1.393
		C141.583,29.619,141.198,30.781,141.198,32.176z"/>
	<path fill="#4192B6" d="M167.714,33.498h-10.461c0.065,1.064,0.511,1.924,1.33,2.575c0.817,0.651,1.756,0.978,2.812,0.978
		c1.672,0,2.942-0.578,3.812-1.734l1.604,1.934c-1.438,1.634-3.312,2.445-5.619,2.445c-1.873,0-3.467-0.684-4.778-2.053
		c-1.312-1.367-1.97-3.203-1.97-5.508c0-2.304,0.668-4.135,2.007-5.494c1.338-1.354,2.913-2.038,4.729-2.038
		c1.814,0,3.356,0.602,4.627,1.804s1.907,2.858,1.907,4.971V33.498L167.714,33.498z M157.253,31.074h7.651
		c0-1.229-0.354-2.176-1.055-2.836c-0.701-0.662-1.565-0.992-2.602-0.992c-1.023,0-1.953,0.345-2.77,1.033
		C157.663,28.967,157.253,29.9,157.253,31.074z"/>
	<path fill="#4192B6" d="M177.8,27.715c-1.389,0-2.434,0.496-3.137,1.486c-0.701,0.992-1.054,2.324-1.054,3.994v6.279h-2.812V24.823
		h2.812v2.946c0.451-0.918,1.062-1.67,1.845-2.257c0.776-0.587,1.603-0.89,2.471-0.909l0.025,3.112
		C177.9,27.715,177.852,27.715,177.8,27.715z"/>
</g>
<g enable-background="new    ">
	<path fill="#636363" d="M188.227,31.898l4.836-13.273h4.592l-7.635,20.85h-3.588l-7.636-20.85h4.593L188.227,31.898z"/>
	<path fill="#636363" d="M212.866,31.451c0,2.326-0.732,4.285-2.199,5.876s-3.312,2.386-5.528,2.386
		c-2.219,0-4.062-0.795-5.529-2.386s-2.199-3.55-2.199-5.876s0.732-4.29,2.199-5.891s3.312-2.401,5.529-2.401
		c2.219,0,4.062,0.801,5.528,2.401S212.866,29.125,212.866,31.451z M201.512,31.451c0,1.312,0.34,2.381,1.02,3.207
		c0.682,0.824,1.553,1.236,2.607,1.236c1.059,0,1.93-0.412,2.606-1.236c0.68-0.826,1.021-1.895,1.021-3.207
		s-0.341-2.387-1.021-3.221c-0.679-0.836-1.55-1.254-2.606-1.254c-1.059,0-1.931,0.418-2.607,1.254
		C201.852,29.064,201.512,30.139,201.512,31.451z"/>
	<path fill="#636363" d="M216.223,21.385c-0.461-0.507-0.691-1.128-0.691-1.864c0-0.735,0.23-1.357,0.691-1.864
		c0.463-0.507,1.026-0.761,1.698-0.761c0.67,0,1.236,0.254,1.697,0.761c0.461,0.507,0.692,1.129,0.692,1.864
		c0,0.736-0.231,1.357-0.692,1.864c-0.461,0.507-1.027,0.76-1.697,0.76C217.249,22.145,216.686,21.892,216.223,21.385z
		 M219.958,39.475h-4.076V23.428h4.076V39.475z"/>
	<path fill="#636363" d="M230.825,35.746c1.358,0,2.582-0.746,3.668-2.236l2.418,2.982c-1.886,2.146-3.923,3.221-6.113,3.221
		s-4.043-0.76-5.557-2.281c-1.513-1.521-2.271-3.51-2.271-5.965c0-2.457,0.768-4.455,2.299-5.996
		c1.526-1.541,3.346-2.312,5.442-2.312c1.052,0,2.113,0.239,3.188,0.716c1.078,0.478,2.021,1.184,2.845,2.118l-2.121,3.042
		c-0.476-0.616-1.045-1.094-1.729-1.432c-0.68-0.338-1.354-0.508-2.021-0.508c-1.063,0-1.988,0.383-2.758,1.146
		c-0.771,0.766-1.154,1.829-1.154,3.188c0,1.36,0.39,2.422,1.154,3.178C228.891,35.368,229.792,35.746,230.825,35.746z"/>
	<path fill="#636363" d="M252.288,37.148c-1.647,1.709-3.582,2.562-5.802,2.562c-2.219,0-4.053-0.75-5.5-2.252
		c-1.448-1.501-2.174-3.517-2.174-6.039s0.732-4.534,2.213-6.025c1.478-1.492,3.222-2.237,5.229-2.237
		c2.015,0,3.72,0.667,5.121,1.999c1.401,1.333,2.104,3.16,2.104,5.486v2.389h-10.649c0.127,0.875,0.545,1.591,1.25,2.146
		c0.707,0.558,1.504,0.837,2.396,0.837c1.43,0,2.604-0.522,3.528-1.582L252.288,37.148z M248.376,27.633
		c-0.562-0.516-1.244-0.775-2.051-0.775c-0.808,0-1.546,0.271-2.216,0.812s-1.062,1.267-1.168,2.179h6.412
		C249.266,28.887,248.938,28.15,248.376,27.633z"/>
</g>
<g>
	<g>
		<g>
			<g>
				<path fill="#4192B6" d="M0.021,21.078C0.76,28.637,1.285,36.13,1.6,43.549c0.068,1.633,1.077,2.766,2.265,2.545
					c6.917-1.31,13.834-2.557,20.753-3.74c2.112,1.729,4.206,3.391,6.284,4.979c-0.007-1.979-0.032-3.961-0.075-5.948
					c1.777-0.285,3.554-0.568,5.332-0.854c1.189-0.188,2.106-1.432,2.038-2.774c-0.314-6.146-0.803-12.358-1.472-18.626
					c-0.146-1.372-1.244-2.468-2.439-2.441c-10.816,0.276-21.62,0.699-32.411,1.27C0.68,18.014-0.143,19.417,0.021,21.078z"/>
				<path fill="#FFFFFF" d="M4.567,41.21c-0.115-0.259-0.186-0.558-0.203-0.88c-0.28-5.604-0.681-11.248-1.206-16.932
					c3.545,2.311,7.062,4.508,10.552,6.59C10.702,33.573,7.657,37.314,4.567,41.21z"/>
				<path fill="#FFFFFF" d="M14.584,30.48c1.694,1.014,3.382,1.998,5.063,2.955c1.537-1.354,3.068-2.68,4.596-3.965
					c3.582,2.809,7.118,5.444,10.613,7.928c-0.297,0.297-0.681,0.506-1.105,0.562c-1.59,0.229-3.18,0.461-4.77,0.696
					c0.071,1.424,0.134,2.844,0.187,4.261c-1.291-1.205-2.59-2.438-3.898-3.696c-6.324,0.951-12.647,1.967-18.97,3.021
					c-0.419,0.069-0.811-0.032-1.131-0.271C8.352,37.982,11.487,34.15,14.584,30.48z"/>
				<path fill="#FFFFFF" d="M25.03,28.838c3.12-2.613,6.223-5.104,9.311-7.465c0.484,4.848,0.862,9.662,1.136,14.438
					c0.015,0.271-0.023,0.524-0.107,0.771C31.964,34.152,28.521,31.574,25.03,28.838z"/>
				<path fill="#4192B6" d="M33.883,19.449c-5.481,0.451-10.959,0.96-16.433,1.528c-4.868,0.042-9.734,0.096-14.599,0.161
					C2.08,20.334,1.303,19.521,0.525,18.7C5.788,12.619,10.952,7.015,16.053,1.898C22.76,7.466,29.306,12.569,35.72,17.211
					C35.109,17.948,34.498,18.694,33.883,19.449z"/>
				<g>
					<g>
						<path fill="#FFFFFF" d="M29.757,20.565c-1.576-0.111-3.152-0.223-4.728-0.337c-1.317-0.688-3.015,1.038-6.253,1.245
							c-3.279,0.195-5.592,1.378-6.732,2.336c-1.408,0.097-2.817,0.195-4.225,0.296c0.054,0.591,0.106,1.182,0.158,1.772
							c3.848,1.655,7.676,3.219,11.489,4.688c3.444-2.146,6.878-4.188,10.306-6.125C29.774,23.147,29.77,21.856,29.757,20.565z"/>
					</g>
					<g>
						<g>
							<path fill="#FFFFFF" d="M30.925,22.739c-0.431-4.503-0.952-9.037-1.565-13.597C21.126,9.041,12.901,9.025,4.685,9.095
								C5.34,14.194,5.894,19.263,6.35,24.302"/>
							<g>
								<path fill="#636363" d="M31.367,23.69c-0.609,0.303-1.218,0.608-1.828,0.917c-0.435-4.756-0.969-9.546-1.605-14.366
									c-7.18-0.036-14.354-0.007-21.521,0.087c0.661,5.237,1.215,10.443,1.665,15.615c-0.634-0.327-1.269-0.657-1.903-0.99
									C5.671,19.439,5.05,13.887,4.308,8.299c8.451-0.03,16.912,0.03,25.382,0.178C30.362,13.581,30.921,18.653,31.367,23.69z"/>
							</g>
						</g>
						<path fill="#A4A1A8" d="M26.118,15.202c0.01,0.087-0.357,0.168-0.82,0.18c-5.032,0.125-10.062,0.283-15.088,0.472
							c-0.462,0.017-0.847-0.047-0.857-0.143c-0.118-1.05-0.24-2.101-0.367-3.153c-0.012-0.097,0.354-0.183,0.817-0.193
							c5.032-0.104,10.067-0.175,15.106-0.215c0.464-0.003,0.849,0.066,0.859,0.155C25.889,13.271,26.006,14.237,26.118,15.202z"/>
					</g>
				</g>
			</g>
		</g>
		<path fill="#A4A1A8" d="M19.931,23.798c0.021,0.215-0.176,0.407-0.44,0.43c-2.869,0.234-5.738,0.479-8.605,0.736
			c-0.264,0.021-0.495-0.144-0.516-0.367c-0.238-2.466-0.5-4.94-0.787-7.422c-0.027-0.23,0.165-0.425,0.43-0.437
			c2.873-0.142,5.748-0.271,8.623-0.39c0.265-0.011,0.501,0.158,0.527,0.374C19.441,19.088,19.697,21.447,19.931,23.798z"/>
		<path fill="#A4A1A8" d="M27.082,23.283c0.021,0.207-0.095,0.387-0.257,0.4c-1.771,0.132-3.542,0.269-5.312,0.41
			c-0.163,0.011-0.312-0.152-0.333-0.364c-0.233-2.336-0.489-4.68-0.768-7.032c-0.026-0.217,0.085-0.398,0.249-0.404
			c1.774-0.07,3.548-0.135,5.323-0.197c0.163-0.006,0.316,0.161,0.34,0.368C26.6,18.746,26.852,21.019,27.082,23.283z"/>
	</g>
</g>
</svg>
