<?xml version="1.0" encoding="utf-8"?>
<!-- Generator: Adobe Illustrator 16.0.0, SVG Export Plug-In . SVG Version: 6.00 Build 0)  -->
<!DOCTYPE svg PUBLIC "-//W3C//DTD SVG 1.1//EN" "http://www.w3.org/Graphics/SVG/1.1/DTD/svg11.dtd">
<svg version="1.1" id="Layer_1" xmlns="http://www.w3.org/2000/svg" xmlns:xlink="http://www.w3.org/1999/xlink" x="0px" y="0px"
	 width="290px" height="51px" viewBox="0 0 290 51" enable-background="new 0 0 290 51" xml:space="preserve">
<text transform="matrix(0.9109 0 0 1 56.8052 40.4102)" fill="#627F93" font-family="'Montserrat-Regular'" font-size="29.3825">Subscriber</text>
<text transform="matrix(0.9109 0 0 1 201.0117 40.4102)" fill="#636464" font-family="'Montserrat-Bold'" font-size="31.8209">Voice</text>
<g>
	<g>
		<g>
			<g>
				<g>
					<g>
						<path fill="#627F93" d="M9.156,21.405c0.419,7.005,0.86,14.011,1.323,21.017c0.1,1.537,1.273,2.719,2.617,2.639
							c7.572-0.479,15.125-1.019,22.659-1.621c2.855,2.123,5.738,4.235,8.648,6.34c-0.071-2.329-0.142-4.66-0.213-6.991
							c1.752-0.147,3.502-0.304,5.252-0.457c1.333-0.114,2.251-1.456,2.051-2.989c-0.902-6.984-1.783-13.972-2.642-20.959
							c-0.189-1.533-1.377-2.681-2.655-2.566c-11.571,1.038-23.196,1.926-34.87,2.66C10.039,18.556,9.065,19.867,9.156,21.405z"/>
					</g>
				</g>
				<path fill="#FFFFFF" d="M13.792,40.479c-0.133-0.256-0.216-0.547-0.239-0.854c-0.376-5.352-0.739-10.7-1.09-16.05
					c3.77,2.19,7.58,4.364,11.428,6.522C20.578,33.57,17.212,37.029,13.792,40.479z"/>
				<path fill="#FFFFFF" d="M24.854,30.609c1.874,1.058,3.756,2.107,5.648,3.158c1.673-1.318,3.337-2.642,4.99-3.967
					c3.892,3.092,7.84,6.164,11.844,9.223c-0.561,0.237-0.495,0.22-0.835,0.278c-1.774,0.154-3.549,0.306-5.325,0.452
					c0.175,1.537,0.35,3.075,0.527,4.613c-1.568-1.424-3.126-2.85-4.674-4.275c-7.072,0.562-14.163,1.071-21.27,1.524
					c-0.471,0.028-0.506,0.055-0.828-0.093C18.295,37.9,21.603,34.261,24.854,30.609z"/>
				<path fill="#FFFFFF" d="M36.345,29.148c3.373-2.705,6.702-5.424,9.989-8.154c0.636,5.338,1.285,10.676,1.946,16.014
					c0.037,0.297,0.013,0.585-0.062,0.85C44.208,34.973,40.25,32.068,36.345,29.148z"/>
				<g>
					<path fill="#627F93" d="M45.802,18.892c-5.897,0.773-11.815,1.507-17.752,2.201c-5.271,0.15-10.546,0.269-15.826,0.356
						c-0.801-0.752-1.599-1.504-2.395-2.257c6.024-5.725,11.886-11.49,17.586-17.294c6.617,4.854,13.393,9.656,20.326,14.404
						C47.097,17.166,46.451,18.029,45.802,18.892z"/>
				</g>
			</g>
		</g>
	</g>
</g>
<g>
	<g opacity="0.14">
		<path d="M41.852,19.662c-1.686-0.06-3.37-0.125-5.053-0.194c-1.418-0.725-3.19,1.285-6.666,1.571
			c-3.509,0.289-6.005,1.574-7.25,2.585c-1.549-0.021-3.097-0.046-4.646-0.075c0.069,0.735,0.138,1.471,0.208,2.207
			c4.152,1.785,8.361,3.543,12.628,5.271c3.73-2.269,7.394-4.557,10.992-6.865C41.995,22.662,41.923,21.162,41.852,19.662z"/>
		<path d="M43.213,22.152c-0.719-5.25-1.417-10.501-2.092-15.752c-8.412,0.826-16.876,1.531-25.388,2.114
			c0.298,5.043,0.615,10.087,0.953,15.13"/>
		<path d="M43.725,23.082c-0.646,0.421-1.293,0.842-1.943,1.262c-0.728-5.503-1.431-11.007-2.11-16.511
			C32.3,8.541,24.89,9.158,17.442,9.68c0.348,5.382,0.72,10.765,1.114,16.146c-0.683-0.351-1.364-0.702-2.043-1.055
			c-0.396-5.684-0.766-11.368-1.109-17.052c8.733-0.583,17.416-1.296,26.045-2.137C42.18,11.416,42.939,17.249,43.725,23.082z"/>
		<path d="M40.055,19.562c-1.433-0.039-2.865-0.082-4.296-0.127c-1.202-0.564-2.729,1.031-5.685,1.275
			c-2.987,0.249-5.116,1.278-6.176,2.083c-1.294,0.088-2.589,0.174-3.885,0.257c0.038,0.484,0.075,0.968,0.113,1.452
			c3.522,1.382,7.083,2.745,10.682,4.086c3.17-1.809,6.295-3.634,9.376-5.475C40.141,21.93,40.098,20.746,40.055,19.562z"/>
		<path d="M41.525,22.404c-0.558,0.304-1.117,0.607-1.677,0.91c-0.521-4.359-1.029-8.718-1.523-13.078
			c-6.324,0.598-12.676,1.128-19.055,1.59c0.302,4.244,0.618,8.487,0.948,12.73c-0.606-0.271-1.211-0.542-1.815-0.814
			c-0.304-4.616-0.592-9.232-0.864-13.848c7.481-0.521,14.924-1.136,22.329-1.845C40.405,12.835,40.957,17.62,41.525,22.404z"/>
		<path d="M39.053,15.696c0.01,0.084-0.408,0.17-0.95,0.222c-5.883,0.553-11.79,1.048-17.72,1.485c-0.546,0.04-0.995,0.002-1-0.083
			c-0.07-0.937-0.139-1.873-0.207-2.809c-0.005-0.086,0.427-0.094,0.969-0.134c5.883-0.436,11.742-0.93,17.578-1.48
			c0.535-0.051,0.995-0.082,1.006,0.004C38.836,13.833,38.944,14.765,39.053,15.696z"/>
	</g>
	<g>
		<g>
			<g>
				<g>
					<g>
						<path fill="#7DBFD5" d="M40.852,18.662c-1.686-0.06-3.37-0.125-5.053-0.194c-1.418-0.725-3.19,1.285-6.666,1.571
							c-3.509,0.289-6.005,1.574-7.25,2.585c-1.549-0.021-3.097-0.046-4.646-0.075c0.069,0.735,0.138,1.471,0.208,2.207
							c4.152,1.785,8.361,3.543,12.628,5.271c3.73-2.269,7.394-4.556,10.992-6.865C40.995,21.662,40.923,20.162,40.852,18.662z"/>
					</g>
				</g>
				<g>
					<g>
						<path fill="#7DBFD5" d="M42.213,21.152c-0.719-5.25-1.417-10.501-2.092-15.752c-8.412,0.826-16.876,1.531-25.388,2.114
							c0.298,5.043,0.615,10.087,0.953,15.13"/>
						<g>
							<path fill="#7DBFD5" d="M42.725,22.082c-0.646,0.421-1.293,0.842-1.943,1.262c-0.728-5.503-1.431-11.007-2.11-16.511
								C31.3,7.541,23.89,8.158,16.442,8.68c0.348,5.382,0.72,10.765,1.114,16.146c-0.683-0.351-1.364-0.702-2.043-1.055
								c-0.396-5.684-0.766-11.368-1.109-17.052c8.733-0.583,17.416-1.296,26.045-2.137C41.18,10.416,41.939,16.249,42.725,22.082z"
								/>
						</g>
					</g>
				</g>
			</g>
			<g>
				<g>
					<g>
						<g>
							<path fill="#7DBFD5" d="M39.055,18.562c-1.433-0.039-2.865-0.082-4.296-0.127c-1.202-0.564-2.729,1.031-5.685,1.275
								c-2.987,0.249-5.116,1.278-6.176,2.083c-1.294,0.088-2.589,0.174-3.885,0.257c0.038,0.484,0.075,0.968,0.113,1.452
								c3.522,1.382,7.083,2.745,10.682,4.086c3.17-1.809,6.295-3.634,9.376-5.475C39.141,20.93,39.098,19.746,39.055,18.562z"/>
						</g>
						<g>
							<g>
								<g>
									<g>
										<path fill="#FFFFFF" d="M40.525,21.404c-0.558,0.304-1.117,0.607-1.677,0.91c-0.521-4.359-1.029-8.718-1.523-13.078
											c-6.324,0.598-12.676,1.128-19.055,1.59c0.302,4.244,0.618,8.487,0.948,12.73c-0.606-0.271-1.211-0.542-1.815-0.814
											c-0.304-4.616-0.592-9.232-0.864-13.848c7.481-0.521,14.924-1.136,22.329-1.845C39.405,11.835,39.957,16.62,40.525,21.404
											z"/>
									</g>
								</g>
							</g>
						</g>
					</g>
				</g>
				<g>
					<g>
						<path fill="#FFFFFF" d="M38.053,14.696c0.01,0.084-0.408,0.17-0.95,0.222c-5.883,0.553-11.79,1.048-17.72,1.485
							c-0.546,0.04-0.995,0.002-1-0.083c-0.07-0.937-0.139-1.873-0.207-2.809c-0.005-0.086,0.427-0.094,0.969-0.134
							c5.883-0.436,11.742-0.93,17.578-1.48c0.535-0.051,0.995-0.082,1.006,0.004C37.836,12.833,37.944,13.765,38.053,14.696z"/>
					</g>
				</g>
			</g>
		</g>
	</g>
</g>
</svg>
