<?xml version="1.0" encoding="utf-8"?>
<!-- Generator: Adobe Illustrator 16.0.0, SVG Export Plug-In . SVG Version: 6.00 Build 0)  -->
<!DOCTYPE svg PUBLIC "-//W3C//DTD SVG 1.1//EN" "http://www.w3.org/Graphics/SVG/1.1/DTD/svg11.dtd">
<svg version="1.1" id="Layer_1" xmlns="http://www.w3.org/2000/svg" xmlns:xlink="http://www.w3.org/1999/xlink" x="0px" y="0px"
	 width="290px" height="51px" viewBox="0 0 290 51" enable-background="new 0 0 290 51" xml:space="preserve">
<g enable-background="new    ">
	<path fill="#4192B6" d="M71.61,22.757c-0.861,0-1.568,0.192-2.12,0.578c-0.552,0.386-0.828,0.969-0.828,1.749
		c0,0.78,0.276,1.376,0.828,1.791c0.552,0.412,1.727,0.857,3.525,1.336c1.797,0.477,3.152,1.146,4.064,2.01
		c0.911,0.863,1.367,2.135,1.367,3.814c0,1.679-0.577,3.043-1.731,4.09c-1.154,1.047-2.668,1.57-4.541,1.57
		c-2.743,0-5.176-1.037-7.3-3.112l1.856-2.451c1.772,1.688,3.613,2.534,5.52,2.534c0.953,0,1.709-0.225,2.27-0.676
		c0.56-0.449,0.84-1.047,0.84-1.789c0-0.744-0.263-1.322-0.79-1.736c-0.527-0.412-1.434-0.789-2.722-1.129
		c-1.288-0.34-2.266-0.65-2.935-0.936s-1.263-0.656-1.781-1.116c-1.037-0.862-1.555-2.185-1.555-3.966
		c0-1.781,0.589-3.153,1.769-4.117c1.18-0.964,2.638-1.446,4.378-1.446c1.12,0,2.232,0.203,3.336,0.606
		c1.104,0.404,2.057,0.974,2.86,1.708l-1.581,2.451c-0.519-0.514-1.221-0.936-2.107-1.267C73.346,22.922,72.472,22.757,71.61,22.757
		z"/>
	<path fill="#4192B6" d="M90.89,32.754v-7.931h2.81v14.651h-2.81v-2.672c-0.452,0.9-1.075,1.607-1.869,2.121
		s-1.652,0.771-2.571,0.771c-1.505,0-2.722-0.506-3.65-1.516c-0.928-1.011-1.393-2.47-1.393-4.38v-8.978h2.81v8.042
		c0,2.698,1.02,4.048,3.061,4.048c0.97,0,1.814-0.354,2.534-1.061S90.89,34.113,90.89,32.754z"/>
	<path fill="#4192B6" d="M104.914,24.603c1.789,0,3.319,0.679,4.591,2.038c1.271,1.359,1.907,3.168,1.907,5.426
		c0,2.259-0.632,4.095-1.894,5.509c-1.263,1.414-2.735,2.12-4.416,2.12s-3.19-0.809-4.528-2.424v2.203h-2.81V19.039h2.81v8.345
		C101.677,25.53,103.124,24.603,104.914,24.603z M100.523,32.176c0,1.396,0.385,2.539,1.154,3.43
		c0.769,0.892,1.706,1.336,2.81,1.336s2.065-0.44,2.885-1.321c0.819-0.882,1.229-2.024,1.229-3.431c0-1.403-0.401-2.569-1.204-3.496
		c-0.803-0.928-1.765-1.393-2.885-1.393c-1.121,0-2.066,0.465-2.835,1.393C100.908,29.619,100.523,30.781,100.523,32.176z"/>
	<path fill="#4192B6" d="M124.13,35.096c0,1.396-0.46,2.512-1.38,3.346c-0.92,0.836-2.099,1.254-3.537,1.254
		c-0.97,0-1.978-0.192-3.023-0.577c-1.045-0.388-1.969-0.929-2.772-1.625l1.355-2.396c1.555,1.284,3.061,1.928,4.516,1.928
		c0.635,0,1.137-0.16,1.505-0.482c0.368-0.32,0.552-0.729,0.552-1.225c0-0.734-0.887-1.396-2.659-1.983
		c-0.134-0.056-0.234-0.092-0.301-0.11c-2.776-0.826-4.164-2.203-4.164-4.131c0-1.359,0.48-2.447,1.442-3.264
		c0.961-0.817,2.211-1.226,3.75-1.226s2.994,0.496,4.365,1.487l-1.054,2.285c-1.087-0.789-2.267-1.185-3.537-1.185
		c-0.669,0-1.213,0.134-1.631,0.399c-0.418,0.267-0.627,0.665-0.627,1.198c0,0.477,0.217,0.826,0.652,1.046
		c0.301,0.165,0.724,0.321,1.267,0.468c0.543,0.148,1.024,0.295,1.442,0.441s0.824,0.312,1.217,0.496
		c0.393,0.184,0.815,0.439,1.267,0.771C123.679,32.672,124.13,33.7,124.13,35.096z"/>
	<path fill="#4192B6" d="M133.237,39.695c-1.856,0-3.454-0.693-4.792-2.08c-1.338-1.387-2.007-3.199-2.007-5.439
		c0-2.238,0.698-4.062,2.095-5.467c1.396-1.404,3.098-2.106,5.105-2.106c2.007,0,3.705,0.762,5.093,2.286l-1.656,2.23
		c-1.154-1.102-2.316-1.652-3.487-1.652s-2.187,0.428-3.048,1.28c-0.862,0.854-1.292,1.956-1.292,3.306s0.426,2.492,1.279,3.428
		c0.853,0.938,1.902,1.405,3.148,1.405c1.246,0,2.421-0.624,3.525-1.872l1.656,1.982C137.234,38.795,135.361,39.695,133.237,39.695z
		"/>
	<path fill="#4192B6" d="M148.766,27.715c-1.389,0-2.434,0.496-3.136,1.486c-0.703,0.992-1.054,2.324-1.054,3.994v6.279h-2.81
		V24.823h2.81v2.946c0.452-0.918,1.066-1.67,1.844-2.257s1.602-0.89,2.471-0.909l0.025,3.112
		C148.866,27.715,148.816,27.715,148.766,27.715z"/>
	<path fill="#4192B6" d="M151.9,21.903c-0.351-0.386-0.525-0.844-0.525-1.377c0-0.532,0.176-0.992,0.525-1.377
		c0.353-0.386,0.77-0.579,1.256-0.579c0.484,0,0.902,0.193,1.254,0.579c0.352,0.385,0.527,0.845,0.527,1.377
		c0,0.533-0.176,0.991-0.527,1.377c-0.352,0.386-0.77,0.578-1.254,0.578C152.67,22.481,152.253,22.289,151.9,21.903z
		 M154.535,39.475h-2.809V24.823h2.809V39.475z"/>
	<path fill="#4192B6" d="M165.75,24.603c1.789,0,3.318,0.679,4.59,2.038c1.271,1.359,1.907,3.168,1.907,5.426
		c0,2.259-0.632,4.095-1.894,5.509c-1.265,1.414-2.735,2.12-4.416,2.12c-1.682,0-3.19-0.809-4.528-2.424v2.203h-2.81V19.039h2.81
		v8.345C162.514,25.53,163.959,24.603,165.75,24.603z M161.359,32.176c0,1.396,0.385,2.539,1.154,3.43
		c0.769,0.892,1.704,1.336,2.809,1.336c1.104,0,2.066-0.44,2.886-1.321c0.819-0.882,1.229-2.024,1.229-3.431
		c0-1.403-0.402-2.569-1.205-3.496c-0.803-0.928-1.765-1.393-2.885-1.393c-1.121,0-2.065,0.465-2.834,1.393
		C161.744,29.619,161.359,30.781,161.359,32.176z"/>
	<path fill="#4192B6" d="M187.876,33.498h-10.462c0.066,1.064,0.511,1.924,1.33,2.575c0.818,0.651,1.756,0.978,2.811,0.978
		c1.672,0,2.943-0.578,3.812-1.734l1.605,1.929c-1.438,1.634-3.312,2.45-5.619,2.45c-1.873,0-3.467-0.684-4.779-2.053
		c-1.312-1.367-1.969-3.203-1.969-5.508c0-2.304,0.668-4.135,2.006-5.494c1.338-1.358,2.914-2.038,4.729-2.038
		s3.357,0.602,4.628,1.804s1.907,2.858,1.907,4.971L187.876,33.498L187.876,33.498z M177.414,31.074h7.652
		c0-1.229-0.353-2.176-1.055-2.836c-0.701-0.662-1.566-0.992-2.597-0.992c-1.028,0-1.953,0.345-2.771,1.033
		C177.824,28.968,177.414,29.9,177.414,31.074z"/>
	<path fill="#4192B6" d="M197.961,27.715c-1.389,0-2.434,0.496-3.136,1.486c-0.702,0.992-1.054,2.324-1.054,3.994v6.279h-2.811
		V24.823h2.811v2.946c0.451-0.918,1.065-1.67,1.844-2.257c0.777-0.587,1.602-0.89,2.471-0.909l0.025,3.112
		C198.062,27.715,198.012,27.715,197.961,27.715z"/>
</g>
<g enable-background="new    ">
	<path fill="#636363" d="M208.387,31.898l4.836-13.273h4.592l-7.635,20.85h-3.587l-7.635-20.85h4.592L208.387,31.898z"/>
	<path fill="#636363" d="M233.027,31.451c0,2.326-0.732,4.285-2.199,5.876s-3.311,2.386-5.529,2.386
		c-2.218,0-4.062-0.795-5.529-2.386s-2.199-3.55-2.199-5.876s0.732-4.29,2.199-5.891s3.312-2.401,5.529-2.401
		c2.219,0,4.062,0.801,5.529,2.401S233.027,29.125,233.027,31.451z M221.672,31.451c0,1.312,0.34,2.381,1.02,3.207
		c0.679,0.824,1.549,1.236,2.607,1.236s1.93-0.412,2.608-1.236c0.679-0.826,1.019-1.895,1.019-3.207s-0.34-2.387-1.019-3.221
		c-0.679-0.836-1.55-1.254-2.608-1.254s-1.93,0.418-2.607,1.254C222.012,29.064,221.672,30.139,221.672,31.451z"/>
	<path fill="#636363" d="M236.383,21.385c-0.461-0.507-0.691-1.128-0.691-1.864c0-0.735,0.23-1.357,0.691-1.864
		c0.463-0.507,1.028-0.761,1.699-0.761c0.67,0,1.236,0.254,1.697,0.761c0.462,0.507,0.693,1.129,0.693,1.864
		c0,0.736-0.231,1.357-0.693,1.864c-0.461,0.507-1.027,0.76-1.697,0.76C237.411,22.145,236.846,21.892,236.383,21.385z
		 M240.119,39.475h-4.075V23.428h4.075V39.475z"/>
	<path fill="#636363" d="M250.986,35.746c1.359,0,2.582-0.746,3.668-2.236l2.418,2.982c-1.885,2.146-3.922,3.221-6.113,3.221
		s-4.043-0.76-5.557-2.281c-1.512-1.521-2.269-3.51-2.269-5.965c0-2.457,0.765-4.455,2.296-5.996
		c1.53-1.541,3.346-2.312,5.447-2.312c1.05,0,2.114,0.239,3.191,0.716c1.078,0.478,2.023,1.184,2.841,2.118l-2.12,3.042
		c-0.473-0.616-1.046-1.094-1.727-1.432c-0.679-0.338-1.354-0.508-2.022-0.508c-1.067,0-1.988,0.383-2.758,1.147
		c-0.771,0.766-1.154,1.83-1.154,3.19c0,1.363,0.386,2.422,1.154,3.178C249.051,35.368,249.954,35.746,250.986,35.746z"/>
	<path fill="#636363" d="M272.45,37.148c-1.648,1.709-3.582,2.563-5.802,2.563c-2.219,0-4.053-0.75-5.5-2.252
		c-1.449-1.501-2.174-3.515-2.174-6.039s0.736-4.534,2.213-6.025c1.477-1.492,3.221-2.237,5.229-2.237
		c2.013,0,3.719,0.667,5.122,1.999c1.402,1.333,2.105,3.162,2.105,5.488v2.387h-10.65c0.127,0.875,0.544,1.591,1.25,2.146
		c0.706,0.557,1.503,0.836,2.393,0.836c1.43,0,2.606-0.526,3.53-1.582L272.45,37.148z M268.538,27.633
		c-0.562-0.516-1.245-0.775-2.052-0.775s-1.545,0.271-2.215,0.807c-0.67,0.537-1.06,1.263-1.168,2.177h6.412
		C269.426,28.887,269.1,28.15,268.538,27.633z"/>
</g>
<g>
	<g>
		<g>
			<g>
				<path fill="#4192B6" d="M19.908,19.843c-0.161,7.594-0.278,13.991-0.266,21.498c-0.125,1.63,0.742,2.875,1.947,2.795
					c7.023-0.479,14.04-0.898,21.05-1.254c1.893,1.966,3.775,3.859,5.65,5.687c0.228-1.967,0.438-3.937,0.63-5.916
					c1.798-0.074,3.597-0.145,5.396-0.215c1.203-0.047,2.26-1.173,2.353-2.516c0.225-6.005,0.112-13.24,0.19-19.543
					c0.018-1.38-0.943-2.598-2.133-2.712c-10.772-1.007-21.824,0.008-32.607-0.703C20.926,16.879,19.942,18.175,19.908,19.843z"/>
				<path fill="#FFFFFF" d="M22.866,39.371c-0.083-0.271-0.119-0.576-0.098-0.898c-0.046-5.223-0.171-10.248-0.02-15.954
					c5.188,3.612,8.247,5.037,10.525,6.793C29.862,32.515,26.396,35.868,22.866,39.371z"/>
				<path fill="#FFFFFF" d="M34.083,29.904c1.562,1.206,3.122,2.384,4.677,3.532c1.687-1.161,3.363-2.292,5.033-3.392
					c3.225,3.213,6.423,6.254,9.6,9.13c-0.33,0.259-0.736,0.421-1.164,0.431c-1.606,0.038-3.212,0.081-4.82,0.127
					c-0.098,1.422-0.203,2.839-0.318,4.252c-1.139-1.35-2.283-2.727-3.432-4.137c-6.394,0.2-12.792,0.455-19.195,0.754
					c-0.425,0.021-0.801-0.127-1.091-0.4C27.005,36.614,30.573,33.181,34.083,29.904z"/>
				<path fill="#FFFFFF" d="M44.65,29.511c3.545-2.786,6.114-4.854,9.576-7.185c0.09,5.591,0.266,10.57-0.028,15.345
					c-0.017,0.266-0.085,0.518-0.197,0.751C50.906,35.608,47.792,32.641,44.65,29.511z"/>
				<path fill="#4192B6" d="M53.999,20.362c-5.496-0.202-10.917,0.529-16.42,0.444c-4.839-0.535-10.028-0.057-14.867-0.568
					c-0.671-0.89-1.346-1.79-2.021-2.697c5.946-5.415,12.089-11.368,17.76-15.845c6,6.323,11.818,11.291,17.637,16.66
					C55.395,19.016,54.698,19.684,53.999,20.362z"/>
				<path fill="#FFFFFF" d="M23.125,19.456c6.236,4.621,8.779,6.044,15.775,10.727l14.922-10.67L38.307,5.307L23.125,19.456z"/>
			</g>
		</g>
	</g>
</g>
</svg>
