<?xml version="1.0" encoding="utf-8"?>
<!-- Generator: Adobe Illustrator 16.0.0, SVG Export Plug-In . SVG Version: 6.00 Build 0)  -->
<!DOCTYPE svg PUBLIC "-//W3C//DTD SVG 1.1//EN" "http://www.w3.org/Graphics/SVG/1.1/DTD/svg11.dtd">
<svg version="1.1" id="Layer_1" xmlns="http://www.w3.org/2000/svg" xmlns:xlink="http://www.w3.org/1999/xlink" x="0px" y="0px"
	 width="290px" height="51px" viewBox="0 0 290 51" enable-background="new 0 0 290 51" xml:space="preserve">
<g>
	<path fill="#FFFFFF" d="M71.61,22.757c-0.861,0-1.568,0.192-2.12,0.578c-0.552,0.386-0.828,0.969-0.828,1.749
		c0,0.78,0.276,1.376,0.828,1.791c0.552,0.412,1.727,0.857,3.525,1.336c1.797,0.477,3.152,1.146,4.064,2.01
		c0.911,0.863,1.367,2.135,1.367,3.814c0,1.679-0.577,3.043-1.731,4.09c-1.154,1.047-2.668,1.57-4.541,1.57
		c-2.743,0-5.176-1.037-7.3-3.112l1.856-2.451c1.772,1.688,3.613,2.534,5.52,2.534c0.953,0,1.709-0.225,2.27-0.676
		c0.56-0.449,0.84-1.047,0.84-1.789c0-0.744-0.263-1.322-0.79-1.736c-0.527-0.412-1.434-0.789-2.722-1.129
		c-1.288-0.34-2.266-0.65-2.935-0.936c-0.669-0.286-1.263-0.656-1.781-1.116c-1.037-0.862-1.555-2.185-1.555-3.966
		c0-1.781,0.589-3.153,1.769-4.117c1.18-0.964,2.638-1.446,4.378-1.446c1.12,0,2.232,0.203,3.336,0.606
		c1.104,0.404,2.057,0.974,2.86,1.708l-1.581,2.451c-0.519-0.514-1.221-0.936-2.107-1.267C73.346,22.922,72.472,22.757,71.61,22.757
		z"/>
	<path fill="#FFFFFF" d="M90.89,32.754v-7.931h2.81v14.651h-2.81v-2.674c-0.452,0.9-1.075,1.607-1.869,2.121
		c-0.794,0.516-1.652,0.771-2.571,0.771c-1.505,0-2.722-0.506-3.65-1.517c-0.928-1.011-1.393-2.47-1.393-4.38V24.82h2.81v8.042
		c0,2.699,1.02,4.05,3.061,4.05c0.97,0,1.814-0.354,2.534-1.062S90.89,34.113,90.89,32.754z"/>
	<path fill="#FFFFFF" d="M104.914,24.603c1.789,0,3.319,0.679,4.591,2.038c1.271,1.359,1.907,3.168,1.907,5.426
		c0,2.261-0.632,4.097-1.894,5.511c-1.263,1.414-2.735,2.118-4.416,2.118s-3.19-0.809-4.528-2.424v2.203h-2.81V19.039h2.81v8.345
		C101.677,25.53,103.124,24.603,104.914,24.603z M100.523,32.176c0,1.396,0.385,2.539,1.154,3.43
		c0.769,0.894,1.706,1.336,2.81,1.336s2.065-0.438,2.885-1.319c0.819-0.882,1.229-2.022,1.229-3.433
		c0-1.401-0.401-2.567-1.204-3.496c-0.803-0.928-1.765-1.393-2.885-1.393c-1.121,0-2.066,0.465-2.835,1.393
		C100.908,29.619,100.523,30.781,100.523,32.176z"/>
	<path fill="#FFFFFF" d="M124.13,35.096c0,1.396-0.46,2.512-1.38,3.346c-0.92,0.836-2.099,1.254-3.537,1.254
		c-0.97,0-1.978-0.19-3.023-0.575c-1.045-0.39-1.969-0.931-2.772-1.625l1.355-2.396c1.555,1.283,3.061,1.928,4.516,1.928
		c0.635,0,1.137-0.159,1.505-0.481c0.368-0.319,0.552-0.729,0.552-1.226c0-0.733-0.887-1.396-2.659-1.982
		c-0.134-0.057-0.234-0.092-0.301-0.109c-2.776-0.826-4.164-2.203-4.164-4.131c0-1.358,0.48-2.447,1.442-3.265
		c0.961-0.817,2.211-1.226,3.75-1.226s2.994,0.496,4.365,1.487l-1.054,2.285c-1.087-0.789-2.267-1.186-3.537-1.186
		c-0.669,0-1.213,0.135-1.631,0.398c-0.418,0.268-0.627,0.665-0.627,1.198c0,0.478,0.217,0.826,0.652,1.046
		c0.301,0.165,0.724,0.321,1.267,0.469s1.024,0.295,1.442,0.44s0.824,0.312,1.217,0.496c0.393,0.184,0.815,0.438,1.267,0.771
		C123.679,32.672,124.13,33.7,124.13,35.096z"/>
	<path fill="#FFFFFF" d="M133.237,39.695c-1.856,0-3.454-0.693-4.792-2.08c-1.338-1.387-2.007-3.199-2.007-5.439
		c0-2.238,0.698-4.062,2.095-5.467c1.396-1.404,3.098-2.106,5.105-2.106c2.007,0,3.705,0.762,5.093,2.286l-1.656,2.23
		c-1.154-1.102-2.316-1.652-3.487-1.652s-2.187,0.428-3.048,1.28c-0.862,0.854-1.292,1.956-1.292,3.306s0.426,2.492,1.279,3.428
		c0.853,0.938,1.902,1.405,3.148,1.405c1.246,0,2.421-0.624,3.525-1.872l1.656,1.982C137.234,38.795,135.361,39.695,133.237,39.695z
		"/>
	<path fill="#FFFFFF" d="M148.766,27.715c-1.389,0-2.434,0.496-3.136,1.486c-0.703,0.992-1.054,2.324-1.054,3.994v6.279h-2.81
		V24.823h2.81v2.946c0.452-0.918,1.066-1.67,1.844-2.257c0.778-0.587,1.602-0.89,2.471-0.909l0.025,3.112
		C148.866,27.715,148.816,27.715,148.766,27.715z"/>
	<path fill="#FFFFFF" d="M151.9,21.903c-0.353-0.386-0.525-0.844-0.525-1.377c0-0.532,0.176-0.992,0.525-1.377
		c0.353-0.386,0.77-0.579,1.256-0.579c0.484,0,0.902,0.193,1.254,0.579c0.352,0.385,0.527,0.845,0.527,1.377
		c0,0.533-0.178,0.991-0.527,1.377c-0.352,0.386-0.77,0.578-1.254,0.578C152.67,22.481,152.253,22.289,151.9,21.903z
		 M154.535,39.475h-2.809V24.823h2.809V39.475z"/>
	<path fill="#FFFFFF" d="M165.75,24.603c1.789,0,3.318,0.679,4.59,2.038c1.271,1.359,1.907,3.168,1.907,5.426
		c0,2.261-0.632,4.097-1.894,5.511c-1.267,1.414-2.735,2.118-4.416,2.118c-1.684,0-3.19-0.809-4.528-2.424v2.203h-2.81V19.039h2.81
		v8.345C162.514,25.53,163.959,24.603,165.75,24.603z M161.359,32.176c0,1.396,0.385,2.539,1.154,3.43
		c0.769,0.894,1.702,1.336,2.809,1.336c1.104,0,2.066-0.438,2.886-1.319c0.819-0.882,1.229-2.022,1.229-3.433
		c0-1.401-0.402-2.567-1.205-3.496c-0.803-0.928-1.767-1.393-2.885-1.393c-1.121,0-2.065,0.465-2.834,1.393
		C161.744,29.619,161.359,30.781,161.359,32.176z"/>
	<path fill="#FFFFFF" d="M187.876,33.498h-10.462c0.066,1.064,0.511,1.924,1.33,2.575c0.818,0.651,1.756,0.978,2.811,0.978
		c1.672,0,2.943-0.578,3.812-1.734l1.605,1.931c-1.438,1.634-3.312,2.448-5.619,2.448c-1.873,0-3.467-0.684-4.779-2.053
		c-1.312-1.367-1.969-3.203-1.969-5.508c0-2.304,0.668-4.135,2.006-5.494c1.338-1.356,2.914-2.038,4.729-2.038
		s3.357,0.602,4.628,1.804s1.907,2.858,1.907,4.971L187.876,33.498L187.876,33.498z M177.414,31.074h7.652
		c0-1.229-0.354-2.176-1.055-2.836c-0.701-0.662-1.566-0.992-2.599-0.992c-1.026,0-1.953,0.345-2.771,1.033
		C177.824,28.967,177.414,29.9,177.414,31.074z"/>
	<path fill="#FFFFFF" d="M197.961,27.715c-1.389,0-2.434,0.496-3.136,1.486c-0.702,0.992-1.054,2.324-1.054,3.994v6.279h-2.812
		V24.823h2.812v2.946c0.451-0.918,1.063-1.67,1.844-2.257c0.777-0.587,1.602-0.89,2.471-0.909l0.025,3.112
		C198.062,27.715,198.012,27.715,197.961,27.715z"/>
</g>
<g>
	<path fill="#FFFFFF" d="M208.387,31.898l4.836-13.273h4.592l-7.635,20.85h-3.587l-7.635-20.85h4.592L208.387,31.898z"/>
	<path fill="#FFFFFF" d="M233.027,31.451c0,2.326-0.732,4.285-2.199,5.876s-3.311,2.386-5.529,2.386
		c-2.218,0-4.062-0.795-5.529-2.386s-2.199-3.55-2.199-5.876s0.732-4.29,2.199-5.891s3.312-2.401,5.529-2.401
		c2.219,0,4.062,0.801,5.529,2.401S233.027,29.125,233.027,31.451z M221.672,31.451c0,1.312,0.34,2.381,1.02,3.207
		c0.681,0.824,1.551,1.236,2.607,1.236c1.059,0,1.93-0.412,2.608-1.236c0.679-0.826,1.019-1.895,1.019-3.207
		s-0.34-2.387-1.019-3.221c-0.679-0.836-1.55-1.254-2.608-1.254c-1.058,0-1.93,0.418-2.607,1.254
		C222.012,29.064,221.672,30.139,221.672,31.451z"/>
	<path fill="#FFFFFF" d="M236.383,21.385c-0.461-0.507-0.691-1.128-0.691-1.864c0-0.735,0.23-1.357,0.691-1.864
		c0.463-0.507,1.028-0.761,1.699-0.761c0.67,0,1.236,0.254,1.697,0.761c0.462,0.507,0.693,1.129,0.693,1.864
		c0,0.736-0.231,1.357-0.693,1.864c-0.461,0.507-1.027,0.76-1.697,0.76C237.411,22.145,236.846,21.892,236.383,21.385z
		 M240.119,39.475h-4.075V23.428h4.075V39.475z"/>
	<path fill="#FFFFFF" d="M250.986,35.746c1.359,0,2.582-0.746,3.668-2.236l2.418,2.982c-1.885,2.146-3.922,3.221-6.113,3.221
		s-4.043-0.76-5.557-2.281c-1.512-1.521-2.271-3.51-2.271-5.965c0-2.457,0.767-4.455,2.298-5.996
		c1.528-1.541,3.346-2.312,5.445-2.312c1.05,0,2.113,0.239,3.189,0.716c1.078,0.478,2.023,1.184,2.843,2.118l-2.12,3.042
		c-0.475-0.616-1.046-1.094-1.729-1.432c-0.679-0.338-1.354-0.508-2.021-0.508c-1.065,0-1.988,0.383-2.759,1.146
		c-0.771,0.766-1.153,1.829-1.153,3.188c0,1.363,0.388,2.422,1.153,3.178C249.051,35.368,249.954,35.746,250.986,35.746z"/>
	<path fill="#FFFFFF" d="M272.45,37.148c-1.648,1.709-3.582,2.562-5.802,2.562c-2.219,0-4.053-0.75-5.5-2.252
		c-1.449-1.501-2.174-3.517-2.174-6.039s0.734-4.534,2.213-6.025c1.477-1.492,3.221-2.237,5.229-2.237
		c2.014,0,3.719,0.667,5.122,1.999c1.401,1.333,2.104,3.16,2.104,5.486v2.389h-10.649c0.127,0.875,0.544,1.591,1.25,2.146
		c0.706,0.558,1.503,0.837,2.394,0.837c1.43,0,2.605-0.525,3.529-1.582L272.45,37.148z M268.538,27.633
		c-0.562-0.516-1.245-0.775-2.052-0.775s-1.545,0.271-2.215,0.809s-1.062,1.264-1.168,2.177h6.412
		C269.426,28.887,269.1,28.15,268.538,27.633z"/>
</g>
<g>
	<g>
		<g>
			<g>
				<path fill="#FFFFFF" d="M39.628,30.564l-13.117-6.263c-0.327-3.613-0.723-7.248-1.152-10.892
					c-1.55,1.726-3.105,3.479-4.672,5.29c0.014,0.014,0.027,0.028,0.041,0.042c-0.414,0.577-0.636,1.411-0.545,2.335
					c0.74,7.559,1.265,15.052,1.579,22.471c0.068,1.633,1.077,2.766,2.265,2.545c6.917-1.31,13.834-2.557,20.753-3.74
					c2.112,1.729,4.206,3.388,6.284,4.979c-0.007-1.979-0.032-3.961-0.075-5.948c1.777-0.285,3.554-0.568,5.332-0.854
					c1.189-0.188,2.106-1.432,2.038-2.774c-0.314-6.146-0.803-12.358-1.472-18.626c-0.083-0.778-0.478-1.459-1.017-1.905
					c0.004-0.005,0.009-0.01,0.013-0.015c-1.953-1.413-3.922-2.884-5.9-4.383c0.411,3.317,0.791,6.625,1.105,9.911L39.628,30.564z"
					/>
				<path fill="#FFFFFF" d="M45.16,9.111c-2.953-2.315-5.93-4.71-8.945-7.213C33.93,4.19,31.63,6.594,29.317,9.081
					C34.595,9.055,39.875,9.065,45.16,9.111z"/>
			</g>
			<path fill="#4192B6" d="M24.729,41.21c-0.115-0.259-0.186-0.558-0.203-0.88c-0.28-5.604-0.681-11.248-1.206-16.932
				c3.545,2.311,7.062,4.508,10.552,6.59C30.864,33.573,27.819,37.314,24.729,41.21z"/>
			<path fill="#4192B6" d="M34.746,30.48c1.694,1.014,3.382,1.998,5.063,2.955c1.537-1.354,3.068-2.677,4.596-3.965
				c3.582,2.809,7.118,5.447,10.613,7.928c-0.297,0.297-0.681,0.506-1.105,0.564c-1.59,0.229-3.18,0.461-4.77,0.696
				c0.071,1.424,0.134,2.844,0.187,4.261c-1.291-1.205-2.59-2.438-3.898-3.699c-6.324,0.954-12.647,1.967-18.97,3.021
				c-0.419,0.069-0.811-0.032-1.131-0.271C28.513,37.982,31.649,34.15,34.746,30.48z"/>
			<path fill="#4192B6" d="M45.192,28.838c3.12-2.613,6.223-5.104,9.311-7.465c0.484,4.848,0.862,9.662,1.136,14.438
				c0.015,0.268-0.023,0.524-0.107,0.771C52.126,34.152,48.682,31.574,45.192,28.838z"/>
			<path opacity="0.6" fill="#FFFFFF" d="M46.28,15.202c0.01,0.087-0.357,0.168-0.82,0.18c-5.032,0.125-10.062,0.283-15.088,0.472
				c-0.462,0.017-0.847-0.047-0.857-0.143c-0.118-1.05-0.24-2.101-0.367-3.153c-0.012-0.097,0.354-0.183,0.817-0.193
				c5.032-0.104,10.067-0.175,15.106-0.215c0.464-0.003,0.849,0.066,0.859,0.155C46.051,13.271,46.168,14.237,46.28,15.202z"/>
		</g>
		<path opacity="0.6" fill="#FFFFFF" d="M40.093,23.798c0.021,0.215-0.176,0.407-0.44,0.43c-2.869,0.234-5.738,0.479-8.605,0.736
			c-0.264,0.021-0.495-0.144-0.516-0.367c-0.238-2.466-0.5-4.94-0.787-7.422c-0.027-0.23,0.165-0.425,0.43-0.437
			c2.873-0.142,5.748-0.271,8.623-0.39c0.265-0.011,0.501,0.158,0.527,0.374C39.603,19.088,39.859,21.447,40.093,23.798z"/>
		<path opacity="0.6" fill="#FFFFFF" d="M47.243,23.283c0.021,0.207-0.095,0.387-0.257,0.4c-1.771,0.132-3.542,0.269-5.312,0.41
			c-0.163,0.011-0.312-0.152-0.333-0.364c-0.233-2.336-0.489-4.68-0.768-7.032c-0.026-0.217,0.085-0.398,0.249-0.404
			c1.774-0.07,3.548-0.135,5.323-0.197c0.163-0.006,0.316,0.161,0.34,0.368C46.761,18.746,47.013,21.019,47.243,23.283z"/>
	</g>
</g>
</svg>
