<?xml version="1.0" encoding="utf-8"?>
<!-- Generator: Adobe Illustrator 16.0.0, SVG Export Plug-In . SVG Version: 6.00 Build 0)  -->
<!DOCTYPE svg PUBLIC "-//W3C//DTD SVG 1.1//EN" "http://www.w3.org/Graphics/SVG/1.1/DTD/svg11.dtd">
<svg version="1.1" id="Layer_1" xmlns="http://www.w3.org/2000/svg" xmlns:xlink="http://www.w3.org/1999/xlink" x="0px" y="0px"
	 width="252.936px" height="90.334px" viewBox="0 0 252.936 90.334" enable-background="new 0 0 252.936 90.334"
	 xml:space="preserve">
<g>
	<path d="M73.302,29.56h139.651c14.651,0,26.565,9.998,26.565,22.291c0.001,12.287-11.913,22.287-26.566,22.287H65.718l9.375-3.535
		h137.859c12.644,0,22.929-8.41,22.929-18.754s-10.284-18.759-22.93-18.759H76.635L73.302,29.56z"/>
</g>
<g>
	<path d="M87.789,47.458c-0.607,0-1.107,0.135-1.497,0.408c-0.393,0.273-0.585,0.685-0.585,1.232c0,0.553,0.192,0.973,0.585,1.268
		c0.389,0.29,1.219,0.604,2.489,0.941c1.269,0.338,2.226,0.812,2.868,1.422c0.646,0.605,0.968,1.506,0.968,2.688
		c0,1.188-0.407,2.147-1.226,2.894c-0.812,0.736-1.884,1.104-3.207,1.104c-1.937,0-3.652-0.729-5.152-2.198l1.311-1.729
		c1.251,1.189,2.551,1.787,3.898,1.787c0.674,0,1.208-0.157,1.604-0.479c0.396-0.316,0.593-0.738,0.593-1.263
		c0-0.525-0.187-0.935-0.559-1.228c-0.371-0.291-1.012-0.56-1.921-0.798c-0.91-0.239-1.603-0.46-2.072-0.659
		c-0.473-0.201-0.893-0.466-1.259-0.789c-0.732-0.608-1.101-1.541-1.101-2.802c0-1.259,0.416-2.228,1.25-2.905
		c0.833-0.684,1.862-1.021,3.094-1.021c0.791,0,1.574,0.142,2.354,0.426c0.78,0.287,1.453,0.689,2.021,1.207L91.13,48.7
		c-0.368-0.364-0.863-0.662-1.489-0.896C89.016,47.575,88.397,47.458,87.789,47.458z"/>
	<path d="M101.405,54.519v-5.601h1.985v10.347h-1.985v-1.888c-0.315,0.636-0.759,1.136-1.317,1.498
		c-0.562,0.362-1.167,0.544-1.815,0.544c-1.062,0-1.923-0.355-2.578-1.068c-0.653-0.715-0.98-1.744-0.98-3.093v-6.342h1.981v5.679
		c0,1.907,0.723,2.861,2.162,2.861c0.688,0,1.281-0.251,1.789-0.751C101.152,56.206,101.405,55.478,101.405,54.519z"/>
	<path d="M111.309,48.761c1.263,0,2.344,0.48,3.242,1.44s1.348,2.235,1.348,3.832c0,1.595-0.443,2.89-1.337,3.888
		c-0.893,1.001-1.932,1.498-3.119,1.498c-1.187,0-2.253-0.57-3.195-1.711v1.557h-1.984V44.833h1.984v5.893
		C109.023,49.416,110.044,48.761,111.309,48.761z M108.207,54.11c0,0.986,0.271,1.791,0.813,2.423
		c0.543,0.629,1.205,0.942,1.984,0.942s1.459-0.312,2.038-0.936c0.578-0.624,0.867-1.432,0.867-2.424
		c0-0.991-0.283-1.812-0.853-2.471c-0.564-0.652-1.247-0.981-2.037-0.981c-0.792,0-1.459,0.329-2.002,0.981
		C108.478,52.302,108.207,53.124,108.207,54.11z"/>
	<path d="M124.879,56.172c0,0.985-0.324,1.772-0.977,2.362c-0.646,0.59-1.479,0.885-2.496,0.885c-0.688,0-1.396-0.134-2.138-0.406
		c-0.734-0.271-1.39-0.656-1.958-1.146l0.958-1.69c1.102,0.906,2.162,1.36,3.189,1.36c0.448,0,0.803-0.113,1.062-0.341
		c0.263-0.229,0.394-0.518,0.394-0.865c0-0.521-0.627-0.984-1.878-1.396c-0.097-0.041-0.166-0.064-0.212-0.08
		c-1.963-0.582-2.941-1.558-2.941-2.916c0-0.961,0.339-1.729,1.019-2.307c0.682-0.576,1.562-0.863,2.648-0.863
		s2.115,0.351,3.083,1.049l-0.744,1.613c-0.769-0.559-1.602-0.837-2.498-0.837c-0.474,0-0.854,0.097-1.151,0.28
		c-0.296,0.188-0.441,0.47-0.441,0.848c0,0.338,0.154,0.584,0.46,0.736c0.212,0.118,0.511,0.229,0.895,0.33
		c0.386,0.105,0.726,0.209,1.021,0.312c0.294,0.104,0.581,0.221,0.855,0.352c0.278,0.13,0.577,0.311,0.896,0.544
		C124.56,54.461,124.879,55.187,124.879,56.172z"/>
	<path d="M131.312,59.419c-1.312,0-2.438-0.488-3.385-1.469c-0.945-0.979-1.418-2.26-1.418-3.84c0-1.582,0.492-2.869,1.479-3.861
		c0.985-0.991,2.188-1.488,3.604-1.488c1.418,0,2.617,0.54,3.599,1.615l-1.17,1.575c-0.812-0.778-1.636-1.168-2.464-1.168
		c-0.827,0-1.543,0.303-2.151,0.905c-0.605,0.602-0.91,1.381-0.91,2.334s0.301,1.76,0.901,2.42c0.604,0.664,1.346,0.992,2.226,0.992
		s1.711-0.439,2.485-1.322l1.172,1.402C134.134,58.783,132.81,59.419,131.312,59.419z"/>
	<path d="M142.278,50.959c-0.979,0-1.719,0.351-2.215,1.05c-0.496,0.7-0.745,1.643-0.745,2.821v4.435h-1.98V48.918h1.98v2.079
		c0.319-0.646,0.758-1.18,1.306-1.594c0.55-0.416,1.131-0.629,1.745-0.646l0.02,2.198C142.348,50.959,142.313,50.959,142.278,50.959
		z"/>
	<path d="M144.49,46.854c-0.248-0.271-0.371-0.599-0.371-0.976c0-0.375,0.123-0.701,0.371-0.972c0.25-0.273,0.544-0.409,0.887-0.409
		c0.342,0,0.639,0.136,0.887,0.409c0.246,0.271,0.372,0.597,0.372,0.972c0,0.377-0.126,0.701-0.372,0.976
		c-0.248,0.271-0.545,0.41-0.887,0.41C145.034,47.265,144.74,47.126,144.49,46.854z M146.352,59.265h-1.98V48.918h1.98V59.265z"/>
	<path d="M154.271,48.761c1.268,0,2.348,0.48,3.241,1.44c0.898,0.96,1.348,2.235,1.348,3.832c0,1.595-0.442,2.89-1.338,3.888
		c-0.892,1.001-1.931,1.498-3.118,1.498c-1.187,0-2.254-0.57-3.192-1.711v1.557h-1.985V44.833h1.985v5.893
		C151.985,49.416,153.006,48.761,154.271,48.761z M151.17,54.11c0,0.986,0.271,1.791,0.812,2.423
		c0.544,0.629,1.205,0.942,1.984,0.942c0.781,0,1.459-0.312,2.037-0.936c0.578-0.624,0.87-1.432,0.87-2.424
		c0-0.991-0.285-1.812-0.854-2.471c-0.564-0.652-1.248-0.981-2.037-0.981c-0.793,0-1.46,0.329-2.004,0.981
		C151.444,52.304,151.17,53.124,151.17,54.11z"/>
	<path d="M169.898,55.042h-7.389c0.048,0.754,0.36,1.359,0.939,1.82c0.576,0.461,1.238,0.688,1.981,0.688
		c1.182,0,2.08-0.406,2.692-1.227l1.133,1.361c-1.014,1.151-2.339,1.729-3.969,1.729c-1.321,0-2.445-0.481-3.373-1.448
		c-0.93-0.966-1.394-2.265-1.394-3.89c0-1.628,0.475-2.92,1.418-3.88c0.942-0.961,2.06-1.44,3.337-1.44
		c1.282,0,2.373,0.427,3.271,1.275c0.896,0.85,1.347,2.021,1.347,3.51L169.898,55.042L169.898,55.042z M162.509,53.332h5.405
		c0-0.869-0.251-1.537-0.746-2.003c-0.495-0.469-1.106-0.701-1.833-0.701c-0.729,0-1.38,0.243-1.959,0.729
		C162.799,51.844,162.509,52.503,162.509,53.332z"/>
	<path d="M177.02,50.959c-0.979,0-1.719,0.351-2.214,1.05c-0.497,0.7-0.745,1.643-0.745,2.821v4.435h-1.981V48.918h1.981v2.079
		c0.319-0.646,0.753-1.18,1.301-1.594c0.554-0.416,1.136-0.629,1.746-0.646l0.021,2.198
		C177.091,50.959,177.055,50.959,177.02,50.959z"/>
</g>
<g>
	<path d="M184.382,53.914l3.415-9.374h3.243l-5.396,14.723h-2.529L177.72,44.54h3.243L184.382,53.914z"/>
	<path d="M201.784,53.597c0,1.646-0.521,3.028-1.558,4.149c-1.035,1.125-2.338,1.685-3.9,1.685c-1.567,0-2.87-0.56-3.905-1.685
		c-1.037-1.121-1.555-2.505-1.555-4.149c0-1.642,0.518-3.029,1.555-4.16c1.035-1.131,2.338-1.691,3.905-1.691
		c1.562,0,2.865,0.562,3.9,1.691C201.267,50.567,201.784,51.955,201.784,53.597z M193.762,53.597c0,0.93,0.242,1.686,0.723,2.266
		c0.479,0.582,1.098,0.875,1.845,0.875c0.748,0,1.359-0.293,1.842-0.875c0.479-0.58,0.719-1.336,0.719-2.266
		c0-0.926-0.24-1.686-0.719-2.271c-0.479-0.593-1.094-0.89-1.842-0.89c-0.747,0-1.363,0.297-1.845,0.89
		C194.004,51.911,193.762,52.671,193.762,53.597z"/>
	<path d="M204.154,46.489c-0.323-0.359-0.486-0.797-0.486-1.316c0-0.519,0.163-0.959,0.486-1.316
		c0.327-0.358,0.729-0.538,1.199-0.538c0.474,0,0.875,0.179,1.198,0.538c0.328,0.357,0.49,0.797,0.49,1.316
		c0,0.52-0.162,0.957-0.49,1.316c-0.323,0.359-0.727,0.535-1.198,0.535C204.882,47.024,204.481,46.849,204.154,46.489z
		 M206.79,59.265h-2.875V47.933h2.875V59.265z"/>
	<path d="M214.467,56.63c0.96,0,1.823-0.525,2.589-1.578l1.709,2.105c-1.332,1.517-2.77,2.273-4.314,2.273
		c-1.552,0-2.856-0.535-3.928-1.609c-1.063-1.073-1.604-2.479-1.604-4.213c0-1.735,0.541-3.146,1.622-4.233
		c1.082-1.089,2.361-1.633,3.849-1.633c0.741,0,1.494,0.167,2.253,0.506c0.762,0.337,1.428,0.836,2.006,1.496l-1.496,2.147
		c-0.335-0.438-0.736-0.772-1.222-1.015c-0.479-0.235-0.954-0.354-1.427-0.354c-0.755,0-1.403,0.27-1.947,0.809
		c-0.544,0.542-0.812,1.294-0.812,2.253c0,0.964,0.271,1.711,0.812,2.246C213.101,56.362,213.739,56.63,214.467,56.63z"/>
	<path d="M229.623,57.62c-1.162,1.208-2.529,1.811-4.1,1.811c-1.563,0-2.859-0.527-3.884-1.591
		c-1.021-1.059-1.535-2.481-1.535-4.263c0-1.783,0.521-3.204,1.563-4.258c1.042-1.053,2.271-1.577,3.69-1.577
		c1.422,0,2.626,0.47,3.615,1.411c0.991,0.938,1.487,2.23,1.487,3.875v1.688h-7.521c0.092,0.616,0.388,1.121,0.884,1.516
		c0.5,0.396,1.062,0.59,1.689,0.59c1.01,0,1.839-0.369,2.493-1.114L229.623,57.62z M226.861,50.901
		c-0.396-0.364-0.878-0.549-1.444-0.549c-0.571,0-1.095,0.189-1.564,0.568s-0.749,0.893-0.825,1.537h4.528
		C227.49,51.786,227.259,51.267,226.861,50.901z"/>
</g>
<g>
	<g>
		<g>
			<path d="M57.516,16.203C52.23,12.06,46.901,7.772,41.505,3.292c-4.09,4.103-8.208,8.406-12.348,12.858
				C38.605,16.104,48.055,16.122,57.516,16.203z"/>
			<path d="M78.509,34.136c-0.15-1.393-0.857-2.612-1.822-3.409c0.008-0.01,0.018-0.019,0.023-0.027
				c-3.494-2.53-7.021-5.162-10.561-7.846c0.734,5.938,1.416,11.859,1.978,17.741L47.614,54.604l-23.479-11.21
				c-0.585-6.467-1.294-12.974-2.062-19.496c-2.774,3.089-5.559,6.227-8.363,9.469c0.025,0.025,0.048,0.05,0.074,0.076
				c-0.742,1.032-1.14,2.525-0.977,4.179c1.324,13.529,2.266,26.941,2.827,40.223c0.122,2.924,1.927,4.95,4.053,4.557
				c12.382-2.346,24.764-4.577,37.148-6.695c3.781,3.096,7.526,6.066,11.247,8.913c-0.01-3.543-0.056-7.089-0.133-10.646
				c3.181-0.513,6.361-1.019,9.545-1.529c2.127-0.336,3.769-2.562,3.646-4.967C80.58,56.476,79.704,45.356,78.509,34.136z
				 M20.581,72.086c-0.5-10.03-1.219-20.134-2.159-30.309c6.346,4.137,12.641,8.07,18.889,11.797
				c-5.385,6.417-10.835,13.112-16.366,20.086C20.739,73.198,20.612,72.663,20.581,72.086z M73.183,67.847
				c-2.845,0.41-5.69,0.824-8.537,1.246c0.125,2.549,0.238,5.092,0.333,7.626c-2.311-2.155-4.636-4.364-6.977-6.618
				c-11.321,1.705-22.639,3.521-33.957,5.408c-0.75,0.121-1.451-0.059-2.024-0.486c5.696-7.14,11.31-13.998,16.854-20.566
				c3.031,1.814,6.053,3.576,9.062,5.289c2.751-2.424,5.491-4.794,8.227-7.098c6.413,5.027,12.74,9.75,18.999,14.19
				C74.632,67.369,73.942,67.743,73.183,67.847z M76.082,65.376c-6.098-4.35-12.262-8.963-18.509-13.861
				c5.584-4.678,11.139-9.136,16.667-13.362c0.866,8.676,1.543,17.293,2.034,25.843C76.299,64.478,76.232,64.935,76.082,65.376z"/>
			<path d="M59.52,27.107c0.02,0.156-0.639,0.3-1.467,0.322c-9.007,0.224-18.011,0.506-27.007,0.845
				c-0.827,0.031-1.518-0.083-1.534-0.255c-0.211-1.879-0.43-3.761-0.657-5.644c-0.021-0.174,0.634-0.328,1.463-0.345
				c9.008-0.188,18.021-0.314,27.039-0.386c0.831-0.005,1.521,0.118,1.538,0.278C59.111,23.65,59.321,25.379,59.52,27.107z"/>
		</g>
		<path d="M48.446,42.493c0.038,0.386-0.313,0.729-0.786,0.771c-5.136,0.419-10.271,0.857-15.403,1.317
			c-0.473,0.037-0.885-0.258-0.923-0.656c-0.427-4.415-0.896-8.842-1.409-13.286c-0.049-0.412,0.296-0.76,0.769-0.782
			c5.145-0.254,10.29-0.486,15.437-0.698c0.475-0.02,0.896,0.282,0.944,0.669C47.569,34.062,48.027,38.285,48.446,42.493z"/>
		<path d="M61.244,41.572c0.039,0.37-0.171,0.692-0.461,0.715c-3.17,0.236-6.34,0.481-9.509,0.733
			c-0.291,0.02-0.559-0.272-0.596-0.651c-0.417-4.182-0.875-8.378-1.374-12.588c-0.047-0.388,0.153-0.711,0.445-0.722
			c3.176-0.125,6.351-0.241,9.527-0.353c0.292-0.011,0.565,0.288,0.608,0.658C60.382,33.451,60.832,37.519,61.244,41.572z"/>
	</g>
</g>
</svg>
