<?xml version="1.0" encoding="utf-8"?>
<!-- Generator: Adobe Illustrator 16.0.0, SVG Export Plug-In . SVG Version: 6.00 Build 0)  -->
<!DOCTYPE svg PUBLIC "-//W3C//DTD SVG 1.1//EN" "http://www.w3.org/Graphics/SVG/1.1/DTD/svg11.dtd">
<svg version="1.1" id="Layer_1" xmlns="http://www.w3.org/2000/svg" xmlns:xlink="http://www.w3.org/1999/xlink" x="0px" y="0px"
	 width="252.936px" height="90.334px" viewBox="0 0 252.936 90.334" enable-background="new 0 0 252.936 90.334"
	 xml:space="preserve">
<g>
	<path fill="#FFFFFF" d="M237.699,51.849c0,11.332-11.082,20.521-24.748,20.521H57.612c-13.668,0-24.75-9.188-24.75-20.521l0,0
		c0-11.333,11.082-20.522,24.75-20.522h155.341C226.617,31.325,237.699,40.513,237.699,51.849L237.699,51.849z"/>
	<path fill="#4192B6" d="M212.951,74.138H57.612c-14.648,0-26.569-10-26.569-22.287c0-12.292,11.921-22.291,26.569-22.291h155.341
		c14.652,0,26.566,9.998,26.566,22.291C239.52,64.138,227.606,74.138,212.951,74.138z M57.612,33.09
		c-12.642,0-22.929,8.415-22.929,18.759s10.286,18.754,22.929,18.754h155.341c12.644,0,22.929-8.41,22.929-18.754
		s-10.284-18.759-22.93-18.759H57.612z"/>
</g>
<rect x="101.376" y="46.776" fill="none" width="113.927" height="15.371"/>
<g enable-background="new    ">
	<path fill="#4192B6" d="M87.789,47.458c-0.607,0-1.107,0.135-1.497,0.408c-0.392,0.273-0.585,0.685-0.585,1.232
		c0,0.553,0.193,0.973,0.585,1.268c0.389,0.29,1.219,0.604,2.489,0.941c1.269,0.338,2.226,0.812,2.869,1.422
		c0.646,0.606,0.967,1.506,0.967,2.689c0,1.188-0.407,2.148-1.225,2.893c-0.812,0.737-1.884,1.105-3.207,1.105
		c-1.937,0-3.653-0.729-5.153-2.198l1.311-1.729c1.251,1.19,2.551,1.788,3.898,1.788c0.674,0,1.208-0.158,1.604-0.479
		c0.396-0.316,0.593-0.738,0.593-1.263s-0.187-0.935-0.559-1.228c-0.371-0.291-1.012-0.559-1.921-0.797
		c-0.91-0.24-1.602-0.46-2.072-0.66c-0.473-0.201-0.893-0.465-1.259-0.789c-0.732-0.608-1.1-1.541-1.1-2.801
		c0-1.259,0.416-2.228,1.25-2.906c0.833-0.683,1.862-1.021,3.093-1.021c0.791,0,1.575,0.142,2.354,0.426
		c0.78,0.287,1.453,0.689,2.021,1.207L91.13,48.7c-0.368-0.364-0.863-0.662-1.489-0.896C89.016,47.575,88.397,47.458,87.789,47.458z
		"/>
	<path fill="#4192B6" d="M101.405,54.519v-5.601h1.985v10.347h-1.985v-1.888c-0.316,0.636-0.759,1.136-1.318,1.498
		c-0.562,0.362-1.167,0.544-1.815,0.544c-1.062,0-1.923-0.355-2.578-1.068c-0.654-0.715-0.981-1.744-0.981-3.093v-6.342h1.982v5.679
		c0,1.907,0.722,2.861,2.162,2.861c0.687,0,1.281-0.251,1.789-0.751C101.152,56.206,101.405,55.478,101.405,54.519z"/>
	<path fill="#4192B6" d="M111.309,48.761c1.263,0,2.344,0.48,3.242,1.44s1.348,2.235,1.348,3.832c0,1.595-0.444,2.89-1.337,3.888
		c-0.893,1.001-1.932,1.498-3.119,1.498c-1.187,0-2.253-0.57-3.196-1.711v1.557h-1.984V44.833h1.984v5.893
		C109.023,49.416,110.044,48.761,111.309,48.761z M108.207,54.11c0,0.986,0.271,1.791,0.814,2.423
		c0.543,0.629,1.205,0.942,1.984,0.942s1.459-0.312,2.038-0.935c0.578-0.624,0.867-1.431,0.867-2.424
		c0-0.991-0.283-1.812-0.852-2.47c-0.565-0.653-1.247-0.982-2.037-0.982c-0.792,0-1.459,0.329-2.002,0.982
		C108.478,52.302,108.207,53.124,108.207,54.11z"/>
	<path fill="#4192B6" d="M124.879,56.172c0,0.985-0.324,1.772-0.976,2.362c-0.647,0.59-1.48,0.885-2.497,0.885
		c-0.687,0-1.396-0.134-2.137-0.406c-0.735-0.271-1.39-0.656-1.958-1.146l0.958-1.69c1.101,0.906,2.162,1.36,3.189,1.36
		c0.448,0,0.803-0.113,1.062-0.34c0.262-0.229,0.393-0.518,0.393-0.866c0-0.521-0.627-0.985-1.878-1.397
		c-0.096-0.041-0.166-0.064-0.212-0.08c-1.962-0.582-2.941-1.557-2.941-2.916c0-0.961,0.339-1.729,1.019-2.306
		c0.681-0.577,1.562-0.864,2.648-0.864s2.115,0.351,3.083,1.049l-0.744,1.613c-0.769-0.558-1.602-0.836-2.498-0.836
		c-0.474,0-0.855,0.096-1.151,0.28c-0.296,0.188-0.442,0.47-0.442,0.847c0,0.338,0.154,0.584,0.46,0.737
		c0.212,0.118,0.511,0.229,0.895,0.33c0.385,0.106,0.725,0.209,1.021,0.312c0.294,0.104,0.581,0.221,0.856,0.352
		c0.278,0.13,0.577,0.311,0.896,0.544C124.56,54.461,124.879,55.187,124.879,56.172z"/>
	<path fill="#4192B6" d="M131.312,59.419c-1.312,0-2.438-0.488-3.385-1.469c-0.945-0.979-1.418-2.26-1.418-3.84
		c0-1.582,0.492-2.869,1.479-3.861c0.985-0.991,2.188-1.488,3.604-1.488c1.418,0,2.617,0.54,3.599,1.615l-1.17,1.575
		c-0.813-0.778-1.636-1.168-2.464-1.168c-0.827,0-1.543,0.303-2.151,0.905c-0.606,0.602-0.911,1.381-0.911,2.334
		s0.301,1.76,0.902,2.42c0.604,0.664,1.345,0.992,2.225,0.992s1.711-0.439,2.486-1.322l1.172,1.402
		C134.134,58.783,132.81,59.419,131.312,59.419z"/>
	<path fill="#4192B6" d="M142.278,50.959c-0.979,0-1.719,0.351-2.215,1.05c-0.496,0.7-0.745,1.643-0.745,2.821v4.435h-1.981V48.918
		h1.981v2.079c0.319-0.646,0.757-1.18,1.305-1.594c0.55-0.416,1.131-0.629,1.745-0.645l0.02,2.198
		C142.348,50.959,142.313,50.959,142.278,50.959z"/>
	<path fill="#4192B6" d="M144.49,46.854c-0.248-0.271-0.371-0.598-0.371-0.975c0-0.375,0.123-0.701,0.371-0.972
		c0.25-0.273,0.544-0.409,0.887-0.409c0.342,0,0.639,0.136,0.887,0.409c0.246,0.271,0.372,0.597,0.372,0.972
		c0,0.377-0.126,0.701-0.372,0.975c-0.248,0.271-0.545,0.41-0.887,0.41C145.034,47.265,144.74,47.126,144.49,46.854z
		 M146.352,59.265h-1.981V48.918h1.981V59.265z"/>
	<path fill="#4192B6" d="M154.271,48.761c1.267,0,2.347,0.48,3.241,1.44c0.898,0.96,1.348,2.235,1.348,3.832
		c0,1.595-0.443,2.89-1.338,3.888c-0.892,1.001-1.931,1.498-3.118,1.498c-1.187,0-2.254-0.57-3.193-1.711v1.557h-1.985V44.833h1.985
		v5.893C151.985,49.416,153.006,48.761,154.271,48.761z M151.17,54.11c0,0.986,0.271,1.791,0.812,2.423
		c0.544,0.629,1.205,0.942,1.984,0.942c0.781,0,1.459-0.312,2.037-0.935c0.578-0.624,0.87-1.431,0.87-2.424
		c0-0.991-0.285-1.812-0.853-2.47c-0.565-0.653-1.248-0.982-2.037-0.982c-0.793,0-1.46,0.329-2.004,0.982
		C151.444,52.304,151.17,53.124,151.17,54.11z"/>
	<path fill="#4192B6" d="M169.898,55.042h-7.389c0.048,0.754,0.36,1.359,0.939,1.82c0.577,0.461,1.239,0.688,1.982,0.688
		c1.182,0,2.08-0.407,2.692-1.227l1.133,1.362c-1.014,1.151-2.339,1.729-3.969,1.729c-1.321,0-2.445-0.481-3.373-1.448
		c-0.929-0.966-1.393-2.265-1.393-3.89c0-1.628,0.474-2.92,1.418-3.88c0.942-0.961,2.059-1.44,3.337-1.44
		c1.282,0,2.373,0.427,3.271,1.275c0.896,0.85,1.347,2.021,1.347,3.51L169.898,55.042L169.898,55.042z M162.509,53.332h5.405
		c0-0.869-0.251-1.537-0.746-2.003c-0.495-0.469-1.106-0.701-1.833-0.701c-0.729,0-1.38,0.243-1.959,0.729
		C162.799,51.844,162.509,52.503,162.509,53.332z"/>
	<path fill="#4192B6" d="M177.02,50.959c-0.979,0-1.719,0.351-2.214,1.05c-0.497,0.7-0.745,1.643-0.745,2.821v4.435h-1.982V48.918
		h1.982v2.079c0.319-0.646,0.753-1.18,1.301-1.594c0.553-0.416,1.135-0.629,1.746-0.645l0.021,2.198
		C177.091,50.959,177.055,50.959,177.02,50.959z"/>
</g>
<g enable-background="new    ">
	<path fill="#636363" d="M184.382,53.914l3.415-9.374h3.243l-5.395,14.723h-2.53l-5.395-14.723h3.243L184.382,53.914z"/>
	<path fill="#636363" d="M201.784,53.597c0,1.646-0.52,3.028-1.557,4.149c-1.035,1.125-2.338,1.685-3.901,1.685
		c-1.567,0-2.87-0.56-3.905-1.685c-1.037-1.121-1.555-2.505-1.555-4.149c0-1.642,0.518-3.029,1.555-4.16
		c1.035-1.131,2.338-1.692,3.905-1.692c1.563,0,2.866,0.563,3.901,1.692C201.267,50.567,201.784,51.955,201.784,53.597z
		 M193.762,53.597c0,0.93,0.242,1.685,0.723,2.266c0.479,0.582,1.097,0.875,1.844,0.875c0.748,0,1.36-0.293,1.842-0.875
		c0.479-0.581,0.719-1.336,0.719-2.266c0-0.926-0.24-1.686-0.719-2.271c-0.479-0.592-1.094-0.889-1.842-0.889
		c-0.747,0-1.363,0.297-1.844,0.889C194.004,51.911,193.762,52.671,193.762,53.597z"/>
	<path fill="#636363" d="M204.154,46.489c-0.324-0.359-0.487-0.797-0.487-1.316c0-0.519,0.163-0.959,0.487-1.316
		c0.327-0.358,0.729-0.538,1.199-0.538c0.473,0,0.875,0.179,1.198,0.538c0.328,0.357,0.49,0.797,0.49,1.316
		c0,0.52-0.162,0.957-0.49,1.316c-0.323,0.359-0.727,0.535-1.198,0.535C204.882,47.024,204.481,46.849,204.154,46.489z
		 M206.79,59.265h-2.875V47.933h2.875V59.265z"/>
	<path fill="#636363" d="M214.467,56.63c0.96,0,1.823-0.525,2.589-1.578l1.709,2.105c-1.332,1.517-2.77,2.273-4.315,2.273
		c-1.551,0-2.856-0.535-3.927-1.609c-1.064-1.073-1.604-2.479-1.604-4.213c0-1.735,0.541-3.146,1.622-4.233
		c1.082-1.089,2.362-1.633,3.849-1.633c0.741,0,1.494,0.167,2.253,0.506c0.762,0.337,1.428,0.836,2.006,1.496l-1.496,2.147
		c-0.335-0.438-0.737-0.772-1.222-1.014c-0.479-0.236-0.954-0.355-1.427-0.355c-0.755,0-1.403,0.27-1.947,0.809
		c-0.544,0.542-0.813,1.294-0.813,2.253c0,0.964,0.271,1.711,0.813,2.246C213.101,56.362,213.739,56.63,214.467,56.63z"/>
	<path fill="#636363" d="M229.623,57.62c-1.162,1.208-2.529,1.811-4.099,1.811c-1.564,0-2.86-0.527-3.884-1.591
		c-1.021-1.059-1.535-2.481-1.535-4.263c0-1.783,0.521-3.204,1.563-4.258c1.042-1.053,2.271-1.577,3.691-1.577
		c1.422,0,2.626,0.47,3.615,1.411c0.991,0.939,1.487,2.231,1.487,3.875v1.688h-7.521c0.091,0.616,0.387,1.121,0.883,1.516
		c0.5,0.396,1.062,0.59,1.69,0.59c1.01,0,1.839-0.37,2.493-1.115L229.623,57.62z M226.861,50.901
		c-0.396-0.364-0.878-0.549-1.445-0.549c-0.571,0-1.094,0.19-1.564,0.569s-0.749,0.892-0.825,1.537h4.528
		C227.49,51.786,227.259,51.267,226.861,50.901z"/>
</g>
<g>
	<g>
		<g>
			<g>
				<path fill="#4192B6" d="M13.452,38.292c1.3,13.275,2.221,26.432,2.771,39.462c0.119,2.866,1.894,4.856,3.979,4.468
					c12.146-2.3,24.296-4.488,36.445-6.563c3.709,3.034,7.389,5.944,11.036,8.737c-0.012-3.476-0.058-6.955-0.132-10.443
					c3.121-0.503,6.241-1.001,9.364-1.495c2.088-0.336,3.699-2.521,3.58-4.881c-0.554-10.79-1.411-21.702-2.587-32.706
					c-0.258-2.412-2.186-4.335-4.283-4.289c-18.994,0.486-37.966,1.227-56.918,2.232C14.61,32.912,13.165,35.378,13.452,38.292z"/>
				<path fill="#FFFFFF" d="M21.437,73.646c-0.202-0.453-0.327-0.979-0.354-1.547c-0.491-9.836-1.196-19.752-2.118-29.733
					c6.226,4.061,12.399,7.919,18.531,11.571C32.21,60.235,26.865,66.808,21.437,73.646z"/>
				<path fill="#FFFFFF" d="M39.029,54.804c2.978,1.778,5.939,3.51,8.894,5.188c2.699-2.376,5.388-4.694,8.072-6.964
					c6.29,4.936,12.5,9.572,18.639,13.927c-0.522,0.521-1.197,0.89-1.941,0.991c-2.792,0.404-5.585,0.811-8.376,1.227
					c0.124,2.497,0.234,4.995,0.327,7.48c-2.266-2.118-4.547-4.279-6.845-6.498c-11.105,1.677-22.21,3.455-33.315,5.309
					c-0.733,0.121-1.423-0.062-1.984-0.472C28.083,67.981,33.59,61.247,39.029,54.804z"/>
				<path fill="#FFFFFF" d="M57.374,51.919c5.479-4.588,10.929-8.965,16.351-13.109c0.853,8.514,1.517,16.968,1.996,25.356
					c0.024,0.467-0.04,0.917-0.188,1.349C69.551,61.253,63.504,56.726,57.374,51.919z"/>
				<path fill="#4192B6" d="M72.921,35.433c-9.625,0.79-19.246,1.688-28.859,2.682c-8.549,0.075-17.094,0.17-25.639,0.282
					c-1.354-1.412-2.718-2.838-4.084-4.28c9.24-10.679,18.311-20.521,27.27-29.508c11.778,9.779,23.274,18.74,34.539,26.893
					C75.072,32.795,74,34.104,72.921,35.433z"/>
				<g>
					<g>
						<path fill="#FFFFFF" d="M65.675,37.394c-2.768-0.197-5.535-0.395-8.302-0.593c-2.314-1.211-5.296,1.824-10.982,2.186
							c-5.759,0.344-9.821,2.418-11.824,4.104c-2.472,0.169-4.944,0.341-7.418,0.519c0.097,1.038,0.186,2.077,0.277,3.112
							c6.757,2.906,13.48,5.653,20.177,8.23c6.047-3.773,12.078-7.359,18.101-10.754C65.704,41.927,65.697,39.658,65.675,37.394z"/>
					</g>
					<g>
						<g>
							<path fill="#FFFFFF" d="M67.725,41.206c-0.756-7.907-1.671-15.868-2.748-23.875c-14.458-0.178-28.9-0.207-43.334-0.083
								c1.15,8.955,2.124,17.856,2.924,26.707"/>
							<g>
								<path fill="#636363" d="M68.502,42.878c-1.069,0.534-2.142,1.069-3.21,1.612c-0.765-8.353-1.702-16.765-2.818-25.23
									c-12.607-0.063-25.209-0.012-37.795,0.154c1.161,9.197,2.134,18.339,2.924,27.421c-1.111-0.57-2.229-1.156-3.342-1.736
									c-0.885-9.688-1.976-19.434-3.281-29.249c14.841-0.052,29.7,0.054,44.576,0.313C66.738,25.125,67.719,34.032,68.502,42.878z
									"/>
							</g>
						</g>
						<path fill="#A4A1A8" d="M59.284,27.972c0.018,0.153-0.625,0.295-1.439,0.315c-8.836,0.221-17.671,0.499-26.498,0.83
							c-0.811,0.031-1.488-0.083-1.504-0.25c-0.208-1.845-0.422-3.69-0.644-5.538c-0.021-0.17,0.619-0.321,1.433-0.339
							c8.837-0.183,17.681-0.308,26.529-0.377c0.814-0.005,1.49,0.115,1.509,0.272C58.882,24.582,59.087,26.279,59.284,27.972z"/>
					</g>
				</g>
			</g>
		</g>
		<path fill="#A4A1A8" d="M48.418,43.066c0.037,0.38-0.309,0.716-0.773,0.754c-5.037,0.415-10.076,0.845-15.11,1.295
			c-0.464,0.038-0.868-0.252-0.904-0.645c-0.418-4.329-0.878-8.674-1.381-13.033c-0.049-0.405,0.289-0.747,0.754-0.768
			c5.045-0.25,10.094-0.476,15.143-0.685c0.465-0.02,0.88,0.277,0.926,0.658C47.558,34.797,48.008,38.941,48.418,43.066z"/>
		<path fill="#A4A1A8" d="M60.975,42.164c0.039,0.367-0.168,0.679-0.451,0.703c-3.108,0.232-6.221,0.473-9.328,0.718
			c-0.285,0.023-0.549-0.264-0.585-0.635c-0.407-4.104-0.857-8.222-1.348-12.352c-0.046-0.381,0.149-0.699,0.438-0.71
			c3.115-0.123,6.231-0.237,9.349-0.345c0.288-0.012,0.555,0.282,0.597,0.646C60.13,34.197,60.572,38.189,60.975,42.164z"/>
	</g>
</g>
</svg>
