<?xml version="1.0" encoding="utf-8"?>
<!-- Generator: Adobe Illustrator 16.0.0, SVG Export Plug-In . SVG Version: 6.00 Build 0)  -->
<!DOCTYPE svg PUBLIC "-//W3C//DTD SVG 1.1//EN" "http://www.w3.org/Graphics/SVG/1.1/DTD/svg11.dtd">
<svg version="1.1" id="Layer_1" xmlns="http://www.w3.org/2000/svg" xmlns:xlink="http://www.w3.org/1999/xlink" x="0px" y="0px"
	 width="218.667px" height="30.334px" viewBox="0 0 218.667 30.334" enable-background="new 0 0 218.667 30.334"
	 xml:space="preserve">
<g>
	<path fill="#FFFFFF" d="M7.237,9.518c-0.898,0-1.636,0.201-2.211,0.603c-0.576,0.403-0.864,1.011-0.864,1.824
		c0,0.814,0.288,1.436,0.864,1.869c0.575,0.43,1.804,0.894,3.677,1.393c1.874,0.499,3.286,1.196,4.237,2.098
		c0.95,0.898,1.425,2.227,1.425,3.978s-0.601,3.174-1.806,4.266c-1.201,1.093-2.783,1.638-4.734,1.638
		c-2.861,0-5.401-1.081-7.617-3.246l1.936-2.557c1.848,1.761,3.769,2.644,5.758,2.644c0.994,0,1.783-0.235,2.369-0.705
		c0.584-0.468,0.876-1.093,0.876-1.865c0-0.776-0.274-1.38-0.824-1.812c-0.55-0.429-1.495-0.823-2.839-1.177
		c-1.343-0.354-2.365-0.678-3.063-0.977c-0.698-0.298-1.318-0.685-1.856-1.163c-1.082-0.9-1.624-2.28-1.624-4.138
		c0-1.857,0.615-3.289,1.847-4.294C4.02,6.889,5.541,6.386,7.355,6.386c1.169,0,2.327,0.212,3.48,0.632
		c1.152,0.422,2.146,1.016,2.981,1.781l-1.649,2.557c-0.541-0.537-1.273-0.977-2.196-1.322C9.049,9.689,8.139,9.518,7.237,9.518z"/>
	<path fill="#FFFFFF" d="M27.351,19.945v-8.272h2.931v15.282h-2.931v-2.789c-0.472,0.939-1.121,1.677-1.949,2.213
		c-0.829,0.54-1.723,0.805-2.682,0.805c-1.57,0-2.84-0.528-3.806-1.584c-0.97-1.053-1.455-2.576-1.455-4.568v-9.362h2.933v8.389
		c0,2.816,1.064,4.229,3.193,4.229c1.011,0,1.892-0.369,2.643-1.107C26.977,22.438,27.351,21.362,27.351,19.945z"/>
	<path fill="#FFFFFF" d="M41.978,11.443c1.866,0,3.461,0.708,4.788,2.126c1.326,1.417,1.99,3.306,1.99,5.66
		c0,2.363-0.659,4.278-1.976,5.753c-1.32,1.476-2.853,2.205-4.606,2.205c-1.755,0-3.327-0.844-4.723-2.528v2.298h-2.931V5.64h2.931
		v8.704C38.602,12.411,40.11,11.443,41.978,11.443z M37.396,19.343c0,1.456,0.402,2.648,1.205,3.578
		c0.802,0.935,1.779,1.395,2.931,1.395c1.152,0,2.154-0.458,3.01-1.372c0.854-0.919,1.282-2.108,1.282-3.586
		c0-1.456-0.418-2.672-1.256-3.646c-0.837-0.968-1.843-1.453-3.009-1.453c-1.17,0-2.155,0.485-2.957,1.453
		C37.8,16.676,37.396,17.888,37.396,19.343z"/>
	<path fill="#FFFFFF" d="M62.021,22.39c0,1.455-0.479,2.619-1.439,3.489c-0.959,0.872-2.19,1.309-3.689,1.309
		c-1.012,0-2.063-0.197-3.151-0.595c-1.09-0.412-2.054-0.977-2.892-1.695l1.414-2.5c1.623,1.337,3.193,2.013,4.71,2.013
		c0.665,0,1.188-0.163,1.57-0.499c0.384-0.33,0.579-0.761,0.579-1.28c0-0.763-0.928-1.455-2.774-2.064
		c-0.14-0.062-0.244-0.099-0.314-0.112c-2.896-0.86-4.344-2.297-4.344-4.309c0-1.416,0.5-2.552,1.502-3.41
		c1.002-0.852,2.306-1.278,3.911-1.278c1.606,0,3.124,0.517,4.554,1.553l-1.1,2.381c-1.134-0.822-2.367-1.24-3.689-1.24
		c-0.698,0-1.265,0.143-1.701,0.414c-0.436,0.282-0.654,0.693-0.654,1.25c0,0.5,0.227,0.861,0.678,1.091
		c0.316,0.172,0.757,0.335,1.324,0.49c0.566,0.153,1.066,0.308,1.502,0.458s0.86,0.324,1.272,0.518
		c0.41,0.19,0.848,0.457,1.321,0.804C61.554,19.86,62.021,20.933,62.021,22.39z"/>
	<path fill="#FFFFFF" d="M71.521,27.186c-1.937,0-3.603-0.723-4.999-2.169c-1.396-1.447-2.094-3.338-2.094-5.674
		c0-2.334,0.728-4.236,2.185-5.703c1.457-1.464,3.231-2.197,5.325-2.197s3.865,0.795,5.312,2.385l-1.727,2.326
		c-1.204-1.149-2.414-1.724-3.637-1.724c-1.221,0-2.281,0.447-3.179,1.336c-0.897,0.89-1.348,2.04-1.348,3.448
		s0.447,2.6,1.334,3.575c0.889,0.979,1.983,1.466,3.283,1.466c1.297,0,2.525-0.65,3.675-1.951l1.727,2.066
		C75.69,26.248,73.737,27.186,71.521,27.186z"/>
	<path fill="#FFFFFF" d="M87.721,14.689c-1.451,0-2.541,0.517-3.273,1.55c-0.731,1.034-1.1,2.424-1.1,4.166v6.55h-2.931V11.673
		h2.931v3.073c0.472-0.958,1.112-1.742,1.924-2.354c0.812-0.613,1.673-0.928,2.58-0.948l0.024,3.246
		C87.825,14.689,87.773,14.689,87.721,14.689z"/>
	<path fill="#FFFFFF" d="M90.989,8.627c-0.369-0.402-0.547-0.88-0.547-1.437c0-0.555,0.186-1.034,0.547-1.436
		C91.358,5.352,91.793,5.15,92.3,5.15c0.504,0,0.94,0.202,1.308,0.604c0.369,0.402,0.549,0.881,0.549,1.436
		c0,0.557-0.188,1.034-0.549,1.437C93.241,9.03,92.805,9.23,92.3,9.23C91.792,9.23,91.357,9.03,90.989,8.627z M93.739,26.957h-2.931
		V11.673h2.931V26.957z"/>
	<path fill="#FFFFFF" d="M105.437,11.443c1.866,0,3.462,0.708,4.791,2.126c1.325,1.417,1.985,3.306,1.985,5.66
		c0,2.363-0.658,4.278-1.975,5.753c-1.325,1.476-2.854,2.205-4.606,2.205c-1.761,0-3.329-0.844-4.724-2.528v2.298h-2.931V5.64h2.931
		v8.704C102.061,12.411,103.567,11.443,105.437,11.443z M100.856,19.343c0,1.456,0.402,2.648,1.204,3.578
		c0.803,0.935,1.771,1.395,2.931,1.395c1.151,0,2.155-0.458,3.009-1.372c0.855-0.919,1.283-2.108,1.283-3.586
		c0-1.456-0.419-2.672-1.257-3.646c-0.837-0.968-1.848-1.453-3.009-1.453c-1.169,0-2.154,0.485-2.957,1.453
		C101.258,16.676,100.856,17.888,100.856,19.343z"/>
	<path fill="#FFFFFF" d="M128.515,20.722h-10.912c0.069,1.109,0.535,2.007,1.388,2.687c0.854,0.679,1.831,1.02,2.934,1.02
		c1.743,0,3.068-0.602,3.977-1.808l1.674,2.019c-1.5,1.705-3.454,2.549-5.86,2.549c-1.954,0-3.617-0.714-4.985-2.142
		c-1.369-1.426-2.055-3.341-2.055-5.746c0-2.402,0.696-4.313,2.094-5.73c1.396-1.412,3.039-2.126,4.932-2.126
		c1.891,0,3.501,0.628,4.826,1.882c1.327,1.254,1.989,2.981,1.989,5.185V20.722L128.515,20.722z M117.603,18.193h7.982
		c0-1.282-0.371-2.271-1.101-2.958c-0.73-0.69-1.633-1.035-2.715-1.035c-1.066,0-2.037,0.36-2.892,1.078
		C118.032,15.995,117.603,16.969,117.603,18.193z"/>
	<path fill="#FFFFFF" d="M139.037,14.689c-1.449,0-2.539,0.517-3.272,1.55c-0.732,1.034-1.099,2.424-1.099,4.166v6.55h-2.934V11.673
		h2.934v3.073c0.471-0.958,1.106-1.742,1.924-2.354c0.811-0.613,1.674-0.928,2.577-0.948l0.026,3.246
		C139.142,14.689,139.091,14.689,139.037,14.689z"/>
</g>
<g>
	<path fill="#FFFFFF" d="M149.913,19.052l5.045-13.844h4.79l-7.964,21.749h-3.743l-7.966-21.749h4.792L149.913,19.052z"/>
	<path fill="#FFFFFF" d="M175.614,18.587c0,2.425-0.764,4.469-2.294,6.129c-1.53,1.659-3.453,2.489-5.765,2.489
		c-2.315,0-4.236-0.83-5.768-2.489c-1.53-1.66-2.293-3.704-2.293-6.129c0-2.427,0.763-4.475,2.293-6.145
		c1.531-1.67,3.454-2.504,5.768-2.504c2.314,0,4.236,0.835,5.765,2.504C174.848,14.111,175.614,16.16,175.614,18.587z
		 M163.769,18.587c0,1.367,0.357,2.483,1.065,3.345c0.713,0.858,1.621,1.289,2.72,1.289c1.104,0,2.013-0.431,2.718-1.289
		c0.709-0.861,1.065-1.978,1.065-3.345c0-1.368-0.358-2.49-1.065-3.36c-0.708-0.872-1.616-1.308-2.718-1.308
		c-1.106,0-2.015,0.436-2.72,1.308C164.125,16.097,163.769,17.219,163.769,18.587z"/>
	<path fill="#FFFFFF" d="M179.116,8.086c-0.482-0.529-0.722-1.176-0.722-1.944c0-0.766,0.239-1.416,0.722-1.944
		c0.483-0.529,1.07-0.794,1.771-0.794c0.699,0,1.289,0.265,1.771,0.794c0.48,0.528,0.723,1.178,0.723,1.944
		c0,0.768-0.242,1.416-0.723,1.944c-0.481,0.529-1.071,0.793-1.771,0.793C180.186,8.879,179.599,8.616,179.116,8.086z
		 M183.011,26.957h-4.252v-16.74h4.252V26.957z"/>
	<path fill="#FFFFFF" d="M194.347,23.066c1.418,0,2.693-0.777,3.826-2.332l2.521,3.11c-1.966,2.238-4.09,3.36-6.376,3.36
		c-2.282,0-4.218-0.793-5.797-2.379c-1.576-1.587-2.369-3.662-2.369-6.223c0-2.562,0.805-4.647,2.4-6.254
		c1.591-1.607,3.492-2.412,5.676-2.412c1.099,0,2.204,0.249,3.327,0.747c1.124,0.499,2.107,1.235,2.966,2.209l-2.212,3.174
		c-0.495-0.644-1.09-1.142-1.804-1.495c-0.713-0.353-1.412-0.531-2.108-0.531c-1.107,0-2.073,0.401-2.876,1.196
		c-0.806,0.798-1.205,1.908-1.205,3.324c0,1.418,0.409,2.527,1.205,3.316C192.331,22.673,193.269,23.066,194.347,23.066z"/>
	<path fill="#FFFFFF" d="M216.736,24.529c-1.717,1.782-3.737,2.673-6.052,2.673s-4.228-0.783-5.737-2.35
		c-1.511-1.565-2.268-3.669-2.268-6.3c0-2.63,0.761-4.729,2.309-6.284c1.541-1.556,3.359-2.333,5.454-2.333
		c2.104,0,3.882,0.696,5.342,2.085c1.463,1.391,2.196,3.296,2.196,5.723v2.491h-11.109c0.132,0.914,0.568,1.66,1.304,2.238
		c0.737,0.583,1.568,0.874,2.5,0.874c1.491,0,2.716-0.544,3.679-1.649L216.736,24.529z M212.654,14.604
		c-0.584-0.538-1.297-0.809-2.139-0.809c-0.841,0-1.611,0.283-2.31,0.847c-0.699,0.564-1.108,1.323-1.219,2.275h6.688
		C213.583,15.913,213.242,15.143,212.654,14.604z"/>
</g>
</svg>
