<?xml version="1.0" encoding="utf-8"?>
<!-- Generator: Adobe Illustrator 16.0.0, SVG Export Plug-In . SVG Version: 6.00 Build 0)  -->
<!DOCTYPE svg PUBLIC "-//W3C//DTD SVG 1.1//EN" "http://www.w3.org/Graphics/SVG/1.1/DTD/svg11.dtd">
<svg version="1.1" id="Layer_1" xmlns="http://www.w3.org/2000/svg" xmlns:xlink="http://www.w3.org/1999/xlink" x="0px" y="0px"
	 width="39.833px" height="39.667px" viewBox="0 0 39.833 39.667" enable-background="new 0 0 39.833 39.667" xml:space="preserve">
<g>
	<path fill="#4292B7" d="M0.696,19.519C1.104,8.931,9.935,0.245,20.086,0.715c11.41,0.528,18.799,8.876,18.879,19.304
		c0.084,10.553-9.375,19.465-19.5,18.928C8.029,38.34,0.861,29.725,0.696,19.519z"/>
	<g>
		<path fill="#4292B7" d="M14.05,27.261c-0.058,0.452,0.348,0.441,0.954,0.119c1.184-0.63,2.408-1.195,3.547-1.896
			c0.942-0.58,1.748-0.494,2.646,0.053c0.998,0.604,2.043,1.136,3.087,1.662c0.331,0.166,0.711,0.524,1.069,0.297
			c0.376-0.24,0.174-0.723,0.111-1.086c-0.222-1.324-0.414-2.658-0.746-3.955c-0.191-0.747-0.012-1.227,0.516-1.719
			c1.045-0.979,2.048-2,3.074-2.998c0.646-0.628,0.582-1.021-0.355-1.159c-1.285-0.187-2.564-0.439-3.855-0.549
			c-1.047-0.089-1.613-0.601-2.012-1.53c-0.513-1.192-1.143-2.333-1.718-3.499c-0.133-0.269-0.211-0.61-0.612-0.547
			c-0.292,0.045-0.374,0.312-0.49,0.549c-0.666,1.357-1.379,2.691-2.006,4.066c-0.25,0.549-0.585,0.781-1.164,0.856
			c-1.502,0.195-2.997,0.442-4.495,0.67c-0.855,0.13-0.942,0.497-0.336,1.087c1.056,1.029,2.089,2.081,3.166,3.087
			c0.537,0.502,0.667,1.012,0.5,1.737C14.602,23.939,14.386,25.398,14.05,27.261z"/>
		<path fill="#FFFFFF" d="M14.05,27.261c0.336-1.863,0.551-3.322,0.88-4.755c0.167-0.726,0.038-1.235-0.5-1.737
			c-1.077-1.006-2.11-2.058-3.166-3.087c-0.605-0.59-0.519-0.957,0.336-1.087c1.498-0.229,2.993-0.475,4.495-0.67
			c0.578-0.075,0.913-0.307,1.164-0.856c0.627-1.375,1.34-2.709,2.006-4.066c0.116-0.237,0.198-0.503,0.491-0.549
			c0.4-0.062,0.479,0.279,0.611,0.547c0.575,1.166,1.205,2.307,1.717,3.499c0.399,0.93,0.967,1.441,2.014,1.53
			c1.291,0.11,2.57,0.362,3.854,0.549c0.938,0.137,1.003,0.53,0.354,1.159c-1.025,0.997-2.027,2.019-3.073,2.998
			c-0.526,0.492-0.708,0.972-0.517,1.719c0.332,1.297,0.524,2.631,0.748,3.955c0.062,0.365,0.264,0.847-0.112,1.086
			c-0.357,0.228-0.738-0.131-1.069-0.297c-1.043-0.526-2.089-1.058-3.087-1.662c-0.899-0.547-1.704-0.633-2.646-0.053
			c-1.139,0.701-2.363,1.267-3.547,1.896C14.398,27.703,13.992,27.713,14.05,27.261z"/>
	</g>
</g>
</svg>
