<?xml version="1.0" encoding="utf-8"?>
<!-- Generator: Adobe Illustrator 16.0.0, SVG Export Plug-In . SVG Version: 6.00 Build 0)  -->
<!DOCTYPE svg PUBLIC "-//W3C//DTD SVG 1.1//EN" "http://www.w3.org/Graphics/SVG/1.1/DTD/svg11.dtd">
<svg version="1.1" id="Layer_1" xmlns="http://www.w3.org/2000/svg" xmlns:xlink="http://www.w3.org/1999/xlink" x="0px" y="0px"
	 width="918px" height="774px" viewBox="-6.139 -12.374 918 774" enable-background="new -6.139 -12.374 918 774"
	 xml:space="preserve">
<path fill="#1C899A" d="M586.591,184.886"/>
<path fill="#1C899A" d="M662.11,374.682c0,110.581-89.702,200.228-200.239,200.228c-110.593,0-200.271-89.646-200.271-200.228
	c0-107.514,84.754-195.231,191.083-200.036l-0.01,35.012c-0.01,28.163-0.026,63.735,0.335,90.562l181.146-153.154h0.034
	L453.042-6.082c-0.383,28.328-0.344,66.411-0.334,95.224l-0.008,23.293C311.82,117.001,198.962,232.629,198.962,374.67
	c0,144.913,117.497,262.402,262.385,262.402c144.946,0,262.445-117.489,262.445-262.402L662.11,374.682z"/>
</svg>
