<?xml version="1.0" encoding="utf-8"?>
<!-- Generator: Adobe Illustrator 16.0.0, SVG Export Plug-In . SVG Version: 6.00 Build 0)  -->
<!DOCTYPE svg PUBLIC "-//W3C//DTD SVG 1.1//EN" "http://www.w3.org/Graphics/SVG/1.1/DTD/svg11.dtd">
<svg version="1.1" id="Layer_1" xmlns="http://www.w3.org/2000/svg" xmlns:xlink="http://www.w3.org/1999/xlink" x="0px" y="0px"
	 width="600px" height="600px" viewBox="0 0 600 600" enable-background="new 0 0 600 600" xml:space="preserve">
<g>
	<path fill="#FFFFFF" d="M299.938,3.028C135.737,2.918,3.25,135.394,2.996,299.945C2.742,463.914,135.424,596.719,299.752,596.971
		c164.348,0.253,297.405-132.759,297.254-297.15C596.854,135.432,464.438,3.139,299.938,3.028z"/>
	<path fill-rule="evenodd" clip-rule="evenodd" fill="#7EC0D5" stroke="#3E7E92" stroke-miterlimit="10" d="M299.938,3.028
		c164.499,0.11,296.916,132.404,297.067,296.792c0.151,164.392-132.906,297.403-297.254,297.15
		C135.424,596.719,2.742,463.914,2.996,299.945C3.25,135.394,135.737,2.918,299.938,3.028z M510.425,300.205
		c0.371-115.923-93.279-210.152-209.37-210.663C184.312,89.027,90.076,182.511,89.576,299.33
		c-0.497,116.279,93.176,210.595,209.681,211.126C415.772,510.987,510.049,417.122,510.425,300.205z"/>
	<path fill-rule="evenodd" clip-rule="evenodd" fill="#FFFFFF" d="M510.425,300.205c-0.376,116.917-94.652,210.782-211.168,210.251
		C182.752,509.925,89.079,415.608,89.576,299.33c0.5-116.819,94.736-210.303,211.479-209.788
		C417.146,90.053,510.796,184.282,510.425,300.205z M250.525,300.064c-2.912,0-5.127,0-7.344,0c-21.441,0-42.883,0.055-64.323-0.031
		c-6.217-0.027-11.411,1.283-14.059,7.703c-2.654,6.435,0.198,11.106,4.532,15.44c39.951,39.938,79.866,79.91,119.858,119.806
		c7.301,7.285,14.297,7.308,21.577,0.046c39.849-39.748,79.633-79.56,119.402-119.39c4.428-4.434,7.476-9.517,4.824-16.071
		c-2.72-6.729-8.562-7.534-14.845-7.521c-21.234,0.047-42.469,0.018-63.702,0.018c-2.181,0-4.361,0-6.965,0c0-3.302,0-5.743,0-8.187
		c-0.002-41.644,0.017-83.289-0.014-124.936c-0.008-10.665-4.142-15.299-14.102-15.353c-23.711-0.125-47.418-0.128-71.127,0.009
		c-9.162,0.051-13.518,4.595-13.679,13.864c-0.147,8.45-0.035,16.905-0.035,25.358C250.525,226.892,250.525,262.96,250.525,300.064z
		"/>
	<path fill-rule="evenodd" clip-rule="evenodd" fill="#F04E27" d="M250.525,300.064c0-37.104,0-73.172,0-109.244
		c0-8.453-0.113-16.908,0.035-25.358c0.162-9.269,4.517-13.813,13.679-13.864c23.709-0.137,47.417-0.134,71.127-0.009
		c9.96,0.054,14.094,4.688,14.102,15.353c0.03,41.646,0.012,83.292,0.014,124.936c0,2.444,0,4.885,0,8.187c2.604,0,4.784,0,6.965,0
		c21.233,0,42.468,0.029,63.702-0.018c6.282-0.014,12.125,0.791,14.845,7.521c2.651,6.555-0.396,11.638-4.824,16.071
		c-39.77,39.83-79.554,79.642-119.402,119.39c-7.279,7.262-14.276,7.239-21.577-0.046c-39.992-39.896-79.908-79.867-119.858-119.806
		c-4.334-4.334-7.186-9.006-4.532-15.44c2.648-6.42,7.842-7.73,14.059-7.703c21.44,0.086,42.882,0.031,64.323,0.031
		C245.397,300.064,247.613,300.064,250.525,300.064z"/>
</g>
</svg>
