<?xml version="1.0" encoding="utf-8"?>
<!-- Generator: Adobe Illustrator 16.0.0, SVG Export Plug-In . SVG Version: 6.00 Build 0)  -->
<!DOCTYPE svg PUBLIC "-//W3C//DTD SVG 1.1//EN" "http://www.w3.org/Graphics/SVG/1.1/DTD/svg11.dtd">
<svg version="1.1" id="Layer_1" xmlns="http://www.w3.org/2000/svg" xmlns:xlink="http://www.w3.org/1999/xlink" x="0px" y="0px"
	 width="600px" height="600px" viewBox="0 0 600 600" enable-background="new 0 0 600 600" xml:space="preserve">
<g>
	<path fill="#FFFFFF" d="M299.938,3.028C135.737,2.918,3.25,135.394,2.996,299.945C2.742,463.914,135.424,596.719,299.752,596.971
		c164.348,0.253,297.405-132.759,297.254-297.15C596.854,135.432,464.438,3.139,299.938,3.028z"/>
	<path fill-rule="evenodd" clip-rule="evenodd" fill="#7EC0D5" stroke="#3E7E92" stroke-miterlimit="10" d="M299.938,3.028
		c164.499,0.11,296.916,132.404,297.067,296.792c0.151,164.392-132.906,297.403-297.254,297.15
		C135.424,596.719,2.742,463.914,2.996,299.945C3.25,135.394,135.737,2.918,299.938,3.028z M510.425,300.205
		c0.371-115.923-93.279-210.152-209.37-210.663C184.312,89.027,90.076,182.511,89.576,299.33
		c-0.497,116.279,93.176,210.595,209.681,211.126C415.772,510.987,510.049,417.122,510.425,300.205z"/>
	<path fill-rule="evenodd" clip-rule="evenodd" fill="#98CB52" d="M349.231,299.892c0,37.104,0,73.173,0,109.244
		c0,8.452,0.112,16.907-0.035,25.357c-0.161,9.27-4.517,13.813-13.679,13.864c-23.709,0.138-47.417,0.135-71.128,0.01
		c-9.96-0.054-14.094-4.688-14.102-15.353c-0.03-41.646-0.012-83.292-0.014-124.936c0-2.444,0-4.885,0-8.188
		c-2.604,0-4.784,0-6.965,0c-21.233,0-42.468-0.029-63.702,0.018c-6.282,0.014-12.125-0.791-14.845-7.521
		c-2.651-6.555,0.396-11.638,4.824-16.071c39.77-39.83,79.554-79.642,119.402-119.39c7.279-7.262,14.276-7.239,21.577,0.046
		c39.992,39.896,79.907,79.867,119.858,119.806c4.334,4.334,7.186,9.006,4.532,15.44c-2.648,6.42-7.842,7.73-14.059,7.703
		c-21.44-0.086-42.882-0.031-64.323-0.031C354.358,299.892,352.143,299.892,349.231,299.892z"/>
</g>
</svg>
