<?xml version="1.0" encoding="utf-8"?>
<!-- Generator: Adobe Illustrator 16.0.0, SVG Export Plug-In . SVG Version: 6.00 Build 0)  -->
<!DOCTYPE svg PUBLIC "-//W3C//DTD SVG 1.1//EN" "http://www.w3.org/Graphics/SVG/1.1/DTD/svg11.dtd">
<svg version="1.1" id="Layer_1" xmlns="http://www.w3.org/2000/svg" xmlns:xlink="http://www.w3.org/1999/xlink" x="0px" y="0px"
	 width="560.189px" height="555.719px" viewBox="0 0 560.189 555.719" enable-background="new 0 0 560.189 555.719"
	 xml:space="preserve">
<g>
	<path fill-rule="evenodd" clip-rule="evenodd" fill="#FFFFFF" d="M421.695,131.393c36.917-51.171,80.777-95.199,134.751-128.812
		c1.02-0.634,2.639-0.839,2.613-2.581C372.739,0,186.42,0,0.1,0c0,81.364,0,162.729,0,244.094c2.627,0.088,4.601,1.743,6.757,2.884
		c47.292,25.025,91.708,54.385,133.483,87.671c49.361,39.33,93.431,83.652,129.188,135.739c4.347,6.333,8.459,12.823,13.174,19.991
		c3.946-26.45,9.028-51.624,15.082-76.616c11.167-46.105,25.527-91.194,43.539-135.112
		C362.652,226.642,388.694,177.138,421.695,131.393z"/>
	<path fill-rule="evenodd" clip-rule="evenodd" fill="#FFFFFF" d="M560.06,239.133c-10.249,2.47-19.815,6.652-29.048,11.598
		c-29.947,16.044-53.935,39.06-75.709,64.505c-31.174,36.429-56.498,76.75-79.305,118.71
		c-17.364,31.946-33.215,64.604-47.008,98.228c-3.179,7.747-7.02,15.36-8.913,23.593c78.59,0,157.182-0.138,235.772,0
		c3.701,0.007,4.305-0.873,4.301-4.353C560.039,447.319,560.06,343.226,560.06,239.133z"/>
	<path fill-rule="evenodd" clip-rule="evenodd" fill="#FFFFFF" d="M245.786,550.572c-20.793-18.674-44.422-33.349-68.5-47.311
		c-12.713-7.372-26.149-13.353-39.649-19.277c-24.354-10.688-49.483-18.659-75.371-24.557c-20.483-4.666-41.295-6.941-62.167-8.856
		c0,33.736,0.064,67.473-0.1,101.21c-0.017,3.401,0.675,4.07,4.099,4.064c82.328-0.123,164.655-0.096,246.983-0.096
		C249.319,554.021,247.622,552.221,245.786,550.572z"/>
</g>
</svg>
