<?xml version="1.0" encoding="utf-8"?>
<!-- Generator: Adobe Illustrator 16.0.0, SVG Export Plug-In . SVG Version: 6.00 Build 0)  -->
<!DOCTYPE svg PUBLIC "-//W3C//DTD SVG 1.1//EN" "http://www.w3.org/Graphics/SVG/1.1/DTD/svg11.dtd">
<svg version="1.1" id="Layer_1" xmlns="http://www.w3.org/2000/svg" xmlns:xlink="http://www.w3.org/1999/xlink" x="0px" y="0px"
	 width="777.697px" height="541.476px" viewBox="-137.303 0 777.697 541.476" enable-background="new -137.303 0 777.697 541.476"
	 xml:space="preserve">
<path id="BG_1_" fill="#F9F9F9" stroke="#C3C3C3" stroke-miterlimit="10" d="M505.212,518.266c0,2.423-1.603,4.389-3.579,4.389
	H-19.181c-1.977,0-3.579-1.966-3.579-4.389V11.692c0-2.426,1.603-4.391,3.579-4.391h520.817c1.978,0,3.578,1.967,3.578,4.391
	L505.212,518.266L505.212,518.266z"/>
<path id="BGwhite_1_" fill="#FFFFFF" stroke="#C3C3C3" stroke-miterlimit="10" d="M-22.76,31.794v486.43
	c0,2.452,1.603,4.434,3.579,4.434h520.817c1.978,0,3.578-1.979,3.578-4.434V31.794H-22.76z"/>
<g id="Circles_2_" transform="translate(10.000000, 11.000000)" opacity="0.5">
	<ellipse id="Oval-2_2_" fill="#FC615C" cx="-21.823" cy="8.376" rx="4.133" ry="4.241"/>
	<ellipse id="Oval-2-Copy_2_" fill="#FDBC40" cx="-8.599" cy="8.376" rx="4.132" ry="4.241"/>
	<ellipse id="Oval-2-Copy-2_2_" fill="#34C849" cx="4.623" cy="8.376" rx="4.131" ry="4.241"/>
</g>
<g id="Website_1_" opacity="0.3">
	<path fill="#BFBFBF" d="M279.226,122.111c0,5.643-5.44,10.219-12.154,10.219H13.553c-6.713,0-12.152-4.576-12.152-10.219V95.543
		c0-5.644,5.439-10.218,12.152-10.218h253.521c6.712,0,12.154,4.574,12.154,10.218L279.226,122.111L279.226,122.111z"/>
	<path fill="#A3A3A3" d="M455.434,196.161c0,5.644-5.441,10.219-12.154,10.219H13.553c-6.713,0-12.152-4.576-12.152-10.219v-25.035
		c0-5.644,5.439-10.219,12.152-10.219H443.28c6.709,0,12.154,4.576,12.154,10.219L455.434,196.161L455.434,196.161z"/>
	<g>
		<path fill="#CACCBA" d="M479.13,374.062c0,5.642-5.724,10.217-12.787,10.217H14.186c-7.062,0-12.786-4.575-12.786-10.217l0,0
			c0-5.642,5.725-10.22,12.786-10.22H466.34C473.404,363.842,479.13,368.417,479.13,374.062L479.13,374.062z"/>
		<path fill="#CACCBA" d="M479.13,410.849c0,5.642-5.724,10.215-12.787,10.215H14.186c-7.062,0-12.786-4.573-12.786-10.215l0,0
			c0-5.645,5.725-10.22,12.786-10.22H466.34C473.404,400.629,479.13,405.203,479.13,410.849L479.13,410.849z"/>
		<path fill="#CACCBA" d="M479.13,447.633c0,5.642-5.724,10.22-12.787,10.22H14.186c-7.062,0-12.786-4.578-12.786-10.22l0,0
			c0-5.644,5.725-10.219,12.786-10.219H466.34C473.404,437.415,479.13,441.988,479.13,447.633L479.13,447.633z"/>
		<path fill="#CACCBA" d="M479.13,484.417c0,5.646-5.724,10.219-12.787,10.219H14.186c-7.062,0-12.786-4.573-12.786-10.219l0,0
			c0-5.64,5.725-10.213,12.786-10.213H466.34C473.404,474.204,479.13,478.775,479.13,484.417L479.13,484.417z"/>
	</g>
	<g>
		<path fill="#CACCBA" d="M479.13,228.498c0,5.643-5.724,10.217-12.787,10.217H14.186c-7.062,0-12.786-4.574-12.786-10.217l0,0
			c0-5.642,5.725-10.219,12.786-10.219H466.34C473.404,218.278,479.13,222.854,479.13,228.498L479.13,228.498z"/>
		<path fill="#CACCBA" d="M479.13,265.283c0,5.644-5.724,10.219-12.787,10.219H14.186c-7.062,0-12.786-4.575-12.786-10.219l0,0
			c0-5.641,5.725-10.218,12.786-10.218H466.34C473.404,255.064,479.13,259.641,479.13,265.283L479.13,265.283z"/>
		<path fill="#CACCBA" d="M479.13,302.068c0,5.646-5.724,10.219-12.787,10.219H14.186c-7.062,0-12.786-4.572-12.786-10.219l0,0
			c0-5.639,5.725-10.217,12.786-10.217H466.34C473.404,291.851,479.13,296.427,479.13,302.068L479.13,302.068z"/>
		<path fill="#CACCBA" d="M479.13,338.855c0,5.644-5.724,10.22-12.787,10.22H14.186c-7.062,0-12.786-4.576-12.786-10.22l0,0
			c0-5.64,5.725-10.217,12.786-10.217H466.34C473.404,328.636,479.13,333.213,479.13,338.855L479.13,338.855z"/>
	</g>
</g>
<g id="path-1_2_">
	<rect x="-0.235" y="60.514" fill="#C0DCE7" width="479.364" height="79.02"/>
	<path fill="#76B3CE" d="M457.671,60.514h-16.35v4.087h16.35V60.514L457.671,60.514z M436.212,60.514h-16.35v4.087h16.35V60.514
		L436.212,60.514z M414.752,60.514h-16.349v4.087h16.349V60.514L414.752,60.514z M393.296,60.514h-16.35v4.087h16.35V60.514
		L393.296,60.514z M371.835,60.514h-16.349v4.087h16.349V60.514L371.835,60.514z M350.378,60.514h-16.35v4.087h16.35V60.514
		L350.378,60.514z M328.917,60.514H312.57v4.087h16.347V60.514L328.917,60.514z M307.46,60.514h-16.349v4.087h16.349V60.514
		L307.46,60.514z M286.002,60.514h-16.349v4.087h16.349V60.514L286.002,60.514z M264.543,60.514h-16.35v4.087h16.35V60.514
		L264.543,60.514z M243.085,60.514h-16.35v4.087h16.35V60.514L243.085,60.514z M221.626,60.514h-16.349v4.087h16.349V60.514
		L221.626,60.514z M200.169,60.514h-16.35v4.087h16.35V60.514L200.169,60.514z M178.71,60.514h-16.35v4.087h16.35V60.514
		L178.71,60.514z M157.251,60.514h-16.35v4.087h16.35V60.514L157.251,60.514z M135.792,60.514h-16.35v4.087h16.35V60.514
		L135.792,60.514z M114.333,60.514h-16.35v4.087h16.35V60.514L114.333,60.514z M92.875,60.514H76.526v4.087h16.349V60.514
		L92.875,60.514z M71.416,60.514H55.067v4.087h16.349V60.514L71.416,60.514z M49.958,60.514H33.609v4.087h16.349V60.514
		L49.958,60.514z M28.5,60.514H12.15v4.087H28.5V60.514L28.5,60.514z M7.041,60.514h-7.274v4.087l0,0c0,2.409,0,4.987,0,4.987h4.087
		v-4.987H7.04L7.041,60.514L7.041,60.514z M3.854,74.698h-4.087v16.348h4.087V74.698L3.854,74.698z M3.854,96.156h-4.087v16.349
		h4.087V96.156L3.854,96.156z M3.854,117.614h-4.087v16.35h4.087V117.614L3.854,117.614z M15.653,135.448H-0.235v3.626l0,0v-3.626
		v3.626l0,0v0.459h4.088l0,0l0,0l0,0l0,0c4.708,0,11.8,0,11.8,0V135.448L15.653,135.448z M37.112,135.448h-16.35v4.085h16.349
		L37.112,135.448L37.112,135.448z M58.57,135.448H42.221v4.085H58.57V135.448L58.57,135.448z M80.029,135.448H63.68v4.085h16.349
		V135.448L80.029,135.448z M101.487,135.448H85.138v4.085h16.349V135.448L101.487,135.448z M122.946,135.448h-16.349v4.085h16.349
		V135.448L122.946,135.448z M144.405,135.448h-16.349v4.085h16.349V135.448L144.405,135.448z M165.862,135.448h-16.349v4.085h16.349
		V135.448L165.862,135.448z M187.321,135.448h-16.349v4.085h16.349V135.448L187.321,135.448z M208.78,135.448h-16.349v4.085h16.349
		V135.448L208.78,135.448z M230.239,135.448h-16.35v4.085h16.35V135.448L230.239,135.448z M251.698,135.448H235.35v4.085h16.349
		V135.448L251.698,135.448z M273.157,135.448h-16.349v4.085h16.349V135.448L273.157,135.448z M294.615,135.448h-16.349v4.085h16.349
		V135.448L294.615,135.448z M316.074,135.448h-16.349v4.085h16.349V135.448L316.074,135.448z M337.534,135.448h-16.351v4.085h16.351
		V135.448L337.534,135.448z M358.992,135.448h-16.35v4.085h16.35V135.448L358.992,135.448z M380.451,135.448h-16.351v4.085h16.351
		V135.448L380.451,135.448z M401.909,135.448h-16.353v4.085h16.353V135.448L401.909,135.448z M423.367,135.448h-16.351v4.085h16.351
		V135.448L423.367,135.448z M444.825,135.448h-16.348v4.085h16.348V135.448L444.825,135.448z M466.284,135.448h-16.35v4.085h16.35
		V135.448L466.284,135.448z M479.13,130.92h-4.088v4.526h-3.646v4.087h7.734V130.92L479.13,130.92z M479.13,109.461h-4.088v16.349
		h4.088V109.461L479.13,109.461z M479.13,88.003h-4.088v16.35h4.088V88.003L479.13,88.003z M479.13,66.544h-4.088v16.35h4.088
		V66.544L479.13,66.544z M479.13,60.514h-16.35v4.087h16.35V60.514L479.13,60.514z"/>
</g>
<g>
	<g>
		<g>
			<g>
				<g>
					<g>
						
							<rect x="100.607" y="253.531" fill="#FFFFFF" stroke="#898989" stroke-width="4" stroke-miterlimit="10" width="507.089" height="96.387"/>
					</g>
				</g>
				<g>
					<g>
						<path fill="#FFFFFF" d="M580.94,307.858c0,9.201-9.002,16.667-20.106,16.667H434.617c-11.107,0-20.11-7.468-20.11-16.667l0,0
							c0-9.215,9.003-16.68,20.11-16.68h126.217C571.935,291.176,580.94,298.643,580.94,307.858L580.94,307.858z"/>
						<path fill="#4192B6" d="M560.834,325.965H434.617c-11.898,0-21.589-8.124-21.589-18.107c0-9.994,9.69-18.112,21.589-18.112
							h126.217c11.901,0,21.584,8.123,21.584,18.112C582.422,317.836,572.737,325.965,560.834,325.965z M434.617,292.615
							c-10.275,0-18.627,6.834-18.627,15.243c0,8.4,8.358,15.23,18.627,15.23h126.219c10.266,0,18.627-6.832,18.627-15.23
							c0-8.409-8.354-15.243-18.627-15.243H434.617z"/>
					</g>
					<rect x="470.176" y="303.73" fill="none" width="92.568" height="12.491"/>
					<g enable-background="new    ">
						<path fill="#4192B6" d="M459.137,304.286c-0.493,0-0.905,0.109-1.215,0.33c-0.32,0.224-0.479,0.559-0.479,1.003
							c0,0.447,0.156,0.793,0.479,1.031c0.312,0.234,0.984,0.49,2.02,0.769c1.033,0.275,1.811,0.659,2.332,1.153
							c0.528,0.49,0.787,1.224,0.787,2.188c0,0.963-0.332,1.747-0.993,2.354c-0.663,0.598-1.528,0.906-2.604,0.906
							c-1.575,0-2.972-0.603-4.192-1.796l1.067-1.405c1.015,0.968,2.064,1.456,3.166,1.456c0.546,0,0.98-0.127,1.303-0.394
							c0.32-0.254,0.483-0.601,0.483-1.025c0-0.429-0.154-0.759-0.456-0.996c-0.296-0.238-0.817-0.455-1.557-0.654
							c-0.741-0.19-1.307-0.365-1.684-0.532c-0.385-0.166-0.723-0.378-1.022-0.639c-0.595-0.495-0.894-1.255-0.894-2.277
							c0-1.02,0.34-1.806,1.013-2.361c0.677-0.553,1.516-0.832,2.515-0.832c0.643,0,1.279,0.117,1.908,0.35
							c0.635,0.23,1.185,0.559,1.643,0.981l-0.904,1.409c-0.299-0.295-0.703-0.538-1.213-0.729
							C460.136,304.382,459.633,304.286,459.137,304.286z"/>
						<path fill="#4192B6" d="M470.201,310.021v-4.549h1.61v8.408h-1.61v-1.534c-0.258,0.519-0.619,0.924-1.07,1.217
							c-0.459,0.296-0.95,0.449-1.477,0.449c-0.863,0-1.561-0.296-2.096-0.878c-0.537-0.58-0.798-1.412-0.798-2.507v-5.155h1.611
							v4.617c0,1.552,0.586,2.318,1.757,2.318c0.559,0,1.044-0.206,1.456-0.606C469.993,311.396,470.201,310.803,470.201,310.021z"
							/>
						<path fill="#4192B6" d="M478.25,305.347c1.021,0,1.898,0.388,2.632,1.165c0.727,0.788,1.097,1.821,1.097,3.119
							c0,1.299-0.362,2.35-1.086,3.157c-0.729,0.812-1.572,1.224-2.536,1.224s-1.832-0.471-2.599-1.393v1.261h-1.611v-11.726h1.611
							v4.788C476.389,305.877,477.221,305.347,478.25,305.347z M475.727,309.689c0,0.799,0.22,1.455,0.662,1.97
							s0.98,0.769,1.612,0.769c0.633,0,1.189-0.254,1.658-0.76c0.473-0.508,0.705-1.158,0.705-1.97c0-0.802-0.231-1.47-0.689-2.004
							c-0.463-0.534-1.014-0.803-1.658-0.803s-1.186,0.273-1.622,0.803C475.948,308.224,475.727,308.887,475.727,309.689z"/>
						<path fill="#4192B6" d="M489.271,311.368c0,0.795-0.26,1.437-0.786,1.915c-0.534,0.482-1.207,0.728-2.033,0.728
							c-0.553,0-1.129-0.114-1.73-0.337c-0.606-0.217-1.132-0.532-1.589-0.931l0.771-1.375c0.899,0.735,1.759,1.104,2.591,1.104
							c0.365,0,0.654-0.095,0.863-0.276c0.212-0.188,0.318-0.42,0.318-0.705c0-0.422-0.51-0.797-1.524-1.138
							c-0.077-0.028-0.134-0.051-0.17-0.06c-1.593-0.479-2.387-1.268-2.387-2.368c0-0.782,0.276-1.403,0.819-1.874
							c0.556-0.473,1.273-0.701,2.16-0.701c0.876,0,1.715,0.285,2.497,0.848l-0.604,1.31c-0.62-0.449-1.301-0.675-2.023-0.675
							c-0.39,0-0.7,0.074-0.938,0.226c-0.245,0.155-0.358,0.381-0.358,0.689c0,0.271,0.125,0.478,0.371,0.604
							c0.172,0.092,0.413,0.184,0.727,0.263c0.312,0.088,0.586,0.171,0.83,0.256c0.238,0.081,0.471,0.178,0.692,0.282
							c0.227,0.109,0.474,0.252,0.73,0.444C489.013,309.973,489.271,310.569,489.271,311.368z"/>
						<path fill="#4192B6" d="M494.5,314.01c-1.064,0-1.983-0.405-2.752-1.198c-0.771-0.797-1.148-1.839-1.148-3.119
							c0-1.287,0.397-2.331,1.199-3.137c0.8-0.811,1.784-1.209,2.928-1.209c1.151,0,2.127,0.438,2.924,1.312l-0.951,1.278
							c-0.666-0.63-1.331-0.947-2-0.947c-0.676,0-1.257,0.245-1.753,0.735c-0.493,0.49-0.741,1.118-0.741,1.896
							c0,0.771,0.242,1.425,0.732,1.962c0.49,0.54,1.093,0.806,1.811,0.806c0.715,0,1.386-0.351,2.019-1.075l0.95,1.141
							C496.79,313.485,495.716,314.01,494.5,314.01z"/>
						<path fill="#4192B6" d="M503.406,307.136c-0.793,0-1.391,0.282-1.801,0.85c-0.401,0.568-0.603,1.33-0.603,2.292v3.603h-1.611
							v-8.41h1.611v1.689c0.261-0.527,0.614-0.959,1.057-1.296c0.446-0.337,0.918-0.508,1.423-0.525l0.019,1.786
							C503.466,307.136,503.438,307.136,503.406,307.136z"/>
						<path fill="#4192B6" d="M505.205,303.793c-0.204-0.224-0.301-0.484-0.301-0.791c0-0.305,0.097-0.571,0.301-0.79
							c0.203-0.217,0.443-0.333,0.724-0.333s0.52,0.116,0.719,0.333c0.2,0.221,0.305,0.487,0.305,0.79
							c0,0.312-0.104,0.569-0.305,0.791c-0.199,0.223-0.439,0.335-0.719,0.335S505.41,304.018,505.205,303.793z M506.718,313.878
							h-1.613v-8.408h1.613V313.878z"/>
						<path fill="#4192B6" d="M513.15,305.347c1.033,0,1.906,0.388,2.636,1.165c0.731,0.788,1.099,1.821,1.099,3.119
							c0,1.299-0.363,2.35-1.091,3.157c-0.725,0.812-1.565,1.224-2.532,1.224c-0.965,0-1.828-0.471-2.593-1.393v1.261h-1.616
							v-11.726h1.616v4.788C511.298,305.877,512.127,305.347,513.15,305.347z M510.632,309.689c0,0.799,0.226,1.455,0.661,1.97
							c0.443,0.515,0.983,0.769,1.611,0.769c0.635,0,1.188-0.254,1.656-0.76c0.47-0.508,0.707-1.158,0.707-1.97
							c0-0.802-0.23-1.47-0.689-2.004c-0.462-0.534-1.015-0.803-1.652-0.803c-0.649,0-1.189,0.273-1.632,0.803
							C510.857,308.224,510.632,308.887,510.632,309.689z"/>
						<path fill="#4192B6" d="M525.853,310.446h-6.005c0.04,0.62,0.289,1.105,0.761,1.48c0.471,0.376,1.011,0.562,1.613,0.562
							c0.956,0,1.688-0.333,2.191-0.996l0.914,1.107c-0.82,0.933-1.896,1.399-3.224,1.399c-1.07,0-1.984-0.395-2.74-1.174
							c-0.746-0.788-1.128-1.846-1.128-3.157c0-1.326,0.382-2.375,1.146-3.154c0.772-0.779,1.675-1.169,2.712-1.169
							c1.04,0,1.934,0.348,2.655,1.038c0.731,0.691,1.098,1.637,1.098,2.853L525.853,310.446L525.853,310.446z M519.848,309.06
							h4.391c0-0.707-0.204-1.25-0.608-1.626c-0.399-0.384-0.899-0.572-1.486-0.572c-0.594,0-1.12,0.195-1.595,0.592
							C520.084,307.849,519.848,308.381,519.848,309.06z"/>
						<path fill="#4192B6" d="M531.638,307.136c-0.795,0-1.393,0.282-1.798,0.85c-0.406,0.568-0.609,1.33-0.609,2.292v3.603h-1.612
							v-8.41h1.612v1.689c0.257-0.527,0.611-0.959,1.059-1.296c0.446-0.337,0.915-0.508,1.416-0.525l0.021,1.786
							C531.696,307.136,531.667,307.136,531.638,307.136z"/>
					</g>
					<g enable-background="new    ">
						<path fill="#636363" d="M537.616,309.529l2.778-7.61h2.631l-4.378,11.962h-2.059l-4.378-11.962h2.633L537.616,309.529z"/>
						<path fill="#636363" d="M551.757,309.273c0,1.34-0.417,2.456-1.259,3.373c-0.846,0.913-1.898,1.37-3.171,1.37
							c-1.274,0-2.33-0.457-3.17-1.37c-0.844-0.917-1.268-2.031-1.268-3.373c0-1.334,0.424-2.461,1.268-3.381
							c0.84-0.919,1.895-1.379,3.17-1.379c1.272,0,2.325,0.462,3.171,1.379C551.34,306.812,551.757,307.942,551.757,309.273z
							 M545.236,309.273c0,0.755,0.198,1.372,0.587,1.841c0.396,0.478,0.894,0.709,1.5,0.709c0.604,0,1.105-0.234,1.496-0.709
							c0.389-0.471,0.583-1.084,0.583-1.841c0-0.754-0.194-1.368-0.583-1.846c-0.391-0.479-0.893-0.725-1.496-0.725
							c-0.606,0-1.104,0.245-1.5,0.725C545.436,307.905,545.236,308.522,545.236,309.273z"/>
						<path fill="#636363" d="M553.685,303.5c-0.266-0.295-0.399-0.648-0.399-1.071c0-0.418,0.134-0.776,0.399-1.065
							c0.263-0.289,0.586-0.439,0.97-0.439c0.386,0,0.716,0.146,0.975,0.439c0.267,0.289,0.399,0.647,0.399,1.065
							c0,0.423-0.133,0.776-0.399,1.071c-0.26,0.291-0.589,0.438-0.975,0.438C554.272,303.935,553.949,303.791,553.685,303.5z
							 M555.83,313.878h-2.342v-9.207h2.342V313.878z"/>
						<path fill="#636363" d="M562.062,311.736c0.784,0,1.483-0.425,2.106-1.283l1.39,1.71c-1.085,1.239-2.253,1.848-3.512,1.848
							s-2.319-0.436-3.189-1.308c-0.866-0.866-1.297-2.012-1.297-3.424c0-1.409,0.435-2.553,1.312-3.438
							c0.876-0.883,1.918-1.327,3.129-1.327c0.598,0,1.212,0.138,1.828,0.409c0.616,0.276,1.159,0.684,1.63,1.218l-1.217,1.744
							c-0.272-0.35-0.604-0.624-0.991-0.823c-0.392-0.19-0.779-0.284-1.16-0.284c-0.617,0-1.14,0.215-1.583,0.657
							c-0.441,0.441-0.666,1.051-0.666,1.83c0,0.785,0.225,1.388,0.666,1.825C560.956,311.521,561.473,311.736,562.062,311.736z"/>
						<path fill="#636363" d="M574.377,312.543c-0.947,0.98-2.052,1.471-3.333,1.471c-1.271,0-2.322-0.431-3.151-1.294
							c-0.831-0.857-1.247-2.014-1.247-3.461c0-1.453,0.422-2.607,1.271-3.465c0.847-0.856,1.848-1.283,3.002-1.283
							c1.152,0,2.133,0.381,2.937,1.149c0.804,0.766,1.208,1.812,1.208,3.15v1.37h-6.106c0.069,0.497,0.312,0.908,0.715,1.232
							c0.406,0.319,0.864,0.479,1.374,0.479c0.819,0,1.496-0.302,2.03-0.908L574.377,312.543z M572.132,307.082
							c-0.322-0.294-0.712-0.442-1.177-0.442s-0.888,0.151-1.269,0.457c-0.384,0.309-0.61,0.728-0.67,1.25h3.679
							C572.643,307.806,572.457,307.381,572.132,307.082z"/>
					</g>
					<g>
						<g>
							<g>
								<g>
									<path fill="#4192B6" d="M398.732,296.835c1.057,10.786,1.806,21.477,2.255,32.059c0.1,2.336,1.539,3.949,3.232,3.635
										c9.876-1.87,19.74-3.641,29.614-5.331c3.014,2.465,6.005,4.831,8.964,7.095c-0.011-2.823-0.045-5.65-0.105-8.485
										c2.535-0.409,5.07-0.812,7.606-1.215c1.7-0.273,3.005-2.045,2.913-3.967c-0.448-8.768-1.146-17.634-2.105-26.572
										c-0.209-1.962-1.776-3.525-3.479-3.483c-15.432,0.396-30.849,0.996-46.245,1.812
										C399.678,292.468,398.508,294.468,398.732,296.835z"/>
									<path fill="#FFFFFF" d="M405.225,325.558c-0.164-0.361-0.265-0.79-0.289-1.252c-0.402-7.988-0.971-16.05-1.723-24.163
										c5.057,3.302,10.072,6.435,15.055,9.403C413.976,314.673,409.636,320.008,405.225,325.558z"/>
									<path fill="#FFFFFF" d="M419.514,310.253c2.427,1.442,4.829,2.848,7.228,4.214c2.193-1.929,4.374-3.809,6.561-5.652
										c5.107,4.009,10.152,7.774,15.145,11.312c-0.425,0.423-0.973,0.723-1.576,0.808c-2.269,0.326-4.537,0.659-6.805,0.996
										c0.1,2.029,0.189,4.062,0.261,6.077c-1.84-1.725-3.691-3.479-5.561-5.284c-9.021,1.366-18.043,2.807-27.063,4.321
										c-0.597,0.097-1.159-0.053-1.616-0.388C410.625,320.962,415.098,315.49,419.514,310.253z"/>
									<path fill="#FFFFFF" d="M434.427,307.907c4.449-3.729,8.879-7.282,13.283-10.646c0.693,6.916,1.234,13.788,1.622,20.599
										c0.024,0.381-0.028,0.746-0.152,1.095C444.317,315.497,439.406,311.821,434.427,307.907z"/>
									<path fill="#4192B6" d="M447.058,294.515c-7.821,0.639-15.642,1.369-23.45,2.178c-6.944,0.064-13.888,0.141-20.834,0.228
										c-1.098-1.145-2.207-2.304-3.312-3.476c7.503-8.679,14.875-16.674,22.157-23.972c9.573,7.945,18.908,15.226,28.062,21.85
										C448.804,292.372,447.933,293.431,447.058,294.515z"/>
									<g>
										<g>
											<path fill="#FFFFFF" d="M441.171,296.11c-2.25-0.161-4.498-0.321-6.748-0.483c-1.877-0.984-4.303,1.482-8.922,1.775
												c-4.679,0.28-7.98,1.966-9.604,3.333c-2.01,0.144-4.022,0.279-6.034,0.422c0.084,0.852,0.153,1.688,0.231,2.535
												c5.488,2.358,10.949,4.594,16.393,6.687c4.913-3.062,9.814-5.983,14.703-8.74
												C441.193,299.79,441.185,297.95,441.171,296.11z"/>
										</g>
										<g>
											<g>
												<path fill="#FFFFFF" d="M442.833,299.208c-0.616-6.423-1.36-12.888-2.231-19.397
													c-11.744-0.147-23.483-0.165-35.213-0.071c0.937,7.279,1.726,14.507,2.377,21.701"/>
												<g>
													<path fill="#636363" d="M443.467,300.563c-0.869,0.434-1.744,0.869-2.608,1.31c-0.625-6.787-1.385-13.625-2.288-20.497
														c-10.25-0.055-20.488-0.016-30.71,0.119c0.94,7.476,1.73,14.901,2.372,22.285c-0.904-0.464-1.812-0.941-2.712-1.408
														c-0.718-7.877-1.611-15.793-2.667-23.772c12.059-0.039,24.127,0.049,36.219,0.256
														C442.031,286.139,442.831,293.376,443.467,300.563z"/>
												</g>
											</g>
											<path fill="#A4A1A8" d="M435.977,288.454c0.019,0.12-0.508,0.235-1.168,0.255c-7.185,0.176-14.359,0.403-21.533,0.674
												c-0.659,0.022-1.209-0.064-1.222-0.207c-0.17-1.497-0.344-2.999-0.524-4.499c-0.021-0.136,0.498-0.258,1.165-0.273
												c7.183-0.152,14.362-0.252,21.554-0.305c0.66-0.001,1.211,0.095,1.225,0.222
												C435.647,285.699,435.818,287.074,435.977,288.454z"/>
										</g>
									</g>
								</g>
							</g>
							<path fill="#A4A1A8" d="M427.148,300.714c0.027,0.307-0.252,0.58-0.63,0.608c-4.093,0.339-8.189,0.694-12.278,1.052
								c-0.376,0.032-0.703-0.204-0.735-0.525c-0.339-3.519-0.711-7.047-1.12-10.585c-0.042-0.326,0.235-0.611,0.613-0.622
								c4.1-0.204,8.199-0.39,12.305-0.562c0.38-0.017,0.72,0.227,0.751,0.54C426.451,293.998,426.813,297.364,427.148,300.714z"/>
							<path fill="#A4A1A8" d="M437.351,299.982c0.031,0.304-0.137,0.554-0.366,0.571c-2.526,0.194-5.055,0.387-7.577,0.586
								c-0.23,0.02-0.448-0.216-0.482-0.517c-0.328-3.336-0.695-6.682-1.093-10.034c-0.034-0.308,0.118-0.565,0.357-0.579
								c2.53-0.101,5.063-0.19,7.594-0.28c0.231-0.014,0.449,0.23,0.488,0.527C436.661,293.514,437.027,296.759,437.351,299.982z"/>
						</g>
					</g>
				</g>
			</g>
		</g>
	</g>
</g>
<g>
	<path fill="none" stroke="#656565" stroke-width="3" stroke-miterlimit="10" d="M450.783,100c0,0,44.664-6.762,62.186,39.534
		c16.113,42.574,16.703,101.204,16.703,101.204"/>
	<polyline fill="none" stroke="#656565" stroke-width="3" stroke-linecap="square" stroke-miterlimit="10" points="464.021,112.497 
		450.907,99.894 463.942,86.362 	"/>
</g>
<text transform="matrix(1 0 0 1 145.7178 294.0757)"><tspan x="0" y="0" fill="#636363" font-family="'OpenSans'" font-size="24.9859">Help us improve</tspan><tspan x="27.798" y="29.983" fill="#636363" font-family="'OpenSans'" font-size="24.9859">your emails</tspan></text>
</svg>
