<?xml version="1.0" encoding="utf-8"?>
<!-- Generator: Adobe Illustrator 16.0.0, SVG Export Plug-In . SVG Version: 6.00 Build 0)  -->
<!DOCTYPE svg PUBLIC "-//W3C//DTD SVG 1.1//EN" "http://www.w3.org/Graphics/SVG/1.1/DTD/svg11.dtd">
<svg version="1.1" id="Layer_1" xmlns="http://www.w3.org/2000/svg" xmlns:xlink="http://www.w3.org/1999/xlink" x="0px" y="0px"
	 width="101.333px" height="110.027px" viewBox="0 0 101.333 110.027" enable-background="new 0 0 101.333 110.027"
	 xml:space="preserve">
<path fill="#E5E5E5" d="M77.792,85.526c0,1.174-0.951,2.125-2.125,2.125h-34.75c-1.174,0-2.125-0.951-2.125-2.125l0,0
	c0-1.174,0.951-2.125,2.125-2.125h34.75C76.841,83.401,77.792,84.353,77.792,85.526L77.792,85.526z"/>
<path fill="#E5E5E5" d="M77.792,73.401c0,1.174-0.951,2.125-2.125,2.125h-34.75c-1.174,0-2.125-0.951-2.125-2.125l0,0
	c0-1.174,0.951-2.125,2.125-2.125h34.75C76.841,71.276,77.792,72.228,77.792,73.401L77.792,73.401z"/>
<path fill="#E5E5E5" d="M77.792,61.026c0,1.174-0.951,2.125-2.125,2.125h-34.75c-1.174,0-2.125-0.951-2.125-2.125l0,0
	c0-1.174,0.951-2.125,2.125-2.125h34.75C76.841,58.901,77.792,59.853,77.792,61.026L77.792,61.026z"/>
<path fill="#E5E5E5" d="M92.277,17.276H36.042v6h56.235c0.158,0,0.286,0.129,0.286,0.287v77.427c0,0.158-0.128,0.286-0.286,0.286
	h-66.47c-0.158,0-0.287-0.128-0.287-0.286V62.276h-6v38.714c0,3.466,2.82,6.286,6.287,6.286h66.47c3.466,0,6.286-2.82,6.286-6.286
	V23.563C98.563,20.097,95.743,17.276,92.277,17.276z"/>
<polygon fill="#E5E5E5" points="16.042,3.151 30.667,3.151 30.667,32.026 43.667,32.026 22.792,56.526 2.667,32.026 16.042,32.026 
	"/>
</svg>
