<?xml version="1.0" encoding="utf-8"?>
<!-- Generator: Adobe Illustrator 16.0.0, SVG Export Plug-In . SVG Version: 6.00 Build 0)  -->
<!DOCTYPE svg PUBLIC "-//W3C//DTD SVG 1.1//EN" "http://www.w3.org/Graphics/SVG/1.1/DTD/svg11.dtd">
<svg version="1.1" id="Layer_1" xmlns="http://www.w3.org/2000/svg" xmlns:xlink="http://www.w3.org/1999/xlink" x="0px" y="0px"
	 width="101.333px" height="110.027px" viewBox="0 0 101.333 110.027" enable-background="new 0 0 101.333 110.027"
	 xml:space="preserve">
<path fill="#E5E5E5" d="M92.277,17.276H36.042v6h56.235c0.158,0,0.286,0.129,0.286,0.287v77.427c0,0.158-0.128,0.286-0.286,0.286
	h-66.47c-0.158,0-0.287-0.128-0.287-0.286V62.276h-6v38.714c0,3.466,2.82,6.286,6.287,6.286h66.47c3.466,0,6.286-2.82,6.286-6.286
	V23.563C98.563,20.097,95.743,17.276,92.277,17.276z"/>
<polygon fill="#E5E5E5" points="16.042,3.151 30.667,3.151 30.667,32.026 43.667,32.026 22.792,56.526 2.667,32.026 16.042,32.026 
	"/>
<g>
	<path fill-rule="evenodd" clip-rule="evenodd" fill="#999999" d="M56.186,74.057c0.2-0.256,0.311-0.432,0.453-0.574
		c6.183-6.196,12.369-12.39,18.556-18.583c1.082-1.083,2.426-1.31,3.608-0.595c0.276,0.167,0.525,0.392,0.756,0.621
		c1.198,1.186,2.39,2.377,3.577,3.572c1.366,1.375,1.367,2.993-0.005,4.366c-8.252,8.255-16.506,16.509-24.761,24.761
		c-1.378,1.377-2.993,1.378-4.362,0.01c-4.735-4.733-9.468-9.467-14.201-14.201c-1.353-1.353-1.353-2.971-0.004-4.322
		c1.213-1.215,2.425-2.431,3.642-3.642c1.312-1.306,2.956-1.332,4.264-0.029c2.775,2.763,5.533,5.544,8.296,8.319
		C56.048,73.803,56.071,73.866,56.186,74.057z"/>
</g>
</svg>
