<?xml version="1.0" encoding="utf-8"?>
<!-- Generator: Adobe Illustrator 16.0.0, SVG Export Plug-In . SVG Version: 6.00 Build 0)  -->
<!DOCTYPE svg PUBLIC "-//W3C//DTD SVG 1.1//EN" "http://www.w3.org/Graphics/SVG/1.1/DTD/svg11.dtd">
<svg version="1.1" id="Layer_1" xmlns="http://www.w3.org/2000/svg" xmlns:xlink="http://www.w3.org/1999/xlink" x="0px" y="0px"
	 width="200px" height="200px" viewBox="0 0 200 200" enable-background="new 0 0 200 200" xml:space="preserve">
<g>
	<path fill="#BB524E" d="M100.35,190.426c-49.521,0.062-90.408-40.707-90.453-90.196C9.854,50.421,50.438,9.608,100.047,9.573
		c49.92-0.035,90.646,40.547,90.674,90.354C190.748,149.631,150.07,190.361,100.35,190.426z"/>
</g>
<g opacity="0.75">
	<path fill="#323232" d="M100.325,104.85c-18.536-0.002-37.05,7.812-49.745,23.408c-2.156,2.643-3.55,5.631-3.447,8.729
		c0.164,4.656,2.374,7.273,6.239,7.643c3.902,0.4,7.021-0.994,9.756-3.725c0.475-0.473,0.876-1.023,1.298-1.537
		c18.355-22.395,53.43-22.389,71.779,0.012c2.889,3.523,6.326,5.546,10.391,5.396c6.299,0.133,9.659-8.135,4.198-15.498
		c-5.3-6.988-11.884-12.385-19.038-16.354C122.07,107.54,111.199,104.85,100.325,104.85z"/>
</g>
<path opacity="0.75" fill="#323232" enable-background="new    " d="M58.745,65.045c-0.018,9.543,5.381,17.485,11.833,17.409
	c6.433-0.074,11.718-7.879,11.74-17.334c0.021-9.509-5.401-17.484-11.839-17.411C64.022,47.785,58.761,55.562,58.745,65.045z"/>
<path opacity="0.75" fill="#323232" enable-background="new    " d="M118.6,65.046c-0.018,9.544,5.379,17.481,11.832,17.408
	c6.432-0.074,11.719-7.882,11.741-17.338c0.022-9.508-5.401-17.481-11.841-17.407C123.877,47.784,118.613,55.561,118.6,65.046z"/>
<path fill="#323232" fill-opacity="0.75" d="M100.122,190.426c-23.932,0-46.536-9.453-63.652-26.619
	c-17.115-17.164-26.544-39.832-26.552-63.83C9.91,75.95,19.344,53.28,36.48,36.146C53.618,19.01,76.292,9.574,100.33,9.574
	c23.988,0,46.645,9.416,63.789,26.513c17.146,17.099,26.605,39.708,26.629,63.659c0.023,24.168-9.395,46.922-26.525,64.068
	C147.078,180.977,124.312,190.428,100.122,190.426L100.122,190.426L100.122,190.426z M45.312,44.979
	C30.542,59.749,22.41,79.28,22.417,99.976c0.008,20.674,8.137,40.209,22.894,55.008c14.753,14.793,34.223,22.939,54.825,22.939l0,0
	c20.848,0,40.469-8.146,55.248-22.936c14.769-14.783,22.89-34.396,22.865-55.22c-0.021-20.625-8.172-40.102-22.951-54.839
	c-14.78-14.739-34.301-22.856-54.967-22.856C79.625,22.073,60.085,30.208,45.312,44.979z"/>
</svg>
