<?xml version="1.0" encoding="utf-8"?>
<!-- Generator: Adobe Illustrator 16.0.0, SVG Export Plug-In . SVG Version: 6.00 Build 0)  -->
<!DOCTYPE svg PUBLIC "-//W3C//DTD SVG 1.1//EN" "http://www.w3.org/Graphics/SVG/1.1/DTD/svg11.dtd">
<svg version="1.1" id="Layer_1" xmlns="http://www.w3.org/2000/svg" xmlns:xlink="http://www.w3.org/1999/xlink" x="0px" y="0px"
	 width="1000px" height="1000px" viewBox="0 0 1000 1000" enable-background="new 0 0 1000 1000" xml:space="preserve">
<g>
	<path fill="#496275" d="M793.104,462.331c0.771-42.037-23.845-62.72-62.785-69.612c-0.789-13.508-1.57-25.893-2.24-38.284
		c-2.271-42.511-3.482-85.113-7.205-127.49c-1.911-21.741-3.104-44.904-21.224-61.586c-6.24,0-12.479,0-18.729,0
		c-8.783,8.619-18.726,16.356-26.083,26.059c-11.898,15.684-22.034,32.692-33.028,49.066
		c-49.476,73.663-120.317,109.839-207.297,114.194c-53.422,2.674-107.083,1.033-160.629,1.088
		c-28.241,0.033-52.104,9.566-69.038,32.546c-6.607,8.954-10.584,19.838-15.758,29.84c0,27.051,0,54.102,0.001,81.146
		c10.135,14.55,17.679,32.453,31.057,42.822c17.623,13.677,28.204,30.105,34.847,49.989c6.239,18.671,11.821,37.627,16.351,56.784
		c8.008,33.817,14.597,67.976,22.54,101.816c6.151,26.219,22.456,38.628,48.966,38.816c14.561,0.106,29.128,0.065,43.69,0.014
		c31.354-0.118,50.087-20.802,44.17-51.548c-2.339-12.144-10.016-23.369-15.92-34.678c-6.382-12.221-16.916-23.301-19.696-36.163
		c-7.45-34.493-11.724-69.69-17.375-105.291c24.12,0,43.886-1.394,63.396,0.247c78.755,6.607,145.367,36.904,192.53,102.802
		c16.318,22.796,31.084,46.695,47.549,69.387c8.112,11.196,19.442,19.746,34.576,16.498c14.738-3.161,18.753-16.107,20.149-28.599
		c4.363-39.121,8.589-78.301,11.062-117.576c1.681-26.771,0.319-53.73,0.319-79.375C773.202,511.769,792.542,493.15,793.104,462.331
		z M730.807,494.389c0-24.837,0-48.506,0-72.138c22.373-1.094,35.579,18.459,36.312,35.568
		C767.93,476.885,753.072,492.16,730.807,494.389z"/>
</g>
</svg>
