<?xml version="1.0" encoding="utf-8"?>
<!-- Generator: Adobe Illustrator 16.0.0, SVG Export Plug-In . SVG Version: 6.00 Build 0)  -->
<!DOCTYPE svg PUBLIC "-//W3C//DTD SVG 1.1//EN" "http://www.w3.org/Graphics/SVG/1.1/DTD/svg11.dtd">
<svg version="1.1" id="Layer_1" xmlns="http://www.w3.org/2000/svg" xmlns:xlink="http://www.w3.org/1999/xlink" x="0px" y="0px"
	 width="1000px" height="1000px" viewBox="0 0 1000 1000" enable-background="new 0 0 1000 1000" xml:space="preserve">
<g>
	<path fill="#496275" d="M804.389,644.133c0-46.475-32.999-85.371-76.797-94.494V209.016c0-10.891-8.814-19.715-19.711-19.715
		c-10.913,0-19.725,8.824-19.725,19.715v340.625c-43.802,9.127-76.796,48.021-76.796,94.492c0,46.452,32.994,85.348,76.796,94.476
		v44.758c0,10.9,8.814,19.721,19.725,19.721c10.896,0,19.711-8.82,19.711-19.721V738.61
		C771.391,729.486,804.389,690.589,804.389,644.133z"/>
	<path fill="#496275" d="M518.882,248.127v-39.111c0-10.891-8.819-19.715-19.721-19.715c-10.903,0-19.72,8.824-19.72,19.715v39.111
		c-43.801,9.128-76.801,48.031-76.801,94.494c0,46.451,33,85.349,76.801,94.476v346.269c0,10.9,8.818,19.721,19.72,19.721
		s19.721-8.82,19.721-19.721v-346.27c43.798-9.128,76.797-48.025,76.797-94.476C595.679,296.159,562.68,257.256,518.882,248.127z"/>
	<path fill="#496275" d="M311.814,472.861V209.016c0-10.891-8.814-19.715-19.71-19.715c-10.906,0-19.725,8.824-19.725,19.715
		v263.848c-43.801,9.129-76.802,48.028-76.802,94.48c0,46.46,33.001,85.354,76.802,94.481v121.541c0,10.9,8.82,19.721,19.725,19.721
		c10.896,0,19.71-8.82,19.71-19.721V661.828c43.8-9.124,76.803-48.02,76.803-94.484
		C388.617,520.887,355.614,481.986,311.814,472.861z"/>
</g>
</svg>
