<?xml version="1.0" encoding="utf-8"?>
<!-- Generator: Adobe Illustrator 16.0.0, SVG Export Plug-In . SVG Version: 6.00 Build 0)  -->
<!DOCTYPE svg PUBLIC "-//W3C//DTD SVG 1.1//EN" "http://www.w3.org/Graphics/SVG/1.1/DTD/svg11.dtd">
<svg version="1.1" id="Layer_1" xmlns="http://www.w3.org/2000/svg" xmlns:xlink="http://www.w3.org/1999/xlink" x="0px" y="0px"
	 width="1000px" height="1000px" viewBox="0 0 1000 1000" enable-background="new 0 0 1000 1000" xml:space="preserve">
<g>
	<path fill="#496275" d="M257.041,642.729c-17.368-12.926-33.3-23.593-47.867-35.877c-29.503-24.889-53.073-54.644-66.517-91.174
		c-23.293-63.299-13.411-122.397,25.387-176.798c34.502-48.378,82.216-79.397,136.682-100.817
		c60.787-23.903,123.947-31.947,188.983-27.837c59.677,3.77,116.197,18.533,168.902,46.915
		c48.073,25.895,87.994,60.674,112.813,110.164c27.648,55.139,27.717,111.222,0.391,166.452
		c-24.797,50.113-65.1,85.206-113.678,111.302c-68.096,36.577-141.356,50.267-217.989,47.339
		c-19.562-0.745-39.016-4.22-58.559-6.039c-3.379-0.317-7.568,0.433-10.333,2.277c-49.728,33.183-103.771,55.208-163.024,64.188
		c-7.769,1.177-14.043-0.371-18.426-7.077c-4.51-6.899-4.035-13.672,2.01-20.84c11.52-13.667,24.141-26.48,34.834-40.749
		C240.522,670.98,248.469,656.358,257.041,642.729z"/>
</g>
</svg>
