<?xml version="1.0" encoding="utf-8"?>
<!-- Generator: Adobe Illustrator 16.0.0, SVG Export Plug-In . SVG Version: 6.00 Build 0)  -->
<!DOCTYPE svg PUBLIC "-//W3C//DTD SVG 1.1//EN" "http://www.w3.org/Graphics/SVG/1.1/DTD/svg11.dtd">
<svg version="1.1" id="Layer_1" xmlns="http://www.w3.org/2000/svg" xmlns:xlink="http://www.w3.org/1999/xlink" x="0px" y="0px"
	 width="1000px" height="1000px" viewBox="0 0 1000 1000" enable-background="new 0 0 1000 1000" xml:space="preserve">
<path fill="#76B3CE" d="M508.417,781.52c-81.22,0-162.441,0.002-243.664-0.002c-33.705-0.002-56.554-22.847-56.556-56.565
	c-0.007-101.438,0.083-202.873-0.092-304.312c-0.027-15.718,5.504-28.195,17.175-38.726
	c45.594-41.142,94.121-78.667,142.484-116.404c22.419-17.493,44.438-35.509,67.16-52.59c11.525-8.666,23.642-16.921,36.491-23.372
	c28.295-14.205,56.891-12.244,83.239,4.654c19.797,12.696,38.255,27.551,56.854,42.028c45.305,35.255,90.526,70.62,135.393,106.429
	c16.333,13.035,31.583,27.435,47.287,41.252c10.451,9.189,15.135,20.888,15.131,34.704c-0.032,102.868,0.031,205.737-0.047,308.604
	c-0.022,30.797-23.631,54.254-54.509,54.278C672.65,781.562,590.532,781.52,508.417,781.52z M508.692,738.688
	c81.045,0,162.091,0.002,243.137-0.002c10.854-0.002,14.577-3.669,14.579-14.429c0.01-101.081,0.026-202.164-0.127-303.25
	c-0.006-2.456-1.321-5.669-3.14-7.243c-23.394-20.231-46.515-40.824-70.644-60.153c-40.754-32.641-82.273-64.324-123.271-96.666
	c-14.055-11.087-27.8-22.423-44.402-29.733c-10.841-4.773-21.514-5.42-31.989,0.124c-9.288,4.914-18.823,9.724-27.146,16.035
	c-24.5,18.584-48.498,37.837-72.614,56.926c-46.261,36.613-94.209,71.15-137.265,111.716c-3.423,3.225-4.836,6.328-4.829,11.03
	c0.133,100.01,0.101,200.021,0.103,300.029c0,12.316,3.284,15.611,15.545,15.611C347.316,738.688,428.004,738.688,508.692,738.688z"
	/>
<path fill="#76B3CE" d="M508.623,652.599c-19.261-0.199-36.95-6.167-52.46-17.438c-22.987-16.696-45.508-34.04-68.072-51.311
	c-26.408-20.215-52.647-40.65-78.96-60.989c-8.14-6.292-8.848-10.72-3.007-18.995c2.785-3.942,5.603-7.863,8.394-11.801
	c6.615-9.335,11.493-10.147,20.389-3.247c42.527,32.991,84.881,66.208,127.677,98.853c9.431,7.193,20.187,12.771,30.715,18.372
	c10.079,5.358,20.961,5.479,30.932-0.043c12.141-6.723,24.393-13.59,35.388-21.976c42.228-32.208,83.966-65.058,125.9-97.647
	c7.569-5.884,12.814-5.181,18.64,2.373c3.167,4.107,6.317,8.228,9.459,12.354c6.345,8.344,5.866,13.102-2.322,19.465
	c-29.934,23.26-59.839,46.558-89.92,69.621c-20.136,15.438-40.29,30.871-60.931,45.613
	C545.147,646.729,527.714,652.394,508.623,652.599z"/>
</svg>
