<?xml version="1.0" encoding="utf-8"?>
<!-- Generator: Adobe Illustrator 16.0.0, SVG Export Plug-In . SVG Version: 6.00 Build 0)  -->
<!DOCTYPE svg PUBLIC "-//W3C//DTD SVG 1.1//EN" "http://www.w3.org/Graphics/SVG/1.1/DTD/svg11.dtd">
<svg version="1.1" id="Layer_1" xmlns="http://www.w3.org/2000/svg" xmlns:xlink="http://www.w3.org/1999/xlink" x="0px" y="0px"
	 width="1000px" height="1000px" viewBox="0 0 1000 1000" enable-background="new 0 0 1000 1000" xml:space="preserve">
<g>
	<path fill="#76B3CE" d="M680.485,262.4c-0.016-37.299-26.182-63.22-63.587-63.26c-77.983-0.08-155.952-0.07-233.932,0.08
		c-6.204,0-12.615,0.6-18.574,2.204c-27.594,7.451-44.866,31.049-44.901,61.096c-0.08,78.986-0.025,157.972-0.025,236.957
		c0,79.226-0.065,158.451,0.025,237.677c0.039,37.38,26.041,63.601,63.22,63.661c78.235,0.121,156.454,0.13,234.684,0
		c36.833-0.06,63.069-26.211,63.091-63.029C680.58,579.322,680.58,420.862,680.485,262.4z M465.047,259.125
		c11.739,0.09,23.493,0.03,35.236,0.03c11.749,0,23.497,0.05,35.246-0.02c5.389-0.04,9.65,1.283,9.545,7.693
		c-0.109,6.37-4.427,7.562-9.775,7.551c-23.496-0.06-46.988-0.06-70.486,0c-5.269,0.011-9.767-1.021-9.926-7.412
		C454.711,260.017,459.493,259.095,465.047,259.125z M500.193,778.4c-1.292,0.008-2.569-0.052-3.83-0.175
		c-18.908-1.848-33.935-18.03-34.01-37.506c-0.085-20.352,16.667-37.359,37.068-37.639c20.748-0.303,38.102,16.625,38.206,37.237
		C537.738,761.133,520.876,778.29,500.193,778.4z M635.458,500.037c0,53.404,0.011,106.811-0.01,160.226
		c-0.004,15.193-5.157,20.362-20.281,20.362c-76.728,0.01-153.444,0.01-230.172,0c-15.255,0-20.458-5.148-20.458-20.192
		c-0.005-107.05-0.005-214.12-0.005-321.191c0.005-14.603,5.289-19.892,19.912-19.892c76.972-0.02,153.94-0.02,230.922,0
		c15.015,0,20.092,5.189,20.092,20.472C635.458,393.227,635.458,446.633,635.458,500.037z"/>
</g>
</svg>
