<?xml version="1.0" encoding="utf-8"?>
<!-- Generator: Adobe Illustrator 16.0.0, SVG Export Plug-In . SVG Version: 6.00 Build 0)  -->
<!DOCTYPE svg PUBLIC "-//W3C//DTD SVG 1.1//EN" "http://www.w3.org/Graphics/SVG/1.1/DTD/svg11.dtd">
<svg version="1.1" id="Layer_1" xmlns="http://www.w3.org/2000/svg" xmlns:xlink="http://www.w3.org/1999/xlink" x="0px" y="0px"
	 width="1000px" height="1000px" viewBox="0 0 1000 1000" enable-background="new 0 0 1000 1000" xml:space="preserve">
<g>
	<g>
		<g>
			<path fill="#76B3CE" d="M704.886,715.68c-9.927-0.061-19.647-0.938-29.122-2.52v19.131H315.465V251.72h360.299v107.836
				c9.723-1.604,19.711-2.471,29.903-2.433c9.993,0.027,19.781,0.896,29.312,2.48V192.5H256.245v599h478.733v-78.244
				C725.188,714.878,715.139,715.736,704.886,715.68z"/>
			<path fill="#76B3CE" d="M468.746,450.33h-75.668v-75.67h75.668V450.33z M402.948,440.462h55.927v-55.936h-55.927V440.462z"/>
			<path fill="#76B3CE" d="M468.746,570.963h-75.668v-75.671h75.668V570.963z M402.948,561.085h55.927v-55.926h-55.927V561.085z"/>
			<path fill="#76B3CE" d="M468.746,691.594h-75.668v-75.669h75.668V691.594z M402.948,681.718h55.927v-55.927h-55.927V681.718z"/>
		</g>
	</g>
</g>
<path fill="#76B3CE" d="M705.621,381.207c-85.766-0.249-155.043,68.77-155.459,154.869
	c-0.413,85.571,68.733,155.059,154.779,155.519c85.699,0.458,155.41-68.972,155.642-155.003
	C860.8,450.864,791.593,381.454,705.621,381.207z M806.471,512.221c-0.668,0.83-1.427,1.604-2.186,2.365
	c-35.345,35.363-70.697,70.709-106.047,106.063c-0.543,0.543-1.064,1.075-1.61,1.593c-6.169,5.629-13.335,5.608-19.27-0.269
	c-9.958-9.856-19.823-19.798-29.729-29.695c-13.869-13.873-27.739-27.729-41.599-41.604c-6.794-6.812-6.779-14.389,0.061-21.231
	c5.25-5.255,10.541-10.483,15.859-15.666c6.914-6.708,13.769-6.691,20.635,0.144c14.728,14.673,29.397,29.407,44.796,44.827
	c0.973-1.269,1.646-2.413,2.55-3.319c25.829-25.82,51.687-51.625,77.534-77.425c0.692-0.687,1.383-1.374,2.113-2.014
	c5.731-4.991,12.501-5.077,18.013,0.133c6.262,5.917,12.376,12.005,18.371,18.178C810.887,499.376,810.978,506.686,806.471,512.221z
	"/>
</svg>
