<?xml version="1.0" encoding="utf-8"?>
<!-- Generator: Adobe Illustrator 16.0.0, SVG Export Plug-In . SVG Version: 6.00 Build 0)  -->
<!DOCTYPE svg PUBLIC "-//W3C//DTD SVG 1.1//EN" "http://www.w3.org/Graphics/SVG/1.1/DTD/svg11.dtd">
<svg version="1.1" id="Layer_1" xmlns="http://www.w3.org/2000/svg" xmlns:xlink="http://www.w3.org/1999/xlink" x="0px" y="0px"
	 width="1000px" height="1000px" viewBox="0 0 1000 1000" enable-background="new 0 0 1000 1000" xml:space="preserve">
<g>
	<path fill="#76B3CE" d="M305.108,783.888c-10.222,0-18.491-8.269-18.491-18.486V226.982c0-10.209,8.268-18.482,18.491-18.482
		c10.215,0,18.478,8.272,18.478,18.482v538.419C323.586,775.619,315.323,783.888,305.108,783.888z"/>
	<path fill="#76B3CE" d="M499.213,783.888c-10.22,0-18.486-8.269-18.486-18.486V226.982c0-10.209,8.264-18.482,18.486-18.482
		c10.219,0,18.486,8.272,18.486,18.482v538.419C517.699,775.619,509.432,783.888,499.213,783.888z"/>
	<path fill="#76B3CE" d="M694.874,783.888c-10.228,0-18.49-8.269-18.49-18.486V226.982c0-10.209,8.261-18.482,18.49-18.482
		c10.216,0,18.479,8.272,18.479,18.482v538.419C713.353,775.619,705.09,783.888,694.874,783.888z"/>
	<g>
		<path fill="#76B3CE" d="M766.867,634.878c0,39.755-32.24,71.977-71.993,71.977c-39.771,0-71.997-32.222-71.997-71.977
			c0-39.768,32.226-71.994,71.997-71.994C734.627,562.884,766.867,595.11,766.867,634.878z"/>
		<path fill="#76B3CE" d="M694.874,725.345c-49.903,0-90.481-40.589-90.481-90.467c0-49.898,40.578-90.482,90.481-90.482
			c49.894,0,90.472,40.584,90.472,90.482C785.346,684.756,744.768,725.345,694.874,725.345z M694.874,581.366
			c-29.506,0-53.52,24.009-53.52,53.512c0,29.497,24.014,53.485,53.52,53.485c29.49,0,53.508-23.988,53.508-53.485
			C748.382,605.375,724.364,581.366,694.874,581.366z"/>
	</g>
	<g>
		<path fill="#76B3CE" d="M571.201,352.229c0,39.751-32.238,71.977-71.988,71.977c-39.772,0-71.994-32.226-71.994-71.977
			c0-39.768,32.221-71.993,71.994-71.993C538.963,280.235,571.201,312.461,571.201,352.229z"/>
		<path fill="#76B3CE" d="M499.213,442.695c-49.9,0-90.483-40.591-90.483-90.467c0-49.889,40.583-90.483,90.483-90.483
			c49.896,0,90.479,40.594,90.479,90.483C589.692,402.104,549.109,442.695,499.213,442.695z M499.213,298.717
			c-29.498,0-53.512,24.005-53.512,53.512c0,29.498,24.014,53.492,53.512,53.492c29.497,0,53.511-23.996,53.511-53.492
			C552.723,322.722,528.71,298.717,499.213,298.717z"/>
	</g>
	<g>
		<path fill="#76B3CE" d="M377.103,562.893c0,39.76-32.247,71.985-71.995,71.985c-39.772,0-72.001-32.226-72.001-71.985
			c0-39.764,32.229-71.989,72.001-71.989C344.855,490.903,377.103,523.129,377.103,562.893z"/>
		<path fill="#76B3CE" d="M305.108,653.364c-49.9,0-90.487-40.584-90.487-90.472c0-49.879,40.587-90.471,90.487-90.471
			c49.893,0,90.476,40.592,90.476,90.471C395.584,612.78,355.001,653.364,305.108,653.364z M305.108,509.395
			c-29.506,0-53.511,24.005-53.511,53.495c0,29.509,24.005,53.499,53.511,53.499c29.494,0,53.508-23.994,53.508-53.499
			C358.616,533.402,334.602,509.395,305.108,509.395z"/>
	</g>
</g>
</svg>
