<?xml version="1.0" encoding="utf-8"?>
<!-- Generator: Adobe Illustrator 16.0.0, SVG Export Plug-In . SVG Version: 6.00 Build 0)  -->
<!DOCTYPE svg PUBLIC "-//W3C//DTD SVG 1.1//EN" "http://www.w3.org/Graphics/SVG/1.1/DTD/svg11.dtd">
<svg version="1.1" id="Layer_1" xmlns="http://www.w3.org/2000/svg" xmlns:xlink="http://www.w3.org/1999/xlink" x="0px" y="0px"
	 width="1000px" height="1000px" viewBox="0 0 1000 1000" enable-background="new 0 0 1000 1000" xml:space="preserve">
<g>
	<path fill-rule="evenodd" clip-rule="evenodd" fill="#76B3CE" d="M511.929,663.437c-3.237-1.795-6.285-3.041-8.813-4.969
		c-9.821-7.48-19.56-15.082-29.149-22.863c-2.766-2.244-5.01-2.801-8.347-1.164c-5.003,2.455-10.222,4.556-15.519,6.287
		c-3.183,1.039-4.162,2.664-4.577,5.902c-1.735,13.534-3.666,27.052-5.917,40.509c-1.377,8.26-4.358,10.358-12.852,10.363
		c-16.967,0.013-33.935,0.013-50.899,0c-9.179-0.005-12.054-2.629-13.315-11.55c-1.909-13.517-3.909-27.021-6.098-40.494
		c-0.224-1.39-1.741-3.065-3.088-3.691c-5.658-2.625-11.566-4.716-17.201-7.389c-2.688-1.273-4.476-0.717-6.63,0.938
		c-10.315,7.925-20.711,15.743-31.097,23.576c-6.679,5.035-10.978,4.972-16.952-0.945c-11.805-11.696-23.425-23.585-35.053-35.459
		c-1.6-1.633-2.903-3.582-4.195-5.486c-3.729-5.496-3.801-8.059,0.239-13.37c7.777-10.22,15.647-20.373,23.667-30.404
		c2.017-2.524,2.259-4.439,0.762-7.395c-2.889-5.701-5.468-11.608-7.595-17.635c-1.042-2.955-2.552-4.185-5.443-4.621
		c-13.172-1.991-26.322-4.146-39.498-6.129c-8.37-1.259-10.889-3.932-10.898-12.207c-0.024-17.131-0.026-34.263-0.004-51.394
		c0.011-8.696,2.254-11.34,10.929-12.738c13.481-2.173,26.997-4.154,40.443-6.528c1.761-0.312,3.837-2.154,4.664-3.834
		c2.676-5.451,4.615-11.262,7.296-16.712c1.325-2.692,0.927-4.476-0.79-6.64c-7.781-9.796-15.402-19.722-23.196-29.51
		c-5.66-7.109-6.196-11.272,0.027-17.79c12.377-12.956,24.946-25.765,38.107-37.915c7.742-7.149,11.114-6.482,19.417,0.039
		c9.583,7.524,19.247,14.952,28.765,22.557c2.22,1.774,4.001,2.05,6.642,0.788c5.332-2.548,10.79-4.907,16.384-6.795
		c3.249-1.096,4.084-2.928,4.498-6.042c1.776-13.368,3.604-26.736,5.889-40.022c1.456-8.457,4.33-10.432,12.8-10.437
		c17.296-0.012,34.591-0.023,51.886,0.007c8.147,0.014,11.176,2.797,12.357,10.912c1.969,13.516,3.923,27.037,6.16,40.509
		c0.276,1.66,1.952,3.681,3.507,4.432c5.468,2.641,11.254,4.618,16.743,7.216c2.66,1.259,4.428,0.797,6.621-0.896
		c10.172-7.843,20.459-15.535,30.714-23.268c7.248-5.463,11.341-5.409,17.734,0.924c11.576,11.464,22.955,23.126,34.403,34.722
		c0.692,0.7,1.29,1.5,1.896,2.275c7.111,9.092,7.111,10.895-0.005,20.129c-6.934,8.999-13.806,18.048-20.854,26.954
		c-2.08,2.627-2.446,4.853-0.902,7.972c2.624,5.293,5.117,10.729,6.869,16.352c1.238,3.975,3.417,5.341,7.23,5.872
		c13.035,1.812,26.039,3.857,39.046,5.87c7.26,1.124,9.973,4.231,9.99,11.562c0.049,17.627,0.052,35.25-0.001,52.876
		c-0.021,7.699-2.667,10.649-10.254,11.846c-13.813,2.178-27.642,4.271-41.414,6.676c-1.634,0.284-3.569,2.015-4.323,3.578
		c-2.64,5.469-4.64,11.241-7.259,16.719c-1.235,2.585-1.211,4.43,0.589,6.686c7.912,9.904,15.65,19.949,23.521,29.886
		c5.42,6.844,5.928,10.633-0.009,16.907c-12.314,13.02-25.044,25.653-37.84,38.203C519.145,659.734,515.502,661.209,511.929,663.437
		z M322.007,499.706c0.062,44.259,35.29,79.475,79.319,79.295c43.925-0.179,78.867-35.298,78.865-79.267
		c-0.001-43.833-35.175-78.957-79.08-78.964C357.227,420.758,321.949,455.964,322.007,499.706z"/>
	<path fill-rule="evenodd" clip-rule="evenodd" fill="#76B3CE" d="M796.418,341.931c0,5.929-0.231,11.87,0.08,17.78
		c0.206,3.888-1.373,6.038-4.938,6.655c-11.976,2.07-23.943,4.224-35.982,5.824c-3.708,0.492-6.22,1.465-7.507,5.015
		c-0.391,1.077-0.768,2.293-1.531,3.077c-5.877,6.052-4.504,11.951-1.139,18.969c4.385,9.142,7.248,19.005,10.843,28.533
		c1.375,3.65,0.03,5.737-3.229,7.555c-10.627,5.934-21.213,11.949-31.619,18.261c-3.542,2.146-5.926,1.775-8.404-1.278
		c-7.671-9.455-15.581-18.72-23.011-28.358c-2.216-2.873-4.255-4.241-7.746-3.393c-0.945,0.229-2.025,0.376-2.944,0.154
		c-8.438-2.033-13.287,2.048-17.904,8.758c-5.665,8.23-12.706,15.511-19.103,23.246c-2.278,2.755-4.471,2.951-7.629,1.056
		c-10.717-6.432-21.573-12.638-32.474-18.754c-2.969-1.668-4.037-3.695-2.839-6.841c4.502-11.814,8.889-23.677,13.647-35.386
		c1.116-2.754,1.477-4.83-0.494-7.134c-0.85-0.993-1.82-2.097-2.127-3.303c-2.395-9.417-9.673-10.267-17.694-11.08
		c-9.288-0.941-18.457-3.048-27.681-4.634c-4.548-0.782-5.969-3.388-5.839-7.986c0.317-11.354,0.354-22.731-0.014-34.081
		c-0.153-4.791,1.71-7.105,6.058-7.82c11.676-1.918,23.333-3.949,35.059-5.49c3.505-0.459,5.898-1.42,7.155-4.762
		c0.403-1.071,0.79-2.285,1.56-3.063c6.485-6.563,4.235-13.011,0.861-20.301c-4.19-9.055-7.1-18.702-10.539-28.103
		c-1.078-2.949-0.12-4.852,2.706-6.424c10.922-6.087,21.817-12.235,32.523-18.688c3.453-2.082,5.723-1.452,8.008,1.317
		c7.75,9.389,15.666,18.647,23.144,28.25c2.221,2.854,4.295,4.186,7.773,3.421c1.108-0.244,2.374-0.431,3.433-0.145
		c8.518,2.3,12.91-2.42,17.431-8.798c5.781-8.16,12.791-15.448,19.227-23.15c2.142-2.566,4.225-2.874,7.236-1.091
		c10.9,6.447,21.92,12.696,32.978,18.874c2.821,1.577,3.719,3.568,2.611,6.486c-4.487,11.814-8.892,23.661-13.604,35.386
		c-1.152,2.868-1.682,5.147,0.621,7.548c0.782,0.815,1.556,1.836,1.843,2.897c2.576,9.411,9.809,10.563,18.104,11.321
		c9.289,0.85,18.457,3.05,27.673,4.691c4.01,0.713,5.78,2.862,5.51,7.207C796.14,330.058,796.418,336.003,796.418,341.931z
		 M717.388,341.504c-0.104-21.229-18.226-39.277-39.485-39.324c-21.449-0.046-39.701,18.239-39.613,39.683
		c0.091,21.739,18.1,39.617,39.729,39.445C699.799,381.135,717.494,363.246,717.388,341.504z"/>
	<path fill-rule="evenodd" clip-rule="evenodd" fill="#76B3CE" d="M757.229,568.5c-1.203,4.108-1.89,7.344-3.086,10.383
		c-3.729,9.48-7.562,18.924-11.557,28.294c-1.067,2.494-1.503,4.531,0.491,6.688c0.882,0.954,1.818,2.08,2.148,3.287
		c2.565,9.397,9.762,10.62,18.058,11.361c9.132,0.819,18.148,2.935,27.21,4.526c4.361,0.765,6.194,3.063,6.042,7.836
		c-0.364,11.353-0.4,22.731,0.012,34.08c0.181,5.051-1.84,7.392-6.358,8.13c-11.675,1.902-23.342,3.88-35.062,5.434
		c-3.306,0.438-5.602,1.316-6.808,4.489c-0.467,1.224-0.887,2.623-1.767,3.506c-6.238,6.255-4.194,12.379-0.948,19.411
		c4.257,9.215,7.226,19.021,10.746,28.572c1.173,3.18,0.058,5.168-2.886,6.824c-11.038,6.213-22.008,12.546-32.902,19.003
		c-2.797,1.655-4.849,1.418-6.836-1.011c-8.027-9.798-16.187-19.49-24.006-29.447c-1.987-2.529-3.786-3.844-6.956-3.057
		c-1.1,0.271-2.37,0.456-3.432,0.178c-8.806-2.281-13.546,2.386-18.221,9.132c-5.602,8.078-12.51,15.25-18.802,22.854
		c-2.263,2.733-4.443,3.016-7.625,1.105c-10.574-6.347-21.287-12.475-32.059-18.488c-3.28-1.829-4.57-3.952-3.176-7.571
		c4.311-11.185,8.288-22.51,12.979-33.528c1.7-3.993,1.869-7.006-0.979-10.179c-0.544-0.606-1.164-1.298-1.353-2.048
		c-2.257-8.983-9.221-9.828-16.895-10.658c-9.609-1.037-19.104-3.147-28.643-4.832c-4.074-0.72-5.505-3.045-5.4-7.303
		c0.291-11.687,0.295-23.388,0.001-35.073c-0.111-4.336,1.523-6.519,5.538-7.183c11.831-1.959,23.643-4.052,35.519-5.67
		c3.471-0.47,5.95-1.293,7.127-4.752c0.369-1.077,0.839-2.249,1.606-3.04c6.36-6.554,4.343-12.973,0.904-20.301
		c-4.234-9.027-7.107-18.697-10.55-28.095c-1.078-2.938-0.177-4.861,2.661-6.444c10.923-6.088,21.811-12.245,32.524-18.688
		c3.412-2.053,5.707-1.547,8.021,1.267c7.836,9.531,15.813,18.949,23.44,28.646c1.987,2.527,3.786,3.778,6.964,3.1
		c1.588-0.338,3.378-0.557,4.908-0.17c7.706,1.938,11.7-2.15,15.866-7.991c6.001-8.411,13.184-15.979,19.822-23.942
		c2.123-2.543,4.198-2.938,7.229-1.143c10.9,6.448,21.985,12.586,32.922,18.974C755.152,565.834,756.201,567.453,757.229,568.5z
		 M678.151,618.441c-21.508-0.151-39.738,17.878-39.862,39.419c-0.125,21.688,17.749,39.674,39.48,39.726
		c21.707,0.054,39.514-17.741,39.611-39.589C717.477,636.822,699.398,618.593,678.151,618.441z"/>
</g>
</svg>
