<?xml version="1.0" encoding="utf-8"?>
<!-- Generator: Adobe Illustrator 16.0.0, SVG Export Plug-In . SVG Version: 6.00 Build 0)  -->
<!DOCTYPE svg PUBLIC "-//W3C//DTD SVG 1.1//EN" "http://www.w3.org/Graphics/SVG/1.1/DTD/svg11.dtd">
<svg version="1.1" id="Layer_1" xmlns="http://www.w3.org/2000/svg" xmlns:xlink="http://www.w3.org/1999/xlink" x="0px" y="0px"
	 width="1000px" height="1000px" viewBox="0 0 1000 1000" enable-background="new 0 0 1000 1000" xml:space="preserve">
<g>
	<path fill="#76B3CE" d="M199.799,499.317c0-50.095-0.096-100.197,0.028-150.29c0.115-45.99,27.215-85.495,70.188-100.42
		c11.534-4.008,24.402-5.77,36.677-5.827c100.385-0.449,200.772-0.238,301.169-0.263c14.606,0,28.622,2.813,42.133,8.331
		c9.351,3.816,11.49,12.61,4.578,20.123c-5.403,5.874-11.215,11.38-16.82,17.079c-3.628,3.696-7.885,4.223-12.871,3.458
		c-7.279-1.112-14.658-2.206-22.004-2.216c-98.824-0.143-197.655-0.131-296.489-0.076c-30.864,0.023-54.512,20.211-59.316,50.475
		c-0.549,3.443-0.516,6.991-0.516,10.488c-0.029,99.614-0.034,199.226-0.015,298.83c0,36.405,24.909,61.368,61.304,61.373
		c99.61,0.033,199.217,0.038,298.83,0c35.951-0.005,60.932-25.102,60.99-61.117c0.021-13.447,0.125-26.899-0.052-40.35
		c-0.069-5.214,1.486-9.432,5.243-13.075c6.72-6.503,13.292-13.167,19.862-19.826c4.178-4.224,8.843-6.362,14.731-3.913
		c5.763,2.394,7.035,7.098,7.001,12.84c-0.131,22.219,0.139,44.443-0.095,66.661c-0.539,49.777-32.903,90.944-80.766,102.327
		c-8.632,2.053-17.729,2.99-26.619,3.006c-99.999,0.204-199.995,0.2-300,0.094c-52.514-0.046-96.303-35.772-105.325-85.909
		c-1.337-7.429-1.748-15.117-1.773-22.683C199.723,598.733,199.799,549.027,199.799,499.317z"/>
	<path fill="#76B3CE" d="M678.678,313.717c34.948,34.986,69.619,69.683,104.827,104.928c-0.597,0.642-1.822,2.036-3.134,3.351
		c-79.227,79.252-158.459,158.512-237.838,237.627c-2.147,2.145-5.965,3.679-9.018,3.71c-32.93,0.264-65.863,0.163-99.784,0.163
		c0-2.24,0-4.276,0-6.311c0-31.188-0.105-62.371,0.165-93.546c0.032-3.054,1.613-6.856,3.764-9.019
		c78.98-79.238,158.113-158.323,237.225-237.422C676.232,315.862,677.685,314.619,678.678,313.717z M503.863,628.504
		c6.691,0,12.689,0.058,18.688-0.059c1.047-0.021,2.343-0.533,3.078-1.271c13.655-13.574,27.24-27.215,40.025-40.027
		c-18.657-18.651-37.018-37.005-55.577-55.566c-12.776,12.75-26.15,26.073-39.458,39.459c-0.878,0.89-1.744,2.266-1.771,3.437
		c-0.182,6.156-0.088,12.322-0.088,19.175c12.105,0,23.471,0,35.104,0C503.863,605.436,503.863,616.517,503.863,628.504z
		 M689.096,371.093c-2.357-2.892-3.921-6.073-6.464-7.517c-1.84-1.032-5.195-0.268-7.499,0.645
		c-2.034,0.812-3.639,2.853-5.282,4.491c-40.618,40.639-81.204,81.291-121.792,121.96c-1.508,1.509-3.711,2.996-4.096,4.808
		c-0.619,2.893-1.035,6.672,0.331,8.975c3.312,5.605,8.414,5.125,14.451-0.897c19.456-19.375,38.842-38.823,58.25-58.256
		c22.02-22.053,44.046-44.094,65.991-66.209C685.088,376.978,686.649,374.333,689.096,371.093z"/>
	<path fill="#76B3CE" d="M808.783,393.633c-35.339-35.34-70.029-70.035-105.436-105.441c12.681-12.093,25.176-25.247,39.007-36.795
		c10.719-8.951,28.072-7.646,39.299,0.844c2.326,1.758,4.565,3.672,6.628,5.727c17.128,17.056,34.266,34.106,51.284,51.273
		c16.525,16.67,16.445,36.951-0.125,53.68C829.174,373.287,818.837,383.569,808.783,393.633z"/>
</g>
</svg>
