<?xml version="1.0" encoding="utf-8"?>
<!-- Generator: Adobe Illustrator 16.0.0, SVG Export Plug-In . SVG Version: 6.00 Build 0)  -->
<!DOCTYPE svg PUBLIC "-//W3C//DTD SVG 1.1//EN" "http://www.w3.org/Graphics/SVG/1.1/DTD/svg11.dtd">
<svg version="1.1" id="Layer_1" xmlns="http://www.w3.org/2000/svg" xmlns:xlink="http://www.w3.org/1999/xlink" x="0px" y="0px"
	 width="412.095px" height="176.606px" viewBox="0 0 412.095 176.606" enable-background="new 0 0 412.095 176.606"
	 xml:space="preserve">
<path fill="none" d="M-1036-153.925h2500v939.85h-2500V-153.925z"/>
<g>
	<path fill="#3B5998" d="M219.667,77.079c-3.46,0-5.954,1.134-8.483,2.291v26.156c2.421,0.231,3.811,0.231,6.109,0.231
		c8.306,0,9.443-3.803,9.443-9.114V84.15C226.735,80.229,225.435,77.079,219.667,77.079L219.667,77.079z M164.51,75.651
		c-5.763,0-7.078,3.163-7.078,7.081v2.201h14.147v-2.201C171.58,78.814,170.265,75.651,164.51,75.651z M57.662,102.876
		c0,3.099,1.462,4.709,4.69,4.709c3.462,0,5.512-1.129,8.04-2.289v-6.205H62.82C59.236,99.092,57.662,99.759,57.662,102.876z
		 M273.32,77.079c-5.772,0-7.772,3.15-7.772,7.071v14.312c0,3.931,2,7.091,7.772,7.091c5.755,0,7.771-3.16,7.771-7.091V84.15
		C281.089,80.229,279.074,77.079,273.32,77.079z M29.376,118.924H12.409V77.856H3.931V63.706h8.479v-8.5
		c0-11.546,4.785-18.41,18.385-18.41h11.323v14.155h-7.077c-5.295,0-5.644,1.979-5.644,5.67l-0.021,7.083h12.819l-1.499,14.151
		h-11.32V118.924z M87.362,119.031H73.22l-0.611-3.577c-6.457,3.577-12.219,4.156-16.02,4.156c-10.371,0-15.891-6.928-15.891-16.51
		c0-11.303,6.441-15.337,17.964-15.337h11.729v-2.444c0-5.77-0.662-7.463-9.535-7.463H46.349l1.417-14.151h15.857
		c19.469,0,23.738,6.15,23.738,21.728V119.031L87.362,119.031z M135.448,78.894c-8.799-1.508-11.327-1.84-15.561-1.84
		c-7.605,0-9.904,1.677-9.904,8.136v12.217c0,6.458,2.299,8.144,9.904,8.144c4.234,0,6.761-0.337,15.561-1.852v13.803
		c-7.708,1.729-12.729,2.183-16.973,2.183c-18.217,0-25.457-9.58-25.457-23.418v-9.913c0-13.85,7.24-23.447,25.457-23.447
		c4.244,0,9.265,0.455,16.973,2.192V78.894L135.448,78.894z M188.545,96.266h-31.115v1.141c0,6.458,2.301,8.144,9.904,8.144
		c6.834,0,11.007-0.337,19.791-1.852v13.803c-8.472,1.729-12.886,2.183-21.196,2.183c-18.219,0-25.463-9.58-25.463-23.418V84.931
		c0-12.108,5.375-22.025,24.042-22.025s24.037,9.803,24.037,22.025V96.266z M243.699,96.528c0,13.375-3.822,23.131-26.98,23.131
		c-8.363,0-13.269-0.735-22.499-2.155V41.048l16.961-2.83v26.744c3.665-1.362,8.41-2.054,12.727-2.054
		c16.963,0,19.79,7.604,19.79,19.826v13.793H243.699z M298.07,96.818c0,11.539-4.763,22.73-24.694,22.73
		c-19.939,0-24.792-11.192-24.792-22.73v-11.14c0-11.544,4.853-22.736,24.792-22.736c19.931,0,24.694,11.192,24.694,22.736V96.818z
		 M352.404,96.818c0,11.539-4.77,22.73-24.696,22.73c-19.94,0-24.793-11.192-24.793-22.73v-11.14
		c0-11.544,4.853-22.736,24.793-22.736c19.926,0,24.696,11.192,24.696,22.736V96.818z M408.164,118.924h-18.385L374.23,92.967
		v25.957h-16.968V41.046l16.968-2.83v50.135l15.549-24.646h18.385l-16.976,26.895L408.164,118.924z M327.649,77.079
		c-5.762,0-7.762,3.15-7.762,7.071v14.312c0,3.931,2,7.091,7.762,7.091c5.755,0,7.792-3.16,7.792-7.091V84.15
		C335.441,80.229,333.404,77.079,327.649,77.079L327.649,77.079z"/>
</g>
</svg>
