<?xml version="1.0" encoding="utf-8"?>
<!-- Generator: Adobe Illustrator 16.0.0, SVG Export Plug-In . SVG Version: 6.00 Build 0)  -->
<!DOCTYPE svg PUBLIC "-//W3C//DTD SVG 1.1//EN" "http://www.w3.org/Graphics/SVG/1.1/DTD/svg11.dtd">
<svg version="1.1" id="Layer_1" xmlns="http://www.w3.org/2000/svg" xmlns:xlink="http://www.w3.org/1999/xlink" x="0px" y="0px"
	 width="412.095px" height="176.606px" viewBox="0 0 412.095 176.606" enable-background="new 0 0 412.095 176.606"
	 xml:space="preserve">
<g>
	<path fill-rule="evenodd" clip-rule="evenodd" fill="#4985EC" d="M79.399,72.899c7.315,0,14.629,0.008,21.945-0.01
		c1.01-0.002,1.852-0.019,2.016,1.34c1.812,15.069-0.9,28.87-11.446,40.405c-7.128,7.796-16.166,12.2-26.476,13.835
		c-15.964,2.533-30.638-0.716-43.189-11.184C9.258,106.451,2.696,92.378,3.188,75.408C3.869,51.863,22.9,30.464,46.305,26.649
		c15.27-2.49,29.156,0.857,41.455,10.362c3.513,2.715,3.477,2.741,0.457,5.836c-2.08,2.131-4.161,4.263-6.173,6.458
		c-0.683,0.745-1.049,0.877-1.913,0.137C65.04,36.498,44.07,36.863,29.854,50.58c-7.963,7.684-11.563,17.387-11.103,28.437
		c0.777,18.642,13.246,33.014,31.743,35.563c13.033,1.796,24.802-1.469,33.305-12.47c2.957-3.827,4.377-8.332,5.173-13.079
		c0.266-1.584-0.081-1.951-1.656-1.94c-9.752,0.065-19.507-0.041-29.259,0.091c-2.15,0.029-2.632-0.634-2.537-2.624
		c0.157-3.244,0.117-6.502,0.01-9.75c-0.05-1.507,0.378-1.963,1.924-1.946C64.768,72.944,72.084,72.899,79.399,72.899z"/>
	<path fill-rule="evenodd" clip-rule="evenodd" fill="#4985EC" d="M303.306,121.511c-3.065,3.244-6.227,5.642-10.186,6.663
		c-11.454,2.95-21.401-0.188-29.584-8.318c-9.206-9.146-12.033-20.445-8.553-32.88c3.428-12.252,11.419-20.475,23.989-23.455
		c8.784-2.083,16.953-0.598,23.686,5.994c0.127,0.124,0.319,0.181,0.72,0.398c0-1.435,0.031-2.694-0.011-3.951
		c-0.028-0.868,0.312-1.205,1.183-1.199c3.928,0.024,7.855,0.024,11.782,0c0.893-0.005,1.221,0.376,1.156,1.223
		c-0.03,0.404-0.004,0.812-0.004,1.218c0.001,19.3,0.062,38.6-0.029,57.899c-0.037,7.971-1.567,15.622-6.334,22.275
		c-5.397,7.53-13.062,10.913-22.038,11.635c-14.017,1.127-25.618-5.446-32.146-17.955c-0.684-1.31-0.527-1.778,0.811-2.298
		c3.212-1.248,6.398-2.578,9.534-4.006c1.355-0.617,1.929-0.333,2.616,0.975c4.931,9.377,14.043,12.049,22.875,9.021
		c6.773-2.322,9.822-7.753,10.489-14.592C303.525,127.479,303.306,124.752,303.306,121.511z M268.332,96.102
		c-0.016,4.292,1.014,8.253,3.412,11.842c7.413,11.093,23.358,10.88,29.872-0.7c4.488-7.979,4.228-16.313-0.979-23.979
		c-5.586-8.227-16.342-9.801-24.315-3.872C270.738,83.548,268.504,89.344,268.332,96.102z"/>
	<path fill-rule="evenodd" clip-rule="evenodd" fill="#DA3337" d="M141.941,129.106c-19.1,0-33.763-14.594-33.619-33.462
		c0.142-18.603,14.738-32.924,33.544-32.913c19.136,0.012,33.442,14.315,33.375,33.367
		C175.176,114.893,160.835,129.106,141.941,129.106z M123.06,95.758c0.074,1.079,0.113,2.163,0.228,3.238
		c1.521,14.222,17.376,21.884,28.844,13.797c7.151-5.042,9.318-12.314,8.11-20.729c-1.54-10.731-11.207-17.715-21.847-15.866
		C129.509,77.742,123.124,85.911,123.06,95.758z"/>
	<path fill-rule="evenodd" clip-rule="evenodd" fill="#F3C20E" d="M214.551,129.104c-19.282,0-33.563-14.306-33.558-33.616
		c0.005-18.398,14.652-32.764,33.395-32.754c19.317,0.011,33.33,14.107,33.319,33.518
		C247.696,114.96,233.423,129.104,214.551,129.104z M233.075,95.735c0.088-1.474-0.065-3.228-0.493-4.941
		c-1.708-6.86-5.706-11.817-12.498-14.036c-6.721-2.195-12.963-0.779-18.103,4.006c-5.656,5.265-7.208,12.024-5.927,19.51
		c1.833,10.704,11.989,17.619,22.472,15.324C227.103,113.719,233.068,105.698,233.075,95.735z"/>
	<path fill-rule="evenodd" clip-rule="evenodd" fill="#DA3337" d="M381.067,129.238c-16.118,1.261-31.669-12.442-32.694-30.155
		c-0.478-8.276,0.861-16.084,5.625-22.978c6.866-9.934,16.544-14.438,28.486-13.211c11.163,1.146,18.766,7.653,23.671,17.51
		c0.901,1.812,1.535,3.757,2.449,5.562c0.659,1.304,0.325,1.84-0.965,2.369c-13.488,5.544-26.954,11.145-40.429,16.724
		c-2.576,1.067-2.529,1.021-1.023,3.38c6.35,9.944,21.313,9.845,28.562,1.63c0.626-0.709,1.264-1.428,1.757-2.227
		c0.541-0.875,1.023-0.8,1.783-0.282c3.072,2.097,6.142,4.201,9.292,6.176c1.197,0.751,0.945,1.249,0.222,2.145
		C401.312,123.928,393.109,128.682,381.067,129.238z M379.95,75.464c-8.719-0.077-17.561,8.718-17.668,17.471
		c-0.022,1.828,0.565,1.821,1.988,1.218c8.761-3.711,17.536-7.391,26.342-10.994c1.419-0.581,1.307-1.115,0.553-2.134
		C388.366,77.248,384.493,75.693,379.95,75.464z"/>
	<path fill-rule="evenodd" clip-rule="evenodd" fill="#40BB58" d="M326.947,78.272c0-15.634,0.041-31.268-0.052-46.901
		c-0.011-1.915,0.61-2.237,2.301-2.178c3.448,0.12,6.907,0.139,10.353-0.006c1.774-0.075,2.268,0.399,2.26,2.224
		c-0.073,18.95-0.044,37.899-0.044,56.85c0,12.318-0.024,24.635,0.029,36.953c0.007,1.521-0.277,2.15-1.98,2.083
		c-3.582-0.141-7.175-0.129-10.758-0.004c-1.673,0.058-2.154-0.418-2.147-2.118C326.975,109.54,326.947,93.906,326.947,78.272z"/>
</g>
</svg>
