<?xml version="1.0" encoding="utf-8"?>
<!-- Generator: Adobe Illustrator 16.0.0, SVG Export Plug-In . SVG Version: 6.00 Build 0)  -->
<!DOCTYPE svg PUBLIC "-//W3C//DTD SVG 1.1//EN" "http://www.w3.org/Graphics/SVG/1.1/DTD/svg11.dtd">
<svg version="1.1" id="Layer_1" xmlns="http://www.w3.org/2000/svg" xmlns:xlink="http://www.w3.org/1999/xlink" x="0px" y="0px"
	 width="412.095px" height="176.606px" viewBox="0 0 412.095 176.606" enable-background="new 0 0 412.095 176.606"
	 xml:space="preserve">
<g>
	<path fill-rule="evenodd" clip-rule="evenodd" fill="#242021" d="M352.795,67.023c0.904-0.315,1.764-0.637,2.506-1.189
		c6.871-5.112,14.466-6.07,22.634-4.066c10.88,2.669,16.677,9.96,18.923,20.55c1.523,7.181,1.508,14.439,1.098,21.717
		c-0.302,5.355-0.873,10.673-2.76,15.744c-3.802,10.217-11.387,15.562-22.013,16.818c-5.083,0.602-9.964-0.21-14.435-2.841
		c-1.234-0.727-2.384-1.601-3.556-2.431c-0.489-0.346-0.707-0.296-0.896,0.314c-0.404,1.302-0.68,2.583-0.655,3.981
		c0.089,4.878,0.1,9.758,0.052,14.636c-0.033,3.458-0.958,6.475-4.48,8.053c-5.866,2.629-12.262-1.283-12.32-7.694
		c-0.094-10.196-0.056-20.395-0.06-30.593c-0.007-16.518-0.003-33.034-0.003-49.551c-0.001-1.521,0.016-3.042,0.337-4.536
		c0.653-3.028,3.238-5.079,6.805-5.43c4.509-0.444,7.367,1.515,8.646,5.923C352.67,66.618,352.729,66.804,352.795,67.023z
		 M361.955,99.461c0,1.357-0.045,2.716,0.009,4.071c0.137,3.403,0.542,6.766,1.828,9.958c3.081,7.649,13.641,10.206,19.706,4.753
		c2.331-2.096,3.368-4.906,3.996-7.87c1.277-6.037,1.158-12.151,0.845-18.265c-0.136-2.637-0.557-5.238-1.316-7.774
		c-1.792-5.984-5.519-9.021-11.158-8.676c-7.001,0.428-10.705,2.686-12.584,10.017C362.121,90.193,361.914,94.824,361.955,99.461z"
		/>
	<path fill-rule="evenodd" clip-rule="evenodd" fill="#242021" d="M257.609,105.342c-5.558-0.001-11.116,0-16.675-0.002
		c-2.073,0-2.968,0.734-2.905,2.838c0.115,3.901,1.151,7.521,4.179,10.232c4.474,4.008,9.633,4.414,15.127,2.631
		c3.048-0.989,5.664-2.734,8.075-4.814c0.785-0.678,1.603-1.32,2.427-1.95c4.343-3.316,10.062-0.272,10.729,4.916
		c0.482,3.744-1.251,6.586-3.664,9.101c-3.767,3.924-8.538,6.085-13.724,7.404c-6.318,1.608-12.698,2.031-19.091,0.514
		c-9.307-2.21-15.188-8.229-18.455-17.002c-2.477-6.653-3.108-13.603-2.893-20.631c0.195-6.354,0.663-12.688,2.83-18.754
		c3.79-10.609,11.394-16.413,22.465-17.891c4.791-0.64,9.567-0.761,14.298,0.357c9.435,2.23,15.437,8.183,18.232,17.339
		c2.088,6.836,2.523,13.888,1.907,20.987c-0.275,3.185-1.484,4.258-4.636,4.574c-0.913,0.091-1.834,0.143-2.752,0.145
		C267.926,105.35,262.768,105.343,257.609,105.342z M248.392,92.458c4.438,0,8.878,0,13.317,0c0.04,0,0.081-0.006,0.119,0.001
		c1.027,0.188,1.374-0.345,1.317-1.268c-0.053-0.877-0.105-1.755-0.211-2.627c-0.472-3.9-1.849-7.356-5.079-9.812
		c-3.251-2.47-6.959-2.906-10.912-2.439c-6.271,0.739-11.224,4.828-12.945,10.881c-0.327,1.152-0.648,2.328-0.523,3.536
		c0.149,1.449,0.536,1.772,1.84,1.753C239.672,92.419,244.033,92.458,248.392,92.458z"/>
	<path fill-rule="evenodd" clip-rule="evenodd" fill="#242021" d="M183.466,106.779c2.812-9.556,5.603-19.119,8.445-28.667
		c1.057-3.55,1.892-7.172,3.326-10.604c0.245-0.588,0.52-1.168,0.835-1.72c2.566-4.497,6.104-5.387,10.905-3.215
		c3.077,1.392,4.575,4.696,4.023,8.341c-0.589,3.893-2.085,7.525-3.262,11.244c-6.038,19.075-12.128,38.133-18.206,57.195
		c-0.959,3.01-2.137,5.925-3.739,8.661c-2.231,3.812-5.402,6.324-9.757,7.32c-4.366,1-8.739,1.486-13.159,0.434
		c-0.886-0.212-1.76-0.542-2.583-0.934c-3.509-1.67-5.119-4.886-4.339-8.562c0.709-3.348,3.727-5.771,7.396-5.879
		c1.397-0.041,2.799,0.014,4.198,0.054c4.892,0.144,7.907-3.638,6.688-8.381c-0.593-2.309-1.82-4.337-2.852-6.445
		c-6.454-13.188-12.945-26.355-19.421-39.532c-1.601-3.256-3.212-6.508-4.782-9.779c-1.928-4.021-1.334-8.723,1.396-11.39
		c3.408-3.329,8.693-3.584,11.818-0.589c0.769,0.737,1.238,1.659,1.723,2.573c6.913,13.047,13.82,26.098,20.735,39.145
		C182.994,106.315,183.04,106.682,183.466,106.779z"/>
	<path fill-rule="evenodd" clip-rule="evenodd" fill="#BE2F1C" d="M76.354,73.046c-0.034,2.288-0.036,4.556-1.004,6.706
		c-1.443,3.2-5.094,4.406-8.135,2.64c-1.88-1.092-3.232-2.731-4.372-4.526C54.237,64.317,45.655,50.753,37.07,37.19
		c-1.708-2.699-3.402-5.407-5.093-8.118c-1.583-2.537-1.197-5.06,1.093-7.018c1.66-1.419,3.624-2.337,5.612-3.166
		c7.81-3.254,15.902-5.502,24.301-6.566c1.893-0.239,3.817-0.366,5.713,0.152c2.284,0.624,3.759,2.372,3.922,4.719
		c0.817,11.759,1.65,23.517,2.444,35.277C75.526,59.326,75.926,66.187,76.354,73.046z"/>
	<path fill-rule="evenodd" clip-rule="evenodd" fill="#242021" d="M298.95,87.146c0-13.157-0.004-26.313,0.006-39.47
		c0.001-0.876,0.08-1.755,0.158-2.629c0.297-3.304,2.118-5.444,5.176-6.528c3.232-1.146,6.304-0.853,9.008,1.412
		c1.168,0.979,1.78,2.252,2.022,3.812c0.407,2.625,0.436,5.25,0.435,7.888c-0.006,25.274-0.008,50.548,0.002,75.821
		c0.001,2.808-0.505,5.397-2.654,7.434c-3.752,3.554-10.391,2.732-12.945-1.635c-1.002-1.711-1.186-3.643-1.189-5.554
		C298.934,114.18,298.95,100.663,298.95,87.146z"/>
	<path fill-rule="evenodd" clip-rule="evenodd" fill="#BE2F1C" d="M75.713,137.865c0,5.517,0.04,11.033-0.013,16.55
		c-0.04,4.104-2.009,6-6.096,5.978c-3.971-0.021-7.71-1.205-11.421-2.441c-4.746-1.58-9.364-3.467-13.529-6.301
		c-0.622-0.423-1.203-0.929-1.729-1.469c-2.079-2.132-2.287-4.661-0.508-7.035c2.733-3.646,5.766-7.049,8.705-10.527
		c4.382-5.185,8.779-10.358,13.187-15.522c1.82-2.132,4.683-2.766,7.423-1.707c2.761,1.068,4.224,3.177,4.22,6.043
		c-0.007,5.478-0.002,10.955-0.002,16.433C75.871,137.865,75.792,137.865,75.713,137.865z"/>
	<path fill-rule="evenodd" clip-rule="evenodd" fill="#BE2F1C" d="M93.289,95.674c-3.146,0.057-5.139-1.429-6.417-3.925
		c-1.224-2.391-0.932-4.638,0.702-6.833c6.295-8.462,12.528-16.973,18.786-25.463c0.26-0.354,0.567-0.675,0.81-1.039
		c2.207-3.303,5.803-3.059,8.452-0.979c1.866,1.465,3.461,3.202,4.937,5.044c3.834,4.789,7.206,9.869,9.567,15.564
		c0.537,1.295,0.918,2.628,0.935,4.06c0.031,2.696-1.21,4.542-3.811,5.246c-4.352,1.177-8.724,2.278-13.096,3.375
		c-6.424,1.613-12.902,3.008-19.292,4.763C94.292,95.644,93.676,95.631,93.289,95.674z"/>
	<path fill-rule="evenodd" clip-rule="evenodd" fill="#BE2F1C" d="M110.735,149.362c-1.625,0.023-2.907-0.66-3.841-2.002
		c-3.63-5.212-6.82-10.704-10.189-16.081c-2.629-4.195-5.176-8.441-7.804-12.637c-1.454-2.321-1.577-4.649-0.205-7.006
		c1.289-2.212,3.163-3.562,5.818-3.581c1.271-0.009,2.395,0.585,3.56,0.976c10.018,3.357,20.115,6.478,30.068,10.028
		c3.229,1.152,4.493,3.602,3.539,6.907c-0.989,3.426-2.952,6.355-4.979,9.23c-2.976,4.223-6.246,8.194-10.209,11.542
		C114.835,148.14,113.11,149.451,110.735,149.362z"/>
	<path fill-rule="evenodd" clip-rule="evenodd" fill="#BE2F1C" d="M18.873,101.362c0.173-5.089,0.376-9.958,1.678-14.7
		c0.393-1.431,0.868-2.833,1.877-3.969c1.428-1.607,3.194-2.26,5.277-1.588c4.6,1.485,9.004,3.479,13.477,5.293
		c6.174,2.505,12.335,5.04,18.489,7.593c2.795,1.159,4.067,3.471,3.878,6.862c-0.153,2.746-1.846,4.791-4.565,5.652
		c-9.354,2.962-18.698,5.955-28.049,8.928c-1.255,0.398-2.521,0.77-3.791,1.119c-3.384,0.934-6.075-0.688-7.079-4.238
		C19.03,108.66,19.002,104.899,18.873,101.362z"/>
	<path fill-rule="evenodd" clip-rule="evenodd" fill="#FEFEFE" d="M361.955,99.461c-0.041-4.637,0.166-9.268,1.325-13.786
		c1.879-7.331,5.583-9.589,12.584-10.017c5.64-0.345,9.366,2.692,11.158,8.676c0.76,2.536,1.181,5.137,1.316,7.774
		c0.313,6.114,0.433,12.228-0.845,18.265c-0.628,2.964-1.665,5.774-3.996,7.87c-6.065,5.453-16.625,2.896-19.706-4.753
		c-1.286-3.192-1.691-6.555-1.828-9.958C361.91,102.177,361.955,100.818,361.955,99.461z"/>
	<path fill-rule="evenodd" clip-rule="evenodd" fill="#FEFEFE" d="M248.392,92.458c-4.359,0-8.72-0.04-13.077,0.024
		c-1.304,0.019-1.69-0.304-1.84-1.753c-0.125-1.208,0.196-2.384,0.523-3.536c1.722-6.054,6.674-10.142,12.945-10.881
		c3.953-0.466,7.661-0.031,10.912,2.439c3.23,2.456,4.607,5.912,5.079,9.812c0.105,0.872,0.158,1.75,0.211,2.627
		c0.057,0.923-0.29,1.456-1.317,1.268c-0.038-0.007-0.079-0.001-0.119-0.001C257.27,92.458,252.831,92.458,248.392,92.458z"/>
</g>
</svg>
